<svg width="59" height="59" viewBox="0 0 59 59" fill="none" xmlns="http://www.w3.org/2000/svg">
<circle cx="29.5" cy="29.5" r="29.5" fill="#F26B21"/>
<path d="M46.8437 28.9219C46.8422 27.3903 46.407 25.8905 45.5885 24.596C44.77 23.3015 43.6017 22.2652 42.2187 21.6071V21.4063C42.2174 19.9164 41.7365 18.4667 40.8472 17.2714C39.958 16.0761 38.7075 15.1988 37.2809 14.7694C35.8544 14.34 34.3275 14.3812 32.9261 14.8869C31.5248 15.3927 30.3235 16.3361 29.5 17.5776C28.6765 16.3361 27.4752 15.3927 26.0738 14.8869C24.6725 14.3812 23.1456 14.34 21.719 14.7694C20.2925 15.1988 19.042 16.0761 18.1527 17.2714C17.2635 18.4667 16.7826 19.9164 16.7812 21.4063V21.6071C15.3971 22.2634 14.2277 23.2991 13.4088 24.5936C12.5899 25.8882 12.1552 27.3886 12.1552 28.9204C12.1552 30.4523 12.5899 31.9527 13.4088 33.2472C14.2277 34.5418 15.3971 35.5774 16.7812 36.2337V36.4375C16.7826 37.9273 17.2635 39.3771 18.1527 40.5724C19.042 41.7677 20.2925 42.6449 21.719 43.0743C23.1456 43.5038 24.6725 43.4626 26.0738 42.9568C27.4752 42.4511 28.6765 41.5076 29.5 40.2661C30.3235 41.5076 31.5248 42.4511 32.9261 42.9568C34.3275 43.4626 35.8544 43.5038 37.2809 43.0743C38.7075 42.6449 39.958 41.7677 40.8472 40.5724C41.7365 39.3771 42.2174 37.9273 42.2187 36.4375V36.2337C43.6015 35.5761 44.7697 34.5404 45.5882 33.2464C46.4067 31.9524 46.842 30.453 46.8437 28.9219ZM23.7187 41.0625C22.5783 41.0623 21.4781 40.6408 20.6296 39.8789C19.781 39.1171 19.2438 38.0685 19.1212 36.9347C19.4951 36.988 19.8723 37.0151 20.25 37.0156H21.4062C21.7129 37.0156 22.007 36.8938 22.2238 36.677C22.4407 36.4601 22.5625 36.166 22.5625 35.8594C22.5625 35.5527 22.4407 35.2586 22.2238 35.0418C22.007 34.8249 21.7129 34.7031 21.4062 34.7031H20.25C18.885 34.7047 17.5634 34.2233 16.5193 33.344C15.4752 32.4648 14.7759 31.2444 14.5452 29.899C14.3144 28.5537 14.5672 27.1701 15.2587 25.9932C15.9502 24.8163 17.0358 23.922 18.3234 23.4687C18.5487 23.389 18.7437 23.2413 18.8817 23.0462C19.0196 22.851 19.0937 22.6179 19.0937 22.3789V21.4063C19.0937 20.1796 19.581 19.0032 20.4484 18.1359C21.3157 17.2685 22.4921 16.7813 23.7187 16.7813C24.9454 16.7813 26.1217 17.2685 26.9891 18.1359C27.8565 19.0032 28.3437 20.1796 28.3437 21.4063V31.272C27.0741 30.13 25.4264 29.4987 23.7187 29.5C23.4121 29.5 23.118 29.6218 22.9011 29.8387C22.6843 30.0555 22.5625 30.3496 22.5625 30.6563C22.5625 30.9629 22.6843 31.257 22.9011 31.4738C23.118 31.6907 23.4121 31.8125 23.7187 31.8125C24.9454 31.8125 26.1217 32.2998 26.9891 33.1671C27.8565 34.0345 28.3437 35.2109 28.3437 36.4375C28.3437 37.6641 27.8565 38.8405 26.9891 39.7079C26.1217 40.5752 24.9454 41.0625 23.7187 41.0625ZM38.75 34.7031H37.5937C37.2871 34.7031 36.993 34.8249 36.7761 35.0418C36.5593 35.2586 36.4375 35.5527 36.4375 35.8594C36.4375 36.166 36.5593 36.4601 36.7761 36.677C36.993 36.8938 37.2871 37.0156 37.5937 37.0156H38.75C39.1277 37.0151 39.5049 36.988 39.8788 36.9347C39.7827 37.8231 39.4314 38.6646 38.8672 39.3576C38.303 40.0505 37.5502 40.5652 36.6998 40.8394C35.8493 41.1136 34.9376 41.1355 34.075 40.9026C33.2123 40.6697 32.4356 40.1918 31.8387 39.5268C31.2418 38.8619 30.8504 38.0382 30.7116 37.1555C30.5729 36.2728 30.6929 35.3687 31.057 34.5527C31.4212 33.7367 32.0139 33.0437 32.7636 32.5574C33.5132 32.0711 34.3877 31.8124 35.2812 31.8125C35.5879 31.8125 35.882 31.6907 36.0988 31.4738C36.3157 31.257 36.4375 30.9629 36.4375 30.6563C36.4375 30.3496 36.3157 30.0555 36.0988 29.8387C35.882 29.6218 35.5879 29.5 35.2812 29.5C33.5736 29.4987 31.9259 30.13 30.6562 31.272V21.4063C30.6562 20.1796 31.1435 19.0032 32.0109 18.1359C32.8782 17.2685 34.0546 16.7813 35.2812 16.7813C36.5079 16.7813 37.6842 17.2685 38.5516 18.1359C39.419 19.0032 39.9062 20.1796 39.9062 21.4063V22.3789C39.9063 22.6179 39.9804 22.851 40.1183 23.0462C40.2563 23.2413 40.4513 23.389 40.6766 23.4687C41.9641 23.922 43.0498 24.8163 43.7413 25.9932C44.4328 27.1701 44.6855 28.5537 44.4548 29.899C44.2241 31.2444 43.5248 32.4648 42.4807 33.344C41.4365 34.2233 40.115 34.7047 38.75 34.7031ZM41.0625 27.1875C41.0625 27.4942 40.9407 27.7883 40.7238 28.0051C40.507 28.2219 40.2129 28.3438 39.9062 28.3438H39.3281C37.9482 28.3438 36.6247 27.7956 35.6489 26.8198C34.6732 25.844 34.125 24.5206 34.125 23.1406V22.5625C34.125 22.2558 34.2468 21.9617 34.4636 21.7449C34.6805 21.5281 34.9746 21.4063 35.2812 21.4063C35.5879 21.4063 35.882 21.5281 36.0988 21.7449C36.3157 21.9617 36.4375 22.2558 36.4375 22.5625V23.1406C36.4375 23.9073 36.742 24.6425 37.2841 25.1846C37.8262 25.7267 38.5615 26.0313 39.3281 26.0313H39.9062C40.2129 26.0313 40.507 26.1531 40.7238 26.3699C40.9407 26.5867 41.0625 26.8808 41.0625 27.1875ZM19.6719 28.3438H19.0937C18.7871 28.3438 18.493 28.2219 18.2761 28.0051C18.0593 27.7883 17.9375 27.4942 17.9375 27.1875C17.9375 26.8808 18.0593 26.5867 18.2761 26.3699C18.493 26.1531 18.7871 26.0313 19.0937 26.0313H19.6719C20.4385 26.0313 21.1737 25.7267 21.7158 25.1846C22.2579 24.6425 22.5625 23.9073 22.5625 23.1406V22.5625C22.5625 22.2558 22.6843 21.9617 22.9011 21.7449C23.118 21.5281 23.4121 21.4063 23.7187 21.4063C24.0254 21.4063 24.3195 21.5281 24.5363 21.7449C24.7532 21.9617 24.875 22.2558 24.875 22.5625V23.1406C24.875 24.5206 24.3268 25.844 23.351 26.8198C22.3752 27.7956 21.0518 28.3438 19.6719 28.3438Z" fill="white"/>
</svg>
