<svg width="59" height="59" viewBox="0 0 59 59" fill="none" xmlns="http://www.w3.org/2000/svg">
<circle cx="29.5" cy="29.5" r="29.5" fill="#F26B21"/>
<path d="M27.1875 27.7656C27.1875 28.1087 27.0858 28.444 26.8952 28.7292C26.7046 29.0144 26.4338 29.2367 26.1168 29.368C25.7999 29.4992 25.4512 29.5336 25.1148 29.4667C24.7783 29.3998 24.4693 29.2346 24.2267 28.992C23.9842 28.7495 23.819 28.4404 23.7521 28.104C23.6852 27.7675 23.7195 27.4188 23.8508 27.1019C23.982 26.785 24.2043 26.5141 24.4896 26.3235C24.7748 26.133 25.1101 26.0312 25.4531 26.0312C25.9131 26.0312 26.3543 26.214 26.6795 26.5392C27.0048 26.8645 27.1875 27.3056 27.1875 27.7656ZM33.5469 26.0312C33.2038 26.0312 32.8685 26.133 32.5833 26.3235C32.2981 26.5141 32.0758 26.785 31.9445 27.1019C31.8133 27.4188 31.7789 27.7675 31.8458 28.104C31.9127 28.4404 32.0779 28.7495 32.3205 28.992C32.563 29.2346 32.8721 29.3998 33.2085 29.4667C33.545 29.5336 33.8937 29.4992 34.2106 29.368C34.5275 29.2367 34.7984 29.0144 34.989 28.7292C35.1795 28.444 35.2812 28.1087 35.2812 27.7656C35.2812 27.3056 35.0985 26.8645 34.7733 26.5392C34.448 26.214 34.0069 26.0312 33.5469 26.0312ZM43.375 28.3438V42.2188C43.375 42.4377 43.3129 42.6522 43.1958 42.8372C43.0788 43.0223 42.9115 43.1703 42.7137 43.264C42.5158 43.3577 42.2953 43.3933 42.078 43.3666C41.8607 43.34 41.6554 43.2522 41.486 43.1134L37.9796 40.2445L34.4719 43.1134C34.2653 43.2824 34.0067 43.3747 33.7398 43.3747C33.473 43.3747 33.2143 43.2824 33.0078 43.1134L29.5 40.2445L25.9922 43.1134C25.7857 43.2824 25.527 43.3747 25.2602 43.3747C24.9933 43.3747 24.7347 43.2824 24.5281 43.1134L21.0204 40.2445L17.514 43.1134C17.3446 43.2522 17.1393 43.34 16.922 43.3666C16.7047 43.3933 16.4842 43.3577 16.2863 43.264C16.0885 43.1703 15.9212 43.0223 15.8042 42.8372C15.6871 42.6522 15.625 42.4377 15.625 42.2188V28.3438C15.625 24.6639 17.0868 21.1347 19.6889 18.5326C22.291 15.9306 25.8201 14.4687 29.5 14.4688C33.1799 14.4688 36.709 15.9306 39.3111 18.5326C41.9132 21.1347 43.375 24.6639 43.375 28.3438ZM41.0625 28.3438C41.0625 25.2772 39.8443 22.3362 37.6759 20.1678C35.5075 17.9994 32.5666 16.7812 29.5 16.7812C26.4334 16.7812 23.4925 17.9994 21.3241 20.1678C19.1557 22.3362 17.9375 25.2772 17.9375 28.3438V39.7791L20.289 37.8554C20.4956 37.6864 20.7542 37.5941 21.0211 37.5941C21.2879 37.5941 21.5466 37.6864 21.7531 37.8554L25.2609 40.7243L28.7672 37.8554C28.9739 37.686 29.2328 37.5935 29.5 37.5935C29.7672 37.5935 30.0261 37.686 30.2328 37.8554L33.7391 40.7243L37.2469 37.8554C37.4534 37.6864 37.7121 37.5941 37.9789 37.5941C38.2458 37.5941 38.5044 37.6864 38.711 37.8554L41.0625 39.7791V28.3438Z" fill="white"/>
</svg>
