<svg width="59" height="59" viewBox="0 0 59 59" fill="none" xmlns="http://www.w3.org/2000/svg">
<circle cx="29.5" cy="29.5" r="29.5" fill="#F26B21"/>
<path d="M44.4375 24.875C44.4381 24.7675 44.4231 24.6604 44.393 24.557L42.2629 17.3016C42.1197 16.8201 41.8205 16.3967 41.4098 16.0946C40.9991 15.7924 40.4991 15.6277 39.9844 15.625H18.0156C17.5009 15.6277 17.0009 15.7924 16.5902 16.0946C16.1795 16.3967 15.8803 16.8201 15.7371 17.3016L13.6085 24.557C13.5779 24.6604 13.5624 24.7674 13.5625 24.875V27.1875C13.5625 28.085 13.7771 28.9702 14.1893 29.773C14.6016 30.5757 15.2001 31.274 15.9375 31.8125V41.0625C15.9375 41.6758 16.1877 42.264 16.6331 42.6977C17.0785 43.1314 17.6826 43.375 18.3125 43.375H39.6875C40.3174 43.375 40.9215 43.1314 41.3669 42.6977C41.8123 42.264 42.0625 41.6758 42.0625 41.0625V31.8125C42.7999 31.274 43.3984 30.5757 43.8107 29.773C44.2229 28.9702 44.4375 28.085 44.4375 27.1875V24.875ZM18.0156 17.9375H39.9844L41.6795 23.7188H16.3249L18.0156 17.9375ZM25.4375 26.0312H32.5625V27.1875C32.5625 28.1075 32.1872 28.9898 31.5191 29.6403C30.851 30.2908 29.9448 30.6562 29 30.6562C28.0552 30.6562 27.149 30.2908 26.4809 29.6403C25.8128 28.9898 25.4375 28.1075 25.4375 27.1875V26.0312ZM23.0625 26.0312V27.1875C23.0625 28.1075 22.6872 28.9898 22.0191 29.6403C21.351 30.2908 20.4448 30.6562 19.5 30.6562C18.5552 30.6562 17.649 30.2908 16.9809 29.6403C16.3128 28.9898 15.9375 28.1075 15.9375 27.1875V26.0312H23.0625ZM39.6875 41.0625H18.3125V32.8531C18.7034 32.9299 19.1012 32.9686 19.5 32.9688C20.4218 32.9688 21.3309 32.7598 22.1553 32.3584C22.9798 31.957 23.6969 31.3743 24.25 30.6562C24.8031 31.3743 25.5202 31.957 26.3447 32.3584C27.1691 32.7598 28.0782 32.9688 29 32.9688C29.9218 32.9688 30.8309 32.7598 31.6553 32.3584C32.4798 31.957 33.1969 31.3743 33.75 30.6562C34.3031 31.3743 35.0202 31.957 35.8447 32.3584C36.6691 32.7598 37.5782 32.9688 38.5 32.9688C38.8988 32.9686 39.2966 32.9299 39.6875 32.8531V41.0625ZM38.5 30.6562C37.5552 30.6562 36.649 30.2908 35.9809 29.6403C35.3128 28.9898 34.9375 28.1075 34.9375 27.1875V26.0312H42.0625V27.1875C42.0625 28.1075 41.6872 28.9898 41.0191 29.6403C40.351 30.2908 39.4448 30.6562 38.5 30.6562Z" fill="white"/>
</svg>
