<svg width="59" height="59" viewBox="0 0 59 59" fill="none" xmlns="http://www.w3.org/2000/svg">
<circle cx="29.5" cy="29.5" r="29.5" fill="#F26B21"/>
<path d="M29.5 14.4688C21.7199 14.4688 15.625 18.0242 15.625 22.5625V36.4375C15.625 40.9758 21.7199 44.5312 29.5 44.5312C37.2801 44.5312 43.375 40.9758 43.375 36.4375V22.5625C43.375 18.0242 37.2801 14.4688 29.5 14.4688ZM41.0625 29.5C41.0625 30.8904 39.9236 32.3082 37.9392 33.3908C35.7047 34.6092 32.7071 35.2812 29.5 35.2812C26.2929 35.2812 23.2953 34.6092 21.0608 33.3908C19.0764 32.3082 17.9375 30.8904 17.9375 29.5V27.095C20.4032 29.263 24.6192 30.6562 29.5 30.6562C34.3808 30.6562 38.5968 29.2572 41.0625 27.095V29.5ZM21.0608 18.6717C23.2953 17.4533 26.2929 16.7812 29.5 16.7812C32.7071 16.7812 35.7047 17.4533 37.9392 18.6717C39.9236 19.7543 41.0625 21.1721 41.0625 22.5625C41.0625 23.9529 39.9236 25.3707 37.9392 26.4533C35.7047 27.6717 32.7071 28.3438 29.5 28.3438C26.2929 28.3438 23.2953 27.6717 21.0608 26.4533C19.0764 25.3707 17.9375 23.9529 17.9375 22.5625C17.9375 21.1721 19.0764 19.7543 21.0608 18.6717ZM37.9392 40.3283C35.7047 41.5467 32.7071 42.2188 29.5 42.2188C26.2929 42.2188 23.2953 41.5467 21.0608 40.3283C19.0764 39.2457 17.9375 37.8279 17.9375 36.4375V34.0325C20.4032 36.2005 24.6192 37.5938 29.5 37.5938C34.3808 37.5938 38.5968 36.1947 41.0625 34.0325V36.4375C41.0625 37.8279 39.9236 39.2457 37.9392 40.3283Z" fill="white"/>
</svg>
