<svg width="59" height="59" viewBox="0 0 59 59" fill="none" xmlns="http://www.w3.org/2000/svg">
<circle cx="29.5" cy="29.5" r="29.5" fill="#F26B21"/>
<path d="M30 14.4688C26.9468 14.4688 23.9621 15.3503 21.4234 17.002C18.8847 18.6536 16.906 21.0012 15.7376 23.7478C14.5692 26.4944 14.2635 29.5167 14.8591 32.4325C15.4548 35.3482 16.9251 38.0265 19.084 40.1287C21.243 42.2309 23.9937 43.6624 26.9883 44.2424C29.9829 44.8224 33.0868 44.5247 35.9077 43.3871C38.7285 42.2494 41.1395 40.3228 42.8358 37.8509C44.5321 35.379 45.4375 32.4729 45.4375 29.5C45.4332 25.5148 43.8054 21.6939 40.9112 18.8759C38.017 16.058 34.093 14.473 30 14.4688ZM30 42.2188C27.4165 42.2188 24.891 41.4728 22.7429 40.0753C20.5948 38.6777 18.9205 36.6913 17.9318 34.3673C16.9432 32.0432 16.6845 29.4859 17.1885 27.0187C17.6925 24.5515 18.9366 22.2852 20.7634 20.5065C22.5902 18.7277 24.9178 17.5164 27.4516 17.0256C29.9855 16.5349 32.612 16.7868 34.9988 17.7494C37.3857 18.7121 39.4258 20.3423 40.8611 22.4338C42.2964 24.5254 43.0625 26.9845 43.0625 29.5C43.0586 32.872 41.6811 36.1049 39.2323 38.4893C36.7834 40.8737 33.4632 42.2149 30 42.2188ZM39.5 29.5C39.5 29.8067 39.3749 30.1008 39.1522 30.3176C38.9295 30.5344 38.6275 30.6562 38.3125 30.6562H30C29.6851 30.6562 29.383 30.5344 29.1603 30.3176C28.9376 30.1008 28.8125 29.8067 28.8125 29.5V21.4062C28.8125 21.0996 28.9376 20.8055 29.1603 20.5887C29.383 20.3718 29.6851 20.25 30 20.25C30.315 20.25 30.617 20.3718 30.8397 20.5887C31.0624 20.8055 31.1875 21.0996 31.1875 21.4062V28.3438H38.3125C38.6275 28.3438 38.9295 28.4656 39.1522 28.6824C39.3749 28.8992 39.5 29.1933 39.5 29.5Z" fill="white"/>
</svg>
