<svg width="59" height="59" viewBox="0 0 59 59" fill="none" xmlns="http://www.w3.org/2000/svg">
<circle cx="29.5" cy="29.5" r="29.5" fill="#F26B21"/>
<path d="M43.375 16.7812V22.5625C43.375 22.8692 43.2532 23.1633 43.0363 23.3801C42.8195 23.5969 42.5254 23.7188 42.2188 23.7188C41.9121 23.7188 41.618 23.5969 41.4012 23.3801C41.1843 23.1633 41.0625 22.8692 41.0625 22.5625V17.9375H36.4375C36.1308 17.9375 35.8367 17.8157 35.6199 17.5988C35.4031 17.382 35.2812 17.0879 35.2812 16.7812C35.2812 16.4746 35.4031 16.1805 35.6199 15.9637C35.8367 15.7468 36.1308 15.625 36.4375 15.625H42.2188C42.5254 15.625 42.8195 15.7468 43.0363 15.9637C43.2532 16.1805 43.375 16.4746 43.375 16.7812ZM22.5625 41.0625H17.9375V36.4375C17.9375 36.1308 17.8157 35.8367 17.5988 35.6199C17.382 35.4031 17.0879 35.2812 16.7812 35.2812C16.4746 35.2812 16.1805 35.4031 15.9637 35.6199C15.7468 35.8367 15.625 36.1308 15.625 36.4375V42.2188C15.625 42.5254 15.7468 42.8195 15.9637 43.0363C16.1805 43.2532 16.4746 43.375 16.7812 43.375H22.5625C22.8692 43.375 23.1633 43.2532 23.3801 43.0363C23.5969 42.8195 23.7188 42.5254 23.7188 42.2188C23.7188 41.9121 23.5969 41.618 23.3801 41.4012C23.1633 41.1843 22.8692 41.0625 22.5625 41.0625ZM42.2188 35.2812C41.9121 35.2812 41.618 35.4031 41.4012 35.6199C41.1843 35.8367 41.0625 36.1308 41.0625 36.4375V41.0625H36.4375C36.1308 41.0625 35.8367 41.1843 35.6199 41.4012C35.4031 41.618 35.2812 41.9121 35.2812 42.2188C35.2812 42.5254 35.4031 42.8195 35.6199 43.0363C35.8367 43.2532 36.1308 43.375 36.4375 43.375H42.2188C42.5254 43.375 42.8195 43.2532 43.0363 43.0363C43.2532 42.8195 43.375 42.5254 43.375 42.2188V36.4375C43.375 36.1308 43.2532 35.8367 43.0363 35.6199C42.8195 35.4031 42.5254 35.2812 42.2188 35.2812ZM16.7812 23.7188C17.0879 23.7188 17.382 23.5969 17.5988 23.3801C17.8157 23.1633 17.9375 22.8692 17.9375 22.5625V17.9375H22.5625C22.8692 17.9375 23.1633 17.8157 23.3801 17.5988C23.5969 17.382 23.7188 17.0879 23.7188 16.7812C23.7188 16.4746 23.5969 16.1805 23.3801 15.9637C23.1633 15.7468 22.8692 15.625 22.5625 15.625H16.7812C16.4746 15.625 16.1805 15.7468 15.9637 15.9637C15.7468 16.1805 15.625 16.4746 15.625 16.7812V22.5625C15.625 22.8692 15.7468 23.1633 15.9637 23.3801C16.1805 23.5969 16.4746 23.7188 16.7812 23.7188ZM35.2812 37.5938H23.7188C23.1054 37.5938 22.5172 37.3501 22.0836 36.9164C21.6499 36.4828 21.4062 35.8946 21.4062 35.2812V23.7188C21.4062 23.1054 21.6499 22.5172 22.0836 22.0836C22.5172 21.6499 23.1054 21.4062 23.7188 21.4062H35.2812C35.8946 21.4062 36.4828 21.6499 36.9164 22.0836C37.3501 22.5172 37.5938 23.1054 37.5938 23.7188V35.2812C37.5938 35.8946 37.3501 36.4828 36.9164 36.9164C36.4828 37.3501 35.8946 37.5938 35.2812 37.5938ZM23.7188 35.2812H35.2812V23.7188H23.7188V35.2812Z" fill="white"/>
</svg>
