<svg width="59" height="59" viewBox="0 0 59 59" fill="none" xmlns="http://www.w3.org/2000/svg">
<circle cx="29.5" cy="29.5" r="29.5" fill="#F26B21"/>
<path d="M38.4609 38.7977C38.5622 38.9109 38.6403 39.0429 38.6905 39.1863C38.7408 39.3296 38.7623 39.4815 38.7538 39.6331C38.7454 39.7848 38.7071 39.9333 38.6412 40.0702C38.5753 40.2071 38.4831 40.3297 38.3699 40.4309C36.7797 41.8549 34.8264 42.8108 32.7263 43.1929C30.6262 43.575 28.4613 43.3683 26.4715 42.5957C24.4816 41.823 22.7445 40.5147 21.4525 38.8155C20.1606 37.1163 19.3642 35.0927 19.1516 32.9687H16.7812C16.4746 32.9687 16.1805 32.8469 15.9637 32.6301C15.7468 32.4132 15.625 32.1191 15.625 31.8125C15.625 31.5058 15.7468 31.2117 15.9637 30.9949C16.1805 30.7781 16.4746 30.6562 16.7812 30.6562H19.0938V28.3437H16.7812C16.4746 28.3437 16.1805 28.2219 15.9637 28.0051C15.7468 27.7882 15.625 27.4941 15.625 27.1875C15.625 26.8808 15.7468 26.5867 15.9637 26.3699C16.1805 26.1531 16.4746 26.0312 16.7812 26.0312H19.1516C19.3647 23.9081 20.1613 21.8854 21.453 20.1869C22.7447 18.4885 24.4812 17.1807 26.4703 16.4082C28.4594 15.6357 30.6234 15.4287 32.7228 15.8101C34.8223 16.1915 36.7753 17.1464 38.3655 18.5691C38.5942 18.7738 38.7322 19.0609 38.7491 19.3673C38.766 19.6738 38.6606 19.9744 38.4559 20.203C38.2512 20.4317 37.964 20.5696 37.6576 20.5866C37.3512 20.6035 37.0506 20.498 36.822 20.2933C35.5644 19.1696 34.0236 18.411 32.3661 18.0997C30.7086 17.7884 28.9975 17.9361 27.4179 18.5269C25.8383 19.1177 24.4503 20.1292 23.4039 21.4518C22.3576 22.7745 21.6928 24.3581 21.4814 26.0312H30.6562C30.9629 26.0312 31.257 26.1531 31.4738 26.3699C31.6907 26.5867 31.8125 26.8808 31.8125 27.1875C31.8125 27.4941 31.6907 27.7882 31.4738 28.0051C31.257 28.2219 30.9629 28.3437 30.6562 28.3437H21.4062V30.6562H28.3438C28.6504 30.6562 28.9445 30.7781 29.1613 30.9949C29.3782 31.2117 29.5 31.5058 29.5 31.8125C29.5 32.1191 29.3782 32.4132 29.1613 32.6301C28.9445 32.8469 28.6504 32.9687 28.3438 32.9687H21.4814C21.6926 34.642 22.3572 36.2258 23.4035 37.5486C24.4497 38.8715 25.8377 39.8831 27.4173 40.4741C28.997 41.0651 30.7081 41.2129 32.3658 40.9017C34.0234 40.5904 35.5643 39.8319 36.822 38.7081C36.9352 38.6058 37.0675 38.5269 37.2114 38.4761C37.3552 38.4252 37.5077 38.4033 37.6601 38.4116C37.8125 38.4199 37.9617 38.4583 38.0991 38.5246C38.2366 38.5909 38.3595 38.6837 38.4609 38.7977Z" fill="white"/>
</svg>
