<svg width="59" height="59" viewBox="0 0 59 59" fill="none" xmlns="http://www.w3.org/2000/svg">
<circle cx="29.5" cy="29.5" r="29.5" fill="#F26B21"/>
<path d="M30.8788 37.9349C31.0955 38.1517 31.2172 38.4457 31.2172 38.7522C31.2172 39.0587 31.0955 39.3527 30.8788 39.5695L29.4422 41.0148C27.9229 42.5331 25.8627 43.3858 23.7147 43.3851C21.5668 43.3844 19.5071 42.5305 17.9888 41.0112C16.4705 39.4919 15.6179 37.4317 15.6185 35.2838C15.6192 33.1358 16.4731 31.0762 17.9924 29.5578L21.4785 26.0717C22.9378 24.6112 24.9001 23.7637 26.9638 23.7024C29.0275 23.6411 31.0366 24.3708 32.5799 25.7422C32.6938 25.8432 32.7867 25.9656 32.8533 26.1025C32.9198 26.2393 32.9588 26.388 32.9679 26.5399C32.9771 26.6918 32.9562 26.844 32.9065 26.9879C32.8568 27.1318 32.7792 27.2644 32.6782 27.3783C32.5773 27.4922 32.4548 27.585 32.318 27.6516C32.1811 27.7182 32.0325 27.7572 31.8805 27.7663C31.7286 27.7754 31.5764 27.7545 31.4325 27.7048C31.2887 27.6551 31.156 27.5775 31.0421 27.4766C29.9398 26.4977 28.5052 25.9769 27.0316 26.0206C25.558 26.0644 24.1568 26.6695 23.1146 27.7122L19.6285 31.1939C18.5441 32.2783 17.9349 33.7491 17.9349 35.2827C17.9349 36.8163 18.5441 38.2871 19.6285 39.3715C20.7129 40.4559 22.1837 41.0651 23.7173 41.0651C25.2509 41.0651 26.7217 40.4559 27.8061 39.3715L29.2427 37.9349C29.3501 37.8273 29.4776 37.7421 29.618 37.6839C29.7584 37.6257 29.9088 37.5957 30.0608 37.5957C30.2127 37.5957 30.3632 37.6257 30.5035 37.6839C30.6439 37.7421 30.7714 37.8273 30.8788 37.9349ZM41.0076 17.9895C39.4881 16.4734 37.4292 15.622 35.2827 15.622C33.1362 15.622 31.0773 16.4734 29.5578 17.9895L28.1212 19.4276C27.9044 19.6446 27.7827 19.9388 27.7828 20.2455C27.783 20.5522 27.9049 20.8462 28.1219 21.063C28.3388 21.2798 28.633 21.4015 28.9397 21.4013C29.2464 21.4012 29.5405 21.2792 29.7573 21.0623L31.1939 19.6256C32.2783 18.5412 33.7491 17.932 35.2827 17.932C36.8163 17.932 38.2871 18.5412 39.3715 19.6256C40.4559 20.71 41.0651 22.1808 41.0651 23.7144C41.0651 25.248 40.4559 26.7188 39.3715 27.8032L35.8854 31.2922C34.8426 32.3342 33.4411 32.9385 31.9675 32.9815C30.4939 33.0245 29.0596 32.5029 27.9578 31.5234C27.844 31.4225 27.7113 31.3449 27.5675 31.2952C27.4236 31.2455 27.2714 31.2246 27.1194 31.2337C26.8126 31.2522 26.5257 31.3917 26.3217 31.6217C26.2208 31.7356 26.1432 31.8683 26.0935 32.0121C26.0438 32.156 26.0229 32.3082 26.032 32.4601C26.0505 32.767 26.19 33.0539 26.42 33.2578C27.963 34.6295 29.9719 35.3598 32.0356 35.299C34.0993 35.2383 36.0618 34.3913 37.5215 32.9312L41.0076 29.4451C42.5246 27.9255 43.3766 25.866 43.3766 23.7188C43.3766 21.5715 42.5246 19.5121 41.0076 17.9924V17.9895Z" fill="white"/>
</svg>
