<?xml version="1.0" encoding="UTF-8"?>
<svg id="Layer_1" data-name="Layer 1" xmlns="http://www.w3.org/2000/svg" viewBox="0 0 1805.46 1805.46">
  <defs>
    <style>
      .cls-1 {
        fill: #070707;
      }

      .cls-1, .cls-2, .cls-3 {
        stroke-width: 0px;
      }

      .cls-2 {
        fill: #231f20;
      }

      .cls-3 {
        fill: #010101;
      }
    </style>
  </defs>
  <path class="cls-3" d="m1228.08,1186.69h-194.56l136.79-167.12c19.35-23.78,30.97-54.75,30.97-85.71,0-72.44-60.83-124.98-131.62-124.98-75.76,0-123.87,49.77-132.16,123.87h51.98c2.77-42.03,37.6-76.31,80.18-76.31s81.85,35.94,81.85,79.63c0,27.65-19.91,53.64-37.05,74.65l-182.49,223.97h313.61l-17.5-48Z"/>
  <circle class="cls-2" cx="1302.08" cy="1198.69" r="36"/>
  <g>
    <path class="cls-1" d="m1087.88,989.86c8.53-10.45,16.2-20.31,21.81-30.23,5.62-9.93,7.82-17.6,7.82-23.56,0-24.16-22.61-46.63-48.85-46.63-23.23,0-43.53,18.13-46.86,41.86l22.76,51.12,17.28,39.41,26.04-31.95v-.02Z"/>
    <path class="cls-1" d="m954.38,819.26c25.54-24.6,58.78-39.25,96.97-42.62l-5.89-13.59-178.4-415.36-346.99,787h91.76l134.24-287h185.12c6.59-10.35,14.31-19.89,23.18-28.43Zm-89.28-276.36l109.61,251.39h-211.54l101.93-251.39Z"/>
    <polygon class="cls-1" points="1113.55 1139.79 1119.83 1154.13 1200.28 1154.13 1214.97 1154.13 1175.79 1063.74 1113.55 1139.79"/>
  </g>
  <path class="cls-3" d="m466.15,1363.21v90.48h-10.08v-90.48h10.08Zm54.39,90.48v-94.32l70.56,73.92v-70.08h10.08v94.56l-70.56-73.8v69.72h-10.08Zm176.04-81.12h-31.08v26.88h30.12v9.36h-30.12v44.88h-10.08v-90.48h41.16v9.36Zm61.62-9.36v81.12h24.96v9.36h-35.04v-90.48h10.08Zm80.16,0v61.2c.08,1.44.44,3.52,1.08,6.24.64,2.64,1.6,4.84,2.88,6.6,1.92,2.64,4.56,4.76,7.92,6.36,3.44,1.52,6.88,2.28,10.32,2.28s6.52-.72,9.72-2.16c3.28-1.44,5.96-3.4,8.04-5.88,1.36-1.68,2.4-3.72,3.12-6.12.72-2.48,1.12-4.52,1.2-6.12.08-1.68.12-4.04.12-7.08v-55.32h10.08v56.64c0,5.76-.52,10.52-1.56,14.28-.96,3.76-3.08,7.36-6.36,10.8-6.4,6.88-14.52,10.32-24.36,10.32-9.28,0-17.08-3.08-23.4-9.24-3.6-3.44-6-7.16-7.2-11.16-1.12-4-1.68-9-1.68-15v-56.64h10.08Zm107.71,90.48v-90.48h46.92v9.36h-36.84v26.88h35.76v9.36h-35.76v35.52h36.84v9.36h-46.92Zm100.1,0v-94.32l70.56,73.92v-70.08h10.08v94.56l-70.56-73.8v69.72h-10.08Zm203.88-83.16v12.48c-7.76-8-16.96-12-27.6-12-10,0-18.6,3.72-25.8,11.16-7.12,7.44-10.68,16.2-10.68,26.28s3.6,18.84,10.8,26.28c7.2,7.44,15.84,11.16,25.92,11.16s19.36-4,27.36-12v12.48c-8.16,5.92-17.16,8.88-27,8.88-12.8,0-23.88-4.52-33.24-13.56-9.28-9.12-13.92-20.08-13.92-32.88s4.6-24.04,13.8-33.24c9.28-9.28,20.4-13.92,33.36-13.92,10.08,0,19.08,2.96,27,8.88Zm52.42,83.16v-90.48h46.92v9.36h-36.84v26.88h35.76v9.36h-35.76v35.52h36.84v9.36h-46.92Z"/>
</svg>