<svg xmlns="http://www.w3.org/2000/svg" xmlns:xlink="http://www.w3.org/1999/xlink" width="166" height="48" viewBox="0 0 166 48" version="1.1">
    <!-- Generator: Sketch 48.2 (47327) - http://www.bohemiancoding.com/sketch -->
    <title>Acorn-TIC-Logo-Update</title>
    <desc>Created with Sketch.</desc>
    <defs/>
    <g id="Nav/Standard" stroke="none" stroke-width="1" fill="none" fill-rule="evenodd" transform="translate(-34.000000, -17.000000)">
        <g id="Acorn-TIC-Logo-Update" transform="translate(34.000000, 17.000000)" fill="#04A7A4" fill-rule="nonzero">
            <g id="Group">
                <path d="M23.3704897,19.5737143 C23.3704897,19.5737143 22.7608247,16.7417143 24.1833763,15.1234286 C25.6059278,13.5051429 27.231701,17.5508571 27.0284794,18.36 C26.8252577,19.1691429 23.3704897,20.5851429 23.3704897,19.5737143" id="Shape"/>
                <path d="M27.231701,19.9782857 C27.231701,19.9782857 28.0445876,18.36 30.6864691,18.1577143 C33.3283505,17.9554286 31.296134,23.6194286 29.6703608,23.4171429 C28.2478093,23.2148571 27.231701,19.9782857 27.231701,19.9782857" id="Shape"/>
                <path d="M30.0768041,24.8331429 C30.0768041,24.8331429 33.1251289,26.2491429 33.3283505,28.272 C33.5315722,30.4971429 28.0445876,29.4857143 28.0445876,28.6765714 C28.2478093,27.8674286 28.2478093,25.6422857 30.0768041,24.8331429" id="Shape"/>
                <path d="M27.231701,29.0811429 C27.231701,29.0811429 27.0284794,32.52 24.5898196,34.5428571 C22.1511598,36.3634286 20.9318299,31.3062857 21.5414948,30.0925714 C22.1511598,29.0811429 23.776933,27.6651429 27.231701,29.0811429" id="Shape"/>
                <path d="M21.3382732,28.4742857 C21.3382732,28.4742857 20.3221649,31.3062857 16.4609536,31.3062857 C12.8029639,31.3062857 17.2738402,25.0354286 18.6963918,25.2377143 C20.1189433,25.6422857 21.3382732,28.4742857 21.3382732,28.4742857" id="Shape"/>
                <path d="M19.5092784,19.1691429 C19.5092784,19.1691429 16.6641753,17.9554286 16.6641753,14.3142857 C16.6641753,10.6731429 22.9640464,15.3257143 22.5576031,16.7417143 C22.5576031,18.1577143 19.5092784,19.1691429 19.5092784,19.1691429" id="Shape"/>
                <path d="M19.1028351,24.6308571 C19.1028351,24.6308571 15.2416237,23.0125714 15.8512887,21.5965714 C16.4609536,20.1805714 21.1350515,19.1691429 22.1511598,20.3828571 C23.167268,21.5965714 19.7125,24.8331429 19.1028351,24.6308571" id="Shape"/>
                <path d="M14.4287371,29.0811429 C14.4287371,29.0811429 9.75463918,28.0697143 9.55141753,26.6537143 C9.34819588,25.0354286 14.0222938,23.0125714 14.8351804,23.0125714 C15.648067,23.0125714 16.0545103,23.8217143 16.0545103,24.8331429 C16.0545103,25.8445714 15.2416237,29.2834286 14.4287371,29.0811429" id="Shape"/>
                <path d="M18.4931701,32.1154286 C18.4931701,32.1154286 21.3382732,32.7222857 21.7447165,35.1497143 C22.1511598,37.7794286 17.8835052,39.3977143 17.0706186,38.9931429 C16.4609536,38.5885714 15.2416237,31.104 18.4931701,32.1154286" id="Shape"/>
                <path d="M27.0284794,32.1154286 C27.0284794,32.1154286 28.8574742,29.8902857 31.296134,30.6994286 C33.7347938,31.5085714 33.3283505,36.1611429 32.7186856,36.5657143 C31.905799,37.1725714 24.5898196,34.5428571 27.0284794,32.1154286" id="Shape"/>
                <path d="M26.4188144,14.5165714 C26.4188144,14.5165714 27.841366,17.1462857 28.4510309,17.3485714 C29.0606959,17.5508571 30.4832474,16.944 31.296134,15.3257143 C32.3122423,13.7074286 31.4993557,11.4822857 30.8896907,11.0777143 C30.4832474,10.6731429 27.231701,12.0891429 26.4188144,14.5165714" id="Shape"/>
                <path d="M32.1090206,24.2262857 C32.1090206,24.2262857 32.9219072,26.4514286 34.3444588,26.2491429 C35.7670103,26.0468571 38.6121134,24.4285714 39.0185567,23.4171429 C39.425,22.608 35.7670103,20.3828571 33.7347938,21.192 C31.4993557,22.2034286 31.7025773,23.6194286 32.1090206,24.2262857" id="Shape"/>
                <path d="M31.905799,16.944 C31.905799,16.944 32.1090206,21.192 34.7509021,20.1805714 C37.1895619,19.1691429 37.5960052,17.7531429 38.0024485,16.5394286 C38.0024485,15.3257143 32.9219072,14.5165714 31.905799,16.944" id="Shape"/>
                <path d="M25.4027062,13.9097143 C25.4027062,13.9097143 27.4349227,11.4822857 27.4349227,10.6731429 C27.4349227,9.864 25.6059278,6.02057143 24.9962629,6.22285714 C24.3865979,6.62742857 20.3221649,11.4822857 21.9479381,13.1005714 C23.5737113,14.7188571 25.4027062,13.9097143 25.4027062,13.9097143" id="Shape"/>
                <path d="M16.8673969,17.5508571 C16.8673969,17.5508571 14.0222938,16.7417143 13.6158505,20.5851429 C13.2094072,24.6308571 14.6319588,21.5965714 14.6319588,21.5965714 C14.6319588,21.5965714 18.4931701,18.5622857 16.8673969,17.5508571" id="Shape"/>
                <path d="M13.2094072,17.9554286 C13.2094072,17.9554286 5.69020619,17.9554286 5.69020619,19.1691429 C5.48698454,20.3828571 9.14497423,24.4285714 9.75463918,24.2262857 C10.3643041,24.024 12.3965206,23.2148571 12.5997423,22.2034286 C12.5997423,20.9897143 14.2255155,17.7531429 13.2094072,17.9554286" id="Shape"/>
                <path d="M13.6158505,30.2948571 C13.6158505,30.2948571 11.3804124,29.0811429 10.3643041,31.7108571 C9.55141753,34.5428571 8.12886598,38.184 12.8029639,35.5542857 C17.4770619,32.9245714 15.2416237,31.5085714 13.6158505,30.2948571" id="Shape"/>
                <path d="M23.3704897,35.7565714 C23.3704897,35.7565714 21.9479381,36.768 22.7608247,37.7794286 C23.5737113,38.5885714 25.6059278,41.8251429 26.4188144,41.2182857 C27.4349227,40.6114286 29.4671392,38.184 29.4671392,37.3748571 C29.4671392,36.5657143 25.8091495,34.1382857 23.3704897,35.7565714" id="Shape"/>
                <path d="M9.55141753,17.1462857 C9.55141753,17.1462857 13.4126289,17.5508571 14.2255155,16.7417143 C15.0384021,15.9325714 14.4287371,12.8982857 14.0222938,12.8982857 C13.6158505,12.8982857 8.94175258,11.4822857 7.92564433,12.0891429 C7.11275773,12.696 8.33208763,17.1462857 9.55141753,17.1462857" id="Shape"/>
                <path d="M14.6319588,11.6845714 C14.6319588,11.6845714 14.8351804,9.66171429 15.648067,9.66171429 C16.257732,9.66171429 18.8996134,11.28 18.8996134,12.0891429 C18.8996134,12.8982857 17.2738402,11.6845714 16.6641753,12.8982857 C15.8512887,14.112 15.0384021,14.3142857 14.6319588,11.6845714" id="Shape"/>
                <path d="M20.5253866,11.4822857 C20.5253866,11.4822857 22.7608247,9.05485714 22.3543814,8.448 C21.9479381,8.04342857 18.4931701,4.80685714 17.8835052,5.21142857 C17.2738402,5.41371429 17.4770619,9.05485714 17.8835052,9.66171429 C18.0867268,10.2685714 19.7125,12.2914286 20.5253866,11.4822857" id="Shape"/>
                <path d="M34.3444588,27.4628571 C34.3444588,27.4628571 37.1895619,26.0468571 37.5960052,26.4514286 C38.0024485,27.0582857 42.0668814,29.4857143 41.6604381,29.8902857 C41.4572165,30.2948571 36.9863402,32.3177143 36.5798969,32.1154286 C36.1734536,32.1154286 31.905799,32.7222857 34.3444588,27.4628571" id="Shape"/>
                <path d="M33.9380155,35.7565714 C34.1412371,35.7565714 35.360567,36.3634286 36.3766753,35.7565714 C37.3927835,35.1497143 38.0024485,34.5428571 37.5960052,34.1382857 C37.1895619,33.7337143 35.7670103,31.9131429 34.7509021,32.52 C33.9380155,33.3291429 33.7347938,35.7565714 33.9380155,35.7565714" id="Shape"/>
                <path d="M26.8252577,7.43657143 C26.8252577,7.43657143 28.6542526,3.18857143 29.4671392,3.79542857 C30.2800258,4.40228571 32.1090206,8.448 31.905799,9.25714286 C31.7025773,10.0662857 28.8574742,10.2685714 28.6542526,10.2685714 C28.2478093,10.2685714 26.6220361,7.84114286 26.8252577,7.43657143" id="Shape"/>
                <path d="M20.5253866,5.41371429 C20.5253866,5.41371429 22.7608247,2.37942857 23.9801546,2.37942857 C25.4027062,2.37942857 25.8091495,5.41371429 25.6059278,5.616 C25.4027062,5.81828571 24.1833763,5.81828571 23.167268,7.032 C22.3543814,8.448 20.9318299,6.02057143 20.5253866,5.41371429" id="Shape"/>
                <path d="M19.5092784,5.00914286 C19.5092784,5.00914286 17.0706186,3.59314286 17.2738402,3.18857143 C17.4770619,2.784 18.4931701,1.57028571 19.1028351,1.16571429 C19.7125,0.963428571 21.3382732,1.16571429 21.5414948,1.16571429 C21.9479381,1.16571429 22.3543814,1.57028571 22.1511598,2.17714286 C21.9479381,2.784 19.9157216,5.41371429 19.5092784,5.00914286" id="Shape"/>
                <path d="M23.3704897,1.57028571 C23.3704897,1.57028571 25.4027062,1.57028571 25.8091495,2.784 C26.4188144,3.79542857 26.0123711,5.41371429 26.6220361,5.00914286 C27.231701,4.60457143 27.6381443,3.59314286 28.2478093,3.39085714 C28.6542526,3.18857143 29.4671392,3.18857143 29.6703608,2.784 C29.8735825,2.37942857 29.0606959,1.77257143 28.8574742,1.57028571 C28.6542526,1.368 24.7930412,0.558857143 23.9801546,0.761142857 C23.3704897,0.963428571 22.9640464,0.761142857 23.3704897,1.57028571" id="Shape"/>
                <path d="M11.3804124,11.0777143 C11.3804124,11.0777143 13.0061856,12.0891429 13.4126289,11.6845714 C13.8190722,11.0777143 14.0222938,9.45942857 14.6319588,9.05485714 C15.2416237,8.448 16.0545103,8.65028571 16.0545103,8.24571429 C15.8512887,7.84114286 13.6158505,5.21142857 13.0061856,5.41371429 C12.3965206,5.616 10.1610825,8.24571429 11.3804124,11.0777143" id="Shape"/>
                <path d="M16.4609536,7.43657143 C16.8673969,7.43657143 16.6641753,5.00914286 16.6641753,4.40228571 C16.6641753,3.79542857 16.4609536,3.18857143 16.8673969,2.784 C17.2738402,2.37942857 15.648067,1.97485714 15.4448454,2.17714286 C15.2416237,2.37942857 13.4126289,3.39085714 13.2094072,3.59314286 C12.8029639,3.59314286 15.648067,7.23428571 16.4609536,7.43657143" id="Shape"/>
                <path d="M12.193299,5.00914286 C12.193299,5.00914286 11.7868557,4.40228571 11.1771907,4.40228571 C10.5675258,4.40228571 8.53530928,5.616 8.12886598,5.81828571 C7.72242268,6.02057143 6.09664948,7.43657143 6.09664948,7.84114286 C6.29987113,8.04342857 6.29987113,11.0777143 6.29987113,10.8754286 C6.50309278,10.6731429 7.11275773,10.8754286 8.12886598,10.6731429 C9.34819588,10.4708571 9.75463918,11.4822857 10.1610825,11.0777143 C10.7707474,10.6731429 9.95786082,6.42514286 12.193299,5.00914286" id="Shape"/>
                <path d="M7.92564433,17.5508571 C7.72242268,17.5508571 4.67409794,18.1577143 4.06443299,17.7531429 C3.65798969,17.1462857 3.25154639,16.1348571 3.25154639,15.7302857 C3.25154639,15.3257143 3.86121134,14.5165714 5.08054124,13.9097143 C6.29987113,13.3028571 6.50309278,13.7074286 6.90953608,13.9097143 C7.11275773,14.3142857 8.73853093,17.3485714 7.92564433,17.5508571" id="Shape"/>
                <path d="M6.70631443,12.4937143 C6.50309278,12.696 4.67409794,13.1005714 4.47087629,13.1005714 C4.06443299,13.3028571 3.65798969,12.8982857 3.86121134,12.4937143 C4.06443299,12.0891429 4.47087629,11.4822857 4.87731959,10.8754286 C5.28376289,10.2685714 5.89342784,10.2685714 5.69020619,10.6731429 C5.69020619,10.8754286 7.11275773,11.8868571 6.70631443,12.4937143" id="Shape"/>
                <path d="M10.9739691,29.4857143 C10.9739691,29.688 10.1610825,30.4971429 9.95786082,30.6994286 C9.75463918,30.9017143 8.33208763,31.9131429 8.12886598,31.9131429 C7.92564433,31.9131429 4.26765464,30.9017143 4.06443299,30.2948571 C3.86121134,29.688 6.70631443,26.6537143 8.53530928,26.4514286 C8.33208763,26.6537143 10.5675258,28.4742857 10.9739691,29.4857143" id="Shape"/>
                <path d="M6.70631443,26.2491429 C5.69020619,26.4514286 3.45476804,25.0354286 3.25154639,24.8331429 C3.04832474,24.4285714 2.23543814,24.024 2.23543814,23.8217143 C2.03221649,23.4171429 2.03221649,23.2148571 2.64188144,22.8102857 C3.25154639,22.4057143 5.28376289,21.5965714 6.09664948,22.2034286 C6.90953608,22.8102857 8.94175258,24.6308571 8.73853093,25.0354286 C8.53530928,25.2377143 7.51920103,26.0468571 6.70631443,26.2491429" id="Shape"/>
                <path d="M4.67409794,20.7874286 C4.67409794,20.7874286 1.42255155,23.2148571 1.01610825,23.0125714 C0.609664948,22.608 0.812886598,22.0011429 0.812886598,21.5965714 C0.812886598,21.192 1.01610825,20.3828571 1.01610825,19.776 C1.01610825,19.1691429 1.2193299,18.5622857 1.6257732,18.1577143 C2.03221649,17.7531429 2.43865979,17.5508571 2.84510309,17.7531429 C3.25154639,17.9554286 3.86121134,18.36 4.06443299,18.5622857 C4.26765464,18.7645714 5.08054124,19.776 4.67409794,20.7874286" id="Shape"/>
                <path d="M5.28376289,27.6651429 C5.08054124,27.8674286 3.65798969,29.4857143 3.65798969,29.4857143 C3.65798969,29.4857143 2.64188144,31.104 2.43865979,31.104 C2.23543814,31.104 2.03221649,30.6994286 1.82899485,30.0925714 C1.6257732,29.4857143 1.2193299,28.272 1.2193299,27.6651429 C1.2193299,27.0582857 0.812886598,26.2491429 1.42255155,26.0468571 C1.82899485,25.8445714 2.64188144,25.8445714 3.25154639,26.0468571 C3.86121134,26.2491429 4.26765464,26.4514286 4.67409794,26.6537143 C5.08054124,26.856 5.69020619,27.0582857 5.28376289,27.6651429" id="Shape"/>
                <path d="M3.45476804,35.1497143 C3.25154639,34.9474286 3.25154639,33.936 3.45476804,33.1268571 C3.65798969,32.3177143 4.67409794,32.3177143 5.08054124,32.1154286 C5.28376289,31.9131429 5.69020619,31.9131429 6.50309278,32.1154286 C7.31597938,32.3177143 8.12886598,32.1154286 8.53530928,32.3177143 C8.94175258,32.52 9.34819588,32.7222857 8.94175258,33.5314286 C8.33208763,34.3405714 7.92564433,36.3634286 7.31597938,36.5657143 C6.90953608,36.9702857 6.29987113,38.184 5.48698454,37.5771429 C4.87731959,37.1725714 3.86121134,35.7565714 3.45476804,35.1497143" id="Shape"/>
                <path d="M12.5997423,36.9702857 C12.3965206,37.1725714 11.9900773,38.5885714 11.9900773,38.7908571 C11.9900773,38.9931429 10.5675258,41.016 11.7868557,41.016 C12.8029639,41.016 13.4126289,41.2182857 14.0222938,40.8137143 C14.6319588,40.6114286 15.2416237,40.8137143 16.0545103,40.0045714 C16.8673969,39.1954286 16.257732,38.7908571 16.257732,37.9817143 C16.257732,37.1725714 15.8512887,36.9702857 15.8512887,36.3634286 C15.8512887,35.7565714 15.8512887,35.7565714 14.8351804,35.9588571 C13.6158505,36.3634286 13.0061856,36.3634286 12.5997423,36.9702857" id="Shape"/>
                <path d="M11.3804124,37.9817143 C11.1771907,38.3862857 10.5675258,39.8022857 10.3643041,39.8022857 C10.3643041,40.0045714 10.5675258,40.8137143 10.3643041,41.4205714 C10.1610825,41.8251429 8.94175258,41.8251429 8.73853093,41.6228571 C8.53530928,41.4205714 8.33208763,40.8137143 8.12886598,40.4091429 C7.72242268,40.0045714 7.51920103,39.3977143 7.31597938,39.1954286 C7.11275773,38.9931429 6.50309278,38.5885714 7.31597938,38.3862857 C8.12886598,37.9817143 8.53530928,37.7794286 9.14497423,37.7794286 C9.75463918,37.5771429 10.3643041,37.3748571 10.7707474,37.3748571 C10.9739691,37.3748571 11.583634,37.3748571 11.3804124,37.9817143" id="Shape"/>
                <path d="M19.3060567,39.3977143 C19.1028351,39.8022857 19.7125,41.6228571 19.7125,41.8251429 C19.7125,42.0274286 20.1189433,42.8365714 20.1189433,43.2411429 C20.3221649,43.6457143 20.3221649,44.8594286 21.1350515,44.4548571 C21.9479381,44.0502857 22.7608247,43.6457143 23.3704897,42.8365714 C23.9801546,42.0274286 24.1833763,41.4205714 23.776933,40.6114286 C23.3704897,39.8022857 22.7608247,38.184 22.1511598,38.184 C21.3382732,38.184 20.1189433,38.5885714 19.3060567,39.3977143" id="Shape"/>
                <path d="M16.257732,40.6114286 C16.257732,40.6114286 16.8673969,43.4434286 17.0706186,43.4434286 C17.2738402,43.6457143 17.8835052,44.8594286 18.2899485,44.6571429 C18.6963918,44.4548571 19.1028351,44.0502857 19.1028351,43.6457143 C19.1028351,43.2411429 19.5092784,42.2297143 19.5092784,41.6228571 C19.5092784,41.016 18.8996134,40.2068571 18.6963918,39.8022857 C18.6963918,39.3977143 17.6802835,39.3977143 17.4770619,39.6 C17.2738402,40.2068571 16.4609536,40.2068571 16.257732,40.6114286" id="Shape"/>
                <path d="M10.9739691,42.8365714 C11.1771907,43.2411429 12.3965206,44.4548571 13.0061856,44.8594286 C13.6158505,45.264 14.6319588,46.0731429 15.2416237,46.0731429 C15.8512887,45.8708571 16.4609536,42.0274286 15.4448454,41.8251429 C14.4287371,41.8251429 10.5675258,41.8251429 10.9739691,42.8365714" id="Shape"/>
                <path d="M16.8673969,45.6685714 C16.4609536,46.0731429 16.257732,47.0845714 17.0706186,47.4891429 C17.6802835,47.8937143 18.4931701,47.6914286 19.3060567,47.4891429 C20.1189433,47.2868571 20.3221649,47.0845714 20.7286082,46.68 C21.1350515,46.2754286 21.7447165,45.264 20.7286082,45.4662857 C19.7125,45.4662857 19.1028351,45.6685714 18.6963918,45.4662857 C18.0867268,45.4662857 17.4770619,45.264 16.8673969,45.6685714" id="Shape"/>
                <path d="M24.1833763,43.848 C23.5737113,44.8594286 24.5898196,46.0731429 25.4027062,46.4777143 C26.2155928,46.8822857 26.6220361,47.0845714 27.231701,47.4891429 C27.841366,47.8937143 29.2639175,47.8937143 29.4671392,47.0845714 C29.8735825,46.2754286 29.0606959,45.4662857 29.8735825,44.2525714 C30.6864691,42.8365714 30.8896907,42.2297143 30.6864691,41.4205714 C30.4832474,40.6114286 29.4671392,40.8137143 28.6542526,41.016 C27.841366,41.4205714 24.5898196,43.2411429 24.1833763,43.848" id="Shape"/>
                <path d="M30.6864691,46.8822857 C31.7025773,46.4777143 31.7025773,46.4777143 33.3283505,45.4662857 C34.9541237,44.6571429 36.3766753,43.848 36.5798969,43.6457143 C36.7831186,43.4434286 37.5960052,43.4434286 37.3927835,42.6342857 C37.1895619,41.8251429 36.3766753,41.4205714 35.5637887,41.4205714 C34.7509021,41.4205714 34.1412371,40.8137143 33.3283505,41.4205714 C32.3122423,42.0274286 31.0929124,43.0388571 30.6864691,43.6457143 C30.4832474,44.6571429 30.0768041,47.0845714 30.6864691,46.8822857" id="Shape"/>
                <path d="M29.8735825,39.3977143 C29.8735825,40.2068571 30.4832474,39.8022857 31.4993557,40.2068571 C32.5154639,40.6114286 32.9219072,41.2182857 33.3283505,40.8137143 C33.7347938,40.6114286 34.9541237,40.0045714 34.5476804,39.3977143 C34.3444588,38.5885714 34.1412371,37.5771429 33.9380155,37.3748571 C33.7347938,37.1725714 33.1251289,37.1725714 32.7186856,37.3748571 C32.7186856,37.7794286 29.8735825,37.3748571 29.8735825,39.3977143" id="Shape"/>
                <path d="M36.9863402,40.8137143 C37.3927835,41.016 37.3927835,41.8251429 38.2056701,41.6228571 C39.0185567,41.4205714 39.8314433,41.2182857 40.2378866,40.8137143 C40.8475515,40.4091429 41.4572165,39.8022857 41.2539948,39.3977143 C41.0507732,38.9931429 40.0346649,38.5885714 39.8314433,38.3862857 C39.6282216,38.184 38.6121134,37.9817143 38.2056701,37.5771429 C37.7992268,37.1725714 37.5960052,36.5657143 36.9863402,36.9702857 C36.3766753,37.3748571 35.970232,37.7794286 35.7670103,38.184 C35.5637887,38.5885714 35.360567,39.3977143 35.5637887,39.6 C35.5637887,40.0045714 36.1734536,40.6114286 36.1734536,40.6114286 C36.1734536,40.6114286 36.5798969,40.6114286 36.9863402,40.8137143" id="Shape"/>
                <path d="M39.0185567,35.7565714 C39.0185567,36.1611429 40.2378866,36.768 40.6443299,36.9702857 C41.0507732,36.9702857 41.8636598,37.3748571 42.4733247,37.3748571 C43.0829897,37.3748571 43.6926546,37.1725714 44.3023196,36.768 C44.9119845,36.3634286 45.9280928,35.7565714 46.3345361,35.352 C46.5377577,34.9474286 46.1313144,32.7222857 46.1313144,32.7222857 C46.1313144,32.7222857 45.1152062,32.1154286 44.5055412,32.1154286 C43.8958763,32.1154286 41.8636598,32.52 41.8636598,32.52 C41.2539948,32.7222857 40.0346649,33.1268571 39.6282216,33.3291429 C39.425,33.5314286 38.8153351,34.9474286 39.0185567,35.7565714" id="Shape"/>
                <path d="M40.4411082,27.2605714 C40.4411082,27.2605714 40.8475515,27.2605714 41.4572165,27.0582857 C42.0668814,26.856 42.4733247,26.856 42.879768,26.6537143 C43.2862113,26.6537143 43.489433,26.6537143 44.0990979,26.4514286 C44.7087629,26.2491429 44.9119845,26.4514286 45.3184278,26.0468571 C45.7248711,25.6422857 45.7248711,24.8331429 45.7248711,24.6308571 C45.7248711,24.4285714 44.0990979,22.8102857 43.489433,23.0125714 C42.879768,23.2148571 42.6765464,23.2148571 41.8636598,23.4171429 C41.0507732,23.6194286 39.8314433,24.024 39.8314433,24.024 C39.8314433,24.024 38.8153351,25.0354286 39.0185567,25.2377143 C39.0185567,25.6422857 39.0185567,26.4514286 40.4411082,27.2605714" id="Shape"/>
                <path d="M43.489433,30.6994286 C43.6926546,30.6994286 44.5055412,31.104 45.1152062,31.3062857 C45.5216495,31.5085714 46.5377577,32.1154286 46.944201,32.1154286 C47.3506443,32.1154286 48.1635309,31.7108571 48.1635309,31.104 C48.1635309,30.6994286 48.3667526,29.688 48.3667526,29.2834286 C48.3667526,28.6765714 48.7731959,28.272 48.1635309,27.6651429 C47.553866,27.0582857 47.553866,26.6537143 47.3506443,26.6537143 C47.1474227,26.6537143 46.3345361,26.856 45.9280928,27.0582857 C45.5216495,27.2605714 44.5055412,27.8674286 44.0990979,27.8674286 C43.6926546,27.8674286 43.2862113,27.4628571 43.0829897,27.8674286 C43.0829897,28.272 42.879768,29.0811429 43.0829897,29.2834286 C43.0829897,29.4857143 42.879768,30.9017143 43.489433,30.6994286" id="Shape"/>
                <path d="M39.8314433,23.0125714 C40.4411082,23.4171429 44.0990979,18.9668571 43.8958763,18.36 C43.489433,17.7531429 41.2539948,17.1462857 39.425,17.7531429 C37.7992268,18.5622857 37.1895619,20.7874286 39.8314433,23.0125714" id="Shape"/>
                <path d="M43.8958763,21.7988571 C44.7087629,21.5965714 45.7248711,22.4057143 46.1313144,23.2148571 C46.5377577,23.8217143 46.944201,25.0354286 47.3506443,25.2377143 C47.7570876,25.44 48.3667526,25.6422857 48.5699742,24.4285714 C48.5699742,23.0125714 48.5699742,21.192 47.9603093,20.1805714 C47.3506443,19.1691429 46.944201,17.9554286 45.9280928,18.36 C44.9119845,18.5622857 43.0829897,22.0011429 43.8958763,21.7988571" id="Shape"/>
                <path d="M39.0185567,16.5394286 C39.6282216,16.7417143 42.2701031,16.7417143 42.879768,16.7417143 C43.489433,16.7417143 44.3023196,17.3485714 44.7087629,16.944 C45.1152062,16.5394286 45.7248711,14.7188571 45.3184278,14.3142857 C44.9119845,14.112 44.3023196,12.696 43.6926546,12.696 C43.0829897,12.696 41.8636598,13.1005714 40.4411082,13.5051429 C39.0185567,13.9097143 38.0024485,15.9325714 39.0185567,16.5394286" id="Shape"/>
                <path d="M37.5960052,14.5165714 C38.8153351,14.5165714 39.0185567,11.0777143 39.0185567,10.4708571 C39.2217784,9.864 38.0024485,8.24571429 37.1895619,8.65028571 C36.3766753,9.05485714 33.5315722,11.4822857 33.3283505,11.8868571 C32.9219072,12.0891429 32.3122423,14.9211429 32.7186856,14.9211429 C33.3283505,14.7188571 36.5798969,14.5165714 37.5960052,14.5165714" id="Shape"/>
                <path d="M33.7347938,10.0662857 C34.1412371,9.864 36.3766753,8.24571429 36.5798969,7.84114286 C36.7831186,7.43657143 36.5798969,6.82971429 36.5798969,6.42514286 C36.5798969,6.02057143 36.1734536,5.00914286 35.1573454,5.21142857 C34.3444588,5.41371429 33.3283505,6.22285714 33.1251289,6.62742857 C32.9219072,7.032 32.5154639,9.25714286 32.5154639,9.66171429 C32.5154639,10.2685714 33.1251289,10.4708571 33.7347938,10.0662857" id="Shape"/>
                <path d="M32.7186856,5.81828571 C33.3283505,5.616 33.9380155,5.616 34.3444588,4.80685714 C34.7509021,4.2 34.1412371,2.98628571 33.9380155,2.784 C33.7347938,2.58171429 32.3122423,1.77257143 31.905799,1.97485714 C31.4993557,1.97485714 30.8896907,3.18857143 30.8896907,3.39085714 C30.8896907,3.59314286 31.905799,6.22285714 32.7186856,5.81828571" id="Shape"/>
                <path d="M40.4411082,12.696 C40.2378866,13.1005714 41.8636598,12.2914286 42.4733247,11.6845714 C43.0829897,11.28 43.8958763,11.0777143 42.879768,10.2685714 C42.0668814,9.45942857 41.4572165,8.85257143 40.8475515,8.04342857 C40.2378866,7.43657143 40.2378866,6.62742857 39.6282216,6.62742857 C39.0185567,6.62742857 38.4088918,7.032 38.8153351,7.84114286 C39.0185567,8.65028571 40.8475515,11.6845714 40.4411082,12.696" id="Shape"/>
                <path d="M21.9479381,47.4891429 C22.1511598,47.4891429 22.9640464,48.096 23.9801546,47.8937143 C24.9962629,47.6914286 24.9962629,47.4891429 24.3865979,46.8822857 C23.9801546,46.2754286 23.9801546,45.6685714 23.5737113,45.0617143 C23.167268,44.6571429 22.3543814,45.0617143 21.9479381,45.6685714 C21.7447165,46.2754286 20.7286082,47.2868571 21.9479381,47.4891429" id="Shape"/>
            </g>
            <g id="Group" transform="translate(59.896907, 2.571429)">
                <path d="M73.8136549,30.0819876 C69.3738572,30.0819876 70.3829022,23.8434783 70.3829022,21.2273292 C70.5847111,15.9950311 70.1810932,12.1714286 66.7503404,7.94534161 C66.7503404,7.74409938 66.5485314,7.94534161 66.3467224,7.94534161 C65.3376775,11.7689441 59.2834079,32.2956522 55.4490372,30.2832298 C53.2291383,29.0757764 55.2472282,26.6608696 56.2562731,25.4534161 C57.467127,23.642236 58.6779809,21.6298137 59.4852169,19.6173913 C61.3014978,15.3913043 62.3105427,11.3664596 63.5213966,6.93913043 C63.5213966,6.7378882 63.5213966,6.7378882 63.3195876,6.7378882 C61.9069247,7.34161491 60.6960708,7.34161491 59.4852169,8.14658385 C58.8797899,8.54906832 56.4580821,9.5552795 55.4490372,10.3602484 C55.2472282,10.5614907 55.2472282,10.7627329 55.2472282,11.1652174 C55.4490372,11.5677019 55.6508461,12.573913 55.6508461,11.9701863 C55.8526551,12.9763975 55.8526551,13.9826087 55.8526551,15.1900621 C55.6508461,17.4037267 54.6418012,19.6173913 53.8345653,21.6298137 C52.2200934,25.2521739 49.7983855,28.4720497 45.9640148,29.6795031 C41.3224081,31.0881988 40.5151721,27.2645963 39.9097452,23.642236 C35.2681385,28.6732919 25.5813071,35.3142857 22.7559813,25.0509317 C21.1415094,27.063354 18.5179926,31.6919255 15.4908578,30.6857143 C12.261914,29.6795031 12.463723,24.2459627 12.867341,21.4285714 C12.867341,21.2273292 12.665532,21.2273292 12.665532,21.2273292 C10.8492511,23.2397516 8.62935227,26.0571429 6.20764443,26.8621118 C2.37327368,28.2708075 1.16241976,23.642236 0.960610776,21.026087 C-0.0484341568,14.3850932 1.16241976,3.92049689 8.22573429,0.700621118 C12.060105,-0.90931677 15.8944758,0.499378882 17.3071387,4.32298137 C17.7107567,5.12795031 17.7107567,5.93291925 18.1143746,6.33540373 C20.9397004,6.93913043 19.9306555,10.3602484 19.3252286,12.1714286 C18.3161836,15.3913043 17.1053297,18.4099379 16.4999027,21.6298137 C16.2980938,22.6360248 15.4908578,25.8559006 17.3071387,25.8559006 C18.9216106,25.8559006 21.5451274,23.0385093 22.3523634,21.6298137 C22.7559813,20.4223602 22.5541723,18.6111801 22.7559813,17.4037267 C23.1595993,15.1900621 23.7650263,13.1776398 24.5722622,10.9639752 C25.7831161,7.54285714 28.6084419,2.31055901 32.4428127,1.50559006 C36.4789924,0.700621118 39.3043182,4.5242236 38.9007003,8.75031056 C38.9007003,8.75031056 38.9007003,10.1590062 38.2952733,10.7627329 C36.8826104,12.1714286 36.6808014,8.34782609 36.0753744,7.14037267 C33.6536666,3.11552795 31.4337677,6.7378882 29.8192959,9.35403727 C27.801206,12.7751553 27.397588,17.4037267 27.397588,19.6173913 C27.397588,21.4285714 27.801206,24.6484472 30.4247228,24.6484472 C32.4428127,24.6484472 34.0572846,23.4409938 35.6717565,22.4347826 C37.2862284,21.2273292 38.2952733,20.4223602 39.7079362,18.4099379 C39.7079362,18.2086957 39.9097452,18.2086957 39.9097452,18.0074534 C40.3133632,14.9888199 40.9187901,11.3664596 42.331453,8.54906832 C42.533262,7.94534161 45.9640148,3.51801242 47.1748687,4.92670807 C47.7802957,5.32919255 47.5784867,6.33540373 47.9821046,6.93913043 C48.7893406,7.54285714 50.0001945,7.14037267 51.0092394,6.7378882 C54.2381832,5.53043478 57.265318,4.92670807 60.4942618,3.92049689 C60.8978798,3.71925466 62.7141607,3.71925466 62.9159697,3.11552795 C63.3195876,1.7068323 64.1268236,0.298136646 65.9431045,0.298136646 C68.5666213,0.298136646 71.7955651,4.12173913 73.006419,6.13416149 C76.2353628,11.5677019 75.2263178,17.6049689 74.6208909,23.8434783 C74.6208909,24.2459627 74.8226999,24.447205 75.2263178,24.447205 C76.8407897,24.0447205 79.6661155,24.447205 79.6661155,24.2459627 C80.0697335,20.8248447 81.2805874,18.6111801 81.6842054,13.9826087 C81.8860144,12.7751553 81.4823964,6.33540373 82.2896324,5.93291925 C85.3167672,4.72546584 85.7203851,8.34782609 86.1240031,10.3602484 C86.1240031,10.5614907 86.3258121,10.5614907 86.3258121,10.3602484 C87.738475,7.74409938 89.1511379,4.92670807 91.5728457,3.11552795 C94.8017895,0.700621118 97.4253064,3.51801242 97.2234974,6.93913043 C97.0216884,11.7689441 96.6180704,16.3975155 96.4162614,21.2273292 C96.4162614,23.642236 95.4072165,27.4658385 98.4343513,27.063354 C99.8470142,26.8621118 104.085003,24.2459627 105.497666,25.0509317 C106.910329,26.4596273 102.470531,28.6732919 101.865104,28.8745342 C100.452441,29.4782609 100.250632,29.6795031 98.8379693,29.8807453 C90.5638008,32.0944099 91.7746547,16.8 91.5728457,11.1652174 C91.5728457,10.9639752 91.1692278,10.7627329 90.9674188,10.9639752 C88.142093,14.9888199 86.9312391,19.6173913 85.5185762,23.0385093 C85.1149582,24.0447205 81.6842054,31.6919255 79.8679245,27.6670807 C79.8679245,27.6670807 79.6661155,27.6670807 79.6661155,27.6670807 C78.0516436,28.8745342 76.2353628,30.0819876 73.8136549,30.0819876 M46.1658238,12.3726708 C44.5513519,14.3850932 44.3495429,17.6049689 44.1477339,20.0198758 C43.9459249,23.4409938 45.3585878,25.2521739 47.1748687,22.8372671 C48.3857226,21.2273292 50.8074305,16.8 50.8074305,14.5863354 C50.8074305,13.378882 46.9730597,11.3664596 46.1658238,12.3726708 M11.8582961,5.12795031 C9.43658821,5.12795031 6.6112624,10.5614907 6.00583544,12.3726708 C4.79498152,16.1962733 4.39136355,18.4099379 4.39136355,21.4285714 C4.39136355,21.6298137 4.79498152,21.8310559 4.99679051,21.6298137 C7.01488037,20.0198758 10.2438242,16.5987578 12.261914,13.1776398 C12.665532,12.3726708 14.8854309,7.94534161 14.8854309,7.34161491 C14.6836219,6.53664596 12.665532,5.12795031 11.8582961,5.12795031" id="Shape"/>
                <g transform="translate(9.234779, 35.366460)" id="Shape">
                    <path d="M0.807235946,2.96645963 C0.403617973,2.96645963 0.201808987,2.96645963 0.201808987,2.56397516 C0.201808987,2.36273292 0.403617973,2.16149068 0.60542696,2.16149068 L0.807235946,2.16149068 L0.807235946,1.35652174 C0.807235946,0.954037267 1.00904493,0.752795031 1.21085392,0.752795031 C1.41266291,0.752795031 1.61447189,0.954037267 1.61447189,1.35652174 L1.61447189,2.16149068 L1.81628088,2.16149068 C2.01808987,2.16149068 2.21989885,2.16149068 2.21989885,2.56397516 C2.21989885,2.76521739 2.01808987,2.96645963 1.81628088,2.96645963 L1.61447189,2.96645963 L1.61447189,5.38136646 C1.61447189,5.5826087 1.61447189,5.5826087 1.81628088,5.5826087 C2.01808987,5.5826087 2.21989885,5.5826087 2.21989885,5.98509317 C2.21989885,6.38757764 2.01808987,6.38757764 1.61447189,6.38757764 C0.807235946,6.38757764 0.60542696,5.98509317 0.60542696,5.5826087 L0.60542696,2.96645963 L0.807235946,2.96645963 Z"/>
                    <path d="M3.83437074,1.35652174 C3.83437074,0.954037267 4.03617973,0.752795031 4.23798872,0.752795031 C4.4397977,0.752795031 4.64160669,0.954037267 4.64160669,1.35652174 L4.64160669,2.76521739 C4.84341568,2.36273292 5.24703365,2.16149068 5.44884264,2.16149068 C6.0542696,2.16149068 6.45788757,2.56397516 6.45788757,3.16770186 L6.45788757,5.98509317 C6.45788757,6.38757764 6.25607858,6.58881988 6.0542696,6.58881988 C5.85246061,6.58881988 5.65065162,6.38757764 5.65065162,5.98509317 L5.65065162,3.3689441 C5.65065162,2.96645963 5.44884264,2.96645963 5.24703365,2.96645963 C4.84341568,2.96645963 4.84341568,3.16770186 4.84341568,3.77142857 L4.84341568,5.98509317 C4.84341568,6.38757764 4.64160669,6.58881988 4.4397977,6.58881988 C4.23798872,6.58881988 4.03617973,6.38757764 4.03617973,5.98509317 L4.03617973,1.35652174 L3.83437074,1.35652174 Z"/>
                    <path d="M8.07235946,3.97267081 C8.07235946,2.96645963 8.27416845,2.16149068 9.48502237,2.16149068 C10.4940673,2.16149068 10.8976853,2.76521739 10.8976853,3.77142857 C10.8976853,4.17391304 10.8976853,4.37515528 10.2922583,4.37515528 L9.0814044,4.37515528 L9.0814044,4.77763975 C9.0814044,5.38136646 9.0814044,5.5826087 9.48502237,5.5826087 C9.68683136,5.5826087 9.88864034,5.38136646 9.88864034,5.18012422 C9.88864034,4.77763975 10.0904493,4.57639752 10.2922583,4.57639752 C10.4940673,4.57639752 10.6958763,4.57639752 10.6958763,4.97888199 C10.6958763,5.78385093 10.0904493,6.1863354 9.48502237,6.1863354 C8.27416845,6.1863354 8.07235946,5.5826087 8.07235946,4.37515528 L8.07235946,3.97267081 Z M9.88864034,3.77142857 L9.88864034,3.3689441 C9.88864034,2.96645963 9.88864034,2.76521739 9.48502237,2.76521739 C9.0814044,2.76521739 9.0814044,2.96645963 9.0814044,3.3689441 L9.0814044,3.77142857 L9.88864034,3.77142857 Z"/>
                    <path d="M16.5483369,0.752795031 C16.9519549,0.752795031 17.1537639,0.954037267 17.1537639,1.35652174 C17.1537639,1.75900621 16.9519549,1.96024845 16.5483369,1.96024845 C16.1447189,1.96024845 15.9429099,1.75900621 15.9429099,1.35652174 C16.1447189,0.954037267 16.3465279,0.752795031 16.5483369,0.752795031 Z M16.1447189,2.76521739 C16.1447189,2.36273292 16.3465279,2.16149068 16.5483369,2.16149068 C16.7501459,2.16149068 16.9519549,2.36273292 16.9519549,2.76521739 L16.9519549,5.98509317 C16.9519549,6.38757764 16.7501459,6.58881988 16.5483369,6.58881988 C16.3465279,6.58881988 16.1447189,6.38757764 16.1447189,5.98509317 L16.1447189,2.76521739 Z"/>
                    <path d="M18.7682358,2.76521739 C18.7682358,2.36273292 18.9700447,2.16149068 19.1718537,2.16149068 C19.3736627,2.16149068 19.5754717,2.36273292 19.5754717,2.76521739 C19.7772807,2.36273292 20.1808987,2.16149068 20.3827076,2.16149068 C20.9881346,2.16149068 21.3917526,2.56397516 21.3917526,3.16770186 L21.3917526,5.98509317 C21.3917526,6.38757764 21.1899436,6.58881988 20.9881346,6.58881988 C20.7863256,6.58881988 20.5845166,6.38757764 20.5845166,5.98509317 L20.5845166,3.3689441 C20.5845166,2.96645963 20.3827076,2.96645963 20.1808987,2.96645963 C19.7772807,2.96645963 19.7772807,3.16770186 19.7772807,3.77142857 L19.7772807,5.98509317 C19.7772807,6.38757764 19.5754717,6.58881988 19.3736627,6.58881988 C19.1718537,6.58881988 18.9700447,6.38757764 18.9700447,5.98509317 L18.9700447,2.76521739 L18.7682358,2.76521739 Z"/>
                    <path d="M23.6116514,2.96645963 C23.2080335,2.96645963 23.0062245,2.96645963 23.0062245,2.56397516 C23.0062245,2.36273292 23.2080335,2.16149068 23.4098424,2.16149068 L23.6116514,2.16149068 L23.6116514,1.55776398 C23.6116514,0.752795031 24.0152694,0.551552795 24.6206964,0.551552795 C25.0243143,0.551552795 25.0243143,0.752795031 25.0243143,0.954037267 C25.0243143,1.1552795 25.0243143,1.35652174 24.8225053,1.35652174 C24.6206964,1.35652174 24.6206964,1.55776398 24.6206964,1.75900621 L24.6206964,2.16149068 L24.8225053,2.16149068 C25.0243143,2.16149068 25.2261233,2.16149068 25.2261233,2.56397516 C25.2261233,2.76521739 25.0243143,2.96645963 24.8225053,2.96645963 L24.6206964,2.96645963 L24.6206964,5.98509317 C24.6206964,6.38757764 24.4188874,6.58881988 24.2170784,6.58881988 C24.0152694,6.58881988 23.8134604,6.38757764 23.8134604,5.98509317 L23.8134604,2.96645963 L23.6116514,2.96645963 Z"/>
                    <path d="M29.2623031,2.76521739 C29.2623031,2.36273292 29.464112,2.16149068 29.665921,2.16149068 C29.86773,2.16149068 30.069539,2.36273292 30.069539,2.76521739 L30.069539,5.38136646 C30.069539,5.78385093 30.271348,5.78385093 30.473157,5.78385093 C30.8767749,5.78385093 30.8767749,5.5826087 30.8767749,4.97888199 L30.8767749,2.76521739 C30.8767749,2.36273292 31.0785839,2.16149068 31.2803929,2.16149068 C31.4822019,2.16149068 31.6840109,2.36273292 31.6840109,2.76521739 L31.6840109,5.98509317 C31.6840109,6.38757764 31.4822019,6.58881988 31.2803929,6.58881988 C31.0785839,6.58881988 30.8767749,6.38757764 30.8767749,5.98509317 C30.674966,6.38757764 30.271348,6.58881988 30.069539,6.58881988 C29.464112,6.58881988 29.0604941,6.1863354 29.0604941,5.5826087 L29.0604941,2.76521739 L29.2623031,2.76521739 Z"/>
                    <path d="M33.7021008,3.97267081 C33.7021008,2.96645963 33.9039097,2.16149068 35.1147637,2.16149068 C36.1238086,2.16149068 36.5274266,2.76521739 36.5274266,3.77142857 C36.5274266,4.17391304 36.5274266,4.37515528 35.9219996,4.37515528 L34.7111457,4.37515528 L34.7111457,4.77763975 C34.7111457,5.38136646 34.7111457,5.5826087 35.1147637,5.5826087 C35.3165727,5.5826087 35.5183816,5.38136646 35.5183816,5.18012422 C35.5183816,4.77763975 35.7201906,4.57639752 35.9219996,4.57639752 C36.1238086,4.57639752 36.3256176,4.57639752 36.3256176,4.97888199 C36.3256176,5.78385093 35.7201906,6.1863354 35.1147637,6.1863354 C33.9039097,6.1863354 33.7021008,5.5826087 33.7021008,4.37515528 L33.7021008,3.97267081 Z M35.5183816,3.77142857 L35.5183816,3.3689441 C35.5183816,2.96645963 35.3165727,2.76521739 35.1147637,2.76521739 C34.7111457,2.76521739 34.7111457,2.96645963 34.7111457,3.3689441 L34.7111457,3.77142857 L35.5183816,3.77142857 Z"/>
                    <path d="M38.3437074,2.76521739 C38.3437074,2.36273292 38.5455164,2.16149068 38.7473254,2.16149068 C38.9491344,2.16149068 39.1509434,2.36273292 39.1509434,2.76521739 C39.3527524,2.36273292 39.7563704,2.16149068 39.9581793,2.16149068 C40.5636063,2.16149068 40.9672243,2.56397516 40.9672243,3.16770186 L40.9672243,5.98509317 C40.9672243,6.38757764 40.7654153,6.58881988 40.5636063,6.58881988 C40.3617973,6.58881988 40.1599883,6.38757764 40.1599883,5.98509317 L40.1599883,3.3689441 C40.1599883,2.96645963 39.9581793,2.96645963 39.7563704,2.96645963 C39.5545614,2.96645963 39.3527524,3.16770186 39.3527524,3.77142857 L39.3527524,5.98509317 C39.3527524,6.38757764 39.1509434,6.58881988 38.9491344,6.58881988 C38.7473254,6.58881988 38.5455164,6.38757764 38.5455164,5.98509317 L38.5455164,2.76521739 L38.3437074,2.76521739 Z"/>
                    <path d="M42.9853141,3.97267081 C42.9853141,2.96645963 43.1871231,2.16149068 44.397977,2.16149068 C45.407022,2.16149068 45.81064,2.96645963 45.81064,3.3689441 C45.81064,3.77142857 45.608831,3.97267081 45.407022,3.97267081 C45.003404,3.97267081 45.003404,3.77142857 45.003404,3.3689441 C45.003404,3.16770186 44.801595,2.96645963 44.599786,2.96645963 C44.1961681,2.96645963 44.1961681,3.3689441 44.1961681,3.97267081 L44.1961681,4.97888199 C44.1961681,5.5826087 44.1961681,5.98509317 44.599786,5.98509317 C44.801595,5.98509317 45.003404,5.98509317 45.003404,5.5826087 C45.003404,4.97888199 45.205213,4.97888199 45.407022,4.97888199 C45.608831,4.97888199 45.81064,5.18012422 45.81064,5.5826087 C45.81064,5.98509317 45.608831,6.79006211 44.397977,6.79006211 C43.1871231,6.79006211 42.9853141,5.98509317 42.9853141,4.97888199 L42.9853141,3.97267081 Z"/>
                    <path d="M47.4251118,3.97267081 C47.4251118,2.96645963 47.6269208,2.16149068 48.8377748,2.16149068 C49.8468197,2.16149068 50.2504377,2.76521739 50.2504377,3.77142857 C50.2504377,4.17391304 50.2504377,4.37515528 49.6450107,4.37515528 L48.4341568,4.37515528 L48.4341568,4.77763975 C48.4341568,5.38136646 48.4341568,5.5826087 48.8377748,5.5826087 C49.0395837,5.5826087 49.2413927,5.38136646 49.2413927,5.18012422 C49.2413927,4.77763975 49.4432017,4.57639752 49.6450107,4.57639752 C49.8468197,4.57639752 50.0486287,4.57639752 50.0486287,4.97888199 C50.0486287,5.78385093 49.4432017,6.1863354 48.8377748,6.1863354 C47.6269208,6.1863354 47.4251118,5.5826087 47.4251118,4.37515528 L47.4251118,3.97267081 Z M49.4432017,3.77142857 L49.4432017,3.3689441 C49.4432017,2.96645963 49.2413927,2.76521739 49.0395837,2.76521739 C48.6359658,2.76521739 48.6359658,2.96645963 48.6359658,3.3689441 L48.6359658,3.77142857 L49.4432017,3.77142857 Z"/>
                    <path d="M54.8920443,3.97267081 C54.8920443,2.96645963 55.0938533,2.16149068 56.3047073,2.16149068 C57.3137522,2.16149068 57.7173702,2.96645963 57.7173702,3.3689441 C57.7173702,3.77142857 57.5155612,3.97267081 57.3137522,3.97267081 C56.9101342,3.97267081 56.9101342,3.77142857 56.9101342,3.3689441 C56.9101342,3.16770186 56.7083252,2.96645963 56.5065162,2.96645963 C56.1028983,2.96645963 56.1028983,3.3689441 56.1028983,3.97267081 L56.1028983,4.97888199 C56.1028983,5.5826087 56.3047073,5.98509317 56.5065162,5.98509317 C56.7083252,5.98509317 56.9101342,5.98509317 56.9101342,5.5826087 C56.9101342,4.97888199 57.1119432,4.97888199 57.3137522,4.97888199 C57.5155612,4.97888199 57.7173702,5.18012422 57.7173702,5.5826087 C57.7173702,5.98509317 57.5155612,6.79006211 56.3047073,6.79006211 C55.0938533,6.79006211 54.8920443,5.98509317 54.8920443,4.97888199 L54.8920443,3.97267081 Z"/>
                    <path d="M59.3318421,3.77142857 C59.3318421,2.96645963 59.533651,2.16149068 60.744505,2.16149068 C61.9553589,2.16149068 62.1571679,2.96645963 62.1571679,3.77142857 L62.1571679,4.97888199 C62.1571679,5.78385093 61.9553589,6.58881988 60.744505,6.58881988 C59.533651,6.58881988 59.3318421,5.78385093 59.3318421,4.97888199 L59.3318421,3.77142857 Z M60.340887,4.77763975 C60.340887,5.5826087 60.542696,5.78385093 60.744505,5.78385093 C61.1481229,5.78385093 61.1481229,5.5826087 61.1481229,4.77763975 L61.1481229,3.77142857 C61.1481229,2.96645963 60.9463139,2.76521739 60.744505,2.76521739 C60.542696,2.76521739 60.340887,2.96645963 60.340887,3.77142857 L60.340887,4.77763975 Z"/>
                    <path d="M68.6150554,5.98509317 C68.6150554,6.38757764 68.4132465,6.58881988 68.2114375,6.58881988 C68.0096285,6.58881988 67.8078195,6.38757764 67.8078195,5.98509317 L67.8078195,3.3689441 C67.8078195,2.96645963 67.6060105,2.96645963 67.4042015,2.96645963 C67.2023925,2.96645963 67.0005835,3.16770186 67.0005835,3.77142857 L67.0005835,5.98509317 C67.0005835,6.38757764 66.7987746,6.58881988 66.5969656,6.58881988 C66.3951566,6.58881988 66.1933476,6.38757764 66.1933476,5.98509317 L66.1933476,3.3689441 C66.1933476,2.96645963 65.9915386,2.96645963 65.7897296,2.96645963 C65.5879206,2.96645963 65.3861117,3.16770186 65.3861117,3.77142857 L65.3861117,5.98509317 C65.3861117,6.38757764 65.1843027,6.58881988 64.9824937,6.58881988 C64.7806847,6.58881988 64.5788757,6.38757764 64.5788757,5.98509317 L64.5788757,2.76521739 C64.5788757,2.36273292 64.7806847,2.16149068 64.9824937,2.16149068 C65.1843027,2.16149068 65.3861117,2.36273292 65.3861117,2.76521739 C65.5879206,2.36273292 65.9915386,2.16149068 66.1933476,2.16149068 C66.5969656,2.16149068 66.7987746,2.36273292 67.0005835,2.56397516 C67.2023925,2.16149068 67.6060105,2.16149068 68.0096285,2.16149068 C68.6150554,2.16149068 69.0186734,2.56397516 69.0186734,3.16770186 L69.0186734,5.98509317 L68.6150554,5.98509317 Z"/>
                    <path d="M70.6331453,2.76521739 C70.6331453,2.36273292 70.8349543,2.16149068 71.0367633,2.16149068 C71.2385723,2.16149068 71.4403812,2.36273292 71.4403812,2.76521739 C71.6421902,2.36273292 72.0458082,2.16149068 72.2476172,2.16149068 C73.0548531,2.16149068 73.2566621,2.96645963 73.2566621,3.77142857 L73.2566621,4.97888199 C73.2566621,5.78385093 73.0548531,6.58881988 72.2476172,6.58881988 C71.8439992,6.58881988 71.6421902,6.38757764 71.4403812,6.1863354 L71.4403812,7.59503106 C71.4403812,7.99751553 71.2385723,8.19875776 71.0367633,8.19875776 C70.8349543,8.19875776 70.6331453,7.99751553 70.6331453,7.59503106 L70.6331453,2.76521739 Z M71.6421902,4.77763975 C71.6421902,5.38136646 71.8439992,5.78385093 72.0458082,5.78385093 C72.4494262,5.78385093 72.4494262,5.38136646 72.4494262,4.77763975 L72.4494262,4.17391304 C72.4494262,3.16770186 72.4494262,2.96645963 72.0458082,2.96645963 C71.8439992,2.96645963 71.6421902,3.16770186 71.6421902,3.97267081 L71.6421902,4.77763975 Z"/>
                    <path d="M78.1000778,5.5826087 C78.1000778,5.78385093 78.1000778,5.98509317 78.1000778,6.1863354 C78.1000778,6.38757764 77.8982688,6.58881988 77.6964598,6.58881988 C77.4946508,6.58881988 77.2928419,6.38757764 77.2928419,5.98509317 C77.0910329,6.38757764 76.6874149,6.58881988 76.4856059,6.58881988 C75.880179,6.58881988 75.476561,6.1863354 75.476561,5.38136646 C75.476561,4.77763975 75.67837,4.37515528 76.0819879,4.17391304 L76.8892239,3.77142857 C77.0910329,3.57018634 77.0910329,3.57018634 77.0910329,3.3689441 C77.0910329,3.16770186 76.8892239,2.96645963 76.6874149,2.96645963 C76.2837969,2.96645963 76.2837969,3.16770186 76.2837969,3.3689441 C76.2837969,3.57018634 76.0819879,3.57018634 75.880179,3.57018634 C75.67837,3.57018634 75.476561,3.57018634 75.476561,3.16770186 C75.476561,2.36273292 76.0819879,1.96024845 76.8892239,1.96024845 C78.1000778,1.96024845 78.3018868,2.56397516 78.3018868,3.16770186 L78.3018868,5.5826087 L78.1000778,5.5826087 Z M77.0910329,4.37515528 L76.6874149,4.57639752 C76.2837969,4.77763975 76.2837969,4.97888199 76.2837969,5.38136646 C76.2837969,5.78385093 76.4856059,5.78385093 76.6874149,5.78385093 C77.0910329,5.78385093 77.0910329,5.38136646 77.0910329,4.97888199 L77.0910329,4.37515528 Z"/>
                    <path d="M80.1181677,2.76521739 C80.1181677,2.36273292 80.3199767,2.16149068 80.5217856,2.16149068 C80.7235946,2.16149068 80.9254036,2.36273292 80.9254036,2.76521739 C81.1272126,2.36273292 81.5308306,2.16149068 81.7326396,2.16149068 C82.3380665,2.16149068 82.7416845,2.56397516 82.7416845,3.16770186 L82.7416845,5.98509317 C82.7416845,6.38757764 82.5398755,6.58881988 82.3380665,6.58881988 C82.1362575,6.58881988 81.9344486,6.38757764 81.9344486,5.98509317 L81.9344486,3.3689441 C81.9344486,2.96645963 81.7326396,2.96645963 81.5308306,2.96645963 C81.1272126,2.96645963 81.1272126,3.16770186 81.1272126,3.77142857 L81.1272126,5.98509317 C81.1272126,6.38757764 80.9254036,6.58881988 80.7235946,6.58881988 C80.5217856,6.58881988 80.3199767,6.38757764 80.3199767,5.98509317 L80.3199767,2.76521739 L80.1181677,2.76521739 Z"/>
                    <path d="M84.7597744,2.96645963 C84.7597744,2.96645963 84.7597744,2.76521739 84.7597744,2.76521739 C84.7597744,2.56397516 84.9615833,2.36273292 85.3652013,2.36273292 C85.5670103,2.36273292 85.7688193,2.56397516 85.7688193,2.76521739 L86.3742463,5.78385093 L86.7778642,2.96645963 C86.7778642,2.56397516 86.9796732,2.36273292 87.3832912,2.36273292 C87.5851002,2.36273292 87.7869092,2.56397516 87.7869092,2.76521739 C87.7869092,2.76521739 87.7869092,2.96645963 87.7869092,2.96645963 L86.7778642,7.19254658 C86.5760552,7.99751553 86.3742463,8.19875776 85.5670103,8.19875776 C85.1633923,8.19875776 85.1633923,7.99751553 85.1633923,7.79627329 C85.1633923,7.59503106 85.1633923,7.39378882 85.5670103,7.39378882 C85.7688193,7.39378882 85.7688193,7.39378882 85.7688193,7.19254658 C85.7688193,7.19254658 85.7688193,6.99130435 85.7688193,6.99130435 L84.7597744,2.96645963 Z"/>
                    <path d="M26.6387862,1.35652174 C26.6387862,0.954037267 26.8405952,0.752795031 27.0424042,0.752795031 C27.2442132,0.752795031 27.4460222,0.954037267 27.4460222,1.35652174 L27.4460222,5.98509317 C27.4460222,6.38757764 27.2442132,6.58881988 27.0424042,6.58881988 C26.8405952,6.58881988 26.6387862,6.38757764 26.6387862,5.98509317 L26.6387862,1.35652174 Z"/>
                </g>
            </g>
        </g>
    </g>
</svg>