<svg xmlns:xlink="http://www.w3.org/1999/xlink" xmlns="http://www.w3.org/2000/svg" width="204" height="39" fill="none"><g clip-path="url(#a)"><path fill="#263365" d="M3.682 30.169 1 28.644 16.378.5l15.247 28.136-2.77 1.56-.163-.032a5.268 5.268 0 0 0-.23-.589 341.232 341.232 0 0 0-1.734-3.252c-.81-1.506-1.622-3.013-2.437-4.52a5267.811 5267.811 0 0 0-5.256-9.662 732.945 732.945 0 0 1-2.399-4.45c-.063-.119-.104-.248-.201-.485-.487.844-.833 1.436-1.165 2.038-1.004 1.83-2.004 3.659-3 5.488-1.759 3.216-3.516 6.434-5.273 9.654-.975 1.784-1.95 3.564-2.925 5.352a1.604 1.604 0 0 0-.092.462l-.298-.031Z"/><path fill="#9DD1EC" d="m28.686 30.169.162.032c.786 1.453 1.58 2.917 2.356 4.382.124.283.23.575.317.872l-5.638 3.037-9.495-17.346C13.058 26.982 9.926 32.74 6.674 38.5l-5.606-3.066a1.32 1.32 0 0 1 .077-.378c.762-1.414 1.537-2.82 2.297-4.232.095-.214.176-.434.24-.658l.3.026 2.67 1.605 9.726-17.417 9.53 17.414 2.778-1.625Z"/><path fill="#263365" d="M56.902 14.472c2.068.074 4.083 0 6.059.25 2.984.37 4.997 2.363 5.589 5.292.497 2.463.083 4.717-1.787 6.544a6.247 6.247 0 0 1-4.137 1.837c-1.888.087-3.784.021-5.722.021l-.002-13.944Zm2.73 11.254c1.194.01 2.352.108 3.477-.254 1.49-.484 2.463-1.462 2.664-3.03a7.28 7.28 0 0 0-.055-2.231c-.267-1.435-1.168-2.389-2.566-2.85-1.151-.381-2.331-.209-3.52-.233v8.598Z"/><path fill="#1A6EA5" d="M88.862 14.47c2.06.075 4.07 0 6.04.252 2.917.367 4.799 2.11 5.525 4.94.525 2.042.404 4.05-.84 5.87-1.138 1.655-2.738 2.657-4.697 2.825-1.96.168-3.987.039-6.03.039l.002-13.925Zm2.75 2.583v8.597c.958 0 1.89.118 2.78-.024 1.672-.266 2.909-1.17 3.284-2.905.111-.635.14-1.282.085-1.924-.085-1.727-1.248-3.165-2.946-3.494-1.02-.198-2.084-.17-3.202-.25ZM164.152 14.464c2.103.08 4.173.01 6.197.272 3.074.397 5.199 2.799 5.576 5.86.249 2.018-.097 3.843-1.413 5.443-1.159 1.404-2.681 2.22-4.465 2.34-1.937.13-3.899.029-5.895.029V14.464Zm2.73 11.318c1.262-.018 2.448.047 3.584-.342 1.409-.484 2.325-1.453 2.583-2.93a6.922 6.922 0 0 0 .056-1.76c-.163-1.775-1.331-3.067-3.078-3.49-1.034-.246-2.074-.096-3.145-.138v8.66ZM157.743 20.053v2.72h-5.901v2.921h6.946c.044.92.029 1.785 0 2.699h-9.774V14.602h9.475v2.66h-6.661v2.791h5.915ZM123.527 24.04v4.357h-2.739V14.588c.205-.014.413-.045.619-.045 1.38 0 2.762-.024 4.14 0 1.246.026 2.406.355 3.366 1.188 1.334 1.157 1.625 2.674 1.416 4.325a4.486 4.486 0 0 1-1.018 2.421c-.901 1.052-2.071 1.514-3.429 1.554-.753.033-1.502.008-2.355.008Zm.056-2.744c.934 0 1.824.14 2.69-.136a1.995 1.995 0 0 0 1.339-2.001c-.075-.968-.665-1.764-1.506-1.845-.842-.08-1.659-.016-2.523-.016v3.998Z"/><path fill="#263365" d="m45.802 13.734 6.354 14.651h-3.205l-1.065-2.62h-4.58l-1.137 2.641h-2.733l6.366-14.672Zm-.154 6.31c-.498 1.201-.928 2.242-1.373 3.322h2.705a340.109 340.109 0 0 1-1.332-3.315v-.006Z"/><path fill="#1A6EA5" d="m112.988 28.403-1.076-2.6h-4.572c-.365.847-.736 1.702-1.119 2.593h-2.749l6.273-14.465h.182c2.086 4.81 4.174 9.617 6.284 14.48l-3.223-.008Zm-3.225-8.149h-.163l-1.287 3.115h2.689c-.429-1.081-.833-2.097-1.239-3.115ZM75.25 25.823l-1.098 2.575H71.39c2.102-4.842 4.182-9.64 6.268-14.447.456.417 5.49 11.782 6.424 14.488h-3.145l-1.09-2.616H75.25Zm3.677-2.442c-.432-1.092-.798-2.148-1.344-3.286-.487 1.182-.897 2.205-1.339 3.286h2.683ZM137.726 17.263h-3.227v-2.661h9.315v2.627h-3.321v11.154h-2.762l-.005-11.12Z"/><path fill="#316593" d="m28.687 30.168-2.78 1.624-9.529-17.413-9.725 17.43-2.672-1.613c.008-.158.04-.313.093-.462.975-1.788 1.95-3.568 2.925-5.352 1.758-3.217 3.514-6.433 5.269-9.65.998-1.828 1.998-3.657 3-5.487.325-.602.683-1.194 1.165-2.038.098.242.139.371.202.484a838.993 838.993 0 0 0 2.4 4.45c1.749 3.22 3.501 6.438 5.257 9.654.817 1.507 1.63 3.013 2.437 4.52.583 1.08 1.16 2.169 1.729 3.264.087.192.164.389.23.59Z"/></g><defs><clipPath id="a"><path fill="#fff" d="M0 .5h204v38H0z"/></clipPath></defs></svg>