<svg xmlns:xlink="http://www.w3.org/1999/xlink" xmlns="http://www.w3.org/2000/svg" viewBox="0 0 500 202" width="500" height="202">
  <defs>
    <clipPath id="clipPath26" clipPathUnits="userSpaceOnUse">
      <path id="path24" d="M 0,234 H 450 V 0 H 0 Z"/>
    </clipPath>
    <clipPath id="clipPath46" clipPathUnits="userSpaceOnUse">
      <path id="path44" d="M 67.2228,180.682 H 112.898 V 41.8638 H 67.2228 Z"/>
    </clipPath>
    <clipPath id="clipPath62" clipPathUnits="userSpaceOnUse">
      <path id="path60" d="M 26.55,147.611 H 153.582 V 74.8928 H 26.55 Z"/>
    </clipPath>
    <clipPath id="clipPath78" clipPathUnits="userSpaceOnUse">
      <path id="path76" d="M 28.5737,150.989 H 151.548 V 71.5627 H 28.5737 Z"/>
    </clipPath>
  </defs>
  <g transform="matrix(1.353701, 0, 0, -1.344085, -35.941093, 258.247101)" id="g18">
    <g id="g20">
      <g clip-path="url(#clipPath26)" id="g22">
        <g transform="translate(227.9924,104.0213)" id="g28">
          <path id="path30" style="fill:#f89d47;fill-opacity:1;fill-rule:nonzero;stroke:none" d="m 0,0 c -1.144,-1.033 -2.577,-1.838 -4.298,-2.382 -1.718,-0.597 -3.557,-1.059 -5.56,-1.45 -1.955,-0.38 -4.023,-0.704 -6.194,-0.948 -2.174,-0.252 -4.342,-0.579 -6.511,-0.98 -2.029,-0.372 -4.033,-0.886 -6.017,-1.51 -1.971,-0.642 -3.693,-1.492 -5.162,-2.584 -1.463,-1.079 -2.636,-2.452 -3.531,-4.098 -0.892,-1.665 -1.333,-3.758 -1.333,-6.319 0,-2.419 0.441,-4.465 1.333,-6.11 0.895,-1.668 2.109,-2.966 3.626,-3.935 1.54,-0.945 3.324,-1.615 5.362,-1.996 2.046,-0.38 4.147,-0.57 6.309,-0.57 5.35,0 9.498,0.886 12.422,2.678 2.932,1.773 5.106,3.914 6.492,6.405 1.404,2.462 2.27,4.995 2.586,7.55 0.324,2.549 0.476,4.58 0.476,6.11 z m -62.688,20.071 c 0.38,6.373 1.96,11.642 4.784,15.862 2.792,4.204 6.37,7.582 10.696,10.13 4.331,2.549 9.213,4.364 14.621,5.446 5.42,1.082 10.858,1.619 16.334,1.619 4.97,0 10.017,-0.353 15.109,-1.045 5.098,-0.705 9.744,-2.079 13.956,-4.105 4.195,-2.04 7.639,-4.885 10.309,-8.516 2.686,-3.619 4.026,-8.442 4.026,-14.419 v -51.424 c 0,-4.474 0.256,-8.737 0.771,-12.815 0.497,-4.08 1.395,-7.135 2.665,-9.17 H 3.07 c -0.51,1.53 -0.932,3.082 -1.259,4.678 -0.315,1.584 -0.547,3.229 -0.67,4.875 -4.333,-4.463 -9.426,-7.586 -15.294,-9.359 -5.861,-1.774 -11.829,-2.676 -17.954,-2.676 -4.717,0 -9.104,0.576 -13.198,1.716 -4.074,1.155 -7.635,2.917 -10.712,5.35 -3.042,2.424 -5.427,5.487 -7.158,9.19 -1.72,3.685 -2.574,8.091 -2.574,13.171 0,5.61 0.99,10.235 2.954,13.874 1.985,3.611 4.541,6.514 7.663,8.688 3.106,2.171 6.677,3.787 10.693,4.876 4.017,1.084 8.061,1.94 12.142,2.575 4.078,0.632 8.086,1.151 12.044,1.52 3.947,0.4 7.452,0.966 10.507,1.731 3.064,0.756 5.479,1.883 7.261,3.354 1.788,1.458 2.616,3.589 2.485,6.409 0,2.924 -0.476,5.247 -1.431,6.966 -0.956,1.714 -2.237,3.056 -3.826,4.022 -1.594,0.943 -3.433,1.583 -5.539,1.897 -2.103,0.317 -4.363,0.481 -6.79,0.481 -5.346,0 -9.55,-1.14 -12.622,-3.436 -3.045,-2.299 -4.83,-6.12 -5.339,-11.465 z"/>
        </g>
        <g transform="translate(295.2131,192.136)" id="g32">
          <path id="path34" style="fill:#f89d47;fill-opacity:1;fill-rule:nonzero;stroke:none" d="m 0,0 v -73.214 l 34.193,35.547 H 66.334 L 29.042,-73.983 70.514,-136.481 H 37.639 L 10.5,-92.327 0,-102.447 v -34.034 h -27.146 l 0,136.481 z"/>
        </g>
        <path id="path36" style="fill:#f89d47;fill-opacity:1;fill-rule:nonzero;stroke:none" d="m 395.908,55.655 h -27.144 v 98.719 h 27.144 z"/>
        <path id="path38" style="fill:#f89d47;fill-opacity:1;fill-rule:nonzero;stroke:none" d="m 395.908,163.086 h -27.144 v 16.289 h 27.144 z"/>
        <g id="g40">
          <g id="g42"/>
          <g id="g54">
            <g id="g52" opacity="0.699997" clip-path="url(#clipPath46)">
              <g id="g50" transform="translate(90.7976,177.8982)">
                <path id="path48" style="fill:#f89c1e;fill-opacity:1;fill-rule:nonzero;stroke:none" d="m 0,0 c -9.575,-0.533 -20.107,-26.956 -20.769,-66.288 -0.664,-39.858 9.246,-66.807 18.916,-66.969 0.126,-0.003 0.254,0.001 0.38,0.008 9.576,0.528 20.11,26.956 20.767,66.292 0.302,18.023 -1.62,34.992 -5.416,47.781 C 10.286,-7.067 5.366,-0.074 0.381,0.008 0.254,0.009 0.127,0.007 0,0 m -1.321,-136.021 c -0.193,-0.01 -0.385,-0.015 -0.576,-0.012 -12.787,0.216 -22.294,30.871 -21.646,69.791 0.654,38.92 11.24,69.288 23.97,69.024 6.371,-0.104 12.094,-7.622 16.113,-21.169 3.873,-13.052 5.837,-30.319 5.529,-48.616 -0.64,-38.328 -10.863,-68.32 -23.39,-69.018"/>
              </g>
            </g>
          </g>
        </g>
        <g id="g56">
          <g id="g58"/>
          <g id="g70">
            <g id="g68" opacity="0.800003" clip-path="url(#clipPath62)">
              <g id="g66" transform="translate(133.0671,144.7801)">
                <path id="path64" style="fill:#f37524;fill-opacity:1;fill-rule:nonzero;stroke:none" d="m 0,0 c -12.576,-0.701 -30.858,-5.573 -51.584,-15.403 -36.018,-17.091 -55.772,-37.932 -51.625,-46.677 2.134,-4.502 10.532,-6.106 23.04,-4.353 13.213,1.833 29.46,7.101 45.75,14.829 36.014,17.083 55.771,37.918 51.628,46.66 C 15.448,-1.236 9.275,0.517 0,0 m -85.963,-69.796 c -10.526,-0.587 -17.451,1.667 -19.754,6.528 -5.483,11.557 17.772,33.683 52.943,50.372 35.166,16.677 67.004,20.694 72.49,9.14 5.478,-11.557 -17.778,-33.674 -52.945,-50.356 -16.539,-7.847 -33.073,-13.2 -46.558,-15.072 -2.176,-0.302 -4.237,-0.504 -6.176,-0.612"/>
              </g>
            </g>
          </g>
        </g>
        <g id="g72">
          <g id="g74"/>
          <g id="g86">
            <g id="g84" opacity="0.5" clip-path="url(#clipPath78)">
              <g id="g82" transform="translate(41.6345,148.2039)">
                <path id="path80" style="fill:#ee4343;fill-opacity:1;fill-rule:nonzero;stroke:none" d="m 0,0 c -4.848,-0.27 -8.161,-1.645 -9.53,-4.058 -2.465,-4.34 1.055,-12.13 9.662,-21.373 9.083,-9.753 22.722,-20.024 38.403,-28.917 34.666,-19.656 63.069,-23.859 67.847,-15.451 2.466,4.34 -1.053,12.129 -9.656,21.367 -9.083,9.757 -22.724,20.028 -38.409,28.924 C 33.593,-5.487 12.054,0.672 0,0 m 96.964,-76.587 c -13.545,-0.754 -36.085,6.377 -59.798,19.823 -15.92,9.032 -29.794,19.488 -39.065,29.442 -9.629,10.339 -13.195,19.088 -10.045,24.634 6.315,11.119 37.778,4.791 71.631,-14.406 15.924,-9.032 29.799,-19.488 39.07,-29.444 9.625,-10.337 13.19,-19.085 10.038,-24.631 -1.891,-3.33 -6.039,-5.096 -11.831,-5.418"/>
              </g>
            </g>
          </g>
        </g>
      </g>
    </g>
  </g>
</svg>