<?xml version="1.0" encoding="utf-8"?>
<!-- Generator: Adobe Illustrator 27.1.1, SVG Export Plug-In . SVG Version: 6.00 Build 0)  -->
<svg version="1.1" id="Capa_1" xmlns="http://www.w3.org/2000/svg" xmlns:xlink="http://www.w3.org/1999/xlink" x="0px" y="0px"
	 viewBox="0 0 158 48" style="enable-background:new 0 0 158 48;" xml:space="preserve">
<style type="text/css">
	.st0{fill-rule:evenodd;clip-rule:evenodd;fill:#FFFFFF;}
</style>
<g>
	<path class="st0" d="M42.9,8.5c2.3-4.2,7.7-4.6,10.2,0.1c1.3-2.5,3.3-3.6,6.1-3.3c2.8,0.4,4.6,2.1,4.7,5c0.1,5.2,0.1,10.4,0.1,15.5
		c0,0.8-0.4,1-1.2,1.1c-4.2,0.1-4.2,0.2-4.2-4.1c0-3.1,0-6.2,0-9.3c0-2.3-0.8-3.4-2.3-3.3c-1.5,0-2.6,1.3-2.6,3.4
		c0,3.9,0,7.9,0,11.8c0,1.2-0.4,1.6-1.5,1.5c-0.9-0.1-1.8-0.1-2.7,0c-0.9,0.1-1.2-0.3-1.2-1.2c0-3.8,0-7.5,0-11.3
		c0-0.8-0.1-1.7-0.3-2.5c-0.2-1-0.9-1.6-2-1.7c-1-0.1-1.8,0.4-2.3,1.3c-0.4,0.7-0.5,1.5-0.5,2.3c0,3.8,0,7.5,0,11.3
		c0,1.8,0,1.8-1.8,1.8c-0.8,0-1.7,0-2.5,0c-0.7,0-0.9-0.3-0.9-0.9c0-6.5,0-12.9,0-19.4c0-0.7,0.3-1,1-0.9c0.9,0,1.9,0.1,2.8,0
		c1.1-0.1,1.5,0.4,1.4,1.4C42.9,7.5,42.9,7.9,42.9,8.5z"/>
	<path class="st0" d="M79.4,24.5c-1.7,1.7-3.5,2.6-5.8,2.8c-6.1,0.3-7.3-5.4-5.8-9c1-2.4,3-3.5,5.4-4c1.5-0.3,3-0.5,4.5-0.6
		c0.6,0,0.9-0.2,0.9-1c0-2.1-0.5-3-2.1-3.3c-1.6-0.3-2.9,0.4-3.6,2.2c-0.3,0.6-0.6,0.9-1.3,0.8c-0.9-0.2-1.8-0.3-2.6-0.3
		c-1.1-0.1-1.3-0.6-1-1.6c0.7-2.3,2.2-3.8,4.4-4.6c2.3-0.8,4.7-0.9,7-0.3c3,0.7,4.5,2.6,4.6,5.7c0.1,2.6,0.1,5.3,0,8
		c0,1.4,0.2,2.7,1.2,3.8c0.6,0.7,0.6,1.3-0.2,1.9c-0.5,0.4-1,0.8-1.5,1.3c-1.6,1.4-1.9,1.4-3.3-0.3C80,25.4,79.7,25,79.4,24.5z
		 M78.6,18.3c0-1.8,0-1.8-1.8-1.5c-0.4,0.1-0.7,0.1-1,0.2c-2,0.6-2.9,1.8-2.8,3.8c0.1,1.1,0.4,2,1.5,2.4c1.1,0.4,2,0,2.8-0.8
		C78.3,21.2,78.6,19.8,78.6,18.3z"/>
	<path class="st0" d="M28.6,24.5c-1.6,1.7-3.5,2.7-5.9,2.7c-2.5,0-4.5-0.7-5.6-3.1c-1.1-2.4-0.6-5.7,1.1-7.6
		c1.2-1.3,2.6-1.9,4.2-2.3c1.1-0.2,2.3-0.4,3.4-0.5c2.1-0.2,2.1-0.2,2-2c-0.1-1.6-1.2-2.6-2.7-2.4c-1.4,0.1-2.5,0.7-2.9,2.1
		c-0.2,0.7-0.6,1-1.4,0.8c-0.8-0.2-1.7-0.2-2.5-0.3c-1.3,0-1.4-0.7-1.1-1.8c0.7-2.2,2.2-3.7,4.4-4.5c2.4-0.8,4.9-0.9,7.3-0.2
		c2.8,0.8,4.3,2.8,4.4,5.7c0.1,2.7,0,5.3,0,8c0,1.3,0.3,2.6,1.1,3.6c0.7,0.8,0.6,1.4-0.3,2.1c-0.7,0.5-1.3,1-1.9,1.6
		c-0.8,0.8-1.4,0.7-2.1-0.1C29.7,25.8,29.2,25.2,28.6,24.5z M27.9,18.3c-0.2-0.4,0.5-1.3-0.4-1.6c-1.3-0.5-4.2,0.9-4.8,2.1
		c-0.8,1.5-0.4,3.6,0.9,4.2c1.4,0.7,3,0,3.8-1.8C27.8,20.3,27.9,19.4,27.9,18.3z"/>
	<path class="st0" d="M130.7,8.7c0.4-0.1,0.4-0.4,0.5-0.7c1.4-2.3,3.2-3.1,5.8-2.6c2.3,0.4,3.7,1.8,4.2,4.3c0.4,1.8,0.2,3.5,0.3,5.3
		c0,3.5,0,7,0,10.5c0,1.2-0.4,1.6-1.5,1.5c-0.9-0.1-1.8-0.1-2.7,0c-0.9,0.1-1.2-0.3-1.2-1.2c0-3.8,0-7.7,0-11.5
		c0-0.8-0.1-1.5-0.3-2.2c-0.3-0.9-0.8-1.6-1.8-1.7c-1-0.1-1.8,0.3-2.3,1.2c-0.6,1.1-0.8,2.2-0.8,3.4c0,3.5,0,7,0,10.5
		c0,1.2-0.3,1.6-1.6,1.6c-3.8-0.1-3.8,0-3.8-3.8c0-5.3,0-10.7,0-16c0-1.1,0.3-1.6,1.4-1.4c0.1,0,0.2,0,0.3,0
		C130.4,5.7,130.4,5.7,130.7,8.7z"/>
	<path class="st0" d="M105.1,16.2c0.1-2.2,0.4-4.4,1.4-6.4c1.5-3,4-4.6,7.3-4.6c3.3,0,5.9,1.5,7.4,4.5c2,4.1,2.1,8.3,0.3,12.5
		c-1.5,3.4-4.8,5.4-8.1,5.1c-4-0.4-6.7-2.8-7.8-7C105.3,19,105.1,17.6,105.1,16.2z M117,16.5c0-1.5-0.1-3.1-0.5-4.6
		c-0.4-1.8-1.1-2.4-2.5-2.5c-1.4,0-2.4,0.7-2.7,2.4c-0.7,3.1-0.7,6.2,0.2,9.3c0.3,1.2,1,2.2,2.5,2.2c1.4,0,2.1-1,2.5-2.2
		C116.9,19.5,117,18,117,16.5z"/>
	<path class="st0" d="M67.3,42.9c-12.1-0.2-22.5-3.8-31.6-11.3c-0.3-0.3-0.6-0.5-0.9-0.8c-0.4-0.4-1.1-0.8-0.6-1.4
		c0.4-0.6,1,0,1.4,0.2c6.9,3.8,14.2,6.3,21.9,7.6c11.9,1.9,23.4,0.5,34.6-3.9c0.2-0.1,0.4-0.2,0.6-0.3c0.7-0.2,1.4-0.4,1.7,0.4
		c0.3,0.7-0.2,1.1-0.7,1.5c-5.5,3.9-11.7,6.1-18.3,7.3C72.6,42.7,69.7,42.9,67.3,42.9z"/>
	<path class="st0" d="M96,10c-2.2,0-4.2,0-6.1,0c-0.8,0-1.2-0.2-1.2-1.1c0.1-4-0.5-3.1,3.1-3.2c3.2,0,6.5,0,9.7,0
		c1.2,0,1.5,0.4,1.5,1.5c0.1,1.5-0.4,2.7-1.3,3.9c-1.9,2.6-3.8,5.3-5.6,8c-0.2,0.2-0.4,0.4-0.4,0.9c2.1,0,4.1,0.3,6,1.1
		c1.2,0.5,1.7,1.2,1.7,2.5c-0.1,3.1,0,3-2.8,2.1c-3.8-1.3-7.5-1.2-11.1,0.5c-1.2,0.6-1.4,0.4-1.5-0.9c-0.2-2.5,0.4-4.6,2-6.6
		C92.1,15.9,93.9,13,96,10z"/>
	<path class="st0" d="M93.5,30.5c-1.5,0.1-3,0.3-4.5,0.4c-0.4,0-0.9,0.3-1.1-0.2c-0.2-0.5,0.2-0.7,0.5-0.9c3.4-2,7.1-2.4,10.9-1.4
		c0.7,0.2,1,0.7,1,1.4c-0.1,3.9-1.3,7.3-4.2,10c-0.3,0.3-0.6,0.6-1,0.3c-0.5-0.3-0.1-0.7,0.1-1.1c0.7-1.9,1.5-3.7,1.8-5.7
		c0.4-2.1,0-2.5-2.1-2.8C94.4,30.5,94,30.6,93.5,30.5C93.5,30.5,93.5,30.5,93.5,30.5z"/>
</g>
</svg>
