<?xml version="1.0" encoding="utf-8"?>
<!-- Generator: Adobe Illustrator 27.1.1, SVG Export Plug-In . SVG Version: 6.00 Build 0)  -->
<svg version="1.1" id="Layer_1" xmlns="http://www.w3.org/2000/svg" xmlns:xlink="http://www.w3.org/1999/xlink" x="0px" y="0px"
	 viewBox="0 0 158 48" style="enable-background:new 0 0 158 48;" xml:space="preserve">
<style type="text/css">
	.st0{fill:#FFFFFF;}
</style>
<path class="st0" d="M38,0.6v20.7h10.8c4.3,0,8.2-1.5,8.2-5.9c0-3-2.1-4.3-4.5-5C54,9.8,55.6,8.6,55.6,6c0-3.2-3.2-5.4-7.6-5.4H38z
	 M44.6,5.4h2.4c1,0,1.8,0.8,1.8,1.6c0,0.7-0.8,1.5-1.8,1.5h-2.4V5.4z M44.6,12.8h3.2c1.1,0,2.1,0.9,2.1,1.8c0,1-0.9,1.9-2.3,1.9h-3
	V12.8z"/>
<path class="st0" d="M43.4,23.6v20.7h10.8c4.3,0,8.2-1.5,8.2-5.9c0-3-2.1-4.3-4.5-5c1.4-0.6,3.1-1.8,3.1-4.3c0-3.2-3.2-5.4-7.6-5.4
	H43.4z M50,28.4h2.4c1,0,1.8,0.8,1.8,1.6c0,0.7-0.8,1.5-1.8,1.5H50V28.4z M50,35.8h3.2c1.1,0,2.1,0.9,2.1,1.8c0,1-0.9,1.9-2.3,1.9
	h-3V35.8z"/>
<path class="st0" d="M57.6,21.3V0.6h16.7v5H64.2v2.7h8.2V13h-8.2v3.3h10.1v5H57.6z"/>
<path class="st0" d="M83.3,21.9c4.7,0,8.5-2.7,8.5-7c0-7-9.1-5.9-9.1-8.1c0-0.8,0.9-1.3,1.8-1.3c1.6,0,2.7,1,2.7,1L91,2.8
	C89.5,1.3,87,0,83.7,0c-5,0-8.3,3-8.3,6.6c0,7.1,9,6.1,9,8.3c0,0.8-0.8,1.6-2.1,1.6c-1.5,0-2.8-0.9-3.7-1.7l-3.9,3.8
	C76.2,20,78.7,21.9,83.3,21.9z"/>
<path class="st0" d="M96.9,21.3V5.6h-5.5v-5H109v5h-5.5v15.7H96.9z"/>
<path class="st0" d="M62.6,23.6h6.6V36c0,1.3,1.3,2.4,2.6,2.4c1.2,0,2.5-1,2.5-2.5V23.6h6.6v12.3c0,4.9-4,8.7-9.2,8.7
	c-5.2,0-9-4.2-9-9V23.6z"/>
<path class="st0" d="M89,44.3v-7.4l-7.8-13.3H88l4.4,7.1l4.4-7.1h6.7L95.7,37v7.3H89z"/>
<path class="st0" d="M103.5,34.9l-3.9,3.9v5.3l3.9,3.9H120V34.9H103.5z M102,42.3c-0.5,0-0.9-0.4-0.9-0.9c0-0.5,0.4-0.9,0.9-0.9
	c0.5,0,0.9,0.4,0.9,0.9C102.8,41.9,102.5,42.3,102,42.3z"/>
</svg>
