<?xml version="1.0" encoding="utf-8"?>
<!-- Generator: Adobe Illustrator 27.1.1, SVG Export Plug-In . SVG Version: 6.00 Build 0)  -->
<svg version="1.1" id="Layer_1" xmlns="http://www.w3.org/2000/svg" xmlns:xlink="http://www.w3.org/1999/xlink" x="0px" y="0px"
	 viewBox="0 0 193 54" style="enable-background:new 0 0 193 54;" xml:space="preserve">
<style type="text/css">
	.st0{fill-rule:evenodd;clip-rule:evenodd;}
</style>
<g id="How-It-Works-_x28_Alec_x29_">
	<g id="Artboard">
		<g id="Brand-_x2F_-Images-_x2F_-Logo-full" transform="translate(-12.000000, -4.000000)">
			<g id="Brand-_x2F_-Images--_x2F_-Logo">
				<g id="BTM-Logo" transform="translate(12.000000, 11.000000)">
					<path id="Fill-1" class="st0" d="M7.2,16.7c2.2,0,4-1.7,4-4.5c0-2.7-1.8-4.5-4-4.5c-2.2,0-4.1,1.8-4.1,4.5
						C3.1,14.9,5,16.7,7.2,16.7z M7.9,5c3.3,0,6.5,2.6,6.5,7.2c0,4.6-3.2,7.2-6.5,7.2c-2.3,0-3.7-1.2-4.7-2.4v2.2H0V0h3.2v7.6
						C4.2,6.2,5.7,5,7.9,5z"/>
					<path id="Fill-3" class="st0" d="M20.8,19.2h-3.2V5.3h3.2v3.1c0.9-2.1,2.5-3.5,4.9-3.4v3.4h-0.2c-2.8,0-4.7,1.8-4.7,5.5V19.2z"
						/>
					<path id="Fill-5" class="st0" d="M37.5,11.3c-0.2-2-1.4-3.7-3.5-3.7c-1.9,0-3.3,1.5-3.6,3.7H37.5z M34.4,16.9
						c1.6,0,2.7-0.6,3.8-1.7l1.9,1.7c-1.3,1.6-3.1,2.6-5.7,2.6c-4,0-7.1-2.9-7.1-7.2c0-4,2.8-7.3,6.8-7.3c4.4,0,6.7,3.5,6.7,7.5
						c0,0.3,0,0.6-0.1,0.9H30.4C30.8,15.6,32.4,16.9,34.4,16.9L34.4,16.9z"/>
					<path id="Fill-7" class="st0" d="M52.5,13.3c-0.8-0.3-1.9-0.6-3.2-0.6c-2,0-3.2,0.8-3.2,2.2V15c0,1.3,1.2,2,2.7,2
						c2.1,0,3.7-1.2,3.7-2.9V13.3z M52.4,19.2v-1.7c-0.9,1.1-2.4,2-4.5,2c-2.6,0-4.9-1.5-4.9-4.3v-0.1c0-3,2.4-4.5,5.6-4.5
						c1.7,0,2.8,0.2,3.8,0.6v-0.3c0-1.9-1.2-3-3.4-3c-1.6,0-2.7,0.3-4,0.9l-0.9-2.5c1.5-0.7,3-1.2,5.3-1.2c4.1,0,6.1,2.2,6.1,5.9
						v8.2H52.4z"/>
					<polygon id="Fill-9" class="st0" points="72.3,19.2 68.6,19.2 64.5,13.2 62.5,15.2 62.5,19.2 59.3,19.2 59.3,0 62.5,0 
						62.5,11.5 68.3,5.3 72.1,5.3 66.6,11 					"/>
					<path id="Fill-11" class="st0" d="M78.2,14.8c0,1.2,0.6,1.7,1.7,1.7c0.7,0,1.3-0.2,2-0.5v2.6c-0.8,0.4-1.7,0.7-2.9,0.7
						c-2.3,0-4-1-4-4.1V8h-1.8V5.3H75V1.5h3.2v3.8H82V8h-3.7V14.8z"/>
					<polygon id="Fill-13" class="st0" points="85.4,19.2 88.5,19.2 88.5,5.3 85.4,5.3 					"/>
					<path id="Fill-15" class="st0" d="M108.9,5c3,0,4.9,1.9,4.9,5.3v8.9h-3.2v-7.9c0-2.2-1-3.4-2.8-3.4c-1.7,0-3,1.2-3,3.4v7.8
						h-3.2v-7.9c0-2.2-1.1-3.4-2.8-3.4c-1.8,0-3,1.3-3,3.5v7.8h-3.2V5.3h3.2v2.1C96.8,6.2,98,5,100.1,5c2,0,3.4,1,4.1,2.4
						C105.4,6,106.8,5,108.9,5"/>
					<path id="Fill-16" class="st0" d="M127.2,11.3c-0.2-2-1.4-3.7-3.5-3.7c-1.9,0-3.3,1.5-3.6,3.7H127.2z M124.1,16.9
						c1.6,0,2.7-0.6,3.8-1.7l1.9,1.7c-1.3,1.6-3.1,2.6-5.7,2.6c-4,0-7.1-2.9-7.1-7.2c0-4,2.8-7.3,6.8-7.3c4.4,0,6.7,3.5,6.7,7.5
						c0,0.3,0,0.6-0.1,0.9h-10.2C120.5,15.6,122,16.9,124.1,16.9L124.1,16.9z"/>
					<polygon id="Fill-17" class="st0" points="89.9,32.6 89.9,26.6 87.3,30.5 87.2,30.5 84.7,26.6 84.7,32.6 82.7,32.6 82.7,23.4 
						84.9,23.4 87.3,27.3 89.7,23.4 91.9,23.4 91.9,32.6 					"/>
					<polygon id="Fill-18" class="st0" points="95.1,32.6 95.1,23.4 102.1,23.4 102.1,25.2 97.2,25.2 97.2,27.1 101.5,27.1 
						101.5,28.9 97.2,28.9 97.2,30.8 102.1,30.8 102.1,32.6 					"/>
					<path id="Fill-19" class="st0" d="M111.6,28c0-1.6-1.1-2.8-2.8-2.8h-1.6v5.5h1.6C110.5,30.8,111.6,29.7,111.6,28L111.6,28z
						 M108.8,32.6h-3.6v-9.2h3.6c2.9,0,4.9,2,4.9,4.6v0C113.7,30.6,111.7,32.6,108.8,32.6L108.8,32.6z"/>
					<polygon id="Fill-20" class="st0" points="116.4,32.6 118.4,32.6 118.4,23.4 116.4,23.4 					"/>
					<path id="Fill-21" class="st0" d="M125.5,25.8l-1.2,3h2.4L125.5,25.8z M128.3,32.6l-0.8-2.1h-3.9l-0.8,2.1h-2.1l3.9-9.2h1.9
						l3.9,9.2H128.3z"/>
					<polygon id="Fill-22" class="st0" points="132.7,5.9 131.7,5.9 131.7,5.3 134.3,5.3 134.3,5.9 133.4,5.9 133.4,8.4 132.7,8.4 
											"/>
					<polygon id="Fill-23" class="st0" points="134.8,5.3 135.6,5.3 136.4,6.6 137.2,5.3 138,5.3 138,8.4 137.3,8.4 137.3,6.4 
						136.4,7.7 136.4,7.7 135.5,6.4 135.5,8.4 134.8,8.4 					"/>
				</g>
			</g>
			<g id="B-logo" transform="translate(157.000000, 4.000000)">
				<g id="Group-2">
					<path id="Combined-Shape" class="st0" d="M24,54C10.7,54,0,43.3,0,30S10.7,6,24,6s24,10.7,24,24S37.3,54,24,54z M24,46
						c8.8,0,16-7.2,16-16s-7.2-16-16-16S8,21.2,8,30S15.2,46,24,46z"/>
					<path id="Rectangle-11" class="st0" d="M17,22h5c0.6,0,1,0.4,1,1v15c0,0.6-0.4,1-1,1h-5c-0.6,0-1-0.4-1-1V23
						C16,22.4,16.4,22,17,22z"/>
					<path id="Rectangle-11_00000051355556052120138240000006202132490181004442_" class="st0" d="M1,0h5c0.6,0,1,0.4,1,1v30
						c0,0.6-0.4,1-1,1H1c-0.6,0-1-0.4-1-1V1C0,0.4,0.4,0,1,0z"/>
					<path id="Rectangle-11-Copy" class="st0" d="M27,22h5c0.6,0,1,0.4,1,1v15c0,0.6-0.4,1-1,1h-5c-0.6,0-1-0.4-1-1V23
						C26,22.4,26.4,22,27,22z"/>
				</g>
			</g>
		</g>
	</g>
</g>
</svg>
