<svg xmlns:xlink="http://www.w3.org/1999/xlink" width="122" height="37" viewBox="0 0 122 37" fill="none" xmlns="http://www.w3.org/2000/svg"><path d="M14.196 25.114c-.725.429-1.677.642-2.857.641-1.954 0-3.402-.673-4.343-2.02-.941-1.345-1.411-3.294-1.41-5.846 0-2.923.42-5.05 1.26-6.381.84-1.331 2.025-1.998 3.553-2a1.62 1.62 0 0 1 .884.208c.208.138.37.418.47.85.05.395.05.795 0 1.19-.052.47-.065.944-.037 1.416.037.758.314 1.485.79 2.076a2.212 2.212 0 0 0 1.767.793 2.351 2.351 0 0 0 1.663-.585 2.113 2.113 0 0 0 .64-1.643 4.19 4.19 0 0 0-.79-2.397 5.634 5.634 0 0 0-2.287-1.88c-1.003-.477-2.232-.716-3.686-.718a10.565 10.565 0 0 0-4.906 1.153 8.924 8.924 0 0 0-3.572 3.322C.445 14.743 0 16.486 0 18.523c0 2.065.407 3.805 1.222 5.221a8.218 8.218 0 0 0 3.308 3.247 9.703 9.703 0 0 0 4.645 1.115c1.78 0 3.32-.403 4.624-1.209a7.215 7.215 0 0 0 2.896-3.437l-.376-.303a7.777 7.777 0 0 1-2.107 1.928M35.703 25.868c-1.052 0-1.578-.566-1.578-1.698v-8.352c0-2.469-.609-4.25-1.826-5.344-1.217-1.094-2.94-1.642-5.168-1.643a13.312 13.312 0 0 0-3.836.528 6.664 6.664 0 0 0-2.838 1.587 3.503 3.503 0 0 0-1.073 2.606 2.122 2.122 0 0 0 .64 1.622 2.254 2.254 0 0 0 1.616.606 2.33 2.33 0 0 0 1.767-.756c.476-.502.739-1.295.79-2.378l.075-.418c.1-.956.326-1.63.678-2.021a1.826 1.826 0 0 1 1.428-.585c.878 0 1.523.348 1.936 1.044.413.696.62 1.898.623 3.606v2.984c-.553.1-1.079.197-1.58.284-.5.088-.952.17-1.353.245-2.582.503-4.475 1.253-5.678 2.246-1.203.994-1.805 2.084-1.805 3.268 0 1.56.496 2.755 1.487 3.588.991.832 2.213 1.25 3.665 1.253 1.248 0 2.27-.284 3.065-.85a15.789 15.789 0 0 0 2.312-2.06 3.61 3.61 0 0 0 1.26 2.06c.639.515 1.51.773 2.613.773 1.027 0 1.823-.164 2.387-.491a5.527 5.527 0 0 0 1.561-1.397l-.339-.303-.83-.004Zm-6.768-1.51a10.23 10.23 0 0 1-1.561 1.115 2.9 2.9 0 0 1-1.41.357 2.267 2.267 0 0 1-1.73-.772c-.475-.515-.713-1.29-.713-2.325 0-1.206.347-2.17 1.04-2.887a5.74 5.74 0 0 1 2.763-1.531c.327-.05.624-.1.865-.15l.753-.15-.007 6.343ZM49.917 8.837a11.856 11.856 0 0 0-3.139.417c-.971.259-1.901.653-2.763 1.172l-.339-1.172-.376-.378-6.391 2.195v.378l.526.113c.5.1.846.29 1.04.566.214.38.313.816.282 1.252v20.546c0 .956-.464 1.56-1.39 1.812l-.452.15v.379h9.138v-.378l-.716-.188c-.902-.254-1.353-.88-1.353-1.88V27.29c1.353.579 3.016.868 4.99.868 2.532 0 4.494-.868 5.885-2.606 1.392-1.737 2.085-4.116 2.08-7.137 0-3.072-.633-5.433-1.899-7.08-1.265-1.65-2.976-2.474-5.133-2.475l.01-.023Zm.235 16.262c-.74 1.31-1.736 1.964-2.99 1.963a7.826 7.826 0 0 1-3.083-.604v-15.22c1.129-.603 2.156-.905 3.084-.906 1.329 0 2.344.61 3.046 1.831.7 1.221 1.051 3.355 1.051 6.402 0 3.046-.369 5.224-1.108 6.534ZM69.318 26.04a2.487 2.487 0 0 1-1.39.396 1.864 1.864 0 0 1-1.485-.68c-.39-.455-.584-1.122-.584-2.001V10.159h4.25V9.4H65.9l.114-5.287h-.376L62.555 7.55a8.155 8.155 0 0 1-1.663 1.321 7.1 7.1 0 0 1-2.01.756l-.905.15v.379h2.595v12.915c0 1.762.444 3.046 1.334 3.852.89.806 2.137 1.21 3.743 1.21a6.326 6.326 0 0 0 3.195-.756 5.572 5.572 0 0 0 2.069-2.04l-.376-.379c-.354.41-.758.773-1.204 1.078M76.575 6.874a3.011 3.011 0 0 0 2.142-.812 2.9 2.9 0 0 0 .64-3.19 2.9 2.9 0 0 0-.64-.947 3.05 3.05 0 0 0-2.142-.791 3.11 3.11 0 0 0-2.162.791 2.854 2.854 0 0 0-.883 2.069 2.864 2.864 0 0 0 .883 2.068 3.076 3.076 0 0 0 2.162.812ZM79.564 26.398a2.279 2.279 0 0 1-.281-1.208V14.62l.112-5.362-.376-.378-6.882 2.228v.38l.528.113c.5.102.847.284 1.04.547.212.359.31.774.283 1.19V25.16c.019.422-.079.84-.283 1.21a1.746 1.746 0 0 1-1.04.678l-.528.15v.37h8.799v-.378l-.374-.113a1.731 1.731 0 0 1-.998-.679ZM101.556 9.38V9h-5.454v.378l.94.228c.501.15.802.39.904.716.102.326.048.743-.151 1.253L94.11 22.036 90.16 11.5c-.376-1.056-.076-1.71.902-1.962l.675-.153V9H82v.378l.528.152a2.816 2.816 0 0 1 1.805 1.698l6.653 16.052h2.18l5.527-15.937c.128-.425.354-.813.659-1.134.316-.28.697-.474 1.108-.566l1.096-.263Z" fill="#10334D"></path><path d="M120.772 16.753a10.18 10.18 0 0 0-2.734-2.756 8.558 8.558 0 0 0 1.515-2.418l-.428-.343a9.371 9.371 0 0 1-2.031 1.957l-.05.033-.119.059a4.937 4.937 0 0 1-1.827.614c-.261.036-.526.04-.788.012-5.786 0-6.162-5.519-6.162-5.519-.121-2.26.208-3.831.711-4.93a4.525 4.525 0 0 1 1.268-1.67c1.484-1.19 4.337-1.128 5.636.315.416.466.086 2.266.075 2.892-.029 1.508.913 2.796 2.495 2.796a2.28 2.28 0 0 0 1.611-.57 2.057 2.057 0 0 0 .624-1.6c0-2.144-1.755-3.858-3.514-4.7-3.212-1.535-7.584-1.107-10.451.892a7.504 7.504 0 0 0-1.836 1.816c-1.391 1.972-1.543 4.784-.646 6.979.896 2.195 2.829 3.759 4.883 4.826-1.6.618-3.067 1.54-4.322 2.714-1.171 1.114-1.757 2.404-1.757 3.872 0 2.036.799 3.648 2.397 4.836 1.598 1.187 3.91 1.782 6.936 1.785 2.969 0 5.338-.702 7.108-2.107 2.955-2.345 3.429-6.659 1.402-9.789l.004.004Zm-5.046 9.635c-.743.931-1.828 1.397-3.254 1.397-1.54 0-2.767-.574-3.682-1.72-.915-1.148-1.371-2.638-1.368-4.472-.011-.799.046-1.597.171-2.386.106-.623.323-1.22.642-1.765a8.299 8.299 0 0 1 1.412-1.697c.137.08.28.15.428.208a25.367 25.367 0 0 1 4.089 2.193c.985.696 1.678 1.406 2.08 2.13.407.765.612 1.622.594 2.489 0 1.49-.371 2.702-1.114 3.633" fill="#1C6E83"></path></svg>