<svg xmlns:xlink="http://www.w3.org/1999/xlink" class="image" fill="currentColor" viewBox="0 0 626 117" xmlns="http://www.w3.org/2000/svg" width="626"  height="117" ><path d="M412.821 115.91h-19.496V4.97h19.496v110.94Zm32.632-67.49v67.52h-19.708V4.91l68.819 67.645V4.91h19.711v111.144l-68.822-67.634Zm-272-25.156h-31.261l-6.735-18.71h95.702l-6.728 18.71h-31.264v92.617h-19.714V23.264Zm-120.71 92.791C22.862 113.229 0 88.921 0 58.17 0 25.439 25.904 0 58.594 0c13.74 0 27.291 4.576 38.367 14.234L87.9 34.908c-6.953-9.796-17.32-15.325-29.307-15.325-19.654 0-37.387 16.885-37.387 38.587S38.94 96.768 58.594 96.768c.666 0 1.34-.015 2.01-.045l-7.86 19.332Zm.132.022c-.039-.022-.077-.022-.132-.022l.132.022Zm330.753-.196h-76.287V5.023h19.71v93.01h56.577v17.848ZM251.612 48.474l-27.421 67.398h-20.96L252.375 4.493l47.377 111.266h-21.067l-8.404-20.778h-23.334l6.582-15.805h10.53l-12.447-30.702Zm-135.989.038L88.196 115.91H67.245l49.13-111.363 47.38 111.272h-21.063l-8.401-20.793h-23.332l6.577-15.798h10.532l-12.445-30.716Zm454.153.424-27.277 67.028H521.66L570.519 5.212l45.526 110.66h-20.946l-6.748-20.679h-23.21l6.535-15.715h10.479l-12.379-30.542Zm30.909-32.512c0-3.37 1.224-6.272 3.642-8.696 2.349-2.379 5.26-3.576 8.634-3.576 3.415 0 6.279 1.197 8.658 3.576 2.417 2.424 3.621 5.325 3.621 8.696 0 3.37-1.204 6.265-3.621 8.663-2.379 2.423-5.243 3.608-8.658 3.608-3.374 0-6.285-1.185-8.634-3.608-2.418-2.398-3.642-5.292-3.642-8.663Zm22.579 0c0-2.833-1.045-5.28-3.039-7.257-2-1.992-4.412-3.023-7.264-3.023-2.802 0-5.226 1.03-7.249 3.023-2.031 1.977-3.023 4.424-3.023 7.257 0 2.832.992 5.265 3.023 7.27 2.023 1.98 4.447 2.987 7.249 2.987 2.852 0 5.264-1.008 7.264-2.986 1.994-2.006 3.039-4.439 3.039-7.271Zm-6.455 7.39-3.856-6.5h-2.158v6.5h-2.188V8.688h3.862c3.656 0 5.483 1.424 5.483 4.208 0 1.932-.96 3.323-2.953 4.103l4.136 6.813h-2.326Zm-6.014-13.269v5.038c.174.038.662.038 1.385.038 1.435 0 2.365-.158 2.865-.516.468-.385.719-1.045.719-2.052 0-1.716-1.093-2.53-3.295-2.53h-.841l-.833.022Z" fill="#1B385E"></path></svg>