<?xml version="1.0" encoding="utf-8"?>
<!-- Generator: Adobe Illustrator 27.1.1, SVG Export Plug-In . SVG Version: 6.00 Build 0)  -->
<svg version="1.1" id="Layer_1" xmlns="http://www.w3.org/2000/svg" xmlns:xlink="http://www.w3.org/1999/xlink" x="0px" y="0px"
	 viewBox="0 0 158 48" style="enable-background:new 0 0 158 48;" xml:space="preserve">
<style type="text/css">
	.st0{fill:#FFFFFF;}
</style>
<path class="st0" d="M119.3,14.4c-0.2-1.9-1.7-3.4-4.3-3.2c-2.4,0.2-3.2,1.4-3.5,3.1l-1.6,12.4h-0.1l-3.4-10.6c-1-3.2-1.7-4-5-3.7
	c-3.3,0.3-3.9,1.2-4.2,4.5l-1.3,11h-0.1l-4-11.9c-0.5-1.6-1.5-2.6-3.9-2.4c-1.6,0.1-2.7,0.9-3.3,1.9c-0.1-0.5-0.3-1-0.6-1.6
	c-1.6-2.8-7.4-7.1-15.7-2.4c-2.9,1.6-5.1,3.9-6.1,6.5c-1.1-2-3.2-3.3-6.6-3.6c-2.9-0.3-5,0.7-6.7,2.8h-0.1l0.7-7.3
	c0.3-2.9-1.4-4.4-3.9-4.6C43.2,5,41.3,6.1,41,9L39,31.4c-0.3,2.9,1.4,4.4,3.9,4.6c2.5,0.2,4.4-0.9,4.6-3.8l0.7-7.6
	c0.2-2.6,1.4-4.1,3.5-3.9c2.1,0.2,3,1.6,2.8,3.9l-0.7,8.1c-0.3,2.9,1.4,4.4,3.9,4.6c2.5,0.2,4.4-0.9,4.6-3.8l0.6-7.1
	c0.1,0.3,0.3,0.5,0.4,0.8c3.9,6.9,10.3,7.3,16.2,4c4.3-2.4,6.5-4.7,7.4-6.6l3.2,7.5c1.4,3.3,2.4,3.8,5.3,3.5c3.2-0.3,5-0.7,5.5-4.6
	l1.2-9.3h0.1l2.8,8.9c1.2,3.7,3,3.9,6.2,3.6c2.9-0.2,3.8-0.9,4.6-4.4l2.7-11.7C119.2,16.5,119.3,15.5,119.3,14.4z M71.2,15.5
	c1.9-1,4-1,5.5,1.6l-7,3.9C68.3,18.4,69.5,16.5,71.2,15.5z M83.3,20.4c-2.3,1.3-2.6,4.5-5.3,6c-2.4,1.4-4.7,0.6-6.2-1.7l10.6-6
	c0.9-0.5,1.5-1,1.9-1.6c0,0.1,0,0.1,0,0.2c0.1,0.9,0.3,1.6,0.8,2.8C84.5,20.1,83.8,20.1,83.3,20.4z M137.5,13.3
	c-2.2-0.3-3.4,0.9-4.7,4.3l-3.9,10l-0.1,0l-1.5-12.4c-0.2-2.2-1.3-3.4-3.2-3.7c-2.4-0.3-4.4,1-4.6,3.1c-0.1,0.7,0,2,0.7,5l2.8,13.5
	c0.2,0.7,0.2,1.3,0.2,1.7c-0.1,0.6-0.6,1-2.3,0.7c-1.9-0.3-3.3,0.2-3.6,2.2c-0.3,2.2,1.2,3.8,4.5,4.2c3.5,0.5,7.4-0.3,10-5.4
	l6.9-13.8c1.4-2.7,2.2-4.6,2.4-5.3C141.3,15.1,139.5,13.6,137.5,13.3z M39.2,27.1c-0.3-1.5-1.7-2.9-3.7-2.5c-2.3,0.4-3,3.7-5.9,4.2
	c-2.9,0.6-4.4-2-4.9-4.8c-0.4-2.3-0.2-5.3,3.2-5.9c3-0.6,4.5,2.2,6.6,1.8c1.7-0.3,2.8-1.7,2.4-3.7c-0.6-2.9-5-5-10.9-3.9
	c-6.7,1.3-11.3,5.7-9.9,13.5c1.5,7.8,7.4,10.2,14.1,9C37.9,33.3,39.5,28.8,39.2,27.1z"/>
</svg>
