<?xml version="1.0" encoding="utf-8"?>
<!-- Generator: Adobe Illustrator 27.1.1, SVG Export Plug-In . SVG Version: 6.00 Build 0)  -->
<svg version="1.1" id="Layer_1" xmlns="http://www.w3.org/2000/svg" xmlns:xlink="http://www.w3.org/1999/xlink" x="0px" y="0px"
	 viewBox="0 0 158 48" style="enable-background:new 0 0 158 48;" xml:space="preserve">
<style type="text/css">
	.st0{fill:#FFFFFF;}
</style>
<g>
	<path class="st0" d="M35.9,21c-1,0-1.6,0.8-1.6,2.8c0,2,0.6,2.8,1.6,2.8c1,0,1.6-0.8,1.6-2.8C37.5,21.8,36.9,21,35.9,21z"/>
	<path class="st0" d="M68.2,21h-0.7v2.8h1.1c1,0,1.4-0.4,1.4-1.4c0-0.5-0.1-0.8-0.3-1C69.4,21.1,68.9,21,68.2,21z"/>
	<path class="st0" d="M59.4,21.4L59.4,21.4c0,0.3-0.2,0.8-0.3,1.4L58.5,25h2l-0.7-2.2C59.6,22.3,59.5,21.8,59.4,21.4z"/>
	<path class="st0" d="M113.9,21h-0.7v2.8h1.1c1,0,1.4-0.4,1.4-1.4c0-0.5-0.1-0.8-0.3-1C115,21.1,114.6,21,113.9,21z"/>
	<path class="st0" d="M123.6,21.4L123.6,21.4c0,0.3-0.2,0.8-0.3,1.4l-0.6,2.2h2l-0.7-2.2C123.8,22.3,123.6,21.8,123.6,21.4z"/>
	<path class="st0" d="M26,21h-0.5v5.6h0.8c1.9,0,2.2-1.1,2.2-2.9C28.4,21.4,27.5,21,26,21z"/>
	<path class="st0" d="M140.7,14c-0.3-0.3-0.7-0.5-1.2-0.5c0,0-0.1,0-0.1,0c-20.1,1.2-40.6,1.8-60.7,1.8c-20.2,0-40.6-0.6-60.7-1.8
		c0,0-0.1,0-0.1,0c-0.9,0-1.7,0.7-1.7,1.7v17.3c0,0.9,0.7,1.7,1.7,1.7c0,0,0.1,0,0.1,0c20.1-1.2,40.6-1.8,60.7-1.8
		c20.2,0,40.6,0.6,60.7,1.8c0,0,0.1,0,0.1,0c0.9,0,1.7-0.7,1.7-1.7V15.2C141.2,14.7,141,14.3,140.7,14z M25.9,28.4h-3V21H22v-1.8
		l3.7,0c3.5,0,5.4,0.9,5.4,4.7C31.1,27.4,28.9,28.4,25.9,28.4z M35.9,28.5c-2.8,0-4.3-1.9-4.3-4.7c0-2.8,1.5-4.7,4.3-4.7
		c2.8,0,4.3,1.9,4.3,4.7C40.2,26.6,38.7,28.5,35.9,28.5z M47.4,28.4h-6.3v-9.1l2.5,0v7.4h3.8L47.4,28.4z M54.6,28.4h-6.3v-9.1l2.5,0
		v7.4h3.8L54.6,28.4z M61.6,28.4l-0.5-1.7h-3l-0.5,1.7H55l2.4-7.4l0.5-1.8l3,0l3.3,9.1H61.6z M73,28.2c-0.3,0.2-0.9,0.3-1.4,0.3
		c-0.6,0-1.1-0.1-1.5-0.4c-0.3-0.2-0.6-0.6-1-1.2l-1-1.6h-0.7v3H65l0-9.1h3.4c1.3,0,2.2,0.1,2.8,0.5c0.9,0.5,1.3,1.4,1.3,2.5
		c0,1.5-0.7,2.4-1.7,2.8l0.7,1.2c0.3,0.4,0.5,0.6,0.9,0.6c0.3,0,0.5-0.1,0.7-0.2L73,28.2z M85.7,28.4h-1.5l-0.3-0.5
		c-0.6,0.4-1.5,0.6-2.4,0.6c-3,0-4.1-2.1-4.1-4.7c0-3,1.6-4.7,4.4-4.7c2.1,0,3.4,1,3.8,2.8l-2.6,0.4c-0.2-0.9-0.5-1.4-1.3-1.4
		c-0.9,0-1.6,1-1.6,2.7c0,1.9,0.7,2.9,2.1,2.9c0.4,0,0.8-0.1,1.1-0.2v-1.3h-1v-1.5h3.5V28.4z M93.2,28.4h-6.3v-9.1l6.1,0V21h-3.6
		v1.8h2.9v1.8h-2.9v2h3.9L93.2,28.4z M102,28.4h-1.6L96.7,24c-0.2-0.2-0.3-0.4-0.4-0.6v5h-2.1v-9.1l1.5,0l3.7,4.4
		c0.2,0.2,0.3,0.4,0.4,0.6v-5h2.1V28.4z M109.6,28.4h-6.3v-9.1l6.1,0V21h-3.6v1.8h2.9v1.8h-2.9v2h3.9L109.6,28.4z M118.7,28.2
		c-0.3,0.2-0.9,0.3-1.4,0.3c-0.6,0-1.1-0.1-1.5-0.4c-0.3-0.2-0.6-0.6-1-1.2l-1-1.6h-0.7v3h-2.5v-9.1h3.4c1.3,0,2.2,0.1,2.8,0.5
		c0.9,0.5,1.3,1.4,1.3,2.5c0,1.5-0.7,2.4-1.7,2.8l0.7,1.2c0.3,0.4,0.5,0.6,0.9,0.6c0.3,0,0.5-0.1,0.7-0.2L118.7,28.2z M125.8,28.4
		l-0.5-1.7h-3.1l-0.5,1.7h-2.5l2.4-7.4l0.5-1.8l3,0l3.3,9.1H125.8z M135.3,28.4H129v-9.1l2.5,0v7.4h3.8L135.3,28.4z"/>
</g>
</svg>
