<svg xmlns:xlink="http://www.w3.org/1999/xlink" xmlns="http://www.w3.org/2000/svg" width="122" height="36" viewBox="0 0 122 36" fill="none">
<path d="M23.9442 7.1617L5.8392 13.1977C5.31227 13.4413 4.7387 13.5675 4.1582 13.5675C3.57769 13.5675 3.00412 13.4413 2.4772 13.1977C1.63318 12.7754 0.991471 12.0351 0.693198 11.1397C0.536592 10.7047 0.474066 10.2414 0.509749 9.78049C0.545431 9.31954 0.678512 8.87141 0.900198 8.4657C1.18875 7.95783 1.5828 7.5177 2.05579 7.17494C2.52878 6.83219 3.06973 6.59478 3.6422 6.4787L21.7502 0.440704C22.2767 0.19702 22.85 0.0708008 23.4302 0.0708008C24.0104 0.0708008 24.5837 0.19702 25.1102 0.440704C25.5284 0.649244 25.9012 0.938435 26.2072 1.29163C26.5132 1.64483 26.7464 2.05506 26.8932 2.4987C27.0504 2.93358 27.1133 3.39694 27.0776 3.85799C27.0419 4.31904 26.9085 4.76721 26.6862 5.1727C26.3891 5.6739 25.9925 6.10899 25.521 6.45122C25.0494 6.79345 24.5128 7.03558 23.9442 7.1627" fill="white"/>
<path d="M23.9442 18.3426L5.8392 24.3756C5.31227 24.6192 4.7387 24.7454 4.1582 24.7454C3.57769 24.7454 3.00412 24.6192 2.4772 24.3756C1.63358 23.9538 0.991928 23.2143 0.693198 22.3196C0.536592 21.8846 0.474066 21.4214 0.509749 20.9604C0.545431 20.4995 0.678512 20.0513 0.900198 19.6456C1.18843 19.1372 1.58233 18.6965 2.05534 18.3532C2.52835 18.0099 3.06946 17.7721 3.6422 17.6556L21.7502 11.6206C22.2767 11.377 22.85 11.2507 23.4302 11.2507C24.0104 11.2507 24.5837 11.377 25.1102 11.6206C25.5281 11.8289 25.9007 12.1176 26.2067 12.4703C26.5127 12.8229 26.746 13.2326 26.8932 13.6756C27.0504 14.1105 27.1133 14.5739 27.0776 15.0349C27.0419 15.496 26.9085 15.9441 26.6862 16.3496C26.3892 16.8509 25.9926 17.2861 25.5211 17.6283C25.0495 17.9705 24.5129 18.2126 23.9442 18.3396" fill="white"/>
<path d="M23.9441 29.5228L5.83907 35.5588C5.31226 35.8028 4.73865 35.9292 4.15807 35.9292C3.5775 35.9292 3.00389 35.8028 2.47707 35.5588C2.05906 35.3496 1.68636 35.0601 1.38026 34.7068C1.07416 34.3535 0.840651 33.9434 0.693075 33.4998C0.536553 33.065 0.47407 32.6019 0.509753 32.1411C0.545435 31.6803 0.678472 31.2324 0.900075 30.8268C1.18831 30.3184 1.58221 29.8777 2.05521 29.5344C2.52822 29.1911 3.06934 28.9532 3.64207 28.8368L21.7501 22.8008C22.2766 22.5571 22.8499 22.4309 23.4301 22.4309C24.0103 22.4309 24.5835 22.5571 25.1101 22.8008C25.5283 23.0096 25.9012 23.2989 26.2071 23.6523C26.5131 24.0057 26.7463 24.416 26.8931 24.8598C27.0502 25.2945 27.1131 25.7577 27.0774 26.2186C27.0417 26.6795 26.9083 27.1275 26.6861 27.5328C26.389 28.034 25.9925 28.4692 25.5209 28.8114C25.0493 29.1536 24.5127 29.3957 23.9441 29.5228Z" fill="white"/>
<path d="M55.2874 26.5048V28.6988H43.1494V9.42578H55.2194V11.6258H45.4124V17.5928H54.3284V19.7868H45.4124V26.4398H55.2874V26.5048Z" fill="white"/>
<path d="M77.1652 19.0968V28.6968H74.9712V19.6458C74.9712 17.5898 74.1472 16.6278 72.4332 16.6278C71.7666 16.6387 71.1099 16.7909 70.5065 17.0745C69.9032 17.3581 69.3669 17.7665 68.9332 18.2728C68.9332 18.5478 69.0022 18.8218 69.0022 19.0968V28.6968H66.8082V19.6458C66.8082 17.5898 65.9842 16.6278 64.2702 16.6278C63.6049 16.6458 62.9505 16.8012 62.3481 17.0843C61.7458 17.3674 61.2086 17.772 60.7702 18.2728V28.6998H58.5762V14.7068H60.5642V16.2168C61.0772 15.6542 61.7021 15.205 62.3988 14.8979C63.0956 14.5909 63.8488 14.4328 64.6102 14.4338C65.3442 14.3805 66.0787 14.5318 66.7319 14.8709C67.3851 15.2101 67.9314 15.7237 68.3102 16.3548C69.4872 15.1559 71.0874 14.4663 72.7672 14.4338C75.5802 14.4338 77.1572 16.2168 77.1572 19.0968" fill="white"/>
<path d="M89.99 22.1146V21.2906C89.99 18.6166 88.69 16.4906 85.944 16.4906C83.198 16.4906 81.964 18.5496 81.964 21.2906V22.1146C81.964 24.7906 83.199 26.9146 85.944 26.9146C88.689 26.9146 89.99 24.7896 89.99 22.1146ZM79.77 22.1826V21.2906C79.77 17.5196 81.895 14.4326 86.01 14.4326C90.058 14.4326 92.252 17.5186 92.252 21.2906V22.1826C92.252 25.9556 90.058 29.0426 86.01 29.0426C81.962 29.0426 79.77 25.9566 79.77 22.1826Z" fill="white"/>
<path d="M103.639 24.8548V18.4808C103.266 17.8958 102.747 17.4177 102.133 17.0931C101.52 16.7684 100.833 16.6085 100.139 16.6288C97.532 16.6288 96.366 18.6158 96.366 21.2918V22.1158C96.366 24.7898 97.601 26.7788 100.139 26.7788C100.837 26.7776 101.523 26.6011 102.134 26.2654C102.746 25.9297 103.263 25.4457 103.639 24.8578M105.833 8.60181V28.7018H103.843V27.1918C103.349 27.7596 102.737 28.2131 102.051 28.521C101.364 28.8289 100.618 28.9837 99.866 28.9748C96.095 28.9748 94.106 25.9568 94.106 22.2528V21.3618C94.106 17.5888 96.162 14.6398 99.866 14.6398C101.274 14.623 102.631 15.1662 103.639 16.1498V8.67181H105.833V8.60181Z" fill="white"/>
<path d="M119.003 22.1146V21.2906C119.003 18.6166 117.703 16.4906 114.954 16.4906C112.205 16.4906 110.977 18.5496 110.977 21.2906V22.1146C110.977 24.7906 112.212 26.9146 114.954 26.9146C117.696 26.9146 119.003 24.7896 119.003 22.1146ZM108.714 22.1826V21.2906C108.714 17.5196 110.839 14.4326 114.954 14.4326C119.003 14.4326 121.196 17.5186 121.196 21.2906V22.1826C121.196 25.9556 119.002 29.0426 114.954 29.0426C110.906 29.0426 108.714 25.9566 108.714 22.1826Z" fill="white"/>
</svg>