<?xml version="1.0" encoding="utf-8"?>
<!-- Generator: Adobe Illustrator 27.1.1, SVG Export Plug-In . SVG Version: 6.00 Build 0)  -->
<svg version="1.1" id="Layer_1" xmlns="http://www.w3.org/2000/svg" xmlns:xlink="http://www.w3.org/1999/xlink" x="0px" y="0px"
	 viewBox="0 0 74.7 25.7" style="enable-background:new 0 0 74.7 25.7;" xml:space="preserve">
<path d="M18,9c0,4.8-3.5,10.6-8.4,16.3C4.6,19.6,1.1,13.7,1.1,9c0-4.7,3.8-8.4,8.4-8.4c3.1,0,5.8,1.6,7.3,4.1l-1.6,1
	c-1.2-2-3.2-3.2-5.7-3.2c-3.6,0-6.5,3-6.5,6.6c0,4,2.7,8.7,6.5,13.5c3.5-4.3,6-8.6,6.5-12.3h-5.5v5H8.8V8.4H18V9 M71.1,16.6h-1.5v-6
	h1.5V13c0.3-0.4,0.7-0.6,1.2-0.6c0.9,0,1.5,0.7,1.5,1.7v2.6h-1.5v-2.6c0-0.4-0.3-0.6-0.6-0.6c-0.3,0-0.6,0.2-0.6,0.6V16.6z
	 M68.5,16.7c-1.3,0-1.8-0.5-1.8-1.6v-1.5H66v-1.1h0.6v-1.1h1.5v1.1H69v1.1h-0.9v1.5c0,0.3,0.2,0.5,0.5,0.5c0.1,0,0.3,0,0.4-0.1v1.2
	C68.9,16.7,68.7,16.7,68.5,16.7 M65.5,12.5v2.5c0,1.2-1,1.8-2.1,1.8c-1.1,0-2.1-0.6-2.1-1.8v-2.5h1.5V15c0,0.3,0.3,0.6,0.6,0.6
	c0.3,0,0.6-0.2,0.6-0.6v-2.5H65.5z M59.5,16.6H58v-4.2h1.4v0.7c0.2-0.5,0.5-0.8,1-0.8c0.1,0,0.2,0,0.4,0.1v1.4h0
	c-0.1-0.1-0.3-0.1-0.4-0.1c-0.4,0-0.7,0.2-0.7,0.8V16.6z M55,16.6v-4.7h-1.4v-1.3H58v1.3h-1.5v4.7H55z M50.5,15.5
	c0.5,0,0.9-0.4,0.9-1c0-0.5-0.4-1-0.9-1c-0.5,0-0.9,0.5-0.9,1C49.7,15.1,50,15.5,50.5,15.5 M51.5,15.9c-0.3,0.5-0.7,0.8-1.4,0.8
	c-1,0-1.9-0.7-1.9-2.2c0-1.4,0.9-2.1,1.9-2.1c0.6,0,1,0.2,1.3,0.6v-2.4h1.5v6h-1.4V15.9z M44.9,16.6h-1.5v-4.2h1.4v0.7
	c0.3-0.5,0.7-0.8,1.4-0.8c0.9,0,1.5,0.7,1.5,1.7v2.6h-1.5v-2.6c0-0.4-0.3-0.6-0.6-0.6c-0.3,0-0.6,0.2-0.6,0.6V16.6z M42.6,12.5v2.5
	c0,1.2-1,1.8-2.1,1.8c-1.1,0-2.1-0.6-2.1-1.8v-2.5h1.5V15c0,0.3,0.3,0.6,0.6,0.6c0.3,0,0.6-0.2,0.6-0.6v-2.5H42.6z M35.5,15.5
	c0.5,0,0.9-0.4,0.9-1c0-0.6-0.4-1-0.9-1c-0.5,0-0.9,0.4-0.9,1C34.6,15.1,35,15.5,35.5,15.5 M35.5,16.8c-1.4,0-2.3-1-2.3-2.2
	c0-1.2,1-2.2,2.3-2.2c1.4,0,2.3,1,2.3,2.2C37.8,15.7,36.9,16.8,35.5,16.8 M31.7,16.6h-1.5v-4.2h1.4v0.7c0.2-0.5,0.5-0.8,1-0.8
	c0.1,0,0.2,0,0.4,0.1v1.4h0c-0.1-0.1-0.3-0.1-0.4-0.1c-0.4,0-0.7,0.2-0.7,0.8V16.6z M29.6,13.7c0,1.7-1.2,3.1-3,3.1
	c-1.7,0-3.1-1.4-3.1-3.1c0-1.8,1.4-3.1,3.2-3.1c1.1,0,1.9,0.4,2.5,1.2L28,12.6c-0.3-0.5-0.8-0.8-1.4-0.8c-1,0-1.7,0.8-1.7,1.8
	s0.7,1.8,1.7,1.8c0.7,0,1.2-0.4,1.4-1h-1.6v-1.2h3.2V13.7"/>
</svg>
