<?xml version="1.0" encoding="utf-8"?>
<!-- Generator: Adobe Illustrator 27.1.1, SVG Export Plug-In . SVG Version: 6.00 Build 0)  -->
<svg version="1.1" id="Layer_1" xmlns="http://www.w3.org/2000/svg" xmlns:xlink="http://www.w3.org/1999/xlink" x="0px" y="0px"
	 viewBox="0 0 158 48" style="enable-background:new 0 0 158 48;" xml:space="preserve">
<style type="text/css">
	.st0{fill:#FFFFFF;}
	.st1{fill:#F26B21;}
	.st2{fill:#F96302;}
</style>
<g>
	<path class="st0" d="M55.2,0h48v48h-48V0z"/>
	<path class="st1" d="M85.3,0c2.4,0,4.8,0,7.3,0c-0.7,0.7-1.4,1.4-2,2c0.3,0.3,0.5,0.5,0.8,0.8C92,2.4,92.7,2.1,93.4,2
		c0.7-0.1,1.4,0.1,2,0.4c0.2,0.1,0.5,0.3,0.7,0.3c0.3,0,0.5-0.2,0.5-0.5c0.1-0.2,0-0.4-0.1-0.5C96,1.2,95.4,0.6,94.8,0
		c2.8,0,5.6,0,8.4,0c0,2.7,0,5.4,0,8.2c-0.6-0.6-1.1-1.1-1.7-1.7c-0.2-0.2-0.4-0.2-0.6-0.1c-0.1,0.1-0.3,0.2-0.3,0.3
		c-0.1,0.3,0.1,0.6,0.2,0.8c0.4,0.7,0.5,1.6,0.4,2.4c-0.1,0.6-0.3,1.1-0.6,1.6c-0.1,0.1-0.2,0.2-0.2,0.4c0.3,0.3,0.5,0.6,0.8,0.8
		c0.7-0.7,1.4-1.4,2-2c0,4.6,0,9.1,0,13.7c-0.1,0-0.3,0.1-0.4,0.1c-0.2-0.1-0.3-0.3-0.5-0.4c-1.6-1.6-3.3-3.3-4.9-4.9
		c-0.7,0.7-1.3,1.3-2,1.9c0.3,0.4,0.7,0.7,1.1,1.1c1.3,1.3,2.6,2.6,3.9,3.9c0.1,0.1,0.2,0.2,0.3,0.4c0,0.2-0.1,0.3-0.1,0.5
		c-0.1,0.2,0.1,0.4,0.3,0.4c0.2,0,0.3-0.1,0.4-0.2c0.6-0.6,1.2-1.2,1.8-1.8V48H80.4c0.6-0.6,1.2-1.2,1.8-1.7c-2-2-4-4-6-6
		c-0.6,0.6-1.3,1.3-1.9,1.9c-0.1,0.1-0.3,0.3-0.4,0.5c0,0.2,0.1,0.4,0.3,0.4c0.2,0,0.3-0.1,0.5-0.2c0.1,0,0.3,0.1,0.4,0.2
		c1.2,1.2,2.4,2.4,3.5,3.6c0.3,0.3,0.6,0.6,0.9,0.9c0.1,0.1,0,0.3,0,0.5H65.8l3.2-3.2c0.2-0.2,0.4-0.4,0.4-0.7
		c0-0.3-0.3-0.7-0.6-0.6c-0.3,0.1-0.5,0.3-0.8,0.3c-0.2,0-0.3-0.2-0.5-0.3c-2.6-2.6-5.1-5.1-7.7-7.7c-0.2-0.2-0.4-0.3-0.4-0.6
		c0-0.3,0.2-0.5,0.3-0.8c0.1-0.3-0.2-0.7-0.6-0.7c-0.2,0-0.4,0.2-0.6,0.3c-1.1,1.1-2.2,2.2-3.3,3.4c0-12.5,0-24.9,0-37.4"/>
	<path class="st0" d="M89.8,2.8c0-0.1,0.1-0.1,0.2,0c3.5,3.5,7,7,10.5,10.5c-1.2,1.2-2.5,2.5-3.7,3.7c-0.2,0.2-0.4,0.3-0.6,0.3
		c-0.3,0-0.6-0.3-0.6-0.6c0-0.3,0.3-0.5,0.3-0.9c0-0.2-0.1-0.3-0.3-0.5c-2.6-2.6-5.2-5.2-7.8-7.8c-0.1-0.1-0.3-0.3-0.5-0.3
		c-0.3,0-0.6,0.3-0.9,0.3c-0.2,0-0.3-0.1-0.4-0.3c-0.1-0.3,0-0.6,0.2-0.8C87.4,5.2,88.6,4,89.8,2.8 M94.9,3.8
		c0.1-0.2,0.3-0.4,0.5-0.3c0.3,0,0.4,0.2,0.6,0.4c1,1,2,2,3,3c0.2,0.2,0.4,0.4,0.5,0.6c0,0.3-0.2,0.5-0.5,0.6
		c-0.2,0-0.4-0.1-0.6-0.2c-0.4-0.3-0.9-0.5-1.4-0.4c-0.3,0-0.5,0.1-0.8,0.2c-0.3-0.3-0.6-0.6-0.9-0.9c0.1-0.2,0.2-0.4,0.2-0.7
		c0-0.5-0.2-1.1-0.5-1.5C94.9,4.3,94.8,4.1,94.9,3.8 M72.7,6.5c0.5-0.6,1.1-1.1,1.7-1.7c0.5,0.5,1,1,1.5,1.5c0.2,0.2,0,0.4-0.2,0.5
		c-0.2,0-0.3-0.1-0.4-0.1c-0.5-0.3-1.2-0.3-1.8,0c-0.1,0.1-0.3,0.2-0.4,0.2C72.9,6.7,72.8,6.6,72.7,6.5 M72.3,6.8
		c0.7,0.7,1.5,1.5,2.2,2.2c1.1,1.1,2.3,2.3,3.4,3.4c-0.7,0.7-1.3,1.3-2,2c-0.1,0.2-0.4,0.2-0.5,0c-0.2-0.2,0-0.4,0.1-0.6
		c0.1-0.1,0-0.2-0.1-0.3c-1.3-1.3-2.6-2.6-4-4c-0.1-0.1-0.2-0.2-0.4-0.3c-0.2,0-0.4,0.1-0.6,0.1c-0.2,0-0.3-0.2-0.3-0.3
		c0-0.1,0.1-0.2,0.2-0.3C71,8.1,71.7,7.4,72.3,6.8 M74.9,7.6c-0.1-0.2,0.1-0.4,0.2-0.4c0.1,0,0.2,0.1,0.3,0.2
		C76,7.9,76.6,8.5,77.1,9c0.1,0.1,0.2,0.2,0.2,0.4c0,0.2-0.1,0.3-0.3,0.3c-0.2,0-0.4-0.2-0.6-0.2c-0.3-0.1-0.6-0.1-0.9,0
		c-0.1-0.1-0.3-0.3-0.4-0.4c0.1-0.2,0.1-0.5,0.1-0.7C75.2,8,75,7.8,74.9,7.6 M84.6,8c0.1-0.1,0.3-0.2,0.5-0.3
		c0.3-0.1,0.7,0.3,0.6,0.6c0,0.3-0.3,0.5-0.3,0.9c0.1,0.2,0.2,0.4,0.4,0.5c2.6,2.6,5.2,5.1,7.7,7.7c0.1,0.1,0.3,0.3,0.5,0.3
		c0.3,0,0.5-0.2,0.8-0.3c0.3-0.1,0.7,0.3,0.6,0.6c0,0.2-0.2,0.4-0.3,0.6c-1.3,1.3-2.6,2.6-3.9,3.9c-0.2,0.2-0.4,0.3-0.6,0.3
		c-0.3,0-0.5-0.2-0.6-0.5c0-0.4,0.3-0.6,0.3-1c0-0.2-0.1-0.3-0.2-0.4c-2.3-2.3-4.5-4.5-6.8-6.8c1.9,3.5,3.8,6.9,5.6,10.4
		c0,0.1,0.1,0.1,0.1,0.2c-0.1,0.1-0.3,0.3-0.4,0.4c-3.7-1.8-7.5-3.7-11.2-5.6c-0.6-0.3-1.2-0.6-1.8-0.7c-0.2,0-0.4,0.2-0.5,0.3
		c-0.2,0.1-0.4,0.2-0.6,0.1c-0.2-0.1-0.4-0.4-0.3-0.7c0.1-0.2,0.2-0.3,0.3-0.5c1.2-1.2,2.4-2.4,3.6-3.6c1.9,0.9,3.8,1.8,5.7,2.7
		c0.1,0,0.1,0.1,0.2,0.2c0,0,0.1-0.1,0.1-0.1l-0.1,0c-1-1.9-2-3.8-3-5.6C82.1,10.5,83.4,9.2,84.6,8 M78,8.8c0.1-0.2,0.3-0.2,0.5,0
		c0.5,0.5,1,1,1.5,1.5c-0.6,0.6-1.2,1.2-1.7,1.7c-0.1-0.2-0.3-0.3-0.4-0.4c0.2-0.3,0.3-0.6,0.4-0.9c0.1-0.5,0-0.9-0.2-1.4
		C78,9.2,77.9,9,78,8.8 M69.5,9.6c0.1-0.1,0.2-0.2,0.4-0.3c0.1,0,0.3,0.1,0.3,0.2c0,0.2-0.1,0.3-0.1,0.5c0,0.1,0.1,0.2,0.2,0.3
		c1.3,1.3,2.7,2.7,4,4c0.1,0.1,0.2,0.2,0.3,0.2c0.2,0,0.3-0.1,0.5-0.2c0.2,0,0.4,0.2,0.3,0.4c0,0.1-0.1,0.2-0.2,0.3
		c-0.7,0.7-1.3,1.3-2,2c-0.1,0.1-0.3,0.2-0.4,0.2c-0.1,0-0.2-0.1-0.2-0.2c-0.1-0.2,0.2-0.4,0.1-0.6c-0.1-0.1-0.1-0.2-0.2-0.2
		c-0.6-0.6-1.2-1.2-1.8-1.8c-0.2,0.2-0.4,0.4-0.7,0.7c-0.2-0.1-0.3-0.3-0.4-0.4c0.2-0.2,0.4-0.4,0.7-0.7c-0.5-0.5-1.1-1.1-1.6-1.6
		c-0.1-0.1-0.2-0.2-0.4-0.3c-0.2-0.1-0.5,0.3-0.7,0.1c-0.2-0.1-0.1-0.4,0-0.5C68.2,10.9,68.9,10.3,69.5,9.6"/>
	<path class="st0" d="M66.9,12.2c0.2-0.1,0.4,0,0.4,0.1c0.1,0.2-0.1,0.4-0.1,0.6c0,0.1,0.1,0.2,0.1,0.3c1.4,1.4,2.8,2.8,4.2,4.2
		c0.3,0.3,0.6-0.2,0.8,0c0.2,0.1,0.1,0.4,0,0.5c-0.7,0.7-1.3,1.3-2,2c-0.1,0.1-0.2,0.2-0.4,0.3c-0.2,0-0.4-0.1-0.4-0.2
		c0-0.2,0.2-0.4,0.1-0.6c0-0.1-0.1-0.2-0.1-0.2c-1.3-1.3-2.6-2.6-4-4c-0.1-0.1-0.2-0.3-0.4-0.3c-0.2,0-0.3,0.1-0.5,0.1
		c-0.2,0-0.3-0.1-0.3-0.3c0-0.2,0.1-0.3,0.2-0.4c0.7-0.7,1.3-1.3,2-2C66.8,12.3,66.9,12.3,66.9,12.2 M63.3,15.8
		c0.3-0.3,0.6-0.6,0.9-0.9c0.5,0.5,1,1,1.6,1.6c0.1,0.1,0.2,0.2,0.3,0.3c0.1,0.2-0.2,0.5-0.5,0.4c-0.2-0.1-0.4-0.3-0.7-0.4
		c-0.4-0.2-0.9-0.4-1.3-0.3c-0.1-0.1-0.3-0.3-0.4-0.4C63.2,15.9,63.2,15.9,63.3,15.8 M61.1,18c0.6-0.6,1.1-1.1,1.7-1.7
		c1.1,1.1,2.1,2.1,3.2,3.2c0.6,0.6,1.2,1.2,1.7,1.7c0.2,0.2,0.4,0,0.6,0c0.2-0.1,0.4,0.1,0.4,0.3c0,0.1-0.1,0.2-0.2,0.3
		c-0.7,0.7-1.4,1.4-2,2c-0.1,0.1-0.2,0.2-0.4,0.2c-0.2,0-0.3-0.1-0.3-0.3c0-0.2,0.1-0.3,0.1-0.5c0-0.1-0.1-0.2-0.2-0.3
		c-1.6-1.6-3.2-3.2-4.8-4.8C61,18.1,61,18.1,61.1,18 M98.9,17.5c0.6,0.6,1.2,1.2,1.9,1.9c0.2,0.2,0.1,0.6-0.2,0.6
		c-0.2,0-0.4-0.2-0.6-0.3c-0.5-0.3-1.1-0.7-1.7-0.6c-0.2-0.2-0.3-0.3-0.5-0.5C98.2,18.3,98.5,17.9,98.9,17.5 M60.6,18.5
		c0.2,0.1,0.3,0.3,0.5,0.4c-0.1,0.6,0.2,1.1,0.5,1.6c0.1,0.1,0.2,0.3,0.3,0.4c0.1,0.2-0.2,0.5-0.4,0.4c-0.1,0-0.2-0.1-0.3-0.2
		c-0.5-0.6-1.1-1.1-1.7-1.7C59.9,19.2,60.2,18.9,60.6,18.5 M71.8,21.4c1-0.3,2.1-0.4,3.1-0.1c1.8,0.4,3.3,1.4,4.5,2.7
		c1.2,1.2,2.2,2.8,2.5,4.5c0.2,0.9,0.1,1.9-0.1,2.9c-0.3,0.9-0.8,1.8-1.4,2.5c-0.3-0.3-0.5-0.5-0.8-0.8c0-0.1,0.1-0.3,0.1-0.4
		c0.1-0.4,0-0.9-0.3-1.3c-2.5-2.5-5-5-7.5-7.5c-0.2-0.2-0.5-0.4-0.8-0.4c-0.3,0-0.5,0.1-0.8,0.2c-0.1,0.1-0.2-0.1-0.2-0.1
		c-0.2-0.2-0.4-0.4-0.6-0.6c0,0,0,0,0-0.1C70.2,22.1,71,21.7,71.8,21.4 M78.6,21.1c0.2,0.1,0.4,0.2,0.7,0.3c0.8,0.4,1.6,0.8,2.4,1.2
		c0.1,0,0.1,0.1,0.2,0.1c0.7,0.7,1.4,1.4,2.1,2.1c0.4,0.4,0.8,0.7,1.4,0.9c0.4,0.1,0.8,0.1,1.1,0c0.2-0.1,0.4-0.1,0.6-0.1
		c0.2,0.1,0.3,0.3,0.3,0.5c0,0.3-0.2,0.5-0.4,0.7c-0.6,0.6-1.2,1.2-1.9,1.9c-0.2,0.2-0.4,0.3-0.6,0.3c-0.3,0.1-0.7-0.3-0.6-0.6
		c0.1-0.3,0.2-0.7,0.2-1c-0.1-0.6-0.4-1.1-0.8-1.5c-1.4-1.4-2.7-2.7-4.1-4.1C79,21.5,78.8,21.3,78.6,21.1 M94,22.5
		c0.4-0.4,0.8-0.8,1.1-1.1c0.2,0.1,0.3,0.3,0.5,0.4c-0.1,0.5,0.1,1,0.4,1.4c0.1,0.2,0.3,0.4,0.5,0.7c0.1,0.1,0,0.3,0,0.4
		c0.6,0.4,1.2,1,1.6,1.6c0.5,0.7,0.9,1.6,0.8,2.5c0,0.9-0.4,1.7-0.9,2.3c-0.1-0.2-0.3-0.3-0.4-0.5c0-0.2,0.1-0.4,0.1-0.6
		c-0.1-0.2-0.2-0.4-0.4-0.6c-1.3-1.3-2.7-2.7-4-4c-0.1-0.1-0.3-0.3-0.5-0.3c-0.2,0-0.4,0-0.5,0.1c-0.2-0.1-0.3-0.3-0.5-0.5
		c0.7-0.6,1.5-0.9,2.4-0.9c0.3,0,0.7,0.1,1,0.1C94.8,23.3,94.4,22.9,94,22.5 M67.6,25.4c0.3-0.8,0.7-1.5,1.2-2.1
		c0.3,0.3,0.5,0.5,0.8,0.8c0.1,0.2-0.1,0.3-0.1,0.5c-0.1,0.4,0,0.9,0.4,1.2c2.4,2.5,4.9,4.9,7.4,7.4c0.2,0.3,0.5,0.5,0.9,0.6
		c0.3,0.1,0.6-0.1,0.9-0.2c0.3,0.3,0.5,0.5,0.8,0.8c-0.6,0.5-1.3,0.9-2,1.2c-1.1,0.4-2.3,0.5-3.5,0.2c-1.8-0.4-3.3-1.5-4.6-2.7
		c-1.1-1.2-2.1-2.7-2.4-4.3C67.1,27.6,67.2,26.5,67.6,25.4 M90.5,26.9c0.1-0.8,0.4-1.5,0.9-2.1c0.1,0.2,0.3,0.3,0.5,0.5
		c-0.1,0.2-0.1,0.4-0.1,0.6c0,0.2,0.1,0.3,0.3,0.4c1.3,1.3,2.7,2.7,4,4c0.2,0.2,0.3,0.3,0.5,0.4c0.2,0.1,0.4,0,0.6-0.1
		c0.2,0.2,0.3,0.3,0.5,0.5c-0.6,0.5-1.4,0.9-2.3,0.9c-0.8,0-1.6-0.3-2.3-0.7c-0.5-0.3-0.9-0.7-1.3-1.1c0.2,0.6,0.1,1.3-0.1,1.8
		c-0.3,0.5-0.7,1-1.1,1.4c-0.2-0.2-0.3-0.3-0.5-0.5c0.1-0.2,0.2-0.5,0.1-0.7c-0.1-0.3-0.3-0.4-0.5-0.6c-0.4-0.4-0.8-0.8-1.1-1.1
		c-0.2-0.2-0.5-0.4-0.8-0.5c-0.2,0-0.4,0.1-0.5,0.2c-0.2-0.2-0.3-0.3-0.5-0.5c0.6-0.6,1.3-1.2,2.2-1.4c0.7-0.1,1.5,0.2,2,0.7
		C90.6,28.3,90.4,27.6,90.5,26.9 M63.9,28.6c0.2-0.1,0.3-0.3,0.6-0.3c0.3,0,0.7,0.3,0.6,0.7c-0.1,0.3-0.3,0.5-0.3,0.8
		c0,0.2,0.2,0.4,0.4,0.6l7.8,7.8c0.1,0.1,0.3,0.2,0.4,0.2c0.3,0,0.5-0.2,0.8-0.3c0.3-0.1,0.7,0.2,0.7,0.6c0,0.2-0.1,0.4-0.3,0.6
		l-3.9,3.9c-0.2,0.2-0.4,0.3-0.6,0.3c-0.3,0-0.6-0.3-0.6-0.6c0-0.3,0.3-0.5,0.3-0.9c0-0.2-0.2-0.3-0.3-0.5c-1.2-1.2-2.3-2.3-3.5-3.5
		c0,0-0.1-0.1-0.2-0.1c-0.4,0.4-0.8,0.8-1.2,1.2c-0.3-0.3-0.5-0.5-0.8-0.8c0.4-0.4,0.8-0.8,1.2-1.2c0,0,0-0.1,0-0.1
		c-1.1-1.1-2.2-2.2-3.3-3.2c-0.2-0.2-0.3-0.4-0.6-0.4c-0.3,0-0.6,0.2-0.9,0.3c-0.4,0.1-0.7-0.4-0.6-0.7c0.1-0.3,0.3-0.4,0.4-0.6
		C61.4,31.2,62.7,29.9,63.9,28.6 M86.4,30c0.6,0.6,1.2,1.2,1.8,1.7c1.1,1.1,2.3,2.3,3.4,3.4c0.1,0.1,0.2,0.2,0.3,0.2
		c0.2,0,0.4-0.2,0.6-0.2c0.1,0,0.3,0.2,0.2,0.3c0,0.2-0.2,0.3-0.3,0.5c-0.7,0.7-1.4,1.4-2.1,2.1c-0.2,0.2-0.4,0.1-0.5-0.1
		c-0.1-0.2,0.2-0.5,0-0.7c-1.5-1.5-2.9-2.9-4.4-4.4c-0.1-0.1-0.2-0.2-0.3-0.3c-0.2-0.1-0.4,0.1-0.6,0.1c-0.2,0-0.3-0.2-0.3-0.3
		c0-0.2,0.1-0.3,0.2-0.4C85.1,31.3,85.8,30.7,86.4,30 M81.9,34.5c0.6-0.6,1.2-1.2,1.8-1.8c0.5,0.5,1.1,1.1,1.6,1.6
		c0.2,0.2,0,0.4-0.2,0.5c-0.1,0-0.3-0.1-0.4-0.1c-0.5-0.2-1-0.3-1.5-0.2c-0.3,0.1-0.6,0.2-0.9,0.4C82.2,34.8,82.1,34.6,81.9,34.5
		 M79.5,37c0.7-0.7,1.4-1.4,2.1-2.1c1.1,1.1,2.2,2.2,3.4,3.4c0.9,0.9,1.7,1.7,2.6,2.6c-0.7,0.7-1.4,1.4-2,2.1
		c-0.1,0.1-0.2,0.2-0.4,0.2c-0.1,0-0.3-0.1-0.3-0.2c-0.1-0.2,0.2-0.4,0.1-0.7c-0.1-0.2-0.3-0.3-0.4-0.5L80.9,38
		c-0.2-0.2-0.4-0.4-0.7-0.6c-0.3-0.1-0.5,0.3-0.7,0.1C79.3,37.4,79.3,37.1,79.5,37 M84.4,35.7c-0.1-0.2,0.1-0.4,0.3-0.4
		c0.1,0,0.2,0.1,0.2,0.2c0.5,0.5,1.1,1.1,1.6,1.6c0.2,0.2,0.4,0.3,0.5,0.6c-0.1,0.1-0.1,0.3-0.3,0.3c-0.2,0-0.4-0.2-0.7-0.3
		c-0.3-0.2-0.7-0.2-1,0c-0.2-0.2-0.3-0.3-0.5-0.5c0.1-0.2,0.2-0.5,0.1-0.8C84.6,36.2,84.5,35.9,84.4,35.7 M87.6,37
		c0.1-0.2,0.4-0.2,0.5,0c0.5,0.5,1.1,1.1,1.6,1.6c-0.6,0.6-1.2,1.2-1.8,1.8c-0.1-0.2-0.3-0.3-0.5-0.5c0.5-0.7,0.6-1.6,0.3-2.4
		C87.6,37.4,87.5,37.2,87.6,37"/>
	<path class="st2" d="M55.2,39c0.2-0.1,0.4-0.2,0.6-0.2c0.3,0.1,0.4,0.3,0.6,0.5c2.5,2.5,5.1,5.1,7.6,7.6c0.1,0.2,0.3,0.3,0.3,0.5
		c0,0.2-0.1,0.4-0.2,0.6c-3,0-6,0-9,0C55.2,45,55.2,42,55.2,39"/>
	<path class="st0" d="M78.7,38.9c0.9-0.1,1.8,0.2,2.5,0.7c0.6,0.4,1.1,0.8,1.5,1.4c0.5,0.7,0.8,1.5,0.8,2.3c0,0.9-0.4,1.9-1,2.6
		c-0.2-0.2-0.3-0.3-0.5-0.5c0.1-0.2,0.2-0.4,0.2-0.6c-0.1-0.3-0.3-0.5-0.5-0.8l-3.4-3.4c-0.2-0.2-0.5-0.5-0.8-0.5
		c-0.2,0-0.4,0.1-0.5,0.2c-0.1-0.2-0.3-0.3-0.4-0.5C77.1,39.3,77.9,38.9,78.7,38.9L78.7,38.9z"/>
</g>
<path class="st1" d="M103.2,8.2v2.4V8.2z"/>
<path class="st1" d="M103.2,24.3l0,0.9L103.2,24.3z"/>
</svg>
