<?xml version="1.0" encoding="utf-8"?>
<!-- Generator: Adobe Illustrator 27.1.1, SVG Export Plug-In . SVG Version: 6.00 Build 0)  -->
<svg version="1.1" id="Layer_1" xmlns="http://www.w3.org/2000/svg" xmlns:xlink="http://www.w3.org/1999/xlink" x="0px" y="0px"
	 viewBox="0 0 158 48" style="enable-background:new 0 0 158 48;" xml:space="preserve">
<style type="text/css">
	.st0{fill:#FFFFFF;}
</style>
<path class="st0" d="M64.6,24.7L63,24.5c-1.1-0.1-1.5-0.5-1.5-1.1c0-0.8,0.7-1.3,2-1.3c1.2,0,1.8,0.5,1.9,1.4h3.9
	c-0.2-2.5-2-4.3-5.7-4.3c-3.8,0-5.9,2-5.9,4.5c0,2.4,1.3,3.7,4.6,4l1.6,0.1c1.3,0.1,1.7,0.5,1.7,1.3c0,0.8-0.7,1.4-2,1.4
	c-1.3,0-2-0.6-2.2-1.6h-4.1c0.4,2.8,2.3,4.6,6.3,4.6c3.8,0,6-2,6-4.6C69.5,26.3,68.1,25,64.6,24.7z M51.1,19.1
	c-2.5,0-3.9,1.3-4.6,3.9h-0.2v-3.7h-3.9v13.9h4.1v-8.1c0-1.9,1-2.9,2.7-2.9c1.7,0,2.5,1.1,2.5,2.9v8.1h4.1v-8.9
	C55.9,21.1,54.1,19.1,51.1,19.1L51.1,19.1z M38.4,13.9c-1.4,0-2.5,0.9-2.5,2.3c0,1.4,1,2.3,2.4,2.3s2.4-0.9,2.4-2.3
	C40.8,14.9,39.8,13.9,38.4,13.9z M40.5,19.4h-4.1v13.9h4.1V19.4z M75.9,16.4h-2.6c-0.1,2.2-1,3.2-3.2,3.4v2.8h1.7v6.1
	c0,3.1,1.8,4.8,5.3,4.8c0.7,0,1.3-0.1,2-0.2V30C78.7,30,78.4,30,78,30c-1.5,0-2.1-0.6-2.1-2.1v-5.3h3.6v-3.3h-3.6
	C75.9,19.4,75.9,16.4,75.9,16.4z M141.2,22.6v-3.3h-3.6v-2.9H135c-0.1,1.6-0.5,2.5-1.5,2.9v9.4c0,3.1,1.8,4.8,5.3,4.8
	c0.7,0,1.3-0.1,2-0.2V30c-0.3,0.1-0.7,0.1-1,0.1c-1.5,0-2.1-0.6-2.1-2.1v-5.3H141.2L141.2,22.6z M127.8,23.2h-0.2v-3.9h-3.8v13.9
	h4.1v-7.5c0-2.1,0.9-3,3.1-3c0.4,0,0.8,0,1.3,0.1v-3.6c-0.4-0.1-0.8-0.2-1.2-0.2C129.4,19.1,128.2,20.1,127.8,23.2L127.8,23.2z
	 M101.5,30c-1.9,0-3.3-1.3-3.3-3.8c0-2.2,1.3-3.6,3.3-3.6c1.7,0,2.7,1,3,2.5h4.2c-0.4-3.6-3-6-7.1-6c-4.5,0-7.5,3.1-7.5,7.3
	c0,4.3,2.9,7.1,7.4,7.1c4.2,0,6.9-2.3,7.2-6.1h-4.2C104.3,29,103.2,30,101.5,30z M86.7,19.1c-3.6,0-5.7,1.8-6.1,4.9h3.9
	c0.1-1.1,0.8-1.7,2.1-1.7c1.3,0,1.8,0.6,1.8,1.4c0,0.7-0.4,1.1-1.6,1.3L85,25.4c-3.3,0.6-4.6,2-4.6,4.1c0,2.5,1.7,4,4.2,4
	c2,0,3.3-0.9,3.8-3.2h0.2v3h3.9v-9.1C92.6,21,90.7,19.1,86.7,19.1z M86.2,30.7c-1.1,0-1.7-0.6-1.7-1.5c0-0.7,0.4-1.2,1.5-1.5
	l0.8-0.2c0.7-0.2,1.2-0.4,1.6-0.8v1.5C88.4,30,87.5,30.7,86.2,30.7z M116,19.1c-3.6,0-5.7,1.8-6.1,4.9h3.9c0.1-1.1,0.8-1.7,2.1-1.7
	c1.3,0,1.8,0.6,1.8,1.4c0,0.7-0.4,1.1-1.6,1.3l-1.9,0.3c-3.3,0.6-4.6,2-4.6,4.1c0,2.5,1.7,4,4.2,4c2,0,3.3-0.9,3.8-3.2h0.2v3h3.9
	v-9.1C121.8,21,119.9,19.1,116,19.1z M115.5,30.7c-1.1,0-1.7-0.6-1.7-1.5c0-0.7,0.4-1.2,1.5-1.5l0.8-0.2c0.7-0.2,1.2-0.4,1.6-0.8
	v1.5C117.7,30,116.8,30.7,115.5,30.7z"/>
<path class="st0" d="M29.4,17.3c-0.8,0-1.4,0.4-2,1.2l-1.6,2.3v-6.6H22v6.6l-1.6-2.3c-0.6-0.8-1.2-1.2-2-1.2c-1.3,0-2.1,0.9-2.1,2.1
	c0,1,0.5,1.6,1.5,2.3l6.2,4l6.2-4c1-0.6,1.5-1.3,1.5-2.3C31.6,18.2,30.7,17.3,29.4,17.3z"/>
<path class="st0" d="M23.9,26.6c3.7,0,6.7,2.8,6.7,6.7H17.2C17.2,29.4,20.2,26.6,23.9,26.6z"/>
</svg>
