<?xml version="1.0" encoding="utf-8"?>
<!-- Generator: Adobe Illustrator 27.1.1, SVG Export Plug-In . SVG Version: 6.00 Build 0)  -->
<svg version="1.1" id="Layer_1" xmlns="http://www.w3.org/2000/svg" xmlns:xlink="http://www.w3.org/1999/xlink" x="0px" y="0px"
	 viewBox="0 0 158 48" style="enable-background:new 0 0 158 48;" xml:space="preserve">
<style type="text/css">
	.st0{fill:#FFFFFF;}
</style>
<g>
	<g>
		<path class="st0" d="M80.7,20.2V18h-4v13.4h4.1V24c0.7-1.6,1.9-2.3,3.5-2.3c0.5,0,1,0,1.4,0.1V18c-0.4-0.1-0.8-0.2-1.3-0.2
			C83.1,17.8,81.9,18.6,80.7,20.2"/>
		<path class="st0" d="M91.8,27c-0.5-0.6-0.8-1.5-0.8-2.3c0-0.8,0.3-1.7,0.8-2.3c0.3-0.3,0.6-0.5,0.9-0.7c0.3-0.2,0.7-0.3,1.1-0.3
			c0.4,0,0.8,0,1.1,0.2c0.4,0.1,0.7,0.3,1,0.6c0.1,0.1,0.1,0.1,0.2,0.2c0.5,0.6,0.8,1.5,0.8,2.3s-0.3,1.7-0.8,2.3
			c-0.3,0.3-0.6,0.5-0.9,0.7c-0.3,0.2-0.7,0.3-1.1,0.3c-0.4,0-0.8,0-1.1-0.2c-0.4-0.1-0.7-0.3-1-0.6C91.9,27.1,91.8,27.1,91.8,27
			 M98.8,29.7c1.3-1.3,2-3,2-4.9c0-0.9-0.1-1.8-0.5-2.7c-0.3-0.8-0.8-1.6-1.5-2.3c-1.3-1.3-3-2-4.9-2c-1.8,0-3.6,0.7-4.9,2
			c-1.3,1.3-2,3.1-2,4.9s0.7,3.6,2,4.9c1.3,1.3,3,2,4.9,2C95.8,31.6,97.5,30.9,98.8,29.7"/>
		<path class="st0" d="M121.7,23.4c0.1-0.7,0.5-1.3,1-1.7c0.5-0.4,1.1-0.6,1.7-0.6c0.3,0,0.6,0.1,0.9,0.2c0.3,0.1,0.5,0.3,0.7,0.5
			c0.5,0.4,0.8,1,0.9,1.6L121.7,23.4z M124.5,17.8c-0.9,0-1.8,0.1-2.6,0.5c-0.8,0.3-1.6,0.8-2.2,1.5c-1.3,1.3-2,3-2,5
			c0,2,0.6,3.7,1.9,5c1.3,1.3,2.9,1.9,4.9,1.9c1.4,0,2.5-0.3,3.5-0.8c1-0.5,1.9-1.3,2.7-2.1l-2.9-1.6c-0.7,0.7-1.7,1-3,1
			c-1.8,0-2.8-0.8-3.1-2.3h9.2c0-0.1,0-0.2,0-0.3c0-0.1,0-0.3,0-0.4c0-0.1,0-0.2,0-0.3c0-2-0.6-3.6-1.8-5
			C127.9,18.5,126.4,17.8,124.5,17.8"/>
		<path class="st0" d="M140.4,17.8c-1.4,0-2.6,0.8-3.8,2.4V18h-4v13.4h4.1V24c0.7-1.6,1.9-2.3,3.5-2.3c0.5,0,1,0,1.4,0.1V18
			C141.3,17.8,140.8,17.8,140.4,17.8"/>
		<path class="st0" d="M72.9,15.5c0.1-0.5,0.1-0.9,0.1-1.4c-0.1-2.5,0.9-5,2.6-6.8c1.7-1.8,4.1-2.9,6.7-2.9c2.5-0.1,5,0.9,6.8,2.6
			c1.8,1.7,2.9,4.1,2.9,6.7c0,0.1,0,0.3,0,0.4h3.8c0-3.5-1.4-6.9-3.9-9.4c-2.5-2.5-5.8-3.9-9.4-3.9c-3.5,0-6.9,1.3-9.4,3.8
			c-2.5,2.5-4,5.8-4,9.3c0,0.4,0,0.8-0.1,1.1c-0.2,1.4-0.7,3.3-2.1,4.9c-1.1,1.3-2.6,2.1-4.5,2.6v-8.9h-4.3v17.8h4.3v-5
			c1.3-0.2,2.5-0.6,3.7-1.1l3.9,6.1h5.1l-5.7-8.5c0.1-0.1,0.3-0.3,0.4-0.5C71.9,20.1,72.6,17.4,72.9,15.5"/>
		<path class="st0" d="M111.3,26.8c-0.6,0.6-1.3,0.9-2.1,0.9c-0.8,0-1.6-0.3-2.1-0.9l-0.1-0.1c-0.5-0.6-0.8-1.4-0.8-2.3
			c0-0.8,0.3-1.6,0.8-2.3c0.6-0.6,1.3-0.9,2.1-0.9s1.6,0.3,2.1,0.9l0.1,0.1c0.5,0.6,0.8,1.4,0.8,2.3
			C112.2,25.4,111.9,26.2,111.3,26.8 M116,35.3V18h-3.9v1.1c-0.4-0.5-1-0.8-1.6-1.1c-0.6-0.2-1.2-0.4-1.9-0.3
			c-1.7,0-3.2,0.6-4.5,1.9c-1.3,1.3-1.9,2.9-1.9,4.8c0,1.9,0.6,3.5,1.9,4.8c1.3,1.3,2.8,1.9,4.4,1.9c1.3,0,2.5-0.4,3.5-1.1v5.3
			c0,2.2-0.9,4.2-2.4,5.8c-1.5,1.5-3.6,2.4-5.8,2.4s-4.2-0.9-5.8-2.4c-1.5-1.5-2.4-3.6-2.4-5.8H92c0,3.1,1.3,6.1,3.5,8.3
			c2.2,2.2,5.2,3.5,8.3,3.5c3.1,0,6.2-1.1,8.4-3.3c2.3-2.2,3.6-5.1,3.7-8.2V35.3z"/>
		<path class="st0" d="M117.3,41.5h0.2c0.2,0,0.3-0.1,0.3-0.2c0-0.1-0.1-0.2-0.3-0.2c-0.1,0-0.1,0-0.2,0L117.3,41.5z M117.3,42.3
			H117v-1.4c0.2,0,0.4,0,0.5,0c0.2,0,0.3,0,0.5,0.1c0,0,0.1,0.1,0.1,0.1c0,0.1,0,0.1,0,0.2c0,0.1,0,0.2-0.1,0.2
			c-0.1,0.1-0.1,0.1-0.2,0.1v0c0.1,0,0.1,0.1,0.2,0.1c0,0.1,0.1,0.1,0.1,0.2c0,0.1,0,0.2,0.1,0.3h-0.3c-0.1-0.1-0.1-0.2-0.1-0.3
			c0-0.2-0.1-0.2-0.3-0.2h-0.2V42.3z M116.4,41.6c0,0.1,0,0.3,0.1,0.4c0,0.1,0.1,0.3,0.2,0.4c0.1,0.1,0.2,0.2,0.3,0.2
			c0.1,0.1,0.3,0.1,0.4,0.1h0c0.1,0,0.3,0,0.4-0.1c0.1-0.1,0.2-0.1,0.3-0.2c0.1-0.1,0.2-0.2,0.2-0.3c0.1-0.1,0.1-0.3,0.1-0.4v0
			c0-0.3-0.1-0.6-0.3-0.8c-0.2-0.2-0.5-0.3-0.8-0.3c-0.3,0-0.6,0.1-0.8,0.3C116.5,41,116.4,41.3,116.4,41.6 M118.9,41.6
			c0,0.3-0.1,0.6-0.2,0.8c-0.2,0.2-0.4,0.4-0.6,0.5c-0.3,0.1-0.5,0.2-0.8,0.1c-0.3,0-0.5-0.2-0.7-0.4c-0.2-0.2-0.3-0.4-0.4-0.7
			c-0.1-0.3,0-0.6,0.1-0.8c0.1-0.3,0.3-0.5,0.5-0.7c0.2-0.2,0.5-0.3,0.8-0.3h0c0.4,0,0.7,0.1,1,0.4
			C118.7,40.8,118.9,41.2,118.9,41.6L118.9,41.6z"/>
		<path class="st0" d="M30,29.4c0,0.4-0.1,0.9-0.4,1.3c-0.3,0.4-0.6,0.7-1,0.8c-0.4,0.2-0.9,0.2-1.3,0.1c-0.4-0.1-0.8-0.3-1.2-0.6
			c-0.3-0.3-0.5-0.7-0.6-1.2c-0.1-0.4,0-0.9,0.1-1.3c0.2-0.4,0.5-0.8,0.8-1c0.4-0.2,0.8-0.4,1.3-0.4c0.3,0,0.6,0.1,0.9,0.2
			c0.3,0.1,0.5,0.3,0.7,0.5c0.2,0.2,0.4,0.5,0.5,0.7C29.9,28.8,30,29.1,30,29.4z"/>
		<path class="st0" d="M46.5,31.7c1.3,0,2.3-1,2.3-2.3c0-1.3-1-2.3-2.3-2.3c-1.3,0-2.3,1-2.3,2.3C44.2,30.7,45.3,31.7,46.5,31.7z"/>
		<path class="st0" d="M27.6,14.3c0-0.1,0-0.1,0-0.2c0-0.1,0.1-0.1,0.1-0.2c0-0.1,0.1-0.1,0.2-0.1c0.1,0,0.1,0,0.2,0h6.2
			c0.1,0,0.2,0,0.3,0.1c0.1,0,0.1,0.1,0.2,0.2c0,0.1,0.1,0.2,0.1,0.3c0,0.1,0,0.2-0.1,0.3l-3.2,5.6c0,0.1-0.1,0.1-0.1,0.2
			c-0.1,0-0.1,0.1-0.2,0.1c-0.1,0-0.1,0-0.2,0c-0.1,0-0.1,0-0.2-0.1c0,0-0.1,0-0.1-0.1c-1.7-1.5-2.8-3.5-3.1-5.7
			C27.6,14.5,27.6,14.4,27.6,14.3z M37.6,22.4c-1.5,0.1-3-0.1-4.4-0.7c-0.1,0-0.1-0.1-0.2-0.1c-0.1-0.1-0.1-0.1-0.1-0.2
			c0-0.1,0-0.1,0-0.2c0-0.1,0-0.1,0.1-0.2l3.7-6.4c0-0.1,0.1-0.1,0.2-0.2c0.1,0,0.2-0.1,0.3-0.1c0.1,0,0.2,0,0.3,0.1
			s0.1,0.1,0.2,0.2l3.6,6.2c0,0.1,0.1,0.1,0.1,0.2c0,0.1,0,0.1,0,0.2c0,0.1-0.1,0.1-0.1,0.2c0,0.1-0.1,0.1-0.2,0.1
			C39.8,22,38.7,22.3,37.6,22.4z M43.8,19.1c-0.2,0.3-0.5,0.5-0.7,0.8C43,19.9,42.9,20,42.9,20c-0.1,0-0.2,0-0.2,0
			c-0.1,0-0.2,0-0.2-0.1c-0.1,0-0.1-0.1-0.2-0.2l-3-5.2c0-0.1-0.1-0.2-0.1-0.3s0-0.2,0.1-0.3c0-0.1,0.1-0.1,0.2-0.2
			c0.1,0,0.2-0.1,0.3-0.1h5.6c0.1,0,0.1,0,0.2,0c0.1,0,0.1,0.1,0.2,0.1c0,0.1,0.1,0.1,0.1,0.2c0,0.1,0,0.1,0,0.2
			C45.6,16.1,44.9,17.7,43.8,19.1z"/>
		<path class="st0" d="M47.7,13.7c-0.4,5.3-4.5,9.7-9.9,10.2c-6,0.6-11.3-3.9-11.9-10c-0.5-5.5-4-9.1-9.2-9.3v3.8
			c3.2,0.2,5.1,2.3,5.5,5.8c0.7,7.7,7.1,13.5,14.6,13.5c0.4,0,0.9,0,1.4-0.1c7.4-0.7,13-6.8,13.3-14L47.7,13.7z"/>
	</g>
</g>
</svg>
