<?xml version="1.0" encoding="utf-8"?>
<!-- Generator: Adobe Illustrator 27.1.1, SVG Export Plug-In . SVG Version: 6.00 Build 0)  -->
<svg version="1.1" id="layer" xmlns="http://www.w3.org/2000/svg" xmlns:xlink="http://www.w3.org/1999/xlink" x="0px" y="0px"
	 viewBox="0 0 606 105" style="enable-background:new 0 0 606 105;" xml:space="preserve">
<style type="text/css">
	.st0{fill:#8ED500;}
</style>
<path class="st0" d="M348.6,30c9.6,0,17,4.9,20,9.3V3.8c0-0.7,0.4-1.3,1.1-1.6c0.2-0.1,0.4-0.1,0.7-0.1H386c0.7,0,1.3,0.4,1.6,1.1
	c0.1,0.2,0.1,0.4,0.1,0.7v95.5c0,0.9-0.8,1.7-1.7,1.7h-15.1c-1.2,0-2.3-1-2.3-2.3v-5.5c-3.1,4.4-10.4,9.3-20,9.3
	c-18.5,0-32.7-16.6-32.7-36.3C315.9,46.6,330.1,30,348.6,30L348.6,30z M335.1,66.3c0,10.8,7.1,18.9,17.6,18.9
	c10.4,0,17.5-8.1,17.5-18.9s-7.1-18.9-17.5-18.9C342.2,47.4,335.1,55.5,335.1,66.3L335.1,66.3z M289,73V50c0-0.5,0.2-0.9,0.5-1.2
	c0.3-0.3,0.8-0.5,1.2-0.5h13.4c0.9,0,1.7-0.8,1.7-1.7V33.4c0-0.9-0.8-1.7-1.7-1.7h-13.4c-1,0-1.7-0.8-1.7-1.7V14
	c0-0.9-0.8-1.7-1.7-1.7h-15.7c-0.7,0-1.3,0.4-1.6,1.1c-0.1,0.2-0.1,0.5-0.1,0.7c0,16.6-0.4,17.5-11.8,17.6c-0.6,0-1.2,0.2-1.6,0.7
	c-0.4,0.4-0.6,1-0.7,1.6v12c0,0.9,0.6,1.7,1.4,2.1c0.3,0.1,0.6,0.2,0.8,0.2h10.1c1,0,1.7,0.8,1.7,1.7v26.7c0,17,11.8,25.2,26.6,25.2
	c3.6,0.1,7.3-0.3,10.8-1.2c0.8-0.2,1.3-0.9,1.3-1.7V85.8c0-0.8-0.6-1.5-1.4-1.7c-0.3-0.1-0.5,0-0.8,0c-1.9,0.4-3.7,0.6-5.6,0.6
	C292.6,84.8,289,81.4,289,73L289,73z M103.7,66.3c0-20.6,15.4-36.3,36.6-36.3c18.2,0,34.2,11.7,34.3,34.2c0,1.3,0,2.8-0.1,4.9
	c-0.1,0.9-0.8,1.6-1.7,1.6h-50.5c1.1,9.3,9.3,14.5,18.5,14.5c7.8,0,13.7-3.3,17-7.4c0.6-0.7,1.6-0.8,2.3-0.3l11.5,8.5
	c0.6,0.4,0.8,1.1,0.6,1.8c0,0.2-0.1,0.4-0.3,0.6c-6.5,8.5-17.4,14.2-31.3,14.2C119.8,102.6,103.7,88.3,103.7,66.3L103.7,66.3z
	 M139.8,45.7c-7.1,0-15.1,3.6-16.9,12.1h32.6C153.8,49.6,146.9,45.7,139.8,45.7L139.8,45.7z M229,31.6h18.4c0.6,0,1.2,0.4,1.5,0.9
	c0.3,0.6,0.3,1.2-0.1,1.8L227.6,66c-0.4,0.6-0.4,1.4,0,2l21.6,30.3c0.8,1.1,0,2.7-1.4,2.7h-18.4c-0.5,0-1.1-0.3-1.4-0.7l-14-19.9
	l-14,19.9c-0.3,0.4-0.8,0.7-1.4,0.7h-18.5c-0.7,0-1.2-0.4-1.5-1s-0.2-1.3,0.1-1.8l21.7-30.3c0.4-0.6,0.4-1.4,0-2l-21.2-31.7
	c-0.5-0.8-0.3-2,0.5-2.5c0.3-0.2,0.6-0.2,0.9-0.2h18.2c0.6,0,1.1,0.3,1.4,0.8l13.6,20.5l13.6-20.5C227.9,31.8,228.4,31.6,229,31.6
	L229,31.6z M596.5,30.7c-7.8,0-14.9,5.1-17.3,11.9v-9.4c0-0.9-0.8-1.7-1.7-1.7h-15.6c-1,0-1.7,0.8-1.7,1.7v66c0,0.9,0.8,1.7,1.7,1.7
	h15.6c0.9,0,1.7-0.8,1.7-1.7V67.7c0-11.4,6-18.5,15-18.5c2.2,0,4.4,0.3,6.5,0.9c0.8,0.2,1.6-0.2,2-0.9c0.1-0.2,0.2-0.5,0.2-0.8V32.7
	c0-0.8-0.6-1.6-1.4-1.7C599.9,30.9,598.2,30.7,596.5,30.7L596.5,30.7z M397.2,66.3c0-20.3,16.4-36.3,36.6-36.3s36.6,15.9,36.6,36.3
	c0,20.3-16.4,36.3-36.6,36.3C413.6,102.6,397.2,86.6,397.2,66.3L397.2,66.3z M416.4,66.3c0,10.7,7.4,18.5,17.4,18.5
	s17.3-7.8,17.3-18.5s-7.2-18.5-17.3-18.5C423.8,47.8,416.4,55.6,416.4,66.3L416.4,66.3z M514.1,30c-20.2,0-36.6,16-36.6,36.3
	s16.4,36.3,36.6,36.3s36.6-16,36.6-36.3C550.7,46,534.3,30,514.1,30L514.1,30z M514.1,84.8c-10,0-17.4-7.8-17.4-18.5
	s7.4-18.5,17.4-18.5s17.3,7.8,17.3,18.5C531.4,77,524.1,84.8,514.1,84.8L514.1,84.8z M29.2,44.2c6.1-9.1,17.1-15,29.9-15
	c19.8,0,35.1,14.2,35.1,32.3v37.9c0,0.9-0.8,1.7-1.7,1.7H76.7c-1,0-1.7-0.8-1.7-1.7V64.2c0-7.8-6-16.7-15.9-16.7
	c-10.4,0-15.9,8.9-15.9,16.7v35.2c0,1-0.8,1.7-1.7,1.7H25.7c-0.7,0-1.3-0.4-1.6-1.1C24,99.8,24,99.6,24,99.3V65.2
	c0-1-0.7-1.9-1.7-2.2C8.4,59.2,3.3,48.6,3,33.4c0-0.7,0.4-1.3,1.1-1.6c0.2-0.1,0.4-0.1,0.7-0.1h12.4v0.1H21c0.9,0,1.7,0.7,1.7,1.7
	c0.2,6.2,1.4,9.6,4.3,11.3C27.7,45.2,28.7,45,29.2,44.2L29.2,44.2z"/>
</svg>
