<?xml version="1.0" encoding="utf-8"?>
<!-- Generator: Adobe Illustrator 27.1.1, SVG Export Plug-In . SVG Version: 6.00 Build 0)  -->
<svg version="1.1" id="Layer_1" xmlns="http://www.w3.org/2000/svg" xmlns:xlink="http://www.w3.org/1999/xlink" x="0px" y="0px"
	 viewBox="0 0 666.6 150.6" style="enable-background:new 0 0 666.6 150.6;" xml:space="preserve">
<g>
	<path d="M250,42.2c9.3,0,17.1,3.2,23.4,9.5c6.3,6.4,9.3,14.2,9.3,23.6s-3.1,17.2-9.3,23.6s-14.1,9.5-23.4,9.5s-17.1-3.2-23.3-9.5
		c-6.2-6.2-9.6-14.8-9.4-23.6c-0.2-8.8,3.2-17.3,9.4-23.6C232.7,45.4,241.2,42,250,42.2z M234.3,58.8c-4.3,4.4-6.6,10.4-6.4,16.6
		c-0.2,6.2,2.1,12.2,6.4,16.6c4.1,4.3,9.8,6.8,15.7,6.6c5.9,0.1,11.6-2.3,15.7-6.6c4.3-4.4,6.5-9.9,6.5-16.6
		c0.2-6.2-2.1-12.2-6.5-16.6c-4.1-4.3-9.8-6.7-15.7-6.6C244,52,238.3,54.4,234.3,58.8L234.3,58.8z"/>
	<path d="M304.8,43.6h22.5c6,0,10.6,1.8,14,5.5c3.3,3.5,5.1,8.1,5,12.9c0.1,4.9-1.8,9.7-5.2,13.2c-3.6,3.8-8.3,5.6-14.2,5.6h-11.7
		V107h-10.4V43.6z M315.2,71.5h10.5c6.3,0,10.1-4.5,10.1-9.5s-3.7-8.8-9.9-8.8h-10.7L315.2,71.5L315.2,71.5z"/>
	<path d="M391.9,107h-10.4V53.2h-20.7v-9.5h51.8v9.5h-20.7V107z"/>
	<path d="M431.8,43.6h10.4V107h-10.4V43.6z"/>
	<path d="M531.6,107h-10.4V63.1l-17.1,29.6h-9.4l-17-29.7V107h-10.4V43.6h11.5l20.6,35.8L520,43.6h11.6V107z"/>
	<path d="M568.1,91l-5.9,16h-11.4l24.7-63.4h10.2l24.7,63.4h-11.3l-6-16H568.1z M580.7,57.2l-9,24.3h18L580.7,57.2z"/>
	<path d="M640.1,43.6v53.8h26.5v9.5h-36.9V43.6H640.1z"/>
	<path d="M57,103.6c-12.9,0-25.2-5-34.4-13.9c-18.7-18.1-19.2-48-1-66.7c0.3-0.4,0.7-0.7,1-1C41.8,3.4,72.2,3.4,91.4,22l0,0
		c18.7,18.1,19.2,48,1,66.7c-0.3,0.3-0.7,0.7-1,1C82.2,98.7,69.8,103.7,57,103.6z M57,18.8c-10,0-19.7,3.9-26.9,10.9
		c-14.4,14-14.8,37-0.8,51.5c0.3,0.3,0.6,0.6,0.8,0.8c15,14.5,38.8,14.5,53.8,0c14.4-14,14.8-37,0.8-51.5c-0.3-0.3-0.6-0.6-0.8-0.8
		l0,0C76.7,22.7,67,18.8,57,18.8z"/>
	<path d="M67.1,127.6c-16.7,0.1-32.7-6.4-44.6-18C-1.7,86.2-2.3,47.6,21.2,23.4c0.4-0.5,0.9-0.9,1.3-1.3C47.1-2,87.1-2,111.7,22l0,0
		c24.2,23.4,24.8,62.1,1.3,86.3c-0.4,0.4-0.9,0.9-1.3,1.3C99.8,121.2,83.8,127.7,67.1,127.6z M67.1,14.6C53.3,14.6,40,20,30,29.6
		c-20,19.3-20.5,51.2-1.1,71.1c0.4,0.4,0.8,0.8,1.1,1.2c20.7,20,53.5,20,74.2,0c19.9-19.3,20.5-51.2,1.2-71.1
		c-0.4-0.4-0.8-0.8-1.2-1.1l0,0C94.3,20,81,14.6,67.1,14.6L67.1,14.6z"/>
	<path d="M76.9,150.6c-20.3,0.1-39.8-7.8-54.3-22C-6.9,100.1-7.6,53,21,23.6c0.5-0.5,1.1-1.1,1.6-1.6c30-29.3,78.7-29.3,108.7,0l0,0
		c29.4,28.5,30.2,75.6,1.6,105c-0.5,0.6-1.1,1.1-1.6,1.6C116.7,142.8,97.2,150.7,76.9,150.6z M76.9,10.7
		c-17.5-0.1-34.3,6.7-46.8,18.9C4.9,54.1,4.2,94.3,28.6,119.5c0.5,0.5,1,1,1.4,1.4c25.8,25.3,67.8,25.3,93.7,0
		c25.2-24.4,25.9-64.7,1.4-89.9c-0.5-0.5-0.9-1-1.4-1.4l0,0C111.2,17.5,94.4,10.7,76.9,10.7z"/>
</g>
</svg>
