<svg xmlns:xlink="http://www.w3.org/1999/xlink" version="1.1" id="Layer_1" xmlns="http://www.w3.org/2000/svg" x="0px" y="0px" viewBox="0 0 666.61 150.62" width="666.61" height="150.62"><g><path d="M249.96,42.2c9.33,0,17.13,3.18,23.4,9.53c6.26,6.36,9.34,14.25,9.34,23.59s-3.08,17.24-9.34,23.59s-14.06,9.54-23.4,9.54 c-9.34,0-17.05-3.18-23.31-9.54c-6.23-6.25-9.63-14.77-9.43-23.59c-0.2-8.82,3.21-17.34,9.43-23.59 C232.74,45.43,241.2,41.98,249.96,42.2z M234.26,58.76c-4.32,4.41-6.64,10.39-6.45,16.56c-0.2,6.17,2.13,12.16,6.45,16.57 c4.05,4.35,9.76,6.77,15.7,6.64c5.93,0.09,11.63-2.32,15.69-6.64c4.34-4.43,6.45-9.92,6.45-16.57c0.2-6.17-2.13-12.15-6.45-16.56 c-4.07-4.32-9.76-6.72-15.69-6.63C244.02,52,238.31,54.41,234.26,58.76L234.26,58.76z" fill="#FFFFFF" class="logotype"></path><path d="M304.84,43.64h22.53c6,0,10.59,1.83,14,5.49c3.28,3.49,5.07,8.11,5,12.9c0.07,4.91-1.8,9.65-5.2,13.2 c-3.56,3.75-8.28,5.58-14.25,5.58h-11.68V107h-10.4V43.64z M315.24,71.47h10.49c6.26,0,10.12-4.53,10.12-9.53s-3.66-8.76-9.92-8.76 h-10.69V71.47z" fill="#FFFFFF" class="logotype"></path><path d="M391.88,107h-10.4V53.18h-20.7v-9.54h51.81v9.54h-20.71V107z" fill="#FFFFFF" class="logotype"></path><path d="M431.84,43.64h10.4V107h-10.4V43.64z" fill="#FFFFFF" class="logotype"></path><path d="M531.6,107h-10.4V63.13l-17.07,29.62h-9.44l-17-29.66V107h-10.4V43.64h11.54l20.6,35.82l20.61-35.82h11.56V107z" fill="#FFFFFF" class="logotype"></path><path d="M568.13,91.02l-5.87,16h-11.41l24.74-63.36h10.21l24.65,63.36h-11.32l-6-16H568.13z M580.65,57.22l-9,24.27h18 L580.65,57.22z" fill="#FFFFFF" class="logotype"></path><path d="M640.13,43.64v53.83h26.48V107h-36.9V43.64H640.13z" fill="#FFFFFF" class="logotype"></path><path d="M56.99,103.61c-12.86,0.04-25.21-4.96-34.42-13.93C3.88,71.55,3.42,41.71,21.55,23.02c0.34-0.35,0.68-0.69,1.02-1.02 c19.2-18.56,49.65-18.56,68.85,0l0,0c18.69,18.12,19.15,47.97,1.02,66.66c-0.34,0.35-0.68,0.69-1.02,1.02 C82.21,98.65,69.85,103.65,56.99,103.61z M56.99,18.78c-10.05-0.03-19.72,3.88-26.92,10.89c-14.45,13.99-14.83,37.05-0.84,51.5 c0.28,0.28,0.56,0.57,0.84,0.84c15.01,14.52,38.84,14.52,53.85,0c14.45-13.99,14.83-37.05,0.84-51.5 c-0.28-0.28-0.56-0.57-0.84-0.84l0,0C76.71,22.66,67.04,18.75,56.99,18.78z" fill="#FFFFFF"></path><path d="M67.13,127.64c-16.65,0.07-32.66-6.39-44.6-18C-1.66,86.19-2.26,47.57,21.19,23.38c0.44-0.45,0.89-0.9,1.34-1.34 c24.59-24.05,64.61-24.06,89.21,0l0,0c24.19,23.45,24.79,62.07,1.34,86.26c-0.44,0.45-0.89,0.9-1.34,1.34 C99.8,121.25,83.78,127.71,67.13,127.64z M67.13,14.64c-13.85-0.05-27.17,5.34-37.1,15C10.07,48.96,9.56,80.8,28.88,100.75 c0.38,0.39,0.76,0.77,1.15,1.15c20.69,20.01,53.51,20.01,74.2,0c19.95-19.32,20.47-51.16,1.15-71.11 c-0.38-0.39-0.76-0.77-1.15-1.15l0,0c-9.93-9.65-23.25-15.03-37.1-14.97V14.64z" fill="#FFFFFF"></path><path d="M76.91,150.62c-20.3,0.07-39.81-7.83-54.34-22C-6.88,100.06-7.6,53.05,20.95,23.6c0.53-0.55,1.07-1.09,1.62-1.62 c30-29.31,78.72-29.3,108.68,0l0,0c29.45,28.55,30.17,75.57,1.62,105.02c-0.53,0.55-1.07,1.09-1.62,1.62 C116.72,142.79,97.2,150.69,76.91,150.62z M76.91,10.73c-17.49-0.06-34.31,6.74-46.84,18.94C4.86,54.09,4.21,94.32,28.63,119.53 c0.47,0.49,0.95,0.97,1.44,1.44c25.83,25.26,67.85,25.26,93.68,0c25.21-24.42,25.86-64.65,1.44-89.86 c-0.47-0.49-0.95-0.97-1.44-1.44l0,0C111.22,17.47,94.4,10.67,76.91,10.73z" fill="#FFFFFF"></path></g></svg>