<svg xmlns:xlink="http://www.w3.org/1999/xlink" xmlns="http://www.w3.org/2000/svg" width="254" height="46.779"><defs><style>.a{fill:url(#a);}.b{fill:#14133a;}</style><linearGradient id="a" x2="1" y1=".5" y2=".5" gradientUnits="objectBoundingBox"><stop offset="0" stop-color="#9f6bad"/><stop offset="1" stop-color="#ed609d"/></linearGradient></defs><path d="M38.17 0H24.75a4.68 4.68 0 0 0-4.68 4.67V42.1a.85.85 0 0 1-.86.86H4.7a.86.86 0 0 1-.85-.85V14.75a.86.86 0 0 1 .85-.85H16.2a1.9 1.9 0 0 0 1.93-1.92v-1.9H4.68A4.68 4.68 0 0 0 0 14.73V42.1a4.68 4.68 0 0 0 4.68 4.68h14.54a4.68 4.68 0 0 0 4.68-4.67V4.68a.86.86 0 0 1 .86-.86h13.42a.86.86 0 0 1 .85.87v26.57a.85.85 0 0 1-.85.84H27.76A1.92 1.92 0 0 0 25.84 34v1.9h12.33a4.68 4.68 0 0 0 4.68-4.65V4.66A4.68 4.68 0 0 0 38.18 0z" class="a"/><path d="M248.38 4.95v.9h-1.42V9.6h-1.05V5.84h-1.4v-.9zM250.12 4.95l1.35 2.85 1.36-2.85H254V9.6h-.95V6.47l-1.23 2.66h-.7l-1.23-2.66V9.6h-.96V4.95zM75.66 18.23c0 6.2-3.9 9.8-10.72 9.8H59v7.96h-5.18V8.9h11.1c6.83 0 10.74 3.37 10.74 9.33zm-4.92.16c0-3.34-2.2-4.97-6.07-4.97h-5.65v10.02h5.65c3.87 0 6.07-1.66 6.07-5.06zM91.02 35.86v-2.5c-1.43 1.8-3.75 2.74-6.7 2.74-4.44 0-7.23-2.74-7.23-6.4 0-3.8 2.82-6.14 7.85-6.18H91v-.54c0-2.4-1.6-3.8-4.7-3.8a12.16 12.16 0 0 0-6.15 1.9l-1.82-3.45a16.7 16.7 0 0 1 9.1-2.54c5.42 0 8.48 2.73 8.52 7.3L96 35.87h-4.97zm-.04-7.15v-1.84h-5.22c-2.67 0-3.9.73-3.9 2.54 0 1.73 1.38 2.85 3.66 2.85 2.9 0 5.2-1.54 5.46-3.54zM120.63 7.28v28.7h-5.03v-3.32a7.87 7.87 0 0 1-6.97 3.56c-5.92 0-9.87-4.33-9.87-10.64 0-6.27 3.95-10.5 9.75-10.5a7.96 7.96 0 0 1 7.1 3.6V7.3zM115.6 25.7c0-3.72-2.4-6.3-5.9-6.3-3.43 0-5.83 2.62-5.87 6.3.04 3.7 2.4 6.3 5.88 6.3s5.9-2.6 5.9-6.3zM135.22 13.4c-2.44 0-4.03.88-4.03 2.55 0 5.5 14.54 2.52 14.5 12.23 0 5.07-4.4 8-10.37 8a17.56 17.56 0 0 1-11.45-4.33l2.17-4.37a15.24 15.24 0 0 0 9.36 4c2.9 0 4.66-1.1 4.66-3 0-5.64-14.55-2.43-14.55-12.06 0-4.72 4.07-7.74 10.15-7.74a18.4 18.4 0 0 1 9.8 2.86l-2.1 4.5a17.3 17.3 0 0 0-8.13-2.65zM169.9 15.16v28.2h-5.03V32.55a7.87 7.87 0 0 1-6.97 3.56c-5.92 0-9.86-4.34-9.86-10.65 0-6.27 3.95-10.48 9.75-10.48a7.96 7.96 0 0 1 7.07 3.6v-3.4zm-5.03 10.4c0-3.7-2.4-6.3-5.88-6.3-3.46 0-5.86 2.63-5.9 6.3.04 3.72 2.4 6.3 5.9 6.3s5.87-2.58 5.87-6.3zM194.52 15.3v20.56h-5.07v-3.8c-1.43 2.73-3.9 4-7.2 4-4.65 0-7.5-3.04-7.5-7.9V15.3h5.06v11.4c0 2.9 1.67 4.63 4.46 4.63 3.25-.04 5.18-2.58 5.18-5.9V15.3zM212.05 35.86v-2.5c-1.44 1.8-3.76 2.74-6.7 2.74-4.45 0-7.23-2.74-7.23-6.4 0-3.8 2.82-6.14 7.85-6.18h6.05v-.54c0-2.4-1.6-3.8-4.7-3.8a12.16 12.16 0 0 0-6.14 1.9l-1.82-3.45a16.7 16.7 0 0 1 9.1-2.54c5.42 0 8.47 2.73 8.5 7.3l.05 13.47h-4.94zM212 28.7v-1.84h-5.22c-2.67 0-3.9.73-3.9 2.54 0 1.73 1.38 2.85 3.67 2.85 2.9 0 5.2-1.54 5.46-3.54zM241.65 7.28v28.7h-5.04v-3.32a7.87 7.87 0 0 1-6.95 3.56c-5.93 0-9.87-4.33-9.87-10.64 0-6.27 3.95-10.5 9.75-10.5a7.96 7.96 0 0 1 7.08 3.6V7.3zM236.6 25.7c0-3.72-2.4-6.3-5.87-6.3-3.45 0-5.84 2.62-5.88 6.3.04 3.7 2.4 6.3 5.88 6.3s5.88-2.6 5.88-6.3z" class="b"/></svg>