<?xml version="1.0" encoding="utf-8"?>
<!-- Generator: Adobe Illustrator 23.0.1, SVG Export Plug-In . SVG Version: 6.00 Build 0)  -->
<svg version="1.1" id="Layer_1" xmlns="http://www.w3.org/2000/svg" xmlns:xlink="http://www.w3.org/1999/xlink" x="0px" y="0px"
	 viewBox="0 0 613 105.1" style="enable-background:new 0 0 613 105.1;" xml:space="preserve">
<style type="text/css">
	.st0{fill:#A2A9AD;}
	.st1{fill:#5B6670;}
	.st2{fill:#00B189;}
	.st3{fill:#009877;}
</style>
<polygon class="st0" points="110.3,0 58.1,52.2 58.1,104.4 110.3,52.2 "/>
<polygon class="st1" points="0,0 0,52.2 52.2,104.4 52.2,52.2 "/>
<polygon class="st2" points="32.9,58.5 85.1,6.2 32.9,6.2 "/>
<polygon class="st3" points="32.9,32.9 32.9,58.5 45.7,45.7 "/>
<path class="st1" d="M139.6,50.5c-0.1,15.4,6.8,29.7,19.2,34.4c2.9,1.1,6,1.7,9.2,1.6h0.1c2.1,0,4.2-0.2,6.3-0.7
	c14.3-3.4,22.3-18.4,22.3-36.4s-9.3-36.3-28.2-36.3C149,13.1,139.4,31.1,139.6,50.5 M167.2,95.8H166c-20.9-1-38.8-16.6-38.8-45.1
	c0-28.6,17.5-47,41.6-47s40,18.8,40,45.2c0,18.5-6.9,31.6-17.3,38.7l21.5,8.3h-43.4L167.2,95.8L167.2,95.8z M276.6,30.3H265v39.3
	c0.1,9.1-7.2,16.5-16.2,16.5c-0.1,0-0.1,0-0.2,0c-10.6,0-14.3-8.2-14.3-20.4V30.3h-11.7v37.5c0,22.5,12.1,28.1,22.1,28.1
	c8.7,0.1,16.8-4.4,21.2-11.9h0.3l0.7,10.5h10.3c-0.4-5-0.5-10.9-0.5-17.5L276.6,30.3z M301.8,62.5c0-12.2,6-24.9,19.7-24.9
	s19.2,13.8,19.2,24.6c0,14.4-8.3,24.9-19.5,24.9C309.9,87.1,301.8,76.5,301.8,62.5 M352.7,61.8c0-19.6-12.4-33-30.9-33
	c-17.7,0-31.8,12.6-31.8,34c0,20.3,13.4,33,30.7,33C336.2,95.8,352.7,85.5,352.7,61.8 M406.4,39.2l15.5-8.9h-41.7V15l-11.4,3.6v11.8
	h-9.9v8.9h9.9v34.9c0,7.6,1.2,13.2,4.5,16.7c2.8,3.2,7.2,5,12.6,5c3.5,0.1,7-0.5,10.3-1.7l-0.5-8.8c-2.2,0.6-4.5,0.9-6.8,0.8
	c-6.5,0-8.7-4.5-8.7-12.4V39.2H406.4z M412.9,47.7v46.8h11.4V30.3L412.9,47.7z M448.2,56.2c0.9-8.1,6.1-19,17.9-19
	c13.1,0,16.3,11.5,16.1,19H448.2z M493.1,64.5c0.3-1.8,0.4-3.6,0.4-5.4c0-11.8-5.6-30.2-26.5-30.2c-18.7,0-30.1,15.2-30.1,34.6
	s11.8,32.4,31.5,32.4c10.2,0,17.2-2.2,21.3-4.1l-2-8.3c-4.4,1.8-9.4,3.3-17.7,3.3c-11.6,0-21.7-6.5-22-22.2L493.1,64.5z M507.9,94.4
	h11.7V55.9c-0.1-9.3,7.1-17,16.4-17.4c11,0,14.8,8.6,14.8,18.9v37h11.7V56.2c0-22-13.8-27.3-22.6-27.3c-10.6,0-18,6-21.2,12h-0.3
	l-0.7-10.6h-10.3c0.4,5.3,0.5,10.7,0.5,17.3L507.9,94.4z M594.9,15v15.4h16.7v8.9h-16.7v34.5c0,8,2.3,12.4,8.8,12.4
	c2.3,0.1,4.6-0.2,6.8-0.8l0.5,8.8c-3.3,1.2-6.8,1.8-10.3,1.7c-5.4,0-9.8-1.9-12.6-5c-3.3-3.4-4.5-9.1-4.5-16.7v-35h-9.9v-8.9h9.9
	V18.5L594.9,15z"/>
</svg>
