<svg xmlns:xlink="http://www.w3.org/1999/xlink" xmlns="http://www.w3.org/2000/svg" fill="none" width="100" height="36" viewBox="0 0 113 37" aria-label="Shipt logo" class="index-browser__LogoHorizontalIcon-sc-a6929a16-0 ksdcsr sc-fed33ca2-0 jMrJUu"><path fill="#241239" d="M11.2765 5.11375C13.1347 5.11375 14.7888 5.37952 16.2387 5.91107C17.6886 6.44261 18.8096 7.0684 19.6036 7.7922C20.1215 8.25588 20.8947 9.01361 20.8947 9.01361L16.855 13.1246C16.855 13.1246 16.0459 12.5497 15.6622 12.2651C14.0988 11.1134 12.6262 10.5366 11.2425 10.5366C10.4259 10.5366 9.74722 10.6893 9.20279 10.9946C8.65837 11.3 8.38616 11.7128 8.38616 12.2311C8.38616 13.0454 8.99863 13.5977 10.2217 13.8917L14.5733 14.8738C19.1045 15.8897 21.371 18.2741 21.371 22.0251C21.371 24.1041 20.509 25.9287 18.7869 27.4988C17.0648 29.069 14.6281 29.855 11.4788 29.855C9.34835 29.855 7.47878 29.5496 5.87009 28.9389C4.26139 28.3282 2.96838 27.5497 1.99485 26.5997C1.58842 26.1964 0.630005 25.2332 0.630005 25.2332L5.27651 21.1844C5.27651 21.1844 6.16309 21.9365 6.51659 22.3003C7.9665 23.7008 9.66593 24.4019 11.6149 24.4019C12.5657 24.4019 13.3087 24.221 13.8417 23.8591C14.3748 23.4972 14.6414 23.0693 14.6414 22.5717C14.6414 21.9836 14.3975 21.5331 13.9098 21.2165C13.4221 20.8998 12.647 20.6284 11.5809 20.4022L7.84173 19.5879C6.02888 19.2034 4.56196 18.4193 3.43908 17.2318C2.3181 16.0462 1.75666 14.5496 1.75666 12.7401C1.75666 10.5253 2.6508 8.70072 4.44286 7.26631C6.23303 5.8319 8.51092 5.11375 11.2765 5.11375Z"></path><path fill="#241239" d="M35.2539 29.3479V20.9413C35.2539 19.9027 34.959 19.0658 34.3692 18.4325C33.7794 17.801 32.9987 17.4843 32.0232 17.4843C31.0251 17.4843 30.2274 17.801 29.6263 18.4325C29.0251 19.0658 28.7265 19.9008 28.7265 20.9413V29.346L22.8455 29.3931V5.62266H28.7227L28.7265 13.8917C30.0856 12.6722 31.8077 12.0615 33.8928 12.0615C36.0686 12.0615 37.8191 12.7514 39.1442 14.1292C40.4694 15.5071 41.1329 17.2242 41.1329 19.2807V29.3479H35.2539Z"></path><path fill="#241239" d="M48.613 9.92212C47.9552 10.5781 47.1631 10.906 46.2331 10.906C45.303 10.906 44.5109 10.5781 43.8531 9.92212C43.1953 9.26618 42.8682 8.4764 42.8682 7.54903C42.8682 6.62355 43.1971 5.83189 43.8531 5.17594C44.5109 4.52 45.303 4.19391 46.2331 4.19391C47.1612 4.19391 47.9552 4.52188 48.613 5.17594C49.2709 5.83189 49.5979 6.62166 49.5979 7.54903C49.5979 8.4764 49.2709 9.26618 48.613 9.92212ZM49.1575 29.3479H43.2765V12.5704H49.1575V29.3479Z"></path><path fill="#241239" d="M67.6149 14.4854C66.0062 12.8701 64.08 12.0615 61.8361 12.0615C59.906 12.0615 58.4013 12.6401 57.3144 13.7918V12.5704H56.4977H52.2482H51.4656V13.3507V36.0939V36.8743H52.2482H56.4977H57.3144V20.9789C57.3144 20.0308 57.6433 19.2165 58.2992 18.538C58.9552 17.8594 59.7605 17.522 60.7132 17.522C61.6641 17.522 62.4694 17.8613 63.1272 18.538C63.7851 19.2165 64.1121 20.0289 64.1121 20.9789C64.1121 21.927 63.7832 22.7413 63.1272 23.4199C62.4694 24.0984 61.666 24.4358 60.7132 24.4358C60.286 24.4358 59.8569 24.4113 59.4902 24.3623V29.608C60.1348 29.7739 60.8815 29.8587 61.7321 29.8587C64.0214 29.8587 65.976 29.035 67.596 27.3838C69.2161 25.7345 70.027 23.5763 70.027 20.9092C70.027 18.242 69.2236 16.1008 67.6149 14.4854Z"></path><path fill="#241239" d="M83.7851 26.9861L81.3768 23.173C81.3768 23.173 81.0705 23.4255 80.39 23.8553C79.8909 24.172 79.4391 24.3303 79.0308 24.3303C78.1461 24.3303 77.7057 23.8101 77.7057 22.7715V22.4266H77.7189V17.4165H82.2596H83.0762V16.6022V13.3508V12.5704H82.2596H77.7189V7.65647H76.9231H72.6395H71.8229V8.43682V22.4303V24.2323C71.8229 26.0851 72.4127 27.4743 73.5904 28.4017C74.7681 29.3291 76.2085 29.7909 77.908 29.7909C78.9949 29.7909 80.0214 29.6156 80.9836 29.265C81.9458 28.9144 82.7114 28.413 83.2785 27.757C83.5412 27.5384 83.7851 26.9861 83.7851 26.9861Z"></path><path fill="#23CC6B" d="M100.921 30.7428C96.5923 30.7428 93.1972 29.6495 91.5054 28.9691C89.9609 28.3489 89.0044 26.8222 89.1216 25.171L89.9647 11.4583L94.1481 11.7147L93.3201 25.1917C95.7832 26.1379 101.675 27.7627 108.524 25.1635C108.42 23.6518 107.87 15.7088 107.551 11.0719C103.364 13.1774 99.8343 13.3395 97.2256 11.5168C95.5885 10.3726 94.649 8.53297 94.6471 6.47089C94.6452 4.3466 95.6509 2.36934 97.3428 1.17997C98.9118 0.0773043 100.761 -0.265748 102.549 0.214902C104.532 0.748329 106.271 2.26756 107.197 4.28063L103.388 6.02605C102.98 5.14203 102.241 4.46158 101.458 4.25047C100.868 4.09214 100.313 4.20524 99.7568 4.59541C99.1897 4.99313 98.8381 5.70939 98.84 6.46335C98.84 6.86483 98.9439 7.60937 99.6339 8.0919C101.235 9.21153 104.452 8.36144 108.239 5.81871C108.9 5.37388 109.757 5.34372 110.451 5.73766C111.424 6.29182 111.479 7.07971 111.555 8.16918L112.727 25.1163C112.857 26.7939 111.893 28.332 110.324 28.9502C106.934 30.281 103.732 30.7428 100.921 30.7428Z"></path></svg>