<?xml version="1.0" encoding="utf-8"?>
<!-- Generator: Adobe Illustrator 27.1.1, SVG Export Plug-In . SVG Version: 6.00 Build 0)  -->
<svg version="1.1" id="Layer_1" xmlns="http://www.w3.org/2000/svg" xmlns:xlink="http://www.w3.org/1999/xlink" x="0px" y="0px"
	 viewBox="0 0 158 48" style="enable-background:new 0 0 158 48;" xml:space="preserve">
<style type="text/css">
	.st0{fill:#FFFFFF;}
</style>
<g id="target_3_">
	<path class="st0" d="M79,0C65.7,0,55,10.7,55,24s10.7,24,24,24s24-10.7,24-24S92.3,0,79,0z M79,39.7c-8.7,0-15.7-7-15.7-15.7
		S70.3,8.2,79,8.2s15.7,7,15.7,15.7S87.7,39.7,79,39.7z"/>
	<path class="st0" d="M86.9,24.1c0,4.4-3.5,7.9-7.9,7.9s-7.9-3.5-7.9-7.9s3.5-7.9,7.9-7.9S86.9,19.8,86.9,24.1z"/>
</g>
</svg>
