<?xml version="1.0" encoding="UTF-8" standalone="no"?>
<!DOCTYPE svg PUBLIC "-//W3C//DTD SVG 1.1//EN" "http://www.w3.org/Graphics/SVG/1.1/DTD/svg11.dtd">
<svg xmlns="http://www.w3.org/2000/svg" version="1.1" viewBox="0.00 0.00 1024.00 242.00">
<ellipse fill="#5d43fb" cx="0.00" cy="0.00" transform="translate(142.93,64.99) rotate(39.4)" rx="38.78" ry="16.83"/>
<ellipse fill="#5d43fb" cx="0.00" cy="0.00" transform="translate(72.76,73.03) rotate(129.5)" rx="38.36" ry="29.63"/>
<path fill="#00101a" d="
  M 1010.5069 71.5759
  A 7.07 7.07 0.0 0 1 1003.5113 78.7195
  L 1001.5914 78.7396
  A 7.07 7.07 0.0 0 1 994.4478 71.7441
  L 994.4331 70.3441
  A 7.07 7.07 0.0 0 1 1001.4287 63.2005
  L 1003.3486 63.1804
  A 7.07 7.07 0.0 0 1 1010.4922 70.1759
  L 1010.5069 71.5759
  Z
  M 1008.7052 70.2335
  A 5.27 5.27 0.0 0 0 1003.4721 64.9268
  L 1001.5522 64.9134
  A 5.27 5.27 0.0 0 0 996.2455 70.1465
  L 996.2348 71.6865
  A 5.27 5.27 0.0 0 0 1001.4679 76.9932
  L 1003.3878 77.0066
  A 5.27 5.27 0.0 0 0 1008.6945 71.7735
  L 1008.7052 70.2335
  Z"
/>
<path fill="#00101a" d="
  M 704.93 84.57
  C 719.17 67.39 741.88 62.62 763.62 65.71
  C 780.13 68.05 791.04 78.62 790.37 95.94
  C 789.88 108.54 784.74 122.65 776.30 132.03
  C 761.73 148.19 740.04 152.46 718.81 149.50
  C 705.93 147.70 694.33 140.00 692.40 126.30
  C 690.45 112.41 696.03 95.32 704.93 84.57
  Z
  M 725.02 104.07
  C 722.07 114.22 718.58 129.78 734.49 130.41
  C 746.13 130.88 753.40 123.53 756.69 113.08
  C 759.66 103.66 764.73 85.66 748.38 84.84
  C 735.20 84.19 728.33 92.66 725.02 104.07
  Z"
/>
<path fill="#00101a" d="
  M 235.12 148.99
  Q 223.13 145.73 221.29 132.81
  Q 220.44 126.83 221.98 120.48
  Q 227.57 97.37 235.42 66.47
  A 0.49 0.49 0.0 0 1 235.89 66.11
  L 256.52 66.17
  A 0.67 0.67 0.0 0 1 257.17 67.00
  Q 250.60 92.86 244.06 119.30
  C 242.92 123.91 243.28 129.78 249.32 130.34
  Q 256.69 131.03 260.28 125.84
  Q 262.74 122.28 264.17 116.50
  Q 270.29 91.92 276.65 66.73
  Q 276.80 66.14 277.41 66.14
  L 297.74 66.15
  A 0.38 0.38 0.0 0 1 298.11 66.62
  Q 291.21 94.66 284.68 120.12
  Q 283.19 125.93 279.35 132.45
  C 273.66 142.10 264.38 148.23 253.26 149.81
  Q 243.34 151.22 235.12 148.99
  Z"
/>
<path fill="#00101a" d="
  M 318.95 102.73
  Q 318.47 100.35 317.98 102.72
  Q 317.56 104.72 317.09 106.69
  Q 311.85 128.21 306.65 148.81
  A 0.45 0.44 6.4 0 1 306.21 149.15
  L 286.47 149.11
  Q 285.82 149.11 285.98 148.48
  L 306.35 67.01
  Q 306.56 66.13 307.46 66.14
  L 330.75 66.16
  Q 331.30 66.16 331.41 66.70
  L 339.91 108.43
  Q 340.32 110.45 340.82 108.45
  L 351.32 66.47
  A 0.48 0.47 -83.0 0 1 351.78 66.11
  L 371.66 66.15
  A 0.43 0.42 7.5 0 1 372.07 66.67
  L 351.58 148.62
  Q 351.45 149.15 350.90 149.15
  L 329.01 149.16
  A 0.82 0.81 -5.6 0 1 328.21 148.51
  L 318.95 102.73
  Z"
/>
<path fill="#00101a" d="
  M 381.28 66.60
  A 0.62 0.61 -82.6 0 1 381.87 66.14
  Q 400.31 66.09 418.07 66.25
  Q 426.14 66.32 433.64 70.09
  C 451.35 79.01 446.92 101.16 441.65 116.09
  C 436.03 131.98 424.35 143.27 407.62 147.60
  Q 400.79 149.37 388.40 149.19
  Q 374.87 148.99 361.08 149.21
  A 0.36 0.35 6.9 0 1 360.73 148.77
  L 381.28 66.60
  Z
  M 397.54 99.20
  C 395.13 109.33 392.50 118.90 390.32 128.62
  A 0.32 0.31 -85.0 0 0 390.64 129.01
  C 395.49 128.79 400.70 129.48 405.42 127.78
  Q 411.72 125.52 414.88 119.62
  Q 419.24 111.48 420.72 99.33
  C 422.44 85.28 411.16 86.06 401.43 86.36
  Q 400.90 86.37 400.62 86.93
  Q 400.33 87.52 397.54 99.20
  Z"
/>
<path fill="#00101a" d="
  M 510.20 129.65
  L 505.50 148.70
  A 0.52 0.52 0.0 0 1 504.99 149.09
  L 441.51 149.14
  A 0.52 0.52 0.0 0 1 441.00 148.49
  L 461.49 66.53
  A 0.52 0.52 0.0 0 1 462.00 66.14
  L 525.14 66.16
  A 0.52 0.52 0.0 0 1 525.65 66.81
  L 520.85 85.77
  A 0.52 0.52 0.0 0 1 520.35 86.16
  L 482.22 86.17
  A 0.52 0.52 0.0 0 0 481.71 86.57
  L 479.15 97.26
  A 0.52 0.52 0.0 0 0 479.66 97.90
  L 515.28 97.91
  A 0.52 0.52 0.0 0 1 515.78 98.56
  L 511.27 116.29
  A 0.52 0.52 0.0 0 1 510.77 116.68
  L 474.73 116.69
  A 0.52 0.52 0.0 0 0 474.23 117.08
  L 471.27 128.36
  A 0.52 0.52 0.0 0 0 471.77 129.01
  L 509.70 129.01
  A 0.52 0.52 0.0 0 1 510.20 129.65
  Z"
/>
<path fill="#00101a" d="
  M 590.06 107.52
  Q 591.34 108.10 592.59 108.69
  C 598.88 111.67 599.87 118.65 598.37 124.64
  Q 595.27 137.07 592.38 148.64
  Q 592.25 149.16 591.72 149.16
  L 566.04 149.15
  Q 565.53 149.15 565.63 148.65
  Q 567.80 138.22 570.77 127.91
  C 572.19 122.95 572.03 118.42 565.32 118.18
  Q 557.60 117.90 549.35 118.13
  Q 548.67 118.15 548.64 118.83
  Q 548.58 120.16 548.20 121.60
  Q 544.77 134.45 541.39 148.63
  Q 541.26 149.16 540.71 149.16
  L 515.18 149.09
  Q 514.34 149.09 514.54 148.28
  L 534.93 66.71
  Q 535.07 66.14 535.66 66.14
  Q 561.28 66.13 583.05 66.21
  C 595.46 66.25 610.24 70.98 607.13 86.92
  Q 605.94 93.04 603.39 97.09
  Q 598.56 104.80 590.11 106.95
  Q 589.28 107.16 590.06 107.52
  Z
  M 557.06 85.79
  L 553.52 99.74
  Q 553.32 100.54 554.15 100.52
  C 559.72 100.35 565.83 100.88 571.16 100.13
  Q 578.04 99.16 579.02 90.78
  Q 579.65 85.41 573.84 85.25
  Q 567.76 85.08 557.84 85.17
  Q 557.21 85.18 557.06 85.79
  Z"
/>
<path fill="#00101a" d="
  M 640.06 86.85
  A 0.18 0.18 0.0 0 0 639.89 86.63
  L 612.78 86.68
  A 0.42 0.42 0.0 0 1 612.37 86.15
  L 617.21 66.74
  Q 617.36 66.14 617.98 66.14
  L 700.45 66.17
  A 0.75 0.75 0.0 0 1 701.18 67.10
  L 696.50 85.73
  Q 696.25 86.69 695.26 86.69
  L 668.86 86.64
  A 0.64 0.63 6.9 0 0 668.24 87.12
  Q 661.42 114.37 654.68 141.50
  Q 653.67 145.56 652.63 148.69
  Q 652.48 149.16 651.98 149.16
  L 625.22 149.16
  Q 624.50 149.16 624.68 148.47
  L 640.06 86.85
  Z"
/>
<path fill="#00101a" d="
  M 826.64 101.80
  Q 826.40 102.02 826.32 102.34
  Q 821.41 121.52 816.02 143.49
  Q 815.38 146.09 814.55 148.61
  Q 814.37 149.14 813.81 149.14
  L 787.51 149.14
  Q 786.98 149.14 787.11 148.63
  L 807.51 67.04
  Q 807.73 66.14 808.66 66.14
  L 839.98 66.16
  A 1.01 1.01 0.0 0 1 840.93 66.83
  Q 847.93 86.72 854.84 106.09
  Q 855.45 107.79 855.84 109.53
  Q 856.22 111.16 856.63 109.54
  Q 861.58 90.01 866.23 71.43
  Q 866.82 69.05 867.58 66.56
  Q 867.71 66.11 868.18 66.11
  L 894.53 66.15
  A 0.48 0.48 0.0 0 1 894.99 66.75
  Q 886.90 99.38 879.65 128.31
  Q 877.08 138.56 874.42 148.62
  Q 874.28 149.14 873.73 149.14
  L 844.00 149.13
  A 0.42 0.41 -10.1 0 1 843.61 148.86
  Q 835.39 125.98 827.51 103.02
  Q 827.34 102.53 827.20 101.97
  Q 827.06 101.40 826.64 101.80
  Z"
/>
<path fill="#00101a" d="
  M 932.08 98.04
  Q 932.73 97.91 933.33 97.91
  Q 954.36 97.90 976.66 97.88
  Q 977.31 97.88 977.16 98.51
  L 972.90 116.01
  A 0.91 0.90 6.9 0 1 972.02 116.69
  L 926.82 116.68
  A 0.63 0.62 6.4 0 0 926.21 117.16
  L 923.62 128.25
  Q 923.44 129.04 924.25 129.04
  L 971.74 128.95
  A 0.36 0.36 0.0 0 1 972.09 129.38
  Q 970.12 139.01 967.33 148.67
  Q 967.20 149.13 966.72 149.13
  L 887.29 149.12
  A 0.47 0.47 0.0 0 1 886.83 148.53
  L 907.34 66.57
  A 0.80 0.80 0.0 0 1 908.24 65.97
  Q 909.70 66.19 911.23 66.19
  Q 947.90 66.15 984.85 66.14
  Q 985.90 66.14 986.94 65.93
  A 0.50 0.50 0.0 0 1 987.52 66.54
  L 982.91 85.58
  Q 982.77 86.17 982.17 86.17
  L 934.58 86.17
  A 0.70 0.69 -83.0 0 0 933.91 86.70
  L 931.37 97.30
  A 0.61 0.61 0.0 0 0 932.08 98.04
  Z"
/>
<path fill="#00101a" d="
  M 1004.13 72.66
  Q 1004.04 71.78 1003.16 71.78
  L 1002.21 71.78
  Q 1001.46 71.78 1001.43 72.54
  L 1001.37 74.55
  Q 1001.36 74.96 1000.95 74.89
  L 999.92 74.70
  Q 999.47 74.62 999.47 74.17
  L 999.47 67.46
  Q 999.47 66.82 1000.11 66.77
  C 1002.22 66.60 1006.42 66.21 1006.16 69.49
  Q 1006.11 70.02 1005.76 70.41
  Q 1005.56 70.63 1005.56 70.92
  Q 1005.55 71.23 1005.71 71.50
  Q 1006.40 72.67 1006.13 74.09
  Q 1006.04 74.57 1005.60 74.80
  Q 1005.30 74.95 1004.97 74.95
  Q 1004.35 74.94 1004.29 74.33
  L 1004.13 72.66
  Z
  M 1004.1618 69.1080
  A 0.93 0.93 0.0 0 0 1003.2852 68.1275
  L 1002.3666 68.0762
  A 0.93 0.93 0.0 0 0 1001.3861 68.9528
  L 1001.3582 69.4520
  A 0.93 0.93 0.0 0 0 1002.2348 70.4325
  L 1003.1534 70.4838
  A 0.93 0.93 0.0 0 0 1004.1339 69.6072
  L 1004.1618 69.1080
  Z"
/>
<ellipse fill="#5d43fb" cx="0.00" cy="0.00" transform="translate(139.62,134.25) rotate(129.6)" rx="38.37" ry="29.64"/>
<ellipse fill="#5d43fb" cx="0.00" cy="0.00" transform="translate(69.45,142.38) rotate(39.4)" rx="38.77" ry="16.83"/>
<path fill="#00101a" d="
  M 897.69 184.30
  C 907.28 180.13 920.67 183.00 920.35 196.13
  C 920.15 204.31 916.22 213.92 908.51 216.91
  C 899.15 220.55 886.77 217.98 886.48 205.72
  C 886.29 197.91 889.94 187.66 897.69 184.30
  Z
  M 897.00 193.81
  C 894.62 198.38 890.68 211.07 899.71 212.23
  C 908.18 213.30 910.88 206.45 912.37 199.42
  C 913.43 194.48 912.30 189.23 906.50 188.71
  Q 899.96 188.12 897.00 193.81
  Z"
/>
<path fill="#00101a" d="
  M 723.10 194.76
  Q 722.73 196.21 723.86 195.22
  C 729.28 190.44 738.16 193.48 738.16 201.41
  C 738.16 210.42 732.63 220.84 721.81 217.76
  C 720.25 217.32 719.21 215.87 718.26 214.64
  Q 717.82 214.06 717.55 214.74
  Q 717.17 215.73 717.14 216.78
  A 1.13 1.13 0.0 0 1 716.02 217.87
  L 711.22 217.93
  Q 710.20 217.94 710.45 216.96
  L 718.81 183.52
  A 0.52 0.51 7.8 0 1 719.32 183.14
  L 725.75 183.29
  Q 726.02 183.30 725.96 183.56
  L 723.10 194.76
  Z
  M 722.6831 213.1318
  A 7.86 5.11 110.3 0 0 730.2026 207.5328
  A 7.86 5.11 110.3 0 0 728.1369 198.3882
  A 7.86 5.11 110.3 0 0 720.6174 203.9872
  A 7.86 5.11 110.3 0 0 722.6831 213.1318
  Z"
/>
<path fill="#00101a" d="
  M 784.10 205.07
  L 780.89 217.55
  A 0.49 0.49 0.0 0 1 780.38 217.92
  Q 776.59 217.64 773.64 218.06
  A 0.28 0.27 -87.0 0 1 773.34 217.72
  L 781.84 183.53
  A 0.40 0.40 0.0 0 1 782.23 183.22
  Q 790.41 183.10 800.16 183.24
  C 809.28 183.37 810.33 192.58 806.89 198.76
  Q 803.77 204.34 796.63 204.42
  Q 790.71 204.49 785.01 204.38
  Q 784.28 204.36 784.10 205.07
  Z
  M 788.49 188.90
  Q 788.24 188.90 788.17 189.13
  Q 786.77 193.74 785.75 198.60
  A 0.06 0.06 0.0 0 0 785.81 198.67
  Q 790.82 198.71 795.61 198.71
  Q 799.70 198.71 800.54 194.70
  L 800.82 193.39
  Q 801.70 189.17 797.39 189.08
  L 788.49 188.90
  Z"
/>
<path fill="#00101a" d="
  M 816.31 211.83
  L 832.96 211.74
  A 0.58 0.58 0.0 0 1 833.53 212.46
  L 832.35 217.39
  A 0.58 0.58 0.0 0 1 831.78 217.83
  L 807.20 217.88
  A 0.58 0.58 0.0 0 1 806.64 217.16
  L 814.96 183.61
  A 0.58 0.58 0.0 0 1 815.52 183.17
  L 840.21 183.21
  A 0.58 0.58 0.0 0 1 840.77 183.94
  L 839.48 188.74
  A 0.58 0.58 0.0 0 1 838.92 189.17
  L 821.70 189.18
  A 0.58 0.58 0.0 0 0 821.14 189.60
  L 819.22 196.50
  A 0.58 0.58 0.0 0 0 819.77 197.24
  L 835.75 197.25
  A 0.58 0.58 0.0 0 1 836.31 197.97
  L 835.12 202.78
  A 0.58 0.58 0.0 0 1 834.56 203.22
  L 818.13 203.23
  A 0.58 0.58 0.0 0 0 817.57 203.67
  L 815.75 211.11
  A 0.58 0.58 0.0 0 0 816.31 211.83
  Z"
/>
<path fill="#00101a" d="
  M 865.52 200.50
  C 867.51 201.89 868.89 203.52 868.55 206.13
  Q 867.90 211.25 865.80 217.43
  Q 865.63 217.92 865.11 217.92
  L 858.77 217.91
  A 0.34 0.34 0.0 0 1 858.45 217.50
  L 860.87 207.29
  A 3.25 3.25 0.0 0 0 857.75 203.29
  L 848.81 203.16
  Q 847.76 203.15 847.52 204.17
  L 844.31 217.53
  Q 844.22 217.89 843.85 217.89
  L 836.80 217.89
  Q 836.55 217.89 836.61 217.65
  Q 840.55 201.69 844.93 184.78
  Q 845.00 184.49 844.95 184.21
  Q 844.79 183.26 845.76 183.25
  Q 855.44 183.10 864.22 183.24
  C 873.56 183.39 874.16 193.25 868.87 198.46
  Q 868.51 198.81 868.03 198.98
  L 865.62 199.82
  Q 864.90 200.07 865.52 200.50
  Z
  M 849.57 196.51
  Q 849.28 197.75 850.55 197.68
  Q 854.39 197.48 859.03 197.58
  C 862.01 197.64 863.49 196.21 864.10 193.41
  Q 865.01 189.20 860.52 189.13
  Q 856.52 189.06 852.39 189.05
  Q 851.35 189.04 851.10 190.06
  L 849.57 196.51
  Z"
/>
<path fill="#00101a" d="
  M 886.76 183.69
  L 878.25 217.62
  A 0.38 0.38 0.0 0 1 877.88 217.91
  L 871.05 217.94
  A 0.38 0.38 0.0 0 1 870.68 217.47
  L 879.19 183.52
  A 0.38 0.38 0.0 0 1 879.56 183.23
  L 886.39 183.22
  A 0.38 0.38 0.0 0 1 886.76 183.69
  Z"
/>
<path fill="#00101a" d="
  M 944.62 206.37
  Q 945.60 203.75 946.19 201.10
  Q 948.10 192.58 950.50 183.72
  A 0.72 0.72 0.0 0 1 951.20 183.18
  L 956.77 183.19
  Q 957.62 183.19 957.41 184.02
  L 949.07 217.24
  Q 948.91 217.86 948.26 217.86
  L 942.09 217.88
  A 1.45 1.45 0.0 0 1 940.71 216.87
  L 933.45 193.55
  Q 933.17 192.64 932.94 193.57
  L 927.06 217.20
  Q 926.88 217.92 926.14 217.92
  L 920.47 217.92
  Q 919.78 217.92 919.95 217.26
  L 928.49 183.47
  A 0.34 0.34 0.0 0 1 928.82 183.21
  L 936.43 183.18
  Q 937.00 183.18 937.17 183.72
  L 944.23 206.36
  A 0.21 0.21 0.0 0 0 944.62 206.37
  Z"
/>
<path fill="#00101a" d="
  M 748.83 208.41
  Q 748.95 210.13 749.80 208.63
  L 758.26 193.86
  Q 758.36 193.67 758.58 193.66
  Q 761.99 193.53 765.67 193.67
  A 0.06 0.06 0.0 0 1 765.71 193.76
  Q 755.69 209.73 746.00 225.38
  Q 745.53 226.13 744.65 226.12
  L 739.26 226.03
  Q 738.40 226.01 738.84 225.27
  C 740.35 222.75 743.79 218.96 743.48 216.05
  Q 742.38 205.74 740.72 194.26
  Q 740.62 193.59 741.30 193.59
  L 747.24 193.62
  A 0.66 0.66 0.0 0 1 747.89 194.24
  L 748.83 208.41
  Z"
/>
</svg>
