<?xml version="1.0" encoding="utf-8"?>
<!-- Generator: Adobe Illustrator 27.1.1, SVG Export Plug-In . SVG Version: 6.00 Build 0)  -->
<svg version="1.1" id="Layer_1" xmlns="http://www.w3.org/2000/svg" xmlns:xlink="http://www.w3.org/1999/xlink" x="0px" y="0px"
	 viewBox="0 0 201.5 30.1" style="enable-background:new 0 0 201.5 30.1;" xml:space="preserve">
<style type="text/css">
	.st0{fill:#51788F;}
	.st1{fill:#E77C22;}
	.st2{fill:#BFB9A7;}
</style>
<path class="st0" d="M15.5,22.8L6.9,0.5h17.8L15.5,22.8z"/>
<path class="st1" d="M0,0.5h9l6.6,18.4l6.7-18.4h8.8L19.3,29.8h-7.5L0,0.5z"/>
<path class="st1" d="M32.2,0.5h23.4v6.8H40.2v4.4h14v6.4h-14v4.6h15.6v6.9H32.2V0.5z"/>
<path class="st1" d="M72.3,14.5c2.7,0,4.3-1.3,4.3-3.5v-0.1c0-2.3-1.7-3.5-4.4-3.5h-5.3v7H72.3z M58.8,0.5h13.8
	c4.4,0,7.5,1.2,9.5,3.1c1.8,1.8,2.7,4.3,2.6,6.8v0.1c0.1,4-2.3,7.6-6,9l6.9,10.1h-9.3l-5.9-8.8h-3.6v8.8h-8.1L58.8,0.5z"/>
<path class="st1" d="M88.4,0.5h8.1v29.1h-8.1V0.5z"/>
<path class="st0" d="M99.5,15.1L99.5,15.1c0-8.3,6.2-15.1,14.7-15.1c4.3-0.1,8.4,1.5,11.4,4.6L123.3,7c-2.4-2.5-5.7-4-9.1-4
	c-6.4,0-11.3,5.2-11.3,11.9v0.1c0,6.7,4.9,12,11.3,12c4,0,6.6-1.5,9.4-4.2l2.2,2.1c-3,3.1-6.4,5.1-11.6,5.1
	C105.7,30.1,99.5,23.5,99.5,15.1"/>
<path class="st0" d="M139,0.3h3.1l13.3,29.3h-3.5l-3.4-7.7h-15.8l-3.5,7.7h-3.4L139,0.3z"/>
<path class="st2" d="M147.1,18.9l-6.6-14.8l-6.7,14.8H147.1z"/>
<path class="st0" d="M155.9,25.4l2-2.4c3,2.7,5.9,4.1,10,4.1c3.9,0,6.5-2.1,6.5-4.9V22c0-2.7-1.5-4.2-7.6-5.5
	c-6.7-1.5-9.8-3.6-9.8-8.4V8c0-4.6,4-7.9,9.6-7.9c3.7-0.1,7.4,1.2,10.2,3.6L175,6.2c-2.3-2-5.3-3.2-8.4-3.2c-3.8,0-6.2,2.1-6.2,4.7
	v0.1c0,2.7,1.5,4.3,7.9,5.7c6.5,1.4,9.5,3.8,9.5,8.2v0.1c0,5-4.2,8.2-9.9,8.2C163.4,30.1,159.1,28.4,155.9,25.4"/>
<path class="st0" d="M188.4,3.5h-9.8v-3h22.9v3h-9.8v26.1h-3.3L188.4,3.5z"/>
<path class="st0" d="M194.8,27.8h0.3c0.1,0,0.2,0,0.3-0.1c0.1-0.1,0.1-0.2,0-0.3c0,0-0.1-0.1-0.1-0.1c-0.1,0-0.2,0-0.3,0h-0.3
	L194.8,27.8z M194.5,28.8V27h0.6c0.2,0,0.3,0,0.5,0c0.1,0,0.2,0.1,0.2,0.2c0.1,0.1,0.1,0.2,0.1,0.3c0,0.1,0,0.3-0.1,0.3
	c-0.1,0.1-0.2,0.2-0.4,0.2c0.1,0,0.1,0.1,0.2,0.1c0.1,0.1,0.2,0.2,0.3,0.4l0.2,0.3h-0.4l-0.2-0.3c-0.1-0.2-0.2-0.3-0.3-0.4
	c-0.1,0-0.1-0.1-0.2-0.1h-0.2v0.8L194.5,28.8z M195.1,26.5c-0.2,0-0.5,0.1-0.7,0.2c-0.2,0.1-0.4,0.3-0.5,0.5c-0.2,0.4-0.2,1,0,1.4
	c0.1,0.2,0.3,0.4,0.5,0.5c0.4,0.2,0.9,0.2,1.4,0c0.2-0.1,0.4-0.3,0.5-0.5c0.2-0.4,0.2-0.9,0-1.4c-0.1-0.2-0.3-0.4-0.5-0.5
	C195.6,26.6,195.4,26.5,195.1,26.5 M195.1,26.2c0.3,0,0.6,0.1,0.8,0.2c0.3,0.1,0.5,0.4,0.6,0.6c0.3,0.5,0.3,1.1,0,1.7
	c-0.1,0.3-0.4,0.5-0.6,0.6c-0.5,0.3-1.1,0.3-1.6,0c-0.3-0.1-0.5-0.4-0.6-0.6c-0.3-0.5-0.3-1.1,0-1.7c0.1-0.3,0.4-0.5,0.6-0.6
	C194.6,26.3,194.8,26.2,195.1,26.2"/>
</svg>
