<svg xmlns:xlink="http://www.w3.org/1999/xlink" xmlns="http://www.w3.org/2000/svg" width="201.493" height="30.111"><path d="M15.5 22.831 6.948.498H24.72Z" fill="#51788f"/><path d="M0 .499h8.984l6.612 18.424L22.25.499h8.817L19.256 29.82H11.77Z" fill="#e77c22"/><path d="M32.188.499h23.415v6.82h-15.43v4.45h13.974v6.364H40.173v4.619h15.638v6.863H32.188Z" fill="#e77c22"/><path d="M72.26 14.473c2.7 0 4.325-1.331 4.325-3.452v-.083c0-2.329-1.7-3.494-4.367-3.494h-5.322v7.029ZM58.826.499h13.766c4.45 0 7.527 1.165 9.483 3.119a9.093 9.093 0 0 1 2.579 6.779v.084a9.222 9.222 0 0 1-5.989 8.983l6.946 10.148h-9.275l-5.864-8.817h-3.576v8.817h-8.069Z" fill="#e77c22"/><path fill="#e77c22" d="M88.365.499h8.069v29.113h-8.069z"/><path d="M99.472 15.139v-.083C99.472 6.82 105.627 0 114.195 0a15.152 15.152 0 0 1 11.354 4.617l-2.246 2.412a12.651 12.651 0 0 0-9.149-3.992c-6.447 0-11.27 5.241-11.27 11.936v.084c0 6.738 4.866 12.019 11.27 12.019 3.992 0 6.612-1.538 9.4-4.2l2.164 2.121c-3.036 3.077-6.364 5.116-11.645 5.116-8.4 0-14.6-6.612-14.6-14.972" fill="#51788f"/><path d="M138.954.291h3.077l13.267 29.324h-3.535l-3.411-7.694h-15.845l-3.451 7.694h-3.369Z" fill="#51788f"/><path d="m147.064 18.923-6.612-14.807-6.655 14.807Z" fill="#bfb9a7"/><path d="m155.906 25.369 2.038-2.412c3.036 2.744 5.947 4.117 9.982 4.117 3.908 0 6.487-2.08 6.487-4.949v-.083c0-2.7-1.455-4.243-7.569-5.532-6.7-1.455-9.774-3.619-9.774-8.4v-.083c0-4.575 4.034-7.945 9.566-7.945a15.192 15.192 0 0 1 10.231 3.578l-1.913 2.537a12.787 12.787 0 0 0-8.4-3.161c-3.786 0-6.2 2.08-6.2 4.7v.084c0 2.744 1.5 4.283 7.9 5.656 6.488 1.414 9.483 3.784 9.483 8.234v.084c0 4.99-4.159 8.234-9.94 8.234a17.036 17.036 0 0 1-11.895-4.658" fill="#51788f"/><path d="M188.392 3.535h-9.774V.499h22.874v3.036h-9.774v26.077h-3.327Z" fill="#51788f"/><path d="M194.77 27.75h.349a.56.56 0 0 0 .341-.074.256.256 0 0 0 .046-.338.263.263 0 0 0-.122-.094.924.924 0 0 0-.287-.03h-.327Zm-.287 1v-1.779h.612a1.492 1.492 0 0 1 .454.05.439.439 0 0 1 .223.172.454.454 0 0 1 .084.26.47.47 0 0 1-.14.34.547.547 0 0 1-.369.163.463.463 0 0 1 .151.094 2.012 2.012 0 0 1 .263.353l.218.348h-.352l-.157-.28a1.433 1.433 0 0 0-.3-.414.365.365 0 0 0-.23-.062h-.169v.756Zm.65-2.241a1.4 1.4 0 0 0-.678.179 1.29 1.29 0 0 0-.517.511 1.372 1.372 0 0 0 0 1.376 1.3 1.3 0 0 0 .511.51 1.373 1.373 0 0 0 1.373 0 1.285 1.285 0 0 0 .51-.51 1.381 1.381 0 0 0 0-1.376 1.28 1.28 0 0 0-.516-.511 1.412 1.412 0 0 0-.678-.179m0-.274a1.7 1.7 0 0 1 .813.214 1.509 1.509 0 0 1 .618.611 1.662 1.662 0 0 1 0 1.651 1.535 1.535 0 0 1-.612.612 1.654 1.654 0 0 1-1.645 0 1.538 1.538 0 0 1-.613-.612 1.653 1.653 0 0 1 0-1.651 1.526 1.526 0 0 1 .619-.611 1.7 1.7 0 0 1 .813-.214" fill="#51788f"/></svg>