<?xml version="1.0" encoding="utf-8"?>
<!-- Generator: Adobe Illustrator 27.1.1, SVG Export Plug-In . SVG Version: 6.00 Build 0)  -->
<svg version="1.1" id="Layer_1" xmlns="http://www.w3.org/2000/svg" xmlns:xlink="http://www.w3.org/1999/xlink" x="0px" y="0px"
	 viewBox="0 0 158 48" style="enable-background:new 0 0 158 48;" xml:space="preserve">
<style type="text/css">
	.st0{fill:#FFFFFF;}
</style>
<g>
	<g>
		<path class="st0" d="M30.1,30.4c6.2,1.1,10.7-4.9,13.7-10.1c1.2-2.1,2.9-7.5,1-9.6c-1.8-2-3.2,0.6-4.3,1.5l0.8,1
			c1.7,2.1,0.2,6.1-0.8,8.2C39,24,36.2,28,33,27.4c-0.7-0.2-1.3-0.9-1.5-1.6c1.8-1.7,3.8-4.8,5-6.8c1-1.6,2.7-4.8,1.1-6.1
			c-1.3-0.9-3.9,0.4-5.3,1.6c-0.8,0.8-1.4,1.4-2.1,2.3c-1.8,2.4-3.5,6.6-3.3,9.8c-0.9,0.6-1.8,1.2-3,0.9c-1.2-0.3-1.4-1.2-1.5-2
			c-0.7-4.6,3.9-10.5,6.5-13.9c0,0-2.1,0.6-3.6,0.6c-3.5,0.1-6-1.5-7.9,0.8c-0.6,0.8-0.9,1.7-1,2.7c0.8-0.7,1.9-0.5,3-0.4
			c1.9,0.2,2.8,0.4,4.5-0.1c-1.5,2.1-4,6.3-4.5,8.9c-0.2,1.7-0.2,4.5,1.3,5.7c2.5,1.6,4.9,0.5,7.1-1C28.4,29.6,29.2,30.2,30.1,30.4z
			 M34.3,15.9c0.7-0.3,0.5,0.7,0.5,0.7c-0.1,1.1-0.9,2.4-1.5,3.4c-0.6,1-2.6,3.5-3.5,4c0-1.5,1.6-4.7,2.4-5.9
			C32.6,17.3,33.6,16.2,34.3,15.9z"/>
		<path class="st0" d="M133.1,18.8c-0.3,0.5-1.5,1.7-1.9,2.1c0,0-0.2,0.2-0.2,0.2c-3.1,3.2-5.5,5-6.9,5.3c-0.9,0.2-1.4,0.3-1.8-0.6
			c0,0,0,0,0,0c0,0,0-0.4,0-0.4c0-1.1,1.5-3.7,3.5-5.4c0.8-0.7,0.8-1,0.9-1c-0.3-0.4-0.5-0.6-0.8-0.8c-0.5,0-1.4,0.6-1.9,0.9
			c-0.4,0.3-1.5,1.3-2.7,2.4c-1,0.9-2,1.8-2.6,2.3c0,0-0.8,0.6-1,0.8c0-0.2,0-0.5,0-0.5c0-0.6,0.6-1.6,1.5-2.9
			c0.3-0.5,1.1-1.9,1.2-2.1l0,0l0,0c-0.3-0.4-0.7-0.7-1.1-0.8c0,0-0.4,0.3-0.4,0.3c-0.7,0.5-2.1,1.8-3.4,3.1
			c-1.3,1.1-2.4,2.2-2.7,2.4c-2.3,1.7-4.3,2.8-6.3,3.5c-0.4,0.1-1.6,0.4-2.2-0.3c0,0-0.1-0.2-0.2-0.2c0.1,0,0.3-0.1,0.3-0.1
			c1.7-0.7,3.9-1.7,5.5-3.1c0,0,2.4-2.1,2.4-4.1c0-0.1,0-0.2,0-0.3c-0.1-0.7-0.8-0.9-1.7-1.1c-2.9,0-5.5,1.8-6.9,3.3l-0.2,0.3
			c-0.6,0.7-2.5,2.8-3.3,4.6c0,0,0,0.1,0,0.1c0,0-0.1,0-0.1,0c-1.3,0.6-2.7,1.1-4.3,1.2c-0.9,0.1-2.1,0.2-2.7-0.4
			c0,0-0.2-0.1-0.2-0.2c0.1-0.1,3.3-1.8,3.3-1.8c2.6-1.6,4.4-4,4.4-5.2c-0.1-1.5-1.4-1.8-2.6-1.8c-1.7,0-3.2,0.6-5.2,2.1
			c-1.1,0.8-3.5,3.6-4.2,6.4c0,0,0,0.1,0,0.1c-0.1,0-0.2,0.1-0.2,0.1c-1.2,0.3-3.3,0.8-3.7-0.4c-0.6-2,1.4-3.9,3-5.4
			c0,0,0.9-0.9,0.9-0.9c0.1-0.1,0.3-0.5,0.2-0.7c0-0.1-0.1-0.2-0.2-0.3c-0.9-0.4-1.7-0.1-2.5,0.2c-0.6,0.2-1.3,0.5-2,0.4
			c0,0-0.1,0-0.2,0c0-0.1,0-0.2,0-0.2c0-0.4,0.3-0.7,0.5-0.9c0,0,0.1-0.1,0.1-0.1c0,0,0.1-0.1,0.1-0.2c0-0.1,0-0.2-0.1-0.3
			C84,18.1,83.9,18,83.8,18c-0.5-0.1-1.4,0.4-2.1,1.2c-0.8,0.8-1.2,1.6-1.2,2.2l0,0.1c0,0,0,0,0,0c-0.1,1.3-1.2,2.5-2.8,4.2L77,26.5
			c0,0-0.3,0.3-0.3,0.3c-0.9,0.9-1.5,1.7-1.7,2.1L75,29l0.1,0c0.7-0.2,2.6-1.1,6-5.4c0,0,0.1-0.1,0.1-0.1c0,0,0.1,0,0.1,0
			c0.2,0,0.4-0.1,0.6-0.1c0.3-0.1,0.7-0.3,1.1,0c0,0,0.1,0.1,0.2,0.1c-0.1,0.1-0.7,0.8-0.7,0.8c-0.9,1.2-1.9,2.4-1.9,3.9
			c0,0.3,0,0.6,0.1,0.9c0.2,0.9,1.1,1.3,1.8,1.4c1.4,0.2,3.2-0.5,4.7-1.2l0.8-0.3c0.4-0.1,0.6,0.2,0.7,0.3c0.1,0.2,0.3,0.6,0.9,0.9
			c2.3,1,5.6,0.5,9.9-1.5c0,0,0.1-0.1,0.2-0.1c0,0.1,0.1,0.2,0.1,0.2c0.3,0.8,0.9,1.4,1.9,1.6c3.7,0.5,6.8-1.6,9.8-3.7
			c0,0,1.4-1,1.6-1.2c0.1,0.1,0.3,0.3,0.3,0.4c0,0.1-1.3,1.8-1.3,1.8c-0.4,0.6-0.8,1.2-1.1,1.9c0,0-0.1,0.3-0.1,0.3l0,0.1
			c0.1,0.1,0.2,0.2,0.5,0.2c2.3-0.3,4.4-2.2,5.9-3.4l0.4-0.4c0.6-0.5,1.2-1,1.4-1.1c0,0,0.1,0,0.1,0c0,0,0.1,0.1,0.1,0.1
			c0,0,0,0,0,0c0,0.1-0.2,0.4-0.3,0.6l-0.2,0.4c-0.2,0.4-0.6,1.2-0.6,1.9c0,0.3,0.1,0.5,0.2,0.7c0.7,1,1.3,1.1,1.9,1.1l0.2,0
			c2.7-0.2,5.3-2.5,7.8-4.7l1.9-1.6c0,0,1.5-1.3,1.8-1.6c0,0.1,0.1,0.3,0.1,0.3c0.2,0.5,0.2,0.9,0.2,1.2l0,0.5c0,0.2-0.4,1.9-1,2.3
			c0,0-0.1,0.1-0.1,0.1c0,0-0.4,0.1-0.4,0.1c-1.4,0.4-3,0.8-3.6,2.1c0,0-0.1,0.3-0.1,0.3c0,0.2,0.1,0.5,0.4,0.7c1,0.3,2,0,2.9-0.2
			l1.2-0.2c0.9,0,1.9,0.1,2.7,0.2c1.2,0.1,2.4,0.3,3.6,0.2c1.6-0.4,2.9-2.2,3.3-3.7l0-0.1l-0.1,0.1c-2,1-4.3,1-6.1,0.1
			c0,0-0.1-0.1-0.2-0.1c0-0.1,0.1-0.2,0.1-0.2c0,0,1.1-2.8,1.1-6.4c0-0.2,0-0.3,0-0.5h0c0-0.1,0-0.2,0-0.2c0-0.3,0.2-0.6,0.3-0.8
			c0.2-0.2,0.3-0.5,0.3-0.7c0,0,0-0.1,0-0.1c0,0,0,0,0,0c0,0,0-0.1,0-0.1c0,0,0,0,0,0c0-0.1-0.1-0.1-0.2-0.2
			C135,16.3,134.1,17.4,133.1,18.8z M92.3,24.9c0.1-0.8,1.4-2.5,2-3.2c0.6-0.6,1.4-1.1,2.2-1.4c0.4-0.1,0.7,0,0.9,0.2
			c0.1,0.1,0.1,0.2,0.1,0.3c0,0.2-0.1,0.3-0.2,0.5c-0.8,1.3-3,3.2-4.8,3.8c0,0-0.2,0.1-0.3,0.1C92.3,25.2,92.3,24.9,92.3,24.9z
			 M104.2,24.6c0.2-1.3,2-3.1,2-3.2c0.6-0.6,1.4-1.1,2.2-1.4c0.3-0.1,0.6-0.1,0.8,0.1c0.1,0.1,0.2,0.2,0.2,0.4c0,0.1,0,0.3-0.1,0.5
			c-0.2,0.5-1.7,1.9-2.1,2.3c-0.5,0.4-1.8,1.3-2.7,1.5c0,0-0.2,0-0.3,0C104.2,24.8,104.2,24.6,104.2,24.6z"/>
		<path class="st0" d="M68,12.8L68,12.8c-2,0.2-3.9,1.3-6.1,3.6c-0.9,0.9-5.1,6.1-5.8,10.1c0,0,0,0.1,0,0.1c0,0-0.1,0.1-0.1,0.1
			c-0.6,0.3-2.4,1.1-3.6,0.8c-0.3-0.1-0.6-0.3-0.8-0.5c-0.2-0.3-0.3-0.7-0.3-1.1c0-0.9,0.5-1.6,0.9-2.3c0,0,0.2-0.4,0.2-0.4
			c0,0,0.1,0,0.1,0c1.1-0.3,2.8-2.4,3.2-3.6l0,0l0,0c-1.3-0.8-2.9-0.8-4.1-0.6c-2,0.2-4.2,1.1-6,2.3c-2.1,1.5-4,4.4-4.4,6.3
			c-0.2,1.1-0.3,2.1,0.4,2.6c1.5,0.9,4.5-0.7,6.6-2.7c0,0,0.3-0.3,0.4-0.4c0,0.2-0.1,0.8-0.1,0.8c0,0.3,0,0.5,0,0.8
			c0,0.5,0.1,1.1,0.5,1.4c1.7,1.3,5.2-0.1,7.1-1.4c0,0,0.1-0.1,0.2-0.1c0,0.1,0.1,0.2,0.1,0.2c0.6,0.8,1.3,1.6,2.2,1.7
			c2.2,0.3,3.8-0.9,5.3-2.3c0,0,0.2-0.2,0.3-0.3c0,0.2,0.1,0.7,0.1,0.7c0.1,0.6,0.2,1.1,0.6,1.4c1.1,0.8,3.5-0.3,4.9-1.3
			c0,0,0.3-0.2,0.5-0.4c0,0.2-0.2,0.6-0.2,0.6c-0.2,0.9-0.7,1.8-1.1,2.6l-0.4,0.8l-0.1,0.1l-0.1,0.2c-0.6,0.9-1.7,2.7-2.7,2.8
			l-0.1,0c-0.3-0.1-0.4-0.3-0.5-0.5l-0.1-0.4c0-0.5,0.2-1,0.5-1.5l0-0.1l-0.1,0c-0.5,0.1-0.9,0.3-1.4,0.5c-1,0.6-2,1.9-2,3.1
			c0,0.2,0,0.5,0.1,0.7c0.2,0.4,0.7,0.5,1,0.4c6.7-0.6,10.4-8.2,13.2-13.7l0.5-1.1c0.2-0.2,0.2-0.4,0.2-0.4l0-0.1
			c0,0-0.1-0.1-0.1-0.1c0,0-0.1-0.4-0.1-0.4c0.1-0.5,1.4-1.7,1.4-1.7c0,0,0.2-0.1,0.2-0.1c0.1-0.1,0.2-0.2,0.2-0.2
			c0-0.1-0.1-0.2-0.2-0.3c-0.3-0.2-0.5-0.3-1.6-0.6c-2-0.6-5.5-0.1-8.6,2.9c-0.3,0.3-0.9,1.1-1.4,1.7l-0.6,0.8
			c-1.5,1.8-3.1,3.6-5.7,3.1c-0.3-0.1-0.7-0.4-0.8-0.8c-0.1-0.2-0.1-0.4,0-0.6l0-0.1c1.4-1,2.9-2.3,4.4-3.9c2.6-2.7,5.7-7.3,5.3-8.5
			C69.2,12.9,68.3,12.8,68,12.8z M46.9,21.8c1.4-0.7,3.2-0.6,4.5,0.1c0,0,0.2,0.1,0.2,0.1c-0.1,0.1-1,1.4-1,1.4
			c-1.5,1.8-4.4,3.6-5.6,3.5v0c-0.6,0-1-0.3-1.1-0.8l0-0.4c0-1.2,1.6-3.1,2.5-3.7C46.4,22.1,46.9,21.8,46.9,21.8z M63.7,17.4
			c0.7-0.8,1.8-1.6,2.2-1.7c0.3-0.1,0.4,0,0.4,0.1c0.1,0.1,0.1,0.2,0.1,0.3c0,0.1,0,0.2-0.1,0.3l0,0c-0.6,2.1-4.4,6.5-6.6,8.1
			c0,0-0.3,0.2-0.4,0.3c0-0.2,0.1-0.5,0.1-0.5C59.5,22.7,62.3,19,63.7,17.4z M67.9,26.9L67.9,26.9c-0.6-0.4-0.8-1.1-0.6-1.8
			c0.2-0.8,2.5-3.3,4.3-3.7c1.6-0.3,2.3,0.2,2.6,0.5c0,0,0.2,0.1,0.3,0.2c-0.1,0.1-0.9,1-0.9,1C72.4,24.8,69.4,27.6,67.9,26.9z"/>
	</g>
</g>
</svg>
