<?xml version="1.0" encoding="utf-8"?>
<!-- Generator: Adobe Illustrator 27.1.1, SVG Export Plug-In . SVG Version: 6.00 Build 0)  -->
<svg version="1.1" id="Layer_1" xmlns="http://www.w3.org/2000/svg" xmlns:xlink="http://www.w3.org/1999/xlink" x="0px" y="0px"
	 viewBox="0 0 158 48" style="enable-background:new 0 0 158 48;" xml:space="preserve">
<style type="text/css">
	.st0{fill:#FFFFFF;}
</style>
<g>
	<g>
		<path class="st0" d="M88.8,24.5c0-3-1.3-5.6-5.6-5.6c-2.2,0-3.9,0.6-4.9,1.2l0.7,2.4c0.9-0.5,2.3-1,3.6-1c2.2,0,2.5,1.2,2.5,2v0.2
			c-4.7,0-7.7,1.6-7.7,5c0,2,1.5,3.9,4.2,3.9c1.6,0,3-0.7,3.8-1.7h0.1c0,0,0.5,2.3,3.5,1.4c-0.2-0.9-0.2-1.9-0.2-3.2V24.5L88.8,24.5
			z M85.3,27.6c0,0.2,0,0.5-0.1,0.7C84.9,29.2,84,30,82.8,30c-1,0-1.8-0.6-1.8-1.7c0-1.8,2-2.3,4.2-2.3"/>
		<path class="st0" d="M16.3,14.9c0,0,3.1,12.7,3.6,14.7c0.6,2.4,1.6,3.3,4.6,2.7l1.9-7.8c0.5-1.9,0.8-3.3,1.1-5.3h0.1
			c0.2,2,0.5,3.4,0.9,5.3c0,0,0.8,3.6,1.2,5.4c0.4,1.9,1.5,3,4.5,2.4l4.6-17.4h-3.7l-1.6,7.5c-0.4,2.2-0.8,3.9-1.1,5.9h-0.1
			c-0.3-2-0.6-3.6-1-5.8l-1.6-7.7h-3.9l-1.7,7.5c-0.5,2.3-1,4.1-1.3,6h-0.1c-0.3-1.8-0.7-4.1-1.1-6.3c0,0-1-5.3-1.4-7.2"/>
		<path class="st0" d="M49.2,24.5c0-3-1.3-5.6-5.6-5.6c-2.2,0-3.9,0.6-4.9,1.2l0.7,2.4c0.9-0.5,2.3-1,3.6-1c2.2,0,2.5,1.2,2.5,2v0.2
			c-4.7,0-7.7,1.6-7.7,5c0,2,1.5,3.9,4.2,3.9c1.6,0,3-0.7,3.8-1.7h0.1c0,0,0.5,2.3,3.5,1.4c-0.2-0.9-0.2-1.9-0.2-3.2V24.5L49.2,24.5
			z M45.6,27.6c0,0.2,0,0.5-0.1,0.7c-0.3,0.9-1.2,1.7-2.4,1.7c-1,0-1.8-0.6-1.8-1.7c0-1.8,2-2.3,4.2-2.3"/>
		<path class="st0" d="M51.1,14.9v17.4h3.5v-3.7V14.9H51.1z"/>
		<path class="st0" d="M99.6,14.9v12.8c0,1.8,0.3,3,1,3.8c0.6,0.7,1.7,1.1,2.9,1.1c1.1,0,2.1-0.2,2.6-0.4l0-2.8
			c-0.4,0.1-0.8,0.2-1.3,0.2c-1.2,0-1.6-0.8-1.6-2.4v-4.9h3.1V19h-3.1v-4.1"/>
		<path class="st0" d="M90.5,19.2v13.1h3.7v-6.7c0-0.4,0-0.7,0.1-1c0.3-1.4,1.3-2.3,2.9-2.3c0.4,0,0.7,0,1,0.1V19
			c-0.3,0-0.5-0.1-0.8-0.1c-1.4,0-2.9,0.9-3.6,2.8h-0.1v-2.5"/>
		<path class="st0" d="M56.7,19.2v13.1h3.6v-7.7c0-0.4,0-0.7,0.2-1.1c0.3-0.8,1-1.7,2.2-1.7c1.4,0,2.1,1.2,2.1,3v7.4h3.6v-7.8
			c0-0.3,0-0.8,0.1-1.1c0.3-0.9,1.1-1.6,2.1-1.6c1.4,0,2.2,1.2,2.2,3.2v7.2h3.5v-7.7c0-4-2.1-5.7-4.4-5.7c-1,0-1.8,0.3-2.6,0.7
			c-0.6,0.4-1.2,0.9-1.7,1.6h-0.1c-0.6-1.4-1.9-2.3-3.6-2.3c-2.2,0-3.2,1.1-3.8,2.1h-0.1v-1.8"/>
		<path class="st0" d="M125.3,18.6c0.7,0,1.3-0.4,1.4-0.8l0.7-7.8c0-0.8-0.9-1.4-2.1-1.4c-1.1,0-2.1,0.6-2.1,1.4l0.7,7.8
			C124.1,18.2,124.6,18.6,125.3,18.6z"/>
		<path class="st0" d="M121.1,21.1c0.3-0.6,0.3-1.3,0-1.6l-6.5-4.5c-0.7-0.4-1.7,0.1-2.3,1.1c-0.6,1-0.5,2.1,0.2,2.5l7.2,3.3
			C120.1,22,120.7,21.7,121.1,21.1"/>
		<path class="st0" d="M129.6,21.1c0.4,0.6,1,0.9,1.4,0.8l7.2-3.3c0.7-0.4,0.8-1.5,0.2-2.5c-0.6-1-1.6-1.5-2.3-1.1l-6.5,4.5
			C129.3,19.8,129.3,20.4,129.6,21.1"/>
		<path class="st0" d="M125.3,28.4c0.7,0,1.3,0.4,1.4,0.8l0.7,7.8c0,0.8-0.9,1.4-2.1,1.4c-1.1,0-2.1-0.6-2.1-1.4l0.7-7.8
			C124.1,28.8,124.6,28.4,125.3,28.4z"/>
		<path class="st0" d="M129.6,26c0.4-0.6,1-0.9,1.4-0.8l7.2,3.3c0.7,0.4,0.8,1.5,0.2,2.5c-0.6,1-1.6,1.4-2.3,1.1l-6.5-4.5
			C129.3,27.2,129.3,26.6,129.6,26"/>
		<path class="st0" d="M121.1,26c0.3,0.6,0.3,1.3,0,1.6l-6.5,4.5c-0.7,0.4-1.7-0.1-2.3-1.1c-0.6-1-0.5-2.1,0.2-2.5l7.2-3.3
			C120.1,25,120.7,25.3,121.1,26z"/>
		<path class="st0" d="M140.3,31.4L140.3,31.4c0.2,0,0.3,0,0.3,0.1c0,0.1,0,0.2,0.1,0.2h0.2c0,0,0-0.1-0.1-0.2
			c0-0.1-0.1-0.2-0.2-0.2v0c0.1,0,0.2-0.1,0.2-0.2c0-0.1,0-0.2-0.1-0.2c-0.1,0-0.2-0.1-0.3-0.1c-0.1,0-0.2,0-0.3,0v0.9h0.2V31.4
			L140.3,31.4z M140.3,31l0.1,0c0.1,0,0.2,0.1,0.2,0.1c0,0.1-0.1,0.1-0.2,0.1h-0.1V31L140.3,31z M140.4,30.4c-0.5,0-0.9,0.4-0.9,0.9
			c0,0.5,0.4,0.9,0.9,0.9c0.5,0,0.9-0.4,0.9-0.9C141.3,30.8,140.9,30.4,140.4,30.4z M140.4,30.6c0.4,0,0.7,0.3,0.7,0.7
			c0,0.4-0.3,0.7-0.7,0.7c-0.4,0-0.7-0.3-0.7-0.7C139.7,30.9,140,30.6,140.4,30.6"/>
	</g>
</g>
</svg>
