<svg width="53" height="52" viewBox="0 0 53 52" fill="none" xmlns="http://www.w3.org/2000/svg">
<path d="M26.5001 33.9992C29.1521 33.9992 31.3001 32.2088 31.3001 30.0008C31.3001 27.7928 29.1521 26 26.5001 26C23.8481 26 21.7001 24.2096 21.7001 21.9992C21.7001 19.7912 23.8481 18.0008 26.5001 18.0008M26.5001 33.9992C23.8481 33.9992 21.7001 32.2088 21.7001 30.0008M26.5001 33.9992V35.6M26.5001 18.0008V16.4M26.5001 18.0008C29.1521 18.0008 31.3001 19.7912 31.3001 21.9992" stroke="#F26B21" stroke-width="3.6" stroke-linecap="round"/>
<path d="M38.5 5.21123C34.8531 3.10139 30.7132 1.99354 26.5 2.00003C13.2448 2.00003 2.5 12.7448 2.5 26C2.5 29.84 3.4024 33.4688 5.0032 36.6872C5.4304 37.5416 5.572 38.5184 5.3248 39.4424L3.8968 44.7848C3.7559 45.3134 3.75643 45.8697 3.89834 46.3979C4.04025 46.9262 4.31855 47.4079 4.70534 47.7947C5.09213 48.1815 5.57381 48.4598 6.10208 48.6017C6.63036 48.7436 7.18666 48.7441 7.7152 48.6032L13.0576 47.1752C13.985 46.9418 14.9657 47.0554 15.8152 47.4944C19.1342 49.1471 22.7923 50.005 26.5 50C39.7552 50 50.5 39.2552 50.5 26C50.5 21.6296 49.3312 17.528 47.2888 14" stroke="#F26B21" stroke-width="3.6" stroke-linecap="round"/>
</svg>
