<svg width="53" height="50" viewBox="0 0 53 50" fill="none" xmlns="http://www.w3.org/2000/svg">
<path d="M16.3949 39.8953C17.3999 39.8953 18.3638 40.2945 19.0745 41.0052C19.7851 41.7159 20.1844 42.6797 20.1844 43.6848C20.1844 44.6898 19.7851 45.6537 19.0745 46.3644C18.3638 47.0751 17.3999 47.4743 16.3949 47.4743C15.3898 47.4743 14.4259 47.0751 13.7153 46.3644C13.0046 45.6537 12.6053 44.6898 12.6053 43.6848C12.6053 42.6797 13.0046 41.7159 13.7153 41.0052C14.4259 40.2945 15.3898 39.8953 16.3949 39.8953ZM39.132 39.8953C40.137 39.8953 41.1009 40.2945 41.8116 41.0052C42.5223 41.7159 42.9215 42.6797 42.9215 43.6848C42.9215 44.6898 42.5223 45.6537 41.8116 46.3644C41.1009 47.0751 40.137 47.4743 39.132 47.4743C38.127 47.4743 37.1631 47.0751 36.4524 46.3644C35.7417 45.6537 35.3425 44.6898 35.3425 43.6848C35.3425 42.6797 35.7417 41.7159 36.4524 41.0052C37.1631 40.2945 38.127 39.8953 39.132 39.8953Z" stroke="#F26B21" stroke-width="3.78952"/>
<path d="M25.2371 21.7055L28.1247 24.7371L35.3425 17.1581" stroke="#F26B21" stroke-width="3.78952" stroke-linecap="round" stroke-linejoin="round"/>
<path d="M2.5 2L3.15938 2.23242C6.44868 3.38697 8.09333 3.9655 9.03314 5.34236C9.97294 6.71922 9.97294 8.54577 9.97294 12.2014V19.0781C9.97294 26.5106 10.1321 28.9612 12.3224 31.2703C14.5103 33.5794 18.032 33.5794 25.0805 33.5794H27.7635M38.4752 33.5794C42.4188 33.5794 44.3919 33.5794 45.7865 32.4425C47.1785 31.3056 47.5776 29.3755 48.3734 25.5127L49.6366 19.3889C50.5132 14.993 50.9503 12.7976 49.8286 11.3399C48.7094 9.88221 44.877 9.88221 40.6201 9.88221H25.2978M9.97294 9.88221H15.1317" stroke="#F26B21" stroke-width="3.78952" stroke-linecap="round"/>
</svg>
