<svg width="121" height="107" viewBox="0 0 121 107" fill="none" xmlns="http://www.w3.org/2000/svg">
<g clip-path="url(#clip0_1067_13274)">
<path d="M97.1585 85.3842L60.4981 102.956L23.8416 85.3842V1.07947H97.1585V85.3842Z" fill="#FDD86F"/>
<path fill-rule="evenodd" clip-rule="evenodd" d="M60.0811 103.937C60.2126 103.998 60.3543 104.031 60.498 104.034C60.643 104.032 60.7862 103.999 60.9188 103.937L97.5753 86.3581C97.7535 86.2752 97.9056 86.1398 98.0135 85.9679C98.1215 85.796 98.1809 85.5949 98.1847 85.3883V1.07942C98.1847 0.793143 98.0776 0.518587 97.887 0.316156C97.6964 0.113725 97.4379 0 97.1684 0L23.8415 0C23.5723 0.00055843 23.3143 0.11453 23.1241 0.3169C22.934 0.519271 22.8271 0.793508 22.8271 1.07942V85.4094C22.8306 85.6161 22.8899 85.8173 22.998 85.9892C23.106 86.1611 23.2582 86.2965 23.4365 86.3792L60.0811 103.937ZM60.498 101.772L24.8538 84.6947V2.15885H96.1461V84.6947L60.498 101.772Z" fill="#FDD86F"/>
<path d="M26.2017 3.7948H95.0088V84.1655L60.6032 100.65L26.2017 84.1655V3.7948Z" fill="#E9C05B"/>
<path d="M47.7922 97.9155C46.2965 95.6765 44.6372 93.5659 42.8297 91.6034C40.152 88.7383 37.6053 86.2716 36.579 85.2892C36.315 85.0383 36.0967 85.1374 36.1086 85.5127C36.1543 86.805 36.5056 89.8051 38.9471 92.9464C40.813 95.4025 43.6575 97.0279 45.7357 97.9471C46.0613 98.0926 46.0394 98.158 45.698 98.08C42.2713 97.4036 38.9373 96.2761 35.7731 94.7236C35.4204 94.5203 35.1578 94.1769 35.0427 93.7686C34.4169 91.2282 33.5799 88.7518 32.5416 86.3686C30.9933 82.8921 29.3438 79.8331 28.663 78.5807C28.4823 78.2582 28.2422 78.2814 28.1508 78.6461C27.5232 81.2584 27.6928 84.015 28.6352 86.5183C29.6277 89.375 31.6523 91.7236 33.2006 93.2015C33.4646 93.4502 33.4329 93.5051 33.1212 93.3237C29.9405 91.4668 27.004 89.173 24.3873 86.5014C24.2527 86.3466 24.1482 86.165 24.0801 85.9671C24.0119 85.7691 23.9814 85.5588 23.9903 85.3482C24.1948 82.8919 24.1675 80.42 23.909 77.9694C23.5848 75.2074 23.1136 72.4672 22.4976 69.7619C22.4143 69.3951 22.192 69.3403 21.9915 69.6671C20.7681 71.8566 20.2018 74.39 20.3678 76.93C20.4928 79.7403 21.5846 82.4114 22.4976 84.1908C22.6703 84.5134 22.6187 84.5619 22.3825 84.2836C19.9452 81.431 17.8533 78.2658 16.1557 74.8618C16.0743 74.6692 16.0298 74.4614 16.0247 74.2504C16.0196 74.0394 16.054 73.8294 16.1259 73.6327C17.0405 71.3922 17.7318 69.0562 18.1883 66.6628C18.665 63.9452 18.9865 61.1995 19.151 58.4406C19.1708 58.0654 18.9525 57.9431 18.6905 58.1855C16.9097 59.8604 15.6545 62.0742 15.0937 64.5293C14.4168 67.27 14.6808 70.1541 15.0401 72.1422C15.1076 72.5111 15.0401 72.5322 14.9031 72.1906C13.6623 69.2832 12.6962 66.2521 12.019 63.142C11.9909 62.9358 12.0019 62.7257 12.0513 62.524C12.1007 62.3224 12.1876 62.1332 12.3068 61.9677C13.6492 60.1815 14.8022 58.2436 15.7448 56.189C16.7886 53.8176 17.6883 51.3776 18.4384 48.8839C18.5436 48.5255 18.3649 48.3506 18.0414 48.5171C16.0587 49.6217 14.4353 51.3349 13.3826 53.4335C12.1619 55.7758 11.755 58.5165 11.6398 60.4308C11.614 60.804 11.5545 60.8103 11.493 60.4308C10.9869 57.2533 10.7854 54.0295 10.8915 50.8088C10.9376 50.3934 11.1367 50.0144 11.4453 49.7546C12.9227 48.5868 14.264 47.2365 15.4411 45.7321C16.7996 43.9337 18.0361 42.035 19.1411 40.0504C19.3197 39.7278 19.1827 39.517 18.8374 39.614C16.9764 40.1878 15.3058 41.3081 14.0178 42.8459C12.5648 44.5199 11.6736 46.6408 11.1754 48.1967C11.0602 48.5551 10.9987 48.5424 11.0324 48.1671C11.2848 45.2396 11.8033 42.3448 12.5807 39.5233C12.724 39.1248 13.0092 38.8021 13.3747 38.6252C14.967 37.909 16.4709 36.9886 17.8528 35.8845C19.5055 34.5306 21.0662 33.0547 22.5234 31.4677C22.7696 31.1957 22.6803 30.9638 22.325 30.9849C20.4902 31.1189 18.7236 31.7767 17.2117 32.8886C15.6918 34.0415 14.3997 35.4998 13.4085 37.181C13.3176 37.35 13.2147 37.5114 13.1008 37.6638C13.1068 37.6289 13.1168 37.5949 13.1306 37.5626C13.1921 37.375 13.2516 37.1916 13.3171 37.004C13.3826 36.8163 13.4402 36.6413 13.5156 36.4579L13.7141 35.9056L13.9126 35.3637C13.9861 35.1782 14.0556 34.9948 14.129 34.8135L14.3454 34.2738L14.5716 33.7319C14.6471 33.5549 14.7265 33.3757 14.8059 33.1986L15.0461 32.6567L15.2942 32.1297C15.3795 31.9505 15.4649 31.7713 15.5542 31.5921C15.6435 31.4129 15.7249 31.2442 15.8123 31.0713L16.0782 30.5358C16.1695 30.3609 16.2609 30.1901 16.3542 30.0172C16.4474 29.8443 16.5427 29.6651 16.642 29.4901L16.9457 28.98L17.0271 28.8387C17.2457 28.6999 17.4917 28.6169 17.7456 28.5962C19.2253 28.3137 20.6658 27.8349 22.0332 27.1711C23.7402 26.3067 25.3838 25.3074 26.9499 24.1816C27.2536 23.9707 27.1981 23.7325 26.8467 23.6904C25.2409 23.5324 23.6232 23.7997 22.1384 24.4683C20.6738 25.1458 19.3307 26.0873 18.1684 27.2512C17.9104 27.5063 17.8647 27.462 18.0632 27.1584C18.7143 26.1422 19.4097 25.1486 20.1494 24.1774C20.4233 23.8365 20.7337 23.5309 21.0744 23.2666C22.6626 22.0943 24.1868 20.8274 25.6399 19.4717C27.3241 17.8504 28.9268 16.1362 30.4415 14.336C30.6777 14.0556 30.5904 13.9039 30.2549 14.0135C28.0197 14.8209 25.9535 16.0818 24.171 17.7261C22.6615 19.1505 21.4219 20.8679 20.5186 22.7859C20.3313 23.1957 20.1073 23.5854 19.8497 23.9497C19.0994 24.9335 18.3894 25.9406 17.7198 26.9708C17.5213 27.2934 17.4737 27.2554 17.6027 26.9054C18.0791 25.6131 18.7123 23.7852 19.2185 21.8815C19.6945 20.0838 19.9611 18.2308 20.0125 16.3642C20.0125 15.9868 19.814 15.913 19.5936 16.2124C18.8115 17.315 17.1124 19.984 16.5507 22.8007C16.1816 24.4549 16.1952 26.1794 16.5904 27.8267C16.6799 28.0818 16.7172 28.3542 16.6995 28.6258L16.6142 28.7776C16.5169 28.9441 16.4157 29.1001 16.3283 29.2814C16.241 29.4627 16.1299 29.6398 16.0246 29.8233C15.9194 30.0067 15.8381 30.1627 15.7507 30.3313L15.4708 30.8816L15.2128 31.4129C15.1215 31.5963 15.0361 31.7818 14.9488 31.9694C14.8615 32.1571 14.784 32.3152 14.7046 32.486C14.6252 32.6567 14.5379 32.8591 14.4545 33.0447C14.3712 33.2302 14.2997 33.3967 14.2243 33.5717C14.1488 33.7467 14.0774 33.9407 13.996 34.1325C13.9146 34.3244 13.8491 34.4867 13.7796 34.6638C13.7102 34.8409 13.6328 35.0412 13.5613 35.233C13.4898 35.4249 13.4243 35.5872 13.3628 35.7643C13.3013 35.9414 13.2219 36.1459 13.1643 36.3377C13.1067 36.5296 13.0392 36.6961 12.9797 36.8732L12.7812 37.453C12.7751 37.4911 12.7637 37.5281 12.7475 37.5626C12.7384 37.3718 12.7525 37.1805 12.7891 36.9934C12.9658 35.427 13.1861 33.1163 13.2397 30.7593C13.2914 28.5888 13.0989 26.4195 12.6661 24.2975C12.5867 23.9307 12.3604 23.9096 12.2115 24.2511C11.6279 25.6257 10.3655 29.1001 10.5104 32.4733C10.5522 34.4677 11.0663 36.4188 12.0051 38.1466C12.1996 38.5196 12.2589 38.9553 12.1718 39.3715C11.378 42.2438 10.8515 45.1919 10.5997 48.1735C10.568 48.5487 10.5104 48.5487 10.4628 48.1735C10.2484 46.5122 9.89306 44.0961 9.35712 41.6758C8.8532 39.4147 8.09687 37.2256 7.10418 35.155C6.93942 34.8325 6.70718 34.8599 6.64763 35.2309C6.39157 36.7531 5.95488 40.6892 6.94736 44.1467C7.49795 46.2166 8.53638 48.1032 9.96452 49.6282C10.2424 49.9352 10.4029 50.3409 10.4151 50.7666C10.3113 54.0468 10.5248 57.3297 11.0523 60.5636C11.1118 60.9368 11.0523 60.9516 10.9213 60.6058C10.2265 58.8138 9.1348 56.13 7.87832 53.482C6.70504 51.0493 5.27601 48.7655 3.61856 46.6745C3.38831 46.392 3.17194 46.4848 3.18981 46.86C3.27516 48.5993 3.74957 53.3218 5.86357 57.0091C7.60439 60.0935 9.66678 61.6051 10.826 62.2798C11.1705 62.4967 11.4261 62.8426 11.5426 63.2496C12.2296 66.428 13.2172 69.5246 14.4903 72.4921C14.6352 72.8358 14.5875 72.8674 14.3712 72.568C13.206 70.951 11.4354 68.5413 9.50401 66.218C7.69022 64.0427 5.65135 62.0915 3.42602 60.4013C3.12232 60.1905 2.94566 60.3317 3.04888 60.6944C3.53321 62.44 5.1728 67.2152 8.29913 70.4471C10.8796 73.1394 13.3906 74.0733 14.7443 74.4022C15.125 74.5156 15.4512 74.7777 15.6574 75.1359C17.3883 78.6051 19.5223 81.8299 22.0093 84.7347C22.2456 85.0109 22.2078 85.0573 21.918 84.8444C20.3301 83.6637 17.962 81.9687 15.5105 80.3938C13.1762 78.9115 10.6893 77.7188 8.09865 76.8393C7.7612 76.7297 7.62027 76.9342 7.82075 77.2441C8.77949 78.7389 11.6954 82.7825 15.5919 84.8465C18.8294 86.5858 21.5071 86.6532 22.8946 86.5331C23.2942 86.5129 23.6862 86.6537 23.9923 86.9273C26.6524 89.6472 29.64 91.981 32.8771 93.8677C33.1808 94.049 33.1808 94.1038 32.8274 93.9942C30.7948 93.349 27.7737 92.4214 24.7407 91.6118C21.9209 90.8709 19.0337 90.4573 16.1298 90.3785C15.7745 90.3785 15.6932 90.6104 15.9691 90.8508C17.3466 92.0482 21.527 95.2781 26.2254 96.0729C30.1438 96.7644 32.9505 95.8874 34.3321 95.2802C34.7083 95.1305 35.1229 95.1305 35.4992 95.2802C36.8502 95.9439 38.2337 96.5301 39.6438 97.0364C39.9793 97.1544 40.2512 97.2472 40.2512 97.2472C40.2512 97.2472 40.5291 97.3336 40.8606 97.4454C42.4264 97.949 44.0167 98.3621 45.6246 98.6829C45.9719 98.7525 45.97 98.8052 45.6246 98.8073C43.328 98.8284 39.9118 98.8706 36.6108 99.0181C33.601 99.1566 30.6131 99.63 27.6963 100.431C27.3549 100.534 27.339 100.779 27.6685 100.924C29.3557 101.658 34.4531 103.511 39.491 102.84C43.7031 102.294 46.3213 100.578 47.548 99.5536C47.8768 99.3036 48.2757 99.1795 48.6794 99.2015C48.9176 99.2353 49.1539 99.2606 49.392 99.2859C49.7454 99.3259 50.0312 99.2121 50.0312 99.0434C50.0312 98.8748 49.7454 98.7019 49.396 98.6597L48.7866 98.5817C48.3888 98.4984 48.0343 98.261 47.7922 97.9155ZM73.2038 97.5929C74.7002 95.3545 76.3594 93.244 78.1662 91.2808C80.8439 88.4157 83.3907 85.9491 84.4189 84.9561C84.6809 84.7052 84.8992 84.8043 84.8873 85.1796C84.8417 86.4719 84.4903 89.4699 82.0468 92.6112C80.1929 95.082 77.3385 96.7033 75.2642 97.6246C74.9347 97.77 74.9605 97.8249 75.2979 97.7574C78.725 97.0813 82.0591 95.953 85.2228 94.3989C85.5754 94.1965 85.8381 93.8538 85.9533 93.446C86.5788 90.9055 87.4157 88.4291 88.4543 86.0461C90.0026 82.5696 91.6521 79.5105 92.333 78.2582C92.5136 77.9356 92.7538 77.9567 92.8451 78.3235C93.1706 79.5737 93.6748 82.5232 92.3608 86.1957C91.3683 89.0503 89.3436 91.401 87.7953 92.8768C87.5313 93.1256 87.5651 93.1804 87.8747 93.0012C91.0539 91.1416 93.9901 88.848 96.6086 86.1789C96.743 86.0239 96.8473 85.8422 96.9154 85.6443C96.9835 85.4464 97.0142 85.2362 97.0056 85.0257C96.8021 82.5693 96.8294 80.0975 97.087 77.6468C97.4144 74.8914 97.8869 72.1576 98.5023 69.4583C98.5836 69.0915 98.8218 69.0367 99.0065 69.3635C100.231 71.5517 100.797 74.0851 100.628 76.6243C100.505 79.4367 99.4114 82.1057 98.4983 83.8872C98.3296 84.2098 98.3772 84.2583 98.6154 83.98C101.052 81.1264 103.143 77.9606 104.84 74.5561C104.922 74.3639 104.966 74.1564 104.971 73.9458C104.976 73.7351 104.942 73.5255 104.87 73.3291C103.957 71.0879 103.266 68.7521 102.808 66.3592C102.326 63.6468 101.999 60.906 101.829 58.1518C101.807 57.7765 102.028 57.6543 102.292 57.8967C104.069 59.5665 105.324 61.7732 105.888 64.2215C106.569 66.9622 106.305 69.8484 105.946 71.8365C105.878 72.2054 105.946 72.2265 106.083 71.8849C107.322 68.9736 108.287 65.9391 108.963 62.8258C108.994 62.6182 108.986 62.4061 108.939 62.2019C108.892 61.9977 108.807 61.8055 108.689 61.6367C107.348 59.8535 106.195 57.9192 105.251 55.8686C104.209 53.4966 103.31 51.0566 102.56 48.5635C102.452 48.203 102.633 48.028 102.957 48.1967C104.939 49.3012 106.563 51.0144 107.615 53.1131C108.85 55.4659 109.257 58.2045 109.374 60.1083C109.394 60.4835 109.455 60.4899 109.517 60.1083C110.026 56.9339 110.229 53.7128 110.124 50.4946C110.105 50.286 110.045 50.0838 109.95 49.9001C109.855 49.7165 109.726 49.5551 109.57 49.4258C108.097 48.2559 106.759 46.905 105.585 45.4011C104.227 43.6029 102.99 41.705 101.885 39.7215C101.706 39.3968 101.843 39.1881 102.19 39.2851C104.044 39.8626 105.707 40.9818 106.99 42.5149C108.445 44.1889 109.332 46.3098 109.832 47.8657C109.948 48.2241 110.009 48.2114 109.975 47.8361C109.723 44.9085 109.205 42.0138 108.427 39.1923C108.357 38.9945 108.251 38.8134 108.114 38.6593C107.978 38.5052 107.815 38.3811 107.633 38.2942C106.031 37.5798 104.518 36.6593 103.127 35.5535C101.479 34.1959 99.924 32.7165 98.4725 31.1261C98.2224 30.8563 98.3117 30.6223 98.671 30.6455C100.505 30.785 102.269 31.4486 103.776 32.5661C105.299 33.7175 106.593 35.1761 107.586 36.8585C107.677 37.0264 107.778 37.1877 107.889 37.3413C107.884 37.3061 107.874 37.2719 107.859 37.2401C107.798 37.0524 107.738 36.869 107.673 36.6814C107.607 36.4938 107.55 36.3188 107.474 36.1353C107.399 35.9519 107.343 35.7664 107.276 35.583L107.077 35.0391C107.008 34.8556 106.934 34.6722 106.865 34.4909L106.647 33.9512L106.416 33.4052C106.341 33.226 106.262 33.0489 106.182 32.8718C106.103 32.6947 106.025 32.5092 105.94 32.3279C105.855 32.1465 105.779 31.98 105.694 31.8008L105.438 31.2653C105.353 31.0904 105.265 30.9168 105.176 30.7446L104.902 30.2112L104.628 29.6946L104.348 29.1676L104.044 28.6574L103.961 28.5161C103.743 28.3776 103.498 28.294 103.244 28.2716C101.764 27.991 100.324 27.5128 98.9568 26.8485C97.2506 25.9825 95.6071 24.9833 94.0401 23.859C93.7364 23.6482 93.7899 23.41 94.1433 23.3678C95.7557 23.2057 97.3808 23.4731 98.8715 24.1457C100.332 24.8236 101.67 25.7652 102.828 26.9286C103.086 27.1837 103.131 27.1394 102.933 26.8338C102.282 25.819 101.586 24.826 100.847 23.8548C100.571 23.5133 100.259 23.2076 99.9156 22.944C98.3279 21.7711 96.8037 20.5042 95.3501 19.1492C93.6658 17.5303 92.0618 15.8196 90.5445 14.024C90.3083 13.7415 90.3956 13.5897 90.7331 13.7015C92.9691 14.5084 95.0361 15.7693 96.819 17.4141C98.3285 18.838 99.5675 20.5555 100.469 22.4739C100.661 22.8767 100.888 23.2593 101.148 23.6166C101.9 24.6004 102.61 25.6075 103.278 26.6377C103.477 26.9624 103.524 26.9223 103.397 26.5744C102.919 25.2821 102.288 23.4521 101.781 21.5484C101.303 19.7516 101.033 17.8995 100.978 16.0332C100.978 15.6537 101.186 15.5799 101.398 15.8814C102.18 16.9819 103.882 19.6531 104.441 22.4697C104.809 24.1239 104.796 25.8479 104.404 27.4957C104.312 27.7496 104.274 28.0216 104.292 28.2927L104.378 28.4445L104.664 28.9483C104.763 29.1275 104.862 29.3088 104.967 29.4923L105.237 30.0003C105.333 30.1838 105.436 30.3651 105.517 30.5485C105.599 30.7319 105.692 30.8921 105.777 31.0629C105.863 31.2337 105.952 31.4318 106.041 31.6195C106.131 31.8071 106.206 31.9652 106.285 32.136L106.537 32.6947L106.766 33.2217C106.845 33.4094 106.923 33.597 107 33.7847C107.077 33.9723 107.145 34.1367 107.216 34.3138L107.435 34.8831C107.504 35.0601 107.57 35.2372 107.633 35.4164C107.697 35.5956 107.774 35.798 107.832 35.9878C107.889 36.1775 107.957 36.3462 108.018 36.5233L108.217 37.103L108.254 37.2127C108.258 37.0217 108.243 36.8309 108.209 36.6434C108.032 35.077 107.812 32.7664 107.758 30.4093C107.706 28.2387 107.9 26.0693 108.334 23.9476C108.411 23.5807 108.638 23.5596 108.786 23.9012C109.37 25.2758 110.632 28.7501 110.488 32.1234C110.448 34.1188 109.935 36.0715 108.997 37.8009C108.802 38.1738 108.742 38.6093 108.828 39.0258C109.622 41.8983 110.149 44.8463 110.402 47.8277C110.432 48.203 110.492 48.203 110.539 47.8277C110.752 46.1664 111.111 43.7503 111.643 41.3301C112.149 39.0686 112.906 36.879 113.898 34.8072C114.064 34.4846 114.295 34.5141 114.354 34.8852C114.606 36.42 115.051 40.3497 114.051 43.8136C113.501 45.8882 112.462 47.7794 111.031 49.3077C110.755 49.6159 110.595 50.0209 110.581 50.4462C110.685 53.7263 110.472 57.0092 109.946 60.2432C109.884 60.6142 109.946 60.6311 110.077 60.2854C110.769 58.4912 111.863 55.8095 113.134 53.1595C114.311 50.7262 115.746 48.443 117.409 46.354C117.639 46.0694 117.856 46.1643 117.838 46.5396C117.753 48.2768 117.278 53.0014 115.164 56.6887C113.423 59.7709 111.363 61.2847 110.202 61.9593C109.857 62.1754 109.602 62.5217 109.487 62.9291C108.798 66.1059 107.81 69.2009 106.537 72.1674C106.393 72.5111 106.44 72.5427 106.657 72.2412C107.822 70.6263 109.592 68.2145 111.526 65.8912C113.341 63.7155 115.382 61.7643 117.61 60.0745C117.913 59.8637 118.09 60.0071 117.987 60.3697C117.489 62.1006 115.839 66.8863 112.721 70.1056C110.14 72.7978 107.631 73.7318 106.277 74.0607C105.891 74.1706 105.559 74.433 105.348 74.7943C103.619 78.2644 101.485 81.4893 98.9965 84.3932C98.7583 84.6715 98.798 84.7158 99.0878 84.5028C100.676 83.3222 103.044 81.6272 105.495 80.0523C107.83 78.57 110.317 77.3773 112.907 76.4978C113.249 76.3882 113.386 76.5906 113.187 76.9026C112.226 78.3973 109.314 82.4409 105.414 84.5049C102.176 86.2442 99.4987 86.3117 98.1112 86.1915C97.7116 86.1714 97.3196 86.3122 97.0135 86.5858C94.3527 89.3048 91.3653 91.6384 88.1288 93.5261C87.8251 93.7074 87.839 93.7623 88.1764 93.6526C90.2091 93.0075 93.2302 92.0799 96.2652 91.2703C99.091 90.5231 101.985 90.1046 104.896 90.0222C105.249 90.0222 105.331 90.2541 105.057 90.4945C103.667 91.692 99.4987 94.9218 94.7983 95.7166C90.878 96.4081 88.0772 95.5311 86.6917 94.9239C86.3161 94.7741 85.9021 94.7741 85.5265 94.9239C84.1763 95.5878 82.7934 96.1741 81.3839 96.6801C81.0484 96.8002 80.7745 96.8909 80.7745 96.8909C80.7745 96.8909 80.4986 96.9773 80.1671 97.087C78.6016 97.5924 77.0113 98.0062 75.4031 98.3266C75.0538 98.3962 75.0558 98.4489 75.4031 98.451C77.6997 98.4721 81.1159 98.5121 84.4189 98.6618C87.4287 98.8005 90.4165 99.2739 93.3334 100.074C93.6728 100.178 93.6887 100.422 93.3612 100.568C91.672 101.301 86.5746 103.155 81.5387 102.484C77.3266 101.938 74.7064 100.222 73.4797 99.1973C73.1515 98.9461 72.7522 98.8219 72.3483 98.8452C72.1101 98.879 71.8739 98.9043 71.6357 98.9296C71.2843 98.9696 70.9965 98.8558 70.9965 98.6871C70.9965 98.5185 71.2843 98.3456 71.6357 98.3034L72.245 98.2254C72.6256 98.1433 72.9658 97.9189 73.2038 97.5929Z" fill="#CCA650"/>
<path d="M56.2302 91.2872L59.0906 96.5347H61.9092L64.7795 91.2872H56.2302Z" fill="#F58722"/>
<path d="M56.2382 91.2872L51.9666 99.151L57.6773 99.1405L59.0807 96.5452L56.2382 91.2872Z" fill="#1A6178"/>
<path d="M56.2302 106.979H64.7795L61.9092 101.738H59.0906L56.2302 106.979Z" fill="#1298B6"/>
<path d="M56.2382 106.987L59.0807 101.729L57.6773 99.1341L51.9666 99.1235L56.2382 106.987Z" fill="#89BB48"/>
<path d="M63.3206 99.1468L61.9312 101.742L64.7697 107L69.0413 99.1362L63.3206 99.1468Z" fill="#A7529E"/>
<path d="M15.4649 58.038H0L5.88148 68.79L0 79.5484H21.928V58.0443L15.4649 58.038ZM121 58.038H99.072V79.5421H121L115.128 68.7921L121 58.038Z" fill="#4D99AA"/>
<path d="M104.489 72.4436V46.5923H16.8723V72.4436H104.489Z" fill="#55AEC5"/>
<path d="M45.589 53.6002C46.0793 53.6002 46.4822 53.5833 46.7939 53.5496V53.8827C46.4951 54.0224 46.2343 54.24 46.0356 54.5152C45.7507 54.9151 45.5411 55.3697 45.4183 55.8539L42.6631 65.341C42.5579 65.3305 42.3952 65.3263 42.1768 65.3242H41.9962C41.7977 65.3242 41.6627 65.3242 41.5674 65.341L39.2669 57.9284L36.9504 65.3558C36.8452 65.3453 36.6824 65.341 36.4641 65.3389H36.2834C36.0849 65.3389 35.95 65.3389 35.8547 65.3558L32.3552 54.9453C32.2669 54.6443 32.1109 54.3708 31.9006 54.1483C31.757 53.998 31.5693 53.9043 31.3687 53.8827V53.5496L31.5671 53.5601C32.0872 53.5826 32.7012 53.5953 33.4092 53.5981H33.9035C34.6736 53.5981 35.2473 53.5791 35.6225 53.5475V53.8806C35.5456 53.882 35.4698 53.9002 35.3999 53.9341C35.3299 53.968 35.2673 54.0168 35.2159 54.0775C35.1645 54.1383 35.1254 54.2096 35.1011 54.2871C35.0768 54.3645 35.0678 54.4465 35.0746 54.5278C35.0877 54.7832 35.1351 55.0352 35.2155 55.2762L37.5002 62.3073L39.0882 57.355L38.2942 54.7766C38.2275 54.523 38.1011 54.2916 37.927 54.1041C37.7877 53.9776 37.6152 53.8996 37.4327 53.8806V53.5496L37.6312 53.5601C38.0878 53.5812 38.6237 53.5939 39.2609 53.5981H39.6797C40.702 53.5981 41.4543 53.5812 41.9327 53.5475V53.8806C41.6554 53.872 41.3791 53.9199 41.1188 54.0218C41.0364 54.0635 40.9681 54.1313 40.9233 54.2158C40.8785 54.3004 40.8595 54.3976 40.8687 54.4941C40.8812 54.7621 40.9341 55.0261 41.0255 55.2762L43.1693 62.2335L44.6561 57.2137C44.8596 56.5915 44.9811 55.9423 45.0173 55.2847C45.0173 54.8082 44.9048 54.4618 44.6799 54.2453C44.393 54.0057 44.0364 53.8797 43.6715 53.889V53.5496L44.0209 53.5644C44.5806 53.5882 45.1033 53.6002 45.589 53.6002Z" fill="white"/>
<path fill-rule="evenodd" clip-rule="evenodd" d="M55.0195 55.0253C54.2016 54.5754 53.2903 54.3514 52.3696 54.3738C51.4518 54.357 50.5466 54.6031 49.7494 55.0864C48.987 55.5604 48.3673 56.2551 47.9629 57.0893C47.5233 58.0019 47.303 59.0159 47.3218 60.0408C47.2951 61.0649 47.5108 62.0797 47.949 62.9924C48.3461 63.7975 48.9606 64.4582 49.7137 64.8898C50.5309 65.3395 51.4415 65.5635 52.3616 65.5412C53.281 65.5547 54.1867 65.3049 54.9838 64.8181C55.7468 64.345 56.3667 63.6501 56.7703 62.8153C57.2105 61.9028 57.4314 60.8889 57.4134 59.8637C57.44 58.8396 57.2243 57.8248 56.7861 56.9122C56.387 56.1107 55.7719 55.4537 55.0195 55.0253ZM50.9285 55.3205C51.1017 55.1096 51.3152 54.9404 51.5547 54.8241C51.7943 54.7077 52.0545 54.647 52.318 54.6458C52.5773 54.6502 52.833 54.7103 53.0698 54.8226C53.3066 54.935 53.5195 55.0972 53.6955 55.2994C54.1613 55.8222 54.5017 56.4563 54.688 57.1483C54.9455 58.0479 55.0688 58.9848 55.0533 59.9249C55.0657 60.8616 54.9575 61.7958 54.7317 62.7014C54.5726 63.4001 54.2566 64.0475 53.8107 64.5883C53.6378 64.7998 53.4244 64.9695 53.1848 65.0862C52.9452 65.203 52.6848 65.2639 52.4212 65.2651C52.1618 65.261 51.906 65.2009 51.6692 65.0886C51.4324 64.9762 51.2195 64.8139 51.0436 64.6115C50.5786 64.0881 50.2383 63.4542 50.0511 62.7626C49.7952 61.8627 49.6727 60.9259 49.6879 59.986C49.6754 59.0492 49.7836 58.1151 50.0094 57.2094C50.1671 56.5081 50.4825 55.8578 50.9285 55.3141V55.3205Z" fill="white"/>
<path d="M70.6789 54.8819C70.4417 54.8864 70.2063 54.9276 69.9802 55.0042C69.9096 55.0347 69.8464 55.0819 69.7955 55.1421C69.7446 55.2024 69.7073 55.2742 69.6864 55.3521C69.6236 55.6279 69.5975 55.9118 69.609 56.1954V63.7113C69.5981 63.9913 69.6241 64.2716 69.6864 64.544C69.7074 64.6231 69.7454 64.6958 69.7974 64.7566C69.8494 64.8173 69.9141 64.8644 69.9862 64.894C70.2105 64.9692 70.4437 65.0103 70.6789 65.0163V65.3199H70.5439C70.0993 65.2988 69.5151 65.2861 68.7912 65.2819H68.2235C67.3131 65.2819 66.6322 65.2974 66.181 65.3283V65.0247L66.314 65.0142C66.5234 65.0052 66.7309 64.9676 66.9313 64.9024C67.0067 64.8745 67.075 64.8284 67.1308 64.7676C67.1866 64.7069 67.2284 64.6333 67.2528 64.5525C67.3207 64.281 67.3495 64.0003 67.3382 63.7197V55.7779L63.8963 65.3346H63.668L59.8112 55.565V62.8258C59.7993 63.2655 59.8278 63.7054 59.8965 64.1392C59.9157 64.2621 59.9586 64.3795 60.0224 64.484C60.0863 64.5885 60.1698 64.6778 60.2677 64.7464C60.5565 64.903 60.873 64.9935 61.1967 65.0121V65.3156L61.0677 65.3051C60.7077 65.2826 60.2366 65.2707 59.6544 65.2693H59.4559C59.0212 65.2693 58.6619 65.2882 58.4038 65.3156V65.0121C58.6514 64.9877 58.8894 64.8986 59.0966 64.7527C59.2583 64.6054 59.3647 64.4011 59.3963 64.1772C59.4544 63.823 59.4803 63.4636 59.4737 63.1041V56.1869C59.4848 55.9033 59.4581 55.6193 59.3943 55.3436C59.3732 55.2649 59.3352 55.1925 59.2831 55.1321C59.2311 55.0717 59.1666 55.025 59.0946 54.9958C58.8703 54.9204 58.6371 54.8792 58.4019 54.8735V54.572H58.521C58.8108 54.5973 59.1859 54.6078 59.6445 54.6078H59.9482C60.6965 54.6078 61.3376 54.5889 61.9014 54.5636L64.7855 61.9424L67.4136 54.6015H68.68C69.5362 54.6015 70.2038 54.5868 70.6829 54.5573L70.6789 54.8819ZM79.4624 63.0134C79.455 63.7837 79.4888 64.5537 79.5637 65.3199H79.391C78.8312 65.2988 78.0028 65.2861 76.9058 65.2819H76.2924C74.2161 65.2819 72.6639 65.2974 71.6357 65.3283V65.0247C71.8709 65.0192 72.1042 64.978 72.3284 64.9024C72.4009 64.8734 72.4658 64.8265 72.5179 64.7657C72.57 64.7049 72.6078 64.6318 72.6282 64.5525C72.6923 64.2804 72.7191 63.9999 72.7076 63.7197V56.1869C72.7197 55.9032 72.693 55.6192 72.6282 55.3436C72.6075 55.2647 72.5696 55.192 72.5175 55.1316C72.4654 55.0712 72.4006 55.0246 72.3284 54.9958C72.1042 54.9202 71.8709 54.879 71.6357 54.8735V54.572H72.0327C72.8822 54.5931 74.0183 54.605 75.4409 54.6078H76.7748C77.9261 54.6078 78.7624 54.5931 79.2838 54.5636C79.2203 55.3415 79.1885 56.0394 79.1845 56.6718V56.8131C79.1796 57.158 79.1942 57.503 79.2282 57.8461H78.8987C78.7558 56.7625 78.5017 56.0056 78.1285 55.5692C77.7553 55.1328 77.2333 54.9178 76.5564 54.9178H75.9709C75.7547 54.9074 75.5384 54.933 75.3297 54.9937C75.2658 55.0168 75.2078 55.0555 75.1606 55.1068C75.1134 55.1581 75.0781 55.2204 75.0578 55.2888C75.0006 55.5191 74.9765 55.7572 74.9863 55.9951V59.7562H75.429C75.6522 59.7696 75.8749 59.7223 76.0761 59.6186C76.2772 59.5149 76.4501 59.3583 76.5783 59.1638C76.853 58.74 77.0404 58.2594 77.1281 57.7534H77.4576C77.4298 58.175 77.4139 58.6536 77.4139 59.1806V59.908C77.4139 60.4245 77.4437 61.1413 77.4993 62.0626H77.1718C76.9719 60.7288 76.391 60.0612 75.429 60.0598H74.9724V63.882C74.9626 64.1199 74.9867 64.358 75.0439 64.5883C75.0642 64.6567 75.0995 64.7191 75.1467 64.7703C75.1939 64.8216 75.2519 64.8604 75.3158 64.8835C75.5245 64.9441 75.7408 64.9697 75.957 64.9594H76.6577C76.9644 64.9717 77.27 64.9121 77.5526 64.785C77.8353 64.6578 78.0882 64.4662 78.2933 64.2236C78.7061 63.7331 78.9986 62.9017 79.1706 61.7295H79.5001L79.4882 61.8771C79.4723 62.1933 79.4624 62.5707 79.4624 63.0134ZM90.1019 54.8819C89.8544 54.9067 89.6165 54.9957 89.4091 55.1412C89.2476 55.2889 89.1413 55.4931 89.1094 55.7168C89.0488 56.1026 89.0229 56.4937 89.032 56.8848V65.3557L88.6886 65.3409L88.3035 65.3557L82.1044 57.007V62.8258C82.0935 63.2655 82.1221 63.7053 82.1898 64.1392C82.2093 64.262 82.2523 64.3793 82.3161 64.4837C82.38 64.5881 82.4633 64.6775 82.561 64.7464C82.8497 64.903 83.1662 64.9935 83.4899 65.0121V65.3156L83.3609 65.3051C83.0036 65.2819 82.5312 65.2693 81.9476 65.2693H81.7491C81.3144 65.2693 80.9551 65.2882 80.6971 65.3156V65.0121C80.9446 64.9877 81.1826 64.8986 81.3898 64.7527C81.5516 64.6054 81.658 64.4011 81.6896 64.1772C81.7475 63.8229 81.7741 63.4636 81.769 63.1041V56.1869C81.7811 55.9032 81.7544 55.6192 81.6896 55.3436C81.6685 55.2649 81.6304 55.1925 81.5784 55.1321C81.5263 55.0717 81.4618 55.025 81.3898 54.9958C81.1655 54.9204 80.9323 54.8792 80.6971 54.8735V54.572H80.8162C81.108 54.5973 81.4811 54.6078 81.9397 54.6078C82.3982 54.6078 82.825 54.5931 83.1684 54.5636L88.6945 61.797V57.0661C88.7063 56.627 88.6777 56.1879 88.6092 55.7547C88.59 55.6318 88.5471 55.5145 88.4833 55.41C88.4194 55.3055 88.3359 55.2162 88.238 55.1476C87.9492 54.991 87.6328 54.9005 87.309 54.8819V54.5804H87.438C87.7967 54.6043 88.2678 54.6163 88.8513 54.6163H89.0498C89.4905 54.6163 89.8399 54.6015 90.0979 54.572L90.1019 54.8819Z" fill="white"/>
<path fill-rule="evenodd" clip-rule="evenodd" d="M35.0587 31.413C35.7203 31.4439 36.2245 31.5978 36.5712 31.8747C36.7323 31.9883 36.8644 32.1425 36.9558 32.3234C37.0473 32.5044 37.0952 32.7066 37.0952 32.9119C37.1048 33.3255 36.9698 33.7281 36.7161 34.042C36.4311 34.3754 36.0661 34.6203 35.6601 34.7503C35.1616 34.9184 34.6407 34.9996 34.1178 34.9907L33.5918 34.9801C33.2801 34.9801 32.9824 34.9633 32.7005 34.9612H32.3333C31.8198 34.9612 31.4182 34.971 31.1284 34.9907L31.1641 34.7862C31.3299 34.7822 31.4945 34.7567 31.6544 34.7103C31.7612 34.6745 31.8526 34.5999 31.9125 34.4995C31.9875 34.3533 32.0442 34.1974 32.0812 34.0356L33.292 29.1993C33.3331 29.0496 33.3577 28.8954 33.3655 28.7397C33.3687 28.6864 33.3582 28.6331 33.3352 28.5855C33.3121 28.538 33.2773 28.498 33.2345 28.4699C33.0854 28.3969 32.9219 28.3636 32.7581 28.3729L32.8037 28.181H32.9863C33.2901 28.1937 33.687 28.2021 34.1773 28.2021L34.9475 28.1916H35.4993C36.1755 28.1916 36.6771 28.3026 37.0039 28.5247C37.1569 28.6204 37.2829 28.7579 37.3688 28.9229C37.4546 29.0879 37.4973 29.2744 37.4922 29.4628C37.4914 29.7962 37.3844 30.1194 37.1885 30.3799C36.9611 30.6805 36.6672 30.9166 36.333 31.0672C35.9292 31.2566 35.4985 31.3735 35.0587 31.413ZM35.3763 28.3729C35.3049 28.3653 35.2329 28.3734 35.1646 28.3966C35.0963 28.4198 35.0332 28.4577 34.9793 28.5078C34.879 28.6535 34.8111 28.8215 34.7808 28.999L34.1853 31.3729H34.5029C34.8076 31.3803 35.1059 31.2794 35.3505 31.0862C35.5923 30.8871 35.7794 30.6229 35.8924 30.3209C36.0177 29.9995 36.0812 29.6547 36.0789 29.3068C36.093 29.0639 36.0377 28.8222 35.9201 28.6132C35.8565 28.5266 35.7733 28.4585 35.6781 28.4154C35.583 28.3723 35.4792 28.3555 35.3763 28.3666V28.3729ZM34.8145 34.4995C34.5418 34.6846 34.223 34.7786 33.8994 34.7693C33.7809 34.7806 33.6623 34.7478 33.564 34.6765C33.5293 34.6416 33.5024 34.5988 33.4852 34.5514C33.468 34.504 33.461 34.4531 33.4647 34.4025C33.4729 34.2916 33.4895 34.1816 33.5144 34.0736L33.5382 33.9703L34.1337 31.5374H34.5307C34.6777 31.5235 34.8258 31.5458 34.9635 31.6024C35.1012 31.6591 35.2248 31.7487 35.3247 31.8641C35.5006 32.1163 35.5884 32.4257 35.5728 32.7391C35.577 33.0932 35.5093 33.4441 35.3743 33.7679C35.256 34.061 35.0619 34.3124 34.8145 34.4931V34.4995ZM41.0533 32.0307C41.615 31.6343 41.8949 31.1684 41.8949 30.6371C41.8998 30.5274 41.8783 30.4182 41.8325 30.3197C41.7866 30.2212 41.718 30.1367 41.6329 30.0742C41.432 29.9337 41.1943 29.8643 40.954 29.8761C40.3562 29.8759 39.7756 30.0881 39.3045 30.479C38.8018 30.878 38.3939 31.3964 38.1135 31.9927C37.8393 32.5377 37.6904 33.1438 37.6788 33.7616C37.6689 33.9496 37.6995 34.1375 37.7683 34.311C37.8371 34.4846 37.9423 34.6391 38.0758 34.763C38.3649 35.0089 38.728 35.1355 39.0981 35.1193C39.5327 35.1241 39.9592 34.9937 40.3248 34.744C40.6752 34.5095 40.9738 34.1974 41.2002 33.829L41.0553 33.7531C40.8684 34.0026 40.6371 34.2103 40.3744 34.3645C40.179 34.4779 39.9617 34.5421 39.7392 34.5522C39.6433 34.559 39.5472 34.5437 39.4574 34.5073C39.3676 34.4709 39.2864 34.4143 39.2192 34.3413C39.0822 34.1298 39.0197 33.8738 39.0425 33.6182C39.0427 33.3991 39.0606 33.1805 39.0961 32.9646C39.7916 32.7674 40.4526 32.452 41.0533 32.0307ZM40.1561 30.4537C40.3804 30.1902 40.5789 30.0595 40.7516 30.0595C40.7739 30.0585 40.7961 30.0643 40.8155 30.0762C40.8348 30.0882 40.8505 30.1058 40.8607 30.1269C40.8904 30.2066 40.9026 30.2924 40.8965 30.3778C40.9017 30.7083 40.8337 31.0354 40.698 31.3329C40.5578 31.6341 40.3644 31.904 40.1283 32.1277C39.832 32.3977 39.497 32.6155 39.1358 32.7728C39.2283 32.326 39.3681 31.8917 39.5526 31.4783C39.7068 31.108 39.91 30.763 40.1561 30.4537Z" fill="black"/>
<path d="M42.5738 34.8494C42.6857 34.8983 42.8062 34.9213 42.9271 34.9168C43.0285 34.9221 43.1298 34.9051 43.2247 34.867C43.3196 34.8289 43.4062 34.7705 43.4789 34.6955C43.5504 34.6148 43.6058 34.5196 43.6416 34.4156C43.6774 34.3116 43.693 34.201 43.6874 34.0904C43.6845 33.873 43.642 33.6582 43.5623 33.4579C43.4693 33.2292 43.3584 33.0092 43.2308 32.8001L42.9688 32.3785C42.8598 32.2065 42.7712 32.021 42.7048 31.8261C42.6489 31.6574 42.6201 31.48 42.6195 31.3012C42.6147 31.1069 42.6517 30.9139 42.7277 30.7371C42.8037 30.5603 42.9167 30.4042 43.0581 30.2808C43.404 30.0007 43.8327 29.8608 44.267 29.8865C44.6106 29.872 44.9521 29.9504 45.2595 30.1142C45.3896 30.1879 45.4966 30.3004 45.5671 30.4379C45.6377 30.5754 45.6687 30.7319 45.6565 30.888C45.6571 31.063 45.6065 31.234 45.5116 31.3771C45.467 31.4481 45.406 31.5058 45.3344 31.5446C45.2628 31.5833 45.183 31.6019 45.1027 31.5984C45.0332 31.6006 44.9643 31.5853 44.9016 31.5538C44.8388 31.5223 44.7839 31.4754 44.7414 31.4171C44.6476 31.2844 44.5999 31.1213 44.6064 30.9554C44.6044 30.8021 44.6321 30.65 44.6878 30.5085C44.736 30.3807 44.803 30.2619 44.8863 30.1564C44.7889 30.1009 44.6791 30.0746 44.5687 30.0805C44.4744 30.0746 44.38 30.0904 44.292 30.1268C44.2039 30.1632 44.1243 30.2193 44.0586 30.2913C43.9258 30.4593 43.8553 30.6729 43.8601 30.8922C43.858 31.0552 43.8905 31.2166 43.9553 31.3644C44.0529 31.569 44.1602 31.7681 44.2769 31.9611L44.4039 32.1719L44.4893 32.3258C44.6132 32.5452 44.7226 32.7734 44.8168 33.0089C44.896 33.2173 44.9371 33.4398 44.9379 33.6645C44.9415 33.9326 44.8689 34.1957 44.7295 34.4193C44.5809 34.6493 44.3746 34.8304 44.134 34.9421C43.8199 35.0813 43.4812 35.147 43.1411 35.1346C42.8009 35.1222 42.4673 35.0321 42.1629 34.8704C42.0256 34.7853 41.9132 34.6615 41.8382 34.5126C41.7632 34.3637 41.7286 34.1957 41.7381 34.0271C41.7332 33.8527 41.7812 33.6813 41.8751 33.538C41.9144 33.4721 41.969 33.4181 42.0336 33.3812C42.0983 33.3442 42.1709 33.3256 42.2443 33.3272C42.3189 33.3252 42.3927 33.3435 42.4587 33.3804C42.5247 33.4173 42.5808 33.4716 42.6214 33.538C42.7203 33.6979 42.7695 33.8866 42.7624 34.0777C42.7636 34.2059 42.7483 34.3336 42.7167 34.4572C42.677 34.5521 42.6353 34.6891 42.5738 34.8494ZM47.1928 34.1663C47.1749 34.2285 47.1655 34.2931 47.165 34.3581C47.1628 34.3968 47.1682 34.4355 47.1808 34.4718C47.1935 34.5081 47.2131 34.5412 47.2385 34.569C47.2655 34.5942 47.297 34.6135 47.331 34.6258C47.3651 34.6381 47.4011 34.6431 47.437 34.6406C47.5114 34.6355 47.584 34.6142 47.6502 34.5779C47.7165 34.5416 47.775 34.4912 47.8221 34.4298C47.9699 34.2487 48.0819 34.0379 48.1516 33.81L48.2885 33.4157H48.4592L48.2786 33.9723C48.0444 34.7285 47.5918 35.1073 46.9209 35.1087C46.7951 35.1187 46.6688 35.1012 46.5496 35.0573C46.4305 35.0134 46.3211 34.9441 46.2281 34.8536C46.1483 34.7592 46.0868 34.6489 46.0473 34.5291C46.0078 34.4093 45.991 34.2824 45.9979 34.1557C45.9985 33.96 46.0259 33.7654 46.0793 33.5781L46.9923 30.1922H46.1785L46.2242 30.0004H47.044L47.441 28.5668C47.882 28.5681 48.3221 28.5236 48.755 28.434L48.3282 30.0004H49.3525L49.3247 30.1922H48.2746L47.1928 34.1663ZM57.9613 28.1746C57.7158 28.8952 57.5221 29.6345 57.3817 30.3862H57.1832C57.2283 30.1359 57.2529 29.882 57.2566 29.6272C57.2658 29.3732 57.2125 29.1211 57.1018 28.8957C57.0015 28.6909 56.8469 28.5219 56.6571 28.4095C56.4673 28.297 56.2506 28.2462 56.0339 28.2632C55.7717 28.2729 55.5139 28.3376 55.2754 28.4538C55.0369 28.57 54.8224 28.7352 54.6444 28.9399C54.179 29.4394 53.8208 30.04 53.5944 30.7003C53.3336 31.407 53.1989 32.1591 53.1974 32.9182C53.1974 33.5507 53.3046 34.0264 53.5189 34.3455C53.6196 34.4987 53.7548 34.6226 53.9123 34.7059C54.0697 34.7891 54.2444 34.8291 54.4201 34.8219C54.6672 34.8176 54.911 34.7603 55.1367 34.6533C55.3783 34.5452 55.597 34.3868 55.7798 34.1874C55.9383 34.0047 56.0762 33.8031 56.1907 33.5865L56.2463 33.4769C56.3495 33.2661 56.4666 32.9983 56.5937 32.6673H56.7922L56.6631 33.1775C56.4527 34.0208 56.3178 34.6153 56.2562 34.9759H56.0577C56.0737 34.8677 56.083 34.7585 56.0855 34.6491C56.0855 34.4825 56.0458 34.3982 55.9684 34.3982C55.9007 34.4068 55.837 34.4369 55.7858 34.4846C55.526 34.6728 55.2461 34.8278 54.9521 34.9463C54.6502 35.0605 54.3316 35.1161 54.0112 35.1108C53.2013 35.1108 52.5946 34.9056 52.191 34.4952C51.7874 34.0848 51.5849 33.4945 51.5836 32.7242C51.5904 31.9428 51.7859 31.1762 52.1513 30.4979C52.5239 29.7762 53.0601 29.1646 53.7115 28.7186C54.3715 28.2637 55.144 28.0274 55.9307 28.0397C56.2038 28.0275 56.4758 28.0839 56.7247 28.2042C56.9073 28.3071 57.0729 28.441 57.215 28.6005L57.2725 28.6638C57.2881 28.6876 57.3081 28.7077 57.3313 28.723C57.3545 28.7382 57.3805 28.7482 57.4075 28.7523C57.5167 28.7523 57.6378 28.5583 57.7708 28.1746H57.9613Z" fill="black"/>
<path fill-rule="evenodd" clip-rule="evenodd" d="M57.8918 31.8873C57.6761 32.4057 57.5606 32.965 57.5524 33.5317C57.5391 33.745 57.5658 33.959 57.6308 34.1613C57.6959 34.3636 57.7981 34.5502 57.9315 34.7102C58.0773 34.8532 58.2488 34.9632 58.4358 35.0335C58.6228 35.1038 58.8213 35.133 59.0193 35.1192C59.5963 35.1326 60.1591 34.9279 60.6073 34.5416C61.0495 34.1598 61.3954 33.6671 61.6136 33.108C61.8294 32.5895 61.9448 32.0303 61.9531 31.4635C61.9665 31.2501 61.9398 31.0359 61.8743 30.8335C61.8089 30.6311 61.7061 30.4447 61.572 30.285C61.4265 30.1422 61.2553 30.0324 61.0686 29.9621C60.882 29.8917 60.6838 29.8625 60.4862 29.876C59.9092 29.863 59.3465 30.0677 58.8982 30.4537C58.4559 30.8355 58.1101 31.3281 57.8918 31.8873ZM59.7061 30.7531C59.9708 30.2977 60.2156 30.07 60.4405 30.07C60.4878 30.0677 60.5347 30.0805 60.575 30.1068C60.6154 30.1331 60.6474 30.1717 60.6668 30.2176C60.7253 30.3852 60.7497 30.5641 60.7383 30.7425C60.7323 31.3763 60.6414 32.006 60.4683 32.6125C60.3184 33.1927 60.094 33.7482 59.8014 34.2633C59.5367 34.7046 59.2939 34.9253 59.0729 34.9253C59.0235 34.9278 58.9746 34.9144 58.9324 34.887C58.8903 34.8595 58.8569 34.8193 58.8367 34.7714C58.7796 34.6121 58.7552 34.4418 58.7652 34.2717C58.7734 33.6456 58.865 33.0238 59.0372 32.4249C59.1885 31.8383 59.4135 31.2759 59.7061 30.7531Z" fill="black"/>
<path d="M69.5773 33.4263L69.351 34.1284C69.1327 34.7876 68.7251 35.1179 68.1283 35.1193C67.9892 35.1358 67.8485 35.1123 67.721 35.051C67.5935 34.9898 67.4839 34.8932 67.4038 34.7714C67.3324 34.6404 67.298 34.4904 67.3045 34.3392C67.3126 34.0831 67.3581 33.8299 67.4395 33.5887L68.2553 30.9913C68.2954 30.8667 68.3195 30.7369 68.3268 30.6055C68.3268 30.4769 68.2851 30.4137 68.1997 30.4137C67.9536 30.4137 67.6565 30.7292 67.3085 31.3603C66.8672 32.236 66.5165 33.1598 66.2624 34.1157V34.0883L66.0282 34.9822H64.732L65.8376 30.9913C65.8784 30.8633 65.9025 30.7299 65.9091 30.595C65.9091 30.4748 65.8614 30.4137 65.7642 30.4137C65.4942 30.4137 65.1866 30.7468 64.8451 31.413C64.4428 32.246 64.1196 33.1197 63.8804 34.0209L63.6462 34.9928H62.3699L63.4735 30.8374C63.5006 30.7473 63.5159 30.6537 63.5192 30.5591C63.5192 30.4242 63.4656 30.3483 63.3564 30.3483C63.2977 30.351 63.2405 30.3685 63.1894 30.3993C63.1384 30.4301 63.0949 30.4733 63.0626 30.5254C62.9449 30.7046 62.8514 30.9005 62.7847 31.1073L62.614 31.5985H62.4413L62.6855 30.8669C62.7737 30.5642 62.9494 30.2987 63.1877 30.108C63.4 29.9544 63.6514 29.8734 63.9082 29.8761C64.0107 29.8656 64.114 29.8791 64.211 29.9155C64.3081 29.9519 64.3964 30.0104 64.47 30.0869C64.5901 30.2435 64.6516 30.4417 64.6427 30.6435C64.6386 30.8389 64.6112 31.033 64.5613 31.2211L64.3628 32.0475C64.6592 31.2647 64.9629 30.7074 65.2739 30.3757C65.4173 30.2145 65.5907 30.0866 65.7831 30.0002C65.9754 29.9139 66.1826 29.8709 66.3914 29.8739C66.8678 29.8739 67.108 30.1248 67.108 30.6245C67.0987 30.8623 67.062 31.0981 66.9988 31.3265L66.8361 31.9421C67.1378 31.1789 67.4441 30.6435 67.7551 30.3356C68.0415 30.0384 68.4265 29.8725 68.827 29.8739C68.9293 29.866 69.032 29.8806 69.1286 29.9169C69.2253 29.9532 69.3139 30.0103 69.3887 30.0848C69.5146 30.2351 69.5795 30.4321 69.5694 30.6329C69.5654 30.8429 69.532 31.0511 69.4701 31.2506L68.555 34.1727C68.5252 34.2624 68.5072 34.356 68.5015 34.451C68.5015 34.5915 68.559 34.6618 68.6741 34.6618C68.8713 34.6618 69.0546 34.4285 69.224 33.9618L69.4066 33.4411L69.5773 33.4263Z" fill="black"/>
<path fill-rule="evenodd" clip-rule="evenodd" d="M74.7064 30.2555C74.6047 30.1268 74.4759 30.0253 74.3303 29.9594C74.1848 29.8934 74.0267 29.8649 73.8688 29.876C73.5771 29.8823 73.2988 30.0068 73.0907 30.2239C72.795 30.5373 72.5609 30.9099 72.4019 31.3202L73.182 28.3855C72.7439 28.5325 72.2907 28.6231 71.8322 28.6554L71.8044 28.7713C71.656 29.1866 71.4789 29.5897 71.2744 29.9772C71.121 30.274 70.9437 30.5562 70.7444 30.8205C70.6015 31.0061 70.4288 31.219 70.2244 31.453L70.0834 31.6174L70.1847 31.7418C70.4711 31.4341 70.7364 31.1051 70.9787 30.7573C71.2055 30.4213 71.3997 30.0618 71.5583 29.6842L69.9187 35.9267C69.8861 36.1046 69.8046 36.2682 69.6845 36.3968C69.5454 36.4936 69.3797 36.5382 69.214 36.5233L69.1584 36.7236C69.8095 36.6983 70.2363 36.6857 70.4348 36.6857H70.8635L71.6575 36.7089H71.8659L71.9195 36.5086C71.7247 36.5156 71.5305 36.479 71.3499 36.4011C71.2888 36.3665 71.239 36.3132 71.2068 36.2482C71.1746 36.1832 71.1615 36.1094 71.1692 36.0363C71.1724 35.919 71.1904 35.8027 71.2228 35.6906L71.467 34.7672C71.5592 34.8813 71.6784 34.9672 71.8124 35.0159C71.9627 35.076 72.1222 35.106 72.2828 35.1045C72.8163 35.1088 73.3301 34.8908 73.714 34.4973C74.129 34.0863 74.4524 33.5821 74.6608 33.0215C74.8687 32.4927 74.9805 31.9269 74.9903 31.3539C75.0144 30.9643 74.9145 30.5774 74.7064 30.2555ZM72.7592 34.2612C72.4945 34.6491 72.2186 34.8431 71.9315 34.8431C71.8506 34.8428 71.7709 34.8227 71.6986 34.7843C71.6263 34.7459 71.5633 34.6903 71.5146 34.6217L72.122 32.3617C72.2813 31.8665 72.4938 31.3926 72.7552 30.9491C72.9855 30.576 73.1899 30.3904 73.3706 30.3904C73.4198 30.3915 73.4676 30.4087 73.5074 30.4397C73.5472 30.4706 73.577 30.5138 73.5929 30.5633C73.6575 30.7667 73.6839 30.9816 73.6703 31.1958C73.6636 31.7495 73.5779 32.299 73.4162 32.8255C73.2732 33.3379 73.0512 33.8217 72.7592 34.257V34.2612ZM79.919 33.4263H79.7463L79.5835 33.888C79.4208 34.394 79.2322 34.647 79.0218 34.647C78.9067 34.647 78.8491 34.5774 78.8491 34.4362C78.8528 34.3444 78.8681 34.2537 78.8947 34.1663L80.0857 29.876C79.6534 29.9712 79.2132 30.0199 78.7717 30.0215L78.6446 30.4916C78.6405 30.3201 78.5777 30.1559 78.468 30.0299C78.4148 29.9775 78.3522 29.9369 78.2841 29.9105C78.2159 29.8841 78.1435 29.8724 78.071 29.876C77.6488 29.876 77.2174 30.0911 76.7768 30.5212C76.3187 30.9753 75.948 31.5194 75.685 32.1234C75.4152 32.685 75.2679 33.304 75.2543 33.9344C75.2353 34.2486 75.3273 34.5591 75.5123 34.8051C75.6088 34.9134 75.7267 34.9977 75.8574 35.052C75.9881 35.1063 76.1286 35.1293 76.2686 35.1192C76.5715 35.118 76.8647 35.0056 77.0983 34.8009C77.3975 34.5184 77.6312 34.1663 77.7812 33.7721C77.731 33.9566 77.7036 34.1472 77.6998 34.3392C77.69 34.51 77.7348 34.6794 77.8268 34.8199C77.9062 34.9248 78.0089 35.007 78.1257 35.0593C78.2425 35.1116 78.3696 35.1322 78.4958 35.1192C78.743 35.1194 78.9845 35.04 79.1885 34.8916C79.4298 34.7017 79.6067 34.4339 79.6927 34.1284L79.919 33.4263ZM78.5513 30.7235C78.5522 30.7716 78.5489 30.8195 78.5414 30.8669L78.1444 32.3764L78.1901 32.1466C78.0877 32.5971 77.9469 33.0367 77.7693 33.4601C77.647 33.7636 77.4853 34.0474 77.2889 34.3034C77.2392 34.3821 77.1744 34.4489 77.0989 34.4994C77.0233 34.5499 76.9386 34.5829 76.8502 34.5964C76.8074 34.5991 76.765 34.587 76.7292 34.5619C76.6934 34.5368 76.6662 34.5001 76.6517 34.4573C76.604 34.3103 76.5837 34.1549 76.5922 33.9998C76.5976 33.417 76.6915 32.8389 76.8701 32.2879C77.0228 31.7634 77.2483 31.266 77.539 30.8121C77.8037 30.4228 78.0379 30.2274 78.2417 30.226C78.2869 30.2236 78.332 30.2339 78.3724 30.2557C78.4128 30.2775 78.4471 30.3101 78.4719 30.3504C78.5318 30.464 78.5593 30.5936 78.5513 30.7235Z" fill="black"/>
<path d="M85.3776 33.4264L85.1552 34.1284C84.9382 34.7876 84.5339 35.1179 83.9424 35.1193C83.8064 35.1328 83.6693 35.1109 83.543 35.0554C83.4168 35 83.3052 34.9126 83.2179 34.8009C83.1368 34.6666 83.0959 34.5093 83.1008 34.3498C83.108 34.1161 83.1488 33.8851 83.2219 33.6646L84.0556 30.9913C84.1039 30.8563 84.1321 30.714 84.1389 30.5697C84.1389 30.4291 84.0814 30.3589 83.9662 30.3589C83.7856 30.3589 83.5693 30.5549 83.3092 30.9471C83.0043 31.4334 82.745 31.9502 82.5351 32.4903C82.2687 33.1461 82.042 33.8193 81.8562 34.5058L81.7391 34.9865H80.4608L81.5565 30.8311C81.5909 30.7325 81.6097 30.6285 81.6121 30.5233C81.6121 30.4073 81.5605 30.3504 81.4572 30.3504C81.3978 30.3516 81.3394 30.3674 81.2866 30.3967C81.2339 30.4259 81.1884 30.4679 81.1535 30.5191C81.0447 30.6804 80.9591 30.8581 80.8995 31.0461L80.701 31.6006H80.5303L80.7744 30.8691C80.8539 30.5728 81.015 30.3085 81.2369 30.1101C81.4411 29.9521 81.689 29.8705 81.9416 29.8782C82.4616 29.8782 82.7217 30.141 82.7217 30.6667C82.7209 30.8555 82.6962 31.0435 82.6482 31.2253L82.3763 32.387C82.5662 31.8557 82.8042 31.3452 83.0869 30.8627C83.261 30.5572 83.4961 30.2959 83.7757 30.0974C84.0106 29.953 84.2785 29.8801 84.5498 29.8866C85.0937 29.8866 85.3637 30.1438 85.3637 30.6561C85.3576 30.8888 85.3181 31.1192 85.2465 31.3392L84.3613 34.1664C84.3304 34.2557 84.3123 34.3496 84.3077 34.4446C84.3077 34.5796 84.3632 34.6555 84.4784 34.6555C84.5341 34.6513 84.5883 34.6347 84.6376 34.6067C84.6868 34.5787 84.73 34.54 84.7642 34.4931C84.892 34.3138 84.9888 34.1118 85.05 33.8965L85.2128 33.4348L85.3776 33.4264ZM89.417 29.8761C89.814 29.8761 90.0125 30.1684 90.0125 30.7531C89.9779 31.4722 89.7992 32.1751 89.4884 32.815C89.157 33.5805 88.7333 34.2969 88.228 34.9464C87.9256 35.331 87.5841 35.6789 87.2097 35.9837C86.8902 36.2495 86.5349 36.4627 86.1557 36.6161L86.0644 36.6499C85.8599 36.7384 85.642 36.787 85.4212 36.7932C85.2579 36.8037 85.0964 36.7529 84.9647 36.6499C84.9097 36.6025 84.8659 36.5423 84.8366 36.4739C84.8073 36.4054 84.7934 36.3307 84.796 36.2556C84.7949 36.1757 84.8103 36.0966 84.8412 36.0237C84.8721 35.9509 84.9176 35.8861 84.9746 35.834C85.0978 35.7194 85.2576 35.6591 85.4212 35.6653C85.7785 35.6653 86.1001 35.8867 86.3899 36.3294C86.8256 36.1042 87.2238 35.8051 87.569 35.444L86.8623 30.8459C86.8474 30.7221 86.8153 30.6013 86.767 30.4875C86.7539 30.4597 86.7337 30.4364 86.7089 30.42C86.684 30.4036 86.6554 30.3949 86.6261 30.3947C86.5599 30.3947 86.4938 30.4432 86.4276 30.5402C86.3313 30.7201 86.2528 30.9102 86.1934 31.1073L86.0286 31.5774H85.8579L86.0842 30.8754C86.1641 30.5779 86.3226 30.3108 86.5408 30.1059C86.7317 29.9601 86.9628 29.886 87.1978 29.895C87.3085 29.8882 87.4194 29.9052 87.5238 29.945C87.6282 29.9849 87.7239 30.0468 87.8052 30.1269C87.9802 30.3572 88.0842 30.6392 88.1029 30.9344L88.5198 34.2338C88.7785 33.8412 89.0088 33.4282 89.2086 32.9984C89.3884 32.6121 89.5307 32.2073 89.6333 31.7904C89.3973 31.6589 89.1902 31.4757 89.0259 31.2528C88.8757 31.054 88.7956 30.8056 88.7996 30.5507C88.7956 30.4636 88.8081 30.3765 88.8364 30.2947C88.8647 30.2128 88.9082 30.1378 88.9644 30.0742C89.0217 30.0083 89.0919 29.9563 89.1701 29.9221C89.2483 29.8879 89.3325 29.8722 89.417 29.8761ZM59.029 37.9486C59.236 37.9353 59.4415 37.9938 59.6146 38.1151C59.6774 38.1614 59.7296 38.2222 59.7673 38.2929C59.8049 38.3636 59.827 38.4425 59.832 38.5235C59.837 38.6046 59.8246 38.6858 59.7959 38.7611C59.7672 38.8364 59.7229 38.9038 59.6662 38.9584C59.6153 39.0155 59.5536 39.0606 59.4852 39.0907C59.4168 39.1209 59.3432 39.1354 59.2692 39.1334C59.1676 39.1389 59.0673 39.1069 58.9854 39.0427C58.9507 39.0111 58.9234 38.9715 58.9055 38.9269C58.8876 38.8823 58.8796 38.8339 58.8821 38.7855C58.8818 38.6479 58.9267 38.5144 59.0092 38.4082C59.0991 38.2937 59.2163 38.207 59.3486 38.1573C59.3245 38.1308 59.2954 38.11 59.2633 38.0961C59.2244 38.0813 59.1834 38.0742 59.1422 38.0751C59.0242 38.0736 58.9101 38.1196 58.8226 38.2037C58.7359 38.2945 58.6718 38.4068 58.636 38.5304C58.5923 38.6527 58.5447 38.8172 58.4911 39.0217L58.3283 39.6541H58.9734L58.9377 39.7827H58.2986L57.2128 44.0836C56.919 44.0849 56.6259 44.1152 56.3374 44.1742L57.449 39.7827H56.9408L56.9766 39.6541H57.4788C57.5494 39.3559 57.6506 39.0667 57.7805 38.7919C57.877 38.5846 58.012 38.4003 58.1775 38.25C58.4184 38.0449 58.7204 37.9379 59.029 37.9486Z" fill="black"/>
<path fill-rule="evenodd" clip-rule="evenodd" d="M58.9655 40.9001C58.8217 41.2457 58.7447 41.6185 58.7392 41.9964C58.7304 42.1388 58.7484 42.2817 58.792 42.4167C58.8356 42.5517 58.904 42.6761 58.9933 42.7828C59.0904 42.8779 59.2047 42.951 59.3293 42.9978C59.4538 43.0445 59.586 43.0639 59.7178 43.0547C60.1031 43.0642 60.4789 42.9274 60.7778 42.6689C61.0725 42.415 61.3025 42.0866 61.4467 41.7139C61.5906 41.3683 61.6676 40.9954 61.673 40.6176C61.6823 40.4756 61.6647 40.3331 61.6215 40.1985C61.5782 40.0638 61.51 39.9396 61.4209 39.8333C61.3242 39.7375 61.21 39.6638 61.0854 39.6166C60.9608 39.5695 60.8284 39.55 60.6964 39.5593C60.3111 39.5498 59.9353 39.6866 59.6364 39.9451C59.3423 40.2 59.1118 40.528 58.9655 40.9001ZM60.1764 40.1432C60.353 39.8397 60.5178 39.6879 60.6666 39.6879C60.6981 39.6871 60.7291 39.6961 60.7559 39.7137C60.7827 39.7312 60.8041 39.7567 60.8175 39.7869C60.8565 39.8987 60.8727 40.018 60.8651 40.1369C60.8478 40.9628 60.6326 41.7704 60.2399 42.4834C60.0652 42.7785 59.9024 42.9261 59.7536 42.9261C59.7206 42.9278 59.688 42.9188 59.66 42.9004C59.632 42.8819 59.61 42.8549 59.5967 42.8228C59.5588 42.7166 59.5425 42.6031 59.5491 42.4897C59.5542 42.0723 59.615 41.6578 59.7297 41.2585C59.8308 40.8665 59.981 40.4907 60.1764 40.1411V40.1432Z" fill="black"/>
<path d="M64.4262 39.7174C64.419 39.719 64.4115 39.719 64.4044 39.7174H64.3905C64.3767 39.7149 64.3626 39.7149 64.3488 39.7174C64.1503 39.7174 63.9339 39.8755 63.7195 40.1917C63.5052 40.508 63.2908 41.073 63.0685 41.8783L62.8025 42.9746H61.9509L62.6874 40.2044C62.7083 40.1407 62.719 40.0737 62.7191 40.0062C62.7191 39.9261 62.6854 39.8839 62.6218 39.8839C62.5827 39.8864 62.5446 39.8981 62.5103 39.9181C62.476 39.9382 62.4463 39.9661 62.4234 39.9999C62.3414 40.1192 62.2778 40.2515 62.2348 40.392L62.1197 40.7188H62.0065L62.1693 40.2318C62.2165 40.0375 62.3246 39.8661 62.4758 39.7458C62.6269 39.6255 62.8122 39.5634 63.001 39.5698C63.3126 39.5698 63.4674 39.7448 63.4674 40.0905C63.4671 40.2181 63.4504 40.3451 63.4178 40.4679L63.3702 40.6787C63.469 40.3642 63.624 40.0728 63.8267 39.8207C63.8988 39.7411 63.9855 39.6782 64.0815 39.6358C64.1774 39.5933 64.2806 39.5723 64.3845 39.574C64.4506 39.5701 64.5168 39.5811 64.5787 39.6062C64.6406 39.6312 64.6968 39.6698 64.7438 39.7195C64.7878 39.7697 64.8218 39.8288 64.844 39.8933C64.8662 39.9577 64.876 40.0262 64.8728 40.0947C64.876 40.268 64.8171 40.436 64.7081 40.5649C64.6575 40.6273 64.5948 40.6773 64.5241 40.7111C64.4534 40.745 64.3767 40.762 64.2991 40.7609C64.2004 40.767 64.1034 40.7314 64.0292 40.6619C63.9952 40.6238 63.969 40.5787 63.9523 40.5293C63.9355 40.48 63.9286 40.4275 63.9319 40.3751C63.9322 40.2253 63.9837 40.0807 64.0768 39.9682C64.1582 39.8671 64.266 39.7937 64.3865 39.7574L64.4321 39.7427L64.4262 39.7174Z" fill="black"/>
<path d="M71.4591 9.698H49.6244C48.3089 9.698 47.2424 10.8307 47.2424 12.2279V19.8176C47.2424 21.2148 48.3089 22.3475 49.6244 22.3475H71.4591C72.7746 22.3475 73.8411 21.2148 73.8411 19.8176V12.2279C73.8411 10.8307 72.7746 9.698 71.4591 9.698Z" fill="#463A1C"/>
<path d="M56.4229 18.9742H52.85V18.1773L54.1303 16.8027C54.5094 16.3811 54.7556 16.1049 54.8727 15.9468C54.9752 15.8113 55.06 15.6616 55.1248 15.5019C55.1744 15.3676 55.1999 15.2246 55.2002 15.0803C55.2072 14.9908 55.1955 14.9007 55.166 14.8166C55.1365 14.7324 55.0899 14.6562 55.0295 14.5933C54.9033 14.4824 54.7425 14.426 54.5789 14.4352C54.3793 14.4362 54.1825 14.4852 54.0033 14.5785C53.7953 14.6916 53.6002 14.8296 53.4217 14.9896L52.8262 14.2539C53.0192 14.0715 53.2286 13.9098 53.4514 13.7711C53.6231 13.6771 53.8051 13.6063 53.9933 13.5602C54.2078 13.5055 54.4278 13.4792 54.6484 13.4822C54.9392 13.4755 55.2276 13.539 55.492 13.6678C55.7242 13.78 55.9217 13.9598 56.0617 14.1864C56.1967 14.4147 56.2657 14.68 56.2602 14.9496C56.2619 15.1907 56.2194 15.4298 56.1351 15.6537C56.0472 15.8931 55.9268 16.1175 55.7778 16.3199C55.4963 16.6705 55.1912 16.9989 54.8647 17.3024L54.2077 17.9581V18.0108H56.4309L56.4229 18.9742ZM60.3433 16.2651C60.3433 17.211 60.197 17.9138 59.9046 18.3734C59.6148 18.8267 59.1642 19.0543 58.5568 19.0543C58.2963 19.068 58.0369 19.0095 57.8041 18.8846C57.5713 18.7597 57.373 18.5726 57.2288 18.3418C56.9311 17.8737 56.7822 17.1808 56.7822 16.263C56.7822 15.3073 56.9278 14.6045 57.2189 14.1548C57.5087 13.7036 57.9613 13.4717 58.5568 13.4717C58.8182 13.4563 59.0788 13.5137 59.3128 13.6384C59.5468 13.763 59.746 13.9505 59.8907 14.1822C60.1924 14.6572 60.3433 15.3516 60.3433 16.2651ZM57.8501 16.2651C57.8272 16.7485 57.8816 17.2325 58.0109 17.6966C58.046 17.8214 58.1181 17.9309 58.2164 18.0087C58.3148 18.0865 58.4341 18.1286 58.5568 18.1286C58.6794 18.1286 58.7988 18.0865 58.8971 18.0087C58.9955 17.9309 59.0676 17.8214 59.1027 17.6966C59.2363 17.2363 59.2927 16.7546 59.2694 16.2736C59.2934 15.7901 59.2356 15.306 59.0987 14.8442C59.0655 14.7183 58.9945 14.6074 58.8965 14.5285C58.7985 14.4495 58.6788 14.4067 58.5558 14.4067C58.4328 14.4067 58.3131 14.4495 58.2151 14.5285C58.1171 14.6074 58.0461 14.7183 58.0129 14.8442C57.8838 15.3047 57.83 15.7853 57.8541 16.2651H57.8501ZM64.3291 18.9742H60.7561V18.1773L62.0364 16.8027C62.4162 16.3895 62.6637 16.1042 62.7788 15.9468C62.8814 15.8113 62.9662 15.6616 63.0309 15.5019C63.0805 15.3676 63.1061 15.2246 63.1063 15.0803C63.1133 14.9908 63.1016 14.9007 63.0721 14.8166C63.0426 14.7324 62.996 14.6562 62.9356 14.5933C62.8094 14.4824 62.6486 14.426 62.4851 14.4352C62.2854 14.4362 62.0886 14.4852 61.9094 14.5785C61.7042 14.6922 61.5118 14.8301 61.3358 14.9896L60.7502 14.2539C60.9422 14.0711 61.151 13.9094 61.3735 13.7711C61.5451 13.6771 61.7272 13.6063 61.9154 13.5602C62.1298 13.5055 62.3499 13.4792 62.5704 13.4822C62.8618 13.4758 63.1508 13.5392 63.416 13.6678C63.6469 13.7813 63.8435 13.9609 63.9837 14.1864C64.1187 14.4147 64.1877 14.68 64.1822 14.9496C64.1839 15.1907 64.1414 15.4298 64.0571 15.6537C63.961 15.8963 63.8312 16.1223 63.6721 16.3242C63.3906 16.6748 63.0854 17.0031 62.759 17.3066L62.1019 17.9623V18.015H64.3251L64.3291 18.9742ZM68.2832 18.9742H64.7102V18.1773L65.9905 16.8027C66.369 16.3895 66.6171 16.1042 66.7349 15.9468C66.8362 15.8107 66.9203 15.6612 66.985 15.5019C67.0362 15.368 67.0625 15.2248 67.0624 15.0803C67.069 14.9908 67.0571 14.9009 67.0276 14.8168C66.9981 14.7327 66.9517 14.6564 66.8917 14.5933C66.7653 14.4828 66.6046 14.4264 66.4411 14.4352C66.2415 14.436 66.0446 14.485 65.8655 14.5785C65.6566 14.6911 65.4608 14.8291 65.2819 14.9896L64.6864 14.2539C64.879 14.071 65.0885 13.9093 65.3117 13.7711C65.4827 13.6774 65.6641 13.6066 65.8516 13.5602C66.0667 13.5056 66.2874 13.4794 66.5086 13.4822C66.7994 13.4758 67.0878 13.5392 67.3522 13.6678C67.5841 13.7806 67.7815 13.9603 67.9219 14.1864C68.056 14.4151 68.125 14.6802 68.1204 14.9496C68.1221 15.1907 68.0796 15.4298 67.9953 15.6537C67.8999 15.8963 67.7708 16.1223 67.6122 16.3242C67.3299 16.6746 67.0241 17.003 66.6972 17.3066L66.0421 17.9623V18.015H68.2832V18.9742Z" fill="white"/>
</g>
<defs>
<clipPath id="clip0_1067_13274">
<rect width="121" height="107" fill="white"/>
</clipPath>
</defs>
</svg>
