<svg width="121" height="107" viewBox="0 0 121 107" fill="none" xmlns="http://www.w3.org/2000/svg">
<g clip-path="url(#clip0_1067_13301)">
<path d="M97.1576 85.3918L60.4989 102.959L23.8403 85.3918V1.07849H97.1576V85.3918Z" fill="#FDD86F"/>
<path d="M60.4989 104.037C60.3552 104.035 60.2134 104.002 60.0822 103.939L23.4275 86.3726C23.2495 86.2899 23.0976 86.1548 22.9897 85.9831C22.8819 85.8115 22.8227 85.6106 22.8191 85.4043V1.07844C22.8196 0.936276 22.8465 0.795607 22.8982 0.664469C22.9499 0.533332 23.0254 0.414293 23.1204 0.314151C23.2154 0.214009 23.3281 0.134724 23.4519 0.0808229C23.5758 0.0269222 23.7084 -0.000538791 23.8423 8.00789e-06H97.1673C97.4366 8.00789e-06 97.6949 0.113629 97.8853 0.315875C98.0757 0.518121 98.1827 0.792425 98.1827 1.07844V85.4022C98.1796 85.6086 98.1206 85.8098 98.0126 85.9815C97.9047 86.1532 97.7525 86.2883 97.5742 86.3705L60.9176 103.95C60.785 104.009 60.6426 104.038 60.4989 104.037ZM24.8459 84.6957L60.4911 101.774L96.1363 84.6957V2.15896H24.8459V84.6957Z" fill="#FDD86F"/>
<path d="M26.2156 83.904V3.53247H95.0233V83.904L60.6185 100.39L26.2156 83.904Z" fill="#E9C05B"/>
<path d="M47.7923 97.9174C46.2974 95.6785 44.6392 93.5677 42.8329 91.6047C40.1566 88.7393 37.6094 86.2728 36.5842 85.29C36.3182 85.0385 36.099 85.1383 36.1127 85.5144C36.1577 86.8068 36.5177 89.8053 38.9514 92.9471C40.8159 95.4032 43.6604 97.0281 45.7381 97.9486C46.0648 98.0941 46.0433 98.1564 45.7029 98.0816C42.2767 97.405 38.9434 96.2769 35.7802 94.7237C35.4282 94.5202 35.166 94.1775 35.0504 93.7699C34.4248 91.2297 33.5881 88.7535 32.5502 86.3705C31.0007 82.8921 29.3515 79.8271 28.6707 78.5825C28.4907 78.2583 28.2501 78.2812 28.1581 78.6469C27.5303 81.2589 27.7002 84.0152 28.6433 86.518C29.6352 89.3751 31.66 91.7253 33.2056 93.2027C33.4716 93.4499 33.4384 93.506 33.1273 93.3253C29.9486 91.4676 27.0136 89.174 24.398 86.5035C24.1286 86.1886 23.9879 85.7731 24.0067 85.3482C24.2102 82.8932 24.1827 80.4228 23.9245 77.9736C23.6017 75.2113 23.1301 72.4709 22.512 69.7659C22.4298 69.4002 22.2088 69.3503 22.0073 69.6724C20.7839 71.8617 20.2175 74.3949 20.3835 76.9347C20.5087 79.7461 21.6003 82.4079 22.512 84.1949C22.6861 84.5191 22.6353 84.5669 22.3966 84.2884C19.9601 81.4349 17.8689 78.2693 16.1714 74.8651C16.0903 74.6726 16.0459 74.465 16.0408 74.2542C16.0358 74.0434 16.0702 73.8336 16.142 73.637C17.0565 71.3967 17.7476 69.0609 18.2041 66.6677C18.6812 63.9534 19.0046 61.2112 19.1725 58.4558C19.194 58.0818 18.9768 57.9592 18.7127 58.2002C16.9318 59.8747 15.6768 62.0888 15.1169 64.5441C14.438 67.2745 14.7021 70.1711 15.0621 72.1576C15.1286 72.5254 15.0621 72.5482 14.9252 72.2054C13.6839 69.3016 12.716 66.2746 12.0356 63.1685C12.0036 62.9612 12.0111 62.7491 12.0579 62.5449C12.1046 62.3407 12.1895 62.1486 12.3075 61.98C13.649 60.1932 14.8017 58.2553 15.7449 56.2013C16.7876 53.829 17.6874 51.3888 18.4388 48.8953C18.5445 48.5359 18.3645 48.3613 18.0476 48.5296C16.0657 49.6341 14.4426 51.3464 13.3894 53.4439C12.1706 55.7878 11.7617 58.5285 11.6463 60.4402C11.6228 60.8163 11.5622 60.8226 11.5015 60.4402C10.9931 57.2662 10.7893 54.0456 10.8931 50.8278C10.9132 50.6191 10.9726 50.4169 11.0677 50.2331C11.1628 50.0493 11.2917 49.8876 11.4467 49.7577C12.9236 48.5895 14.2647 47.2391 15.4417 45.7348C16.8002 43.9325 18.0365 42.0298 19.1412 40.0414C19.3212 39.7193 19.1842 39.5094 18.836 39.6071C16.9753 40.1806 15.305 41.3006 14.0174 42.8382C12.5658 44.511 11.6698 46.6346 11.1748 48.1889C11.0594 48.5483 10.9987 48.5359 11.032 48.1598C11.2841 45.2299 11.8031 42.3329 12.5814 39.5094C12.7213 39.1128 13.0024 38.7904 13.364 38.6118C14.9562 37.8952 16.46 36.9748 17.8421 35.871C19.4949 34.5173 21.0554 33.0411 22.512 31.4533C22.7585 31.1811 22.6705 30.9484 22.3164 30.9713C20.4843 31.1105 18.7218 31.774 17.2161 32.8913C15.6964 34.0437 14.4043 35.5015 13.4129 37.1822C13.323 37.351 13.221 37.5121 13.1077 37.6642C13.1131 37.6294 13.1237 37.5958 13.139 37.5645C13.1996 37.3754 13.2603 37.1925 13.3346 37.0055C13.409 36.8185 13.4579 36.6419 13.5303 36.459L13.7259 35.9063L13.9216 35.364C13.9959 35.179 14.0644 34.9941 14.1387 34.8133L14.3539 34.2731L14.5828 33.7287C14.6591 33.55 14.7374 33.3733 14.8176 33.1946L15.0563 32.6523L15.3067 32.1245C15.3927 31.9479 15.4769 31.7671 15.5649 31.5884C15.6529 31.4097 15.7351 31.2393 15.8232 31.0689L16.097 30.5349C16.189 30.3604 16.2809 30.19 16.3748 30.0175C16.4688 29.845 16.5705 29.6663 16.6605 29.4918L16.9657 28.9806L17.0478 28.8393C17.2661 28.7 17.5119 28.6167 17.7658 28.5962C19.2453 28.3139 20.6854 27.835 22.0523 27.1708C23.7588 26.3062 25.4022 25.3074 26.9686 24.1827C27.2738 23.9749 27.2191 23.7318 26.8649 23.6903C25.2594 23.5327 23.6421 23.8004 22.1579 24.4695C20.6896 25.1449 19.3432 26.0864 18.1786 27.2518C17.9204 27.5074 17.8754 27.4596 18.073 27.1583C18.7251 26.1443 19.4209 25.151 20.1604 24.1786C20.4332 23.8368 20.7432 23.5306 21.0838 23.2664C22.6656 22.0939 24.183 20.8264 25.6285 19.47C27.3157 17.8493 28.9221 16.1362 30.4412 14.3376C30.6779 14.055 30.5899 13.9033 30.2553 14.0134C28.0194 14.8198 25.9529 16.081 24.171 17.7267C22.6604 19.154 21.4206 20.8749 20.5185 22.7968C20.3264 23.2002 20.0992 23.5835 19.8396 23.9417C19.0897 24.9266 18.3801 25.9337 17.7111 26.963C17.5154 27.2851 17.4646 27.2477 17.5917 26.8986C18.0691 25.6061 18.7029 23.7817 19.2077 21.8721C19.6868 20.0756 19.9568 18.2236 20.0118 16.3573C20.0118 15.9791 19.8044 15.9043 19.5911 16.2036C18.8086 17.3069 17.1104 19.975 16.549 22.7926C16.1793 24.4468 16.1928 26.1716 16.5881 27.8191C16.6781 28.0736 16.7155 28.3458 16.6977 28.617L16.6116 28.7687C16.5157 28.937 16.4159 29.0928 16.3259 29.2736C16.2359 29.4544 16.1303 29.631 16.0227 29.816C15.9151 30.0009 15.8271 30.1547 15.7488 30.323L15.469 30.8715L15.2128 31.3952C15.1208 31.5801 15.0367 31.765 14.9487 31.952C14.8606 32.1391 14.7843 32.297 14.7041 32.4694C14.6239 32.6419 14.5378 32.8435 14.4556 33.0284C14.3735 33.2133 14.2991 33.3796 14.2248 33.5541C14.1504 33.7287 14.0781 33.924 13.9959 34.1172C13.9137 34.3105 13.8492 34.4684 13.7807 34.6471C13.7122 34.8258 13.634 35.0253 13.5616 35.2164C13.4892 35.4076 13.4246 35.5718 13.3659 35.7484C13.3072 35.925 13.2251 36.1307 13.1586 36.3219C13.092 36.5131 13.0334 36.6793 12.9629 36.858L12.7673 37.4357C12.7616 37.474 12.7504 37.5111 12.734 37.5458C12.7239 37.3548 12.7383 37.1632 12.7771 36.9764C12.9531 35.4097 13.1683 33.0991 13.227 30.7427C13.2787 28.5719 13.0856 26.4024 12.6519 24.2804C12.5717 23.9147 12.3467 23.8918 12.198 24.2347C11.6111 25.6082 10.3512 29.0825 10.4979 32.4487C10.5384 34.4435 11.0518 36.3952 11.9906 38.1234C12.1856 38.4966 12.2454 38.9326 12.1589 39.3494C11.3665 42.2218 10.8423 45.17 10.5938 48.1515C10.5625 48.5275 10.5057 48.5275 10.4568 48.1515C10.2436 46.4891 9.8875 44.0725 9.35145 41.6538C8.84729 39.3954 8.09204 37.2086 7.10162 35.1396C6.93728 34.8175 6.71034 34.8466 6.64578 35.2185C6.39145 36.752 5.94736 40.6814 6.94902 44.1535C7.50227 46.2262 8.54469 48.1144 9.97749 49.6392C10.2553 49.9464 10.4157 50.3522 10.4275 50.7779C10.3238 54.0582 10.5369 57.3411 11.0633 60.5753C11.1239 60.9472 11.0633 60.9639 10.9322 60.6168C10.2396 58.8236 9.14995 56.141 7.89004 53.4917C6.7176 51.0593 5.28875 48.7763 3.63101 46.6865C3.3982 46.4018 3.18299 46.4954 3.2006 46.8715C3.28668 48.6086 3.76208 53.3338 5.87497 57.0221C7.61615 60.1036 9.67817 61.6163 10.8442 62.2854C11.1814 62.5057 11.4301 62.8506 11.5426 63.2537C12.2305 66.4313 13.2182 69.5271 14.4909 72.4942C14.6356 72.837 14.5867 72.8682 14.3715 72.569C13.1977 70.9524 11.437 68.542 9.50405 66.2189C7.68799 64.0423 5.64629 62.0906 3.41776 60.4007C3.11452 60.1929 2.93649 60.3342 3.04018 60.6958C3.52536 62.4413 5.16481 67.2163 8.29305 70.4474C10.8696 73.1487 13.3796 74.0734 14.7354 74.3955C15.1183 74.5102 15.4456 74.7754 15.651 75.1373C17.3799 78.6056 19.5114 81.83 21.9955 84.7352C22.2322 85.0136 22.1912 85.0572 21.9036 84.8453C20.3091 83.665 17.9478 81.9695 15.4964 80.3944C13.1615 78.9129 10.6744 77.7207 8.08372 76.8412C7.74722 76.731 7.60636 76.9347 7.80787 77.2443C8.7665 78.7404 11.6815 82.784 15.5786 84.8474C18.8203 86.5866 21.4986 86.6489 22.8896 86.5242C23.2899 86.5036 23.6827 86.6447 23.9891 86.9191C26.6466 89.6396 29.632 91.9741 32.8671 93.8614C33.1703 94.0421 33.1703 94.0962 32.8182 93.986C30.7855 93.3398 27.7649 92.4131 24.7305 91.6047C21.9118 90.8633 19.0255 90.4494 16.1225 90.3705C15.7664 90.3705 15.6842 90.6032 15.9621 90.8421C17.3315 92.0411 21.5201 95.2702 26.2174 96.0639C30.1301 96.7559 32.9415 95.8811 34.3227 95.2723C34.701 95.1211 35.1182 95.1211 35.4965 95.2723C36.8456 95.9393 38.2275 96.5289 39.6362 97.0385C39.9707 97.1569 40.2446 97.2463 40.2446 97.2463C40.2446 97.2463 40.5205 97.3335 40.853 97.4437C42.4202 97.949 44.0125 98.3617 45.6227 98.68C45.9709 98.7528 45.967 98.8026 45.6227 98.8068C43.3259 98.8255 39.9101 98.8691 36.6077 99.0146C33.5977 99.154 30.6097 99.6275 27.6925 100.428C27.3521 100.529 27.3364 100.777 27.6651 100.922C29.3554 101.656 34.4518 103.507 39.4895 102.838C43.6996 102.291 46.3192 100.575 47.5458 99.5507C47.8746 99.2998 48.2743 99.1759 48.6786 99.1995C48.9153 99.2307 49.152 99.2577 49.3907 99.2826C49.7428 99.3221 50.0285 99.2078 50.0285 99.0395C50.0285 98.8712 49.7428 98.6987 49.3926 98.6551L48.7842 98.5782C48.3881 98.4957 48.0347 98.2603 47.7923 97.9174ZM73.2037 97.5933C74.7 95.3549 76.3595 93.2449 78.167 91.2827C80.8434 88.4151 83.3906 85.9507 84.4274 84.9679C84.6876 84.7165 84.9068 84.8162 84.895 85.1902C84.85 86.4827 84.5037 89.4811 82.0544 92.6229C80.1919 95.079 77.3473 96.7039 75.2716 97.6265C74.9429 97.772 74.9664 97.8343 75.3049 97.7574C78.731 97.0815 82.0643 95.9542 85.2276 94.4016C85.5796 94.1981 85.8418 93.8554 85.9573 93.4479C86.5817 90.9066 87.4185 88.4296 88.4576 86.0463C90.007 82.57 91.6563 79.503 92.3371 78.2583C92.5171 77.9362 92.7577 77.9591 92.8477 78.3227C93.1744 79.5695 93.6792 82.5243 92.3645 86.1959C91.3628 89.0531 89.338 91.4011 87.7924 92.8827C87.5283 93.132 87.5616 93.186 87.8726 93.0053C91.0507 91.1465 93.9855 88.853 96.602 86.1835C96.8712 85.8694 97.0119 85.4545 96.9933 85.0302C96.7897 82.5753 96.8172 80.1049 97.0754 77.6557C97.4018 74.9 97.874 72.166 98.4899 69.4667C98.5721 69.101 98.8088 69.0511 98.9946 69.3732C100.219 71.5612 100.785 74.0943 100.616 76.6334C100.491 79.4448 99.3996 82.1087 98.486 83.9061C98.3158 84.2302 98.3647 84.278 98.6014 83.9996C101.039 81.1468 103.13 77.981 104.827 74.5763C104.909 74.3841 104.954 74.1765 104.959 73.9656C104.964 73.7547 104.93 73.5448 104.858 73.3482C103.945 71.1072 103.253 68.7716 102.794 66.3789C102.314 63.6648 101.987 60.9226 101.816 58.167C101.794 57.7909 102.011 57.6683 102.279 57.9114C104.057 59.5806 105.311 61.7868 105.875 64.2345C106.556 66.9669 106.292 69.8615 105.934 71.85C105.865 72.2178 105.934 72.2407 106.069 71.8978C107.316 68.9861 108.288 65.9499 108.97 62.834C109.002 62.6265 108.993 62.4144 108.946 62.2103C108.899 62.0062 108.814 61.8141 108.696 61.6454C107.352 59.8593 106.198 57.9214 105.253 55.8667C104.212 53.494 103.313 51.0539 102.561 48.5608C102.454 48.2013 102.633 48.0268 102.952 48.1951C104.931 49.3018 106.55 51.0147 107.601 53.1114C108.835 55.4636 109.244 58.2044 109.361 60.1078C109.383 60.4818 109.444 60.488 109.504 60.1078C110.014 56.9332 110.219 53.7118 110.117 50.4933C110.096 50.2847 110.037 50.0825 109.942 49.8987C109.847 49.7149 109.718 49.5532 109.563 49.4231C108.088 48.2553 106.75 46.9048 105.576 45.4003C104.218 43.6016 102.982 41.7032 101.876 39.7193C101.698 39.3951 101.835 39.1853 102.182 39.2829C104.041 39.8585 105.71 40.9783 106.998 42.5141C108.452 44.1889 109.346 46.3125 109.839 47.8668C109.954 48.2242 110.015 48.2117 109.982 47.8377C109.731 44.9071 109.213 42.0093 108.434 39.1853C108.294 38.789 108.013 38.4668 107.652 38.2876C106.051 37.5739 104.54 36.6534 103.152 35.5468C101.505 34.1924 99.9493 32.7162 98.4977 31.1292C98.2473 30.8591 98.3353 30.6263 98.6934 30.6492C100.527 30.7882 102.291 31.4509 103.799 32.5671C105.318 33.7206 106.61 35.1791 107.601 36.8601C107.692 37.027 107.794 37.1873 107.906 37.3401C107.9 37.3054 107.89 37.2717 107.875 37.2403C107.814 37.0533 107.753 36.8684 107.679 36.6814C107.605 36.4944 107.554 36.3198 107.483 36.1349C107.413 35.9499 107.352 35.7671 107.288 35.5822L107.092 35.0398C107.024 34.8549 106.949 34.672 106.881 34.4913L106.662 33.951L106.427 33.4045C106.351 33.2279 106.272 33.0492 106.192 32.8705C106.112 32.6918 106.034 32.5089 105.95 32.3282C105.865 32.1474 105.787 31.9791 105.703 31.8024L105.449 31.2663C105.365 31.0918 105.275 30.9172 105.187 30.7448L104.913 30.2128L104.639 29.6954L104.359 29.1676L104.056 28.6586L103.974 28.5152C103.754 28.3782 103.509 28.2951 103.256 28.2721C101.776 27.9921 100.336 27.5138 98.9692 26.8487C97.2623 25.9827 95.6184 24.9832 94.0509 23.8586C93.7476 23.6508 93.8024 23.4098 94.1546 23.3682C95.767 23.2066 97.392 23.4737 98.8831 24.1453C100.342 24.8247 101.68 25.7659 102.839 26.9277C103.097 27.1832 103.142 27.1354 102.945 26.8342C102.292 25.8201 101.597 24.8269 100.857 23.8544C100.582 23.5127 100.269 23.2071 99.9259 22.9443C98.3393 21.7707 96.8162 20.5032 95.3636 19.148C93.6797 17.5285 92.076 15.8175 90.5587 14.0217C90.322 13.7412 90.41 13.5895 90.7544 13.6976C92.9902 14.5055 95.0571 15.7666 96.8407 17.4108C98.3503 18.8394 99.5894 20.561 100.491 22.483C100.683 22.886 100.91 23.2687 101.17 23.6259C101.921 24.6136 102.631 25.6207 103.299 26.6471C103.494 26.9713 103.545 26.9318 103.418 26.5827C102.941 25.2903 102.307 23.4659 101.802 21.5583C101.324 19.7609 101.055 17.9082 101 16.0415C101 15.6633 101.207 15.5885 101.419 15.8898C102.201 16.9911 103.901 19.6612 104.463 22.4788C104.829 24.1327 104.816 25.8557 104.426 27.5032C104.333 27.7573 104.295 28.0296 104.312 28.3012L104.398 28.4549L104.684 28.9578C104.784 29.1365 104.879 29.3173 104.989 29.5001L105.259 30.0092C105.353 30.1921 105.455 30.3728 105.539 30.5578C105.623 30.7427 105.713 30.9006 105.797 31.071C105.881 31.2414 105.975 31.4409 106.063 31.6279C106.151 31.8149 106.227 31.9728 106.306 32.1453L106.558 32.7043L106.787 33.23C106.865 33.417 106.945 33.6061 107.02 33.7931C107.094 33.9801 107.166 34.1442 107.237 34.3229L107.456 34.8902C107.524 35.0689 107.591 35.2455 107.652 35.4242C107.712 35.6029 107.791 35.8066 107.847 35.9957C107.904 36.1848 107.972 36.3551 108.043 36.5338L108.239 37.1115L108.276 37.2216C108.28 37.0306 108.264 36.8397 108.229 36.6523C108.053 35.0855 107.837 32.7749 107.779 30.4186C107.727 28.2478 107.92 26.0783 108.354 23.9562C108.434 23.5905 108.659 23.5677 108.808 23.9105C109.395 25.284 110.655 28.7583 110.508 32.1245C110.469 34.1206 109.956 36.0739 109.017 37.8034C108.823 38.1761 108.763 38.6115 108.851 39.0273C109.64 41.9012 110.164 44.8498 110.416 47.8315C110.445 48.2055 110.504 48.2055 110.553 47.8315C110.766 46.1691 111.124 43.7525 111.656 41.3317C112.161 39.0706 112.918 36.8815 113.912 34.8113C114.078 34.4871 114.303 34.5162 114.368 34.8881C114.62 36.4237 115.064 40.353 114.063 43.8232C113.514 45.8976 112.476 47.7887 111.046 49.3172C110.769 49.6238 110.608 50.0288 110.596 50.4538C110.7 53.7348 110.486 57.0185 109.958 60.2532C109.898 60.6231 109.958 60.6397 110.089 60.2948C110.784 58.5015 111.873 55.8189 113.147 53.1696C114.324 50.7358 115.759 48.4521 117.422 46.3624C117.655 46.0777 117.87 46.1733 117.852 46.5473C117.766 48.2865 117.293 53.0096 115.178 56.6979C113.437 59.7815 111.377 61.2922 110.209 61.9613C109.865 62.1785 109.61 62.5247 109.495 62.9316C108.806 66.1083 107.818 69.2033 106.546 72.17C106.4 72.5129 106.448 72.5461 106.664 72.2448C107.837 70.6282 109.598 68.2178 111.533 65.8947C113.348 63.7182 115.389 61.7664 117.617 60.0766C117.921 59.8688 118.099 60.008 117.995 60.3696C117.496 62.1026 115.843 66.888 112.728 70.1067C110.15 72.7976 107.642 73.7326 106.284 74.0547C105.897 74.1641 105.565 74.4265 105.355 74.7882C103.628 78.2565 101.497 81.4804 99.0122 84.384C98.7755 84.6624 98.8166 84.7082 99.1042 84.4941C100.697 83.316 103.058 81.6183 105.511 80.0453C107.846 78.5637 110.332 77.3708 112.922 76.49C113.262 76.3799 113.399 76.5835 113.202 76.8952C112.241 78.3913 109.33 82.4328 105.429 84.4983C102.191 86.2375 99.5131 86.304 98.126 86.1752C97.7263 86.1545 97.3341 86.2956 97.0285 86.57C94.3686 89.2877 91.3821 91.6199 88.1465 93.506C87.8413 93.6868 87.857 93.7429 88.1954 93.6328C90.2262 92.9866 93.2488 92.0598 96.2811 91.2515C99.1 90.5103 101.986 90.0964 104.889 90.0172C105.241 90.0172 105.324 90.2499 105.05 90.4889C103.668 91.6879 99.4896 94.9149 94.7904 95.7107C90.8776 96.4026 88.0702 95.5258 86.6851 94.919C86.3099 94.7695 85.8963 94.7695 85.5211 94.919C84.1691 95.582 82.7846 96.1675 81.3735 96.6728C81.039 96.7933 80.7651 96.8806 80.7651 96.8806C80.7651 96.8806 80.4873 96.9678 80.1567 97.078C78.59 97.5856 76.9984 98.0018 75.389 98.3247C75.0388 98.3954 75.0427 98.4473 75.389 98.4515C77.6858 98.4702 81.1036 98.5117 84.404 98.6593C87.4137 98.7941 90.4018 99.2642 93.3192 100.062C93.6596 100.166 93.6752 100.411 93.3466 100.556C91.6582 101.29 86.5619 103.141 81.5261 102.472C77.3121 101.928 74.6925 100.211 73.4659 99.187C73.1372 98.9356 72.7376 98.811 72.3331 98.8338C72.0964 98.8671 71.8597 98.892 71.623 98.919C71.2689 98.9564 70.9832 98.8442 70.9832 98.6759C70.9832 98.5076 71.2689 98.333 71.623 98.2915L72.2314 98.2146C72.6154 98.1388 72.9607 97.9181 73.2037 97.5933Z" fill="#CCA650"/>
<path d="M56.2302 91.2952L59.0904 96.544L61.9096 96.5357L64.7796 91.2952H56.2302Z" fill="#F58722"/>
<path d="M56.2381 91.2889L51.9673 99.1518L57.678 99.1414L59.0807 96.5461L56.2381 91.2889Z" fill="#1A6178"/>
<path d="M56.2302 106.981H64.7796L61.9096 101.739L59.0904 101.733L56.2302 106.981Z" fill="#1298B6"/>
<path d="M56.2381 106.988L59.0807 101.73L57.678 99.1351L51.9673 99.1248L56.2381 106.988Z" fill="#89BB48"/>
<path d="M63.3222 99.1476L61.9214 101.743L64.7601 107L69.0328 99.1372L63.3222 99.1476Z" fill="#A7529E"/>
<path d="M15.4652 58.0382H0L5.88087 68.7935L0 79.5487H21.9271V58.0382H15.4652ZM121 58.0382H99.071V79.5487H121L115.117 68.7935L121 58.0382Z" fill="#4D99AA"/>
<path d="M104.441 72.3985V46.5452H16.825V72.3985H104.441Z" fill="#55AEC5"/>
<path d="M45.2041 53.527C45.6932 53.527 46.0962 53.5104 46.4092 53.4772V53.818C46.1093 53.9597 45.8482 54.1799 45.6501 54.4579C45.3646 54.8574 45.1546 55.3118 45.0319 55.7961L42.2773 65.2797C42.1619 65.2693 41.98 65.2631 41.7295 65.2631C41.4791 65.2631 41.2952 65.2631 41.1818 65.2797L38.8811 57.8657L36.5647 65.2797C36.4493 65.2693 36.2673 65.2631 36.0169 65.2631C35.7665 65.2631 35.5826 65.2631 35.4691 65.2797L31.9633 54.8735C31.8752 54.5724 31.7195 54.2985 31.5094 54.0756C31.3655 53.9256 31.1779 53.8319 30.9773 53.8096V53.4772C31.6033 53.5104 32.3807 53.527 33.3093 53.527C34.1858 53.527 34.8274 53.5104 35.2344 53.4772V53.818C35.1575 53.8196 35.0818 53.8381 35.0119 53.8721C34.942 53.9062 34.8794 53.9551 34.828 54.0159C34.7767 54.0767 34.7376 54.148 34.7133 54.2255C34.689 54.3029 34.6799 54.3849 34.6866 54.4663C34.7005 54.7214 34.7479 54.9731 34.8274 55.2143L37.1125 62.246L38.6932 57.2922L37.895 54.7156C37.8287 54.4615 37.702 54.2297 37.5272 54.0424C37.388 53.9164 37.2161 53.8382 37.0342 53.818V53.4855C37.6212 53.5187 38.3646 53.5354 39.2723 53.5354C40.2936 53.5354 41.0448 53.5187 41.5261 53.4855V53.818C41.2488 53.8098 40.9726 53.8577 40.7122 53.9592C40.6296 54.0012 40.5612 54.0692 40.5163 54.154C40.4715 54.2388 40.4525 54.3363 40.4618 54.433C40.4741 54.7007 40.527 54.9645 40.6183 55.2143L42.7703 62.1628L44.2572 57.1426C44.4598 56.5204 44.5809 55.8716 44.6172 55.2143C44.6172 54.7385 44.5037 54.3831 44.2807 54.1754C43.9932 53.9359 43.6364 53.8096 43.2712 53.818V53.4855C43.9742 53.5132 44.6185 53.527 45.2041 53.527Z" fill="white"/>
<path d="M51.9849 54.2938C52.9054 54.2719 53.8163 54.4963 54.6338 54.9463C55.3834 55.3775 55.9961 56.0347 56.3946 56.8351C56.8326 57.7475 57.0485 58.7619 57.0226 59.7857C57.0439 60.8158 56.8241 61.8354 56.3828 62.753C55.9769 63.5881 55.3553 64.2829 54.5908 64.7561C53.7928 65.2353 52.8877 65.4765 51.9712 65.4543C51.05 65.4771 50.1382 65.2527 49.3203 64.8018C48.5697 64.372 47.9567 63.7145 47.5596 62.913C47.1214 62.0014 46.9054 60.9876 46.9316 59.9644C46.9126 58.937 47.133 57.9206 47.5733 57.0055C47.9792 56.171 48.6009 55.4768 49.3653 55.0045C50.1624 54.5217 51.0674 54.2762 51.9849 54.2938ZM51.9282 54.5681C51.6653 54.5696 51.4059 54.6307 51.167 54.7471C50.9282 54.8636 50.7155 55.0328 50.543 55.2434C50.0959 55.7841 49.7797 56.4325 49.6216 57.1323C49.3955 58.0369 49.2875 58.9703 49.3007 59.9063C49.286 60.8462 49.4094 61.7828 49.6666 62.6824C49.849 63.3735 50.1844 64.0083 50.6448 64.5338C50.8215 64.7355 51.0347 64.8973 51.2717 65.0095C51.5087 65.1216 51.7646 65.1817 52.024 65.1862C52.2868 65.1843 52.5461 65.1231 52.7849 65.0067C53.0237 64.8903 53.2365 64.7213 53.4091 64.5109C53.854 63.9686 54.1699 63.3209 54.3306 62.6221C54.5572 61.716 54.6664 60.7814 54.6553 59.8439C54.6704 58.9041 54.5476 57.9675 54.2915 57.0678C54.1093 56.3772 53.7738 55.743 53.3133 55.2185C53.1361 55.0158 52.922 54.8535 52.6838 54.7417C52.4457 54.6299 52.1885 54.5708 51.9282 54.5681Z" fill="white"/>
<path d="M70.2926 54.8112C70.0555 54.8146 69.8201 54.8552 69.5942 54.9317C69.5233 54.962 69.4599 55.0093 69.409 55.0698C69.3581 55.1304 69.3211 55.2026 69.3007 55.2808C69.2377 55.5525 69.2113 55.8324 69.2225 56.112V63.6361C69.2116 63.9157 69.2379 64.1955 69.3007 64.4672C69.3221 64.5459 69.3602 64.6183 69.4121 64.6788C69.464 64.7394 69.5283 64.7864 69.6001 64.8163C69.8246 64.8903 70.0576 64.9309 70.2926 64.9369V65.2465C69.7709 65.216 69.0236 65.2007 68.0506 65.2007C67.0333 65.2007 66.2899 65.2153 65.7949 65.2465V64.9431C66.0486 64.9381 66.3005 64.8976 66.5442 64.8226C66.6195 64.7945 66.6878 64.7484 66.7438 64.6879C66.7997 64.6273 66.8419 64.554 66.867 64.4735C66.9344 64.2025 66.9628 63.9223 66.9511 63.6423V55.7047L63.5098 65.2631H63.281L59.4249 55.4969V62.7696C59.4137 63.2086 59.4425 63.6477 59.511 64.0808C59.5299 64.2038 59.5727 64.3212 59.6367 64.4257C59.7007 64.5302 59.7845 64.6193 59.8827 64.6875C60.1707 64.8448 60.4867 64.9354 60.81 64.9535V65.2465C60.4383 65.2153 59.9258 65.2007 59.2684 65.2007C58.7441 65.2007 58.3313 65.2153 58.0261 65.2465V64.9431C58.2733 64.9182 58.511 64.8298 58.7187 64.6854C58.8799 64.5368 58.9861 64.332 59.018 64.1078C59.0797 63.7221 59.1059 63.331 59.0963 62.94V56.114C59.1074 55.8344 59.081 55.5546 59.018 55.2829C58.9972 55.2039 58.9593 55.1312 58.9073 55.0706C58.8553 55.01 58.7907 54.9632 58.7187 54.9338C58.4944 54.8587 58.2612 54.8181 58.0261 54.8133V54.5099C58.3313 54.539 58.7441 54.5556 59.2684 54.5556C60.1449 54.5556 60.8961 54.539 61.5241 54.5099L64.4098 61.8969L67.0372 54.5556H68.0506C69.0288 54.5556 69.7703 54.539 70.2926 54.5099V54.8112ZM79.0767 62.94C79.0694 63.7102 79.1027 64.4802 79.1765 65.2465C78.5244 65.216 77.434 65.2007 75.9055 65.2007C73.8291 65.2007 72.2777 65.216 71.2512 65.2465V64.9431C71.4862 64.9371 71.7193 64.8965 71.9438 64.8226C72.0155 64.7926 72.0798 64.7456 72.1318 64.6851C72.1837 64.6245 72.2218 64.5521 72.2431 64.4735C72.3059 64.2017 72.3323 63.9219 72.3214 63.6423V56.114C72.3325 55.8344 72.3062 55.5546 72.2431 55.2829C72.2223 55.2039 72.1844 55.1312 72.1324 55.0706C72.0805 55.01 72.0159 54.9632 71.9438 54.9338C71.7195 54.8587 71.4863 54.8181 71.2512 54.8133V54.5099C72.279 54.539 73.8304 54.5542 75.9055 54.5556C77.3062 54.5556 78.3014 54.5404 78.8909 54.5099C78.8244 55.3494 78.7911 56.0974 78.7911 56.754C78.7858 57.101 78.8002 57.4479 78.8342 57.793H78.5055C78.3633 56.7125 78.1064 55.954 77.7347 55.5177C77.363 55.0813 76.8413 54.8638 76.1696 54.8652H75.5827C75.3657 54.8554 75.1485 54.8813 74.939 54.9421C74.8751 54.9653 74.8173 55.0041 74.7701 55.0553C74.7228 55.1066 74.6876 55.1688 74.6671 55.2372C74.6108 55.4676 74.587 55.7057 74.5966 55.9437V59.7047H75.0525C75.2758 59.7177 75.4985 59.6701 75.6997 59.5665C75.901 59.4629 76.0741 59.3067 76.2028 59.1125C76.477 58.689 76.6643 58.209 76.7526 57.7036H77.0812C77.0512 58.1275 77.0369 58.6027 77.0382 59.1291V59.8439C77.0382 60.3592 77.0669 61.0775 77.1243 61.9987H76.7956C76.5961 60.6633 76.015 59.9956 75.0525 59.9956H74.5966V63.8189C74.5868 64.0562 74.6106 64.2936 74.6671 64.5233C74.6853 64.5927 74.7184 64.6566 74.7639 64.71C74.8094 64.7634 74.866 64.8048 74.9292 64.8309C75.1389 64.8908 75.356 64.916 75.5729 64.9057H76.2713C76.578 64.9181 76.8836 64.8586 77.1662 64.7315C77.4489 64.6043 77.7017 64.4127 77.9068 64.1701C78.3216 63.6797 78.6144 62.8486 78.7852 61.6766H79.1139C79.0878 62.0049 79.0754 62.426 79.0767 62.94ZM89.7155 54.8112C89.4658 54.8324 89.2251 54.9196 89.0151 55.0647C88.854 55.2126 88.7479 55.4167 88.7158 55.6403C88.6542 56.0259 88.628 56.417 88.6376 56.8081V65.2735L88.2952 65.2569L87.9039 65.2735L81.7179 56.9348V62.753C81.7066 63.1919 81.7354 63.6311 81.8039 64.0641C81.8232 64.187 81.8661 64.3043 81.9301 64.4088C81.9941 64.5132 82.0777 64.6024 82.1757 64.6709C82.4643 64.8281 82.781 64.9188 83.1049 64.9369V65.2465C82.7332 65.216 82.2187 65.2007 81.5613 65.2007C81.0396 65.2007 80.6255 65.216 80.319 65.2465V64.9431C80.5663 64.919 80.8042 64.8305 81.0116 64.6854C81.1741 64.5379 81.2805 64.3325 81.3109 64.1078C81.3735 63.7222 81.4004 63.3311 81.3911 62.94V56.114C81.4018 55.8343 81.3748 55.5544 81.3109 55.2829C81.2908 55.2036 81.2532 55.1305 81.2011 55.0698C81.1491 55.0091 81.0841 54.9624 81.0116 54.9338C80.7874 54.8583 80.5542 54.8177 80.319 54.8133V54.5099C80.6242 54.539 81.039 54.5556 81.5613 54.5556C82.0387 54.5556 82.4476 54.539 82.7899 54.5099L88.3167 61.7452V56.9951C88.3293 56.5575 88.3011 56.1197 88.2326 55.6881C88.2135 55.5654 88.1708 55.4482 88.1072 55.3438C88.0435 55.2394 87.9604 55.1501 87.8628 55.0813C87.5735 54.9262 87.2571 54.8363 86.9336 54.8174V54.514C87.3053 54.5431 87.8198 54.5598 88.4752 54.5598C89.0093 54.5598 89.424 54.5431 89.7175 54.514L89.7155 54.8112Z" fill="white"/>
<path d="M32.9611 32.9806C33.2858 33.0014 33.7515 33.0118 34.3579 33.0118L35.1405 33.0014H35.7C36.3874 33.0014 36.896 33.1136 37.226 33.338C37.382 33.4348 37.5105 33.5744 37.5979 33.7423C37.6854 33.9102 37.7286 34.1 37.7229 34.2918C37.7229 34.6301 37.6146 34.9583 37.4158 35.2227C37.185 35.5281 36.8866 35.7679 36.5471 35.9208C36.1363 36.1144 35.6979 36.2338 35.2501 36.2741C35.9178 36.3046 36.4297 36.4604 36.7858 36.7416C36.9497 36.8572 37.084 37.0141 37.1769 37.1983C37.2697 37.3825 37.3182 37.5883 37.3179 37.7972C37.3268 38.218 37.1872 38.6271 36.9267 38.9442C36.637 39.2819 36.2665 39.5296 35.8546 39.6611C35.3489 39.8328 34.8203 39.9156 34.2895 39.9063L33.7573 39.8959C33.3758 39.8834 33.0178 39.8772 32.6813 39.8772C32.0618 39.8772 31.5864 39.8869 31.2551 39.9063L31.2923 39.711C31.4604 39.707 31.6274 39.6805 31.7892 39.632C31.8997 39.5942 31.9931 39.5142 32.0514 39.4076C32.1398 39.2395 32.2057 39.059 32.247 38.8715L33.46 34.0279C33.5018 33.8749 33.5267 33.7173 33.5343 33.5583C33.5373 33.5041 33.5265 33.4501 33.5031 33.4018C33.4797 33.3536 33.4445 33.3129 33.4013 33.284C33.2494 33.2123 33.0841 33.1789 32.918 33.1863L32.9611 32.9806ZM34.7218 36.3904H34.3169L33.7045 38.8569C33.6678 39.0004 33.6436 39.1472 33.6321 39.2954C33.6284 39.3467 33.6354 39.3983 33.6526 39.4465C33.6699 39.4946 33.697 39.5381 33.7319 39.5738C33.8318 39.6458 33.9521 39.6789 34.0723 39.6673C34.401 39.6772 34.7248 39.5816 35.0016 39.393C35.2608 39.2114 35.4647 38.9537 35.5885 38.6512C35.7218 38.3234 35.7885 37.9693 35.7841 37.6123C35.7991 37.2941 35.7092 36.9803 35.5298 36.725C35.4288 36.6076 35.3038 36.5164 35.1644 36.4584C35.025 36.4004 34.8749 36.3771 34.7257 36.3904H34.7218ZM35.567 33.1759C35.4965 33.17 35.4255 33.1791 35.3583 33.2026C35.2912 33.2262 35.2291 33.2637 35.1757 33.3131C35.0611 33.4777 34.9841 33.6683 34.9507 33.8699L34.3638 36.2242H34.6866C34.9957 36.2316 35.2982 36.1284 35.5455 35.9312C35.7921 35.7299 35.9827 35.4613 36.0972 35.1541C36.2271 34.8251 36.2936 34.4719 36.2928 34.1151C36.3077 33.8691 36.2518 33.6242 36.1324 33.4128C36.0653 33.3261 35.9786 33.2588 35.8804 33.2174C35.7822 33.176 35.6757 33.1617 35.5709 33.1759H35.567ZM41.2366 34.7011C41.481 34.6912 41.7221 34.764 41.9252 34.9089C42.0116 34.9723 42.0814 35.058 42.1279 35.158C42.1745 35.258 42.1963 35.3689 42.1913 35.4803C42.1913 36.0206 41.9076 36.4923 41.3363 36.8954C40.726 37.3188 40.0556 37.6353 39.3506 37.8325C39.314 38.052 39.2956 38.2745 39.2958 38.4975C39.2718 38.7563 39.3357 39.0156 39.4758 39.2289C39.5444 39.3022 39.6271 39.3588 39.7183 39.3947C39.8096 39.4306 39.9071 39.4449 40.004 39.4367C40.2296 39.4262 40.4498 39.3608 40.6477 39.2455C40.9163 39.093 41.1537 38.8853 41.3461 38.6346L41.4929 38.7136C41.2632 39.0862 40.961 39.4022 40.6066 39.6403C40.2358 39.8954 39.8022 40.0284 39.3604 40.0226C38.9845 40.0387 38.6157 39.9103 38.3216 39.6611C38.1852 39.5361 38.0777 39.3794 38.0075 39.2032C37.9373 39.027 37.9062 38.836 37.9166 38.645C37.9279 38.0171 38.0794 37.4011 38.3587 36.8476C38.6423 36.243 39.0542 35.7167 39.5619 35.3099C40.0406 34.9143 40.63 34.7 41.2366 34.7011ZM41.0409 34.8881C40.8629 34.8881 40.6614 35.0211 40.4345 35.2871C40.1805 35.6002 39.9697 35.95 39.8084 36.326C39.6209 36.7453 39.4791 37.1859 39.3858 37.6393C39.7547 37.4819 40.0965 37.2607 40.3973 36.9847C40.6403 36.7589 40.8396 36.4851 40.9842 36.1785C41.125 35.877 41.1974 35.5447 41.1955 35.2081C41.2015 35.1212 41.1895 35.034 41.1603 34.9525C41.1467 34.9308 41.1274 34.9139 41.1048 34.9039C41.0821 34.8939 41.0572 34.8913 41.0331 34.8964L41.0409 34.8881ZM42.8819 39.7587C42.9952 39.8088 43.1173 39.8322 43.2399 39.8273C43.3429 39.8324 43.4459 39.8151 43.5424 39.7765C43.6389 39.7379 43.7271 39.6789 43.8014 39.6029C43.875 39.5199 43.9317 39.4218 43.968 39.3145C44.0044 39.2073 44.0196 39.0933 44.0127 38.9795C44.0101 38.7579 43.9662 38.5389 43.8835 38.3354C43.7753 38.0723 43.6444 37.8205 43.4923 37.5832L43.2751 37.232C43.1652 37.0565 43.0759 36.8674 43.009 36.6689C42.9516 36.4981 42.9218 36.3183 42.921 36.1369C42.9155 35.939 42.9528 35.7424 43.0302 35.5623C43.1075 35.3822 43.2228 35.2233 43.3671 35.098C43.7216 34.812 44.1612 34.6711 44.6055 34.7011C44.9509 34.6885 45.2939 34.7677 45.6032 34.9318C45.7329 35.0086 45.8388 35.1236 45.9082 35.263C45.9777 35.4024 46.0076 35.5601 45.9945 35.7172C45.9958 35.8956 45.9445 36.07 45.8478 36.2159C45.8027 36.2876 45.7411 36.3459 45.6689 36.3852C45.5966 36.4245 45.5161 36.4435 45.435 36.4403C45.3642 36.4427 45.294 36.4271 45.23 36.395C45.1661 36.3628 45.1103 36.315 45.0672 36.2554C44.9716 36.1204 44.9226 35.9546 44.9283 35.7858C44.9271 35.6298 44.955 35.4752 45.0104 35.3307C45.0582 35.2024 45.1241 35.0825 45.2061 34.9754C45.1073 34.9183 44.9956 34.891 44.8833 34.8964C44.787 34.8912 44.6908 34.9082 44.6013 34.9462C44.5118 34.9842 44.4311 35.0424 44.3648 35.1167C44.2307 35.2876 44.161 35.5053 44.1692 35.7276C44.1668 35.8925 44.1996 36.0559 44.265 36.2055C44.3296 36.3489 44.4392 36.5504 44.5918 36.8123L44.7209 37.0201C44.8805 37.2913 45.0198 37.5755 45.1376 37.8699C45.2194 38.0809 45.2619 38.3067 45.2628 38.5349C45.2668 38.8072 45.1931 39.0745 45.0515 39.3016C44.9006 39.5344 44.6921 39.7185 44.4489 39.8335C44.1609 39.9691 43.8483 40.0357 43.5334 40.0289C43.1561 40.0436 42.7819 39.9511 42.4495 39.7608C42.3085 39.6741 42.1933 39.5472 42.1168 39.3944C42.0404 39.2416 42.0059 39.069 42.0172 38.8964C42.0115 38.7189 42.0595 38.5441 42.1541 38.3977C42.1974 38.3331 42.2548 38.2807 42.3213 38.2448C42.3878 38.2089 42.4616 38.1907 42.5362 38.1917C42.6108 38.1928 42.6841 38.213 42.7498 38.2507C42.8154 38.2883 42.8715 38.3424 42.9132 38.4081C43.0139 38.5697 43.0639 38.761 43.056 38.9546C43.0578 39.0845 43.0419 39.2139 43.009 39.339C42.9738 39.4812 42.9313 39.6213 42.8819 39.7587ZM47.5713 39.0647C47.5535 39.1281 47.5442 39.1939 47.5439 39.26C47.5408 39.2998 47.5457 39.3398 47.5581 39.3774C47.5706 39.415 47.5904 39.4493 47.6163 39.4782C47.6707 39.5276 47.7405 39.5536 47.812 39.551C47.8872 39.5471 47.9608 39.5266 48.0282 39.4909C48.0956 39.4551 48.1552 39.4048 48.2032 39.3432C48.3523 39.1608 48.466 38.949 48.5378 38.7198L48.6767 38.3208H48.8508L48.6669 38.886C48.4282 39.6548 47.9685 40.0393 47.2876 40.0393C47.1598 40.0496 47.0312 40.0318 46.9101 39.9872C46.7889 39.9425 46.6777 39.8718 46.5833 39.7795C46.5043 39.6816 46.4445 39.568 46.4072 39.4453C46.3699 39.3226 46.356 39.1932 46.3662 39.0647C46.3676 38.8656 46.3953 38.6677 46.4484 38.4767L47.3776 35.0398H46.5423L46.5873 34.8445H47.4246L47.8159 33.3899C48.2632 33.3915 48.7095 33.3456 49.1482 33.2528L48.7138 34.8466H49.7546L49.7253 35.0419H48.6591L47.5713 39.0647ZM58.5133 32.9806C58.2661 33.713 58.0699 34.4638 57.9264 35.2268H57.7308C57.7754 34.9725 57.7996 34.7146 57.8032 34.4559C57.813 34.1984 57.759 33.9426 57.6467 33.7141C57.544 33.5075 57.3867 33.3372 57.1942 33.2243C57.0016 33.1113 56.7822 33.0606 56.5628 33.0783C56.2976 33.0887 56.0371 33.1551 55.7962 33.2735C55.5554 33.392 55.3392 33.5601 55.1601 33.7681C54.6868 34.2745 54.3229 34.8843 54.0939 35.5551C53.833 36.2729 53.7004 37.0361 53.7026 37.8055C53.7026 38.4497 53.8115 38.9345 54.0293 39.26C54.1314 39.4159 54.2688 39.542 54.4288 39.6266C54.5888 39.7112 54.7663 39.7517 54.9449 39.7442C55.1951 39.7396 55.442 39.6816 55.6707 39.5738C55.9163 39.4642 56.1386 39.3031 56.3242 39.1C56.4853 38.9142 56.6258 38.7092 56.7428 38.4891C56.8967 38.1872 57.0332 37.8756 57.1517 37.5562H57.3473C57.0604 38.6824 56.8798 39.4637 56.8054 39.9H56.6098C56.6256 39.79 56.6348 39.6789 56.6372 39.5676C56.6372 39.3993 56.5961 39.3141 56.5178 39.3141C56.4495 39.3223 56.3853 39.3528 56.3339 39.4013C56.0703 39.5933 55.7859 39.7509 55.4868 39.871C55.1797 39.986 54.8558 40.0422 54.5302 40.0372C53.7111 40.0372 53.0955 39.8294 52.6833 39.4138C52.2712 38.9982 52.0599 38.397 52.0495 37.6102C52.0564 36.8165 52.2551 36.0381 52.6266 35.3494C53.0046 34.6164 53.5494 33.9957 54.2113 33.5437C54.8748 33.082 55.6522 32.839 56.4454 32.8455C56.7254 32.8307 57.0045 32.8877 57.2593 33.0118C57.4699 33.1311 57.6587 33.2894 57.8169 33.4793C57.8326 33.5033 57.853 33.5234 57.8766 33.5384C57.9002 33.5535 57.9265 33.5631 57.9538 33.5666C58.0653 33.5666 58.1866 33.3712 58.3216 32.9806H58.5133ZM62.3283 33.0118C63.1995 33.0118 63.8223 33.0014 64.1966 32.9806C64.0596 33.3577 63.9427 33.7427 63.8464 34.1338C63.8151 34.2772 63.776 34.4788 63.7271 34.7385H63.5314C63.5314 34.6554 63.5412 34.5307 63.5412 34.3873C63.5412 33.951 63.4649 33.6455 63.3123 33.4689C63.1597 33.2923 62.8956 33.205 62.52 33.205H62.2363C62.0737 33.1989 61.911 33.2171 61.7531 33.259C61.6447 33.2967 61.5529 33.375 61.4949 33.4793C61.4064 33.6482 61.3406 33.8293 61.2992 34.0175L60.7123 36.3219H61.0527C61.1969 36.3252 61.3402 36.2964 61.4733 36.2374C61.6064 36.1783 61.7264 36.0903 61.8255 35.979C62.0395 35.7401 62.2052 35.4573 62.3126 35.1479H62.5239C62.4065 35.5177 62.3126 35.8606 62.2383 36.1723L62.1835 36.4175C62.1092 36.7236 62.0205 37.1468 61.9174 37.6871H61.7218C61.729 37.6181 61.7322 37.5487 61.7316 37.4793C61.7316 36.842 61.4707 36.5234 60.949 36.5234H60.6634L60.0765 38.8673C60.028 39.0218 59.9997 39.1826 59.9924 39.3452C59.9855 39.3993 59.9948 39.4543 60.0191 39.5024C60.0433 39.5505 60.0812 39.5893 60.1274 39.6133C60.2798 39.6667 60.4406 39.6886 60.6008 39.6777H60.9392C61.226 39.6868 61.5113 39.6316 61.7766 39.5156C62.0181 39.396 62.2268 39.2129 62.3831 38.9837C62.6014 38.6607 62.7839 38.3121 62.9269 37.9447H63.1382C63.0612 38.1749 62.9959 38.4094 62.9426 38.6471C62.8339 39.0557 62.7541 39.4725 62.7039 39.8938C62.2878 39.8758 61.592 39.8661 60.6164 39.8647C59.2913 39.8647 58.2955 39.8744 57.6291 39.8938L57.6741 39.6985C57.8409 39.695 58.0066 39.6684 58.1671 39.6195C58.2766 39.5799 58.3695 39.5004 58.4292 39.3951C58.5188 39.2276 58.5847 39.0469 58.6249 38.859L59.8398 34.0154C59.8785 33.8618 59.9028 33.7045 59.9121 33.5458C59.9195 33.4899 59.9108 33.433 59.887 33.3825C59.8633 33.332 59.8256 33.2904 59.7791 33.2632C59.6241 33.204 59.4606 33.1738 59.2959 33.1738L59.3428 32.9785C60.008 33.0014 61.0058 33.0118 62.3283 33.0118ZM68.3344 32.8455C69.1169 32.8455 69.7299 33.0533 70.1734 33.4689C70.6168 33.8845 70.8372 34.4635 70.8346 35.206C70.8246 35.9842 70.6416 36.7489 70.3005 37.4377C69.9551 38.1806 69.444 38.8225 68.8117 39.3078C68.1886 39.7949 67.4333 40.0538 66.6597 40.0455C65.8772 40.0455 65.2661 39.8377 64.8266 39.4221C64.387 39.0065 64.1679 38.4289 64.1692 37.6891C64.1896 36.8869 64.3816 36.1001 64.7308 35.3883C65.0799 34.6766 65.577 34.0586 66.1843 33.5811C66.8074 33.0958 67.5617 32.8377 68.3344 32.8455ZM68.2502 33.0201C67.8342 33.0201 67.4331 33.2549 67.0471 33.7245C66.6251 34.2587 66.306 34.8757 66.108 35.5406C65.8698 36.276 65.7488 37.0485 65.75 37.8263C65.7268 38.3407 65.8215 38.8533 66.0258 39.3203C66.2097 39.6846 66.4484 39.8668 66.7419 39.8668C67.1605 39.8668 67.5622 39.6327 67.947 39.1645C68.3679 38.6295 68.6868 38.0127 68.8861 37.3484C69.1229 36.6161 69.2439 35.8473 69.2441 35.0731C69.267 34.558 69.1724 34.0447 68.9682 33.577C68.7843 33.2071 68.545 33.0215 68.2502 33.0201ZM71.6035 39.7587C71.7167 39.8088 71.8389 39.8322 71.9615 39.8273C72.0645 39.8324 72.1674 39.8151 72.264 39.7765C72.3605 39.7379 72.4486 39.6789 72.523 39.6029C72.5965 39.5199 72.6533 39.4218 72.6896 39.3145C72.726 39.2073 72.7412 39.0933 72.7343 38.9795C72.7317 38.7579 72.6878 38.5389 72.6051 38.3354C72.4961 38.0727 72.3652 37.821 72.2139 37.5832C72.1884 37.5437 72.116 37.4273 71.9967 37.232C71.8868 37.0565 71.7975 36.8674 71.7306 36.6689C71.6732 36.4981 71.6434 36.3183 71.6426 36.1369C71.6371 35.939 71.6744 35.7424 71.7517 35.5623C71.8291 35.3822 71.9443 35.2233 72.0886 35.098C72.4398 34.8125 72.8757 34.6703 73.3173 34.6969C73.6627 34.6846 74.0056 34.7638 74.315 34.9276C74.4447 35.0044 74.5506 35.1195 74.62 35.2588C74.6895 35.3982 74.7194 35.556 74.7063 35.713C74.7076 35.8915 74.6563 36.0659 74.5596 36.2117C74.5143 36.2838 74.4524 36.3423 74.3798 36.3816C74.3072 36.4209 74.2262 36.4397 74.1448 36.4362C74.0741 36.4384 74.0039 36.4228 73.94 36.3906C73.8761 36.3585 73.8202 36.3107 73.777 36.2512C73.682 36.116 73.6336 35.9502 73.6401 35.7816C73.6389 35.6257 73.6668 35.471 73.7222 35.3266C73.7692 35.1978 73.8352 35.0779 73.9179 34.9712C73.8191 34.9141 73.7074 34.8868 73.5951 34.8923C73.4985 34.8873 73.4021 34.9044 73.3123 34.9424C73.2225 34.9804 73.1415 35.0384 73.0747 35.1125C72.9422 35.2844 72.8727 35.5014 72.879 35.7234C72.8774 35.8885 72.9108 36.0519 72.9768 36.2014C73.0755 36.4096 73.1846 36.6122 73.3036 36.8081L73.4307 37.0159C73.5916 37.2867 73.7316 37.571 73.8494 37.8658C73.9312 38.0767 73.9737 38.3025 73.9746 38.5307C73.9786 38.8031 73.9049 39.0703 73.7633 39.2974C73.6124 39.5303 73.4039 39.7144 73.1607 39.8294C72.8727 39.9649 72.5601 40.0316 72.2452 40.0247C71.8679 40.0394 71.4937 39.9469 71.1613 39.7567C71.0203 39.67 70.9051 39.543 70.8286 39.3902C70.7522 39.2374 70.7177 39.0649 70.729 38.8923C70.7233 38.7148 70.7713 38.54 70.8659 38.3936C70.9071 38.3277 70.9633 38.2741 71.0294 38.2378C71.0954 38.2014 71.1691 38.1835 71.2435 38.1858C71.32 38.182 71.3961 38.1991 71.4646 38.2355C71.5331 38.2719 71.5917 38.3263 71.6348 38.3936C71.7346 38.5556 71.7845 38.7466 71.7776 38.94C71.7793 39.0699 71.7635 39.1994 71.7306 39.3245C71.6958 39.4716 71.6534 39.6166 71.6035 39.7587ZM80.82 32.2596C81.1353 32.2397 81.4482 32.3286 81.7121 32.5131C81.815 32.5897 81.8983 32.6923 81.9547 32.8116C82.011 32.931 82.0386 33.0633 82.0349 33.1967C82.0327 33.3067 82.0099 33.4151 81.9679 33.5157C81.9259 33.6163 81.8656 33.7071 81.7903 33.7827C81.7124 33.8683 81.6186 33.9359 81.5149 33.9813C81.4113 34.0267 81.2999 34.0489 81.1878 34.0466C81.033 34.0559 80.88 34.0074 80.7554 33.9094C80.7029 33.8614 80.6614 33.8012 80.6343 33.7335C80.6071 33.6657 80.595 33.5923 80.5989 33.5188C80.5976 33.3083 80.667 33.1042 80.7945 32.9432C80.9302 32.7685 81.108 32.6363 81.3091 32.5609C81.2747 32.5184 81.2301 32.4868 81.1799 32.4694C81.1213 32.4454 81.0589 32.4334 80.996 32.4341C80.8165 32.433 80.6429 32.5026 80.5089 32.6294C80.3778 32.7689 80.2805 32.94 80.2252 33.1281C80.1444 33.3567 80.0524 33.6788 79.9494 34.0944L79.7537 34.8466H80.7319L80.6771 35.0419H79.699L78.0595 41.5956C77.6123 41.5947 77.166 41.6406 76.7272 41.7328L78.4195 35.0419H77.6467L77.7015 34.8466H78.4508C78.5604 34.3929 78.7145 33.9528 78.9105 33.5333C79.0572 33.2152 79.2636 32.9324 79.517 32.7022C79.8881 32.395 80.35 32.2382 80.82 32.2596ZM83.3574 34.7011C83.5582 34.6871 83.7597 34.7167 83.9494 34.7882C84.1391 34.8596 84.3131 34.9714 84.4608 35.1167C84.5981 35.2783 84.7034 35.4674 84.7706 35.673C84.8378 35.8786 84.8655 36.0964 84.8521 36.3136C84.8425 36.8867 84.7248 37.452 84.5058 37.9759C84.2845 38.5428 83.9343 39.0426 83.4865 39.4304C83.031 39.8229 82.4589 40.0306 81.8725 40.0164C81.6717 40.03 81.4703 40.0002 81.2807 39.9288C81.091 39.8574 80.917 39.7458 80.7691 39.6008C80.6318 39.4393 80.5265 39.2501 80.4593 39.0445C80.3921 38.8389 80.3644 38.6211 80.3778 38.4039C80.3862 37.8309 80.5033 37.2655 80.7221 36.7416C80.9431 36.1745 81.2934 35.6747 81.7414 35.2871C82.1976 34.8945 82.7704 34.6868 83.3574 34.7011ZM83.3124 34.8964C83.0855 34.8964 82.837 35.1292 82.567 35.5905C82.2688 36.1217 82.0397 36.6935 81.8862 37.2902C81.7117 37.8966 81.6188 38.5262 81.6103 39.1603C81.6008 39.3337 81.6261 39.5072 81.6847 39.6694C81.7051 39.7179 81.7388 39.7587 81.7814 39.7865C81.8239 39.8143 81.8734 39.8278 81.9234 39.8252C82.1503 39.8252 82.3975 39.6008 82.6648 39.152C82.9609 38.6284 83.188 38.0642 83.3398 37.4751C83.5165 36.8592 83.6094 36.2197 83.6156 35.5759C83.6268 35.395 83.6015 35.2136 83.5413 35.044C83.5191 35.0007 83.4858 34.9651 83.4453 34.9411C83.4048 34.9172 83.3587 34.906 83.3124 34.9089V34.8964ZM89.0407 34.9546C89.0218 34.9526 89.0034 34.9477 88.9859 34.9401C88.9654 34.9311 88.9435 34.9261 88.9213 34.9255C88.6083 34.9255 88.2894 35.1659 87.9647 35.6466C87.6399 36.1272 87.3086 36.9896 86.9708 38.2336L86.5678 39.8959H85.2707L86.3917 35.6777C86.4219 35.5798 86.4378 35.4774 86.4387 35.3744C86.4387 35.2497 86.3898 35.1894 86.292 35.1894C86.2307 35.1912 86.1706 35.2078 86.1164 35.2381C86.0621 35.2683 86.0151 35.3114 85.9789 35.364C85.855 35.5457 85.7586 35.7469 85.6933 35.9603L85.5192 36.459H85.3451L85.5916 35.7151C85.8185 35.046 86.243 34.7094 86.8613 34.7094C87.3321 34.7094 87.5682 34.9733 87.5695 35.5011C87.5684 35.6956 87.5434 35.8891 87.4951 36.0767L87.4227 36.3904C87.5722 35.9117 87.8081 35.4684 88.1173 35.0855C88.2272 34.9647 88.3592 34.8689 88.5052 34.8043C88.6512 34.7396 88.8081 34.7073 88.9663 34.7094C89.067 34.7037 89.1678 34.7203 89.2621 34.7583C89.3564 34.7962 89.4422 34.8546 89.5141 34.9297C89.6478 35.0853 89.7181 35.2907 89.7097 35.5011C89.7146 35.7655 89.6243 36.0218 89.4574 36.218C89.381 36.3131 89.2859 36.3893 89.1787 36.441C89.0715 36.4927 88.9549 36.5187 88.8372 36.5172C88.6871 36.5255 88.5401 36.4702 88.4283 36.3634C88.3771 36.3056 88.3376 36.2372 88.3124 36.1625C88.2871 36.0878 88.2766 36.0084 88.2816 35.9292C88.2807 35.6996 88.3594 35.4777 88.5027 35.3058C88.6409 35.1264 88.8317 35.0014 89.0446 34.9505L89.0407 34.9546Z" fill="black"/>
<path d="M71.4078 11.2207H49.8877C48.5911 11.2207 47.54 12.3371 47.54 13.7142V21.1947C47.54 22.5718 48.5911 23.6882 49.8877 23.6882H71.4078C72.7044 23.6882 73.7555 22.5718 73.7555 21.1947V13.7142C73.7555 12.3371 72.7044 11.2207 71.4078 11.2207Z" fill="#463A1C"/>
<path d="M56.6587 20.1557H53.1372V19.3703L54.3991 18.0155C54.7728 17.5999 55.0173 17.3277 55.1308 17.1698C55.2318 17.0369 55.3154 16.8901 55.3792 16.7334C55.4281 16.601 55.4533 16.4601 55.4536 16.3178C55.4603 16.2298 55.4489 16.1413 55.4202 16.0584C55.3915 15.9755 55.3461 15.9003 55.2873 15.8378C55.162 15.7288 55.003 15.6733 54.8412 15.682C54.6445 15.683 54.4505 15.7313 54.2739 15.8233C54.0689 15.9348 53.8766 16.0707 53.7007 16.2285L53.1235 15.5033C53.3128 15.3232 53.5186 15.1638 53.7378 15.0275C53.907 14.9349 54.0864 14.8651 54.2719 14.8197C54.4835 14.7674 54.7003 14.7423 54.9175 14.7449C55.2048 14.7383 55.4897 14.8008 55.7509 14.9277C55.9789 15.039 56.1728 15.2162 56.3105 15.4389C56.4435 15.6639 56.5115 15.9254 56.5061 16.1911C56.5077 16.4278 56.4665 16.6627 56.3848 16.883C56.2898 17.1227 56.1619 17.346 56.0053 17.5459C55.7265 17.8908 55.4251 18.2144 55.1034 18.5142L54.4558 19.1604V19.2124H56.647L56.6587 20.1557ZM60.5245 17.4856C60.5245 18.4179 60.3804 19.1106 60.0921 19.5635C59.8039 20.0165 59.3611 20.2402 58.7638 20.2347C58.5063 20.2491 58.2498 20.1919 58.0196 20.0687C57.7893 19.9455 57.5934 19.7607 57.451 19.5324C57.1576 19.0711 57.0102 18.3881 57.0089 17.4836C57.0089 16.5416 57.1524 15.8489 57.4393 15.4056C57.7269 14.9589 58.1671 14.7366 58.7638 14.7366C59.0213 14.7218 59.278 14.7786 59.5086 14.9014C59.7392 15.0242 59.9356 15.2087 60.0785 15.4368C60.3758 15.9023 60.5245 16.5852 60.5245 17.4856ZM58.0653 17.4856C58.042 17.9615 58.0963 18.4382 58.2258 18.8945C58.2607 19.0165 58.3321 19.1231 58.4292 19.1981C58.5263 19.2731 58.6437 19.3124 58.7638 19.31C58.8849 19.3096 59.0027 19.2675 59.0993 19.1899C59.196 19.1124 59.2663 19.0036 59.2998 18.8799C59.4315 18.4262 59.4872 17.9515 59.4642 17.4773C59.4882 17.0003 59.4319 16.5225 59.2979 16.0664C59.2642 15.9433 59.1941 15.8349 59.0979 15.7574C59.0017 15.6799 58.8845 15.6375 58.7638 15.6363C58.6424 15.6357 58.5242 15.6774 58.4273 15.7551C58.3304 15.8328 58.2603 15.9422 58.2277 16.0664C58.0965 16.5259 58.0415 17.0061 58.0653 17.4856ZM64.4451 20.1557H60.9236V19.3703L62.1855 18.0155C62.5591 17.5999 62.8037 17.3277 62.9191 17.1698C63.0189 17.0364 63.1018 16.8897 63.1656 16.7334C63.2161 16.6014 63.242 16.4603 63.2419 16.3178C63.2477 16.2299 63.2359 16.1416 63.2073 16.0589C63.1786 15.9762 63.1337 15.9008 63.0756 15.8378C62.9503 15.7288 62.7913 15.6733 62.6296 15.682C62.4328 15.6828 62.2388 15.7311 62.0622 15.8233C61.8564 15.9342 61.6633 16.0702 61.487 16.2285L60.9099 15.5033C61.1001 15.3236 61.3065 15.1642 61.5262 15.0275C61.6948 14.9352 61.8736 14.8654 62.0583 14.8197C62.2706 14.7675 62.488 14.7423 62.7059 14.7449C62.9925 14.7385 63.2767 14.801 63.5373 14.9277C63.7659 15.0389 63.9604 15.216 64.0988 15.4389C64.2319 15.6639 64.2999 15.9254 64.2944 16.1911C64.2963 16.4281 64.2544 16.6632 64.1712 16.883C64.0769 17.1226 63.9497 17.346 63.7936 17.5459C63.514 17.8907 63.212 18.2143 62.8898 18.5142L62.2442 19.1604V19.2124H64.4353L64.4451 20.1557ZM68.3363 20.1557H64.8148V19.3703L66.0767 18.0155C66.4504 17.5999 66.6949 17.3277 66.8084 17.1698C66.9094 17.0369 66.993 16.8901 67.0569 16.7334C67.1073 16.6014 67.1332 16.4603 67.1331 16.3178C67.1396 16.2297 67.1279 16.141 67.0989 16.0581C67.0698 15.9752 67.0241 15.9001 66.9649 15.8378C66.8405 15.7286 66.682 15.673 66.5208 15.682C66.324 15.6826 66.13 15.7309 65.9535 15.8233C65.7476 15.9342 65.5546 16.0702 65.3783 16.2285L64.7914 15.5033C64.9808 15.3226 65.1874 15.1632 65.4076 15.0275C65.5763 14.9352 65.755 14.8654 65.9398 14.8197C66.1514 14.7676 66.3681 14.7425 66.5854 14.7449C66.8726 14.7383 67.1575 14.8008 67.4188 14.9277C67.6467 15.039 67.8406 15.2162 67.9783 15.4389C68.1114 15.6639 68.1794 15.9254 68.1739 16.1911C68.1764 16.4279 68.1352 16.663 68.0526 16.883C67.9619 17.119 67.8401 17.3401 67.6907 17.5397C67.4106 17.8839 67.1086 18.2075 66.7869 18.508L66.1413 19.1542V19.2061H68.3363V20.1557Z" fill="white"/>
</g>
<defs>
<clipPath id="clip0_1067_13301">
<rect width="121" height="107" fill="white"/>
</clipPath>
</defs>
</svg>
