<?xml version="1.0" encoding="utf-8"?>
<!-- Generator: Adobe Illustrator 27.1.1, SVG Export Plug-In . SVG Version: 6.00 Build 0)  -->
<svg version="1.1" id="Layer_1" xmlns="http://www.w3.org/2000/svg" xmlns:xlink="http://www.w3.org/1999/xlink" x="0px" y="0px"
	 viewBox="0 0 574 110.2" style="enable-background:new 0 0 574 110.2;" xml:space="preserve">
<style type="text/css">
	.st0{fill-rule:evenodd;clip-rule:evenodd;fill:#4D4D4E;}
	.st1{fill:#F26522;}
	.st2{fill:#4D4D4E;}
</style>
<path class="st0" d="M281,101.3v7.3c-16,0-24-6.8-24-20.5v-70h8.8v23H281v8.2h-15.2v37.2C265.7,96.4,270.8,101.3,281,101.3z
	 M242.6,52.1c-2.5,2.1-4.3,3.9-5.2,5.4c-1.5,2.5-2.2,5.9-2.2,10.2v39.4h-9.2V41.3h8.2v9.4c1.8-3.5,4.6-6.3,8.2-8.2
	c3.3-1.8,6.7-2.6,10.2-2.4v8.8C248.4,48.9,245.1,50.1,242.6,52.1z M210.9,96.9c-7.1,8.2-15.9,12.1-26.2,11.8
	c-9-0.3-16.7-3.8-23.1-10.5c-6.4-6.7-9.5-14.7-9.5-23.9c0-9.6,3.4-17.9,10.3-24.8c6.8-6.9,15-10.2,24.6-9.8
	c9.2,0.3,17.1,3.8,23.5,10.6c6.5,6.7,9.5,14.7,9.2,23.9v0.5v32.6h-8.8V96.9z M203.5,55.6c-4.8-4.9-10.5-7.4-17.2-7.4
	c-7,0-13,2.5-17.9,7.4c-4.9,4.9-7.4,10.9-7.5,18c-0.2,7,2.1,13,6.9,18.3c4.7,5.2,10.5,8,17.2,8.3c7.2,0.3,13.4-2.2,18.6-7.6
	c5.1-5.4,7.6-11.7,7.5-19.1C210.8,66.5,208.3,60.6,203.5,55.6z M136,66.7c0-5.1-1.5-9.4-4.4-13.1c-2.9-3.6-6.8-5.4-11.5-5.4
	c-4.8,0-9,1.6-12.5,4.7c-3.5,3.2-5.2,7.1-5.2,11.8v42.4H93V64.8c0-4.7-1.8-8.6-5.2-11.8c-3.5-3.2-7.7-4.7-12.5-4.7
	c-4.8,0-8.6,1.8-11.4,5.4c-2.8,3.6-4.3,8-4.3,13.1v40.5h-9.1V67.8c0-8.3,2.3-14.9,7-19.9c4.4-4.7,10.2-7.4,17.3-8
	c9.5-0.8,17.1,3.3,22.8,12.3c5.7-8.9,13.3-13,22.8-12.3c7.2,0.6,13,3.3,17.4,8c4.8,5,7.2,11.6,7.2,19.9v39.4H136V66.7z M22.1,108.9
	c-5.5-0.4-10.2-2.6-13.9-6.7c-3.7-4.1-5.6-8.9-5.6-14.6h9.1v2.2c0,2.3,1.2,4.6,3.7,7c2.5,2.4,5.1,3.6,7.8,3.5
	c3.7-0.1,6.6-1.2,8.8-3.4c1.9-2,2.9-4.6,3-7.9c0.1-5.6-3.1-9.5-9.6-11.6l-7.7-2.5C9.6,72.5,5.4,67,5,58.5c-0.2-5.1,1.5-9.4,5.1-13.1
	c3.7-3.6,8.1-5.6,13.3-5.8c4.5-0.2,8.7,1.2,12.6,4.3c3.9,3.1,6,7,6.3,11.6v2h-9.2v-1.5c0-2.3-1-4.2-2.9-5.7c-2-1.4-4.2-2.2-6.7-2.2
	c-2.5,0.1-4.6,1-6.4,2.7c-1.8,1.7-2.8,3.8-2.8,6.4c-0.3,4.7,2.5,8.1,8.4,10.1l7.6,2.6c8.8,3,13.5,8.9,14.1,17.6
	c0.5,5.9-1.6,11.1-6.2,15.4C33.4,107.3,28.1,109.3,22.1,108.9z"/>
<path class="st1" d="M371.5,41.3h16.5v65.9h-16.5V41.3z"/>
<path class="st1" d="M405.1,17h16.5v24.3h9.8v14.2h-9.8v51.6h-16.5V55.5h-8.5V41.3h8.5V17z"/>
<path class="st1" d="M571.4,88.6c0,6.4-2.8,11.6-8.4,15.4c-5.1,3.4-11.6,5.1-19.3,5.1c-7.9,0-14.3-1.6-19.2-4.7
	c-5.6-3.6-8.4-8.6-8.4-15.3h17.2c0,2.3,1.1,4.2,3.2,5.6c1.9,1.3,4.3,2,7.2,2c6.4,0,9.5-2.3,9.5-6.9c0-2.2-1.2-3.9-3.5-5.1
	c-1-0.5-3.2-1.2-6.6-2.1l-9.2-2.4c-10.9-2.8-16.4-8.9-16.4-18.4c0-6,2.9-10.8,8.8-14.3c5-3,11-4.5,17.9-4.5c7.1,0,12.9,1.5,17.5,4.5
	c5,3.4,7.6,8.1,7.6,14h-16.7c0-4-2.8-6.1-8.3-6.1c-5.5,0-8.2,1.9-8.2,5.6c0,2.6,3.1,4.8,9.2,6.4l8.7,2.4
	C565.6,73,571.4,79.2,571.4,88.6z"/>
<path class="st2" d="M381.3,36.7c-10.1-0.1-17.7-7.2-18.5-16.3c-0.8-9.3,6-17.8,15.3-19c1-0.1,2-0.1,3-0.2c0.7,0,0.8,0.3,0.6,0.9
	c-0.4,1.3-0.2,2.5,0.7,3.5c0.3,0.4,0.3,0.6,0,1c-0.9,1.2-0.9,2.8,0,4c0.8,1.2,2.2,1.7,3.7,1.4c0.6-0.1,0.8,0,0.8,0.6
	c0.1,1.4,0.7,2.5,2,3.1c1.3,0.6,2.5,0.5,3.6-0.3c0.5-0.4,0.8-0.3,1,0.3c0.6,1.6,2.2,2.5,3.8,2.2c0.8-0.1,1,0,1,0.8
	c-0.1,7.2-3.3,12.5-9.6,16C386.1,36.1,383.3,36.7,381.3,36.7z M397.1,19c-0.9-0.1-1.7-0.2-2.6-0.4c0,0,0,0.1,0,0.1
	c0.6,0.3,1.3,0.6,1.9,0.9c-0.4,3.3-1.5,6.4-2.8,9.4C395.8,26.1,396.8,22.6,397.1,19z M380.7,8.6c-0.5,1-0.2,2.8,0.7,3.7
	c1,1,2.2,1.4,3.5,1.5c0.3,0,0.5,0.1,0.6,0.5c0.4,1.2,1.1,2.1,2.3,2.6c0.1,0.1,0.3,0.1,0.5,0.2c0-0.1,0-0.1,0-0.2
	c-1.3-0.8-2-2.1-2.5-3.5c0-0.1-0.2-0.2-0.4-0.3c-0.5-0.1-1.1-0.2-1.7-0.3c-1.6-0.4-2.6-1.4-2.9-3C380.8,9.5,380.8,9.1,380.7,8.6z
	 M372.7,18.1c0.9,0,1.5-0.6,1.5-1.4c0-0.7-0.6-1.3-1.3-1.4c-0.8,0-1.4,0.6-1.4,1.4C371.5,17.5,372,18,372.7,18.1z M388.1,19.9
	c-0.6-0.1-1.3,0.7-1.3,1.4c0,0.7,0.7,1.3,1.4,1.3c0.8,0,1.3-0.6,1.3-1.4C389.5,20.4,389.1,19.8,388.1,19.9z M381.3,26.8
	c0,0.7,0.6,1.3,1.3,1.3c0.8,0,1.4-0.6,1.4-1.4c0-0.7-0.6-1.3-1.3-1.3C381.9,25.4,381.3,26,381.3,26.8z M379.2,11.1
	c0-0.8-0.6-1.3-1.4-1.3c-0.8,0-1.3,0.6-1.3,1.4c0,0.7,0.6,1.3,1.3,1.3C378.6,12.5,379.2,11.9,379.2,11.1z M376,24.7
	c0-0.8-0.6-1.4-1.3-1.4c-0.7,0-1.3,0.6-1.3,1.3c0,0.8,0.6,1.4,1.3,1.4C375.4,26,376,25.4,376,24.7z"/>
<path class="st1" d="M350.6,49.4c-6-6.5-13.3-9.7-21.9-9.7c-4,0-7.7,0.7-11.1,2.2c-3.5,1.5-6.7,3.7-9.7,6.7V15.9h-13.4
	c1.2,1.5,1.5,3.6,0.7,5.5c-0.4,1-0.2,1.3,0.8,1.5c2.2,0.3,3.7,1.5,4.5,3.6c0.8,2.1,0.3,4-1.2,5.7c-0.6,0.7-0.6,1.1,0.2,1.6
	c2,1.2,3,3.4,2.6,5.7c-0.4,2.3-2.1,4-4.4,4.5c-0.7,0.1-1,0.4-1.1,1.2c-0.1,2.2-1.2,3.7-3.1,4.7c-0.2,0.1-0.9,0.1-2,0.1v57.2h16.4v-7
	c3.2,3.1,6.5,5.3,9.7,6.6c3.3,1.4,6.8,2,10.6,2c8.5,0,15.9-3.3,22.1-9.9c6.2-6.6,9.3-14.8,9.3-24.6
	C359.7,64.2,356.6,55.9,350.6,49.4z M338,88.2c-3.5,3.7-7.7,5.5-12.7,5.5c-5.2,0-9.5-1.8-13-5.4c-3.4-3.6-5.1-8.3-5.1-14.2
	c0-5.7,1.7-10.4,5.1-13.9c3.4-3.6,7.8-5.3,13-5.3c5.2,0,9.4,1.8,12.8,5.4c3.4,3.6,5.1,8.2,5.1,13.9C343.2,79.9,341.5,84.6,338,88.2z
	"/>
<path class="st1" d="M496.6,49.6c-6.5-6.6-14.9-10-25.3-10c-9.8,0-17.9,3.3-24.4,10c-6.5,6.6-9.7,15-9.7,25c0,9.8,3.2,18,9.7,24.5
	c5.1,5.2,11.5,8.3,19,9.3c-0.1-0.5-0.1-0.9-0.2-1.3c0.1-0.1,0.6-0.7,0.9-1.2c1.3-2.3,4-3.3,6.6-2.5c1,0.3,1.4,0.1,1.4-1
	c0.1-2.2,1.2-3.9,3.2-4.8c2-0.9,4-0.7,5.8,0.7c0.7,0.6,1.1,0.5,1.6-0.3c1.1-2.1,3.2-3.3,5.4-3.1c2.3,0.2,4.2,1.8,4.8,4
	c0.2,0.7,0.5,1,1.3,1c0.1,0,0.3,0,0.4,0c1.7-1.6,3.2-3.4,4.7-5.4L488,87.9c-4.4,4.3-9.7,6.5-15.9,6.5c-5.2,0-9.4-1.4-12.7-4.1
	c-3.3-2.8-5.4-6.5-6.1-11.2h53.1l0.1-3.1C506.3,65,503.1,56.2,496.6,49.6z M453.9,66c1.9-4.1,3.9-6.9,6.1-8.5
	c3.5-2.6,7.5-3.9,12.1-3.9c4.2,0,8,1.2,11.2,3.5c3.2,2.3,5.4,5.3,6.5,9H453.9z"/>
</svg>
