<svg width="61" height="80" viewBox="0 0 61 80" fill="none" xmlns="http://www.w3.org/2000/svg">
<path fill-rule="evenodd" clip-rule="evenodd" d="M52.8852 34.9373L30.4694 12.3605L14.7455 28.2023L37.1563 50.7791L29.2944 58.7L4.91685 34.1467C3.35217 32.569 2.47358 30.4323 2.47358 28.2048C2.47358 25.9773 3.35217 23.8406 4.91685 22.2629L24.5843 2.4632C25.3574 1.68252 26.2765 1.06303 27.2886 0.640316C28.3007 0.217605 29.3859 0 30.482 0C31.578 0 32.6633 0.217605 33.6754 0.640316C34.6875 1.06303 35.6065 1.68252 36.3797 2.4632L60.7572 27.0164L52.8852 34.9373ZM30.2576 67.6091L45.9865 51.7673L23.5908 29.1956L31.4527 21.2848L55.8303 45.838C57.3949 47.4158 58.2735 49.5525 58.2735 51.78C58.2735 54.0075 57.3949 56.1441 55.8303 57.7219L36.1729 77.5368C35.3998 78.3175 34.4807 78.937 33.4686 79.3597C32.4565 79.7824 31.3713 80 30.2752 80C29.1792 80 28.0939 79.7824 27.0818 79.3597C26.0697 78.937 25.1507 78.3175 24.3775 77.5368L0 52.9582L7.86192 45.0373L30.2576 67.6091Z" fill="#F26B21"/>
</svg>
