<svg width="206" height="83" viewBox="0 0 206 83" fill="none" xmlns="http://www.w3.org/2000/svg">
<path fill-rule="evenodd" clip-rule="evenodd" d="M193.711 67.5965V67.9559C193.654 69.7181 194.227 71.4403 195.32 72.7946C195.809 73.4094 196.426 73.9024 197.124 74.237C197.823 74.5716 198.586 74.7391 199.356 74.727C200.246 74.7442 201.129 74.5555 201.939 74.1749C202.737 73.756 203.428 73.1494 203.957 72.404L205.097 73.3051C203.752 75.3156 201.806 76.3208 199.26 76.3208C197.923 76.3432 196.608 75.9733 195.467 75.2541C194.325 74.5349 193.405 73.496 192.813 72.2582C192.172 70.9219 191.848 69.447 191.87 67.9559V67.2788C191.847 65.748 192.162 64.2319 192.793 62.8463C193.354 61.5802 194.242 60.4986 195.361 59.7212C196.413 58.9847 197.656 58.5926 198.927 58.5961C199.824 58.5557 200.719 58.7254 201.544 59.0925C202.368 59.4596 203.102 60.0147 203.689 60.716C204.866 62.1327 205.453 64.0669 205.45 66.5183V67.5601L193.711 67.5965ZM203.664 65.7787C203.678 64.3211 203.198 62.9042 202.307 61.7734C201.901 61.267 201.388 60.8631 200.807 60.5923C200.227 60.3215 199.594 60.191 198.958 60.2108C198.304 60.198 197.656 60.331 197.057 60.6007C196.458 60.8704 195.922 61.2704 195.487 61.7734C194.493 62.9463 193.892 64.4182 193.772 65.9714H203.664V65.7787ZM179.707 72.9196C180.158 73.5235 180.743 74.0056 181.414 74.3249C182.084 74.6442 182.819 74.7911 183.556 74.7531C184.717 74.7935 185.851 74.3974 186.75 73.6384C187.173 73.2871 187.519 72.8457 187.763 72.3442C188.006 71.8427 188.143 71.2928 188.162 70.7321H189.918C189.872 71.7551 189.545 72.7435 188.974 73.5811C188.385 74.446 187.589 75.1386 186.664 75.5916C185.703 76.0764 184.646 76.3259 183.577 76.3208C182.603 76.3633 181.633 76.1746 180.741 75.7692C179.849 75.3637 179.058 74.7524 178.431 73.9822C177.167 72.43 176.534 70.3466 176.534 67.7319V67.1382C176.505 65.6026 176.796 64.0785 177.387 62.6692C177.901 61.4454 178.752 60.4042 179.834 59.6743C180.952 58.9604 182.247 58.5984 183.562 58.6326C185.206 58.5712 186.81 59.1705 188.036 60.3045C188.622 60.8687 189.09 61.5496 189.414 62.3061C189.737 63.0626 189.909 63.8789 189.918 64.7058H188.162C188.077 63.7317 187.71 62.8064 187.111 62.0492C186.511 61.292 185.706 60.7375 184.798 60.4573C183.891 60.1771 182.923 60.1839 182.019 60.477C181.115 60.77 180.317 61.3359 179.728 62.1015C178.82 63.3377 178.366 65.0634 178.366 67.2788V67.8309C178.352 69.9872 178.799 71.6835 179.707 72.9196ZM174.259 60.4191C173.213 60.3859 172.189 60.7365 171.369 61.4088C170.529 62.1541 169.939 63.1552 169.684 64.2683V75.9927H167.873V58.9295H169.654L169.684 61.6484C170.071 60.7165 170.723 59.9279 171.553 59.3866C172.384 58.8454 173.354 58.577 174.335 58.617C174.746 58.5994 175.156 58.6685 175.541 58.8201L175.49 60.5389C175.084 60.4606 174.672 60.4205 174.259 60.4191ZM153.178 67.9455C153.119 69.708 153.692 71.4311 154.787 72.7842C155.275 73.3996 155.892 73.893 156.591 74.2276C157.29 74.5622 158.053 74.7294 158.823 74.7166C159.713 74.7332 160.595 74.5446 161.406 74.1645C162.204 73.7461 162.895 73.1394 163.424 72.3936L164.569 73.2947C163.224 75.3052 161.278 76.3104 158.732 76.3104C157.395 76.3328 156.08 75.9629 154.939 75.2437C153.797 74.5245 152.877 73.4856 152.285 72.2477C151.642 70.912 151.317 69.437 151.337 67.9455V67.2684C151.313 65.7376 151.629 64.2215 152.26 62.8359C152.824 61.5718 153.712 60.491 154.828 59.7108C155.881 58.9757 157.123 58.5838 158.394 58.5857C159.291 58.5449 160.186 58.7144 161.011 59.0816C161.836 59.4487 162.569 60.0039 163.156 60.7056C164.333 62.1223 164.92 64.0564 164.917 66.5079V67.5496H153.178V67.9455ZM163.131 65.9767V65.7683C163.145 64.3107 162.665 62.8938 161.774 61.7629C161.367 61.2565 160.853 60.8525 160.271 60.5818C159.69 60.311 159.057 60.1806 158.419 60.2004C157.767 60.1884 157.12 60.3217 156.522 60.5914C155.923 60.861 155.389 61.2606 154.954 61.7629C153.958 62.9344 153.356 64.4072 153.239 65.961L163.131 65.9767ZM146.545 64.7422C146.545 63.2179 146.228 62.0876 145.596 61.3515C144.964 60.6153 143.945 60.2473 142.539 60.2473C141.309 60.2341 140.12 60.7053 139.215 61.565C138.339 62.3664 137.797 63.486 137.701 64.6901V75.9875H135.87V64.612C135.87 63.1484 135.527 62.0598 134.861 61.3358C134.195 60.6119 133.197 60.2577 131.835 60.2577C130.762 60.2375 129.716 60.606 128.878 61.2994C127.985 62.091 127.346 63.1447 127.047 64.3203V76.0291H125.216V58.9295H126.972L127.032 61.7109C127.581 60.741 128.37 59.9393 129.317 59.3878C130.255 58.8676 131.305 58.6023 132.369 58.617C134.967 58.617 136.622 59.7212 137.318 61.9296C137.873 60.9027 138.692 60.0538 139.684 59.4764C140.679 58.9009 141.802 58.6046 142.943 58.617C146.481 58.617 148.285 60.6153 148.356 64.612V76.0031H146.545V64.7422ZM119.506 64.7422C119.506 63.2179 119.188 62.0876 118.552 61.3515C117.917 60.6153 116.908 60.2473 115.526 60.2473C114.295 60.2341 113.107 60.7053 112.201 61.565C111.325 62.3664 110.783 63.486 110.688 64.6901V75.9875H108.857V64.612C108.857 63.1484 108.514 62.0598 107.848 61.3358C107.182 60.6119 106.183 60.2577 104.821 60.2577C103.747 60.2384 102.699 60.6068 101.86 61.2994C100.968 62.0915 100.331 63.1452 100.034 64.3203V76.0291H98.2025V58.9295H99.958L100.019 61.7109C100.567 60.741 101.356 59.9393 102.304 59.3878C103.233 58.8711 104.275 58.6058 105.33 58.617C107.933 58.617 109.585 59.7212 110.284 61.9296C110.839 60.9027 111.658 60.0538 112.65 59.4764C113.645 58.9009 114.769 58.6046 115.909 58.617C119.443 58.617 121.248 60.6153 121.322 64.612V76.0031H119.506V64.7422ZM91.6294 75.2374C90.4772 75.962 89.1495 76.3341 87.8006 76.3104C86.7966 76.3439 85.798 76.1468 84.8768 75.7334C83.9555 75.32 83.1347 74.7005 82.4735 73.9197C81.1115 72.3259 80.4288 70.2147 80.4254 67.5861V67.2059C80.4021 65.6751 80.7178 64.159 81.3486 62.7734C81.9095 61.5085 82.8161 60.4403 83.9569 59.7C85.0978 58.9598 86.4232 58.5797 87.7703 58.6066C88.7761 58.5708 89.7769 58.7668 90.7001 59.1803C91.6233 59.5938 92.4457 60.2145 93.1075 60.9973C94.4695 62.5911 95.1505 64.7023 95.1505 67.3309V67.7267C95.1738 69.2659 94.8582 70.7904 94.2274 72.1852C93.6658 73.4436 92.7635 74.5073 91.6294 75.2479V75.2374ZM93.3244 67.2163C93.3399 65.9839 93.1009 64.7623 92.6232 63.6328C92.2131 62.6192 91.5326 61.7468 90.6609 61.1171C89.805 60.5207 88.7926 60.2098 87.7602 60.2264C86.9935 60.2097 86.2338 60.3803 85.543 60.7242C84.8522 61.0682 84.2499 61.5758 83.7851 62.2057C82.756 63.5286 82.2432 65.2561 82.2465 67.3882V67.7371C82.1698 69.5433 82.7049 71.3205 83.7599 72.7634C84.2458 73.3769 84.8577 73.8712 85.5512 74.2106C86.2448 74.5501 87.0028 74.7262 87.7703 74.7262C88.5379 74.7262 89.2958 74.5501 89.9894 74.2106C90.683 73.8712 91.2948 73.3769 91.7808 72.7634C92.7897 71.4508 93.2941 69.7233 93.2941 67.5809L93.3244 67.2163ZM68.2227 72.9196C68.6734 73.5231 69.2589 74.0051 69.9291 74.3243C70.5993 74.6436 71.3344 74.7907 72.0716 74.7531C73.2317 74.7935 74.3665 74.3974 75.2649 73.6384C75.6884 73.2869 76.0337 72.8454 76.2775 72.344C76.5212 71.8425 76.6575 71.2928 76.6773 70.7321H78.4278C78.3849 71.7556 78.0574 72.7447 77.4845 73.5811C76.8953 74.446 76.0994 75.1386 75.1741 75.5916C74.2133 76.0774 73.1566 76.327 72.0868 76.3208C71.113 76.3633 70.1428 76.1746 69.2507 75.7692C68.3587 75.3637 67.5686 74.7524 66.9413 73.9822C65.6802 72.43 65.0479 70.3466 65.0446 67.7319V67.1382C65.0167 65.6022 65.3092 64.0781 65.9022 62.6692C66.4127 61.4445 67.262 60.4026 68.3437 59.6743C69.4619 58.9604 70.7574 58.5984 72.0716 58.6326C73.7166 58.5701 75.3209 59.1696 76.5462 60.3045C77.1327 60.8679 77.6019 61.5487 77.9254 62.3053C78.2489 63.062 78.4199 63.8787 78.4278 64.7058H76.6773C76.5904 63.7319 76.2232 62.8071 75.6231 62.0504C75.023 61.2937 74.2173 60.7397 73.3097 60.4596C72.4021 60.1796 71.4342 60.1863 70.5303 60.4788C69.6264 60.7714 68.828 61.3366 68.2378 62.1015C67.3298 63.3377 66.8758 65.0634 66.8758 67.2788V67.8309C66.8657 69.9872 67.3146 71.6835 68.2227 72.9196Z" fill="white"/>
<path fill-rule="evenodd" clip-rule="evenodd" d="M205.379 50.3041V54.096C197.308 54.096 193.272 50.542 193.272 43.4341V6.97424H197.696V18.9539H205.374V23.2301H197.701V42.6528C197.701 47.7537 200.261 50.3041 205.379 50.3041ZM186.003 24.6989C184.986 25.4887 184.101 26.446 183.385 27.5324C182.648 28.8554 182.28 30.621 182.28 32.8295V53.3772H177.624V19.0372H181.756V23.9176C182.648 22.1986 183.986 20.7698 185.62 19.791C187.254 18.8123 189.119 18.3223 191.007 18.3758V22.9541C189.198 22.9446 187.437 23.5586 186.003 24.6989ZM170.057 48.0124C166.462 52.273 162.057 54.3217 156.84 54.1585C154.64 54.1049 152.473 53.5913 150.47 52.6486C148.467 51.7059 146.67 50.3538 145.188 48.6739C143.63 47.0249 142.403 45.0745 141.577 42.9347C140.751 40.7949 140.343 38.5078 140.375 36.2046C140.344 33.8003 140.787 31.4146 141.678 29.193C142.568 26.9713 143.888 24.9602 145.556 23.2822C147.14 21.5561 149.07 20.2068 151.21 19.3281C153.35 18.4493 155.65 18.0622 157.95 18.1935C160.187 18.2411 162.391 18.7537 164.431 19.7005C166.471 20.6473 168.306 22.0089 169.825 23.7041C171.395 25.3314 172.619 27.278 173.421 29.4202C174.222 31.5623 174.583 33.8532 174.481 36.1473V53.3772H170.057V48.0124ZM166.324 26.5167C165.218 25.2804 163.873 24.2976 162.376 23.6319C160.878 22.9661 159.262 22.6323 157.632 22.652C155.949 22.6226 154.277 22.9504 152.722 23.6152C151.166 24.28 149.759 25.2675 148.588 26.5167C147.378 27.736 146.419 29.1947 145.768 30.8057C145.117 32.4166 144.787 34.1466 144.799 35.8921C144.741 37.6355 145.018 39.3734 145.613 41.0058C146.209 42.6382 147.112 44.1326 148.27 45.4029C149.35 46.6968 150.676 47.7478 152.166 48.4906C153.656 49.2333 155.278 49.6521 156.931 49.7208C158.679 49.8249 160.426 49.5239 162.047 48.8399C163.667 48.1558 165.118 47.106 166.294 45.7675C167.543 44.4636 168.521 42.9101 169.168 41.2021C169.815 39.4942 170.118 37.6677 170.057 35.8348C170.041 32.3443 168.701 28.9994 166.324 26.5167ZM132.228 32.293C132.288 29.8264 131.506 27.4167 130.019 25.4854C129.331 24.5755 128.446 23.8453 127.435 23.354C126.423 22.8627 125.314 22.624 124.197 22.6572C121.863 22.6144 119.603 23.4981 117.881 25.126C117.034 25.8855 116.357 26.8274 115.9 27.8856C115.442 28.9438 115.215 30.0926 115.233 31.2513V53.3616H110.577V31.2513C110.598 30.0939 110.374 28.9457 109.921 27.8868C109.468 26.828 108.797 25.884 107.954 25.1208C106.232 23.4938 103.971 22.6102 101.638 22.652C100.526 22.6076 99.4199 22.8388 98.4124 23.3264C97.4048 23.8139 96.5251 24.5435 95.8467 25.4542C94.3846 27.4076 93.6266 29.8255 93.7027 32.293V53.3824H89.1021V32.8138C89.1021 28.5185 90.2791 25.0653 92.6333 22.454C94.8495 20.006 97.7602 18.6171 101.365 18.2872C106.185 17.9018 110.032 20.039 112.907 24.6989C115.779 20.039 119.62 17.9105 124.429 18.3133C128.034 18.6362 130.964 20.0251 133.217 22.4801C135.625 25.0913 136.829 28.5446 136.829 32.8399V53.3876H132.228V32.293ZM74.7856 54.2783C73.4509 54.2043 72.1437 53.8573 70.94 53.2574C69.7362 52.6574 68.66 51.8164 67.7737 50.7833C65.9182 48.7257 64.9074 46.0055 64.9538 43.1945H69.5494V44.3508C69.5494 45.5227 70.1698 46.7415 71.4108 47.9968C72.6518 49.252 73.9734 49.8614 75.3708 49.8198C76.1836 49.8443 76.9931 49.7023 77.7525 49.4019C78.5118 49.1015 79.206 48.6487 79.7949 48.0697C80.7909 46.9508 81.3327 45.4796 81.3082 43.9601C81.3419 41.0156 79.7293 38.9999 76.4705 37.913L72.5761 36.6317C68.5001 35.3087 66.3662 32.4371 66.1746 28.0168C66.0995 26.7542 66.2932 25.49 66.7421 24.313C67.1909 23.136 67.8839 22.0748 68.7725 21.204C70.5438 19.352 72.9369 18.2741 75.4565 18.1935C77.7697 18.0908 80.0342 18.8987 81.7925 20.454C82.7146 21.1655 83.4762 22.0751 84.0249 23.12C84.5735 24.1649 84.8962 25.3202 84.9706 26.5063V27.548H80.3145V26.7355C80.3239 26.1541 80.1933 25.5794 79.9344 25.063C79.6756 24.5467 79.2965 24.1048 78.8314 23.777C77.8459 23.0279 76.6499 22.6327 75.4263 22.652C74.2184 22.6769 73.0646 23.1739 72.1978 24.0427C71.7526 24.4687 71.3964 24.9841 71.1509 25.5573C70.9054 26.1305 70.7758 26.7494 70.7701 27.3761C70.6188 29.838 72.0363 31.5933 75.0227 32.642L78.8616 33.9754C83.284 35.5414 85.6499 38.5936 85.9593 43.132C86.1981 46.2259 85.1522 48.9065 82.8216 51.174C81.7759 52.2559 80.5172 53.0931 79.1307 53.6287C77.7442 54.1643 76.2623 54.3858 74.7856 54.2783Z" fill="white"/>
<path fill-rule="evenodd" clip-rule="evenodd" d="M52.9023 35.9075L30.4792 12.7034L14.7503 28.9853L37.1683 52.1894L29.3039 60.3303L4.91845 35.0949C3.35325 33.4733 2.47438 31.2773 2.47438 28.9879C2.47438 26.6985 3.35325 24.5025 4.91845 22.8809L24.5922 2.53109C25.3657 1.72871 26.285 1.09201 27.2974 0.657558C28.3099 0.223102 29.3955 -0.000549316 30.4918 -0.000549316C31.5882 -0.000549316 32.6738 0.223102 33.6863 0.657558C34.6987 1.09201 35.618 1.72871 36.3915 2.53109L60.7769 27.7665L52.9023 35.9075ZM30.2674 69.487L46.0014 53.205L23.5985 30.0062L31.4629 21.8756L55.8483 47.111C57.4135 48.7326 58.2924 50.9287 58.2924 53.2181C58.2924 55.5075 57.4135 57.7035 55.8483 59.3251L36.1846 79.6905C35.4112 80.4929 34.4919 81.1296 33.4794 81.564C32.467 81.9985 31.3814 82.2222 30.285 82.2222C29.1886 82.2222 28.103 81.9985 27.0906 81.564C26.0782 81.1296 25.1588 80.4929 24.3854 79.6905L0 54.4291L7.86447 46.2881L30.2674 69.487Z" fill="white"/>
</svg>
