<svg width="125" height="51" viewBox="0 0 125 51" fill="none" xmlns="http://www.w3.org/2000/svg">
<path fill-rule="evenodd" clip-rule="evenodd" d="M117.835 41.6191V41.8377C117.8 42.9096 118.149 43.9573 118.814 44.7811C119.111 45.155 119.486 45.4549 119.911 45.6585C120.336 45.862 120.8 45.9639 121.269 45.9565C121.81 45.967 122.347 45.8522 122.84 45.6207C123.325 45.3659 123.745 44.9969 124.067 44.5435L124.761 45.0916C123.942 46.3146 122.759 46.9261 121.21 46.9261C120.397 46.9397 119.597 46.7147 118.903 46.2772C118.208 45.8397 117.649 45.2077 117.289 44.4547C116.898 43.6419 116.702 42.7447 116.715 41.8377V41.4258C116.701 40.4946 116.893 39.5723 117.276 38.7295C117.617 37.9593 118.158 37.3014 118.838 36.8285C119.478 36.3805 120.234 36.142 121.008 36.1441C121.554 36.1195 122.098 36.2227 122.599 36.4461C123.101 36.6694 123.547 37.007 123.905 37.4336C124.621 38.2954 124.978 39.472 124.975 40.9632V41.5969L117.835 41.6191ZM123.889 40.5133C123.898 39.6266 123.606 38.7647 123.064 38.0768C122.816 37.7688 122.504 37.5231 122.151 37.3584C121.798 37.1937 121.413 37.1143 121.026 37.1263C120.629 37.1185 120.234 37.1994 119.87 37.3635C119.506 37.5275 119.18 37.7708 118.915 38.0768C118.311 38.7903 117.945 39.6857 117.872 40.6305H123.889V40.5133ZM109.316 44.8571C109.59 45.2244 109.946 45.5177 110.354 45.712C110.762 45.9062 111.209 45.9955 111.658 45.9724C112.363 45.997 113.054 45.756 113.6 45.2944C113.858 45.0807 114.068 44.8122 114.216 44.5071C114.365 44.202 114.447 43.8675 114.459 43.5264H115.527C115.5 44.1487 115.3 44.75 114.953 45.2595C114.595 45.7856 114.111 46.2069 113.548 46.4825C112.963 46.7774 112.321 46.9291 111.67 46.9261C111.078 46.9519 110.487 46.8371 109.945 46.5905C109.402 46.3439 108.922 45.972 108.54 45.5035C107.771 44.5593 107.386 43.2919 107.386 41.7014V41.3402C107.368 40.4062 107.545 39.479 107.905 38.6218C108.218 37.8773 108.735 37.244 109.393 36.8C110.073 36.3657 110.861 36.1455 111.661 36.1663C112.661 36.129 113.637 36.4935 114.383 37.1833C114.739 37.5265 115.024 37.9407 115.221 38.4009C115.417 38.861 115.522 39.3576 115.527 39.8606H114.459C114.407 39.2681 114.185 38.7052 113.82 38.2446C113.455 37.784 112.965 37.4467 112.413 37.2763C111.861 37.1058 111.272 37.11 110.722 37.2882C110.173 37.4665 109.687 37.8107 109.329 38.2764C108.776 39.0284 108.5 40.0782 108.5 41.4258V41.7616C108.492 43.0733 108.764 44.1052 109.316 44.8571ZM106.002 37.253C105.366 37.2328 104.743 37.4461 104.244 37.855C103.733 38.3084 103.374 38.9174 103.219 39.5945V46.7265H102.117V36.3469H103.201L103.219 38.0008C103.454 37.4339 103.851 36.9542 104.356 36.625C104.861 36.2957 105.451 36.1325 106.048 36.1568C106.298 36.1461 106.548 36.1881 106.782 36.2804L106.751 37.3259C106.504 37.2783 106.253 37.2539 106.002 37.253ZM93.1785 41.8313C93.1424 42.9035 93.491 43.9517 94.1574 44.7747C94.4543 45.1491 94.8293 45.4492 95.2544 45.6528C95.6796 45.8563 96.1437 45.958 96.6123 45.9502C97.1536 45.9603 97.6904 45.8456 98.1834 45.6144C98.6688 45.3599 99.0894 44.9908 99.4108 44.5371L100.107 45.0852C99.2891 46.3082 98.1057 46.9197 96.557 46.9197C95.7438 46.9333 94.9436 46.7083 94.2493 46.2708C93.5551 45.8333 92.9954 45.2014 92.6353 44.4484C92.2441 43.6359 92.0464 42.7387 92.0584 41.8313V41.4194C92.0442 40.4882 92.2363 39.566 92.62 38.7232C92.9629 37.9542 93.503 37.2968 94.1819 36.8221C94.8225 36.375 95.5782 36.1366 96.3514 36.1378C96.8972 36.1129 97.4414 36.2161 97.9431 36.4394C98.4448 36.6627 98.891 37.0005 99.2482 37.4273C99.9642 38.2891 100.321 39.4656 100.319 40.9569V41.5905H93.1785V41.8313ZM99.2329 40.6337V40.507C99.2413 39.6203 98.9493 38.7584 98.4074 38.0705C98.1595 37.7624 97.847 37.5167 97.4934 37.352C97.1398 37.1873 96.7545 37.1079 96.3668 37.12C95.9699 37.1127 95.5761 37.1938 95.2123 37.3578C94.8485 37.5218 94.5232 37.7649 94.2586 38.0705C93.653 38.7831 93.287 39.679 93.2153 40.6242L99.2329 40.6337ZM89.1433 39.8828C89.1433 38.9555 88.951 38.268 88.5664 37.8202C88.1818 37.3724 87.5619 37.1485 86.7068 37.1485C85.9585 37.1405 85.2354 37.4271 84.6846 37.9501C84.1519 38.4376 83.8221 39.1186 83.764 39.8511V46.7233H82.6501V39.8036C82.6501 38.9133 82.4414 38.2511 82.0363 37.8107C81.6313 37.3703 81.0237 37.1548 80.1952 37.1548C79.5425 37.1425 78.9062 37.3667 78.397 37.7885C77.8535 38.27 77.465 38.911 77.2831 39.6261V46.7486H76.1692V36.3469H77.237L77.2739 38.0388C77.6077 37.4488 78.0874 36.9611 78.6639 36.6257C79.2342 36.3093 79.8731 36.1479 80.5204 36.1568C82.1008 36.1568 83.1073 36.8285 83.5308 38.1719C83.8684 37.5472 84.3664 37.0308 84.9699 36.6796C85.5751 36.3295 86.2586 36.1493 86.9523 36.1568C89.1044 36.1568 90.2019 37.3724 90.2449 39.8036V46.7328H89.1433V39.8828ZM72.6955 39.8828C72.6955 38.9555 72.5022 38.268 72.1155 37.8202C71.7289 37.3724 71.1151 37.1485 70.2743 37.1485C69.5261 37.1405 68.803 37.4271 68.2521 37.9501C67.7195 38.4376 67.3897 39.1186 67.3315 39.8511V46.7233H66.2176V39.8036C66.2176 38.9133 66.009 38.2511 65.6039 37.8107C65.1989 37.3703 64.5913 37.1548 63.7627 37.1548C63.1092 37.1431 62.4722 37.3672 61.9615 37.7885C61.419 38.2703 61.0316 38.9113 60.8506 39.6261V46.7486H59.7367V36.3469H60.8046L60.8414 38.0388C61.1752 37.4488 61.655 36.9611 62.2315 36.6257C62.797 36.3113 63.4304 36.15 64.0727 36.1568C65.6561 36.1568 66.6605 36.8285 67.0861 38.1719C67.4237 37.5472 67.9217 37.0308 68.5252 36.6796C69.1304 36.3295 69.8139 36.1493 70.5076 36.1568C72.6576 36.1568 73.7552 37.3724 73.8002 39.8036V46.7328H72.6955V39.8828ZM55.7383 46.267C55.0374 46.7078 54.2298 46.9341 53.4092 46.9197C52.7985 46.9401 52.191 46.8202 51.6307 46.5687C51.0703 46.3172 50.571 45.9404 50.1688 45.4654C49.3403 44.4959 48.925 43.2117 48.9229 41.6127V41.3814C48.9087 40.4502 49.1008 39.528 49.4845 38.6851C49.8257 37.9157 50.3772 37.2659 51.0711 36.8156C51.7651 36.3653 52.5714 36.1341 53.3908 36.1504C54.0026 36.1287 54.6114 36.2479 55.173 36.4995C55.7346 36.751 56.2348 37.1286 56.6374 37.6047C57.466 38.5743 57.8802 39.8585 57.8802 41.4575V41.6983C57.8944 42.6345 57.7024 43.5619 57.3187 44.4104C56.9771 45.1759 56.4282 45.8229 55.7383 46.2734V46.267ZM56.7694 41.3878C56.7788 40.6381 56.6334 39.895 56.3428 39.2079C56.0934 38.5913 55.6794 38.0606 55.1491 37.6776C54.6286 37.3148 54.0127 37.1257 53.3847 37.1358C52.9183 37.1256 52.4561 37.2294 52.0359 37.4386C51.6157 37.6479 51.2493 37.9566 50.9666 38.3398C50.3406 39.1446 50.0286 40.1954 50.0307 41.4923V41.7046C49.984 42.8033 50.3095 43.8844 50.9513 44.7621C51.2469 45.1352 51.6191 45.436 52.041 45.6424C52.4629 45.8489 52.9239 45.956 53.3908 45.956C53.8577 45.956 54.3188 45.8489 54.7407 45.6424C55.1626 45.436 55.5348 45.1352 55.8304 44.7621C56.4441 43.9636 56.751 42.9128 56.751 41.6095L56.7694 41.3878ZM41.4999 44.8571C41.7741 45.2242 42.1303 45.5174 42.538 45.7116C42.9457 45.9058 43.3928 45.9953 43.8413 45.9724C44.547 45.997 45.2373 45.756 45.7837 45.2944C46.0414 45.0805 46.2514 44.812 46.3997 44.5069C46.5479 44.2019 46.6309 43.8675 46.6429 43.5264H47.7078C47.6817 44.149 47.4824 44.7507 47.1339 45.2595C46.7755 45.7856 46.2914 46.2069 45.7285 46.4825C45.144 46.778 44.5013 46.9298 43.8505 46.9261C43.2582 46.9519 42.668 46.8371 42.1253 46.5905C41.5827 46.3439 41.1021 45.972 40.7205 45.5035C39.9534 44.5593 39.5688 43.2919 39.5667 41.7014V41.3402C39.5498 40.4059 39.7277 39.4788 40.0884 38.6218C40.3989 37.8768 40.9156 37.243 41.5736 36.8C42.2538 36.3657 43.0418 36.1455 43.8413 36.1663C44.842 36.1283 45.8178 36.4929 46.5632 37.1833C46.9199 37.526 47.2054 37.9401 47.4022 38.4004C47.5989 38.8607 47.7029 39.3575 47.7078 39.8606H46.6429C46.5901 39.2682 46.3667 38.7056 46.0017 38.2453C45.6366 37.785 45.1465 37.448 44.5944 37.2777C44.0423 37.1073 43.4535 37.1114 42.9037 37.2894C42.3539 37.4674 41.8682 37.8111 41.5092 38.2764C40.9568 39.0284 40.6806 40.0782 40.6806 41.4258V41.7616C40.6745 43.0733 40.9476 44.1052 41.4999 44.8571Z" fill="#A6A5A5"/>
<path fill-rule="evenodd" clip-rule="evenodd" d="M124.933 31.1001V33.4067C120.023 33.4067 117.568 31.2448 117.568 26.921V4.74248H120.259V12.0297H124.929V14.6309H120.262V26.4458C120.262 29.5487 121.819 31.1001 124.933 31.1001ZM113.146 15.5244C112.527 16.0049 111.989 16.5872 111.553 17.248C111.105 18.0528 110.881 19.1269 110.881 20.4703V32.9695H108.049V12.0804H110.562V15.0492C111.105 14.0035 111.919 13.1343 112.913 12.539C113.907 11.9436 115.041 11.6455 116.19 11.678V14.463C115.089 14.4572 114.018 14.8308 113.146 15.5244ZM103.446 29.706C101.259 32.2978 98.5792 33.544 95.4063 33.4447C94.0677 33.4121 92.7494 33.0997 91.5311 32.5263C90.3127 31.9528 89.2196 31.1303 88.3178 30.1084C87.3703 29.1053 86.6239 27.9189 86.1215 26.6173C85.6192 25.3157 85.3707 23.9244 85.3903 22.5234C85.3713 21.0608 85.6409 19.6096 86.1827 18.2582C86.7245 16.9067 87.5272 15.6834 88.5418 14.6626C89.5057 13.6127 90.6794 12.7919 91.9813 12.2573C93.2833 11.7228 94.6824 11.4873 96.0814 11.5671C97.4418 11.5961 98.7826 11.9079 100.024 12.4839C101.265 13.0598 102.381 13.8881 103.305 14.9193C104.26 15.9092 105.004 17.0933 105.492 18.3964C105.98 19.6994 106.199 21.093 106.137 22.4885V32.9695H103.446V29.706ZM101.175 16.6302C100.502 15.8781 99.6841 15.2803 98.7733 14.8753C97.8626 14.4704 96.8796 14.2673 95.8881 14.2793C94.864 14.2614 93.8472 14.4608 92.9008 14.8652C91.9543 15.2696 91.0984 15.8703 90.386 16.6302C89.6501 17.3719 89.0667 18.2592 88.6707 19.2392C88.2747 20.2191 88.0743 21.2715 88.0815 22.3333C88.0462 23.3937 88.2145 24.451 88.5769 25.4439C88.9392 26.4369 89.4884 27.346 90.1927 28.1187C90.8498 28.9058 91.6566 29.5451 92.5629 29.9969C93.4693 30.4487 94.4559 30.7035 95.4615 30.7453C96.5245 30.8086 97.5877 30.6255 98.5732 30.2094C99.5587 29.7933 100.441 29.1547 101.157 28.3405C101.917 27.5473 102.512 26.6023 102.905 25.5634C103.299 24.5244 103.483 23.4134 103.446 22.2984C103.436 20.1751 102.621 18.1404 101.175 16.6302ZM80.4345 20.1439C80.4709 18.6435 79.9951 17.1777 79.0905 16.0029C78.6723 15.4493 78.1339 15.0052 77.5187 14.7063C76.9035 14.4074 76.2289 14.2622 75.5493 14.2824C74.1296 14.2564 72.7544 14.7939 71.7074 15.7842C71.1917 16.2462 70.7803 16.8192 70.502 17.4629C70.2236 18.1066 70.0852 18.8054 70.0964 19.5102V32.96H67.264V19.5102C67.2769 18.8062 67.1408 18.1077 66.8652 17.4636C66.5896 16.8195 66.1811 16.2453 65.6684 15.7811C64.621 14.7913 63.246 14.2539 61.8265 14.2793C61.1501 14.2523 60.4773 14.3929 59.8644 14.6895C59.2515 14.9861 58.7164 15.4299 58.3037 15.9838C57.4143 17.1721 56.9532 18.6429 56.9995 20.1439V32.9726H54.2009V20.4607C54.2009 17.8479 54.917 15.7473 56.349 14.1589C57.6971 12.6697 59.4677 11.8248 61.6607 11.6242C64.5923 11.3897 66.9326 12.6898 68.6817 15.5244C70.4288 12.6898 72.765 11.395 75.6904 11.64C77.8835 11.8365 79.6653 12.6813 81.036 14.1747C82.5007 15.7631 83.2331 17.8637 83.2331 20.4766V32.9758H80.4345V20.1439ZM45.4922 33.5176C44.6803 33.4726 43.8851 33.2615 43.1529 32.8966C42.4207 32.5316 41.766 32.02 41.2268 31.3916C40.0981 30.1399 39.4833 28.4853 39.5115 26.7753H42.307V27.4787C42.307 28.1916 42.6844 28.933 43.4393 29.6965C44.1942 30.4601 44.9982 30.8308 45.8482 30.8055C46.3426 30.8204 46.835 30.734 47.297 30.5513C47.7589 30.3685 48.1811 30.0931 48.5394 29.7409C49.1452 29.0603 49.4748 28.1654 49.4599 27.2411C49.4804 25.4499 48.4995 24.2237 46.5171 23.5626L44.1482 22.7832C41.6687 21.9784 40.3707 20.2316 40.2541 17.5427C40.2085 16.7747 40.3263 16.0056 40.5993 15.2897C40.8723 14.5737 41.2939 13.9282 41.8344 13.3985C42.9119 12.2719 44.3676 11.6162 45.9003 11.5671C47.3074 11.5047 48.685 11.9962 49.7545 12.9422C50.3154 13.3751 50.7787 13.9284 51.1125 14.564C51.4462 15.1996 51.6425 15.9024 51.6878 16.6239V17.2575H48.8554V16.7633C48.8611 16.4096 48.7817 16.06 48.6242 15.7459C48.4668 15.4318 48.2362 15.163 47.9532 14.9636C47.3538 14.5079 46.6263 14.2676 45.8819 14.2793C45.1472 14.2944 44.4453 14.5967 43.918 15.1252C43.6472 15.3844 43.4305 15.6979 43.2812 16.0466C43.1319 16.3953 43.0531 16.7717 43.0496 17.153C42.9575 18.6506 43.8198 19.7183 45.6364 20.3562L47.9717 21.1673C50.6618 22.1199 52.101 23.9766 52.2892 26.7373C52.4344 28.6193 51.7982 30.2499 50.3805 31.6292C49.7444 32.2874 48.9787 32.7966 48.1353 33.1224C47.2919 33.4482 46.3905 33.583 45.4922 33.5176Z" fill="#4D4D4E"/>
<path fill-rule="evenodd" clip-rule="evenodd" d="M32.1806 22.3424L18.5406 8.22728L8.97263 18.1316L22.6096 32.2467L17.8256 37.1988L2.9919 21.8481C2.03979 20.8617 1.50517 19.5258 1.50517 18.1332C1.50517 16.7405 2.03979 15.4047 2.9919 14.4183L14.9595 2.03946C15.43 1.55137 15.9892 1.16407 16.6051 0.899786C17.2209 0.635506 17.8813 0.499458 18.5482 0.499458C19.2152 0.499458 19.8755 0.635506 20.4914 0.899786C21.1073 1.16407 21.6665 1.55137 22.137 2.03946L36.9707 17.3902L32.1806 22.3424ZM18.4117 42.7688L27.9827 32.8645L14.355 18.7526L19.1389 13.8068L33.9726 29.1575C34.9247 30.1439 35.4594 31.4798 35.4594 32.8724C35.4594 34.2651 34.9247 35.6009 33.9726 36.5873L22.0112 48.9757C21.5407 49.4637 20.9815 49.851 20.3656 50.1153C19.7497 50.3796 19.0894 50.5157 18.4224 50.5157C17.7555 50.5157 17.0951 50.3796 16.4793 50.1153C15.8634 49.851 15.3042 49.4637 14.8337 48.9757L0 33.6091L4.78397 28.6569L18.4117 42.7688Z" fill="#F26B21"/>
</svg>
