<?xml version="1.0" standalone="no"?>
<!DOCTYPE svg PUBLIC "-//W3C//DTD SVG 20010904//EN"
 "http://www.w3.org/TR/2001/REC-SVG-20010904/DTD/svg10.dtd">
<svg version="1.0" xmlns="http://www.w3.org/2000/svg"
 width="700.000000pt" height="700.000000pt" viewBox="0 0 700.000000 700.000000"
 preserveAspectRatio="xMidYMid meet">
<metadata>
Created by potrace 1.14, written by Peter Selinger 2001-2017
</metadata>
<g transform="translate(0.000000,700.000000) scale(0.100000,-0.100000)"
fill="#000000" stroke="none">
<path d="M3410 6413 c-42 -7 -122 -34 -175 -61 -95 -47 -7 38 -1274 -1237
-357 -360 -390 -396 -425 -465 -39 -79 -52 -120 -66 -209 -8 -51 -6 -152 5
-196 46 -193 63 -215 539 -693 226 -227 635 -639 909 -915 l497 -502 285 285
c157 157 285 288 285 291 0 7 -287 298 -1098 1114 -294 295 -532 538 -530 540
180 185 1141 1145 1146 1145 4 0 356 -352 782 -781 426 -430 793 -799 815
-820 l40 -38 287 287 286 287 -193 195 c-106 107 -525 529 -932 937 -725 728
-739 742 -813 776 -41 19 -97 40 -125 47 -49 13 -196 20 -245 13z"/>
<path d="M3294 4580 c-153 -154 -280 -284 -282 -288 -2 -8 285 -300 1135
-1156 l493 -495 -575 -578 -574 -578 -441 445 c-243 245 -611 615 -818 823
l-377 378 -283 -285 c-156 -157 -282 -290 -280 -295 3 -9 1543 -1566 1733
-1752 44 -43 96 -90 115 -105 37 -28 149 -83 184 -90 89 -19 121 -22 196 -19
101 4 200 32 285 83 60 35 122 96 1218 1202 205 206 388 400 408 430 108 165
132 354 68 542 -41 125 -76 165 -474 566 -209 210 -618 623 -910 917 -291 294
-533 535 -536 535 -3 0 -131 -126 -285 -280z"/>
</g>
</svg>
