<svg width="438" height="80" viewBox="0 0 438 80" fill="none" xmlns="http://www.w3.org/2000/svg">
<path d="M30.8451 29.0515L80.8262 14.4737L69.6846 31.2382C66.2484 27.9061 62.1875 25.1988 56.6687 26.969C53.5449 28.0102 51.15 29.8845 49.7963 33.1125C51.2541 33.0084 52.6077 32.8001 53.8573 32.9042C56.877 33.1125 59.376 34.6744 61.6668 36.4446C65.3113 39.4643 68.8516 42.5881 72.8084 46.0243C73.2249 45.3995 73.7456 44.8789 74.058 44.15C77.0777 35.4033 80.4097 26.8648 84.8872 18.7429C88.9482 11.454 94.571 5.62288 100.923 0.312385C101.027 0.208258 101.235 0.104127 101.443 0C101.548 0 101.652 0 101.652 0L95.2999 9.78796L95.7164 10.2045C97.0701 9.78797 98.4237 9.57971 99.7774 9.05907C105.192 7.08065 110.19 11.8705 109.669 17.3893C108.941 25.8236 108.42 34.1538 107.899 42.5881C107.795 44.3582 107.795 46.2325 107.587 48.0027C107.17 51.3348 105.4 53.6256 102.068 54.6668C101.235 54.9792 100.298 55.1875 99.465 55.3957C97.6949 55.8123 96.2371 56.3329 95.1958 58.103C94.0504 59.9773 91.5514 60.498 89.5729 59.8732C87.0739 59.0402 85.7202 57.27 85.4078 54.771C85.0955 52.376 86.0326 50.2935 88.011 48.9398C89.8853 47.6903 91.9679 47.6903 93.9463 48.8357C94.3628 49.044 94.7793 49.1481 95.1958 49.1481C96.966 48.7316 98.7361 48.1068 100.506 47.6903C98.5279 43.1087 92.1761 40.8179 87.0739 42.6922C80.5139 45.1913 78.3272 51.8554 81.1386 60.6021C78.2231 61.4351 75.3075 62.2681 72.3919 63.2053C71.7672 63.4135 71.3507 63.8301 70.9341 64.2466C69.164 67.058 66.0402 68.0993 63.3328 66.5373C60.4173 64.9754 59.4801 61.1227 61.1462 58.103C62.7081 55.1875 65.936 54.3545 68.8516 55.9164C69.164 56.1246 69.5805 56.3329 69.8929 56.2287C71.7672 55.7081 73.6415 55.1875 75.5158 54.6668C72.9126 49.7729 66.6649 47.6903 61.5627 49.9811C55.315 52.6884 53.2325 59.4567 56.1481 67.6828C53.649 68.5158 51.0458 69.6612 48.4427 68.4117C46.9849 67.6828 45.6312 66.5374 44.7982 65.2878C35.635 51.0224 26.5759 36.7569 17.5168 22.4915C16.0591 20.2007 16.6838 20.5131 14.1848 21.3461C11.2692 22.2832 8.45776 23.4286 5.5422 24.2617C2.5225 25.0947 0.648208 23.9493 0.127572 21.3461C-0.288938 19.6801 0.335826 18.4305 1.68948 17.5975C3.14726 16.7645 4.60505 16.0356 6.16696 15.4108C8.87427 14.3696 11.5816 13.4324 14.393 12.4953C18.1416 11.1416 21.3695 12.287 23.4521 15.7232C25.9511 19.8883 28.2419 24.1575 30.6369 28.4268C30.5327 28.5309 30.741 28.7391 30.8451 29.0515Z" fill="white"/>
<path d="M70.4136 72.2645C72.1837 71.7439 73.8498 71.2232 75.5158 70.8067C75.8282 70.7026 76.3488 71.015 76.5571 71.3274C78.119 73.2016 79.9933 74.0347 82.3882 73.4099C84.7831 72.681 85.9285 70.9109 86.4492 68.4118C86.5533 67.9953 86.8657 67.5788 87.1781 67.3705C88.8441 66.8499 90.5101 66.3292 92.1762 65.9127C93.5298 71.6397 89.573 78.0956 83.7419 79.6575C78.2231 81.1153 71.9755 77.7832 70.4136 72.2645Z" fill="white"/>
<path d="M433.401 22.6998V23.2204H432.568V25.5112H431.943V23.2204H431.11V22.6998H433.401Z" fill="white"/>
<path d="M434.339 25.4069H433.818V22.5954H434.651L435.172 24.7821L435.692 22.5954H436.525V25.4069H436.005V23.5326C436.005 23.4285 436.005 23.4284 436.005 23.3243V23.1161L435.484 25.4069H434.963L434.443 23.1161C434.443 23.2202 434.443 23.2202 434.443 23.3243L434.339 25.4069Z" fill="white"/>
<path d="M158.193 56.8536C153.611 61.3311 147.78 63.4136 141.428 63.4136C124.976 63.4136 118.104 52.0637 118 40.6097C117.896 29.0516 125.497 17.2852 141.428 17.2852C147.468 17.2852 153.091 19.576 157.672 24.0535L152.153 29.4681C149.238 26.6567 145.281 25.303 141.428 25.303C130.703 25.303 126.122 33.2167 126.226 40.6097C126.33 47.8986 130.495 55.6041 141.428 55.6041C145.281 55.6041 149.654 54.0422 152.57 51.1266L158.193 56.8536Z" fill="white"/>
<path d="M171.417 18.3264H163.816V62.4764H171.417V18.3264Z" fill="white"/>
<path d="M188.39 22.4916C188.39 28.531 179.331 28.531 179.331 22.4916C179.331 16.4523 188.39 16.5564 188.39 22.4916ZM179.956 62.4765H187.661V31.2383H179.956V62.4765Z" fill="white"/>
<path d="M222.752 58.4154C219.107 61.9557 215.359 63.3094 210.777 63.3094C201.718 63.3094 194.221 57.8948 194.221 46.8573C194.221 35.8198 201.718 30.4052 210.777 30.4052C215.15 30.4052 218.587 31.6547 222.023 34.9868L217.129 40.089C215.255 38.423 213.068 37.5899 210.881 37.5899C205.675 37.5899 201.926 41.3385 201.926 46.8573C201.926 52.7925 205.987 55.9164 210.777 55.9164C213.276 55.9164 215.671 55.1875 217.65 53.3132L222.752 58.4154Z" fill="white"/>
<path d="M235.768 18.3264V43.8376L246.285 31.2382H255.448V31.7588L242.744 45.9201L257.218 61.8516V62.4764H247.951L235.768 48.315V62.4764H228.062V18.3264H235.768Z" fill="white"/>
<path d="M260.966 31.0298C261.799 20.6171 270.859 17.5974 279.293 17.5974C287.623 17.5974 296.474 20.9295 296.474 31.2381C296.474 42.4838 288.04 45.087 278.772 45.087C275.128 45.087 269.193 46.0241 269.193 50.814V54.5626H296.682V62.3721H260.758V50.7099C260.758 40.5054 270.026 37.4857 278.668 37.4857C282 37.4857 288.144 36.4444 288.144 31.3422C288.144 26.4482 284.395 24.8863 279.189 24.678C274.295 24.678 269.297 26.4482 269.193 30.8216H260.966V31.0298Z" fill="white"/>
<path d="M343.123 56.8536C338.541 61.3311 332.71 63.4136 326.358 63.4136C309.906 63.4136 303.034 52.0637 302.93 40.6097C302.826 29.0516 310.427 17.2852 326.358 17.2852C332.398 17.2852 338.021 19.576 342.602 24.0535L337.083 29.4681C334.168 26.6567 330.211 25.303 326.358 25.303C315.633 25.303 311.052 33.2167 311.156 40.6097C311.26 47.8986 315.425 55.6041 326.358 55.6041C330.211 55.6041 334.584 54.0422 337.5 51.1266L343.123 56.8536Z" fill="white"/>
<path d="M372.279 31.3422H379.672V62.4763H372.383L371.966 57.8947C370.196 61.5391 365.302 63.3093 361.866 63.4134C352.599 63.5175 345.83 57.7905 345.83 46.8572C345.83 36.1321 353.015 30.5092 362.074 30.5092C366.239 30.5092 370.196 32.4876 371.966 35.6114L372.279 31.3422ZM353.64 46.8572C353.64 52.7924 357.701 56.3328 362.907 56.3328C375.09 56.3328 375.09 37.4857 362.907 37.4857C357.701 37.3816 353.64 40.9219 353.64 46.8572Z" fill="white"/>
<path d="M395.187 31.2381L395.707 34.8825C398.102 31.0298 401.33 30.5092 404.454 30.5092C407.682 30.5092 410.806 31.7587 412.472 33.5289L409.036 40.193C407.474 38.8394 406.016 38.2146 403.517 38.2146C399.456 38.2146 395.707 40.4013 395.707 46.1283V62.5804H388.002V31.4463H395.187V31.2381Z" fill="white"/>
<path d="M427.883 22.4914V31.3422H436.525V38.0064H427.883V51.4388C427.883 54.4585 429.549 55.8121 431.944 55.8121C433.193 55.8121 434.547 55.3956 435.692 54.875L437.879 61.435C435.692 62.3721 433.818 62.6845 431.527 62.7886C424.759 62.9969 420.386 59.1442 420.386 51.4388V38.0064H414.554V31.3422H420.386V23.3244L427.883 22.4914Z" fill="white"/>
</svg>
