<svg width="720" height="547" viewBox="0 0 720 547" fill="none" xmlns="http://www.w3.org/2000/svg">
<g clip-path="url(#clip0_1_30)">
<path d="M268.7 517.06C268.49 516.49 268.29 514.64 268.29 513.23C268.33 505 274.55 497.65 285.62 497.71C296.19 497.77 302.69 504.68 302.64 512.92C302.61 518.88 299.39 523.76 293.48 527.21L284.72 532.34C283.37 533.18 282.23 534.1 281.58 535.45L302.87 535.56L302.82 544.93L267.83 544.75C267.87 536.3 270.32 529.36 278.79 524.51L286.34 520.15C289.97 518.04 291.4 516.13 291.42 513.08C291.44 510.17 289.39 507.6 285.27 507.58C280.94 507.56 278.8 510.53 278.78 514.36C278.78 515.28 278.91 516.28 279.19 517.2L268.69 517.07L268.7 517.06Z" fill="white"/>
<path d="M318.44 505.75C321.52 501.15 326.64 497.92 334.09 497.95C341.61 497.99 346.7 501.28 349.73 505.91C352.9 510.75 353.72 516.51 353.69 522.18C353.66 527.86 352.78 533.6 349.56 538.41C346.48 542.94 341.36 546.24 333.83 546.21C326.38 546.17 321.29 542.81 318.26 538.25C315.09 533.41 314.27 527.66 314.3 521.98C314.33 516.3 315.21 510.56 318.43 505.75H318.44ZM327.17 532.05C328.43 534.61 330.48 536.33 333.89 536.34C337.37 536.36 339.36 534.67 340.65 532.12C342.01 529.43 342.46 525.81 342.48 522.12C342.5 518.43 342.09 514.81 340.76 512.1C339.5 509.54 337.52 507.82 334.04 507.81C330.63 507.79 328.57 509.48 327.28 512.03C325.99 514.72 325.54 518.34 325.52 522.03C325.5 525.72 325.91 529.34 327.17 532.04V532.05Z" fill="white"/>
<path d="M365.57 517.56C365.36 516.99 365.16 515.14 365.16 513.73C365.2 505.5 371.42 498.15 382.49 498.21C393.06 498.26 399.56 505.18 399.51 513.42C399.48 519.38 396.26 524.26 390.35 527.71L381.59 532.84C380.24 533.68 379.1 534.6 378.45 535.95L399.74 536.06L399.69 545.43L364.7 545.25C364.74 536.8 367.19 529.86 375.66 525.01L383.21 520.65C386.84 518.54 388.27 516.63 388.29 513.58C388.31 510.67 386.26 508.1 382.15 508.08C377.82 508.06 375.68 511.03 375.66 514.86C375.66 515.78 375.79 516.78 376.07 517.7L365.57 517.57V517.56Z" fill="white"/>
<path d="M419.78 518.13L431.18 508.89L411.95 508.79L412 499.42L445.21 499.59L445.16 508.25L433.76 516.99C440.85 517.52 446.64 523.23 446.6 531.11C446.56 539.27 439.78 546.62 428.42 546.56C417.7 546.5 410.93 539.58 410.26 531.7L421.06 529.77C421.18 533.81 424.07 537.02 428.4 537.05C432.73 537.07 435.3 534.18 435.32 530.77C435.34 526.37 431.95 524.51 428.68 524.49C427.19 524.49 425.63 524.97 424.56 525.53L419.77 518.12L419.78 518.13Z" fill="white"/>
<path d="M103.66 274.84L64.57 274.81L64.71 112.9L119.53 112.95C148.44 112.97 172.95 129.65 172.92 165.73C172.89 201.58 148.36 218.68 119.44 218.66H103.71L103.66 274.85V274.84ZM112.79 143.47H103.77L103.73 187.87H112.75C126.86 187.89 132.19 179.57 132.2 165.69C132.21 151.81 126.9 143.48 112.79 143.47Z" fill="white"/>
<path d="M369.95 208.67L355.78 275.04L316.46 275.01L288.8 157.48L324.88 157.51L338 232.46L355.87 157.53L387.56 157.56L405.54 232.52L418.32 157.59L450.01 157.62L423.31 275.1L385.84 275.07L369.94 208.67H369.95Z" fill="white"/>
<path d="M505.67 277.72C474.68 277.69 454.11 252.93 454.14 217.31C454.17 182.15 473.16 155.34 506 155.36C539.54 155.39 558.48 182 552.44 222.71L491.38 222.66C491.83 239.78 497.6 248.11 508.48 248.12C515.65 248.12 520.74 243.27 523.06 237.49L552.66 249.54C544.55 267.11 530.2 277.74 505.68 277.72H505.67ZM492.09 203.46L518 203.48C518.24 190.3 514.32 183.35 506.68 183.35C500.43 183.35 494.19 188.2 492.09 203.46Z" fill="white"/>
<path d="M567.2 275.22L567.3 157.72L597.6 157.75L601.74 179.5C604.53 168.17 612.63 155.22 627.44 155.23C643.4 155.24 660.74 168.67 654.23 202.9L622.99 220.45C624.15 214.21 624.62 209.35 624.62 204.03C624.63 189.92 619.08 188.3 615.38 188.29C609.13 188.29 603.58 196.14 603.56 216.04L603.51 275.25L567.2 275.22Z" fill="white"/>
<path d="M39.09 452.2L0 452.17L0.14 290.26L54.96 290.31C83.87 290.33 108.38 307.01 108.35 343.09C108.32 378.94 83.79 396.04 54.87 396.01H39.14L39.09 452.21V452.2ZM48.22 320.82H39.2L39.16 365.22H48.18C62.29 365.24 67.62 356.92 67.63 343.04C67.64 329.16 62.33 320.83 48.22 320.82Z" fill="white"/>
<path d="M194.99 455.57C180.88 455.56 173.48 448.84 171.64 437.97C166.08 449.99 155.67 454.84 144.79 454.83C123.05 455.04 112.88 439.31 112.9 423.81C112.91 410.86 118.24 399.3 133.74 390.98C142.53 386.13 154.33 382.9 170.99 380.37V372.74C171 363.26 166.61 358.4 159.21 358.39C151.58 358.39 147.87 363.24 147.87 369.02C147.87 371.8 148.1 374.11 148.79 375.96L118.96 371.08C118.5 368.77 118.27 365.99 118.27 363.68C118.29 345.87 135.64 332.24 163.86 332.26C194.16 332.29 207.57 346.41 207.54 371.16L207.49 427.14C207.49 431.77 208.18 435.24 213.27 435.24C214.66 435.24 216.28 434.78 218.13 434.09V450.74C214.65 452.59 205.62 455.59 194.98 455.58L194.99 455.57ZM170.97 415.53V399.11C165.89 400.26 161.5 401.88 157.8 404.42C153.63 407.19 150.85 411.59 150.85 416.9C150.85 423.61 155 428.24 160.32 428.24C167.03 428.24 170.96 423.16 170.97 415.53Z" fill="white"/>
<path d="M229.46 452.36L229.56 334.86L259.86 334.89L264 356.64C266.79 345.31 274.89 332.36 289.7 332.37C305.66 332.38 323 345.81 316.49 380.04L285.25 397.59C286.41 391.35 286.88 386.49 286.88 381.17C286.89 367.06 281.34 365.44 277.64 365.43C271.39 365.43 265.84 373.29 265.82 393.18L265.77 452.39L229.45 452.36H229.46Z" fill="white"/>
<path d="M392.53 452.5L359.92 452.47C339.8 452.45 334.72 439.03 334.73 424.46L334.78 360.62H322.06L322.08 334.93H334.8L342.46 299.79L371.37 299.81L371.34 334.97L392.62 334.99L392.6 360.67L371.32 360.65L371.27 416.63C371.27 423.34 373.58 425.19 379.36 425.19H392.54L392.52 452.5H392.53Z" fill="white"/>
<path d="M405.48 452.51L405.58 335.01L437.73 335.04L441.65 352.62C446.51 343.83 455.55 332.51 471.97 332.52C488.62 332.53 504.11 344.57 504.09 371.87L504.02 452.6L467.71 452.57L467.77 382.25C467.78 369.99 461.77 365.59 456.22 365.59C448.36 365.59 441.87 371.82 441.86 387.09L441.81 452.55L405.5 452.52L405.48 452.51Z" fill="white"/>
<path d="M569.94 455.19C538.95 455.16 518.38 430.4 518.41 394.78C518.44 359.62 537.43 332.81 570.27 332.83C603.81 332.86 622.75 359.47 616.71 400.18L555.65 400.13C556.1 417.25 561.88 425.58 572.75 425.59C579.92 425.59 585.01 420.74 587.33 414.96L616.93 427.01C608.82 444.58 594.47 455.21 569.95 455.19H569.94ZM556.35 380.93L582.26 380.95C582.5 367.77 578.58 360.82 570.94 360.82C564.69 360.82 558.45 365.67 556.35 380.93Z" fill="white"/>
<path d="M631.47 452.7L631.57 335.2L661.87 335.22L666.02 356.97C668.81 345.64 676.91 332.69 691.72 332.7C707.68 332.71 725.01 346.14 718.51 380.37L687.27 397.92C688.43 391.68 688.9 386.82 688.9 381.5C688.91 367.39 683.36 365.76 679.66 365.76C673.41 365.76 667.86 373.62 667.84 393.51L667.79 452.72L631.48 452.69L631.47 452.7Z" fill="white"/>
<path d="M252.71 209.48L242.16 218.02L246.13 222.92C248.83 226.26 252.79 227.11 256.06 224.46C259.46 221.7 259.38 217.71 256.68 214.37L252.71 209.47V209.48Z" fill="#C6B454"/>
<path d="M209.6 223.06L220.15 214.52L216.18 209.62C213.48 206.28 209.52 205.43 206.25 208.08C202.85 210.84 202.93 214.83 205.63 218.17L209.6 223.07V223.06Z" fill="#C6B454"/>
<path d="M231.16 156.77C198.3 156.77 171.66 183.41 171.66 216.27C171.66 249.13 198.3 275.77 231.16 275.77C264.02 275.77 290.66 249.13 290.66 216.27C290.66 183.41 264.02 156.77 231.16 156.77ZM266.49 237.21C256.96 244.93 245.06 243.18 236.9 233.1L231.55 226.5L209.29 244.53L209.22 244.44L193.62 225.18C185.46 215.11 186.5 202.88 195.82 195.33C205.35 187.61 217.25 189.36 225.41 199.44L230.76 206.04L253.02 188.01L253.09 188.1L268.69 207.36C276.85 217.43 275.81 229.66 266.49 237.21Z" fill="#C6B454"/>
<path d="M220.27 0L220.26 22.15H232.58L232.57 73.84H220.25V94.42L285.96 94.43V73.84H273.64L273.65 22.16H285.97V0.01L220.27 0Z" fill="white"/>
<path d="M346.22 94.44V73.86H355.76V52.31C355.76 45.82 351.13 42.91 345.17 42.9C337.62 42.9 331.92 48.46 331.92 56.01V73.85H341.72V94.43L290.32 94.42V73.84H299.59V42.8H290.32V22.19H330.86V36.4C331.52 35.87 332.18 35.08 332.71 34.41C340.13 25.93 348.61 22.89 359.74 22.89C375.37 22.89 388.09 29.25 388.08 46.61V73.85H396.42V94.44L346.21 94.43L346.22 94.44Z" fill="white"/>
<path d="M478.17 52.7L450.43 55.75C450.1 48.06 448.52 39.91 439.13 39.91C427.21 39.91 426.28 49.84 426.28 59.38V59.59C426.28 69.13 427.2 79.06 439.12 79.06C445.38 79.06 450.9 75.48 450.9 67.89H451.81L478.53 67.92L478.3 70.3C473.74 92.76 453.46 96.28 438.85 96.27C415.93 96.27 393.42 85 393.42 59.44V59.51C393.42 33.95 415.95 22.7 438.86 22.7C438.86 22.7 474.79 20.38 478.16 52.71" fill="white"/>
<path d="M499.65 83.11C499.65 89.57 494.41 94.81 487.95 94.8C481.49 94.8 476.25 89.56 476.25 83.1C476.25 76.64 481.49 71.4 487.95 71.4C494.41 71.4 499.65 76.64 499.65 83.11Z" fill="white"/>
</g>
<defs>
<clipPath id="clip0_1_30">
<rect width="719.9" height="546.56" fill="white"/>
</clipPath>
</defs>
</svg>
