<svg width="276" height="70" viewBox="0 0 276 70" fill="none" xmlns="http://www.w3.org/2000/svg">
<g clip-path="url(#clip0_1387_17439)">
<path d="M42.3 47.8014C41.6125 47.2732 40.7875 46.877 39.825 46.6129C38.8625 46.3488 37.9 46.2168 37.075 46.2168C36.3875 46.2168 35.7 46.3489 35.0125 46.4809C34.325 46.613 33.6375 46.877 33.0875 47.1411C32.5375 47.4052 31.9875 47.8014 31.4375 48.3296C30.8875 48.8577 30.6125 49.3859 30.3375 49.9141C30.3375 48.9898 30.0625 48.3296 29.5125 47.8014C29.1 47.2732 28.4125 46.877 27.725 46.6129C27.0375 46.3488 26.2125 46.2168 25.3875 46.2168C24.5625 46.2168 23.7375 46.3489 22.775 46.4809V49.9141C23.325 49.9141 23.875 49.9141 24.15 50.0462C24.5625 50.1782 24.7 50.3102 24.8375 50.5743C24.975 50.8384 25.1125 51.1025 25.1125 51.4987C25.1125 51.8948 25.1125 52.291 25.1125 52.8192V68.7969H30.3375V55.9883C30.3375 55.064 30.475 54.2717 30.8875 53.6114C31.1625 52.9512 31.575 52.423 32.125 52.0269C32.675 51.6307 33.3625 51.2346 34.05 51.1026C34.7375 50.9705 35.5625 50.7064 36.25 50.7064C37.625 50.7064 38.8625 50.9705 39.9625 51.4987L42.3 47.8014Z" fill="#00A6CA"/>
<path d="M65.2625 65.3634C64.85 65.2314 64.7125 64.9673 64.575 64.7032C64.4375 64.4391 64.3 64.043 64.3 63.6468C64.3 63.2507 64.3 62.8545 64.3 62.3264V48.3293C62.7875 47.6691 61.275 47.1409 59.625 46.8768C58.1125 46.4807 56.4625 46.3486 54.8125 46.3486C52.8875 46.3486 51.2375 46.6127 49.5875 47.1409C48.075 47.6691 46.7 48.4614 45.4625 49.5178C44.225 50.5741 43.4 51.7626 42.7125 53.3471C42.025 54.7996 41.6125 56.5163 41.6125 58.3649C41.6125 59.9495 41.75 61.402 42.3 62.7225C42.7125 64.043 43.4 65.2314 44.225 66.2878C45.05 67.3441 46.15 68.1364 47.525 68.6646C48.9 69.1928 50.4125 69.4569 52.0625 69.4569C53.7125 69.4569 55.3625 69.0608 56.875 68.1364C58.3875 67.3441 59.4875 66.1557 60.0375 64.5711C60.0375 65.7596 60.175 66.6839 60.5875 67.3441C61 68.0044 61.4125 68.5326 62.1 68.7967C62.7875 69.1928 63.475 69.3248 64.3 69.3248C65.125 69.3248 65.95 69.3248 66.775 69.0607V65.3634C66.0875 65.4955 65.5375 65.4955 65.2625 65.3634ZM59.2125 57.7047C59.2125 59.8175 58.6625 61.402 57.5625 62.7225C56.6 64.043 55.0875 64.7032 53.1625 64.7032C50.9625 64.7032 49.45 64.043 48.35 62.8545C47.25 61.6661 46.8375 60.0815 46.8375 57.9688C46.8375 56.7803 47.1125 55.724 47.525 54.6676C47.9375 53.7433 48.35 52.8189 49.0375 52.1587C49.725 51.4985 50.4125 50.9703 51.375 50.5741C52.2 50.178 53.3 50.0459 54.4 50.0459C55.0875 50.0459 55.9125 50.0459 56.7375 50.178C57.5625 50.31 58.3875 50.5741 59.2125 50.8382V57.7047Z" fill="#00A6CA"/>
<path d="M90.15 48.9898C89.4625 48.1975 88.5 47.5373 87.2625 47.0091C86.1625 46.4809 84.7875 46.2168 83.1375 46.2168C82.3125 46.2168 81.625 46.2168 80.8 46.3489C79.975 46.4809 79.2875 46.745 78.6 47.0091C77.9125 47.2732 77.225 47.6693 76.675 48.1975C76.125 48.7257 75.575 49.2539 75.3 50.0462C75.3 48.9898 75.025 48.1975 74.6125 47.6693C74.2 47.1411 73.65 46.745 72.9625 46.4809C72.275 46.3489 71.45 46.2168 70.625 46.2168C69.8 46.2168 68.8375 46.3489 68.0125 46.4809V49.9141C68.5625 49.9141 69.1125 49.9141 69.3875 50.0462C69.8 50.1782 69.9375 50.3102 70.075 50.5743C70.2125 50.8384 70.35 51.1025 70.35 51.4987C70.35 51.8948 70.35 52.423 70.35 53.0833V68.7969H75.575V56.2524C75.575 55.3281 75.7125 54.5358 75.9875 53.8755C76.2625 53.0832 76.675 52.5551 77.225 52.0269C77.775 51.4987 78.325 51.1025 79.0125 50.8384C79.7 50.5744 80.525 50.4423 81.35 50.4423C82.8625 50.4423 84.2375 50.9705 85.2 51.8948C86.3 52.8191 86.7125 54.2717 86.7125 55.9883V68.9289H91.9375V55.9883C91.9375 54.6678 91.8 53.3473 91.3875 52.1589C91.525 50.8384 90.975 49.9141 90.15 48.9898Z" fill="#00A6CA"/>
<path d="M113.525 57.309C112.7 56.7808 111.6 56.5167 110.5 56.2526C109.4 55.9885 108.162 55.8565 106.925 55.7244C105.137 55.4603 103.762 55.1962 102.8 54.9321C101.837 54.536 101.425 54.0078 101.425 53.0835C101.425 52.5553 101.563 52.1592 101.838 51.763C102.113 51.3669 102.388 51.1028 102.938 50.8387C103.35 50.5746 103.9 50.3105 104.45 50.1784C105 50.0464 105.687 49.9143 106.237 49.9143C106.787 49.9143 107.475 49.9143 108.025 50.0464C108.713 50.1784 109.262 50.3105 109.675 50.5746C110.225 50.8387 110.5 51.1028 110.912 51.4989C111.187 51.895 111.463 52.2912 111.463 52.8194H116C116 51.763 115.863 50.7066 115.313 49.9143C114.763 49.122 114.075 48.4618 113.25 47.8016C112.288 47.2734 111.325 46.7452 110.088 46.4811C108.85 46.217 107.612 46.085 106.237 46.085C105 46.085 103.763 46.217 102.525 46.4811C101.288 46.7452 100.325 47.1414 99.3625 47.8016C98.4 48.3298 97.7125 49.122 97.1625 49.9143C96.6125 50.7066 96.3375 51.763 96.3375 52.9514C96.3375 54.2719 96.75 55.1962 97.3 55.9885C97.9875 56.7808 98.675 57.309 99.6375 57.7051C100.6 58.1013 101.7 58.3654 102.938 58.6294C104.175 58.7615 105.275 59.0256 106.513 59.1576C108.025 59.2897 109.262 59.6858 110.225 60.082C111.187 60.4781 111.6 61.1384 111.6 62.1947C111.6 62.855 111.462 63.3831 111.05 63.9113C110.637 64.3075 110.225 64.7036 109.813 64.9677C109.263 65.2318 108.713 65.3639 108.025 65.4959C107.338 65.628 106.787 65.628 106.1 65.628C105.412 65.628 104.862 65.4959 104.175 65.4959C103.625 65.3639 103.075 65.0998 102.525 64.8357C101.975 64.5716 101.7 64.1754 101.287 63.7793C101.012 63.3831 100.737 62.855 100.737 62.3268H95.65C95.7875 63.6473 96.0625 64.8357 96.75 65.76C97.4375 66.6843 98.125 67.3446 99.225 67.8728C100.187 68.4009 101.288 68.7971 102.525 69.0612C103.763 69.3253 105 69.4573 106.237 69.4573C107.475 69.4573 108.713 69.3253 109.95 69.0612C111.188 68.7971 112.287 68.4009 113.112 67.7407C113.938 67.0805 114.763 66.4203 115.313 65.628C115.863 64.7036 116.138 63.6472 116.138 62.4588C116.138 61.1383 115.863 60.082 115.313 59.2897C115.038 58.3654 114.35 57.8372 113.525 57.309Z" fill="#00A6CA"/>
<path d="M171.825 48.9898C171.138 48.1975 170.175 47.5373 168.938 47.0091C167.838 46.4809 166.463 46.2168 164.813 46.2168C163.988 46.2168 163.3 46.2168 162.475 46.3489C161.65 46.4809 160.963 46.745 160.275 47.0091C159.588 47.2732 158.9 47.6693 158.35 48.1975C157.8 48.7257 157.25 49.2539 156.975 50.0462C156.975 48.9898 156.7 48.1975 156.287 47.6693C155.875 47.1411 155.325 46.745 154.638 46.4809C153.95 46.3489 153.125 46.2168 152.3 46.2168C151.475 46.2168 150.513 46.3489 149.825 46.4809V49.9141C150.375 49.9141 150.925 49.9141 151.2 50.0462C151.613 50.1782 151.75 50.3102 151.888 50.5743C152.025 50.8384 152.162 51.1025 152.162 51.4987C152.162 51.8948 152.162 52.423 152.162 53.0833V68.7969H157.388V56.2524C157.388 55.3281 157.525 54.5358 157.8 53.8755C158.075 53.0832 158.487 52.5551 159.037 52.0269C159.587 51.4987 160.138 51.1025 160.825 50.8384C161.513 50.5744 162.337 50.4423 163.162 50.4423C164.675 50.4423 166.05 50.9705 167.013 51.8948C168.113 52.8191 168.525 54.2717 168.525 55.9883V68.9289H173.75V55.9883C173.75 54.6678 173.613 53.3473 173.2 52.1589C173.2 50.8384 172.65 49.9141 171.825 48.9898Z" fill="#00A6CA"/>
<path d="M181.037 36.9736C180.212 36.9736 179.525 37.2377 178.838 37.7659C178.15 38.2941 177.875 38.9543 177.875 40.0107C177.875 41.0671 178.288 41.7273 178.838 42.2555C179.525 42.7837 180.212 43.0478 181.037 42.9158C181.862 42.9158 182.55 42.6517 183.1 42.1235C183.787 41.5953 184.062 40.9351 184.062 39.8787C184.062 38.8223 183.787 38.1621 183.1 37.6339C182.55 37.1057 181.862 36.9736 181.037 36.9736Z" fill="#00A6CA"/>
<path d="M183.65 46.7451H178.425V68.9291H183.65V46.7451Z" fill="#00A6CA"/>
<path d="M207.987 49.1216C206.887 48.1973 205.512 47.5371 204 47.0089C202.487 46.4807 200.975 46.3486 199.325 46.3486C197.813 46.3486 196.3 46.6127 194.925 47.0089C193.55 47.5371 192.175 48.1973 191.075 49.1216C189.975 50.046 189.013 51.2344 188.325 52.6869C187.638 54.1394 187.225 55.724 187.225 57.7047C187.225 59.6854 187.638 61.402 188.325 62.7225C189.013 64.175 189.975 65.3634 191.075 66.4198C192.175 67.3441 193.55 68.1364 194.925 68.5326C196.437 69.0607 197.813 69.1928 199.463 69.1928C200.975 69.1928 202.487 68.9287 204 68.5326C205.512 68.1364 206.75 67.3441 207.85 66.4198C208.95 65.4955 209.912 64.307 210.6 62.7225C211.287 61.27 211.7 59.5534 211.7 57.7047C211.7 55.724 211.287 54.1394 210.6 52.6869C210.05 51.2344 209.087 50.046 207.987 49.1216ZM205.925 60.8738C205.512 61.7982 204.962 62.4584 204.412 63.1186C203.862 63.7788 203.038 64.175 202.213 64.4391C201.388 64.7032 200.562 64.9673 199.737 64.9673C198.912 64.9673 197.95 64.8352 197.125 64.5711C196.3 64.307 195.475 63.7789 194.925 63.2507C194.237 62.5904 193.688 61.9302 193.275 61.0059C192.863 60.0816 192.725 59.0251 192.725 57.8367C192.725 56.6483 192.863 55.724 193.275 54.7996C193.688 53.8753 194.1 53.2151 194.787 52.6869C195.475 52.1587 196.162 51.6305 196.987 51.3664C197.812 51.1023 198.638 50.9703 199.463 50.8382C200.288 50.8382 201.25 50.9703 202.075 51.2344C202.9 51.4985 203.725 51.8946 204.412 52.5548C205.1 53.083 205.65 53.8753 206.062 54.7996C206.475 55.724 206.75 56.7803 206.75 57.9688C206.612 58.8931 206.337 59.9495 205.925 60.8738Z" fill="#00A6CA"/>
<path d="M0.5 41.4627V36.709H25.3875V41.4627H15.625V68.9285H10.125V41.4627H0.5Z" fill="#00A6CA"/>
<path d="M120.4 58.1007V36.709H125.9V57.9686C125.9 62.1941 129.2 64.571 133.463 64.571C137.725 64.571 140.888 62.1941 140.888 57.9686V36.709H146.388V58.1007C146.388 65.2312 140.475 69.3247 133.463 69.3247C126.313 69.3247 120.4 65.2312 120.4 58.1007Z" fill="#00A6CA"/>
<path d="M237.687 63.6473V60.082V55.7244C237.687 54.404 237.55 53.0835 237.138 51.895C236.725 50.7066 236.175 49.7823 235.487 48.858C234.8 48.0657 233.837 47.4054 232.6 46.8773C231.5 46.3491 230.125 46.085 228.475 46.085C227.65 46.085 226.963 46.085 226.138 46.217C225.313 46.3491 224.625 46.6132 223.937 46.8773C223.25 47.1413 222.563 47.5375 222.013 48.0657C221.463 48.5939 220.913 49.122 220.638 49.9143C220.638 48.8579 220.363 48.0657 219.95 47.5375C219.538 47.0093 218.987 46.6132 218.3 46.3491C217.612 46.217 216.788 46.085 215.963 46.085C215.138 46.085 214.175 46.217 213.487 46.3491V49.7823C214.037 49.7823 214.587 49.7823 214.862 49.9143C215.275 50.0464 215.412 50.1784 215.55 50.4425C215.687 50.7066 215.825 50.9707 215.825 51.3669C215.825 51.763 215.825 52.2912 215.825 52.9514V68.665H221.05V56.1206C221.05 55.1962 221.188 54.404 221.463 53.7437C221.738 52.9514 222.15 52.4232 222.7 51.895C223.25 51.3668 223.8 50.9707 224.487 50.7066C225.175 50.4425 226 50.3105 226.825 50.3105C228.338 50.3105 229.712 50.8387 230.675 51.763C231.775 52.6873 232.187 54.1398 232.187 55.8564V63.3832V63.9113C232.187 69.3253 235.625 69.8535 240.162 69.0612V65.892C238.1 66.0241 237.687 65.3639 237.687 63.6473Z" fill="#00A6CA"/>
<path d="M251.3 0.52832C242.362 0.52832 234.525 5.15 230.4 12.1485C228.888 14.9215 228.612 17.2983 229.85 19.279C231.225 21.6559 234.387 21.92 236.037 21.92H239.062L237.963 25.2212C237.275 27.2019 237.55 29.4467 238.65 30.8992C239.75 32.3517 241.4 33.144 243.463 33.144C244.838 33.144 246.35 32.8799 247.725 32.3517C247.312 31.8235 247.038 31.2953 246.763 30.6351C246.625 30.1069 246.35 29.5787 246.35 28.9185C245.525 29.3146 244.562 29.4467 243.6 29.4467C243.05 29.4467 242.225 29.3146 241.812 28.6544C241.4 28.1262 241.262 27.3339 241.537 26.4096L243.05 21.92H247.862L249.1 18.0906H244.425L246.487 11.8844H242.362L240.3 18.0906H235.9C234.525 18.0906 233.7 17.6945 233.287 17.0342C232.875 16.2419 233.288 14.6574 234.388 12.8087V12.6767C238.1 7.52684 244.15 4.09361 251.162 4.09361C262.3 4.09361 271.375 12.8087 271.375 23.5045C271.375 34.2004 262.3 42.9155 251.162 42.9155C241.262 42.9155 233.012 36.049 231.225 27.0698L227.375 27.8621C229.575 38.5579 239.337 46.7449 251.162 46.7449C264.5 46.7449 275.362 36.3131 275.362 23.5045C275.5 10.96 264.637 0.52832 251.3 0.52832Z" fill="#00A6CA"/>
<path d="M266.7 30.1069C265.738 30.1069 264.5 29.9749 263.675 29.4467C263.4 29.1826 262.988 28.9185 262.85 28.2583C262.85 27.9942 262.85 27.598 262.988 27.2019L266.013 18.3547H261.888L259.275 26.0135C258.588 27.9942 256.388 29.5787 254.463 29.5787C253.913 29.5787 253.225 29.4467 252.95 28.9185C252.675 28.5223 252.4 27.9942 252.813 27.0698L255.838 18.2227H251.713L249.1 25.8814C248.413 27.7301 248.688 29.7108 249.788 31.1633C250.888 32.4838 252.4 33.2761 254.463 33.2761C256.388 33.2761 258.45 32.4838 260.1 31.1633C260.65 31.9556 261.338 32.4838 262.3 32.8799C263.675 33.276 264.5 33.2761 265.463 33.2761C265.875 33.2761 266.425 33.144 266.563 33.144C266.7 33.012 266.7 32.8799 266.838 32.7479C266.975 32.4838 267.113 32.2197 267.25 31.9556C267.388 31.6915 267.525 31.4274 267.663 31.1633C267.8 30.8992 267.938 30.6351 268.075 30.371C268.213 30.239 268.213 29.9749 268.35 29.8428C267.938 30.1069 267.388 30.1069 266.7 30.1069Z" fill="#00A6CA"/>
<path d="M243.05 66.2875C243.05 62.3261 249.237 62.3261 249.237 66.2875C249.237 70.2489 243.05 70.2489 243.05 66.2875ZM248.687 66.2875C248.687 62.8542 243.6 62.8542 243.6 66.2875C243.6 69.7207 248.687 69.7207 248.687 66.2875ZM247.45 67.6079L246.9 67.74L246.075 66.6836H245.388V67.74H244.975V64.8349H246.213C246.763 64.8349 247.312 65.2311 247.312 65.7592C247.312 66.1554 247.037 66.5515 246.625 66.5515L247.45 67.6079ZM245.525 66.2875H246.213C246.625 66.2875 246.9 66.0233 246.9 65.7592C246.9 65.3631 246.625 65.2311 246.213 65.2311H245.525V66.2875Z" fill="#00A6CA"/>
</g>
<defs>
<clipPath id="clip0_1387_17439">
<rect width="275" height="69.985" fill="white" transform="translate(0.5)"/>
</clipPath>
</defs>
</svg>
