<?xml version="1.0" encoding="utf-8"?>
<!-- Generator: Adobe Illustrator 27.1.1, SVG Export Plug-In . SVG Version: 6.00 Build 0)  -->
<svg version="1.1" id="Layer_1" xmlns="http://www.w3.org/2000/svg" xmlns:xlink="http://www.w3.org/1999/xlink" x="0px" y="0px"
	 viewBox="0 0 158 48" style="enable-background:new 0 0 158 48;" xml:space="preserve">
<style type="text/css">
	.st0{fill:#FFFFFF;}
</style>
<path class="st0" d="M51.5,8.7H19v5h30.9v0c0.9,0,1.6,0.7,1.6,1.6v16.8l0,0c0,0.9-0.7,1.6-1.6,1.6H25.6c-0.9,0-1.6-0.7-1.6-1.6v-6.8
	c0-0.9,0.7-1.6,1.6-1.6h20.9v-5H24c-2.8,0-5,2.2-5,5v10c0,2.8,2.2,5,5,5h27.5c2.8,0,5-2.2,5-5v-20C56.5,11,54.3,8.7,51.5,8.7z"/>
<path class="st0" d="M70,24.3h3.4l-1.7-5h0L70,24.3z M75,15.8l3.9,11.7c0.5,1.4,0.8,1.8,1.6,1.8h0.8v2.1h-8.5v-2.1h0.7
	c0.7,0,1.3-0.1,1.3-0.3c0-0.2,0-0.5-0.1-0.8l-0.5-1.7h-4.8l-0.3,0.9c-0.3,0.8-0.3,1.2-0.3,1.5c0,0.4,0.8,0.4,1.5,0.4h0.7v2.1H64
	v-2.1h0.8c0.8,0,1.1-0.3,1.6-1.8l3.9-11.7H75z"/>
<path class="st0" d="M86.5,25.8c0,2.4,0.5,3.8,1.8,3.8c1.3,0,1.8-1.4,1.8-3.8c0-2.4-0.5-3.8-1.8-3.8C87,22,86.5,23.5,86.5,25.8z
	 M82.6,18.7c0-0.7-0.2-1-0.8-1h-1.1v-1.9h5.8v5.8c0.9-1,2-1.6,3-1.6c3.5,0,4.8,2.7,4.8,5.8c0,3.1-1.3,5.8-4.8,5.8
	c-1.5,0-2.8-0.5-3.6-1.8l-0.7,1.5h-2.6V18.7z"/>
<path class="st0" d="M99.6,25.8c0,2.4,0.5,3.8,1.8,3.8c1.3,0,1.8-1.4,1.8-3.8c0-2.4-0.5-3.8-1.8-3.8C100.1,22,99.6,23.5,99.6,25.8z
	 M95.7,18.7c0-0.7-0.2-1-0.8-1h-1.1v-1.9h5.8v5.8c0.9-1,2-1.6,3-1.6c3.5,0,4.8,2.7,4.8,5.8c0,3.1-1.3,5.8-4.8,5.8
	c-1.5,0-2.8-0.5-3.6-1.8l-0.7,1.5h-2.6V18.7z"/>
<path class="st0" d="M112.6,25.8c0,2.7,0.5,3.9,1.9,3.9c1.4,0,1.9-1.2,1.9-3.9c0-2.7-0.5-3.9-1.9-3.9
	C113.1,21.9,112.6,23.1,112.6,25.8z M120.5,25.8c0,3.7-2.5,5.8-6,5.8c-3.5,0-6-2.1-6-5.8c0-3.7,2.5-5.8,6-5.8
	C118,20,120.5,22.1,120.5,25.8z"/>
<path class="st0" d="M137.1,26v1.8c0,1.1-0.2,1.7-1.1,1.7c-0.5,0-0.8-0.4-0.8-0.9v-6.4h2.9v-1.9h-2.9V16h-2.3
	c-0.2,1.9-0.8,4.3-3.1,4.3h-3.6V16h-2.3c-0.2,1.9-0.8,4.3-3.1,4.3v1.9h1.6v5.9c0,2.4,1.3,3.5,3.7,3.5c2.8,0,3.9-1.3,3.9-3.5V26h-1.9
	v1.8c0,1.1-0.2,1.7-1.1,1.7c-0.5,0-0.8-0.4-0.8-0.9v-6.4h5.2v5.9c0,2.4,1.3,3.5,3.7,3.5c2.8,0,3.9-1.3,3.9-3.5V26L137.1,26z"/>
</svg>
