<svg width="158" height="48" viewBox="0 0 158 48" fill="none" xmlns="http://www.w3.org/2000/svg">
<path d="M42.8157 4H0.000181288V10.5798H40.6783V10.5857C41.8559 10.5857 42.7961 11.53 42.7961 12.7024V34.7975L42.7907 34.8162C42.7835 35.9834 41.8338 36.9214 40.6689 36.9214H8.70136C7.53103 36.9214 6.57322 35.9758 6.57322 34.7973V25.8712C6.57322 24.6989 7.53103 23.7472 8.70136 23.7472H36.2042V17.1762H6.56063C2.93729 17.1762 0 20.1081 0 23.729V36.9399C0 40.5633 2.93729 43.4994 6.56063 43.4994H42.8156C46.442 43.4994 49.3751 40.5633 49.3751 36.9399V10.5617C49.3751 6.93881 46.4422 4 42.8157 4Z" fill="white"/>
<path d="M67.1952 24.5028H71.6481L69.4423 17.8942H69.3812L67.1952 24.5028ZM73.6814 13.3278L78.8108 28.671C79.4196 30.543 79.8505 30.9761 80.9195 30.9761H81.9624V33.6772H70.7623V30.9761H71.6808C72.6015 30.9761 73.3673 30.8539 73.3673 30.5202C73.3673 30.2049 73.3366 29.8678 73.2134 29.4063L72.573 27.2016H66.3115L65.9373 28.4299C65.6024 29.5012 65.4781 29.9561 65.4781 30.3871C65.4781 30.8823 66.5558 30.9761 67.3904 30.9761H68.2729V33.6772H59.2503V30.9761H60.2954C61.3698 30.9761 61.7922 30.543 62.415 28.671L67.54 13.3278H73.6814Z" fill="white"/>
<path d="M88.8425 26.4893C88.8425 29.6256 89.5462 31.4943 91.2631 31.4943C92.9911 31.4943 93.6893 29.6256 93.6893 26.4893C93.6893 23.3617 92.9911 21.4908 91.2631 21.4908C89.5462 21.4908 88.8425 23.3617 88.8425 26.4893ZM83.7426 17.1044C83.7426 16.2373 83.5287 15.7823 82.6387 15.7823H81.2282V13.3278H88.8425V20.9662C89.9759 19.6767 91.4214 18.8487 92.7957 18.8487C97.4016 18.8487 99.1175 22.4465 99.1175 26.4893C99.1175 30.543 97.4016 34.132 92.7957 34.132C90.8628 34.132 89.1424 33.4579 88.0722 31.7692L87.1854 33.6794H83.7426V17.1044Z" fill="white"/>
<path d="M106.06 26.4893C106.06 29.6256 106.772 31.4943 108.487 31.4943C110.208 31.4943 110.91 29.6256 110.91 26.4893C110.91 23.3617 110.207 21.4908 108.487 21.4908C106.772 21.4908 106.06 23.3617 106.06 26.4893ZM100.962 17.1044C100.962 16.2373 100.746 15.7823 99.8648 15.7823H98.4499V13.3278H106.06V20.9662C107.199 19.6767 108.639 18.8487 110.02 18.8487C114.626 18.8487 116.346 22.4465 116.346 26.4893C116.346 30.543 114.626 34.132 110.02 34.132C108.087 34.132 106.366 33.4579 105.294 31.7692L104.401 33.6794H100.962V17.1044Z" fill="white"/>
<path d="M123.251 26.4903C123.251 30.111 123.895 31.6774 125.737 31.6774C127.577 31.6774 128.219 30.111 128.219 26.4903C128.219 22.8697 127.577 21.3053 125.737 21.3053C123.895 21.3053 123.251 22.8697 123.251 26.4903ZM133.656 26.4903C133.656 31.4036 130.308 34.132 125.737 34.132C121.157 34.132 117.816 31.4036 117.816 26.4903C117.816 21.5802 121.157 18.8487 125.737 18.8487C130.308 18.8487 133.656 21.5802 133.656 26.4903Z" fill="white"/>
<path d="M155.54 26.739V29.1325C155.54 30.5429 155.236 31.3776 154.068 31.3776C153.364 31.3776 153.029 30.8518 153.029 30.2049V21.7659H156.797V19.3092H153.029V13.608H149.984C149.736 16.151 148.941 19.3091 145.872 19.3091H141.085V13.608H138.049C137.801 16.151 137.002 19.3091 133.936 19.3091V21.7657H135.992V29.4683C135.992 32.6002 137.74 34.1319 140.896 34.1319C144.588 34.1319 146.052 32.4792 146.052 29.4683V26.7389H143.605V29.1323C143.605 30.5428 143.295 31.3774 142.132 31.3774C141.42 31.3774 141.085 30.8516 141.085 30.2047V21.7657H147.938V29.4683C147.938 32.6002 149.679 34.1319 152.841 34.1319C156.523 34.1319 158 32.4792 158 29.4683V26.7389L155.54 26.739Z" fill="white"/>
</svg>
