<svg width="158" height="48" viewBox="0 0 158 48" fill="none" xmlns="http://www.w3.org/2000/svg">
<path d="M79 0C74.2533 0 69.6131 1.40758 65.6663 4.04473C61.7195 6.68188 58.6434 10.4302 56.8269 14.8156C55.0104 19.201 54.5351 24.0266 55.4612 28.6822C56.3872 33.3377 58.673 37.6141 62.0294 40.9706C65.3859 44.327 69.6623 46.6128 74.3178 47.5388C78.9734 48.4649 83.799 47.9896 88.1844 46.1731C92.5698 44.3566 96.3181 41.2805 98.9553 37.3337C101.592 33.3869 103 28.7467 103 24C103 17.6348 100.471 11.5303 95.9706 7.02944C91.4697 2.52856 85.3652 0 79 0ZM79.0725 10.922C78.3735 10.922 77.6902 10.7147 77.109 10.3264C76.5278 9.93804 76.0749 9.38609 75.8074 8.74032C75.5399 8.09455 75.4699 7.38396 75.6063 6.69842C75.7426 6.01287 76.0792 5.38316 76.5735 4.88891C77.0677 4.39465 77.6974 4.05807 78.383 3.9217C79.0685 3.78534 79.7791 3.85532 80.4249 4.12281C81.0707 4.3903 81.6226 4.84327 82.0109 5.42445C82.3993 6.00563 82.6065 6.68891 82.6065 7.38788C82.6065 8.32518 82.2342 9.22409 81.5714 9.88686C80.9087 10.5496 80.0097 10.922 79.0725 10.922Z" fill="white"/>
<path d="M77.0676 22.8361C76.2843 23.0178 75.5016 23.201 74.7194 23.3858L73.2185 23.737C73.265 23.3481 73.3602 22.9666 73.502 22.6015C73.5529 22.496 73.6284 22.4044 73.7221 22.3342C73.8159 22.2641 73.9251 22.2174 74.0406 22.1983C74.2125 22.1582 74.3905 22.1513 74.565 22.1778C74.8611 22.2219 74.9572 22.1589 75.0501 21.8629C75.143 21.5668 75.2249 21.3258 75.3084 21.0549C75.4013 20.7557 75.3399 20.6643 75.0265 20.6392C74.687 20.6145 74.3457 20.6405 74.0138 20.7163C72.9114 20.9573 72.1035 21.5542 71.7664 22.6802C71.6522 23.0795 71.569 23.4871 71.5176 23.8992C71.5158 23.9779 71.4846 24.0532 71.43 24.11C71.3755 24.1669 71.3017 24.2012 71.2231 24.2063C70.8372 24.2866 70.4183 24.3292 70.2278 24.7764C70.2129 24.7297 70.1885 24.6866 70.1562 24.6497C70.1239 24.6128 70.0844 24.5829 70.0401 24.5619C69.9958 24.541 69.9477 24.5293 69.8987 24.5278C69.8497 24.5262 69.8009 24.5347 69.7553 24.5528C69.4655 24.6126 69.1789 24.6835 68.8922 24.7544C68.7836 24.7812 68.7347 24.7623 68.7694 24.641C68.8324 24.3591 68.8749 24.0724 68.9647 23.7968C69.0152 23.6295 69.118 23.4828 69.258 23.3782C69.3981 23.2736 69.5679 23.2167 69.7427 23.2157C69.8746 23.208 70.0069 23.2122 70.138 23.2283C70.3868 23.2519 70.5002 23.1858 70.5774 22.948C70.6719 22.655 70.7638 22.361 70.853 22.066C70.927 21.8203 70.8703 21.7306 70.612 21.6975C70.2967 21.6615 69.9777 21.6764 69.6671 21.7416C68.3552 21.9951 67.5536 22.6645 67.2528 23.9386C67.1661 24.3055 67.0953 24.6772 67.0323 25.041C67.0134 25.145 66.9803 25.1985 66.8622 25.2269C66.6275 25.2694 66.3992 25.3418 66.1645 25.3843C66.087 25.3971 66.0157 25.4348 65.9615 25.4916C65.9072 25.5484 65.8729 25.6213 65.8637 25.6993C65.8117 25.9639 65.7566 26.2285 65.7062 26.4946C65.6558 26.7608 65.7361 26.8364 66.0102 26.7734L66.733 26.6159C66.733 26.6742 66.733 26.712 66.722 26.7466C66.4968 27.9514 66.2763 29.1578 66.0432 30.3689C65.9125 31.0414 65.8149 31.7202 65.6353 32.3832C65.5833 32.6344 65.4516 32.8621 65.2598 33.0323C65.0679 33.2026 64.8263 33.3064 64.5707 33.3282C64.4708 33.3399 64.3704 33.3462 64.2699 33.3471C64.2155 33.3441 64.1616 33.3589 64.1164 33.3894C64.0713 33.4198 64.0372 33.4641 64.0195 33.5156C63.8956 33.8848 63.7904 34.2602 63.7045 34.6401C63.673 34.7818 63.7344 34.848 63.8793 34.8606C64.1686 34.8725 64.4581 34.8434 64.7392 34.7739C65.2655 34.6907 65.7607 34.4707 66.1753 34.136C66.5898 33.8013 66.9093 33.3636 67.1016 32.8667C67.3677 32.2368 67.478 31.5784 67.6024 30.917C67.8838 29.4093 68.1641 27.901 68.4434 26.3923C68.4452 26.3314 68.4696 26.2733 68.5118 26.2294C68.554 26.1854 68.611 26.1587 68.6717 26.1545C68.9127 26.1119 69.1442 26.0427 69.3883 25.997C69.559 25.9732 69.7209 25.9064 69.8587 25.8028C69.9964 25.6992 70.1055 25.5622 70.1758 25.4048C70.2813 25.66 70.4215 25.7403 70.6593 25.6962C70.7826 25.6729 70.9046 25.6429 71.0247 25.6064C71.1821 25.5607 71.2152 25.5954 71.1821 25.7639C70.9538 26.9482 70.738 28.1373 70.5097 29.3216C70.3789 30.0004 70.2813 30.6855 70.0986 31.3548C70.0465 31.6003 69.9172 31.8226 69.7296 31.9892C69.542 32.1559 69.3059 32.2581 69.056 32.2809C68.9518 32.2971 68.8465 32.3066 68.741 32.3092C68.6835 32.3051 68.6263 32.3213 68.5794 32.355C68.5325 32.3886 68.4989 32.4376 68.4843 32.4935C68.3757 32.8604 68.2764 33.2321 68.1788 33.5959C68.1473 33.7156 68.1993 33.7833 68.3253 33.8069C68.5698 33.8331 68.8171 33.8166 69.056 33.7581C70.0986 33.5896 70.9176 33.0935 71.4184 32.1391C71.6339 31.7331 71.7878 31.2974 71.8751 30.8461C72.2321 29.0003 72.5828 27.1535 72.9271 25.3056C72.9304 25.2571 72.9509 25.2113 72.985 25.1766C73.0191 25.1419 73.0645 25.1206 73.113 25.1166C73.7256 24.9764 74.3367 24.83 74.9493 24.6882C75.0979 24.6413 75.251 24.6102 75.406 24.5953C75.406 24.6536 75.3966 24.6977 75.3871 24.7418C75.206 25.6285 75.0186 26.5136 74.8454 27.4018C74.7446 27.9199 74.595 28.4302 74.5603 28.9578C74.5288 29.4618 74.7462 29.6886 75.2454 29.6807C75.8234 29.6728 76.3667 29.4712 76.9227 29.3421C76.9806 29.3246 77.0318 29.29 77.0695 29.2427C77.1072 29.1954 77.1296 29.1378 77.1337 29.0775C77.1841 28.805 77.2392 28.5342 77.2912 28.2617C77.3432 27.9892 77.2597 27.9199 76.9762 27.9798C76.7699 28.0239 76.5668 28.0759 76.3652 28.1231C76.3557 28.0979 76.351 28.0916 76.3526 28.0869L76.9904 24.8835C77.1101 24.2914 77.2345 23.7023 77.3463 23.1086C77.3999 22.8361 77.3337 22.7684 77.0676 22.8361ZM99.3856 17.5996C99.0407 17.6138 98.6942 17.639 98.3493 17.65C98.2703 17.6486 98.1931 17.6734 98.1296 17.7204C98.0661 17.7673 98.0199 17.8339 97.9981 17.9098C97.3587 19.5273 96.6547 21.1195 96.0735 22.7605C96.0546 22.8157 96.0546 22.896 95.9586 22.8771C95.8625 22.8582 95.894 22.7889 95.8924 22.7401C95.8263 21.4203 95.6767 20.1068 95.5774 18.7886C95.5522 18.4579 95.4987 18.417 95.1806 18.491C94.0545 18.7556 92.9285 19.017 91.8055 19.291C91.615 19.3367 91.6276 19.2721 91.6575 19.1335C91.7614 18.6422 91.8622 18.1492 91.9567 17.6547C92.0008 17.4169 91.9174 17.3492 91.6874 17.4326C91.2795 17.5791 90.8748 17.7334 90.4684 17.8846C90.3906 17.9111 90.3217 17.9587 90.2694 18.0221C90.2171 18.0855 90.1835 18.1623 90.1724 18.2437C90.0857 18.6941 89.9913 19.1446 89.9062 19.595C89.9035 19.6412 89.8844 19.685 89.8524 19.7184C89.8203 19.7519 89.7775 19.7729 89.7314 19.7777C88.9833 19.9478 88.2384 20.1273 87.4919 20.3021C86.843 20.4596 86.1942 20.6061 85.5469 20.7604C85.3894 20.7982 85.2319 20.847 85.1909 21.0471C85.1405 21.3384 85.0838 21.6282 85.0334 21.9195C84.9988 22.1385 85.0996 22.2251 85.3185 22.1747C85.5059 22.1322 85.6918 22.0833 85.8855 22.0345C85.8879 22.0586 85.8879 22.0829 85.8855 22.107C85.6933 23.0519 85.4965 23.9969 85.3091 24.9339C85.2083 25.4395 85.0586 25.9371 85.0445 26.4553C85.0303 26.9277 85.2445 27.1467 85.7154 27.1372C86.2997 27.1262 86.8493 26.9215 87.4116 26.7955C87.4642 26.7814 87.5113 26.7518 87.5467 26.7105C87.5821 26.6692 87.6042 26.6181 87.61 26.5639C87.6683 26.2679 87.7313 25.9718 87.7769 25.6741C87.8132 25.4442 87.7297 25.378 87.4966 25.4284C87.2635 25.4788 87.0651 25.5261 86.843 25.5765C86.841 25.5497 86.841 25.5229 86.843 25.4962L87.5958 21.7621C87.601 21.7161 87.6219 21.6734 87.6548 21.641C87.6878 21.6086 87.7309 21.5885 87.7769 21.5841C88.0415 21.5274 88.303 21.4613 88.5644 21.3998L89.5834 21.1683C89.4495 21.8282 89.3156 22.4566 89.1991 23.0866C89.0668 23.8031 88.851 24.504 88.8179 25.2379C88.7849 25.945 89.0825 26.4254 89.9078 26.3844C90.2345 26.3638 90.5562 26.2943 90.8622 26.1781C91.3881 26.0045 91.8878 25.7597 92.3473 25.4505C92.5489 25.3056 92.6418 25.1355 92.5489 24.8851C92.5046 24.7476 92.4678 24.6077 92.4387 24.4662C92.3284 24.0299 92.3111 24.0236 91.93 24.2677C91.6436 24.4745 91.3167 24.6183 90.9708 24.6898C90.7614 24.7229 90.6559 24.6378 90.6559 24.4284C90.6531 24.3229 90.661 24.2173 90.6795 24.1134C90.8842 23.0393 91.0953 21.9652 91.2984 20.8911C91.3019 20.8494 91.3193 20.8101 91.3479 20.7795C91.3764 20.7489 91.4145 20.7289 91.4559 20.7226C92.2434 20.5431 93.0308 20.3635 93.8057 20.173C93.9238 20.1446 93.9443 20.173 93.9632 20.2769C94.0183 20.7494 94.0766 21.2219 94.1348 21.6943C94.2629 22.7558 94.3905 23.8178 94.5175 24.8804C94.5364 25.0379 94.6215 25.0993 94.7758 25.0678L95.1349 24.9922C95.0498 25.178 94.9774 25.3339 94.905 25.493C94.805 25.7523 94.6497 25.9866 94.4498 26.1797C94.2771 26.3379 94.0665 26.4489 93.8383 26.5019C93.6101 26.5548 93.3721 26.548 93.1474 26.4821C92.8529 26.4112 92.7694 26.4521 92.6339 26.7199C92.4985 26.9876 92.352 27.2821 92.2166 27.5656C92.1032 27.8002 92.1426 27.8806 92.393 27.9735C92.4341 27.9884 92.4762 28.0005 92.519 28.0097C92.976 28.112 93.4514 28.0971 93.9011 27.9663C94.3507 27.8355 94.76 27.5931 95.0908 27.2616C95.5358 26.8239 95.9033 26.3137 96.1775 25.7529C96.5444 25.0568 96.8248 24.3229 97.1398 23.6031C97.9661 21.7132 98.7924 19.8191 99.6187 17.9209C99.7273 17.661 99.6785 17.5886 99.3856 17.5996Z" fill="#252D6C"/>
<path d="M64.6069 32.1076C64.6684 31.7926 64.7282 31.4902 64.7739 31.18C64.8038 30.9753 64.7361 30.9186 64.5235 30.9595C64.3109 31.0005 64.1203 31.0493 63.9203 31.0949C63.8984 31.0258 63.8984 30.9515 63.9203 30.8823C64.0778 30.1059 64.2242 29.3279 64.3786 28.5515C64.5361 27.7435 64.7046 26.9372 64.8652 26.1293C64.9298 25.8017 64.8652 25.7466 64.5502 25.8143C64.2683 25.8789 63.988 25.945 63.7045 26.0064C63.6217 26.0192 63.5443 26.0551 63.481 26.11C63.4177 26.1649 63.3713 26.2365 63.347 26.3167C63.3297 26.3687 63.325 26.4301 63.2714 26.4647C62.7895 26.1844 62.5454 26.1277 62.1517 26.1812C61.4115 26.2836 60.8382 26.6805 60.372 27.2301C59.1814 28.6334 58.7294 30.2854 58.7971 32.0997C58.8051 32.4093 58.8803 32.7135 59.0176 32.9911C59.1112 33.1952 59.271 33.3617 59.4712 33.4635C59.6713 33.5653 59.9 33.5964 60.12 33.5518C60.5865 33.4693 61.0219 33.262 61.38 32.9518C61.732 32.6453 62.0376 32.2894 62.2871 31.895C62.3029 31.9627 62.317 32.0052 62.3218 32.0525C62.38 32.4935 62.5375 32.6399 62.9769 32.6258C63.4588 32.61 63.914 32.4509 64.377 32.3407C64.4351 32.3313 64.4887 32.3036 64.5301 32.2617C64.5714 32.2198 64.5983 32.1658 64.6069 32.1076ZM62.7911 27.8758C62.6037 28.6633 62.5013 29.4854 62.2682 30.2697C62.1451 30.7619 61.8754 31.205 61.4949 31.5406C61.3473 31.6664 61.1727 31.7564 60.9847 31.8037C60.9511 31.8183 60.9147 31.8251 60.8781 31.8236C60.8415 31.8221 60.8057 31.8124 60.7735 31.7951C60.7412 31.7778 60.7133 31.7535 60.6917 31.7238C60.6702 31.6942 60.6557 31.6601 60.6492 31.6241C60.6076 31.4703 60.5937 31.3103 60.6083 31.1516C60.6359 30.2066 60.8584 29.2774 61.2618 28.4223C61.3774 28.1642 61.5522 27.9371 61.7721 27.7593C61.9072 27.6564 62.0715 27.599 62.2413 27.5954C62.411 27.5917 62.5776 27.6419 62.7171 27.7388C62.7769 27.775 62.8068 27.8065 62.7911 27.8758ZM84.0933 26.3088C83.9073 26.341 83.7232 26.3836 83.542 26.4364C83.3845 26.4836 83.3846 26.4364 83.4176 26.3057C83.5993 25.4899 83.7783 24.6735 83.9547 23.8567C84.0681 23.3291 84.2114 22.8046 84.1956 22.2566C84.1736 21.5305 83.7358 21.1226 83.0522 21.2124C82.9278 21.2309 82.8054 21.2615 82.6869 21.3038C81.953 21.5526 81.4269 22.0676 80.9639 22.6613C80.9182 22.7196 80.8915 22.8015 80.8064 22.8298C80.8052 22.615 80.7674 22.402 80.6946 22.1999C80.6872 22.1711 80.674 22.1441 80.6559 22.1205C80.6378 22.0969 80.6152 22.0772 80.5893 22.0625C80.5635 22.0478 80.535 22.0384 80.5054 22.035C80.4759 22.0315 80.446 22.0341 80.4174 22.0424L78.6929 22.4519C78.6275 22.4647 78.5678 22.4981 78.5225 22.547C78.4772 22.596 78.4487 22.6581 78.4409 22.7243C78.3858 23.0141 78.3212 23.3039 78.2724 23.5937C78.2346 23.8157 78.3181 23.8882 78.537 23.8409C78.7559 23.7937 78.9402 23.7449 79.167 23.6834C79.167 23.7669 79.1575 23.8283 79.1512 23.8898C79.0992 24.3402 78.9795 24.778 78.8866 25.2205C78.6457 26.3513 78.3968 27.4805 78.1543 28.6113C78.0755 28.983 78.1543 29.0523 78.5134 28.9672C78.8283 28.8917 79.1433 28.8098 79.4678 28.7468C79.5796 28.7341 79.6835 28.6825 79.7612 28.601C79.8389 28.5196 79.8856 28.4134 79.893 28.3011C80.1103 27.2364 80.3009 26.1639 80.5749 25.1119C80.7324 24.4819 80.9545 23.852 81.4017 23.3543C81.5516 23.1734 81.757 23.0472 81.986 22.9952C82.0309 22.9782 82.0794 22.973 82.1269 22.9801C82.1743 22.9872 82.2192 23.0064 82.2571 23.0358C82.295 23.0652 82.3248 23.1038 82.3435 23.148C82.3622 23.1922 82.3693 23.2404 82.364 23.2881C82.3667 23.357 82.3635 23.4261 82.3546 23.4944C82.2837 24.0693 82.1325 24.63 82.0207 25.1969C81.8852 25.882 81.7057 26.5561 81.6065 27.2443C81.5372 27.7372 81.764 28.0034 82.2632 28.0144C82.3156 28.0182 82.3683 28.0182 82.4207 28.0144C82.9359 27.9322 83.4463 27.8229 83.9499 27.6868C84.0114 27.6707 84.0666 27.6364 84.1082 27.5883C84.1498 27.5402 84.1759 27.4807 84.183 27.4175C84.2397 27.1215 84.2996 26.8254 84.3484 26.5277C84.372 26.334 84.2933 26.2694 84.0933 26.3088ZM77.1448 19.9178C76.4628 19.9178 75.7699 20.5935 75.7274 21.2959C75.6848 21.9983 76.1731 22.4125 76.8581 22.2644C77.1607 22.1851 77.4332 22.0183 77.6416 21.785C77.85 21.5517 77.985 21.2621 78.0299 20.9525C78.0929 20.3368 77.7322 19.9163 77.1448 19.9178ZM87.4163 19.7021C87.7095 19.6211 87.9715 19.4537 88.1682 19.2217C88.3648 18.9896 88.487 18.7037 88.5187 18.4012C88.5468 18.2744 88.5451 18.1428 88.5136 18.0168C88.4821 17.8908 88.4217 17.7738 88.3372 17.6751C88.2527 17.5765 88.1465 17.4988 88.0269 17.4482C87.9072 17.3977 87.7774 17.3756 87.6478 17.3838C86.9281 17.3838 86.2304 18.0705 86.2304 18.8012C86.2304 19.532 86.7375 19.9131 87.4163 19.7021ZM100.644 21.9416C100.595 21.9304 100.544 21.9318 100.496 21.9459C100.447 21.96 100.404 21.9861 100.368 22.0219C100.338 22.0626 100.314 22.1071 100.296 22.1542L99.8848 22.9795C99.8628 22.7086 99.847 22.4912 99.8234 22.2755C99.8234 22.2282 99.8407 22.1385 99.7541 22.1463C99.6297 22.1589 99.4958 22.1463 99.4549 22.3306C99.3415 22.8314 99.2076 23.3291 99.0895 23.8299C99.0785 23.8803 98.9966 23.9874 99.1037 23.9874C99.184 23.9984 99.3131 24.0047 99.3478 23.8724C99.3604 23.8236 99.3714 23.7748 99.3824 23.726L99.5888 22.7905C99.6347 22.9736 99.6663 23.16 99.6833 23.348C99.6833 23.3874 99.6644 23.4441 99.721 23.4614C99.7485 23.4695 99.7777 23.47 99.8055 23.4628C99.8332 23.4556 99.8585 23.4409 99.8785 23.4204C99.9034 23.3926 99.9231 23.3606 99.9368 23.3259L100.219 22.7527L100.257 22.7936L100.126 23.6299C100.126 23.6756 100.085 23.7464 100.17 23.737C100.255 23.7275 100.39 23.737 100.412 23.57C100.477 23.085 100.562 22.6015 100.634 22.118C100.65 22.0613 100.715 21.9558 100.644 21.9416ZM99.3761 22.2314C99.0202 22.3164 98.6863 22.3889 98.354 22.4755C98.1965 22.5133 98.2202 22.6629 98.2312 22.7542C98.2422 22.8456 98.3414 22.7542 98.4029 22.7542C98.4508 22.751 98.4982 22.7431 98.5446 22.7306C98.5552 22.7555 98.5606 22.7823 98.5606 22.8094C98.5606 22.8364 98.5552 22.8632 98.5446 22.8881C98.4658 23.2677 98.3871 23.6488 98.3068 24.0299C98.2958 24.0819 98.2469 24.1575 98.3304 24.1874C98.3935 24.1934 98.4569 24.179 98.5113 24.1464C98.5657 24.1138 98.6082 24.0647 98.6328 24.0063C98.7163 23.5952 98.7997 23.1842 98.8801 22.7716C98.8989 22.6771 98.9257 22.6141 99.0375 22.6031C99.2549 22.5968 99.3257 22.4393 99.3761 22.2314Z" fill="#252D6C"/>
</svg>
