<svg width="158" height="48" viewBox="0 0 158 48" fill="none" xmlns="http://www.w3.org/2000/svg">
<path d="M143.777 21.3446H143.81C144.71 20.1788 145.759 19.979 146.925 19.979L146.708 22.9601C146.459 22.9435 146.209 22.9435 145.976 22.9435C143.661 22.9435 143.577 24.2758 143.494 25.8247L143.278 29.3054H139.664L140.146 22.3772C140.213 21.5445 140.23 20.9782 140.196 19.9623H143.644L143.777 21.3446Z" fill="white"/>
<path d="M125.441 29.3054L126.373 15.9153H129.788L128.855 29.3054H125.441Z" fill="white"/>
<path d="M119.911 15.5656C122.676 15.5656 125.491 16.7647 125.374 20.1289H121.577C121.577 19.2462 121.061 18.2469 119.778 18.2469C118.496 18.2469 116.98 19.2129 116.714 21.9775C116.447 24.7421 116.797 26.8572 119.045 26.8572C120.994 26.8572 121.377 25.1751 121.41 24.8587H125.174C125.174 26.3576 123.942 29.4387 118.829 29.4387C113.433 29.4387 112.484 25.5082 112.917 21.8609C113.3 18.7965 115.481 15.5656 119.911 15.5656Z" fill="white"/>
<path d="M108.153 21.8443H112.667L111.218 24.7588H106.705L108.153 21.8443Z" fill="white"/>
<path d="M101.142 33.8021H97.8944L99.9928 29.4553L96.562 19.9623H100.542L102.075 25.758L104.523 19.9623H107.804L101.142 33.8021Z" fill="white"/>
<path d="M50.646 19.9623V21.228H50.6793C51.7118 19.8624 53.1441 19.7458 54.0268 19.7458C55.2925 19.7458 56.6082 20.4453 56.858 21.3946C57.5742 20.2787 58.8566 19.7292 60.2722 19.6958C62.304 19.6958 63.7196 20.9949 63.5864 23.06L63.1367 29.3054H59.5727L59.9557 23.8261C60.0057 22.9434 59.9391 21.9275 58.7566 21.9275C57.0412 21.9275 57.1078 23.8428 57.0912 23.9594L56.7415 29.3054H53.1441L53.5438 23.8261C53.5605 22.9101 53.4439 21.9275 52.3114 21.9275C50.4961 21.9275 50.546 23.8428 50.546 23.9594L50.1796 29.3221H46.4824L47.1319 19.979L50.646 19.9623Z" fill="white"/>
<path d="M43.1015 19.9623H46.4324L45.7829 29.3054H42.452L43.1015 19.9623Z" fill="white"/>
<path d="M37.8221 15.9153L33.1422 21.8609L37.3058 29.3054H42.0023L37.3225 21.6611L42.2522 15.9153H37.8221Z" fill="white"/>
<path d="M29.5615 15.9153H33.4753L32.5426 29.3054H28.6122L29.5615 15.9153Z" fill="white"/>
<path d="M78.5087 25.2417C78.4088 26.5241 78.6919 27.5734 80.0242 27.5734C81.0068 27.5734 81.6231 26.9238 81.6231 26.3076H84.8873C84.8207 27.4401 84.0213 28.3228 83.0886 28.8391C82.2393 29.3554 81.2567 29.4553 80.2074 29.4553C76.4102 29.4553 74.928 27.8731 75.1612 24.3424C75.361 21.3946 77.7259 19.6459 80.5405 19.6958C84.2878 19.7625 85.4869 21.9608 85.1371 25.2584H78.5087V25.2417ZM81.8895 23.4764C81.9228 22.9768 81.8063 22.4771 81.5564 22.0774C81.3066 21.6944 80.9236 21.4446 80.3906 21.4779C79.1582 21.5278 78.8418 22.4105 78.6752 23.4597H81.8895V23.4764Z" fill="white"/>
<path d="M64.7855 15.9153H68.2829L67.9165 21.2447H67.9831C68.6826 20.412 69.6652 19.7125 70.931 19.7125C73.7955 19.7125 74.8947 22.2273 74.7282 24.4923C74.5783 26.7906 73.3625 29.422 70.1815 29.422C69.099 29.422 68.0664 28.8224 67.5834 28.1396H67.5168L67.3003 29.2721H63.8695L64.7855 15.9153ZM67.5834 24.7588C67.5335 25.8913 67.8166 27.5067 69.099 27.5067C70.7145 27.5067 71.1142 25.8913 71.1808 24.5922C71.2307 23.4431 71.0142 21.7443 69.6319 21.761C67.8666 21.761 67.6334 23.5263 67.5834 24.7588Z" fill="white"/>
<path d="M92.2652 29.3054L93.1978 15.9153H96.612L95.6793 29.3054H92.2652Z" fill="white"/>
<path d="M89.384 21.3446H89.4173C90.3167 20.1788 91.3659 19.979 92.515 19.979L92.2985 22.9601C92.0654 22.9435 91.8156 22.9435 91.5824 22.9435C89.2674 22.9435 89.1842 24.2758 89.1009 25.8247L88.8844 29.3054H85.2704L85.7534 22.3772C85.82 21.5445 85.8366 20.9782 85.8033 19.9623H89.2508L89.384 21.3446Z" fill="white"/>
<path d="M150.672 24.1093L154.003 19.9623H158L154.403 23.9094L157.8 29.3054H153.47L150.672 24.1093Z" fill="white"/>
<path d="M146.792 29.3054L147.724 15.9153H151.255L150.322 29.3054H146.792Z" fill="white"/>
<path d="M135.567 28.1563H135.533C134.784 28.8558 134.068 29.372 132.702 29.372C130.487 29.372 129.571 28.123 129.571 26.4742C129.571 24.6255 131.47 23.4264 134.85 23.4264H135.966C136.016 22.6104 136.299 21.2614 134.917 21.2614C133.918 21.2614 133.685 22.2107 133.668 22.6603H130.454C130.52 21.4446 131.053 20.6285 132.036 20.2121C133.035 19.7625 134.251 19.6625 135.283 19.6625C137.182 19.6625 139.497 20.6118 139.347 22.9101L139.081 27.3902C139.047 27.7732 139.047 28.1896 139.097 29.3054H135.766L135.567 28.1563ZM134.034 27.5234C135.683 27.5234 135.783 25.9912 135.866 24.7421C135.117 24.7421 134.417 24.7088 133.918 24.942C133.385 25.2084 132.985 25.6415 132.935 26.291C132.902 26.9905 133.368 27.5234 134.034 27.5234Z" fill="white"/>
<path d="M43.4346 15.9153H46.7655L46.5989 18.3302H43.268L43.4346 15.9153Z" fill="white"/>
<path d="M8.62696 15.9986V21.6944C8.1773 20.6618 7.17803 19.7458 6.16212 19.1296H1.88194C3.26426 20.1622 5.46263 21.7776 5.46263 23.0767C5.46263 23.7262 4.67988 23.8428 4.23021 23.8428H1.5322V26.9405H5.76241C6.71171 26.9405 8.07737 26.5908 8.62696 25.1418V29.2888H12.5574V25.1418C13.107 26.6074 14.4726 26.9405 15.4219 26.9405H19.6522V23.8428H16.9541C16.5045 23.8428 15.7217 23.7095 15.7217 23.0767C15.7217 21.7776 17.9201 20.1622 19.3024 19.1296H15.0222C14.0063 19.7458 13.0071 20.6618 12.5574 21.6944V15.9986H8.62696ZM10.5922 14.0001C16.4379 14.0001 21.1844 18.0804 21.1844 23.11C21.1844 28.1396 16.4379 32.2199 10.5922 32.2199C4.7465 32.2199 0 28.1396 0 23.11C0 18.0637 4.72984 13.9834 10.5922 14.0001Z" fill="white"/>
</svg>
