<?xml version="1.0" encoding="utf-8"?>
<!-- Generator: Adobe Illustrator 27.1.1, SVG Export Plug-In . SVG Version: 6.00 Build 0)  -->
<svg version="1.1"
	 id="svg16893" xmlns:cc="http://creativecommons.org/ns#" xmlns:rdf="http://www.w3.org/1999/02/22-rdf-syntax-ns#" xmlns:dc="http://purl.org/dc/elements/1.1/" xmlns:svg="http://www.w3.org/2000/svg"
	 xmlns="http://www.w3.org/2000/svg" xmlns:xlink="http://www.w3.org/1999/xlink" x="0px" y="0px" viewBox="0 0 300 86.2"
	 style="enable-background:new 0 0 300 86.2;" xml:space="preserve">
<style type="text/css">
	.st0{fill:#FFFFFF;}
</style>
<g id="g15902" transform="matrix(2.1025538,0,0,-2.1025538,-945.43842,1967.8152)">
	<g>
		<g id="g15904">
			<g id="g15910" transform="translate(500.6749,698.2117)">
				<path id="path15912" class="st0" d="M24.9,226.8c-0.2-0.2-0.3-0.5-0.3-1V213h-0.1c0,0-7,12.5-7.4,13.1c-0.2,0.4-0.5,0.7-0.9,0.9
					c-0.4,0.2-0.7,0.3-1.4,0.3h-2.3c-0.5,0-0.9-0.2-1.1-0.5c-0.2-0.2-0.3-0.5-0.3-1v-18.2c0-0.5,0.1-0.7,0.3-1
					c0.2-0.3,0.6-0.5,1.1-0.5h1.3c0.5,0,0.9,0.2,1.1,0.5c0.2,0.2,0.3,0.5,0.3,1v13.1h0.1c0,0,7.3-12.9,7.6-13.4
					c0.4-0.7,1.1-1.2,2.1-1.2h2.2c0.5,0,0.9,0.2,1.1,0.5c0.2,0.2,0.3,0.5,0.3,1v16.4h29.5c0.3,0,0.5,0.1,0.7,0.2
					c0.2,0.2,0.3,0.4,0.3,0.7v1.2c0,0.3-0.1,0.6-0.3,0.7c-0.2,0.1-0.4,0.2-0.7,0.2H26.1C25.5,227.2,25.2,227.1,24.9,226.8
					 M37.8,221.9c-4.9,0-7.6-3.8-7.6-7.9c0-4.3,2.9-8.1,7.7-8.1c2.4,0,4.7,0.9,6,2.5c0.6,0.7,1,1.6,1,2.2c0,0.2,0,0.4-0.2,0.5
					c-0.1,0.1-0.3,0.2-0.6,0.2h-2.3c-0.5,0-0.8-0.2-1-0.5c-0.7-1-1.6-1.5-3-1.5c-2.1,0-3.5,1.6-3.6,3.4h9.8c0.4,0,0.7,0.1,1,0.3
					c0.2,0.2,0.4,0.6,0.4,1.2c0,1.8-0.6,3.8-1.8,5.2C42.4,220.9,40.5,221.9,37.8,221.9 M53,221.9c-3.9,0-6.4-1.8-6.4-4.8
					c0-1,0.4-1.9,1-2.6c0.7-0.8,1.8-1.3,3.2-1.7l3.2-0.8c0.9-0.2,1.7-0.5,1.7-1.3c0-1.2-1.3-1.6-2.6-1.6c-0.7,0-1.4,0.1-1.9,0.4
					c-0.4,0.2-0.7,0.5-1,0.9c-0.2,0.3-0.3,0.6-0.6,0.7c-0.2,0.1-0.4,0.1-0.8,0.1h-1.8c-0.4,0-0.6-0.1-0.7-0.3
					c-0.1-0.2-0.2-0.4-0.2-0.6c0-0.6,0.2-1.3,0.7-1.9c1.1-1.4,3.3-2.6,6.2-2.6c2.8,0,6.7,1.2,6.7,5c0,1-0.3,1.8-0.8,2.5
					c-0.7,0.9-1.6,1.5-3.2,1.9l-3.2,0.8c-1.3,0.3-1.9,0.6-1.9,1.4c0,0.8,0.7,1.4,2.3,1.4c1,0,1.8-0.2,2.4-0.8
					c0.5-0.5,0.4-0.7,0.7-0.9c0.2-0.1,0.5-0.1,0.9-0.1h1.6c0.3,0,0.4,0,0.6,0.2c0.1,0.1,0.2,0.3,0.2,0.6c0,0.7-0.5,1.7-1.3,2.4
					C56.9,221.3,55.1,221.9,53,221.9 M61.7,221.4H61c-0.3,0-0.5-0.1-0.7-0.2c-0.2-0.2-0.3-0.4-0.3-0.7v-1c0-0.3,0.1-0.6,0.3-0.7
					c0.2-0.1,0.4-0.2,0.7-0.2h0.8v-7c0-1.8,0.5-2.9,1.4-3.8c0.8-0.8,1.9-1.4,3.9-1.4h1.2c0.3,0,0.5,0.1,0.7,0.2
					c0.2,0.2,0.3,0.4,0.3,0.7v1.2c0,0.3-0.1,0.6-0.3,0.7c-0.2,0.1-0.4,0.2-0.7,0.2h-0.2c-0.8,0-1.3,0.2-1.6,0.5
					c-0.4,0.4-0.6,1-0.6,1.8v6.8h2.6c0.3,0,0.5,0.1,0.7,0.2c0.2,0.2,0.3,0.4,0.3,0.7v1c0,0.3-0.1,0.6-0.3,0.7
					c-0.2,0.1-0.4,0.2-0.7,0.2h-2.6v4.6c0,0.4-0.1,0.6-0.3,0.8c-0.2,0.3-0.5,0.4-0.9,0.4H63c-0.4,0-0.7-0.2-0.9-0.4
					c-0.2-0.2-0.3-0.5-0.3-0.8C61.7,226,61.7,221.4,61.7,221.4z M70.4,207.5c0-0.4,0.1-0.6,0.3-0.8c0.2-0.3,0.5-0.4,0.9-0.4h1.7
					c0.4,0,0.7,0.2,0.9,0.4c0.2,0.2,0.3,0.5,0.3,0.8V226c0,0.4-0.1,0.6-0.3,0.8c-0.2,0.3-0.5,0.4-0.9,0.4h-1.7
					c-0.4,0-0.7-0.2-0.9-0.4c-0.2-0.2-0.3-0.5-0.3-0.8V207.5z M34.3,215.7c0.2,1.7,1.5,3,3.5,3c2,0,3.3-1.3,3.5-3
					C41.4,215.7,34.3,215.7,34.3,215.7z M89.8,224.1c0.3,0,0.5,0.1,0.7,0.2c0.2,0.2,0.3,0.4,0.3,0.7v1.3c0,0.5-0.1,0.8-0.3,0.9
					c-0.2,0.2-0.4,0.3-0.7,0.3c-0.2,0-0.5,0-0.8-0.1l-11.3-1.1c-0.3,0-0.5-0.1-0.6-0.3c-0.1-0.1-0.2-0.3-0.2-0.6v-0.7
					c0-0.3,0.1-0.4,0.2-0.5c0.1-0.1,0.3-0.2,0.6-0.2H89.8L89.8,224.1z M83.6,221.9c-4.9,0-7.6-3.8-7.6-7.9c0-4.3,2.9-8.1,7.7-8.1
					c2.4,0,4.7,0.9,6,2.5c0.6,0.7,1,1.6,1,2.2c0,0.2,0,0.4-0.2,0.5c-0.1,0.1-0.3,0.2-0.6,0.2h-2.3c-0.5,0-0.8-0.2-1-0.5
					c-0.7-1-1.6-1.5-3-1.5c-2.1,0-3.5,1.6-3.6,3.4h9.8c0.4,0,0.7,0.1,1,0.3c0.2,0.2,0.4,0.6,0.4,1.2c0,1.8-0.6,3.8-1.8,5.2
					C88.2,220.9,86.2,221.9,83.6,221.9 M80.1,215.7c0.2,1.7,1.5,3,3.5,3c2,0,3.3-1.3,3.5-3H80.1z"/>
			</g>
			<g id="g15914" transform="translate(471.0004,695.3475)">
				<path id="path15916" class="st0" d="M24.9,226.8c-3.7,5.4-6.9,7.3-7.8,8.1c-1,1-1.7,2-2.2,2.6c-1.1,1.2-2.5,2.6-4.7,2.6
					c-2.2,0-3.7-1.4-4.1-2.7c-0.1-0.4-0.2-0.8-0.3-0.9c-0.2-0.4-1.2-2-1.6-2.7H6l-0.9-1.7c1,0.2,1.8,0.4,2.7,0.4
					c0.9,0,1.5-0.2,1.8-0.8c0.5-1,0.5-4.1,1.4-6.4c0.8-2.2,2.8-4.3,5-6c0,0,0.1,0,0.1,0c0.1,0,0.2,0.1,0.2,0.2c0,0.1,0,0.1-0.1,0.1
					c-1.8,1.8-3.3,3.9-4.2,6.1c-0.8,2.2-0.7,5.2-1.4,6.6c-0.5,0.9-1.4,1.1-2.3,1.1c-0.7,0-1.4-0.1-1.7-0.2l0.8,1.3H6
					c0.3,0.5,0.6,1,0.7,1.2c0.1,0.2,0.2,0.5,0.3,0.9c0.5,1.3,1.6,2.1,3.1,2.1c1.8,0,2.9-1.2,4-2.4c0.5-0.6,1.3-1.7,2.2-2.6
					c0.6-0.6,1.9-1.2,3.7-3.2c1.1-1.1,2.3-2.6,3.7-4.5c4.7-6.9,7.9-13.1,9.6-17.8l0,0c-5,3.4-9.3,6.6-12.8,10.5
					c-2.5,2.8-4.6,6-6.5,10.2c-0.1,0.3-0.2,0.5-0.4,0.8c0,0.1-0.1,0.1-0.2,0.1c-0.1,0-0.2-0.1-0.2-0.2c0-0.1,0-0.3,0.2-0.8
					c1-4.3,3.7-8.1,6.7-11.3c2.9-3.2,6.2-5.9,9-7.9l2.1-6.1c0-0.1,0.1-0.3,0.1-0.5c0-0.1,0-0.2-0.1-0.3c-0.1-0.1-0.1-0.1-0.3-0.1
					h-0.6c-0.3,0-0.4,0-0.5,0.1c-0.1,0.1-0.2,0.2-0.2,0.3c-0.2,0.6-1.3,3.8-1.5,4.4c0,0.1-0.1,0.2-0.2,0.2c-0.1,0-0.2-0.1-0.2-0.2
					c0-0.1,0-0.2,0.1-0.4c0.3-1.5,0.6-3.1,0.8-3.7c0.1-0.3,0.1-0.6,0.1-0.7c0-0.2,0-0.3-0.2-0.4l-0.7-0.7c-0.2-0.2-0.2-0.2-0.4-0.2
					c-0.2,0-0.3,0.1-0.3,0.4c-0.7,3.5-1.9,7.8-2.2,9c-0.1,0.3-0.1,0.4-0.3,0.4c-0.1,0-0.2-0.1-0.2-0.2c0-0.1,0-0.2,0-0.3
					c0.2-1.2,0.9-5.7,1.7-9.9c0.1-0.7,0.4-1.1,1-1.1c0.3,0,0.5,0.1,0.8,0.3c0.4,0.4,0.5,0.5,1,1c0.3,0.3,0.6,0.5,1.2,0.5h1.5
					c0.3,0,0.5,0.1,0.7,0.2c0.2,0.1,0.3,0.4,0.3,0.6c0,0.3-0.1,0.5-0.2,0.9c-0.4,1-1.6,4.4-1.9,5.3l0,0c1.2-0.9,3-2.1,3.8-2.1
					c0.2,0,0.4,0.1,0.4,0.5C34.8,209.1,31.8,216.5,24.9,226.8"/>
			</g>
			<g id="g15918" transform="translate(437.2935,706.7568)">
				<path id="path15920" class="st0" d="M24.9,226.8c0.2,0.5,0.7,0.8,1.2,0.8c0.7,0,1.3-0.6,1.3-1.3c0-0.4-0.2-0.8-0.5-1.1
					c0.1-0.3,0.1-0.5,0.1-0.7c0-0.8-0.5-1.4-1.4-1.7c-0.1-0.5-0.3-1-0.7-1.3c-0.6-0.6-1.2-0.6-1.2-0.8c0-0.1,0.1-0.2,0.3-0.2
					c1.1,0,2.2,0.6,2.3,1.6c1,0.4,1.7,1.4,1.7,2.2c0,0.2,0,0.4-0.1,0.6c0.3,0.3,0.6,0.7,0.6,1.4c0,0.6-0.3,1.2-0.7,1.7
					c-0.4,0.4-1,0.7-1.7,0.7c-1,0-1.6-0.5-2-1.1c-1.1,0-2.5-1.2-2.5-2.9h-0.1c-0.1,0.6-0.7,1-1.2,1c-0.4,1.2-1.3,2.3-2.9,2.3
					c-0.2,0-0.4,0-0.6,0c-0.5,0.4-1,0.7-1.6,0.7c-1.3,0-2.4-1.1-2.4-2.4c0-0.8,0.4-1.4,1.1-1.9c0,0,0-0.1,0-0.2
					c0-1.1,1.2-2.8,2.9-2.8c0-0.3,0.3-0.6,0.7-0.7v-0.1h-0.1c-2.4,0-3.4-1.2-3.4-1.9c-0.7-0.3-1.2-1.1-1.2-1.8
					c0-1.5,1.1-2.5,2.5-2.5c0.5,0,1,0.2,1.3,0.4c0.2-0.1,0.6-0.1,0.9-0.1c0.7,0,1.4,0.2,2,1c0.1,0,0.1,0,0.2,0c0.9,0,1.6,0.6,2,1.3
					c0.1,0.2,0.1,0.3,0.1,0.4c0,0.1,0,0.2-0.2,0.2c-0.1,0-0.2-0.1-0.4-0.4c-0.5-0.5-1.4-0.7-2.3-0.7c-0.4-0.6-0.9-0.9-1.5-0.9
					c-0.4,0-0.8,0.1-1.1,0.4c-0.3-0.3-0.6-0.4-1-0.4c-0.8,0-1.3,0.5-1.3,1.3c0,0.6,0.4,1,0.8,1.2c0.1,1,1.1,1.6,2.4,1.6
					c0.2,0,0.3,0,0.5,0c0.2,0.3,0.7,0.6,1.3,0.7c0.1,0,0.2,0,0.3,0.1c0.1,0,0.1,0.1,0.1,0.2c0,0.1,0,0.1-0.1,0.2
					c-0.1,0-0.2,0.1-0.3,0.1c-0.6,0.1-1.4,0.5-1.7,1.4c-1.5,0-2.6,1.2-2.6,2.5v0.1c-0.5,0.2-0.8,0.7-0.8,1.2c0,0.7,0.6,1.3,1.3,1.3
					c0.4,0,0.8-0.2,1.1-0.5c0.2,0.1,0.4,0.1,0.7,0.1c1.1,0,2.3-0.7,2.5-2.1c1.4-0.1,1.7-1.3,1.8-1.8c0-0.3,0.1-0.5,0.3-0.5
					c0.2,0,0.2,0.2,0.3,0.5c0.1,0.5,0.3,0.9,0.7,1.2C22.6,225.7,23.6,226.8,24.9,226.8"/>
			</g>
			<g id="g15922" transform="translate(440.1505,699.0592)">
				<path id="path15924" class="st0" d="M24.9,226.8c-0.5-0.7-0.8-1-1.8-2.2c-1.4-1.6-2.1-3-3.3-5.9c0.2,0,0.5,0,0.8,0
					c0.2,0,0.3,0,0.5,0l0.1,0.3c0.7,1.5,1.6,3.4,2.9,4.9l0.4,0.5c1.3,1.5,2.1,2.5,2.6,4.6c0.2,0.7,0.3,1.4,0.8,1.9
					c0.5,0.4,1,0.6,1.6,0.6c0.5,0,0.9-0.1,1.4-0.3c0.5-0.2,0.7-0.2,1.2-0.2c0.2,0,0.3,0,0.4,0l-0.7-0.9l0.9-0.7
					c-1.2-0.3-1.8-1.5-2-2c0-0.1-0.1-0.2-0.1-0.2c0-0.1,0-0.2,0.2-0.2c0.1,0,0.2,0.1,0.4,0.3c0.6,0.7,1,1.2,3.1,1.8l-1.5,1.1
					l1.1,1.6h-1c-0.7,0-1.1,0-1.7,0.3c-0.8,0.4-1.2,0.5-1.9,0.5c-0.9,0-1.6-0.3-2.3-0.9c-0.7-0.7-1-1.6-1.2-2.6
					C25.7,228.4,25.5,227.6,24.9,226.8"/>
			</g>
			<g id="g15926" transform="translate(442.4087,692.3728)">
				<path id="path15928" class="st0" d="M24.9,226.8c-0.6-0.8-1.3-1.7-1.9-2.8c0.2-0.1,0.8-0.4,1-0.5c0.7,1,1.6,2.3,2.2,3.2
					c0.6,0.9,0.8,1.2,0.8,2.4c0,0.2,0,0.4,0,0.6c0,0.6,0.2,1.2,0.8,1.8c0.4,0.4,1,0.6,1.6,0.6c0.6,0,0.9-0.2,1.4-0.2
					c0.4,0,0.6,0.1,0.9,0.2l0.2,0.1l-0.5-1.1l1.1-0.4c-0.7-0.4-2.2-2.2-2.2-4.4c0-0.8,0.1-1.5,0.3-2.1c0-0.1,0.1-0.1,0.2-0.1
					c0.1,0,0.2,0.1,0.2,0.2l0,0.2c0,0.7,0.1,1.7,0.3,2.6c0.4,1.6,1.6,3,2.8,3.8l-1.7,0.7l0.7,1.8l-0.8-0.2c-0.5-0.1-0.8-0.2-1.3-0.2
					c-0.3,0-0.6,0-1,0.1c-0.3,0.1-0.6,0.1-1,0.1c-0.8,0-1.6-0.3-2.2-0.8c-1-1-1.1-2.1-1.2-3C25.9,228,25.6,227.7,24.9,226.8"/>
			</g>
			<g id="g15930" transform="translate(467.6031,691.774)">
				<path id="path15932" class="st0" d="M24.9,226.8c-0.1,0.1-0.1,0.1-0.2,0.1c-0.1,0-0.2-0.1-0.2-0.2c0-0.1,0.1-0.3,0.3-0.7
					c0.7-1.3,1.7-2.5,2.8-3.7c1.2-1.3,2.7-2.5,4.2-3.6l0.5-0.3c0.1,0,0.1-0.1,0.2-0.1c0.1,0,0.2,0.1,0.2,0.2c0,0,0,0.1-0.1,0.1
					c-1.4,1.3-3,2.9-4.4,4.4C27.1,224.2,26,225.5,24.9,226.8"/>
			</g>
			<g id="g15934" transform="translate(436.0071,696.2215)">
				<path id="path15936" class="st0" d="M24.9,226.8c0.1,0.2,0.6,0.8,0.8,1c-0.8,1.5-2,3-2.5,3.6l-0.5-0.4
					C23.2,230.2,24.1,228.7,24.9,226.8"/>
			</g>
			<g id="g15938" transform="translate(428.8102,705.0874)">
				<path id="path15940" class="st0" d="M24.9,226.8c-0.1,0.1-0.1,0.1-0.1,0.2c0,0.1,0,0.1,0.2,0.1c0,0,0.1,0,0.1,0
					c0.7-0.3,1.3-0.6,1.9-1.1c0.5-0.4,0.9-0.8,1.4-1.3l-0.4-0.5C27.4,224.7,25.8,226.1,24.9,226.8"/>
			</g>
			<g id="g15942" transform="translate(435.7715,701.7983)">
				<path id="path15944" class="st0" d="M24.9,226.8l-0.5,0.3c0.3,0.8,0.8,1.6,1.3,2.1c0.4,0.4,0.7,0.7,1.1,1.1
					c0.1,0.1,0.1,0.1,0.2,0.1c0.1,0,0.2-0.1,0.2-0.2c0,0,0-0.1-0.1-0.1C26.5,229.2,25.3,227.3,24.9,226.8"/>
			</g>
			<g id="g15946" transform="translate(429.1147,697.2427)">
				<path id="path15948" class="st0" d="M24.9,226.8c-0.1,0-0.2-0.1-0.3-0.1c-0.1,0-0.2,0.1-0.2,0.2c0,0.1,0,0.1,0.1,0.2
					c1.2,0.9,2.3,1.3,3.7,1.6l0.2-0.6L24.9,226.8z"/>
			</g>
			<g id="g15950" transform="translate(454.2989,704.8614)">
				<path id="path15952" class="st0" d="M24.9,226.8c0,0.3,0.2,1,0.8,1c0.2,0,0.4,0,0.6-0.1c0.2-0.1,0.4-0.3,0.4-0.4
					c0-0.2-0.2-0.4-0.4-0.6c-0.3-0.2-0.6-0.4-0.9-0.4C25,226.2,24.9,226.5,24.9,226.8"/>
			</g>
			<g id="g15954" transform="translate(444.3332,701.9946)">
				<path id="path15956" class="st0" d="M24.9,226.8c0,0.4,0.3,0.9,0.7,0.9c0.2,0,0.5-0.1,0.7-0.3c0.1-0.1,0.2-0.2,0.2-0.3
					c0-0.2-0.2-0.5-0.5-0.6c-0.2-0.1-0.4-0.2-0.6-0.2C25.1,226.3,24.9,226.5,24.9,226.8"/>
			</g>
			<g id="g15958" transform="translate(446.6406,695.9366)">
				<path id="path15960" class="st0" d="M24.9,226.8c0,0.1,0,0.2,0,0.3c0.1,0.3,0.2,0.5,0.7,0.5c0.2,0,0.4,0,0.6-0.2
					c0.1-0.1,0.2-0.2,0.2-0.4c0-0.4-0.7-0.9-1.1-0.9C25.1,226.2,24.9,226.4,24.9,226.8"/>
			</g>
			<g id="g15962" transform="translate(442.7721,683.546)">
				<path id="path15964" class="st0" d="M24.9,226.8c-1.3,0-1.9,0.6-1.9,1.4c0,1.4,2.4,2.8,4.6,3.6l0.6-0.7
					c-1.4-0.5-4.1-1.7-4.1-2.7c0-0.4,0.2-0.6,1-0.6c1.4,0,3,0.7,4.4,1.4c0.1,0,0.2,0.1,0.4,0.1c0.2,0,0.3-0.1,0.4-0.3l0.2-0.3
					C29,227.8,26.9,226.8,24.9,226.8"/>
			</g>
			<g id="g15966" transform="translate(446.4247,683.1725)">
				<path id="path15968" class="st0" d="M24.9,226.8c-1.3-0.7-2.6-1.2-3.8-1.2c-1.3,0-2.5,0.6-3.5,2.1c-0.4,0.6-0.7,1.4-1.1,2.1
					c-0.5,0.8-1,1.3-1.9,1.3c-0.8,0-1.6-0.3-2.5-0.7l0-0.2c0.1-0.3,0.2-0.5,0.5-0.5c0.1,0,0.3,0.1,0.3,0.1c0.5,0.1,0.8,0.3,1.3,0.3
					c0.7,0,1.1-0.4,1.6-1.5l0.2-0.4c-0.5-0.2-1.7-0.3-2.6-0.3h-0.4l0.1-0.4c0-0.2,0.1-0.3,0.2-0.4c0.2-0.1,0.4-0.1,0.9-0.1
					c1.1,0,1.9,0.1,2.4,0.3c1.2-1.8,2.9-2.5,4.5-2.5c1.4,0,2.7,0.5,4.1,1.2L24.9,226.8z"/>
			</g>
			<g id="g15970" transform="translate(447.7597,682.7307)">
				<path id="path15972" class="st0" d="M24.9,226.8l-0.2,0.9c2,1.1,3.9,2,6.8,2.2c0.1-1.1,0-2.6,0.8-2.6c0.8,0,2.4,2,4.4,4.4
					c0.2-0.2,0.5-0.3,0.7-0.5l-0.5-0.6c-1.9-2.4-3.5-4.5-4.8-4.5c-1.2,0-1.7,1.4-1.7,2.5C28.5,228.5,26.8,227.9,24.9,226.8"/>
			</g>
			<g id="g15974" transform="translate(473.7398,702.4365)">
				<path id="path15976" class="st0" d="M24.9,226.8c-0.8,0-1,0.4-1,1c0,1.2,0.8,3,1.3,4H24c-0.6-1.2-3.1-5-4.4-6.6l0.8-0.8
					c0.7,0.8,1.5,2.1,2.3,3.4h0.2c0-0.1,0-0.1,0-0.2c0-1.1,0.6-1.9,2-1.9c0.9,0,2.2,0.4,3.5,0.9c1.1,0.4,2,0.7,2.5,0.9v1.2
					c-0.6-0.2-1.7-0.6-2.8-1C26.8,227.2,25.6,226.8,24.9,226.8"/>
			</g>
			<g id="g15978" transform="translate(476.3611,698.8726)">
				<path id="path15980" class="st0" d="M24.9,226.8c1.2,0.5,3.3,1.3,4.5,1.8v1.2c-2.4-0.9-6.7-2.7-9.7-4.3c0.1-0.1,0.6-0.8,0.6-0.9
					c1.2,0.5,2.3,0.8,3.3,0.8c1.4,0,2.6,0,4.5,0.5v0.9c-1.1-0.2-2.2-0.4-3-0.4c-0.4,0-0.6,0.1-0.6,0.2
					C24.7,226.7,24.8,226.7,24.9,226.8"/>
			</g>
		</g>
	</g>
</g>
<g id="g15982" transform="matrix(2.1025538,0,0,-2.1025538,3.2464737,509.99979)">
	<path id="path15984" class="st0" d="M24.9,226.8l-0.5-0.9h5l-0.4,0.9H24.9z"/>
</g>
<g id="g15986" transform="matrix(2.1025538,0,0,-2.1025538,-945.43842,1967.8152)">
	<g>
		<g id="g15988">
			<g id="g15994" transform="translate(433.1302,687.9642)">
				<path id="path15996" class="st0" d="M27.8,227.3c0.5,0,1,0.2,1.4,0.3c0.4,0.2,0.8,0.3,1.3,0.3c1.3,0,2.8-0.6,4.2-1.2
					c0.1,0,0.2,0,0.3,0c0.2,0,0.4,0.1,0.5,0.3l0.2,0.3c-1.5,0.9-3.9,1.8-5.1,1.8c-0.6,0-1-0.1-1.4-0.3c-0.4-0.2-0.8-0.4-1.2-0.4
					c-1,0-3.5,1-3.5,1.9c0,1.1,4,1.6,4.5,1.6l0.4,0.9c-2.9,0-6.4-1-6.4-2.4c0-0.4,0.2-0.6,0.2-1c0-0.5-0.2-0.8-0.2-1.4
					c0-0.4,0.2-0.8,0.5-1.2c0.3-0.4,0.6-0.7,0.6-1.1c0-0.3-0.2-0.6-0.2-1.2c0-1.3,0.8-2.1,2.2-3.7l0.3-0.3c-1.2-0.5-3.5-1.5-4-1.7
					c-1.8-0.8-2.3-1.7-2.3-3.2c0-0.6,0-1.2,0-1.8h0.4c0.7,0,0.8,0.4,0.8,0.9c0,0.3,0,0.6,0,1c0,0.8,0,1.5,1.4,2.1
					c0.5,0.2,3.1,1.3,5.1,2.1c0.6,0.2,1.1,0.5,1.7,0.5c0.7,0,1.4-0.3,2.4-0.8c0.8-0.5,1.6-1.1,2.3-1.8l0.8,0.6
					c-0.7,0.8-1.7,1.6-2.7,2.2c-1,0.6-1.9,0.9-2.6,0.9c-0.3,0-0.6-0.1-0.8-0.1c-0.3-0.1-0.5-0.1-0.8-0.1c-0.4,0-0.7,0.1-1.1,0.6
					c-0.2,0.2-1.2,1.4-1.5,1.7c-0.1,0.2-0.3,0.5-0.3,0.9c0,0.2,0,0.4,0.1,0.5c0.9-0.7,2-1.1,3.4-1.3l-0.2,0.9
					c-2,0.5-4.1,2.3-4.1,3.4c0,0.2,0.1,0.4,0.1,0.6C25,228,26.8,227.3,27.8,227.3"/>
			</g>
			<g id="g15998" transform="translate(447.2593,687.7871)">
				<path id="path16000" class="st0" d="M27.8,227.3c1.2,0.9,2.5,1,3.5,1c0.6,0,1.3-0.1,2.1-0.2c0.6-0.1,1.2-0.1,1.8-0.1
					c1.3,0,2.7,0.5,3.3,0.7c0.2-0.2,0.5-0.5,0.7-0.7c-0.3-0.2-2.1-1.2-3.9-1.2c-0.8,0-1.6,0.1-2.3,0.2c-0.6,0.1-1.2,0.1-1.8,0.1
					c-0.7,0-2-0.2-2.9-0.6L27.8,227.3z"/>
			</g>
			<g id="g16002" transform="translate(465.4921,684.282)">
				<path id="path16004" class="st0" d="M27.8,227.3c-1.5-3.1-3.7-5.4-6-6.7c-1.1-0.6-2.1-1-4.2-1H13c-1.6,0-2.7-0.2-3.5-0.4
					c-0.9-0.2-1.4-0.5-2.3-0.5c-1.3,0-2.5,0.6-3.1,1.2l1.1,0.9l-0.5,0.7c-0.3-0.2-4.2-3.1-5-3.7l0,0c0,0.2,0,0.4,0,0.6
					c0,2.2-1,2.7-2.5,3.3l-1-0.6c2.1-0.7,2.6-1.3,2.6-2.8c0-1.2-0.4-1.7-1.1-2.1c-0.7-0.4-1.5-0.6-2.2-0.6c-0.3,0-0.4-0.1-0.5-0.2
					c-0.1-0.1-0.2-0.3-0.2-0.5v-0.3H-5c1.3,0,2.5,0.2,3.9,1.3l4.3,3.4c0.6-0.7,2.2-1.7,4-1.7c1,0,1.7,0.3,2.7,0.5
					c0.7,0.2,1.5,0.4,3.1,0.4h4.6c2.4,0,3.5,0.5,4.8,1.2c2.7,1.5,5.1,4.1,6.4,7.1C28.4,226.9,28.1,227.1,27.8,227.3"/>
			</g>
			<g id="g16006" transform="translate(458.0988,680.5901)">
				<path id="path16008" class="st0" d="M27.8,227.3c1.2,1.9,2.2,3.6,4.8,5c-0.3,0.2-0.7,0.4-0.9,0.6c-1-0.4-2-1.3-2.9-2.2
					c-2-2-1.8-3.2-3.9-4c-0.5-0.2-1.2-0.4-2-0.6c-0.5,1.5-1.7,3-3,3c-0.9,0-1.9-0.5-3.1-1c-1.4-0.6-2.7-1.3-3.1-1.6l0.5-0.7
					c0.4,0.2,1.6,0.8,2.8,1.3c1,0.4,2,0.8,2.6,0.8c1,0,1.7-1.1,2-2.1c-1.3-0.3-3.5-0.4-4.2-0.4c-0.3,0-0.4,0-0.5-0.1
					c-0.1-0.1-0.2-0.2-0.2-0.5l-0.1-0.3h0.7c3.7,0,7.1,0.6,9.4,1.9c0.3-0.1,0.6-0.1,0.9-0.1c1.3,0,2.6,0.7,3.4,1.3
					c0.3,0.2,0.4,0.4,0.4,0.7c0,0.1,0,0.2,0,0.3l0,0.4c-1.2-0.9-2.2-1.6-3.4-1.6C28.1,227.2,27.9,227.2,27.8,227.3"/>
			</g>
			<g id="g16010" transform="translate(430.0615,650.2685)">
			</g>
			<g id="g16014" transform="translate(439.0743,650.1949)">
			</g>
			<g id="g16018" transform="translate(447.4737,650.1949)">
			</g>
			<g id="g16022" transform="translate(458.0938,650.3558)">
			</g>
		</g>
	</g>
</g>
</svg>
