<svg width="158" height="48" viewBox="0 0 158 48" fill="none" xmlns="http://www.w3.org/2000/svg">
<path d="M79 48C92.2548 48 103 37.2548 103 24C103 10.7452 92.2548 0 79 0C65.7452 0 55 10.7452 55 24C55 37.2548 65.7452 48 79 48Z" fill="white"/>
<path d="M61.3733 23.9933C61.3733 13 68.3133 3.62667 78.0533 0.0200043C65.24 0.520004 55 11.06 55 24C55 36.9534 65.26 47.5067 78.0933 47.98C68.34 44.38 61.3733 35 61.3733 23.9933Z" fill="white" fill-opacity="0.7"/>
<mask id="mask0_3_133" style="mask-type:luminance" maskUnits="userSpaceOnUse" x="55" y="0" width="24" height="48">
<path d="M61.3733 23.9933C61.3733 13 68.3133 3.62667 78.0533 0.0200043C65.24 0.520004 55 11.06 55 24C55 36.9534 65.26 47.5067 78.0933 47.98C68.34 44.38 61.3733 35 61.3733 23.9933Z" fill="url(#paint0_radial_3_133)"/>
</mask>
<g mask="url(#mask0_3_133)">
<path d="M61.3733 23.9933C61.3733 13 68.3133 3.62667 78.0533 0.0200043C65.24 0.520004 55 11.06 55 24C55 36.9534 65.26 47.5067 78.0933 47.98C68.34 44.38 61.3733 35 61.3733 23.9933Z" fill="white"/>
</g>
<path d="M78.5934 21.7133C80.1867 17.7867 77.2067 16.72 75.2667 16.72H68.84C69.3734 17.0867 69.2867 17.5733 69.18 17.8733L65.4333 29.84C65.2867 30.3133 64.7267 30.8133 64.4267 30.8867H69.6267C69.34 30.8333 68.9334 30.4267 69.08 29.8733L70.44 25.5467C70.4467 25.5467 76.7 26.3933 78.5934 21.7133ZM73.54 17.82C74.22 17.82 76.1067 17.9133 74.8867 21.48C73.6134 25.2267 70.7867 24.4533 70.7867 24.4533L72.8667 17.82H73.54Z" fill="#1A2260"/>
<path d="M82.7533 30.8933H86.2533C85.1333 30.5333 83.48 29.4733 82.82 28.72C83.3533 28.14 84.0133 27.4067 84.1333 25.92H82.32C82.32 25.92 82.6667 26.12 82.6667 26.5467C82.6667 26.94 82.5067 27.4867 82.2 27.8667C81.6667 27.08 81.1 26.18 80.9 24.86C81.6133 24.5067 82.6133 24.12 83.4067 23.4267C84.16 22.7667 84.3333 22.14 84.3467 21.7333V21.68C84.3467 21.2533 84.18 20.8533 83.8733 20.5533C83.3467 20.0333 82.52 19.82 81.6467 19.98C80.9467 20.1133 80.3533 20.4867 80.0533 20.76C79 21.7533 78.8667 23.3867 78.8667 24.1267C78.8667 24.3067 78.8733 24.44 78.88 24.52C78.82 24.5467 78.7133 24.5867 78.7133 24.5867C77.94 24.8733 75.88 25.42 75.1467 27.1133C75.0533 27.3267 74.92 27.7933 74.92 28.3333C74.92 28.8 75.02 29.32 75.32 29.7933C75.84 30.6067 76.72 31.12 78.1333 31.0933C79.6667 31.0667 81.18 30.02 81.4467 29.8267C81.7067 30.0733 82.3933 30.72 82.7533 30.8933ZM82.7533 21.4267C82.5733 22.5667 81.0933 23.72 80.7333 23.8733C80.6667 23.2333 80.7 22.22 81.2333 21.3933C81.5867 20.8467 82.06 20.6067 82.44 20.74C82.7467 20.8467 82.78 21.1267 82.7533 21.4267ZM80.7 29.0533C80.4933 29.18 79.68 29.5933 78.92 29.6667C78.2133 29.7333 77.04 29.46 77.0467 28.0467C77.0467 26.84 78.36 25.9533 79.0733 25.6467C79.36 26.8133 80.0067 28.1333 80.7 29.0533Z" fill="#1A2260"/>
<path d="M93.3867 17.8333C95.4667 17.3333 97.18 18.96 97.3333 19.0733L97.9267 17.1867C97.1067 16.94 91.14 14.92 86.92 19.7333C84.3267 22.6933 83.6933 28.76 86.98 30.3867C90.5 32.1267 94.3867 30.12 94.6733 29.98L96.28 24.86C96.4533 24.24 96.8467 23.84 97.54 23.58H91.9533C92.7667 23.92 92.7067 24.5333 92.6467 24.7867L91.04 29.9067C90.8267 29.9467 86.3333 31.0667 88.8467 23.2067C89.4 21.52 90.9133 18.4267 93.3867 17.8333Z" fill="#1A2260"/>
<defs>
<radialGradient id="paint0_radial_3_133" cx="0" cy="0" r="1" gradientUnits="userSpaceOnUse" gradientTransform="translate(75.1326 23.2686) rotate(-88.2324) scale(25.8489 26.3042)">
<stop offset="0.1" stop-color="white"/>
<stop offset="0.35" stop-color="#FDFDFD"/>
<stop offset="0.45" stop-color="#F6F6F6"/>
<stop offset="0.51" stop-color="#EAEAEA"/>
<stop offset="0.57" stop-color="#D9D9D9"/>
<stop offset="0.62" stop-color="#C3C3C3"/>
<stop offset="0.66" stop-color="#A7A7A7"/>
<stop offset="0.7" stop-color="#868686"/>
<stop offset="0.73" stop-color="#606060"/>
<stop offset="0.77" stop-color="#353535"/>
<stop offset="0.8"/>
</radialGradient>
</defs>
</svg>
