<svg width="48" height="48" viewBox="0 0 48 48" fill="none" xmlns="http://www.w3.org/2000/svg">
<g clip-path="url(#clip0_3_133)">
<path d="M24 48C37.2548 48 48 37.2548 48 24C48 10.7452 37.2548 0 24 0C10.7452 0 0 10.7452 0 24C0 37.2548 10.7452 48 24 48Z" fill="white"/>
<path d="M6.37333 23.9933C6.37333 13 13.3133 3.62667 23.0533 0.0200043C10.24 0.520004 0 11.06 0 24C0 36.9534 10.26 47.5067 23.0933 47.98C13.34 44.38 6.37333 35 6.37333 23.9933Z" fill="white" fill-opacity="0.7"/>
<mask id="mask0_3_133" style="mask-type:luminance" maskUnits="userSpaceOnUse" x="0" y="0" width="24" height="48">
<path d="M6.37333 23.9933C6.37333 13 13.3133 3.62667 23.0533 0.0200043C10.24 0.520004 0 11.06 0 24C0 36.9534 10.26 47.5067 23.0933 47.98C13.34 44.38 6.37333 35 6.37333 23.9933Z" fill="url(#paint0_radial_3_133)"/>
</mask>
<g mask="url(#mask0_3_133)">
<path d="M6.37333 23.9933C6.37333 13 13.3133 3.62667 23.0533 0.0200043C10.24 0.520004 0 11.06 0 24C0 36.9534 10.26 47.5067 23.0933 47.98C13.34 44.38 6.37333 35 6.37333 23.9933Z" fill="white"/>
</g>
<path d="M23.5934 21.7133C25.1867 17.7867 22.2067 16.72 20.2667 16.72H13.84C14.3734 17.0867 14.2867 17.5733 14.18 17.8733L10.4333 29.84C10.2867 30.3133 9.72668 30.8133 9.42668 30.8867H14.6267C14.34 30.8333 13.9334 30.4267 14.08 29.8733L15.44 25.5467C15.4467 25.5467 21.7 26.3933 23.5934 21.7133ZM18.54 17.82C19.22 17.82 21.1067 17.9133 19.8867 21.48C18.6134 25.2267 15.7867 24.4533 15.7867 24.4533L17.8667 17.82H18.54Z" fill="#1A2260"/>
<path d="M27.7533 30.8933H31.2533C30.1333 30.5333 28.48 29.4733 27.82 28.72C28.3533 28.14 29.0133 27.4067 29.1333 25.92H27.32C27.32 25.92 27.6667 26.12 27.6667 26.5467C27.6667 26.94 27.5067 27.4867 27.2 27.8667C26.6667 27.08 26.1 26.18 25.9 24.86C26.6133 24.5067 27.6133 24.12 28.4067 23.4267C29.16 22.7667 29.3333 22.14 29.3467 21.7333V21.68C29.3467 21.2533 29.18 20.8533 28.8733 20.5533C28.3467 20.0333 27.52 19.82 26.6467 19.98C25.9467 20.1133 25.3533 20.4867 25.0533 20.76C24 21.7533 23.8667 23.3867 23.8667 24.1267C23.8667 24.3067 23.8733 24.44 23.88 24.52C23.82 24.5467 23.7133 24.5867 23.7133 24.5867C22.94 24.8733 20.88 25.42 20.1467 27.1133C20.0533 27.3267 19.92 27.7933 19.92 28.3333C19.92 28.8 20.02 29.32 20.32 29.7933C20.84 30.6067 21.72 31.12 23.1333 31.0933C24.6667 31.0667 26.18 30.02 26.4467 29.8267C26.7067 30.0733 27.3933 30.72 27.7533 30.8933ZM27.7533 21.4267C27.5733 22.5667 26.0933 23.72 25.7333 23.8733C25.6667 23.2333 25.7 22.22 26.2333 21.3933C26.5867 20.8467 27.06 20.6067 27.44 20.74C27.7467 20.8467 27.78 21.1267 27.7533 21.4267ZM25.7 29.0533C25.4933 29.18 24.68 29.5933 23.92 29.6667C23.2133 29.7333 22.04 29.46 22.0467 28.0467C22.0467 26.84 23.36 25.9533 24.0733 25.6467C24.36 26.8133 25.0067 28.1333 25.7 29.0533Z" fill="#1A2260"/>
<path d="M38.3867 17.8333C40.4667 17.3333 42.18 18.96 42.3333 19.0733L42.9267 17.1867C42.1067 16.94 36.14 14.92 31.92 19.7333C29.3267 22.6933 28.6933 28.76 31.98 30.3867C35.5 32.1267 39.3867 30.12 39.6733 29.98L41.28 24.86C41.4533 24.24 41.8467 23.84 42.54 23.58H36.9533C37.7667 23.92 37.7067 24.5333 37.6467 24.7867L36.04 29.9067C35.8267 29.9467 31.3333 31.0667 33.8467 23.2067C34.4 21.52 35.9133 18.4267 38.3867 17.8333Z" fill="#1A2260"/>
</g>
<defs>
<radialGradient id="paint0_radial_3_133" cx="0" cy="0" r="1" gradientUnits="userSpaceOnUse" gradientTransform="translate(20.1326 23.2686) rotate(-88.2324) scale(25.8489 26.3042)">
<stop offset="0.1" stop-color="white"/>
<stop offset="0.35" stop-color="#FDFDFD"/>
<stop offset="0.45" stop-color="#F6F6F6"/>
<stop offset="0.51" stop-color="#EAEAEA"/>
<stop offset="0.57" stop-color="#D9D9D9"/>
<stop offset="0.62" stop-color="#C3C3C3"/>
<stop offset="0.66" stop-color="#A7A7A7"/>
<stop offset="0.7" stop-color="#868686"/>
<stop offset="0.73" stop-color="#606060"/>
<stop offset="0.77" stop-color="#353535"/>
<stop offset="0.8"/>
</radialGradient>
<clipPath id="clip0_3_133">
<rect width="48" height="48" fill="white"/>
</clipPath>
</defs>
</svg>
