<?xml version="1.0" encoding="utf-8"?>
<!-- Generator: Adobe Illustrator 27.1.1, SVG Export Plug-In . SVG Version: 6.00 Build 0)  -->
<svg version="1.1" id="Layer_1" xmlns="http://www.w3.org/2000/svg" xmlns:xlink="http://www.w3.org/1999/xlink" x="0px" y="0px"
	 viewBox="0 0 158 48" style="enable-background:new 0 0 158 48;" xml:space="preserve">
<style type="text/css">
	.st0{fill:#FFFFFF;}
</style>
<path class="st0" d="M80.8,17.6c1.4-0.5,3.7-0.9,7.4-0.5c0,0,0.8,0.1,1.4,0.3c0,0,0.6,0.2,0.4,1c0,0-0.3,1-0.5,1.5
	c-0.2,0.4-0.4,0.7-0.7,0.6c-0.6-0.2-1.3-0.2-2-0.2c-0.7,0-1.4,0.1-2,0.3c-0.8,0.2-1.5,0.9-1.8,1.7l-4.8,15.7
	c-0.2,0.5-0.6,0.9-1.1,0.9h-4.6c-0.3,0-0.6-0.3-0.6-0.6c0-0.1,0-0.1,0-0.2l4.7-15.5C77.3,19.8,78.8,18.3,80.8,17.6L80.8,17.6
	L80.8,17.6z M65.5,28.1C65.5,28.1,65.5,28,65.5,28.1c0-0.2-0.1-0.3-0.2-0.4l0,0c0,0-5.3-0.4-7,1c-1.8,1.5-2.1,4.7-2,5
	c0,0-0.3,2.2,3.6,1.7c0,0,0.4,0,1-0.2l0,0c1.6-0.4,2.8-1.1,3.3-2.8L65.5,28.1L65.5,28.1z M57.1,24.9c4.1-0.8,9.2-0.3,9.2-0.3
	c0.1,0,0.2-0.1,0.3-0.2l0.4-1.4c0.7-2.4-1.9-2.6-1.9-2.6c-0.5-0.1-1-0.1-1.4-0.1l0,0c-3.6-0.1-6.4,0.3-7.4,0.4c0,0-0.8,0.1-0.9,0.2
	l-0.2,0c-0.4,0.1-0.5-0.2-0.4-0.5l0,0c0,0,0.2-1,0.9-1.9c0.3-0.4,0.6-0.8,1.7-1.1c1.2-0.2,5.8-0.9,11.2-0.3c0,0,6.3,0.5,4.5,6.3
	l-4.5,14.6c-0.2,0.5-0.6,0.9-1.1,0.9h-4.2c-0.4,0-0.7-0.3-0.7-0.7c0,0,0-0.1,0-0.1l0.1-0.5c0,0,0,0,0,0c0-0.1-0.1-0.1-0.1-0.1
	c0,0,0,0-0.1,0c-2.7,1.3-5.6,1.6-5.6,1.6c-6.7,0.7-7.3-2.2-7.4-3.4c-0.1-2.3,1-6.8,3.6-9C54.2,25.6,55.6,25.2,57.1,24.9 M129.6,28.1
	C129.7,28.1,129.7,28,129.6,28.1c0-0.2-0.1-0.3-0.2-0.4l0,0c0,0-5.3-0.4-7,1c-1.8,1.5-2.1,4.7-2,5c0,0-0.3,2.2,3.6,1.7
	c0,0,0.4,0,1-0.2l0,0c1.6-0.4,2.8-1.1,3.3-2.8L129.6,28.1L129.6,28.1z M121.3,24.9c4.1-0.8,9.2-0.3,9.2-0.3c0.1,0,0.2-0.1,0.3-0.2
	l0.4-1.4c0.7-2.4-1.9-2.6-1.9-2.6c-0.5-0.1-1-0.1-1.4-0.1l0,0c-3.6-0.1-6.4,0.3-7.4,0.4c0,0-0.8,0.1-0.9,0.2l-0.2,0
	c-0.4,0.1-0.5-0.2-0.4-0.5l0,0c0,0,0.2-1,0.9-1.9c0.3-0.4,0.6-0.8,1.7-1.1c1.2-0.2,5.8-0.9,11.2-0.3c0,0,6.3,0.5,4.5,6.3L133,37.9
	c-0.2,0.5-0.6,0.9-1.1,0.9h-4.2c-0.4,0-0.7-0.3-0.7-0.7c0,0,0-0.1,0-0.1l0.1-0.5c0,0,0,0,0,0c0-0.1-0.1-0.1-0.1-0.1c0,0,0,0-0.1,0
	c-2.7,1.3-5.6,1.6-5.6,1.6c-6.7,0.7-7.3-2.2-7.4-3.4c-0.1-2.3,1-6.8,3.6-9C118.4,25.6,119.7,25.2,121.3,24.9 M43.7,19.7
	c-0.7,1.3-2,2.1-3.5,2.1h-7.3c-0.2,0-0.3-0.1-0.3-0.3c0,0,0-0.1,0-0.1l0.1-0.2l1.6-5.1c0.4-1.4,1.6-2.4,3.1-2.4h6.4
	c0.6,0,1.2,0.5,1.3,1.1C44.9,14.8,45.4,16.6,43.7,19.7z M40.2,32.5C39.4,34,37.9,35,36.1,35h-7.3c-0.2,0-0.3-0.1-0.3-0.3
	c0,0,0-0.1,0-0.1l2.7-8.7c0-0.1,0.2-0.2,0.3-0.2l8.7,0c0.7,0,1.3,0.5,1.5,1.2C41.7,26.9,42.2,28.9,40.2,32.5z M47.5,10H37.3
	c-2.7,0-4.5,0.4-5.7,0.8l-0.1,0c-2.2,0.8-4,2.6-5,5.8l-6.3,20.9c0,0.1,0,0.2,0,0.3c0,0.5,0.4,1,1,1h13.3v0h5
	c9.4-0.4,9.6-10.9,9.6-10.9c0-1.9-1.2-3.5-2.8-4.1l0,0c-0.1,0-0.1-0.1-0.1-0.1c0-0.1,0-0.1,0.1-0.1c1.2-0.4,2.3-0.9,3.1-1.8l0,0
	c2.5-2.8,2.6-7.2,2.6-7.2C52,12,50,10,47.5,10 M91.5,37.9c-0.2,0.5-0.6,0.9-1.1,0.9h-4.6c-0.3,0-0.6-0.3-0.6-0.6c0-0.1,0-0.1,0-0.2
	l6.1-20c0.2-0.5,0.6-0.9,1.1-0.9H97c0.3,0,0.6,0.3,0.6,0.6c0,0.1,0,0.1,0,0.2L91.5,37.9z M95.7,15.1c0.6,0,1,0,1.5-0.1l0,0
	c0.7-0.1,1.3-0.6,1.6-1.2l0,0c0.2-0.3,0.3-0.7,0.4-1.1l0.5-1.6c0.1-0.3,0.2-0.6,0.2-0.9l0,0c0.1-0.5-0.2-0.9-0.7-1l0,0
	C98.9,9,98.6,9,98.1,9h-1.5c-0.6,0-1,0-1.5,0.1l0,0c-0.7,0.1-1.3,0.6-1.6,1.2l0,0c-0.2,0.3-0.3,0.7-0.4,1.1l-0.5,1.6
	c-0.1,0.3-0.2,0.6-0.2,0.9l0,0c-0.1,0.5,0.2,0.9,0.7,1l0,0c0.3,0.1,0.7,0.1,1.1,0.1H95.7z M107.1,9.1h-0.4c0,0,0,0,0,0l-2.5,0
	c-0.5,0-1,0.4-1.1,0.9L94.5,38c0,0.1,0,0.1,0,0.2c0,0.3,0.3,0.6,0.6,0.6h4.6c0.5,0,1-0.4,1.1-0.9l8.1-26.6
	C109.5,9.4,107.9,9.1,107.1,9.1z M116.7,9.1h-0.4c0,0,0,0,0,0l-2.5,0c-0.5,0-1,0.4-1.1,0.9L104,38c0,0.1,0,0.1,0,0.2
	c0,0.3,0.3,0.6,0.6,0.6h4.6c0.5,0,1-0.4,1.1-0.9l8.1-26.6C119,9.4,117.5,9.1,116.7,9.1z"/>
</svg>
