<svg width="158" height="48" viewBox="0 0 158 48" fill="none" xmlns="http://www.w3.org/2000/svg">
<path d="M4.41083 19.1492C4.60833 19.2132 4.87167 19.2773 5.135 19.3413C5.39833 19.4054 5.79333 19.4054 6.18833 19.4054C6.64917 19.4054 7.17583 19.3413 7.7025 19.2132C8.03167 19.4695 8.295 19.8538 8.55833 20.2381C8.75583 20.6224 8.8875 21.0708 8.8875 21.5192C8.8875 22.2878 8.62417 22.9284 8.0975 23.3768C7.57083 23.8251 6.9125 24.0173 6.1225 24.0173C5.79333 24.0173 5.53 24.0173 5.20083 23.9532C4.9375 23.8892 4.67417 23.8251 4.41083 23.697V19.1492ZM7.9 17.2276C7.76833 17.4838 7.63667 17.74 7.43917 17.9322C7.24167 18.1884 7.04417 18.3165 6.715 18.4446C6.45167 18.5727 6.1225 18.6368 5.79333 18.6368C5.53 18.6368 5.26667 18.6368 5.00333 18.5727C4.80583 18.5086 4.60833 18.4446 4.41083 18.3805V14.0889C4.60833 14.0889 4.74 14.0889 4.9375 14.0889C5.135 14.0889 5.26667 14.0889 5.46417 14.0889C6.25417 14.0889 6.9125 14.2811 7.37333 14.6654C7.83417 15.0497 8.03167 15.6262 8.03167 16.4589C8.0975 16.6511 8.03167 16.9713 7.9 17.2276ZM11.1917 19.7257C10.9283 19.4695 10.5992 19.2132 10.27 19.0851C9.94083 18.957 9.6775 18.8289 9.34833 18.7649C9.80917 18.5727 10.27 18.3165 10.5992 17.9322C10.9942 17.5478 11.1917 17.0354 11.1917 16.4589C11.1917 15.9465 11.06 15.4981 10.7967 15.0497C10.5333 14.6654 10.2042 14.3451 9.80917 14.0249C9.41417 13.7686 8.95333 13.5765 8.4925 13.4484C8.03167 13.3203 7.505 13.2562 6.97833 13.2562C5.79333 13.2562 4.67417 13.2562 3.48917 13.3203C2.37 13.3203 1.185 13.3203 0.0658333 13.3203H0V13.8327H0.0658333C0.460833 13.8327 0.79 13.8968 0.9875 13.9608C1.25083 14.0249 1.44833 14.153 1.58 14.3451C1.71167 14.5373 1.84333 14.7295 1.84333 14.9857C1.90917 15.2419 1.975 15.4981 1.975 15.8184V22.2238C1.975 22.6081 1.975 22.9284 1.90917 23.1846C1.84333 23.4408 1.7775 23.633 1.64583 23.7611C1.51417 23.8251 1.31667 23.9532 1.11917 24.0173C0.855833 24.0813 0.526667 24.1454 0.0658333 24.1454H0V24.6578H0.0658333C0.263333 24.6578 0.460833 24.6578 0.658333 24.6578C0.855833 24.6578 1.05333 24.6578 1.31667 24.6578C1.51417 24.6578 1.7775 24.6578 2.10667 24.6578C2.37 24.6578 2.69917 24.6578 3.09417 24.6578C4.27917 24.6578 5.20083 24.6578 5.925 24.7219C6.64917 24.7859 7.17583 24.7859 7.57083 24.7859C8.22917 24.7859 8.82167 24.7219 9.34833 24.6578C9.875 24.5297 10.4017 24.4016 10.7967 24.1454C11.1917 23.8892 11.5208 23.5689 11.7842 23.1846C12.0475 22.8003 12.1133 22.2878 12.1133 21.7113C12.1133 21.327 12.0475 20.9427 11.85 20.6224C11.7183 20.3022 11.455 19.9819 11.1917 19.7257Z" fill="white"/>
<path d="M21.1325 23.7611C20.6717 24.0173 20.0792 24.2095 19.355 24.2095C18.6967 24.2095 18.1042 24.0814 17.5775 23.7611C17.1167 23.5049 16.6559 23.1205 16.3267 22.6081C15.9975 22.0957 15.7342 21.5832 15.6025 20.9427C15.4709 20.3022 15.3392 19.6616 15.3392 18.957C15.3392 18.2524 15.405 17.6119 15.6025 16.9714C15.7342 16.3308 15.9975 15.7543 16.3267 15.3059C16.6559 14.7935 17.0509 14.4092 17.5775 14.153C18.1042 13.8327 18.6967 13.7046 19.355 13.7046C20.0134 13.7046 20.6058 13.8327 21.1325 14.153C21.5933 14.4092 22.0542 14.7935 22.3834 15.3059C22.7125 15.8184 22.9758 16.3308 23.1075 16.9714C23.2392 17.6119 23.3709 18.2524 23.3709 18.957C23.3709 19.6616 23.305 20.3022 23.1075 20.9427C22.9758 21.5832 22.7125 22.1597 22.3834 22.6081C22.0542 23.1205 21.6592 23.5049 21.1325 23.7611ZM24.0292 14.5373C23.4367 14.0249 22.7784 13.6405 21.9884 13.3843C21.1984 13.1281 20.3425 13 19.355 13C18.4334 13 17.5117 13.1281 16.7217 13.3843C15.9317 13.6405 15.2734 14.0249 14.6809 14.5373C14.0884 15.0497 13.6934 15.6903 13.3642 16.3949C13.035 17.1635 12.9034 17.9962 12.9034 18.893C12.9034 19.7897 13.035 20.6865 13.3642 21.3911C13.6934 22.1597 14.1542 22.7362 14.6809 23.2486C15.2734 23.7611 15.9317 24.1454 16.7217 24.4016C17.5117 24.6578 18.3675 24.7859 19.355 24.7859C20.2767 24.7859 21.1984 24.6578 21.9884 24.4016C22.7784 24.1454 23.4367 23.7611 24.0292 23.2486C24.6217 22.7362 25.0167 22.0957 25.3459 21.3911C25.675 20.6224 25.8067 19.7897 25.8067 18.893C25.8067 17.9962 25.675 17.1635 25.3459 16.3949C25.0167 15.6903 24.6217 15.0497 24.0292 14.5373Z" fill="white"/>
<path d="M34.8258 18.6368C34.2992 18.3165 33.7725 17.9962 33.18 17.74C32.5875 17.4838 31.995 17.2276 31.5342 17.0354C30.9417 16.7792 30.5467 16.523 30.2175 16.2668C29.8883 16.0105 29.7567 15.6262 29.7567 15.2419C29.7567 14.7295 29.9542 14.3451 30.2833 14.0889C30.6125 13.8327 31.0733 13.7046 31.6 13.7046C31.995 13.7046 32.4558 13.7687 32.8508 13.9608C33.2458 14.0889 33.6408 14.3451 33.97 14.6014C34.2992 14.8576 34.6283 15.1778 34.8917 15.5622C35.155 15.9465 35.3525 16.3308 35.4842 16.7151V16.7792H35.945V16.7151C35.945 16.3949 35.8792 16.0746 35.8792 15.6903C35.8792 15.37 35.8133 14.9857 35.8133 14.6654C35.8133 14.4732 35.8133 14.2811 35.8133 14.153C35.8133 13.9608 35.8133 13.8327 35.8792 13.6405V13.5765H35.155C34.9575 13.5765 34.6942 13.5765 34.4308 13.5124C34.1675 13.4484 33.9042 13.3843 33.575 13.3203C33.3117 13.2562 32.9825 13.1922 32.6533 13.1281C32.3242 13.0641 31.995 13.0641 31.6 13.0641C30.2175 13.0641 29.1642 13.3203 28.5058 13.8327C27.7817 14.3451 27.4525 15.1138 27.4525 16.2027C27.4525 16.8432 27.65 17.3557 27.9792 17.8041C28.3083 18.2524 28.7692 18.5727 29.2958 18.893C29.8225 19.2132 30.3492 19.4695 31.0075 19.7257C31.6 19.9819 32.1925 20.2381 32.6533 20.4943C33.18 20.7505 33.575 21.0068 33.9042 21.327C34.2333 21.6473 34.4308 22.0316 34.4308 22.48C34.4308 22.8003 34.365 23.0565 34.2333 23.3127C34.1017 23.5049 33.97 23.697 33.7067 23.8251C33.5092 23.8251 33.2458 23.9532 32.9167 23.9532C32.5875 24.0173 32.2583 24.0173 31.8633 24.0173C31.4025 24.0173 30.9417 23.8892 30.5467 23.7611C30.0858 23.5689 29.6908 23.3127 29.2958 22.9924C28.9008 22.6722 28.5717 22.2878 28.2425 21.9035C27.9792 21.5192 27.7158 21.0708 27.5842 20.6865V20.6224H26.9917V20.6865C27.1892 21.327 27.3208 22.0316 27.3867 22.6722C27.5183 23.3127 27.5842 23.9532 27.7158 24.5938V24.6578L27.7817 24.5938C27.8475 24.5938 27.9133 24.5297 27.9792 24.5297C28.045 24.5297 28.1767 24.4657 28.2425 24.4657C28.3083 24.4657 28.44 24.4016 28.5058 24.4016C28.5717 24.4016 28.6375 24.4016 28.7033 24.4016C28.9667 24.4016 29.2958 24.4016 29.5592 24.4657C29.8883 24.5297 30.1517 24.5938 30.415 24.6578C30.6783 24.7219 31.0075 24.7859 31.3367 24.85C31.6658 24.9141 31.9292 24.9141 32.2583 24.9141C32.9167 24.9141 33.5092 24.85 34.0358 24.6578C34.5625 24.5297 35.0233 24.2735 35.4183 24.0173C35.8133 23.7611 36.0767 23.3768 36.2742 22.9924C36.4717 22.6081 36.6033 22.0957 36.6033 21.6473C36.6033 20.9427 36.4058 20.3022 36.0767 19.8538C35.7475 19.4054 35.3525 18.957 34.8258 18.6368Z" fill="white"/>
<path d="M46.3467 24.6578H46.4125V24.2095H46.3467C45.8858 24.1454 45.5567 24.1454 45.2933 24.0814C45.03 24.0173 44.8325 23.8892 44.7667 23.7611C44.635 23.633 44.5692 23.4408 44.5033 23.1846C44.4375 22.9284 44.4375 22.6081 44.4375 22.2238V14.0889C44.9642 14.0889 45.3592 14.0889 45.7542 14.153C46.1492 14.217 46.5442 14.3451 46.8075 14.5373C47.1367 14.7295 47.4 14.9857 47.5975 15.37C47.795 15.7543 47.9925 16.2668 48.1242 16.8433V16.9073H48.6508V16.8433C48.6508 16.6511 48.585 16.3949 48.585 16.2027C48.585 16.0105 48.5192 15.7543 48.5192 15.4341C48.5192 15.1778 48.4533 14.8576 48.4533 14.4733C48.4533 14.153 48.4533 13.7046 48.4533 13.2562V13.1922L45.6883 13.2562C43.9767 13.3203 42.1333 13.3203 40.3558 13.2562L37.6567 13.1922V13.2562C37.6567 13.7046 37.6567 14.153 37.6567 14.4733C37.6567 14.8576 37.6567 15.1138 37.5908 15.4341C37.5908 15.6903 37.525 15.9465 37.525 16.2027C37.525 16.3949 37.4592 16.6511 37.4592 16.8433V16.9073H37.9858V16.8433C38.1175 16.2027 38.315 15.6903 38.5125 15.37C38.71 14.9857 38.9733 14.7295 39.3025 14.5373C39.6317 14.3451 39.9608 14.217 40.3558 14.153C40.7508 14.0889 41.2117 14.0889 41.6725 14.0889V22.2238C41.6725 22.6081 41.6725 22.9284 41.6067 23.1846C41.5408 23.4408 41.475 23.633 41.3433 23.7611C41.2117 23.8892 41.0142 24.0173 40.8167 24.0814C40.5533 24.1454 40.2242 24.2095 39.7633 24.2095H39.6975V24.6578H39.7633C40.3558 24.6578 40.8825 24.5938 41.475 24.5938C42.5283 24.5938 43.5817 24.5938 44.635 24.5938C45.3592 24.5938 45.8858 24.5938 46.3467 24.6578Z" fill="white"/>
<path d="M57.7359 23.7611C57.275 24.0173 56.6825 24.2095 55.9584 24.2095C55.3 24.2095 54.7075 24.0814 54.1809 23.7611C53.72 23.5049 53.2592 23.1205 52.93 22.6081C52.6009 22.0957 52.3375 21.5832 52.2059 20.9427C52.0742 20.3022 51.9425 19.6616 51.9425 18.957C51.9425 18.2524 52.0084 17.6119 52.2059 16.9714C52.3375 16.3308 52.6009 15.7543 52.93 15.3059C53.2592 14.7935 53.6542 14.4092 54.1809 14.153C54.7734 13.8327 55.3 13.7046 56.0242 13.7046C56.6825 13.7046 57.275 13.8327 57.8017 14.153C58.2625 14.4092 58.7234 14.7935 59.0525 15.3059C59.3817 15.8184 59.645 16.3308 59.7767 16.9714C59.9084 17.6119 60.04 18.2524 60.04 18.957C60.04 19.6616 59.9742 20.3022 59.7767 20.9427C59.645 21.5832 59.3817 22.1597 59.0525 22.6081C58.6575 23.1205 58.2625 23.5049 57.7359 23.7611ZM62.41 18.957C62.41 17.9962 62.2784 17.1635 61.9492 16.4589C61.62 15.6903 61.1592 15.1138 60.6325 14.6014C60.04 14.0889 59.3817 13.7046 58.5917 13.4484C57.8017 13.1922 56.9459 13.0641 55.9584 13.0641C55.0367 13.0641 54.115 13.1922 53.325 13.4484C52.535 13.7046 51.8767 14.0889 51.2842 14.6014C50.6917 15.1138 50.2967 15.7543 49.9675 16.4589C49.6384 17.2276 49.5067 18.0603 49.5067 18.957C49.5067 19.8538 49.6384 20.7505 49.9675 21.4551C50.2967 22.2238 50.7575 22.8003 51.2842 23.3127C51.8767 23.8251 52.535 24.2095 53.325 24.4657C54.115 24.7219 54.9709 24.85 55.9584 24.85C56.88 24.85 57.8017 24.7219 58.5917 24.4657C59.3817 24.2095 60.04 23.8251 60.6325 23.3127C61.225 22.8003 61.62 22.1597 61.9492 21.4551C62.2784 20.6865 62.41 19.8538 62.41 18.957Z" fill="white"/>
<path d="M73.5358 13.2562H73.2725C72.9433 13.2562 72.6142 13.1922 72.285 13.1922H72.2192V13.7687H72.285C72.5483 13.8327 72.8117 13.8968 73.0092 13.8968C73.2067 13.9608 73.4042 14.0249 73.6017 14.153C73.7992 14.2811 73.9308 14.4092 73.9967 14.6014C74.1283 14.7935 74.1942 14.9857 74.1942 15.306C74.26 15.6903 74.3258 16.1387 74.3258 16.7151C74.3917 17.2916 74.3917 17.8681 74.3917 18.4446C74.3917 19.0211 74.3917 19.5976 74.3917 20.1741V21.4551C73.2725 20.046 72.1533 18.6368 70.9683 17.3557C69.7833 16.0105 68.5325 14.6014 67.3475 13.1922H67.2817C66.4258 13.2562 65.57 13.3203 64.7142 13.3203C64.4508 13.3203 64.1875 13.3203 63.9242 13.2562H63.7925C63.5292 13.2562 63.2658 13.1922 63.0025 13.1922H62.9367V13.7046H63.0025C63.2 13.7687 63.4633 13.8327 63.6608 13.8968C63.8583 13.9608 64.1217 14.0249 64.3192 14.0889C64.5167 14.153 64.7142 14.2811 64.9117 14.4092C65.1092 14.5373 65.2408 14.6654 65.4383 14.7935L65.3725 21.4551C65.3725 21.9676 65.3725 22.3519 65.3067 22.6722C65.2408 22.9924 65.175 23.1846 64.9775 23.3768C64.8458 23.5689 64.5825 23.697 64.3192 23.7611C63.99 23.8251 63.595 23.9533 63.0025 24.0173H62.9367V24.5938H63.0025C63.5292 24.5938 63.99 24.5297 64.4508 24.5297C65.3067 24.5297 66.2942 24.5297 67.2158 24.5297C67.6108 24.5297 68.0717 24.5297 68.5325 24.5938H68.5983V24.0814H68.5325C68.0058 24.0173 67.6108 23.8892 67.3475 23.8251C67.0842 23.7611 66.8208 23.5689 66.6892 23.3768C66.5575 23.1846 66.4258 22.9284 66.4258 22.5441C66.36 22.2238 66.36 21.7114 66.36 21.1349V15.6262C66.6233 15.8824 66.8867 16.2027 67.2158 16.587C67.6108 17.0354 68.0058 17.4838 68.4667 17.9962C68.9275 18.5087 69.3883 19.0851 69.915 19.6616C70.3758 20.2381 70.9025 20.8146 71.3633 21.4551C71.8242 22.0316 72.285 22.6722 72.7458 23.2487C73.2067 23.8251 73.6017 24.4016 73.9308 24.9141H75.1158V16.9714C75.1158 16.3308 75.1158 15.8184 75.1817 15.4341C75.2475 15.0497 75.3133 14.7295 75.445 14.4733C75.5767 14.217 75.7742 14.0889 76.0375 13.9608C76.3008 13.8327 76.6958 13.7687 77.1567 13.7687H77.2225V13.1922H77.1567C76.0375 13.3203 74.7867 13.3203 73.5358 13.2562Z" fill="white"/>
<path d="M86.7025 19.1492C86.9 19.2132 87.1633 19.2773 87.4267 19.3413C87.69 19.4054 88.085 19.4054 88.48 19.4054C88.9408 19.4054 89.4675 19.3413 89.9942 19.2132C90.3233 19.4695 90.5867 19.8538 90.85 20.2381C91.0475 20.6224 91.1792 21.0708 91.1792 21.5192C91.1792 22.2878 90.9158 22.9284 90.3892 23.3768C89.8625 23.8251 89.2042 24.0173 88.4142 24.0173C88.085 24.0173 87.8217 24.0173 87.4925 23.9532C87.2292 23.8892 86.9658 23.8251 86.7025 23.697V19.1492ZM90.1917 17.2276C90.06 17.4838 89.9283 17.74 89.7308 17.9322C89.5333 18.1243 89.27 18.3165 89.0067 18.4446C88.7433 18.5727 88.4142 18.6368 88.0192 18.6368C87.7558 18.6368 87.4925 18.6368 87.2292 18.5727C87.0317 18.5086 86.8342 18.5086 86.6367 18.4446V14.0889C86.8342 14.0889 86.9658 14.0889 87.1633 14.0889C87.3608 14.0889 87.4925 14.0889 87.69 14.0889C88.48 14.0889 89.1383 14.2811 89.5992 14.6654C90.06 15.0497 90.2575 15.6262 90.2575 16.4589C90.3892 16.6511 90.3233 16.9713 90.1917 17.2276ZM93.4833 19.7257C93.22 19.4695 92.8908 19.2132 92.5617 19.0851C92.2325 18.957 91.9692 18.8289 91.64 18.7649C92.1008 18.5727 92.5617 18.3165 92.8908 17.9322C93.2858 17.5478 93.4833 17.0354 93.4833 16.4589C93.4833 15.9465 93.3517 15.4981 93.0883 15.0497C92.825 14.6654 92.4958 14.3451 92.1008 14.0249C91.7058 13.7686 91.245 13.5765 90.7842 13.4484C90.3233 13.3203 89.7967 13.2562 89.27 13.2562C88.085 13.2562 86.9658 13.2562 85.7808 13.3203C84.6617 13.3843 83.4767 13.3843 82.3575 13.3843H82.2917V13.8968H82.3575C82.7525 13.8968 83.0817 13.9608 83.2792 14.0249C83.5425 14.0889 83.74 14.217 83.8717 14.4092C84.0033 14.6013 84.135 14.7935 84.135 15.0497C84.2008 15.3059 84.2008 15.5622 84.2008 15.8824V22.2878C84.2008 22.6722 84.2008 22.9924 84.135 23.2486C84.0692 23.5049 84.0033 23.697 83.8717 23.8251C83.74 23.9532 83.5425 24.0813 83.345 24.1454C83.0817 24.2095 82.7525 24.2735 82.2917 24.2735H82.2258V24.7859H82.2917C82.4892 24.7859 82.6867 24.7859 82.8842 24.7859C83.0817 24.7859 83.2792 24.7859 83.5425 24.7859C83.74 24.7859 84.0033 24.7859 84.3325 24.7859C84.5958 24.7859 84.925 24.7859 85.32 24.7859C86.505 24.7859 87.4267 24.7859 88.1508 24.85C88.875 24.914 89.4017 24.914 89.7967 24.914C90.455 24.914 91.0475 24.85 91.5742 24.7859C92.1008 24.6578 92.6275 24.5297 93.0225 24.2735C93.4175 24.0173 93.7467 23.697 94.01 23.3127C94.2733 22.9284 94.3392 22.4159 94.3392 21.8395C94.3392 21.4551 94.2733 21.0708 94.0758 20.7505C94.01 20.3022 93.7467 19.9819 93.4833 19.7257Z" fill="white"/>
<path d="M105.728 24.5938C105.926 23.8892 106.189 23.3127 106.453 22.6722C106.716 22.0957 106.979 21.4551 107.308 20.8787V20.8146L106.848 20.4943L106.782 20.5584C106.123 21.6473 105.333 22.48 104.412 22.9924C103.49 23.5049 102.437 23.7611 101.252 23.7611C100.791 23.7611 100.396 23.7611 100.067 23.697C99.7375 23.633 99.4083 23.633 99.145 23.5049V18.6368H100.067C100.462 18.6368 100.791 18.7008 101.12 18.7649C101.449 18.8289 101.712 18.957 101.976 19.1492C102.239 19.3414 102.437 19.5335 102.634 19.8538C102.832 20.1741 102.963 20.4943 103.095 20.9427V21.0068H103.227V20.9427C103.227 20.4943 103.227 20.11 103.161 19.7257C103.161 19.3414 103.161 18.893 103.161 18.5087C103.161 18.1243 103.161 17.676 103.161 17.2916C103.161 16.8433 103.227 16.4589 103.227 16.0746V16.0105H102.766V16.0746C102.7 16.4589 102.502 16.8433 102.305 17.0995C102.107 17.3557 101.91 17.6119 101.647 17.74C101.383 17.9322 101.12 17.9962 100.791 18.1243C100.462 18.1884 100.198 18.2524 99.8692 18.2524H99.145V14.0249H101.054C102.239 14.0249 103.161 14.217 103.753 14.6654C104.346 15.1138 104.807 15.7543 105.07 16.587V16.6511L105.597 16.587V16.523C105.531 16.2668 105.465 15.9465 105.465 15.5622C105.465 15.2419 105.465 14.8576 105.465 14.5373V13.8968C105.465 13.7046 105.465 13.4484 105.465 13.2562V13.1922L102.042 13.3203C100.923 13.3203 99.7375 13.3843 98.5525 13.3843C97.96 13.3843 97.3017 13.3843 96.7092 13.3203H96.3142C95.8533 13.3203 95.3267 13.2562 94.8658 13.2562H94.8V14.0889H94.8658C95.2608 14.0889 95.5242 14.153 95.7875 14.217C95.985 14.2811 96.1825 14.4092 96.3142 14.5373C96.4458 14.6654 96.5117 14.8576 96.5775 15.0497C96.6433 15.2419 96.6433 15.5622 96.6433 15.8184V22.0316C96.6433 22.3519 96.6433 22.6081 96.5775 22.8643C96.5117 23.0565 96.4458 23.2487 96.3142 23.3768C96.1825 23.5049 96.0508 23.633 95.7875 23.697C95.59 23.7611 95.2608 23.8251 94.8658 23.8251H94.8V24.5938H94.8658C95.0633 24.5938 95.3925 24.5938 95.7217 24.5297C96.0508 24.5297 96.4458 24.5297 96.9067 24.5297C97.3675 24.5297 97.8283 24.5297 98.355 24.5297H100.001C100.922 24.5297 101.844 24.5297 102.766 24.5297C103.819 24.5938 104.741 24.5938 105.728 24.5938Z" fill="white"/>
<path d="M119.422 20.6224C118.763 21.7114 117.973 22.5441 117.052 23.0565C116.13 23.5689 115.077 23.8251 113.892 23.8251C113.431 23.8251 113.102 23.8251 112.707 23.7611C112.377 23.697 112.048 23.697 111.785 23.5689V18.6368H112.707C113.102 18.6368 113.431 18.7008 113.76 18.7649C114.089 18.8289 114.353 18.957 114.616 19.1492C114.879 19.3414 115.077 19.5335 115.274 19.8538C115.472 20.1741 115.603 20.4943 115.735 20.9427V21.0068H115.933V20.9427C115.933 20.4943 115.932 20.11 115.867 19.7257C115.867 19.3414 115.867 18.893 115.867 18.5087C115.867 18.1243 115.867 17.676 115.867 17.2916C115.867 16.8433 115.933 16.4589 115.933 16.0746V16.0105H115.472V16.0746C115.406 16.4589 115.208 16.8433 115.011 17.0995C114.813 17.3557 114.616 17.6119 114.352 17.74C114.089 17.9322 113.826 17.9962 113.497 18.1243C113.167 18.1884 112.904 18.2524 112.575 18.2524H111.785V14.0249H113.694C114.879 14.0249 115.801 14.217 116.393 14.6654C116.986 15.1138 117.447 15.7543 117.71 16.587V16.6511L118.237 16.587V16.523C118.171 16.2668 118.105 15.9465 118.105 15.5622C118.105 15.2419 118.105 14.8576 118.105 14.5373V13.8968C118.105 13.7046 118.105 13.4484 118.105 13.2562V13.1922L114.484 13.2562C113.365 13.2562 112.18 13.3203 110.995 13.3203C110.403 13.3203 109.744 13.3203 109.152 13.2562H108.757C108.296 13.2562 107.769 13.1922 107.308 13.1922H107.242V13.5124H107.308C107.703 13.5124 108.032 13.5765 108.296 13.6405C108.559 13.7046 108.757 13.8327 108.822 14.0249C108.954 14.153 109.02 14.4092 109.086 14.6014C109.152 14.8576 109.152 15.1138 109.152 15.4981V22.2878C109.152 22.6722 109.152 22.9284 109.086 23.1846C109.02 23.4408 108.954 23.633 108.822 23.7611C108.691 23.8892 108.493 24.0173 108.296 24.0814C108.032 24.1454 107.703 24.2095 107.308 24.2095H107.242V24.5938H107.308C107.506 24.5938 107.835 24.5938 108.164 24.5297C108.493 24.5297 108.888 24.5297 109.349 24.5297C109.81 24.5297 110.271 24.5297 110.797 24.5297H112.443C113.365 24.5297 114.287 24.5297 115.208 24.5297C116.13 24.5297 117.052 24.5297 117.973 24.5938H118.039V24.5297C118.237 23.8892 118.5 23.2487 118.763 22.6722C119.027 22.0957 119.29 21.4551 119.619 20.8787V20.8146L119.422 20.6224Z" fill="white"/>
<path d="M125.676 13.9608C126.005 13.9608 126.334 14.0249 126.663 14.153C126.927 14.2811 127.19 14.4733 127.388 14.6654C127.585 14.8576 127.783 15.1138 127.848 15.4341C127.98 15.7543 128.046 16.0746 128.046 16.3949C128.046 17.1635 127.782 17.8041 127.322 18.1884C126.861 18.5727 126.203 18.8289 125.478 18.8289C125.083 18.8289 124.688 18.7649 124.359 18.5727V14.0889C124.557 14.0249 124.82 13.9608 125.017 13.9608C125.215 13.9608 125.412 13.9608 125.676 13.9608ZM131.733 23.5049C131.206 23.1205 130.745 22.6722 130.284 22.2238C129.823 21.7114 129.428 21.1989 129.099 20.6865C128.77 20.1741 128.441 19.7897 128.243 19.4054C128.573 19.3414 128.902 19.2133 129.231 19.0851C129.56 18.957 129.823 18.7649 130.087 18.5087C130.35 18.2524 130.548 17.9962 130.679 17.676C130.811 17.3557 130.877 17.0354 130.877 16.587C130.877 16.1387 130.811 15.6903 130.613 15.2419C130.416 14.8576 130.153 14.4733 129.823 14.153C129.494 13.8327 129.033 13.5765 128.573 13.4484C128.046 13.2562 127.519 13.1922 126.861 13.1922C126.137 13.1922 125.478 13.1922 124.82 13.2562C124.162 13.3203 123.569 13.3203 122.911 13.3203C122.384 13.3203 121.923 13.3203 121.463 13.3203C121.068 13.3203 120.607 13.3203 120.212 13.2562H120.146V13.7046H120.212C120.607 13.7687 120.936 13.7687 121.133 13.8968C121.331 13.9608 121.528 14.0889 121.66 14.217C121.792 14.3451 121.858 14.5373 121.858 14.7935C121.858 15.0497 121.923 15.306 121.923 15.6903V22.2238C121.923 22.6081 121.923 22.9284 121.858 23.1846C121.858 23.4408 121.726 23.5689 121.66 23.697C121.528 23.8251 121.397 23.8892 121.133 23.9533C120.87 24.0173 120.607 24.0814 120.146 24.0814H120.08L119.883 24.5938H119.948C120.475 24.5938 121.002 24.5297 121.528 24.5297C122.582 24.5297 123.635 24.5297 124.623 24.5297C125.083 24.5297 125.544 24.5297 126.005 24.5938H126.071V24.0814H126.137C125.742 24.0173 125.413 24.0173 125.149 23.9533C124.952 23.8892 124.754 23.8251 124.623 23.697C124.491 23.5689 124.425 23.3768 124.425 23.1846C124.425 22.9284 124.491 22.2238 124.491 22.2238V19.4054C124.623 19.4695 124.82 19.5335 125.017 19.5335C125.281 19.5976 125.478 19.5976 125.676 19.6616C126.202 20.5584 126.795 21.4551 127.388 22.2238C128.046 23.0565 128.704 23.8251 129.428 24.5938C129.692 24.5938 130.021 24.5297 130.284 24.5297C130.942 24.5297 131.535 24.5297 132.193 24.5297C132.523 24.5297 132.852 24.5297 133.181 24.5938H133.247V24.1454H133.181C132.786 24.0814 132.259 23.8251 131.733 23.5049Z" fill="white"/>
<path d="M144.373 23.0565C143.978 23.3127 143.648 23.5049 143.319 23.633C142.99 23.7611 142.661 23.8251 142.266 23.8251C141.871 23.8251 141.476 23.7611 141.147 23.5689C140.818 23.4408 140.488 23.1846 140.291 22.9284C140.028 22.6722 139.83 22.2878 139.698 21.9035C139.567 21.5192 139.501 21.0708 139.501 20.6224C139.501 20.0459 139.633 19.5335 139.962 19.1492C140.291 18.7649 140.686 18.5727 141.278 18.5727C141.608 18.5727 141.937 18.6368 142.2 18.8289C142.463 19.0211 142.727 19.2132 142.924 19.4695C143.122 19.7257 143.319 19.9819 143.451 20.3022C143.583 20.6224 143.714 20.8787 143.846 21.1349V21.1989H144.307V21.1349C144.241 20.8787 144.241 20.6224 144.241 20.3662C144.241 20.11 144.175 19.7897 144.175 19.5335C144.175 19.2773 144.175 18.957 144.109 18.7008C144.109 18.4446 144.109 18.2524 144.109 18.0603V17.9322H143.583C143.385 17.9322 143.253 17.9322 143.056 17.8681C142.924 17.8681 142.727 17.8041 142.595 17.8041H142.529C142.398 17.8041 142.2 17.74 142.068 17.74H142.003C141.805 17.74 141.608 17.6759 141.41 17.6759C140.883 17.6759 140.291 17.74 139.764 17.9322C139.238 18.0603 138.777 18.3165 138.382 18.6368C137.987 18.957 137.658 19.3414 137.394 19.7897C137.131 20.2381 136.999 20.7505 136.999 21.327C136.999 21.9035 137.131 22.4159 137.394 22.8643C137.658 23.3127 137.987 23.697 138.382 24.0173C138.777 24.3376 139.238 24.5938 139.764 24.7219C140.291 24.85 140.818 24.9781 141.41 24.9781C142.068 24.9781 142.661 24.85 143.253 24.5938C143.846 24.3376 144.373 24.0173 144.965 23.5689L145.031 23.5049L144.373 23.0565Z" fill="white"/>
<path d="M149.639 24.0814C149.376 24.0814 149.178 24.0173 148.915 23.8892C148.718 23.7611 148.454 23.5689 148.323 23.3127C148.125 23.0565 147.993 22.7362 147.928 22.3519C147.796 21.9676 147.796 21.5192 147.796 20.9427C147.796 20.11 147.928 19.5335 148.191 19.0851C148.454 18.7008 148.849 18.5086 149.31 18.5086C149.573 18.5086 149.771 18.5727 150.034 18.7008C150.232 18.8289 150.495 19.0211 150.627 19.2773C150.824 19.5335 150.956 19.8538 151.088 20.2381C151.219 20.6224 151.219 21.0708 151.219 21.6473C151.219 22.48 151.088 23.0565 150.824 23.5049C150.495 23.8892 150.1 24.0814 149.639 24.0814ZM152.404 18.7008C152.009 18.3805 151.548 18.1884 151.022 17.9962C150.034 17.6759 148.915 17.6759 147.862 17.9962C147.335 18.1243 146.874 18.3805 146.479 18.7008C146.084 19.0211 145.755 19.4054 145.558 19.7897C145.294 20.2381 145.163 20.7505 145.163 21.263C145.163 21.8395 145.294 22.3519 145.558 22.7362C145.821 23.1846 146.15 23.5689 146.479 23.8251C146.874 24.1454 147.335 24.3376 147.862 24.5297C148.388 24.6578 148.915 24.7859 149.442 24.7859C149.968 24.7859 150.495 24.7219 151.022 24.5297C151.548 24.4016 152.009 24.1454 152.404 23.8251C152.799 23.5049 153.128 23.1205 153.392 22.7362C153.655 22.2878 153.787 21.7754 153.787 21.263C153.787 20.6865 153.655 20.1741 153.392 19.7897C153.128 19.3414 152.799 18.957 152.404 18.7008Z" fill="white"/>
<path d="M157.605 22.2238C157.342 21.9676 157.012 21.8395 156.617 21.8395C156.222 21.8395 155.893 21.9676 155.63 22.2238C155.367 22.48 155.235 22.8003 155.235 23.1846C155.235 23.5689 155.367 23.8892 155.63 24.1454C155.893 24.4016 156.222 24.5297 156.617 24.5297C157.012 24.5297 157.342 24.4016 157.605 24.1454C157.868 23.8892 158 23.5689 158 23.1846C158 22.8003 157.868 22.48 157.605 22.2238Z" fill="white"/>
<path d="M49.375 33.9457C49.2433 34.1378 49.0458 34.33 48.9142 34.4581C48.7825 34.5862 48.585 34.7143 48.4533 34.8424C48.2558 34.9065 48.1242 35.0346 47.8608 35.0346C47.6633 35.0987 47.4 35.0987 47.1367 35.0987C47.0708 35.0987 47.005 35.0987 46.9392 35.0987C46.8733 35.0987 46.8075 35.0987 46.7417 35.0987C46.6758 35.0987 46.61 35.0987 46.5442 35.0987C46.4783 35.0987 46.4783 35.0987 46.4783 35.0987V33.113H46.8075C47.005 33.113 47.1367 33.113 47.2683 33.113C47.4 33.113 47.4658 33.177 47.5317 33.2411C47.5975 33.3051 47.6633 33.3692 47.7292 33.4973C47.795 33.6254 47.8608 33.7535 47.8608 33.9457V34.0097H48.0583V33.9457C48.0583 33.7535 48.0583 33.6254 48.0583 33.4332C48.0583 33.3051 48.0583 33.113 48.0583 32.9849C48.0583 32.8568 48.0583 32.6646 48.0583 32.5365C48.0583 32.4084 48.0583 32.2162 48.0583 32.0881V32.0241H47.9267V32.1522C47.8608 32.4724 47.795 32.6646 47.5975 32.7927C47.4 32.9208 47.2025 32.9849 46.8733 32.9849C46.8075 32.9849 46.6758 32.9849 46.61 32.9849C46.5442 32.9849 46.4783 32.9849 46.4783 32.9849V31.4476C46.7417 31.4476 47.0708 31.3835 47.3342 31.3835C47.5317 31.3835 47.6633 31.3835 47.795 31.4476C47.9267 31.4476 48.0583 31.5116 48.19 31.5757C48.3217 31.6397 48.3875 31.7678 48.5192 31.8959C48.585 32.0241 48.7167 32.2162 48.7167 32.4084V32.4724L48.9142 32.4084V32.3443C48.9142 32.2162 48.9142 32.0881 48.9142 32.0241C48.9142 31.96 48.9142 31.8319 48.9142 31.7678V31.5116C48.9142 31.4476 48.9142 31.4476 48.9142 31.3835C48.9142 31.3195 48.9142 31.3195 48.9142 31.2554V31.1914H48.8483C48.5192 31.1914 48.19 31.1914 47.8608 31.1914C47.5317 31.1914 46.9392 31.1914 46.9392 31.1914H46.4783C46.2808 31.1914 46.1492 31.1914 46.0175 31.1914C45.8858 31.1914 45.7542 31.1914 45.5567 31.1914H45.03V31.3835H45.0958C45.2275 31.3835 45.3592 31.4476 45.4908 31.4476C45.5567 31.4476 45.6225 31.5116 45.6883 31.5757C45.7542 31.6397 45.7542 31.7038 45.7542 31.8319C45.7542 31.96 45.7542 32.0881 45.7542 32.2803V34.2019C45.7542 34.3941 45.7542 34.5222 45.7542 34.6503C45.7542 34.7784 45.6883 34.8424 45.6883 34.9065C45.6225 34.9705 45.6225 35.0346 45.4908 35.0346C45.425 35.0987 45.2933 35.0987 45.0958 35.0987H45.03V35.3549H45.0958C45.2275 35.3549 45.3592 35.3549 45.4908 35.3549C45.6225 35.3549 45.7542 35.3549 45.8858 35.3549H48.3875C48.4533 35.3549 48.5192 35.3549 48.6508 35.3549C48.7167 35.3549 48.7825 35.3549 48.9142 35.3549H48.98L49.6383 33.9457H49.375Z" fill="white"/>
<path d="M56.5508 33.2411C56.4192 33.113 56.2875 33.0489 56.1558 32.9849C56.0242 32.9208 55.8266 32.8568 55.695 32.7927C55.5633 32.7287 55.3658 32.6646 55.2342 32.6005C55.1025 32.5365 54.9708 32.4724 54.8392 32.4084C54.7075 32.3443 54.6417 32.2803 54.5758 32.1522C54.51 32.0881 54.51 31.96 54.51 31.8319C54.51 31.6397 54.5758 31.5116 54.7075 31.4476C54.8391 31.3835 55.0367 31.3195 55.3 31.3195C55.4317 31.3195 55.6291 31.3195 55.7608 31.3835C55.8925 31.4476 56.0242 31.5116 56.1558 31.6397C56.2875 31.7678 56.3533 31.8319 56.4191 31.96C56.485 32.0881 56.5508 32.2162 56.6167 32.3443V32.4084H56.8142V32.3443C56.8142 32.1522 56.7483 32.0241 56.7483 31.8319C56.7483 31.6397 56.7483 31.4476 56.7483 31.3195V31.2554H56.6167C56.485 31.2554 56.3533 31.2554 56.2217 31.1914C56.09 31.1914 55.9583 31.1273 55.8267 31.1273C55.695 31.1273 55.5633 31.0632 55.4316 31.0632C55.1683 30.9992 54.7733 30.9992 54.51 31.1273C54.3783 31.1914 54.2466 31.2554 54.115 31.3835C53.9833 31.5116 53.9175 31.5757 53.8517 31.7678C53.7858 31.8959 53.72 32.0881 53.72 32.2162C53.72 32.4724 53.7858 32.6646 53.9175 32.7927C54.0492 32.9208 54.1808 33.0489 54.3783 33.177C54.5758 33.3051 54.7733 33.3692 54.9708 33.4332C55.1683 33.4973 55.3658 33.6254 55.5633 33.6895C55.7608 33.7535 55.8925 33.8816 56.0241 34.0097C56.1558 34.1378 56.2217 34.2659 56.2217 34.4581C56.2217 34.5862 56.2217 34.7143 56.1558 34.7784C56.09 34.8424 56.0242 34.9065 55.9583 34.9705C55.8925 35.0346 55.7608 35.0346 55.695 35.0987C55.5633 35.0987 55.4975 35.1627 55.3658 35.1627C55.1683 35.1627 55.0367 35.0987 54.8392 35.0346C54.7075 34.9705 54.51 34.8424 54.3783 34.7143C54.2466 34.5862 54.115 34.4581 54.0491 34.2659C53.9175 34.1378 53.8516 33.9457 53.7858 33.8176V33.7535L53.5883 33.8176V33.8816C53.6542 34.1378 53.72 34.33 53.72 34.5862C53.7858 34.7784 53.7858 35.0346 53.8517 35.2908V35.3549L54.0491 35.2908C54.115 35.2908 54.1808 35.2908 54.3783 35.2908L54.6417 35.3549C54.7733 35.3549 54.8392 35.4189 54.9708 35.4189C55.1025 35.4189 55.2342 35.4189 55.3 35.4189C55.4975 35.4189 55.695 35.4189 55.8925 35.3549C56.09 35.2908 56.2216 35.2268 56.3533 35.1627C56.485 35.0346 56.6166 34.9065 56.6825 34.7784C56.7483 34.6503 56.8142 34.4581 56.8142 34.2019C56.8142 34.0097 56.7483 33.8176 56.6825 33.6895C56.7483 33.4332 56.6825 33.3051 56.5508 33.2411Z" fill="white"/>
<path d="M65.1092 30.9351C64.9117 30.9351 64.78 30.9351 64.5825 30.9351C64.385 30.9351 64.2533 30.9351 64.0558 30.9351H62.4758C62.2783 30.9351 62.0808 30.9351 61.8833 30.9351C61.6858 30.9351 61.4883 30.9351 61.2908 30.9351H61.225L61.0933 32.3443L61.2908 32.4084V32.3443C61.3567 32.0881 61.4883 31.8959 61.5542 31.7678C61.62 31.6397 61.7517 31.5116 61.8175 31.4476C61.9492 31.3835 62.0808 31.3195 62.2125 31.3195C62.3442 31.3195 62.5417 31.3195 62.7392 31.3195V34.2659C62.7392 34.4581 62.7392 34.5862 62.7392 34.7143C62.7392 34.8424 62.6733 34.9065 62.6733 34.9705C62.6075 35.0346 62.5417 35.0987 62.4758 35.0987C62.41 35.1627 62.2783 35.1627 62.0808 35.1627H62.015V35.3549H62.0808C62.2125 35.3549 62.41 35.3549 62.5417 35.3549C62.8708 35.3549 63.2 35.3549 63.5292 35.3549C63.7267 35.3549 63.8583 35.3549 64.0558 35.3549H64.1217V35.1627H64.0558C63.9242 35.1627 63.7925 35.0987 63.6608 35.0987C63.595 35.0987 63.5292 35.0346 63.4633 34.9705C63.3975 34.9065 63.3975 34.8424 63.3975 34.7143C63.3975 34.5862 63.3975 34.4581 63.3975 34.2659V31.3195C63.595 31.3195 63.7925 31.3195 63.9242 31.3195C64.0558 31.3195 64.1875 31.3835 64.3192 31.4476C64.4508 31.5116 64.5167 31.6397 64.5825 31.7678C64.6483 31.8959 64.78 32.0881 64.8458 32.3443V32.4084L65.0433 32.3443L65.1092 30.9351Z" fill="white"/>
<path d="M73.6017 33.113C73.6017 33.7535 73.47 34.2659 73.1408 34.5862C72.8117 34.9065 72.3508 35.0986 71.6925 35.0986C71.495 35.0986 71.2975 35.0986 71.1658 35.0346C70.9683 34.9705 70.8367 34.9065 70.705 34.7784V32.6646C70.705 32.4084 70.705 32.2162 70.705 31.96C70.705 31.7678 70.705 31.5116 70.705 31.3195C71.2317 31.1273 71.89 31.1273 72.3508 31.3195C72.6142 31.4476 72.8117 31.5757 73.0092 31.7678C73.2067 31.96 73.3383 32.1522 73.47 32.4084C73.5358 32.6005 73.6017 32.8568 73.6017 33.113ZM73.865 31.4476C73.6017 31.2554 73.2725 31.0632 72.9433 30.9351C72.6142 30.807 72.2192 30.743 71.8242 30.743C71.495 30.743 71.2317 30.743 70.9683 30.807C70.5733 30.8711 70.1125 30.8711 69.6517 30.8711C69.52 30.8711 69.3883 30.8711 69.2567 30.8711H69.1908V31.0632H69.2567C69.3883 31.0632 69.52 31.1273 69.6517 31.1273C69.7175 31.1273 69.7833 31.1914 69.8492 31.2554C69.915 31.3195 69.915 31.3835 69.915 31.4476C69.915 31.5116 69.915 31.5757 69.915 31.7038V34.8424C69.915 34.9065 69.915 34.9705 69.915 34.9705C69.915 35.0346 69.8492 35.0346 69.8492 35.0986C69.7833 35.1627 69.7175 35.1627 69.6517 35.2268C69.5858 35.2908 69.4542 35.2908 69.3225 35.2908H69.2567V35.483H69.3225C69.4542 35.483 69.6517 35.483 69.7833 35.483C70.0467 35.483 70.31 35.483 70.5733 35.483C70.7708 35.483 71.0342 35.483 71.4292 35.483C71.6267 35.483 71.8242 35.483 72.0875 35.483C72.4167 35.483 72.7458 35.4189 73.075 35.3549C73.4042 35.2908 73.6675 35.1627 73.9308 34.9705C74.1942 34.7784 74.3917 34.5862 74.5233 34.2659C74.655 34.0097 74.7208 33.6254 74.7208 33.2411C74.7208 32.8568 74.655 32.5365 74.5233 32.2162C74.3258 31.96 74.1283 31.6397 73.865 31.4476Z" fill="white"/>
<path d="M78.9342 34.6503C78.8683 34.7143 78.8025 34.8424 78.8025 34.9705C78.8025 35.0986 78.8683 35.2268 78.9342 35.2908C79 35.3549 79.1317 35.4189 79.2633 35.4189C79.395 35.4189 79.4608 35.3549 79.5925 35.2908C79.6583 35.2268 79.7242 35.0986 79.7242 34.9705C79.7242 34.8424 79.6583 34.7143 79.5925 34.6503C79.395 34.4581 79.1317 34.4581 78.9342 34.6503Z" fill="white"/>
<path d="M86.3075 35.0346C86.2417 35.0346 86.1758 34.9705 86.11 34.9705C86.0442 34.9705 86.0442 34.9065 86.0442 34.9065C86.0442 34.8424 86.0442 34.8424 86.0442 34.7784V30.807H85.7808C85.6492 30.8711 85.4517 30.9351 85.2542 30.9992C85.0567 31.0632 84.8592 31.0632 84.7275 31.0632H84.6617V31.3195H84.7275C84.8592 31.3195 84.9908 31.3195 85.1225 31.3195C85.1883 31.3195 85.2542 31.3835 85.32 31.3835C85.3858 31.4476 85.3858 31.5116 85.3858 31.5757C85.3858 31.6397 85.3858 31.8319 85.3858 31.96V34.4581C85.3858 34.5862 85.3858 34.7143 85.32 34.7784C85.32 34.8424 85.2542 34.9065 85.1883 34.9705C85.1225 35.0346 85.0567 35.0346 84.9908 35.0346C84.925 35.0346 84.7933 35.0987 84.6617 35.0987H84.5958V35.2908H84.6617C84.7933 35.2908 84.9908 35.2908 85.1225 35.2908C85.4517 35.2908 85.7808 35.2908 86.11 35.2908C86.3075 35.2908 86.4392 35.2908 86.6367 35.2908H86.7025V35.0346H86.6367C86.505 35.0987 86.4392 35.0987 86.3075 35.0346Z" fill="white"/>
<path d="M92.5617 31.1913C92.6933 31.1913 92.825 31.2554 92.9567 31.3195C93.0883 31.3835 93.1542 31.5116 93.22 31.6397C93.2858 31.7678 93.3517 31.8959 93.3517 32.0241C93.3517 32.1522 93.4175 32.3443 93.4175 32.4084C93.4175 32.5365 93.4175 32.6646 93.3517 32.7286C93.3517 32.7927 93.2858 32.9208 93.22 32.9849C93.1542 33.0489 93.0883 33.113 93.0225 33.177C92.9567 33.2411 92.825 33.2411 92.6933 33.2411C92.5617 33.2411 92.43 33.177 92.3642 33.113C92.2325 33.0489 92.1667 32.9208 92.1008 32.8568C92.035 32.7286 91.9692 32.6005 91.9692 32.4724C91.9033 32.3443 91.9033 32.2162 91.9033 32.0881C91.9033 31.96 91.9033 31.8959 91.9033 31.7678C91.9033 31.6397 91.9692 31.5757 92.035 31.4476C92.1008 31.3835 92.1667 31.3195 92.2325 31.2554C92.3642 31.1913 92.43 31.1913 92.5617 31.1913ZM93.8125 31.4476C93.6808 31.2554 93.5492 31.1273 93.3517 30.9992C93.1542 30.8711 92.8908 30.8711 92.6275 30.8711C92.43 30.8711 92.2325 30.9351 92.035 30.9351C91.8375 30.9992 91.7058 31.0632 91.5742 31.1913C91.4425 31.3195 91.3108 31.4476 91.245 31.6397C91.1792 31.8319 91.1133 31.96 91.1133 32.1522C91.1133 32.6005 91.245 32.9208 91.5083 33.177C91.7717 33.4332 92.1008 33.5613 92.5617 33.5613C92.6933 33.5613 92.8908 33.5614 93.0225 33.4973C93.1542 33.4332 93.22 33.4332 93.3517 33.3692C93.3517 33.6254 93.2858 33.8176 93.22 34.0738C93.1542 34.33 92.9567 34.5222 92.825 34.6503C92.6275 34.8424 92.43 34.9705 92.1667 35.0346C91.9033 35.0986 91.5742 35.1627 91.245 35.0346H91.1133V35.3549H91.245C91.7717 35.4189 92.2325 35.3549 92.5617 35.2268C92.9567 35.0986 93.22 34.9065 93.4833 34.6503C93.6808 34.3941 93.8783 34.1378 94.01 33.7535C94.1417 33.4332 94.1417 33.0489 94.1417 32.6005C94.1417 32.3443 94.1417 32.1522 94.0758 31.96C94.01 31.8319 93.9442 31.6397 93.8125 31.4476Z" fill="white"/>
<path d="M99.4742 33.113C99.6058 33.177 99.7375 33.3051 99.8692 33.3692C100.001 33.4332 100.132 33.5614 100.264 33.6254C100.396 33.7535 100.527 33.8176 100.593 33.9457C100.659 34.0738 100.725 34.2019 100.725 34.33C100.725 34.4581 100.725 34.5862 100.659 34.6503C100.593 34.7143 100.528 34.8424 100.462 34.8424C100.396 34.9065 100.264 34.9705 100.198 34.9705C99.935 35.0346 99.6717 35.0346 99.4742 34.9065C99.3425 34.8424 99.2767 34.7784 99.145 34.6503C99.0792 34.5222 99.0133 34.4581 98.9475 34.2659C98.8817 34.1378 98.8817 34.0097 98.8817 33.8176C98.8817 33.6254 98.9475 33.4332 99.0133 33.3051C99.2108 33.3051 99.3425 33.177 99.4742 33.113ZM100.133 32.7287C100.067 32.6646 99.935 32.6005 99.8692 32.5365C99.7375 32.4724 99.6058 32.4084 99.54 32.2803C99.4083 32.2162 99.3425 32.0881 99.2767 32.0241C99.2108 31.96 99.145 31.8319 99.145 31.7038C99.145 31.5116 99.2108 31.3835 99.3425 31.2554C99.4742 31.1273 99.6058 31.0632 99.8033 31.0632C100.067 31.0632 100.264 31.1273 100.396 31.2554C100.527 31.3835 100.593 31.5757 100.593 31.8319C100.593 32.0241 100.528 32.1522 100.462 32.2803C100.396 32.5365 100.33 32.6646 100.133 32.7287ZM100.988 33.3692C100.857 33.2411 100.791 33.177 100.659 33.113C100.593 33.0489 100.527 32.9849 100.396 32.9208C100.462 32.8568 100.527 32.8568 100.593 32.7927C100.725 32.7287 100.791 32.6646 100.857 32.5365C100.922 32.4724 100.988 32.3443 101.054 32.2162C101.12 32.0881 101.12 31.96 101.12 31.8319C101.12 31.6397 101.054 31.5116 100.988 31.3835C100.922 31.2554 100.791 31.1273 100.659 31.0632C100.527 30.9992 100.396 30.9351 100.264 30.8711C99.935 30.807 99.6058 30.807 99.2767 30.8711C99.145 30.9351 98.9475 30.9992 98.8158 31.0632C98.6842 31.1273 98.5525 31.2554 98.4867 31.3835C98.4208 31.5116 98.355 31.7038 98.355 31.8959C98.355 32.0241 98.355 32.1522 98.4208 32.2162C98.4867 32.3443 98.5525 32.4084 98.6183 32.4724C98.6842 32.5365 98.8158 32.6646 98.8817 32.7287C98.9475 32.7927 99.0133 32.7927 99.0792 32.8568C98.9475 32.9208 98.8817 32.9849 98.8158 32.9849C98.6842 33.0489 98.5525 33.177 98.4867 33.2411C98.4208 33.3692 98.2892 33.4973 98.2233 33.6254C98.1575 33.7535 98.1575 33.8816 98.1575 34.0738C98.1575 34.2659 98.2233 34.4581 98.2892 34.5862C98.355 34.7143 98.4867 34.9065 98.6183 34.9705C98.75 35.0987 98.9475 35.1627 99.0792 35.2268C99.2767 35.2908 99.4742 35.2908 99.6717 35.2908C99.8692 35.2908 100.067 35.2908 100.264 35.2268C100.462 35.1627 100.593 35.0987 100.791 34.9705C100.923 34.8424 101.054 34.7143 101.12 34.5862C101.186 34.3941 101.252 34.2019 101.252 34.0097C101.252 33.8816 101.186 33.6895 101.12 33.6254C101.186 33.6254 101.12 33.4973 100.988 33.3692Z" fill="white"/>
<path d="M107.967 30.6789C107.506 31.2554 107.045 31.7678 106.584 32.2803C106.123 32.7927 105.662 33.3051 105.202 33.8176L105.267 34.0097H107.44V35.3549H108.164V31.6397H107.967L107.506 32.0881V33.5613H106.057L108.559 30.9351V30.6789H107.967Z" fill="white"/>
<path d="M38.8417 32.4084C38.5125 32.4084 38.2492 32.6646 38.2492 32.9849C38.2492 33.3051 38.5125 33.5614 38.8417 33.5614C39.1708 33.5614 39.4342 33.3051 39.4342 32.9849C39.5 32.7286 39.2367 32.4084 38.8417 32.4084Z" fill="white"/>
<path d="M113.365 32.4084C113.036 32.4084 112.772 32.6646 112.772 32.9849C112.772 33.3051 113.036 33.5614 113.365 33.5614C113.694 33.5614 113.957 33.3051 113.957 32.9849C113.957 32.7286 113.694 32.4084 113.365 32.4084Z" fill="white"/>
</svg>
