<?xml version="1.0" encoding="utf-8"?>
<!-- Generator: Adobe Illustrator 27.1.1, SVG Export Plug-In . SVG Version: 6.00 Build 0)  -->
<svg version="1.1" id="Layer_1" xmlns="http://www.w3.org/2000/svg" xmlns:xlink="http://www.w3.org/1999/xlink" x="0px" y="0px"
	 viewBox="0 0 158 48" style="enable-background:new 0 0 158 48;" xml:space="preserve">
<style type="text/css">
	.st0{fill:#FFFFFF;}
</style>
<path class="st0" d="M143.7,21.4L143.7,21.4c0.9-1.1,2-1.4,3.2-1.4l-0.3,3c-0.3,0-0.5,0-0.8,0c-2.3,0-2.4,1.4-2.5,2.9l-0.3,3.5h-3.4
	l0.5-7c0.1-0.9,0.1-1.4,0-2.4h3.4L143.7,21.4z"/>
<path class="st0" d="M125.4,29.3l0.9-13.4h3.4l-0.9,13.4H125.4z"/>
<path class="st0" d="M120,15.6c2.8,0,5.6,1.1,5.4,4.6h-3.8c0-0.9-0.5-1.9-1.8-1.9s-2.8,1-3,3.8c-0.3,2.8,0.1,4.9,2.3,4.9
	c1.9,0,2.3-1.6,2.4-2h3.8c0,1.5-1.3,4.6-6.3,4.6c-5.4,0-6.3-3.9-5.9-7.6C113.3,18.8,115.5,15.6,120,15.6z"/>
<path class="st0" d="M108.2,21.9h4.6l-1.4,2.9h-4.6L108.2,21.9z"/>
<path class="st0" d="M101.1,33.8h-3.3l2.1-4.3L96.6,20h3.9l1.5,5.8l2.4-5.8h3.3L101.1,33.8z"/>
<path class="st0" d="M50.7,20v1.3l0,0c1-1.4,2.5-1.5,3.3-1.5c1.3,0,2.5,0.8,2.8,1.6c0.8-1.1,2-1.6,3.4-1.6c2,0,3.4,1.3,3.3,3.4
	l-0.5,6.2h-3.5l0.4-5.4c0-0.9,0-1.9-1.1-1.9c-1.8,0-1.6,1.9-1.6,2l-0.4,5.3h-3.5l0.4-5.4c0-0.9-0.1-1.9-1.3-1.9
	c-1.8,0-1.8,1.9-1.8,2l-0.4,5.3h-3.7L47,20L50.7,20z"/>
<path class="st0" d="M43.1,20h3.3l-0.6,9.4h-3.3L43.1,20z"/>
<path class="st0" d="M37.8,15.9l-4.7,5.9l4.2,7.5H42l-4.7-7.6l4.9-5.7h-4.4V15.9z"/>
<path class="st0" d="M29.6,15.9h3.9l-0.9,13.4h-3.9L29.6,15.9z"/>
<path class="st0" d="M78.5,25.3c-0.1,1.3,0.1,2.3,1.5,2.3c1,0,1.6-0.6,1.6-1.3h3.3c-0.1,1.1-0.9,2-1.8,2.5c-0.9,0.5-1.8,0.6-2.9,0.6
	c-3.8,0-5.3-1.6-5.1-5.1c0.3-2.9,2.5-4.7,5.4-4.7c3.8,0.1,4.9,2.3,4.6,5.6L78.5,25.3L78.5,25.3z M81.9,23.5c0-0.5-0.1-1-0.4-1.4
	c-0.3-0.4-0.6-0.6-1.1-0.6c-1.3,0-1.5,0.9-1.8,2H81.9L81.9,23.5z"/>
<path class="st0" d="M64.8,15.9h3.5L68,21.2h0.1c0.8-0.9,1.6-1.5,2.9-1.5c2.9,0,3.9,2.5,3.8,4.8s-1.4,4.9-4.6,4.9
	c-1.1,0-2.1-0.6-2.7-1.3h-0.1l-0.3,1.1h-3.4L64.8,15.9z M67.6,24.8c0,1.1,0.3,2.8,1.5,2.8c1.6,0,2-1.6,2-2.9c0-1.1-0.1-2.9-1.5-2.8
	C67.9,21.8,67.6,23.5,67.6,24.8z"/>
<path class="st0" d="M92.3,29.3l0.9-13.4h3.4l-0.9,13.4H92.3z"/>
<path class="st0" d="M89.4,21.4L89.4,21.4c0.9-1.1,2-1.4,3.2-1.4l-0.3,3c-0.3,0-0.5,0-0.8,0c-2.3,0-2.4,1.4-2.5,2.9l-0.3,3.5h-3.4
	l0.5-7c0.1-0.9,0.1-1.4,0-2.4h3.4L89.4,21.4z"/>
<path class="st0" d="M150.7,24.2L154,20h4l-3.5,3.9l3.4,5.4h-4.3L150.7,24.2z"/>
<path class="st0" d="M146.8,29.3l0.9-13.4h3.5l-0.9,13.4H146.8z"/>
<path class="st0" d="M135.6,28.2L135.6,28.2c-0.8,0.8-1.5,1.3-2.9,1.3c-2.3,0-3.2-1.3-3.2-2.9c0-1.9,1.9-3,5.3-3h1.1
	c0-0.8,0.4-2.1-1-2.1c-1,0-1.3,1-1.3,1.4h-3.2c0.1-1.3,0.6-2,1.6-2.4c1-0.5,2.3-0.5,3.3-0.5c1.9,0,4.2,1,4,3.3l-0.3,4.4
	c0,0.4,0,0.8,0,1.9H136L135.6,28.2z M134,27.6c1.6,0,1.8-1.5,1.8-2.8c-0.8,0-1.4,0-1.9,0.3c-0.5,0.3-0.9,0.8-1,1.4
	C132.8,26.9,133.4,27.6,134,27.6z"/>
<path class="st0" d="M43.5,15.9h3.3l-0.1,2.4h-3.3L43.5,15.9z"/>
<path class="st0" d="M8.6,15.9v5.7c-0.5-1-1.4-1.9-2.5-2.5H1.9c1.4,1,3.5,2.7,3.5,3.9c0,0.6-0.8,0.8-1.3,0.8H1.5v3.2h4.2
	c1,0,2.3-0.4,2.9-1.8v4.2h3.9v-4.2c0.5,1.5,1.9,1.8,2.9,1.8h4.2v-3.2h-2.7c-0.5,0-1.3-0.1-1.3-0.8c0-1.3,2.1-2.9,3.5-3.9h-4.3
	c-1,0.6-2,1.5-2.4,2.5v-5.7H8.6z M10.6,14c5.8,0,10.6,4,10.6,9.1s-4.8,9.1-10.6,9.1S0,28.2,0,23.1S4.7,14,10.6,14z"/>
</svg>
