<?xml version="1.0" encoding="utf-8"?>
<!-- Generator: Adobe Illustrator 27.1.1, SVG Export Plug-In . SVG Version: 6.00 Build 0)  -->
<svg version="1.1" id="Layer_1" xmlns="http://www.w3.org/2000/svg" xmlns:xlink="http://www.w3.org/1999/xlink" x="0px" y="0px"
	 viewBox="0 0 158 48" style="enable-background:new 0 0 158 48;" xml:space="preserve">
<style type="text/css">
	.st0{fill:#FFFFFF;}
</style>
<path class="st0" d="M130.2,21.9L130.2,21.9c0.7-0.9,1.6-1.1,2.5-1.1l-0.2,2.4c-0.2,0-0.4,0-0.6,0c-1.8,0-1.9,1.1-2,2.3l-0.2,2.8
	H127l0.4-5.5c0.1-0.7,0.1-1.1,0-1.9h2.7L130.2,21.9z"/>
<path class="st0" d="M115.7,28.2l0.7-10.6h2.7l-0.7,10.6H115.7z"/>
<path class="st0" d="M111.4,17.3c2.2,0,4.4,0.9,4.3,3.6h-3c0-0.7-0.4-1.5-1.4-1.5c-1,0-2.2,0.8-2.4,3c-0.2,2.2,0.1,3.9,1.8,3.9
	c1.5,0,1.8-1.3,1.9-1.6h3c0,1.2-1,3.6-5,3.6c-4.3,0-5-3.1-4.7-6C106.1,19.9,107.9,17.3,111.4,17.3z"/>
<path class="st0" d="M102.1,22.3h3.6l-1.1,2.3h-3.6L102.1,22.3z"/>
<path class="st0" d="M96.5,31.7h-2.6l1.7-3.4l-2.7-7.5H96l1.2,4.6l1.9-4.6h2.6L96.5,31.7z"/>
<path class="st0" d="M56.6,20.8v1h0c0.8-1.1,2-1.2,2.6-1.2c1,0,2,0.6,2.2,1.3c0.6-0.9,1.6-1.3,2.7-1.3c1.6,0,2.7,1,2.6,2.7l-0.4,4.9
	h-2.8l0.3-4.3c0-0.7,0-1.5-0.9-1.5c-1.4,0-1.3,1.5-1.3,1.6l-0.3,4.2h-2.8l0.3-4.3c0-0.7-0.1-1.5-1-1.5c-1.4,0-1.4,1.5-1.4,1.6
	l-0.3,4.2h-2.9l0.5-7.4L56.6,20.8z"/>
<path class="st0" d="M50.6,20.8h2.6l-0.5,7.4h-2.6L50.6,20.8z"/>
<path class="st0" d="M46.4,17.6l-3.7,4.7l3.3,5.9h3.7l-3.7-6l3.9-4.5H46.4z"/>
<path class="st0" d="M39.9,17.6H43l-0.7,10.6h-3.1L39.9,17.6z"/>
<path class="st0" d="M78.6,25c-0.1,1,0.1,1.8,1.2,1.8c0.8,0,1.3-0.5,1.3-1h2.6c-0.1,0.9-0.7,1.6-1.4,2c-0.7,0.4-1.4,0.5-2.3,0.5
	c-3,0-4.2-1.3-4-4c0.2-2.3,2-3.7,4.3-3.7c3,0.1,3.9,1.8,3.6,4.4L78.6,25L78.6,25z M81.3,23.6c0-0.4-0.1-0.8-0.3-1.1
	c-0.2-0.3-0.5-0.5-0.9-0.5c-1,0-1.2,0.7-1.4,1.6L81.3,23.6L81.3,23.6z"/>
<path class="st0" d="M67.8,17.6h2.8l-0.3,4.2h0.1c0.6-0.7,1.3-1.2,2.3-1.2c2.3,0,3.1,2,3,3.8c-0.1,1.8-1.1,3.9-3.6,3.9
	c-0.9,0-1.7-0.5-2.1-1h-0.1l-0.2,0.9H67L67.8,17.6z M70,24.6c0,0.9,0.2,2.2,1.2,2.2c1.3,0,1.6-1.3,1.6-2.3c0-0.9-0.1-2.3-1.2-2.2
	C70.2,22.2,70,23.6,70,24.6z"/>
<path class="st0" d="M89.5,28.2l0.7-10.6h2.7l-0.7,10.6H89.5z"/>
<path class="st0" d="M87.2,21.9L87.2,21.9c0.7-0.9,1.6-1.1,2.5-1.1l-0.2,2.4c-0.2,0-0.4,0-0.6,0c-1.8,0-1.9,1.1-2,2.3l-0.2,2.8H84
	l0.4-5.5c0.1-0.7,0.1-1.1,0-1.9h2.7L87.2,21.9z"/>
<path class="st0" d="M135.7,24.1l2.6-3.3h3.2l-2.8,3.1l2.7,4.3h-3.4L135.7,24.1z"/>
<path class="st0" d="M132.6,28.2l0.7-10.6h2.8l-0.7,10.6H132.6z"/>
<path class="st0" d="M123.8,27.3L123.8,27.3c-0.6,0.6-1.2,1-2.3,1c-1.8,0-2.5-1-2.5-2.3c0-1.5,1.5-2.4,4.2-2.4h0.9
	c0-0.6,0.3-1.7-0.8-1.7c-0.8,0-1,0.8-1,1.1h-2.5c0.1-1,0.5-1.6,1.3-1.9c0.8-0.4,1.8-0.4,2.6-0.4c1.5,0,3.3,0.8,3.2,2.6l-0.2,3.5
	c0,0.3,0,0.6,0,1.5h-2.6L123.8,27.3z M122.5,26.8c1.3,0,1.4-1.2,1.4-2.2c-0.6,0-1.1,0-1.5,0.2c-0.4,0.2-0.7,0.6-0.8,1.1
	C121.6,26.3,122,26.8,122.5,26.8z"/>
<path class="st0" d="M50.9,17.6h2.6l-0.1,1.9h-2.6L50.9,17.6z"/>
<path class="st0" d="M23.3,17.6v4.5c-0.4-0.8-1.1-1.5-2-2H18c1.1,0.8,2.8,2.1,2.8,3.1c0,0.5-0.6,0.6-1,0.6h-2.1v2.5h3.3
	c0.8,0,1.8-0.3,2.3-1.4v3.3h3.1v-3.3c0.4,1.2,1.5,1.4,2.3,1.4H32v-2.5h-2.1c-0.4,0-1-0.1-1-0.6c0-1,1.7-2.3,2.8-3.1h-3.4
	c-0.8,0.5-1.6,1.2-1.9,2v-4.5H23.3z M24.9,16.1c4.6,0,8.4,3.2,8.4,7.2s-3.8,7.2-8.4,7.2s-8.4-3.2-8.4-7.2
	C16.5,19.3,20.2,16.1,24.9,16.1z"/>
</svg>
