<?xml version="1.0" encoding="utf-8"?>
<!-- Generator: Adobe Illustrator 27.1.1, SVG Export Plug-In . SVG Version: 6.00 Build 0)  -->
<svg version="1.1"
	 id="svg16893" xmlns:dc="http://purl.org/dc/elements/1.1/" xmlns:cc="http://creativecommons.org/ns#" xmlns:rdf="http://www.w3.org/1999/02/22-rdf-syntax-ns#" xmlns:svg="http://www.w3.org/2000/svg"
	 xmlns="http://www.w3.org/2000/svg" xmlns:xlink="http://www.w3.org/1999/xlink" x="0px" y="0px" viewBox="0 0 158 48"
	 style="enable-background:new 0 0 158 48;" xml:space="preserve">
<style type="text/css">
	.st0{fill:#FFFFFF;}
</style>
<g id="g15902" transform="matrix(2.1025538,0,0,-2.1025538,-945.43842,1967.8152)">
	<g>
		<g id="g15904">
			<g id="g15910" transform="translate(500.6749,698.2117)">
				<path id="path15912" class="st0" d="M-11.5,230.3c-0.1-0.1-0.1-0.2-0.1-0.4v-5.4l0,0c0,0-3,5.3-3.1,5.5
					c-0.1,0.1-0.2,0.2-0.4,0.4c-0.1,0.1-0.4,0.1-0.6,0.1h-0.9c-0.2,0-0.4-0.1-0.5-0.2c-0.1-0.1-0.1-0.2-0.1-0.4v-7.7
					c0-0.2,0-0.4,0.1-0.4c0.1-0.1,0.2-0.2,0.5-0.2h0.6c0.2,0,0.4,0.1,0.5,0.2c0.1,0.1,0.1,0.2,0.1,0.4v5.5l0,0c0,0,3.1-5.4,3.2-5.7
					c0.1-0.2,0.5-0.5,0.8-0.5h0.9c0.2,0,0.4,0.1,0.5,0.2c0.1,0.1,0.1,0.2,0.1,0.4v6.8H2.6c0.1,0,0.2,0,0.2,0.1
					c0.1,0.1,0.1,0.1,0.1,0.4v0.5c0,0.1,0,0.2-0.1,0.4s-0.1,0.1-0.2,0.1H-11C-11.2,230.6-11.4,230.5-11.5,230.3 M-6,228.3
					c-2,0-3.2-1.7-3.2-3.3c0-1.8,1.3-3.4,3.2-3.4c0.9,0,2,0.4,2.5,1.1c0.2,0.2,0.5,0.7,0.5,0.9c0,0.1,0,0.1-0.1,0.2
					c0,0.1-0.1,0.1-0.2,0.1h-0.9c-0.2,0-0.4-0.1-0.5-0.2c-0.2-0.4-0.7-0.6-1.3-0.6c-0.9,0-1.4,0.7-1.5,1.4h4.2c0.2,0,0.4,0,0.4,0.1
					c0.1,0.1,0.1,0.2,0.1,0.5c0,0.8-0.2,1.5-0.7,2.2C-4.2,227.9-5,228.3-6,228.3 M0.3,228.3c-1.7,0-2.7-0.8-2.7-2
					c0-0.5,0.1-0.8,0.5-1.1c0.4-0.4,0.7-0.6,1.4-0.7l1.4-0.4c0.4-0.1,0.7-0.2,0.7-0.6c0-0.5-0.6-0.7-1.1-0.7c-0.2,0-0.6,0-0.8,0.1
					c-0.1,0.1-0.4,0.2-0.4,0.4c-0.1,0.1-0.1,0.2-0.2,0.4c-0.1,0-0.2,0-0.4,0h-0.7c-0.1,0-0.2,0-0.2-0.1s-0.1-0.1-0.1-0.2
					c0-0.2,0.1-0.6,0.2-0.8c0.5-0.6,1.4-1.1,2.6-1.1s2.8,0.5,2.8,2.1c0,0.4-0.1,0.7-0.4,1.1c-0.2,0.4-0.7,0.6-1.3,0.8l-1.3,0.4
					c-0.6,0.1-0.8,0.2-0.8,0.6c0,0.4,0.4,0.6,0.9,0.6c0.4,0,0.8-0.1,1.1-0.4c0.2-0.2,0.1-0.4,0.4-0.4c0.1,0,0.2,0,0.4,0H3
					c0.1,0,0.2,0,0.2,0.1c0,0,0.1,0.1,0.1,0.2c0,0.4-0.2,0.7-0.6,1.1C2,228,1.1,228.3,0.3,228.3 M4,228.1H3.6c-0.1,0-0.2,0-0.2-0.1
					c-0.1-0.1-0.1-0.1-0.1-0.4v-0.4c0-0.1,0-0.2,0.1-0.4c0.1-0.1,0.1-0.1,0.2-0.1H4v-3c0-0.7,0.2-1.2,0.6-1.7
					c0.4-0.4,0.8-0.6,1.7-0.6h0.5c0.1,0,0.2,0,0.2,0.1c0.1,0.1,0.1,0.1,0.1,0.4v0.5c0,0.1,0,0.2-0.1,0.4C6.8,223,6.8,223,6.7,223
					l0,0c-0.4,0-0.6,0.1-0.7,0.2c-0.2,0.1-0.2,0.5-0.2,0.7v2.8h1.1c0.1,0,0.2,0,0.2,0.1c0.1,0.1,0.1,0.2,0.1,0.4v0.4
					c0,0.1,0,0.2-0.1,0.4s-0.1,0.1-0.2,0.1H5.8v1.9c0,0.1,0,0.2-0.1,0.4s-0.2,0.1-0.4,0.1H4.5c-0.2,0-0.4-0.1-0.4-0.1
					C4,230.2,4,230.1,4,230C4,230,4,228.1,4,228.1z M7.6,222.2c0-0.1,0-0.2,0.1-0.4c0.1-0.1,0.2-0.1,0.4-0.1h0.7
					c0.2,0,0.4,0.1,0.4,0.1c0.1,0.1,0.1,0.2,0.1,0.4v7.8c0,0.1,0,0.2-0.1,0.4c-0.1,0.1-0.2,0.1-0.4,0.1H8.1c-0.2,0-0.4-0.1-0.4-0.1
					c-0.1-0.1-0.1-0.2-0.1-0.4V222.2z M-7.6,225.7C-7.5,226.5-7,227-6,227c0.8,0,1.4-0.6,1.5-1.3C-4.6,225.7-7.6,225.7-7.6,225.7z
					 M15.8,229.2c0.1,0,0.2,0,0.2,0.1c0.1,0.1,0.1,0.1,0.1,0.4v0.6c0,0.2,0,0.4-0.1,0.4c-0.1,0.1-0.1,0.1-0.2,0.1s-0.2,0-0.4,0
					l-4.7-0.5c-0.1,0-0.2,0-0.2-0.1s-0.1-0.1-0.1-0.2v-0.4c0-0.1,0-0.1,0.1-0.2c0-0.1,0.1-0.1,0.2-0.1H15.8L15.8,229.2z M13.2,228.3
					c-2,0-3.2-1.7-3.2-3.3c0-1.8,1.3-3.4,3.2-3.4c0.9,0,2,0.4,2.5,1.1c0.2,0.2,0.5,0.7,0.5,0.9c0,0.1,0,0.1-0.1,0.2
					c0,0.1-0.1,0.1-0.2,0.1h-0.9c-0.2,0-0.4-0.1-0.5-0.2c-0.2-0.4-0.7-0.6-1.3-0.6c-0.9,0-1.4,0.7-1.5,1.4h4.1c0.2,0,0.4,0,0.4,0.1
					c0.1,0.1,0.1,0.2,0.1,0.5c0,0.8-0.2,1.5-0.7,2.2C15.1,227.9,14.2,228.3,13.2,228.3 M11.7,225.7c0.1,0.7,0.6,1.3,1.5,1.3
					c0.8,0,1.4-0.6,1.5-1.3H11.7z"/>
			</g>
			<g id="g15914" transform="translate(471.0004,695.3475)">
				<path id="path15916" class="st0" d="M5.7,232c-1.5,2.2-2.8,3.1-3.3,3.4s-0.7,0.8-0.9,1.1c-0.5,0.5-1.1,1.1-2,1.1
					s-1.5-0.6-1.8-1.2c0-0.1-0.1-0.4-0.1-0.4c-0.1-0.1-0.5-0.8-0.7-1.2h0.7l-0.4-0.7c0.5,0.1,0.7,0.1,1.2,0.1c0.4,0,0.6-0.1,0.7-0.4
					c0.4-0.1,0.4-1.4,0.7-2.5c0.4-0.9,1.2-1.8,2.1-2.5l0,0c0,0,0.1,0,0.1,0.1c0,0,0,0,0,0.1c-0.8,0.8-1.4,1.7-1.8,2.6
					s-0.2,2.2-0.6,2.8c-0.2,0.4-0.6,0.5-0.9,0.5s-0.6-0.1-0.7-0.1l0.4,0.6h-0.6c0.1,0.2,0.2,0.4,0.4,0.5c0,0.1,0.1,0.2,0.1,0.4
					c0.2,0.6,0.7,0.8,1.3,0.8c0.8,0,1.2-0.5,1.7-0.9c0.2-0.2,0.6-0.7,0.9-1.1c0.2-0.2,0.8-0.5,1.5-1.3c0.5-0.5,0.9-1.1,1.5-1.9
					c2-3,3.3-5.5,4-7.6l0,0c-2.1,1.4-3.9,2.7-5.3,4.4c-1.1,1.2-1.9,2.6-2.7,4.2c0,0.1-0.1,0.2-0.1,0.4c0,0,0,0-0.1,0
					c0,0-0.1,0-0.1-0.1c0,0,0-0.1,0.1-0.4c0.5-1.8,1.5-3.4,2.8-4.7c1.2-1.3,2.6-2.5,3.8-3.3l0.9-2.6c0-0.1,0-0.1,0-0.2v-0.1
					c0,0,0,0-0.1,0H8.1c-0.1,0-0.1,0-0.2,0L7.7,222c-0.1,0.2-0.6,1.5-0.6,1.9c0,0,0,0.1-0.1,0.1c0,0-0.1,0-0.1-0.1c0,0,0-0.1,0-0.2
					c0.1-0.6,0.2-1.3,0.4-1.5c0-0.1,0-0.2,0-0.4c0-0.1,0-0.1-0.1-0.2l-0.2-0.2c-0.1-0.1-0.1-0.1-0.1-0.1c-0.1,0-0.1,0-0.1,0.1
					c-0.4,1.4-0.8,3.3-0.9,3.8c0,0.1,0,0.1-0.1,0.1c0,0-0.1,0-0.1-0.1V225c0.1-0.5,0.4-2.4,0.7-4.1c0-0.4,0.1-0.5,0.5-0.5
					c0.1,0,0.2,0,0.4,0.1s0.2,0.2,0.5,0.4c0.1,0.1,0.2,0.2,0.5,0.2h0.6c0.1,0,0.2,0,0.2,0.1c0.1,0.1,0.1,0.1,0.1,0.2
					c0,0.1,0,0.2-0.1,0.4c-0.1,0.5-0.7,1.9-0.8,2.2l0,0c0.5-0.4,1.3-0.9,1.7-0.9c0.1,0,0.1,0,0.1,0.2C9.8,224.6,8.7,227.7,5.7,232"
					/>
			</g>
			<g id="g15918" transform="translate(437.2935,706.7568)">
				<path id="path15920" class="st0" d="M25.3,225.4c0.1,0.2,0.2,0.4,0.5,0.4c0.4,0,0.6-0.2,0.6-0.6c0-0.2-0.1-0.4-0.2-0.5
					c0-0.1,0-0.2,0-0.2c0-0.4-0.2-0.6-0.6-0.7c0-0.2-0.1-0.4-0.2-0.6c-0.2-0.2-0.5-0.2-0.5-0.4c0,0,0-0.1,0.1-0.1
					c0.5,0,0.9,0.2,0.9,0.7c0.5,0.1,0.7,0.6,0.7,0.9c0,0.1,0,0.1,0,0.2c0.1,0.1,0.2,0.4,0.2,0.6c0,0.2-0.1,0.5-0.4,0.7
					c-0.1,0.1-0.5,0.2-0.7,0.2c-0.4,0-0.7-0.2-0.8-0.5c-0.5,0-1.1-0.5-1.1-1.2h-0.1c0,0.2-0.4,0.5-0.5,0.5c-0.1,0.5-0.6,0.9-1.2,0.9
					c-0.1,0-0.1,0-0.2,0c-0.2,0.1-0.4,0.2-0.7,0.2c-0.6,0-1.1-0.5-1.1-1.1c0-0.4,0.1-0.6,0.5-0.8c0,0,0,0,0-0.1
					c0-0.5,0.5-1.2,1.2-1.2c0-0.1,0.1-0.2,0.4-0.4l0,0H22c-1.1,0-1.4-0.5-1.4-0.8c-0.4-0.1-0.5-0.5-0.5-0.8c0-0.6,0.5-1.1,1.1-1.1
					c0.2,0,0.4,0.1,0.6,0.2c0.1,0,0.2,0,0.4,0c0.2,0,0.6,0.1,0.8,0.5H23c0.4,0,0.7,0.2,0.8,0.6c0,0.1,0,0.1,0,0.2c0,0,0,0.1-0.1,0.1
					c0,0-0.1,0-0.1-0.1c-0.2-0.2-0.6-0.2-0.9-0.2c-0.2-0.2-0.4-0.4-0.6-0.4c-0.2,0-0.4,0-0.5,0.1c-0.1-0.1-0.2-0.2-0.4-0.2
					c-0.4,0-0.6,0.2-0.6,0.6c0,0.2,0.1,0.5,0.4,0.5c0,0.4,0.5,0.7,1.1,0.7c0.1,0,0.1,0,0.2,0c0.1,0.1,0.2,0.2,0.6,0.4H23
					c0,0,0,0,0,0.1v0.1h-0.1c-0.2,0-0.6,0.2-0.7,0.6c-0.6,0-1.1,0.5-1.1,1.1l0,0c-0.2,0.1-0.4,0.2-0.4,0.5c0,0.4,0.2,0.6,0.6,0.6
					c0.2,0,0.4-0.1,0.5-0.2c0.1,0,0.2,0,0.2,0c0.5,0,0.9-0.2,1.1-0.8c0.6,0,0.7-0.6,0.8-0.8c0-0.1,0-0.2,0.1-0.2s0.1,0.1,0.1,0.2
					c0,0.2,0.1,0.4,0.2,0.5C24.3,224.9,24.7,225.4,25.3,225.4"/>
			</g>
			<g id="g15922" transform="translate(440.1505,699.0592)">
				<path id="path15924" class="st0" d="M23.6,229.9c-0.2-0.2-0.4-0.4-0.8-0.9c-0.6-0.7-0.9-1.3-1.4-2.5c0.1,0,0.2,0,0.4,0
					c0.1,0,0.1,0,0.2,0l0.1,0.1c0.2,0.6,0.7,1.4,1.2,2.1l0.2,0.2c0.6,0.6,0.9,1.1,1.1,1.9c0.1,0.4,0.1,0.6,0.4,0.8
					c0.2,0.2,0.5,0.2,0.7,0.2c0.2,0,0.4,0,0.6-0.1c0.2-0.1,0.2-0.1,0.5-0.1c0.1,0,0.1,0,0.2,0l-0.2-0.4l0.4-0.2
					c-0.5-0.1-0.7-0.6-0.8-0.8v-0.1c0,0,0-0.1,0.1-0.1c0,0,0.1,0,0.1,0.1c0.2,0.2,0.5,0.5,1.3,0.7l-0.6,0.5l0.5,0.7H27
					c-0.2,0-0.5,0-0.7,0.1c-0.4,0.1-0.5,0.2-0.8,0.2c-0.4,0-0.7-0.1-0.9-0.4c-0.4-0.2-0.4-0.7-0.5-1.1
					C24,230.5,23.9,230.1,23.6,229.9"/>
			</g>
			<g id="g15926" transform="translate(442.4087,692.3728)">
				<path id="path15928" class="st0" d="M22.3,233.8c-0.2-0.4-0.6-0.7-0.8-1.2c0.1,0,0.4-0.2,0.5-0.2c0.2,0.5,0.7,0.9,0.9,1.4
					c0.2,0.4,0.4,0.5,0.4,1.1c0,0.1,0,0.1,0,0.2c0,0.2,0.1,0.5,0.4,0.7c0.2,0.2,0.5,0.2,0.7,0.2s0.4-0.1,0.6-0.1
					c0.1,0,0.2,0,0.4,0.1h0.1l-0.2-0.5l0.5-0.2c-0.2-0.2-0.9-0.9-0.9-1.9c0-0.4,0-0.6,0.1-0.9c0,0,0,0,0.1,0c0,0,0.1,0,0.1,0.1v0.1
					c0,0.2,0,0.7,0.1,1.1c0.2,0.7,0.7,1.3,1.2,1.5l-0.7,0.4l0.4,0.7l-0.4-0.1c-0.2,0-0.4-0.1-0.5-0.1s-0.2,0-0.4,0
					c-0.1,0-0.2,0-0.5,0c-0.4,0-0.7-0.1-0.9-0.4c-0.5-0.5-0.5-0.8-0.5-1.3C22.6,234.3,22.6,234.1,22.3,233.8"/>
			</g>
			<g id="g15930" transform="translate(467.6031,691.774)">
				<path id="path15932" class="st0" d="M7.7,234C7.7,234.1,7.6,234.1,7.7,234c-0.1,0-0.1,0-0.1,0s0-0.1,0.1-0.4
					c0.4-0.6,0.7-1.1,1.2-1.5c0.5-0.6,1.2-1.1,1.8-1.5l0.2-0.1c0,0,0,0,0.1,0c0,0,0.1,0,0.1,0.1c0,0,0,0,0,0.1
					c-0.6,0.6-1.3,1.2-1.9,1.9C8.6,233,8.2,233.6,7.7,234"/>
			</g>
			<g id="g15934" transform="translate(436.0071,696.2215)">
				<path id="path15936" class="st0" d="M26,231.5c0.1,0.1,0.2,0.4,0.4,0.5c-0.4,0.6-0.8,1.3-1.1,1.5l-0.2-0.2
					C25.3,232.9,25.6,232.4,26,231.5"/>
			</g>
			<g id="g15938" transform="translate(428.8102,705.0874)">
				<path id="path15940" class="st0" d="M30.2,226.4C30.1,226.4,30.1,226.4,30.2,226.4c0,0.1,0,0.1,0,0.1l0,0
					c0.4-0.1,0.6-0.2,0.8-0.5c0.2-0.1,0.4-0.4,0.6-0.6l-0.1-0.2C31.3,225.5,30.6,226,30.2,226.4"/>
			</g>
			<g id="g15942" transform="translate(435.7715,701.7983)">
				<path id="path15944" class="st0" d="M26.2,228.3l-0.2,0.1c0.1,0.4,0.4,0.7,0.6,0.9c0.1,0.1,0.2,0.4,0.5,0.5c0,0,0,0,0.1,0
					c0,0,0.1,0,0.1-0.1c0,0,0,0,0-0.1C26.8,229.2,26.3,228.5,26.2,228.3"/>
			</g>
			<g id="g15946" transform="translate(429.1147,697.2427)">
				<path id="path15948" class="st0" d="M30,230.9C29.9,230.9,29.9,230.9,30,230.9c-0.1,0-0.1,0-0.1,0s0,0,0,0.1
					c0.5,0.4,0.9,0.6,1.5,0.7l0.1-0.2L30,230.9z"/>
			</g>
			<g id="g15950" transform="translate(454.2989,704.8614)">
				<path id="path15952" class="st0" d="M15.5,226.5c0,0.1,0.1,0.4,0.4,0.4c0.1,0,0.2,0,0.2,0c0.1,0,0.1-0.1,0.1-0.2
					c0-0.1-0.1-0.1-0.2-0.2c-0.1-0.1-0.2-0.2-0.4-0.2C15.5,226.2,15.5,226.4,15.5,226.5"/>
			</g>
			<g id="g15954" transform="translate(444.3332,701.9946)">
				<path id="path15956" class="st0" d="M21.2,228.2c0,0.2,0.1,0.4,0.4,0.4c0.1,0,0.2,0,0.2-0.1l0.1-0.1c0-0.1-0.1-0.2-0.2-0.2
					c-0.1,0-0.2-0.1-0.2-0.1C21.2,228,21.2,228.1,21.2,228.2"/>
			</g>
			<g id="g15958" transform="translate(446.6406,695.9366)">
				<path id="path15960" class="st0" d="M19.9,231.7v0.1c0,0.1,0.1,0.2,0.2,0.2c0.1,0,0.1,0,0.2-0.1c0.1,0,0.1-0.1,0.1-0.1
					c0-0.2-0.4-0.4-0.5-0.4C19.9,231.5,19.9,231.5,19.9,231.7"/>
			</g>
			<g id="g15962" transform="translate(442.7721,683.546)">
				<path id="path15964" class="st0" d="M22.1,238.8c-0.6,0-0.8,0.2-0.8,0.6c0,0.6,1.1,1.2,2,1.5l0.2-0.4c-0.6-0.2-1.8-0.7-1.8-1.2
					c0-0.1,0.1-0.2,0.5-0.2c0.6,0,1.3,0.2,1.9,0.6h0.1c0.1,0,0.1,0,0.2-0.1l0.1-0.1C23.8,239.3,22.9,238.8,22.1,238.8"/>
			</g>
			<g id="g15966" transform="translate(446.4247,683.1725)">
				<path id="path15968" class="st0" d="M19.9,239.1c-0.6-0.4-1.1-0.5-1.7-0.5c-0.6,0-1.1,0.2-1.4,0.8c-0.1,0.2-0.4,0.6-0.5,0.9
					c-0.2,0.4-0.4,0.6-0.8,0.6c-0.4,0-0.7-0.1-1.1-0.2v-0.1c0-0.1,0.1-0.2,0.2-0.2h0.1c0.2,0.1,0.4,0.1,0.6,0.1
					c0.4,0,0.5-0.2,0.7-0.6l0.1-0.1c-0.2-0.1-0.7-0.1-1.1-0.1H15v-0.2c0-0.1,0-0.1,0.1-0.1c0.1,0,0.2,0,0.4,0c0.5,0,0.8,0,1.1,0.1
					c0.5-0.7,1.2-1.1,1.9-1.1c0.6,0,1.2,0.2,1.8,0.5L19.9,239.1z"/>
			</g>
			<g id="g15970" transform="translate(447.7597,682.7307)">
				<path id="path15972" class="st0" d="M19.2,239.4l-0.1,0.4c0.8,0.5,1.7,0.8,2.8,0.9c0-0.5,0-1.1,0.4-1.1s1.1,0.8,1.9,1.9
					c0.1-0.1,0.2-0.1,0.4-0.2l-0.2-0.2c-0.8-1.1-1.4-1.9-2-1.9c-0.5,0-0.7,0.6-0.7,1.1C20.8,240.1,19.9,239.8,19.2,239.4"/>
			</g>
			<g id="g15974" transform="translate(473.7398,702.4365)">
				<path id="path15976" class="st0" d="M4.1,227.9c-0.4,0-0.4,0.2-0.4,0.5c0,0.5,0.4,1.3,0.6,1.7H3.7c-0.2-0.5-1.3-2.1-1.9-2.8
					l0.4-0.4c0.4,0.4,0.6,0.9,0.9,1.4h0.1v-0.1c0-0.5,0.2-0.8,0.8-0.8c0.4,0,0.9,0.2,1.4,0.4s0.8,0.4,1.1,0.4v0.5
					c-0.2-0.1-0.7-0.2-1.2-0.5C4.9,228,4.4,227.9,4.1,227.9"/>
			</g>
			<g id="g15978" transform="translate(476.3611,698.8726)">
				<path id="path15980" class="st0" d="M2.7,230c0.5,0.2,1.4,0.6,1.9,0.7v0.5c-1.1-0.4-2.8-1.2-4-1.8l0.2-0.4
					c0.5,0.2,0.9,0.4,1.4,0.4c0.6,0,1.1,0,1.9,0.2v0.4c-0.5-0.1-0.9-0.2-1.3-0.2C2.6,229.8,2.6,229.8,2.7,230
					C2.6,229.9,2.6,230,2.7,230"/>
			</g>
		</g>
	</g>
</g>
<g id="g15982" transform="matrix(2.1025538,0,0,-2.1025538,3.2464737,509.99979)">
	<path id="path15984" class="st0" d="M17.3,233.1l-0.2-0.4h2.1l-0.1,0.4H17.3z"/>
</g>
<g id="g15986" transform="matrix(2.1025538,0,0,-2.1025538,-945.43842,1967.8152)">
	<g>
		<g id="g15988">
			<g id="g15994" transform="translate(433.1302,687.9642)">
				<path id="path15996" class="st0" d="M28.9,236.5c0.2,0,0.4,0.1,0.6,0.1c0.1,0.1,0.4,0.1,0.6,0.1c0.5,0,1.2-0.2,1.8-0.5h0.1
					c0.1,0,0.1,0,0.2,0.1l0.1,0.1c-0.6,0.4-1.7,0.7-2.1,0.7c-0.2,0-0.4-0.1-0.6-0.1c-0.2-0.1-0.4-0.1-0.5-0.1
					c-0.5,0-1.5,0.4-1.5,0.8s1.7,0.7,1.9,0.7l0.1,0.4c-1.2,0-2.7-0.5-2.7-1.1c0-0.1,0.1-0.2,0.1-0.4c0-0.2-0.1-0.4-0.1-0.6
					c0-0.1,0.1-0.4,0.2-0.5c0.1-0.2,0.2-0.2,0.2-0.5c0-0.1-0.1-0.2-0.1-0.5c0-0.6,0.4-0.9,0.9-1.5l0.1-0.1c-0.5-0.2-1.4-0.6-1.7-0.7
					c-0.8-0.4-0.9-0.7-0.9-1.3c0-0.2,0-0.5,0-0.7h0c0.4,0,0.4,0.2,0.4,0.4s0,0.2,0,0.4c0,0.4,0,0.6,0.6,0.9c0.2,0.1,1.3,0.6,2.1,0.9
					c0.2,0.1,0.5,0.2,0.7,0.2c0.2,0,0.6-0.1,0.9-0.4s0.7-0.5,0.9-0.8l0.4,0.2c-0.4,0.4-0.7,0.7-1.2,0.9c-0.5,0.2-0.8,0.4-1.1,0.4
					c-0.1,0-0.2,0-0.4,0c-0.1,0-0.2-0.1-0.4-0.1c-0.1,0-0.2,0-0.5,0.2c-0.1,0.1-0.5,0.6-0.6,0.7c0,0.1-0.1,0.2-0.1,0.4
					c0,0.1,0,0.1,0,0.2c0.4-0.4,0.8-0.5,1.4-0.6l-0.1,0.4c-0.8,0.2-1.8,0.9-1.8,1.4c0,0.1,0,0.1,0.1,0.2
					C27.7,236.8,28.5,236.5,28.9,236.5"/>
			</g>
			<g id="g15998" transform="translate(447.2593,687.7871)">
				<path id="path16000" class="st0" d="M20.7,236.6c0.5,0.4,1.1,0.4,1.5,0.4c0.2,0,0.6,0,0.9-0.1c0.2,0,0.5,0,0.8,0
					c0.6,0,1.2,0.2,1.4,0.4c0.1-0.1,0.2-0.2,0.2-0.2c-0.1-0.1-0.8-0.5-1.7-0.5c-0.4,0-0.7,0-0.9,0.1c-0.2,0-0.5,0.1-0.8,0.1
					c-0.2,0-0.8-0.1-1.2-0.2L20.7,236.6z"/>
			</g>
			<g id="g16002" transform="translate(465.4921,684.282)">
				<path id="path16004" class="st0" d="M10.2,238.6c-0.6-1.3-1.5-2.2-2.5-2.8c-0.5-0.2-0.8-0.5-1.8-0.5h-2c-0.7,0-1.2-0.1-1.4-0.2
					c-0.4-0.1-0.6-0.2-0.9-0.2c-0.6,0-1.1,0.2-1.3,0.5l0.5,0.4L0.5,236c-0.1-0.1-1.8-1.3-2.1-1.5l0,0c0,0.1,0,0.1,0,0.2
					c0,0.9-0.5,1.2-1.1,1.4l-0.5-0.2c0.8-0.2,1.1-0.5,1.1-1.2c0-0.5-0.2-0.7-0.5-0.8c-0.2-0.1-0.6-0.2-0.9-0.2c-0.1,0-0.2,0-0.2-0.1
					c0,0-0.1-0.1-0.1-0.2v-0.1h0.1c0.6,0,1.1,0.1,1.7,0.5l1.8,1.4c0.2-0.4,0.9-0.7,1.7-0.7c0.5,0,0.7,0.1,1.2,0.2
					c0.4,0.1,0.6,0.1,1.3,0.1h1.9c0.9,0,1.4,0.2,2,0.5c1.2,0.6,2.1,1.8,2.7,3C10.4,238.5,10.3,238.6,10.2,238.6"/>
			</g>
			<g id="g16006" transform="translate(458.0988,680.5901)">
				<path id="path16008" class="st0" d="M14.4,240.7c0.5,0.8,0.9,1.5,2,2.1c-0.1,0.1-0.2,0.2-0.4,0.2c-0.5-0.2-0.8-0.6-1.2-0.9
					c-0.8-0.8-0.7-1.3-1.7-1.7c-0.2-0.1-0.5-0.1-0.8-0.2c-0.2,0.6-0.7,1.3-1.3,1.3c-0.4,0-0.8-0.2-1.3-0.4c-0.6-0.2-1.1-0.6-1.3-0.7
					l0.2-0.4c0.1,0.1,0.7,0.4,1.2,0.6c0.5,0.2,0.8,0.4,1.1,0.4c0.5,0,0.7-0.5,0.8-0.8c-0.6-0.1-1.4-0.1-1.8-0.1c-0.1,0-0.1,0-0.2,0
					c0,0-0.1-0.1-0.1-0.2v-0.1h0.5c1.5,0,3,0.2,3.9,0.8c0.1,0,0.2-0.1,0.4-0.1c0.6,0,1.1,0.2,1.4,0.6c0.1,0.1,0.1,0.2,0.1,0.2v0.1
					v0.1c-0.5-0.4-0.9-0.7-1.4-0.7C14.5,240.7,14.5,240.7,14.4,240.7"/>
			</g>
			<g id="g16010" transform="translate(430.0615,650.2685)">
			</g>
			<g id="g16014" transform="translate(439.0743,650.1949)">
			</g>
			<g id="g16018" transform="translate(447.4737,650.1949)">
			</g>
			<g id="g16022" transform="translate(458.0938,650.3558)">
			</g>
		</g>
	</g>
</g>
</svg>
