<?xml version="1.0" encoding="utf-8"?>
<!-- Generator: Adobe Illustrator 27.1.1, SVG Export Plug-In . SVG Version: 6.00 Build 0)  -->
<svg version="1.1"
	 id="svg16893" xmlns:cc="http://creativecommons.org/ns#" xmlns:rdf="http://www.w3.org/1999/02/22-rdf-syntax-ns#" xmlns:dc="http://purl.org/dc/elements/1.1/" xmlns:svg="http://www.w3.org/2000/svg"
	 xmlns="http://www.w3.org/2000/svg" xmlns:xlink="http://www.w3.org/1999/xlink" x="0px" y="0px" viewBox="0 0 158 48"
	 style="enable-background:new 0 0 158 48;" xml:space="preserve">
<style type="text/css">
	.st0{fill:#FFFFFF;}
</style>
<g id="g15902" transform="matrix(2.1025538,0,0,-2.1025538,-945.43842,1967.8152)">
	<g>
		<g id="g15904">
			<g id="g15910" transform="translate(500.6749,698.2117)">
				<path id="path15912" class="st0" d="M-11.8,229.7c-0.1-0.1-0.1-0.2-0.1-0.3v-4.6h0c0,0-2.5,4.5-2.6,4.7
					c-0.1,0.1-0.2,0.2-0.3,0.3c-0.1,0.1-0.3,0.1-0.5,0.1h-0.8c-0.2,0-0.3-0.1-0.4-0.2c-0.1-0.1-0.1-0.2-0.1-0.3v-6.5
					c0-0.2,0-0.3,0.1-0.3c0.1-0.1,0.2-0.2,0.4-0.2h0.5c0.2,0,0.3,0.1,0.4,0.2c0.1,0.1,0.1,0.2,0.1,0.3v4.7h0c0,0,2.6-4.6,2.7-4.8
					c0.1-0.2,0.4-0.4,0.7-0.4h0.8c0.2,0,0.3,0.1,0.4,0.2c0.1,0.1,0.1,0.2,0.1,0.3v5.8H0.1c0.1,0,0.2,0,0.2,0.1
					c0.1,0.1,0.1,0.1,0.1,0.3v0.4c0,0.1,0,0.2-0.1,0.3c-0.1,0.1-0.1,0.1-0.2,0.1h-11.5C-11.6,229.9-11.7,229.8-11.8,229.7 M-7.2,228
					c-1.7,0-2.7-1.4-2.7-2.8c0-1.5,1.1-2.9,2.7-2.9c0.8,0,1.7,0.3,2.1,0.9c0.2,0.2,0.4,0.6,0.4,0.8c0,0.1,0,0.1-0.1,0.2
					c0,0.1-0.1,0.1-0.2,0.1h-0.8c-0.2,0-0.3-0.1-0.4-0.2c-0.2-0.3-0.6-0.5-1.1-0.5c-0.8,0-1.2,0.6-1.3,1.2H-5c0.2,0,0.3,0,0.3,0.1
					c0.1,0.1,0.1,0.2,0.1,0.4c0,0.7-0.2,1.3-0.6,1.9C-5.6,227.6-6.3,228-7.2,228 M-1.8,228c-1.4,0-2.3-0.7-2.3-1.7
					c0-0.4,0.1-0.7,0.4-0.9c0.3-0.3,0.6-0.5,1.2-0.6l1.2-0.3c0.3-0.1,0.6-0.2,0.6-0.5c0-0.4-0.5-0.6-0.9-0.6c-0.2,0-0.5,0-0.7,0.1
					c-0.1,0.1-0.3,0.2-0.3,0.3c-0.1,0.1-0.1,0.2-0.2,0.3c-0.1,0-0.2,0-0.3,0h-0.6c-0.1,0-0.2,0-0.2-0.1s-0.1-0.1-0.1-0.2
					c0-0.2,0.1-0.5,0.2-0.7c0.4-0.5,1.2-0.9,2.2-0.9c1,0,2.4,0.4,2.4,1.8c0,0.3-0.1,0.6-0.3,0.9c-0.2,0.3-0.6,0.5-1.1,0.7l-1.1,0.3
					c-0.5,0.1-0.7,0.2-0.7,0.5c0,0.3,0.3,0.5,0.8,0.5c0.3,0,0.7-0.1,0.9-0.3c0.2-0.2,0.1-0.3,0.3-0.3c0.1,0,0.2,0,0.3,0h0.6
					c0.1,0,0.2,0,0.2,0.1c0,0,0.1,0.1,0.1,0.2c0,0.3-0.2,0.6-0.5,0.9C-0.4,227.7-1.1,228-1.8,228 M1.3,227.8H1c-0.1,0-0.2,0-0.2-0.1
					c-0.1-0.1-0.1-0.1-0.1-0.3v-0.3c0-0.1,0-0.2,0.1-0.3c0.1-0.1,0.1-0.1,0.2-0.1h0.3v-2.5c0-0.6,0.2-1,0.5-1.4
					c0.3-0.3,0.7-0.5,1.4-0.5h0.4c0.1,0,0.2,0,0.2,0.1c0.1,0.1,0.1,0.1,0.1,0.3v0.4c0,0.1,0,0.2-0.1,0.3c-0.1,0.1-0.1,0.1-0.2,0.1
					H3.6c-0.3,0-0.5,0.1-0.6,0.2c-0.2,0.1-0.2,0.4-0.2,0.6v2.4h0.9c0.1,0,0.2,0,0.2,0.1C4,226.9,4,227,4,227.1v0.3
					c0,0.1,0,0.2-0.1,0.3c-0.1,0.1-0.1,0.1-0.2,0.1H2.8v1.6c0,0.1,0,0.2-0.1,0.3c-0.1,0.1-0.2,0.1-0.3,0.1H1.7
					c-0.2,0-0.3-0.1-0.3-0.1c-0.1-0.1-0.1-0.2-0.1-0.3C1.3,229.4,1.3,227.8,1.3,227.8z M4.4,222.8c0-0.1,0-0.2,0.1-0.3
					c0.1-0.1,0.2-0.1,0.3-0.1h0.6c0.2,0,0.3,0.1,0.3,0.1c0.1,0.1,0.1,0.2,0.1,0.3v6.6c0,0.1,0,0.2-0.1,0.3c-0.1,0.1-0.2,0.1-0.3,0.1
					H4.8c-0.2,0-0.3-0.1-0.3-0.1c-0.1-0.1-0.1-0.2-0.1-0.3V222.8z M-8.5,225.8c0.1,0.6,0.5,1.1,1.3,1.1c0.7,0,1.2-0.5,1.3-1.1
					C-6,225.8-8.5,225.8-8.5,225.8z M11.3,228.7c0.1,0,0.2,0,0.2,0.1c0.1,0.1,0.1,0.1,0.1,0.3v0.5c0,0.2,0,0.3-0.1,0.3
					c-0.1,0.1-0.1,0.1-0.2,0.1c-0.1,0-0.2,0-0.3,0l-4-0.4c-0.1,0-0.2,0-0.2-0.1c0-0.1-0.1-0.1-0.1-0.2V229c0-0.1,0-0.1,0.1-0.2
					c0-0.1,0.1-0.1,0.2-0.1H11.3L11.3,228.7z M9.1,228c-1.7,0-2.7-1.4-2.7-2.8c0-1.5,1.1-2.9,2.7-2.9c0.8,0,1.7,0.3,2.1,0.9
					c0.2,0.2,0.4,0.6,0.4,0.8c0,0.1,0,0.1-0.1,0.2c0,0.1-0.1,0.1-0.2,0.1h-0.8c-0.2,0-0.3-0.1-0.4-0.2c-0.2-0.3-0.6-0.5-1.1-0.5
					c-0.8,0-1.2,0.6-1.3,1.2h3.5c0.2,0,0.3,0,0.3,0.1c0.1,0.1,0.1,0.2,0.1,0.4c0,0.7-0.2,1.3-0.6,1.9C10.7,227.6,10,228,9.1,228
					 M7.8,225.8c0.1,0.6,0.5,1.1,1.3,1.1c0.7,0,1.2-0.5,1.3-1.1H7.8z"/>
			</g>
			<g id="g15914" transform="translate(471.0004,695.3475)">
				<path id="path15916" class="st0" d="M7.3,231.5c-1.3,1.9-2.4,2.6-2.8,2.9c-0.4,0.3-0.6,0.7-0.8,0.9c-0.4,0.4-0.9,0.9-1.7,0.9
					c-0.8,0-1.3-0.5-1.5-1c0-0.1-0.1-0.3-0.1-0.3c-0.1-0.1-0.4-0.7-0.6-1h0.6l-0.3-0.6c0.4,0.1,0.6,0.1,1,0.1c0.3,0,0.5-0.1,0.6-0.3
					C2,233,2,231.9,2.3,231c0.3-0.8,1-1.5,1.8-2.1c0,0,0,0,0,0c0,0,0.1,0,0.1,0.1c0,0,0,0,0,0.1c-0.7,0.7-1.2,1.4-1.5,2.2
					c-0.3,0.8-0.2,1.9-0.5,2.4c-0.2,0.3-0.5,0.4-0.8,0.4c-0.3,0-0.5-0.1-0.6-0.1l0.3,0.5H0.6c0.1,0.2,0.2,0.3,0.3,0.4
					c0,0.1,0.1,0.2,0.1,0.3c0.2,0.5,0.6,0.7,1.1,0.7c0.7,0,1-0.4,1.4-0.8c0.2-0.2,0.5-0.6,0.8-0.9c0.2-0.2,0.7-0.4,1.3-1.1
					c0.4-0.4,0.8-0.9,1.3-1.6c1.7-2.5,2.8-4.7,3.4-6.4l0,0c-1.8,1.2-3.3,2.3-4.5,3.7c-0.9,1-1.6,2.2-2.3,3.6c0,0.1-0.1,0.2-0.1,0.3
					c0,0,0,0-0.1,0c0,0-0.1,0-0.1-0.1c0,0,0-0.1,0.1-0.3c0.4-1.5,1.3-2.9,2.4-4c1-1.1,2.2-2.1,3.2-2.8l0.8-2.2c0-0.1,0-0.1,0-0.2
					c0,0,0-0.1,0-0.1c0,0,0,0-0.1,0H9.3c-0.1,0-0.1,0-0.2,0c0,0-0.1,0.1-0.1,0.1c-0.1,0.2-0.5,1.3-0.5,1.6c0,0,0,0.1-0.1,0.1
					c0,0-0.1,0-0.1-0.1c0,0,0-0.1,0-0.2c0.1-0.5,0.2-1.1,0.3-1.3c0-0.1,0-0.2,0-0.3c0-0.1,0-0.1-0.1-0.2l-0.2-0.2
					c-0.1-0.1-0.1-0.1-0.1-0.1c-0.1,0-0.1,0-0.1,0.1c-0.3,1.2-0.7,2.8-0.8,3.2c0,0.1,0,0.1-0.1,0.1c0,0-0.1,0-0.1-0.1
					c0,0,0-0.1,0-0.1c0.1-0.4,0.3-2,0.6-3.5c0-0.3,0.1-0.4,0.4-0.4c0.1,0,0.2,0,0.3,0.1c0.1,0.1,0.2,0.2,0.4,0.3
					c0.1,0.1,0.2,0.2,0.4,0.2h0.5c0.1,0,0.2,0,0.2,0.1c0.1,0.1,0.1,0.1,0.1,0.2c0,0.1,0,0.2-0.1,0.3c-0.1,0.4-0.6,1.6-0.7,1.9l0,0
					c0.4-0.3,1.1-0.8,1.4-0.8c0.1,0,0.1,0,0.1,0.2C10.8,225.3,9.8,227.9,7.3,231.5"/>
			</g>
			<g id="g15918" transform="translate(437.2935,706.7568)">
				<path id="path15920" class="st0" d="M29,224.2c0.1,0.2,0.2,0.3,0.4,0.3c0.3,0,0.5-0.2,0.5-0.5c0-0.2-0.1-0.3-0.2-0.4
					c0-0.1,0-0.2,0-0.2c0-0.3-0.2-0.5-0.5-0.6c0-0.2-0.1-0.3-0.2-0.5c-0.2-0.2-0.4-0.2-0.4-0.3c0,0,0-0.1,0.1-0.1
					c0.4,0,0.8,0.2,0.8,0.6c0.4,0.1,0.6,0.5,0.6,0.8c0,0.1,0,0.1,0,0.2c0.1,0.1,0.2,0.3,0.2,0.5c0,0.2-0.1,0.4-0.3,0.6
					c-0.1,0.1-0.4,0.2-0.6,0.2c-0.3,0-0.6-0.2-0.7-0.4c-0.4,0-0.9-0.4-0.9-1h-0.1c0,0.2-0.3,0.4-0.4,0.4c-0.1,0.4-0.5,0.8-1,0.8
					c-0.1,0-0.1,0-0.2,0c-0.2,0.1-0.3,0.2-0.6,0.2c-0.5,0-0.9-0.4-0.9-0.9c0-0.3,0.1-0.5,0.4-0.7c0,0,0,0,0-0.1c0-0.4,0.4-1,1-1
					c0-0.1,0.1-0.2,0.3-0.3v0h-0.1c-0.9,0-1.2-0.4-1.2-0.7c-0.3-0.1-0.4-0.4-0.4-0.7c0-0.5,0.4-0.9,0.9-0.9c0.2,0,0.3,0.1,0.5,0.2
					c0.1,0,0.2,0,0.3,0c0.2,0,0.5,0.1,0.7,0.4c0,0,0.1,0,0.1,0c0.3,0,0.6,0.2,0.7,0.5c0,0.1,0,0.1,0,0.2c0,0,0,0.1-0.1,0.1
					c0,0-0.1,0-0.1-0.1c-0.2-0.2-0.5-0.2-0.8-0.2c-0.2-0.2-0.3-0.3-0.5-0.3c-0.2,0-0.3,0-0.4,0.1c-0.1-0.1-0.2-0.2-0.3-0.2
					c-0.3,0-0.5,0.2-0.5,0.5c0,0.2,0.1,0.4,0.3,0.4c0,0.3,0.4,0.6,0.9,0.6c0.1,0,0.1,0,0.2,0c0.1,0.1,0.2,0.2,0.5,0.3
					c0,0,0.1,0,0.1,0c0,0,0,0,0,0.1c0,0,0,0.1,0,0.1c0,0-0.1,0-0.1,0c-0.2,0-0.5,0.2-0.6,0.5c-0.5,0-0.9,0.4-0.9,0.9v0
					c-0.2,0.1-0.3,0.2-0.3,0.4c0,0.3,0.2,0.5,0.5,0.5c0.2,0,0.3-0.1,0.4-0.2c0.1,0,0.2,0,0.2,0c0.4,0,0.8-0.2,0.9-0.7
					c0.5,0,0.6-0.5,0.7-0.7c0-0.1,0-0.2,0.1-0.2c0.1,0,0.1,0.1,0.1,0.2c0,0.2,0.1,0.3,0.2,0.4C28.2,223.8,28.5,224.2,29,224.2"/>
			</g>
			<g id="g15922" transform="translate(440.1505,699.0592)">
				<path id="path15924" class="st0" d="M27.2,229.2c-0.2-0.2-0.3-0.3-0.7-0.8c-0.5-0.6-0.8-1.1-1.2-2.1c0.1,0,0.2,0,0.3,0
					c0.1,0,0.1,0,0.2,0l0.1,0.1c0.2,0.5,0.6,1.2,1,1.8l0.2,0.2c0.5,0.5,0.8,0.9,0.9,1.6c0.1,0.3,0.1,0.5,0.3,0.7
					c0.2,0.2,0.4,0.2,0.6,0.2c0.2,0,0.3,0,0.5-0.1c0.2-0.1,0.2-0.1,0.4-0.1c0.1,0,0.1,0,0.2,0l-0.2-0.3l0.3-0.2
					c-0.4-0.1-0.6-0.5-0.7-0.7c0,0,0-0.1,0-0.1c0,0,0-0.1,0.1-0.1c0,0,0.1,0,0.1,0.1c0.2,0.2,0.4,0.4,1.1,0.6l-0.5,0.4l0.4,0.6H30
					c-0.2,0-0.4,0-0.6,0.1c-0.3,0.1-0.4,0.2-0.7,0.2c-0.3,0-0.6-0.1-0.8-0.3c-0.3-0.2-0.3-0.6-0.4-0.9
					C27.5,229.7,27.4,229.4,27.2,229.2"/>
			</g>
			<g id="g15926" transform="translate(442.4087,692.3728)">
				<path id="path15928" class="st0" d="M25.7,233.5c-0.2-0.3-0.5-0.6-0.7-1c0.1,0,0.3-0.2,0.4-0.2c0.2,0.4,0.6,0.8,0.8,1.2
					c0.2,0.3,0.3,0.4,0.3,0.9c0,0.1,0,0.1,0,0.2c0,0.2,0.1,0.4,0.3,0.6c0.2,0.2,0.4,0.2,0.6,0.2c0.2,0,0.3-0.1,0.5-0.1
					c0.1,0,0.2,0,0.3,0.1l0.1,0l-0.2-0.4l0.4-0.2c-0.2-0.2-0.8-0.8-0.8-1.6c0-0.3,0-0.5,0.1-0.8c0,0,0,0,0.1,0c0,0,0.1,0,0.1,0.1
					l0,0.1c0,0.2,0,0.6,0.1,0.9c0.2,0.6,0.6,1.1,1,1.3l-0.6,0.3l0.3,0.6l-0.3-0.1c-0.2,0-0.3-0.1-0.4-0.1c-0.1,0-0.2,0-0.3,0
					c-0.1,0-0.2,0-0.4,0c-0.3,0-0.6-0.1-0.8-0.3c-0.4-0.4-0.4-0.7-0.4-1.1C26,233.9,26,233.8,25.7,233.5"/>
			</g>
			<g id="g15930" transform="translate(467.6031,691.774)">
				<path id="path15932" class="st0" d="M9.5,233.8C9.5,233.9,9.4,233.9,9.5,233.8c-0.1,0-0.1,0-0.1,0c0,0,0-0.1,0.1-0.3
					c0.3-0.5,0.6-0.9,1-1.3c0.4-0.5,1-0.9,1.5-1.3l0.2-0.1c0,0,0,0,0.1,0c0,0,0.1,0,0.1,0.1c0,0,0,0,0,0.1c-0.5,0.5-1.1,1-1.6,1.6
					C10.3,232.9,9.9,233.4,9.5,233.8"/>
			</g>
			<g id="g15934" transform="translate(436.0071,696.2215)">
				<path id="path15936" class="st0" d="M29.8,231c0.1,0.1,0.2,0.3,0.3,0.4c-0.3,0.5-0.7,1.1-0.9,1.3l-0.2-0.2
					C29.2,232.2,29.5,231.7,29.8,231"/>
			</g>
			<g id="g15938" transform="translate(428.8102,705.0874)">
				<path id="path15940" class="st0" d="M34.5,225.3C34.4,225.3,34.4,225.3,34.5,225.3c0,0.1,0,0.1,0,0.1c0,0,0,0,0,0
					c0.3-0.1,0.5-0.2,0.7-0.4c0.2-0.1,0.3-0.3,0.5-0.5l-0.1-0.2C35.4,224.5,34.8,225,34.5,225.3"/>
			</g>
			<g id="g15942" transform="translate(435.7715,701.7983)">
				<path id="path15944" class="st0" d="M30,227.4l-0.2,0.1c0.1,0.3,0.3,0.6,0.5,0.8c0.1,0.1,0.2,0.3,0.4,0.4c0,0,0,0,0.1,0
					c0,0,0.1,0,0.1-0.1c0,0,0,0,0-0.1C30.5,228.2,30.1,227.6,30,227.4"/>
			</g>
			<g id="g15946" transform="translate(429.1147,697.2427)">
				<path id="path15948" class="st0" d="M34.3,230.3C34.2,230.3,34.2,230.3,34.3,230.3c-0.1,0-0.1,0-0.1,0c0,0,0,0,0,0.1
					c0.4,0.3,0.8,0.5,1.3,0.6l0.1-0.2L34.3,230.3z"/>
			</g>
			<g id="g15950" transform="translate(454.2989,704.8614)">
				<path id="path15952" class="st0" d="M18.1,225.4c0,0.1,0.1,0.3,0.3,0.3c0.1,0,0.2,0,0.2,0c0.1,0,0.1-0.1,0.1-0.2
					c0-0.1-0.1-0.1-0.2-0.2c-0.1-0.1-0.2-0.2-0.3-0.2C18.1,225.2,18.1,225.3,18.1,225.4"/>
			</g>
			<g id="g15954" transform="translate(444.3332,701.9946)">
				<path id="path15956" class="st0" d="M24.5,227.3c0,0.2,0.1,0.3,0.3,0.3c0.1,0,0.2,0,0.2-0.1c0,0,0.1-0.1,0.1-0.1
					c0-0.1-0.1-0.2-0.2-0.2c-0.1,0-0.2-0.1-0.2-0.1C24.5,227.1,24.5,227.2,24.5,227.3"/>
			</g>
			<g id="g15958" transform="translate(446.6406,695.9366)">
				<path id="path15960" class="st0" d="M23,231.2c0,0,0,0.1,0,0.1c0,0.1,0.1,0.2,0.2,0.2c0.1,0,0.1,0,0.2-0.1
					c0.1,0,0.1-0.1,0.1-0.1c0-0.2-0.3-0.3-0.4-0.3C23,231,23,231,23,231.2"/>
			</g>
			<g id="g15962" transform="translate(442.7721,683.546)">
				<path id="path15964" class="st0" d="M25.5,239.1c-0.5,0-0.7,0.2-0.7,0.5c0,0.5,0.9,1,1.7,1.3l0.2-0.3c-0.5-0.2-1.5-0.6-1.5-1
					c0-0.1,0.1-0.2,0.4-0.2c0.5,0,1.1,0.2,1.6,0.5c0,0,0.1,0,0.1,0c0.1,0,0.1,0,0.2-0.1l0.1-0.1C26.9,239.5,26.2,239.1,25.5,239.1"
					/>
			</g>
			<g id="g15966" transform="translate(446.4247,683.1725)">
				<path id="path15968" class="st0" d="M23.1,239.4c-0.5-0.3-0.9-0.4-1.4-0.4c-0.5,0-0.9,0.2-1.2,0.7c-0.1,0.2-0.3,0.5-0.4,0.8
					c-0.2,0.3-0.3,0.5-0.7,0.5c-0.3,0-0.6-0.1-0.9-0.2l0-0.1c0-0.1,0.1-0.2,0.2-0.2c0,0,0.1,0,0.1,0c0.2,0.1,0.3,0.1,0.5,0.1
					c0.3,0,0.4-0.2,0.6-0.5l0.1-0.1c-0.2-0.1-0.6-0.1-0.9-0.1h-0.2l0-0.2c0-0.1,0-0.1,0.1-0.1c0.1,0,0.2,0,0.3,0
					c0.4,0,0.7,0,0.9,0.1c0.4-0.6,1-0.9,1.6-0.9c0.5,0,1,0.2,1.5,0.4L23.1,239.4z"/>
			</g>
			<g id="g15970" transform="translate(447.7597,682.7307)">
				<path id="path15972" class="st0" d="M22.3,239.7l-0.1,0.3c0.7,0.4,1.4,0.7,2.4,0.8c0-0.4,0-0.9,0.3-0.9c0.3,0,0.9,0.7,1.6,1.6
					c0.1-0.1,0.2-0.1,0.3-0.2l-0.2-0.2c-0.7-0.9-1.2-1.6-1.7-1.6c-0.4,0-0.6,0.5-0.6,0.9C23.6,240.3,22.9,240.1,22.3,239.7"/>
			</g>
			<g id="g15974" transform="translate(473.7398,702.4365)">
				<path id="path15976" class="st0" d="M5.5,227c-0.3,0-0.3,0.2-0.3,0.4c0,0.4,0.3,1.1,0.5,1.4H5.2c-0.2-0.4-1.1-1.8-1.6-2.4
					l0.3-0.3c0.3,0.3,0.5,0.8,0.8,1.2h0.1c0,0,0-0.1,0-0.1c0-0.4,0.2-0.7,0.7-0.7c0.3,0,0.8,0.2,1.2,0.3c0.4,0.1,0.7,0.3,0.9,0.3
					v0.4c-0.2-0.1-0.6-0.2-1-0.4C6.2,227.1,5.8,227,5.5,227"/>
			</g>
			<g id="g15978" transform="translate(476.3611,698.8726)">
				<path id="path15980" class="st0" d="M3.9,229.3c0.4,0.2,1.2,0.5,1.6,0.6v0.4c-0.9-0.3-2.4-1-3.4-1.5c0,0,0.2-0.3,0.2-0.3
					c0.4,0.2,0.8,0.3,1.2,0.3c0.5,0,0.9,0,1.6,0.2v0.3c-0.4-0.1-0.8-0.2-1.1-0.2C3.8,229.1,3.8,229.1,3.9,229.3
					C3.8,229.2,3.8,229.3,3.9,229.3"/>
			</g>
		</g>
	</g>
</g>
<g id="g15982" transform="matrix(2.1025538,0,0,-2.1025538,3.2464737,509.99979)">
	<path id="path15984" class="st0" d="M20.1,232.8l-0.2-0.3h1.8l-0.1,0.3H20.1z"/>
</g>
<g id="g15986" transform="matrix(2.1025538,0,0,-2.1025538,-945.43842,1967.8152)">
	<g>
		<g id="g15988">
			<g id="g15994" transform="translate(433.1302,687.9642)">
				<path id="path15996" class="st0" d="M32.7,236.5c0.2,0,0.3,0.1,0.5,0.1c0.1,0.1,0.3,0.1,0.5,0.1c0.4,0,1-0.2,1.5-0.4
					c0,0,0.1,0,0.1,0c0.1,0,0.1,0,0.2,0.1l0.1,0.1c-0.5,0.3-1.4,0.6-1.8,0.6c-0.2,0-0.3-0.1-0.5-0.1c-0.2-0.1-0.3-0.1-0.4-0.1
					c-0.4,0-1.3,0.3-1.3,0.7c0,0.4,1.4,0.6,1.6,0.6l0.1,0.3c-1,0-2.3-0.4-2.3-0.9c0-0.1,0.1-0.2,0.1-0.3c0-0.2-0.1-0.3-0.1-0.5
					c0-0.1,0.1-0.3,0.2-0.4c0.1-0.2,0.2-0.2,0.2-0.4c0-0.1-0.1-0.2-0.1-0.4c0-0.5,0.3-0.8,0.8-1.3l0.1-0.1c-0.4-0.2-1.2-0.5-1.4-0.6
					c-0.7-0.3-0.8-0.6-0.8-1.1c0-0.2,0-0.4,0-0.6H30c0.3,0,0.3,0.2,0.3,0.3c0,0.1,0,0.2,0,0.3c0,0.3,0,0.5,0.5,0.8
					c0.2,0.1,1.1,0.5,1.8,0.8c0.2,0.1,0.4,0.2,0.6,0.2c0.2,0,0.5-0.1,0.8-0.3c0.3-0.2,0.6-0.4,0.8-0.7l0.3,0.2
					c-0.3,0.3-0.6,0.6-1,0.8c-0.4,0.2-0.7,0.3-0.9,0.3c-0.1,0-0.2,0-0.3,0c-0.1,0-0.2-0.1-0.3-0.1c-0.1,0-0.2,0-0.4,0.2
					c-0.1,0.1-0.4,0.5-0.5,0.6c0,0.1-0.1,0.2-0.1,0.3c0,0.1,0,0.1,0,0.2c0.3-0.3,0.7-0.4,1.2-0.5l-0.1,0.3c-0.7,0.2-1.5,0.8-1.5,1.2
					c0,0.1,0,0.1,0.1,0.2C31.7,236.7,32.4,236.5,32.7,236.5"/>
			</g>
			<g id="g15998" transform="translate(447.2593,687.7871)">
				<path id="path16000" class="st0" d="M23.6,236.6c0.4,0.3,0.9,0.3,1.3,0.3c0.2,0,0.5,0,0.8-0.1c0.2,0,0.4,0,0.7,0
					c0.5,0,1,0.2,1.2,0.3c0.1-0.1,0.2-0.2,0.2-0.2c-0.1-0.1-0.7-0.4-1.4-0.4c-0.3,0-0.6,0-0.8,0.1c-0.2,0-0.4,0.1-0.7,0.1
					c-0.2,0-0.7-0.1-1-0.2L23.6,236.6z"/>
			</g>
			<g id="g16002" transform="translate(465.4921,684.282)">
				<path id="path16004" class="st0" d="M11.9,238.8c-0.5-1.1-1.3-1.9-2.1-2.4c-0.4-0.2-0.7-0.4-1.5-0.4H6.6c-0.6,0-1-0.1-1.2-0.2
					c-0.3-0.1-0.5-0.2-0.8-0.2c-0.5,0-0.9,0.2-1.1,0.4l0.4,0.3l-0.2,0.3c-0.1-0.1-1.5-1.1-1.8-1.3l0,0c0,0.1,0,0.1,0,0.2
					c0,0.8-0.4,1-0.9,1.2l-0.4-0.2c0.7-0.2,0.9-0.4,0.9-1c0-0.4-0.2-0.6-0.4-0.7c-0.2-0.1-0.5-0.2-0.8-0.2c-0.1,0-0.2,0-0.2-0.1
					c0,0-0.1-0.1-0.1-0.2v-0.1h0.1c0.5,0,0.9,0.1,1.4,0.4l1.5,1.2c0.2-0.3,0.8-0.6,1.4-0.6c0.4,0,0.6,0.1,1,0.2
					c0.3,0.1,0.5,0.1,1.1,0.1h1.6c0.8,0,1.2,0.2,1.7,0.4c1,0.5,1.8,1.5,2.3,2.5C12.1,238.7,12,238.8,11.9,238.8"/>
			</g>
			<g id="g16006" transform="translate(458.0988,680.5901)">
				<path id="path16008" class="st0" d="M16.6,241.2c0.4,0.7,0.8,1.3,1.7,1.8c-0.1,0.1-0.2,0.2-0.3,0.2c-0.4-0.2-0.7-0.5-1-0.8
					c-0.7-0.7-0.6-1.1-1.4-1.4c-0.2-0.1-0.4-0.1-0.7-0.2c-0.2,0.5-0.6,1.1-1.1,1.1c-0.3,0-0.7-0.2-1.1-0.3c-0.5-0.2-0.9-0.5-1.1-0.6
					l0.2-0.3c0.1,0.1,0.6,0.3,1,0.5c0.4,0.2,0.7,0.3,0.9,0.3c0.4,0,0.6-0.4,0.7-0.7c-0.5-0.1-1.2-0.1-1.5-0.1c-0.1,0-0.1,0-0.2,0
					c0,0-0.1-0.1-0.1-0.2l0-0.1H13c1.3,0,2.5,0.2,3.3,0.7c0.1,0,0.2-0.1,0.3-0.1c0.5,0,0.9,0.2,1.2,0.5c0.1,0.1,0.1,0.2,0.1,0.2
					c0,0,0,0.1,0,0.1l0,0.1c-0.4-0.3-0.8-0.6-1.2-0.6C16.7,241.2,16.7,241.2,16.6,241.2"/>
			</g>
			<g id="g16010" transform="translate(430.0615,650.2685)">
			</g>
			<g id="g16014" transform="translate(439.0743,650.1949)">
			</g>
			<g id="g16018" transform="translate(447.4737,650.1949)">
			</g>
			<g id="g16022" transform="translate(458.0938,650.3558)">
			</g>
		</g>
	</g>
</g>
</svg>
