<?xml version="1.0" encoding="utf-8"?>
<!-- Generator: Adobe Illustrator 27.1.1, SVG Export Plug-In . SVG Version: 6.00 Build 0)  -->
<svg version="1.1" id="Layer_1" xmlns="http://www.w3.org/2000/svg" xmlns:xlink="http://www.w3.org/1999/xlink" x="0px" y="0px"
	 viewBox="0 0 158 48" style="enable-background:new 0 0 158 48;" xml:space="preserve">
<style type="text/css">
	.st0{fill:#FFFFFF;}
</style>
<path class="st0" d="M74.1,20.1c3.3-8.1-2.8-10.3-6.8-10.3H54.1c1.1,0.8,0.9,1.8,0.7,2.4l-7.7,24.6c-0.3,1-1.5,2-2.1,2.2h10.7
	c-0.6-0.1-1.4-0.9-1.1-2.1l2.8-8.9C57.4,28,70.2,29.8,74.1,20.1z M63.7,12.1c1.4,0,5.3,0.2,2.8,7.5c-2.6,7.7-8.4,6.1-8.4,6.1
	l4.3-13.6H63.7z"/>
<path class="st0" d="M82.1,38.6h7.1c-2.3-0.7-5.6-2.9-6.9-4.5c1.1-1.2,2.4-2.7,2.7-5.8h-3.7c0,0,0.7,0.4,0.7,1.3
	c0,0.8-0.3,1.9-0.9,2.7c-1.1-1.6-2.2-3.5-2.6-6.2c1.4-0.7,3.5-1.5,5.1-2.9c1.5-1.4,1.9-2.6,1.9-3.5v-0.1c0-0.9-0.3-1.7-1-2.3
	c-1.1-1.1-2.7-1.5-4.5-1.2c-1.4,0.3-2.6,1-3.2,1.6c-2.1,2-2.4,5.4-2.4,6.9c0,0.4,0,0.6,0,0.8c-0.1,0.1-0.3,0.1-0.3,0.1
	c-1.6,0.6-5.7,1.7-7.2,5.2c-0.2,0.4-0.5,1.4-0.5,2.5c0,1,0.2,2,0.8,3c1.1,1.7,2.8,2.7,5.7,2.7c3.1-0.1,6.2-2.2,6.7-2.6
	C79.9,36.9,81.3,38.2,82.1,38.6z M82.1,19.1c-0.4,2.3-3.4,4.7-4.1,5c-0.1-1.3-0.1-3.4,1-5.1c0.7-1.1,1.7-1.6,2.4-1.3
	C82,17.9,82.1,18.5,82.1,19.1z M77.9,34.8c-0.4,0.3-2.1,1.1-3.6,1.3c-1.4,0.1-3.8-0.4-3.8-3.3c0-2.5,2.7-4.3,4.1-4.9
	C75.2,30.2,76.5,32.9,77.9,34.8z"/>
<path class="st0" d="M103.9,11.6c4.2-1,7.6,2.3,7.9,2.6l1.2-3.9c-1.6-0.5-13.6-4.7-22.1,5.3c-5.2,6.1-6.5,18.6,0.1,22
	c7.1,3.6,14.9-0.6,15.4-0.8l3.2-10.6c0.3-1.3,1.1-2.1,2.5-2.6H101c1.6,0.7,1.5,2,1.4,2.5l-3.2,10.6c-0.4,0.1-9.4,2.4-4.4-13.8
	C95.9,19.2,98.9,12.9,103.9,11.6z"/>
</svg>
