<?xml version="1.0" encoding="utf-8"?>
<!-- Generator: Adobe Illustrator 27.1.1, SVG Export Plug-In . SVG Version: 6.00 Build 0)  -->
<svg version="1.1" id="Layer_1" xmlns="http://www.w3.org/2000/svg" xmlns:xlink="http://www.w3.org/1999/xlink" x="0px" y="0px"
	 viewBox="0 0 158 48" style="enable-background:new 0 0 158 48;" xml:space="preserve">
<style type="text/css">
	.st0{fill:#FFFFFF;}
</style>
<path class="st0" d="M72.8,19.1C77,8.8,69.3,6,64.2,6H47.5c1.4,1,1.1,2.3,0.9,3l-9.7,31.1c-0.4,1.3-1.9,2.5-2.7,2.8h13.5
	c-0.8-0.1-1.8-1.1-1.4-2.7l3.5-11.3C51.7,29.1,67.9,31.3,72.8,19.1z M59.7,8.9c1.8,0,6.7,0.3,3.5,9.5c-3.3,9.7-10.6,7.7-10.6,7.7
	L58,8.9H59.7z"/>
<path class="st0" d="M82.9,42.5h9c-2.9-0.9-7.1-3.7-8.7-5.7c1.4-1.5,3-3.4,3.4-7.3h-4.7c0,0,0.9,0.5,0.9,1.6c0,1-0.4,2.4-1.1,3.4
	c-1.4-2-2.8-4.4-3.3-7.8c1.8-0.9,4.4-1.9,6.4-3.7c1.9-1.8,2.4-3.3,2.4-4.4v-0.1c0-1.1-0.4-2.2-1.3-2.9c-1.4-1.4-3.4-1.9-5.7-1.5
	c-1.8,0.4-3.3,1.3-4,2c-2.7,2.5-3,6.8-3,8.7c0,0.5,0,0.8,0,1c-0.1,0.1-0.4,0.1-0.4,0.1c-2,0.8-7.2,2.2-9.1,6.6
	c-0.3,0.5-0.6,1.8-0.6,3.2c0,1.3,0.3,2.5,1,3.8c1.4,2.2,3.5,3.4,7.2,3.4c3.9-0.1,7.8-2.8,8.5-3.3C80.1,40.3,81.9,42,82.9,42.5z
	 M82.9,17.8c-0.5,2.9-4.3,5.9-5.2,6.3c-0.1-1.6-0.1-4.3,1.3-6.4c0.9-1.4,2.1-2,3-1.6C82.8,16.3,82.9,17,82.9,17.8z M77.6,37.7
	C77.1,38,75,39,73.1,39.3c-1.8,0.1-4.8-0.5-4.8-4.2c0-3.2,3.4-5.4,5.2-6.2C74.2,31.8,75.8,35.2,77.6,37.7z"/>
<path class="st0" d="M110.5,8.3c5.3-1.3,9.6,2.9,10,3.3l1.5-4.9c-2-0.6-17.2-5.9-27.9,6.7c-6.6,7.7-8.2,23.5,0.1,27.8
	c9,4.6,18.8-0.8,19.5-1l4-13.4c0.4-1.6,1.4-2.7,3.2-3.3h-14c2,0.9,1.9,2.5,1.8,3.2l-4,13.4c-0.5,0.1-11.9,3-5.6-17.5
	C100.4,17.9,104.2,10,110.5,8.3z"/>
</svg>
