<?xml version="1.0" encoding="utf-8"?>
<!-- Generator: Adobe Illustrator 27.1.1, SVG Export Plug-In . SVG Version: 6.00 Build 0)  -->
<svg version="1.1" id="Layer_1" xmlns="http://www.w3.org/2000/svg" xmlns:xlink="http://www.w3.org/1999/xlink" x="0px" y="0px"
	 viewBox="0 0 158 48" style="enable-background:new 0 0 158 48;" xml:space="preserve">
<style type="text/css">
	.st0{fill:#FFFFFF;}
	.st1{fill:#F26B21;}
</style>
<g>
	<g>
		<path class="st0" d="M63.8,4.5c-1.2-0.5-2.4-0.7-3.7-0.7c-2.4,0-4.5,0.8-5.9,2.2c-0.5,0.5-0.9,1.1-1.2,1.8
			c-0.3,0.7-0.4,1.4-0.4,2.1c0,1.5,0.8,3.6,2.7,4.7c-2.2,4.5-3.3,9.7-3.3,15.3c0,1,0,2,0.1,3l0.1,0.7l11.8,0v4.3H68
			c0.5,0,0.9-0.1,1.4-0.1c0.8,1.1,2.3,3,4.4,4.4c-0.3,0.8-0.5,1.7-0.6,2.5l-0.5,2.7l2.8,0.3c8.6,1.1,14.6-2,17.2-5
			c2.6-2.9,3.2-5.8,3.2-7.8c1.4-0.4,4.1-1.2,4.6-1.4l6,0l0.1-0.7c0.1-1,0.1-2,0.1-3C106.7,12,95.7,0,79.3,0
			C73.3,0,68.1,1.5,63.8,4.5z"/>
		<path class="st1" d="M64.3,6c4.2-3,9.2-4.5,15-4.5c7.9,0,14.5,2.9,19.2,8.2c4.3,5,6.7,12.2,6.7,20.1c0,0.7,0,1.5-0.1,2.2l-4.8,0
			l-0.1,0c-1.3,0.4-4.7,1.4-5.3,1.5l-0.6,0.1l0,0.7c0.1,1.8-0.3,4.5-2.8,7.4c-2.3,2.7-7.9,5.4-15.8,4.4l-1.1-0.1
			c0.1-0.5,0.2-1.1,0.2-1.1c0.2-1,0.4-1.9,0.7-2.9l0.2-0.6l-0.5-0.3c-2.3-1.4-3.8-3.4-4.5-4.4l-0.5-0.7l-0.5,0.1
			c-0.5,0.1-1.1,0.2-1.6,0.2h-2.5V32l-11.9,0c-0.1-0.7-0.1-1.4-0.1-2.2c0-5.6,1.2-10.9,3.5-15.2l0.4-0.7l-0.8-0.3
			c-1.7-0.8-2.5-2.4-2.5-3.7c0-0.5,0.1-1,0.3-1.5c0.2-0.5,0.5-0.9,0.9-1.3c1.1-1.1,2.9-1.7,4.8-1.7c1.3,0,2.5,0.2,3.4,0.7l0.4,0.2
			L64.3,6z"/>
		<path class="st0" d="M63.6,13c0.9-0.6,1.5-1.7,1.5-2.7c0-1-0.3-1.8-1-2.4c-0.9-0.9-2.3-1.4-4.1-1.4c-1.6,0-3.2,0.5-4.1,1.4
			c-0.3,0.3-0.5,0.6-0.6,0.9c-0.1,0.3-0.2,0.7-0.2,1.1c0,0.9,0.6,2.2,1.8,2.7l1.2-1.4c-0.6-0.3-1-0.7-1.1-1.1
			c-0.1-0.7,0.4-1.2,1.2-1.4v12.7h1.5c3.5,0,5.7-2.6,5.8-5C65.7,14.5,64.6,13.4,63.6,13 M62.6,9.1c0.1,0.2,0.3,0.3,0.3,0.5
			C63,9.9,63,10.1,63,10.3c-0.1,1.1-1,1.8-2.4,1.9V8.5h0C61.4,8.5,62.2,8.7,62.6,9.1 M60.5,19.3V14c0.9-0.1,1.7,0.2,2.2,0.6
			c0.4,0.4,0.7,0.9,0.7,1.6C63.4,17.4,62.2,19.2,60.5,19.3 M71.9,26.9c0.9-0.6,1.5-1.7,1.5-2.7c0-1-0.3-1.8-1-2.4
			c-0.9-0.9-2.3-1.4-4.1-1.4c-1.6,0-3.2,0.5-4.1,1.4c-0.3,0.3-0.5,0.6-0.6,0.9c-0.1,0.3-0.2,0.7-0.2,1.1c0,0.9,0.6,2.2,1.8,2.7
			l1.2-1.4c-0.6-0.3-1-0.7-1.1-1.1c-0.1-0.7,0.4-1.2,1.2-1.4v12.7H68c3.5,0,5.7-2.6,5.8-5C73.9,28.5,72.9,27.4,71.9,26.9 M70.8,23.1
			c0.1,0.2,0.3,0.3,0.3,0.5c0.1,0.2,0.1,0.4,0.1,0.6c-0.1,1.1-1,1.8-2.4,1.9v-3.7h0C69.6,22.4,70.4,22.6,70.8,23.1z M68.8,33.2V28
			c0.9-0.1,1.7,0.2,2.2,0.6c0.4,0.4,0.7,0.9,0.7,1.6C71.6,31.4,70.4,33.1,68.8,33.2 M91.1,10.2v2.6c-0.2-0.2-0.4-0.5-0.7-0.7
			c-1.5-1.4-2.7-1.9-3-2c-0.1,0-0.1,0-0.2,0c-0.1,0-0.1,0-0.2,0c-0.1,0-0.1,0.1-0.1,0.2c0,0.1,0,0.1,0,0.2l0,8.6h2.1v-5.5
			c0.5,0.4,0.9,0.9,1.3,1.4c0.6,0.8,0.7,1.3,0.7,1.7v2.3h2.1v-8.9L91.1,10.2L91.1,10.2z M99.3,13.2c-0.7-1.5-1.5-2.5-1.8-2.9
			c-0.2-0.2-0.3-0.2-0.4-0.2c-0.1,0-0.2,0-0.4,0.2c-0.4,0.4-1.1,1.4-1.8,2.9C94,15,93.6,17,93.6,19v0.1h2.1V19c0-0.6,0-1.2,0.1-1.8
			h2.6c0.1,0.6,0.1,1.2,0.1,1.8v0.1h2.1V19C100.6,17,100.1,15,99.3,13.2z M97.1,12.9c0.4,0.8,0.7,1.6,1,2.5h-1.9
			C96.4,14.6,96.7,13.7,97.1,12.9z M85.4,13.2c-0.7-1.5-1.5-2.5-1.8-2.9c-0.2-0.2-0.3-0.2-0.4-0.2c-0.1,0-0.2,0-0.4,0.2
			c-0.4,0.4-1.1,1.4-1.8,2.9C80.1,15,79.6,17,79.6,19v0.1h2.1V19c0-0.6,0-1.2,0.1-1.8h2.6c0.1,0.6,0.1,1.2,0.1,1.8v0.1h2.1V19
			C86.6,17,86.2,15,85.4,13.2z M83.1,12.9c0.4,0.8,0.7,1.6,1,2.5h-1.9C82.4,14.6,82.7,13.7,83.1,12.9z M71.4,13.2
			c-0.7-1.5-1.5-2.5-1.8-2.9c-0.2-0.2-0.3-0.2-0.4-0.2c-0.1,0-0.2,0-0.4,0.2c-0.4,0.4-1.1,1.4-1.8,2.9C66.2,15,65.7,17,65.7,19v0.1
			h2.1V19c0-0.6,0-1.2,0.1-1.8h2.6c0.1,0.6,0.1,1.2,0.1,1.8v0.1h2.1V19C72.7,17,72.3,15,71.4,13.2z M69.2,12.9
			c0.4,0.8,0.7,1.6,1,2.5h-1.9C68.5,14.6,68.8,13.7,69.2,12.9z M86.5,24.4c-0.7-1.5-1.5-2.5-1.8-2.9c-0.2-0.2-0.3-0.2-0.4-0.2
			c-0.1,0-0.2,0-0.4,0.2c-0.4,0.4-1.1,1.4-1.8,2.9c-0.8,1.8-1.3,3.8-1.3,5.7v0.2h2.1v-0.2c0-0.6,0-1.2,0.1-1.8h2.6
			c0.1,0.6,0.1,1.2,0.1,1.8v0.2h2.1v-0.2C87.8,28.2,87.3,26.2,86.5,24.4z M84.3,24.1c0.4,0.8,0.7,1.6,1,2.5h-1.9
			C83.6,25.7,83.9,24.9,84.3,24.1z M77.2,10.2v2.6c-0.2-0.2-0.4-0.5-0.7-0.7c-1.5-1.4-2.7-1.9-3-2c-0.1,0-0.1,0-0.2,0
			c-0.1,0-0.1,0-0.2,0c-0.1,0-0.1,0.1-0.1,0.2c0,0.1,0,0.1,0,0.2l0,8.6h2.1v-5.5c0.5,0.5,0.9,1.1,1.3,1.7c0.5,0.9,0.7,1.7,0.7,2.1
			v1.8h2.1v-8.9H77.2z M86,21.4l1.1,1.8h1.9v7.1H91v-7.1h1.9l1.1-1.8H86z M93.3,29.7h-0.4v-1.7h0.6c0.4,0,0.7,0.1,0.7,0.5
			c0,0.3-0.2,0.4-0.4,0.4l0.4,0.7h-0.4L93.4,29h-0.2V29.7z M93.6,28.8c0.2,0,0.3,0,0.3-0.2c0-0.2-0.2-0.2-0.3-0.2h-0.2v0.4
			L93.6,28.8L93.6,28.8z M93.5,30.4c-0.8,0-1.5-0.6-1.5-1.5c0-1,0.7-1.5,1.5-1.5c0.8,0,1.5,0.6,1.5,1.5
			C95.1,29.9,94.3,30.4,93.5,30.4z M93.5,27.7c-0.6,0-1.1,0.5-1.1,1.2c0,0.7,0.5,1.2,1.1,1.2c0.6,0,1.1-0.5,1.1-1.2
			C94.6,28.2,94.1,27.7,93.5,27.7"/>
		<path class="st0" d="M78.8,25.8c0-1.1-0.3-2-0.8-2.5c-0.1-0.1-0.2-0.2-0.3-0.2c-0.1-0.1-0.3-0.1-0.4-0.1c-0.9,0-1.5,1.2-1.5,2.8
			c0,1.1,0.3,2,0.8,2.5c0.1,0.1,0.2,0.2,0.3,0.2c0.1,0.1,0.3,0.1,0.4,0.1c0.1,0,0.3,0,0.4-0.1c0.1-0.1,0.2-0.1,0.3-0.2
			C78.4,27.9,78.7,26.9,78.8,25.8 M77.2,30.5c-0.9,0-1.7-0.3-2.3-0.9c-0.9-0.8-1.4-2.2-1.4-3.7c0-1.5,0.5-2.9,1.4-3.7
			c0.6-0.6,1.5-0.9,2.3-0.9c0.9,0,1.7,0.3,2.3,0.9c0.9,0.8,1.4,2.2,1.4,3.7C80.9,28.6,79.4,30.5,77.2,30.5z M79.2,41.8
			c1.3-1.5,8-7.5,15.4-11l2.4,1.3c-1.1,0.2-4,0.8-5.5,1.5l-1.2,4.1l-1.7-2.6l-1,4.4l-1.9-2.4l-0.8,4l-2.2-1.6l-1.7,3L79.2,41.8z
			 M74.3,36c0.7-0.3,3.9-1.3,6.1-1.4c-0.4,0.4-1.7,1.9-2,2.5l-1.6-1l-0.8,1.3L74.3,36z"/>
		<path class="st0" d="M76.9,39.3c-1.8-0.9-3.8-2.5-4.3-3.2c2.4-2.3,7.7-3,9.2-2.9c0.9-0.7,1.8-1.3,2.9-1.8
			c-7.1-1-12.2,3.7-13.2,4.7c1.2,1.9,3.6,4,4.7,4.5C76.4,40.2,76.6,39.7,76.9,39.3"/>
		<path class="st0" d="M93.2,34.2c0-0.3-0.6-0.5-0.6-0.3c-0.4,3.9-3,7.9-8,9.4c-2.4,0.7-5.3,1-7.3,0.5c0.5-1.8,2.1-5.3,4.9-7.8
			c3.3-3,6.4-3.4,7.4-3.2l1.7-1.3c-3.8-0.5-6.9,0.4-9.8,3.2c-3.3,3.2-5.1,7.3-5.6,10.4c2.8,0.5,6.5,0.1,8.9-0.6
			c3.3-0.9,5.7-2.8,7.1-5C92.7,38.3,93.5,36.4,93.2,34.2"/>
	</g>
</g>
</svg>
