<?xml version="1.0" encoding="utf-8"?>
<!-- Generator: Adobe Illustrator 27.1.1, SVG Export Plug-In . SVG Version: 6.00 Build 0)  -->
<svg version="1.1" id="layer" xmlns="http://www.w3.org/2000/svg" xmlns:xlink="http://www.w3.org/1999/xlink" x="0px" y="0px"
	 viewBox="0 0 158 48" style="enable-background:new 0 0 158 48;" xml:space="preserve">
<style type="text/css">
	.st0{fill:#FFFFFF;}
</style>
<path class="st0" d="M80.6,16.6c1.5-0.5,4-0.9,7.9-0.6c0,0,0.8,0.1,1.4,0.3c0,0,0.7,0.2,0.4,1.1c0,0-0.3,1.1-0.5,1.6
	c-0.2,0.4-0.4,0.7-0.8,0.6c-0.7-0.2-1.4-0.2-2.2-0.2c-0.7,0-1.5,0.1-2.1,0.3c-0.9,0.2-1.7,0.9-1.9,1.8l-5.1,16.7
	c-0.2,0.5-0.7,0.9-1.2,0.9h-4.9c-0.3,0-0.6-0.2-0.6-0.7c0-0.1,0-0.2,0-0.2l5-16.5C77,19,78.5,17.3,80.6,16.6L80.6,16.6z"/>
<path class="st0" d="M55.5,24.3c4.4-0.9,9.8-0.3,9.8-0.3c0.2,0,0.2-0.1,0.3-0.2l0.5-1.5c0.8-2.6-2-2.8-2-2.8c-0.5-0.1-1-0.1-1.5-0.1
	l0,0c-3.8-0.1-6.8,0.3-7.9,0.5c0,0-0.8,0.2-0.9,0.2h-0.2c-0.4,0.1-0.5-0.2-0.4-0.6l0,0c0,0,0.2-1,0.9-2.1c0.3-0.5,0.7-0.9,1.8-1.2
	c1.3-0.2,6.2-1,12-0.4c0,0,6.7,0.6,4.8,6.7L68.1,38c-0.2,0.5-0.7,0.9-1.2,0.9h-4.5c-0.4,0-0.7-0.3-0.7-0.7c0,0,0-0.1,0-0.2l0.1-0.5
	l0,0c0-0.1-0.1-0.2-0.2-0.2c0,0,0,0-0.1,0c-2.8,1.4-5.9,1.7-5.9,1.7c-7.2,0.7-7.8-2.4-7.9-3.6c-0.2-2.4,1-7.2,3.7-9.6
	C52.4,25.1,53.8,24.6,55.5,24.3 M64.4,27.7L64.4,27.7c0-0.2-0.1-0.3-0.2-0.4l0,0c0,0-5.6-0.5-7.4,1c-1.9,1.6-2.2,5-2.2,5.3
	c0,0-0.3,2.3,3.8,1.8c0,0,0.4-0.1,1-0.2l0,0c1.7-0.4,3-1.2,3.6-2.9L64.4,27.7z"/>
<path class="st0" d="M123.7,24.3c4.4-0.9,9.8-0.3,9.8-0.3c0.2,0,0.2-0.1,0.3-0.2l0.5-1.5c0.8-2.6-2-2.8-2-2.8
	c-0.5-0.1-1-0.1-1.5-0.1l0,0c-3.8-0.1-6.8,0.3-7.9,0.5c0,0-0.8,0.2-0.9,0.2h-0.2c-0.4,0.1-0.5-0.2-0.4-0.6l0,0c0,0,0.2-1,0.9-2.1
	c0.3-0.5,0.7-0.9,1.8-1.2c1.3-0.2,6.2-1,12-0.4c0,0,6.7,0.6,4.8,6.7L136.2,38c-0.2,0.5-0.7,0.9-1.2,0.9h-4.5c-0.4,0-0.7-0.3-0.7-0.7
	c0,0,0-0.1,0-0.2l0.1-0.5l0,0c0-0.1-0.1-0.2-0.2-0.2h-0.1c-2.8,1.4-5.9,1.7-5.9,1.7c-7.2,0.7-7.8-2.4-7.9-3.6
	c-0.2-2.4,1-7.2,3.7-9.6C120.6,25.1,122,24.6,123.7,24.3 M132.6,27.7L132.6,27.7c0-0.2-0.1-0.3-0.2-0.4l0,0c0,0-5.7-0.5-7.4,1
	c-1.9,1.6-2.2,5-2.2,5.3c0,0-0.3,2.3,3.8,1.8c0,0,0.4-0.1,1-0.2l0,0c1.7-0.4,3-1.2,3.6-2.9L132.6,27.7z"/>
<path class="st0" d="M45.3,8.5H34.4c-2.8,0-4.7,0.4-6.1,0.8h-0.1c-2.3,0.8-4.2,2.8-5.2,6.2l-6.7,22.2c0,0.1,0,0.2,0,0.3
	c0,0.6,0.5,1.1,1.1,1.1h14.1l0,0h5.3C46.8,38.7,47,27.5,47,27.5c0-2-1.2-3.7-3-4.4l0,0c-0.1,0-0.1-0.1-0.1-0.2c0-0.1,0-0.2,0.1-0.2
	c1.3-0.4,2.4-0.9,3.3-1.9l0,0c2.7-2.9,2.7-7.7,2.7-7.7C50,10.7,47.8,8.5,45.3,8.5 M37.5,32.5c-0.8,1.6-2.5,2.7-4.4,2.7h-7.7
	c-0.2,0-0.3-0.2-0.3-0.3c0-0.1,0-0.1,0-0.1l2.8-9.3c0.1-0.2,0.2-0.2,0.3-0.2h9.2c0.8,0,1.4,0.6,1.6,1.3C39,26.5,39.6,28.6,37.5,32.5
	 M41.2,18.9c-0.7,1.3-2.2,2.2-3.7,2.2h-7.7h-0.2c-0.2,0-0.3-0.2-0.3-0.3c0-0.1,0-0.1,0-0.1l0.1-0.2l1.7-5.5c0.4-1.5,1.7-2.6,3.2-2.6
	h6.8c0.7,0,1.2,0.5,1.4,1.2C42.5,13.6,43,15.6,41.2,18.9"/>
<path class="st0" d="M91.9,38.2c-0.2,0.5-0.7,0.9-1.2,0.9h-4.9c-0.3,0-0.6-0.2-0.6-0.7c0-0.1,0-0.2,0-0.2l6.5-21.2
	c0.2-0.5,0.7-0.9,1.2-0.9h4.9c0.3,0,0.6,0.2,0.6,0.7c0,0.1,0,0.2,0,0.2L91.9,38.2z"/>
<path class="st0" d="M96.5,14c0.6,0,1.1-0.1,1.6-0.2l0,0c0.7-0.2,1.4-0.7,1.7-1.3l0,0c0.2-0.3,0.3-0.7,0.5-1.2l0.5-1.7
	c0.1-0.4,0.2-0.7,0.2-1l0,0c0.1-0.6-0.2-1-0.7-1.1l0,0c-0.3-0.1-0.7-0.1-1.2-0.1h-1.6c-0.6,0-1.1,0.1-1.6,0.2l0,0
	c-0.7,0.2-1.4,0.7-1.7,1.3l0,0c-0.2,0.3-0.3,0.7-0.5,1.2l-0.5,1.7c-0.1,0.3-0.2,0.7-0.2,1l0,0c-0.1,0.6,0.2,1,0.7,1.1l0,0
	c0.3,0.1,0.7,0.1,1.2,0.1H96.5L96.5,14z"/>
<path class="st0" d="M108.6,7.6h-0.5l0,0h-2.7c-0.6,0-1.1,0.4-1.2,0.9l-9,29.8c0,0.1,0,0.2,0,0.2c0,0.3,0.2,0.7,0.6,0.7h4.9
	c0.6,0,1.1-0.4,1.2-0.9l8.6-28.2C111.1,7.9,109.5,7.7,108.6,7.6"/>
<path class="st0" d="M118.7,7.6h-0.5l0,0h-2.7c-0.6,0-1.1,0.4-1.2,0.9l-9.1,29.8c0,0.1,0,0.2,0,0.2c0,0.3,0.2,0.7,0.6,0.7h4.9
	c0.6,0,1.1-0.4,1.2-0.9l8.6-28.2C121.2,7.9,119.6,7.7,118.7,7.6"/>
</svg>
