<?xml version="1.0" encoding="utf-8"?>
<!-- Generator: Adobe Illustrator 27.1.1, SVG Export Plug-In . SVG Version: 6.00 Build 0)  -->
<svg version="1.1" id="layer" xmlns="http://www.w3.org/2000/svg" xmlns:xlink="http://www.w3.org/1999/xlink" x="0px" y="0px"
	 viewBox="0 0 158 48" style="enable-background:new 0 0 158 48;" xml:space="preserve">
<style type="text/css">
	.st0{fill:#FFFFFF;}
</style>
<path class="st0" d="M80.2,18c1.2-0.4,3.1-0.7,6.2-0.5c0,0,0.6,0.1,1.1,0.2c0,0,0.6,0.2,0.3,0.9c0,0-0.2,0.9-0.4,1.3
	c-0.2,0.3-0.3,0.6-0.6,0.5c-0.6-0.2-1.1-0.2-1.7-0.2c-0.6,0-1.2,0.1-1.7,0.2c-0.7,0.2-1.3,0.7-1.5,1.4l-4,13.1
	c-0.2,0.4-0.6,0.7-0.9,0.7h-3.9c-0.2,0-0.5-0.2-0.5-0.6c0-0.1,0-0.2,0-0.2l3.9-13C77.4,19.9,78.6,18.6,80.2,18L80.2,18z"/>
<path class="st0" d="M60.5,24.1c3.5-0.7,7.7-0.2,7.7-0.2c0.2,0,0.2-0.1,0.2-0.2l0.4-1.2c0.6-2-1.6-2.2-1.6-2.2
	c-0.4-0.1-0.8-0.1-1.2-0.1l0,0c-3-0.1-5.3,0.2-6.2,0.4c0,0-0.6,0.2-0.7,0.2H59c-0.3,0.1-0.4-0.2-0.3-0.5l0,0c0,0,0.2-0.8,0.7-1.7
	c0.2-0.4,0.6-0.7,1.4-0.9c1-0.2,4.9-0.8,9.4-0.3c0,0,5.3,0.5,3.8,5.3l-3.6,12.2c-0.2,0.4-0.6,0.7-0.9,0.7h-3.5
	c-0.3,0-0.6-0.2-0.6-0.6c0,0,0-0.1,0-0.2l0.1-0.4l0,0c0-0.1-0.1-0.2-0.2-0.2c0,0,0,0-0.1,0c-2.2,1.1-4.6,1.3-4.6,1.3
	c-5.7,0.6-6.1-1.9-6.2-2.8c-0.2-1.9,0.8-5.7,2.9-7.5C58,24.7,59.1,24.3,60.5,24.1 M67.5,26.8L67.5,26.8c0-0.2-0.1-0.2-0.2-0.3l0,0
	c0,0-4.4-0.4-5.8,0.8c-1.5,1.3-1.7,3.9-1.7,4.2c0,0-0.2,1.8,3,1.4c0,0,0.3-0.1,0.8-0.2l0,0c1.3-0.3,2.4-0.9,2.8-2.3L67.5,26.8z"/>
<path class="st0" d="M114.1,24.1c3.5-0.7,7.7-0.2,7.7-0.2c0.2,0,0.2-0.1,0.2-0.2l0.4-1.2c0.6-2-1.6-2.2-1.6-2.2
	c-0.4-0.1-0.8-0.1-1.2-0.1l0,0c-3-0.1-5.3,0.2-6.2,0.4c0,0-0.6,0.2-0.7,0.2h-0.2c-0.3,0.1-0.4-0.2-0.3-0.5l0,0c0,0,0.2-0.8,0.7-1.7
	c0.2-0.4,0.6-0.7,1.4-0.9c1-0.2,4.9-0.8,9.4-0.3c0,0,5.3,0.5,3.8,5.3l-3.7,12.2c-0.2,0.4-0.6,0.7-0.9,0.7h-3.5
	c-0.3,0-0.6-0.2-0.6-0.6c0,0,0-0.1,0-0.2l0.1-0.4l0,0c0-0.1-0.1-0.2-0.2-0.2h-0.1c-2.2,1.1-4.6,1.3-4.6,1.3
	c-5.7,0.6-6.1-1.9-6.2-2.8c-0.2-1.9,0.8-5.7,2.9-7.5C111.7,24.7,112.8,24.3,114.1,24.1 M121.1,26.8L121.1,26.8
	c0-0.2-0.1-0.2-0.2-0.3l0,0c0,0-4.5-0.4-5.8,0.8c-1.5,1.3-1.7,3.9-1.7,4.2c0,0-0.2,1.8,3,1.4c0,0,0.3-0.1,0.8-0.2l0,0
	c1.3-0.3,2.4-0.9,2.8-2.3L121.1,26.8z"/>
<path class="st0" d="M52.5,11.7h-8.6c-2.2,0-3.7,0.3-4.8,0.6H39c-1.8,0.6-3.3,2.2-4.1,4.9l-5.3,17.5c0,0.1,0,0.2,0,0.2
	c0,0.5,0.4,0.9,0.9,0.9h11.1l0,0h4.2c7.9-0.3,8-9.1,8-9.1c0-1.6-0.9-2.9-2.4-3.5l0,0c-0.1,0-0.1-0.1-0.1-0.2s0-0.2,0.1-0.2
	c1-0.3,1.9-0.7,2.6-1.5l0,0c2.1-2.3,2.1-6.1,2.1-6.1C56.2,13.4,54.4,11.7,52.5,11.7 M46.3,30.5c-0.6,1.3-2,2.1-3.5,2.1h-6.1
	c-0.2,0-0.2-0.2-0.2-0.2c0-0.1,0-0.1,0-0.1l2.2-7.3c0.1-0.2,0.2-0.2,0.2-0.2h7.2c0.6,0,1.1,0.5,1.3,1C47.5,25.8,48,27.5,46.3,30.5
	 M49.2,19.8c-0.6,1-1.7,1.7-2.9,1.7h-6.1h-0.2c-0.2,0-0.2-0.2-0.2-0.2c0-0.1,0-0.1,0-0.1l0.1-0.2l1.3-4.3c0.3-1.2,1.3-2,2.5-2h5.3
	c0.6,0,0.9,0.4,1.1,0.9C50.3,15.7,50.6,17.2,49.2,19.8"/>
<path class="st0" d="M89.1,35c-0.2,0.4-0.6,0.7-0.9,0.7h-3.9c-0.2,0-0.5-0.2-0.5-0.6c0-0.1,0-0.2,0-0.2l5.1-16.7
	c0.2-0.4,0.6-0.7,0.9-0.7h3.9c0.2,0,0.5,0.2,0.5,0.6c0,0.1,0,0.2,0,0.2L89.1,35z"/>
<path class="st0" d="M92.7,16c0.5,0,0.9-0.1,1.3-0.2l0,0c0.6-0.2,1.1-0.6,1.3-1l0,0c0.2-0.2,0.2-0.6,0.4-0.9l0.4-1.3
	c0.1-0.3,0.2-0.6,0.2-0.8l0,0c0.1-0.5-0.2-0.8-0.6-0.9l0,0c-0.2-0.1-0.6-0.1-0.9-0.1h-1.3c-0.5,0-0.9,0.1-1.3,0.2l0,0
	c-0.6,0.2-1.1,0.6-1.3,1l0,0c-0.2,0.2-0.2,0.6-0.4,0.9l-0.4,1.3C90,14.5,90,14.8,90,15l0,0c-0.1,0.5,0.2,0.8,0.6,0.9l0,0
	c0.2,0.1,0.6,0.1,0.9,0.1H92.7L92.7,16z"/>
<path class="st0" d="M102.2,11h-0.4l0,0h-2.1c-0.5,0-0.9,0.3-0.9,0.7l-7.1,23.4c0,0.1,0,0.2,0,0.2c0,0.2,0.2,0.6,0.5,0.6H96
	c0.5,0,0.9-0.3,0.9-0.7l6.8-22.2C104.2,11.2,102.9,11,102.2,11"/>
<path class="st0" d="M110.2,11h-0.4l0,0h-2.1c-0.5,0-0.9,0.3-0.9,0.7l-7.2,23.4c0,0.1,0,0.2,0,0.2c0,0.2,0.2,0.6,0.5,0.6h3.9
	c0.5,0,0.9-0.3,0.9-0.7l6.8-22.2C112.1,11.2,110.9,11,110.2,11"/>
</svg>
