<?xml version="1.0" encoding="utf-8"?>
<!-- Generator: Adobe Illustrator 27.1.1, SVG Export Plug-In . SVG Version: 6.00 Build 0)  -->
<svg version="1.1" id="Layer_1" xmlns="http://www.w3.org/2000/svg" xmlns:xlink="http://www.w3.org/1999/xlink" x="0px" y="0px"
	 viewBox="0 0 158 48" style="enable-background:new 0 0 158 48;" xml:space="preserve">
<style type="text/css">
	.st0{fill:#FFFFFF;}
</style>
<path class="st0" d="M47.9,24c0-0.9,0.2-1.8,0.5-2.7c0.3-0.9,0.9-1.7,1.5-2.3c0.6-0.6,1.4-1.2,2.3-1.6c0.9-0.4,1.8-0.6,2.7-0.6
	c0.9,0,1.8,0.2,2.7,0.6c0.9,0.4,1.7,0.9,2.3,1.6c0.6,0.6,1.2,1.4,1.5,2.3c0.3,0.9,0.6,1.8,0.5,2.7c0,0.9-0.2,1.8-0.5,2.7
	s-0.9,1.7-1.5,2.3c-0.6,0.6-1.4,1.2-2.3,1.6s-1.8,0.6-2.7,0.6c-0.9,0-1.8-0.2-2.7-0.6s-1.7-0.9-2.3-1.6c-0.6-0.6-1.2-1.4-1.5-2.3
	C48.1,25.9,47.9,24.9,47.9,24z M51.9,24c0,0.4,0.1,0.8,0.2,1.2c0.2,0.4,0.4,0.7,0.6,1c0.3,0.3,0.6,0.6,1,0.7
	c0.4,0.2,0.8,0.2,1.2,0.2s0.8-0.1,1.2-0.2s0.7-0.4,1-0.7c0.3-0.3,0.5-0.6,0.6-1c0.2-0.4,0.2-0.8,0.2-1.2c0-0.4-0.1-0.8-0.2-1.2
	c-0.2-0.4-0.4-0.7-0.6-1c-0.3-0.3-0.6-0.6-1-0.7c-0.4-0.2-0.8-0.2-1.2-0.2s-0.8,0.1-1.2,0.2s-0.7,0.4-1,0.7c-0.3,0.3-0.5,0.6-0.6,1
	C52,23.2,51.9,23.6,51.9,24z M131.6,30.9V20.8h-3.2v-3.6h10.1v3.6h-3.2v10.1H131.6z M126.3,30.9l-0.5-1.7h-4l-0.5,1.7h-4l4.6-13.8
	h3.7l4.6,13.8H126.3z M122.9,25.7h1.7l-0.9-2.8L122.9,25.7z M107.9,30.9V17.1h8.1v3.6h-4.3v1.4h4.3v3.6h-4.3v1.5h4.3V31L107.9,30.9z
	 M102.6,30.9v-7.4l-2.8,3.8l-2.9-3.9v7.5h-4V17.1h4l2.8,4l2.9-4h3.8v13.8C106.5,30.9,102.6,30.9,102.6,30.9z M76.1,30.9V17.1h4.5
	c0.9,0,1.8,0.2,2.7,0.5s1.7,0.9,2.3,1.5c0.6,0.6,1.2,1.4,1.5,2.3c0.4,0.9,0.6,1.7,0.6,2.7s-0.2,1.8-0.6,2.7
	c-0.4,0.9-0.9,1.6-1.5,2.3c-0.6,0.6-1.4,1.1-2.3,1.5c-0.9,0.3-1.7,0.5-2.7,0.5L76.1,30.9z M80.1,27.2h0.6c0.4,0,0.8-0.1,1.2-0.2
	c0.4-0.2,0.7-0.4,1-0.7c0.3-0.3,0.5-0.6,0.6-1s0.2-0.8,0.2-1.2c0-0.4-0.1-0.8-0.2-1.2c-0.2-0.4-0.4-0.7-0.6-1
	c-0.3-0.3-0.6-0.6-1-0.7c-0.4-0.2-0.8-0.2-1.2-0.2h-0.6V27.2z M71.3,30.9L66.9,24v7h-4V17.1h4l4.1,6.4v-6.4h4v13.8H71.3z M41.2,30.9
	v-6.3L37,17.1h4.2l2,3.6l2-3.6h4.2l-4.2,7.4V31L41.2,30.9z M28.2,30.9V17.1h8.1v3.6h-4.3v1.4h4.3v3.6h-4.3v1.5h4.3V31L28.2,30.9z
	 M16.7,30.9V17.1h5c3.6,0,5.2,1.3,5.2,4c0,0.5-0.1,1-0.2,1.5c-0.2,0.5-0.6,0.9-0.9,1.2c0.5,0.3,0.9,0.7,1.2,1.2
	c0.2,0.5,0.4,1.1,0.3,1.7c0,3-2.1,4.3-5.6,4.3H16.7z M20.4,27.5h1.3c1,0,1.4-0.3,1.4-0.9c0-0.6-0.3-0.9-1.3-0.9h-1.4V27.5z
	 M20.4,22.2h1.5c0.7,0,1-0.4,1-0.9c0-0.5-0.3-0.8-1.1-0.8h-1.4V22.2z M139.6,18.1c0-0.2,0.1-0.4,0.2-0.6c0.1-0.2,0.3-0.3,0.5-0.4
	c0.2-0.1,0.4-0.1,0.6-0.1c0.2,0.1,0.4,0.2,0.6,0.3s0.2,0.3,0.3,0.6c0.1,0.2,0,0.4-0.1,0.6c-0.1,0.2-0.2,0.3-0.4,0.5
	c-0.2,0.1-0.4,0.2-0.6,0.2c-0.2,0-0.2,0-0.4-0.1c-0.2-0.1-0.2-0.2-0.3-0.2c-0.1-0.1-0.2-0.2-0.2-0.3
	C139.6,18.4,139.6,18.2,139.6,18.1z M139.8,18.1c0,0.2,0.1,0.4,0.2,0.6c0.2,0.2,0.4,0.2,0.6,0.2c0.2,0,0.4-0.1,0.6-0.2
	c0.2-0.2,0.2-0.4,0.2-0.6c0-0.2-0.1-0.4-0.2-0.6c-0.2-0.2-0.4-0.2-0.6-0.2c-0.2,0-0.4,0.1-0.6,0.2C139.9,17.7,139.8,17.9,139.8,18.1
	z M140.8,18.6l-0.3-0.5h0.1h0.1c0,0,0.1,0,0.1-0.1c0,0,0-0.1,0.1-0.1v-0.1c0-0.2-0.1-0.2-0.2-0.2h-0.2v0.9h-0.2v-1h0.4
	c0.1,0,0.1,0,0.2,0s0.1,0,0.2,0.1l0.1,0.1c0,0.1,0,0.1,0,0.2s0,0.2-0.1,0.2c-0.1,0.1-0.1,0.1-0.2,0.2l0.2,0.3L140.8,18.6z"/>
</svg>
