<?xml version="1.0" encoding="utf-8"?>
<!-- Generator: Adobe Illustrator 27.1.1, SVG Export Plug-In . SVG Version: 6.00 Build 0)  -->
<svg version="1.1" id="layer" xmlns="http://www.w3.org/2000/svg" xmlns:xlink="http://www.w3.org/1999/xlink" x="0px" y="0px"
	 viewBox="0 0 158 48" style="enable-background:new 0 0 158 48;" xml:space="preserve">
<style type="text/css">
	.st0{fill:#FFFFFF;}
	.st1{opacity:0;fill:#FFF200;}
</style>
<g>
	<path class="st0" d="M79.1,48C67.8,48,57,45,49.5,39.9l-9.8,2.7c0,0-0.6,0.2-1.4,0.2c-0.8,0-1.5-0.2-2-0.6
		c-0.5-0.4-1.1-1.1-1.1-2.5V10.6c0-1,0.7-2.4,2.7-2.4h11.4C56.8,2.9,67.4,0,79.1,0s22.3,2.9,29.8,8.2h11.4c2,0,2.7,1.4,2.7,2.4v29.2
		c0,1.9-1.2,3.1-3,3.1c-0.7,0-1.4-0.2-1.4-0.2l-9.7-2.7C101.2,45,90.5,48,79.1,48"/>
	<path class="st1" d="M79.1,1c11.9,0,22.4,3.1,29.4,8.2h11.7c1.6,0,1.6,1.4,1.6,1.4v29.2c0,2.9-3.1,1.9-3.1,1.9l-10.2-2.9
		c-7.1,5-17.6,8.2-29.4,8.2s-22.3-3.2-29.4-8.2l-10.2,2.9c0,0-3.1,0.9-3.1-1.9V10.6c0,0,0-1.4,1.6-1.4h11.7C56.7,4.1,67.2,1,79.1,1"
		/>
	<path class="st0" d="M93.8,5.9c-0.1,0.2,0.1,0.4,0.6,0.5c0.5,0.1,0.7,0.1,0.8-0.1c0.1-0.2-0.1-0.4-0.6-0.5
		C94.1,5.6,93.9,5.7,93.8,5.9 M93.3,6.9c-0.1,0.2,0.1,0.4,0.7,0.6c0.5,0.1,0.8,0.1,0.9-0.2s-0.1-0.4-0.7-0.6
		C93.7,6.6,93.4,6.6,93.3,6.9 M95.1,6.8L95.1,6.8c0.4,0.2,0.6,0.4,0.4,0.8c-0.2,0.6-1.2,0.5-1.7,0.3c-0.6-0.2-1.3-0.5-1.1-1.1
		c0.1-0.4,0.4-0.4,0.9-0.4v0c-0.3-0.1-0.5-0.4-0.4-0.6c0.2-0.6,1-0.4,1.5-0.3c0.5,0.1,1.3,0.5,1.1,1C95.7,6.7,95.4,6.8,95.1,6.8
		L95.1,6.8z M89.6,5.6c-0.1,0.5,0.2,0.9,0.7,1s1-0.2,1.1-0.7c0.1-0.5-0.2-0.9-0.7-1C90.2,4.8,89.7,5.1,89.6,5.6 M92.1,6
		c-0.2,0.7-1,1.1-1.9,1S88.8,6.2,89,5.4c0.2-0.7,1-1.1,1.9-1C91.7,4.7,92.3,5.3,92.1,6 M86,4.6c-0.1,0.3,0.3,0.5,0.7,0.5
		c0.4,0,0.7,0,0.8-0.3c0.1-0.3-0.3-0.5-0.7-0.5C86.4,4.2,86.1,4.3,86,4.6 M85.2,6l0.4-0.5l0.1,0c0,0,0,0.1,0,0.1
		C85.8,5.8,86.2,6,86.4,6c0.6,0.1,0.9-0.1,1.1-0.6c-0.3,0.1-0.7,0.2-1,0.1c-0.6-0.1-1.2-0.4-1.1-0.9c0.1-0.6,0.9-0.8,1.6-0.7
		c0.8,0.1,1.3,0.7,1.2,1.4C88,6,87.3,6.5,86.3,6.4c-0.3,0-0.6-0.1-0.7-0.2C85.5,6.1,85.4,6,85.3,6C85.3,6,85.2,6,85.2,6L85.2,6z
		 M83.3,6.1L83.3,6.1c0.1,0,0.2-0.1,0.2-0.2l0.1-1.6c-0.1,0-0.3,0-0.4,0.1l-0.1,0l0.1-0.6l0.1,0c0,0.1,0.1,0.1,0.1,0.1
		c0.1,0,0.2-0.1,0.2-0.2c0-0.1,0-0.1-0.1-0.1V3.5l0.9,0.1l0,0.1c-0.1,0-0.2,0-0.2,0.1l-0.2,2.2c0,0.1,0.1,0.1,0.1,0.1l0,0.1
		L83.3,6.1z M79.9,3.9h-0.1c0-0.1-0.1-0.1-0.2-0.1l-1.9,0l0,0.6l1.1,0c0.1,0,0.2,0,0.2-0.2h0.1l0,0.7h-0.1c0-0.1-0.1-0.2-0.2-0.2
		l-1.1,0l0,0.7l1.9,0c0.1,0,0.2-0.1,0.2-0.1h0.1l0,0.7h-0.1c0-0.1-0.1-0.1-0.2-0.1l-2.7,0V5.9c0.1,0,0.1,0,0.1-0.1l0-2.2
		c0-0.1-0.1-0.1-0.1-0.1V3.5l2.6,0c0.2,0,0.2-0.1,0.2-0.1h0.1L79.9,3.9z M76,5.6L76,5.6c-0.1,0-0.1,0-0.1,0c-0.1,0-0.7,0.4-1.4,0.5
		c-1,0.1-1.9-0.3-2-1.1c-0.1-0.8,0.7-1.3,1.7-1.4c0.4,0,0.7,0,1,0.1c0.2,0,0.4,0.1,0.4,0.1c0,0,0.1-0.1,0.1-0.1l0.1,0.1l-0.4,0.6
		l-0.1,0c0,0,0,0,0-0.1c0-0.1-0.7-0.3-1-0.2c-0.6,0.1-1.2,0.4-1.1,0.9c0.1,0.5,0.6,0.8,1.3,0.8c0.5,0,1.1-0.3,1.1-0.5c0,0,0,0,0-0.1
		l0.1,0L76,5.6z M68.5,6.9L68.5,6.9c0-0.1,0.1-0.1,0.1-0.2l-0.4-2.1c0-0.1-0.1-0.1-0.1-0.1l0-0.1l1-0.1l0,0.1c0,0,0,0,0,0.1
		c0,0,0.1,0.1,0.1,0.1l1.9,1.2l-0.3-1.5c0-0.1-0.1-0.1-0.2-0.1l0-0.1l0.9-0.1l0,0.1c-0.1,0-0.1,0-0.1,0.1l0.4,2.1
		c0,0.1,0.1,0.1,0.1,0.1l0,0.1L71,6.5l0-0.1c0,0,0.1,0,0.1-0.1c0,0,0-0.1-0.1-0.1l-2-1.2l0.3,1.6c0,0.1,0.1,0.1,0.1,0.1l0,0.1
		L68.5,6.9z M66.7,7.3L66.7,7.3c0.1-0.1,0.1-0.1,0.1-0.2L66.2,5c0-0.1-0.1-0.1-0.2-0.1l0-0.1L67,4.6l0,0.1c-0.1,0-0.1,0.1-0.1,0.1
		l0.6,2.1C67.4,7,67.5,7,67.6,7l0,0.1L66.7,7.3z M62.9,8.1L63,7.4l0.1,0c0,0,0,0.1,0.1,0.1c0.2,0.1,0.7,0.1,1.1,0
		c0.2-0.1,0.9-0.3,0.8-0.6c-0.2-0.6-2.2,0.8-2.6-0.3c-0.1-0.4,0.2-0.9,1.1-1.1c0.8-0.2,1.2-0.1,1.4-0.2c0.1,0,0.1,0,0.1-0.1l0.1,0
		l-0.2,0.7h-0.1c0,0-0.1-0.1-0.1-0.1c-0.2-0.1-0.7-0.1-1.1,0C63.3,5.9,63,6.1,63,6.3c0.2,0.6,2.2-0.7,2.6,0.4c0.2,0.6-0.6,1-1.2,1.2
		C63.5,8.1,63.2,8,63.1,8C63,8,63,8.1,62.9,8.1L62.9,8.1z"/>
	<path class="st0" d="M92.3,42.1v-0.1c0.3,0,0.3-0.1,0.3-0.2V38h-1.9c-0.1,0-0.2,0.1-0.2,0.3h-0.1v-1.8h0.1c0,0.2,0.1,0.3,0.2,0.3
		h5.4c0.1,0,0.2-0.1,0.2-0.3h0.1v1.8h-0.1c0-0.2-0.1-0.3-0.2-0.3h-1.9v3.7c0,0.1,0,0.2,0.3,0.2v0.1H92.3z M81.8,40l0.1,0.1
		c0,0.1,0,0.1,0,0.2c0,0.3,1.2,0.7,2.3,0.7c1.1,0,1.6-0.2,1.6-0.7c0-0.7-4.5,0.1-4.5-1.9c0-1,1.1-1.7,2.7-1.7c1.5,0,2.6,0.4,2.9,0.4
		c0.1,0,0.2-0.1,0.3-0.1l0.1,0l-0.8,1.4l-0.1-0.1v-0.1c0-0.2-1.3-0.5-2.3-0.5c-1,0-1.3,0.2-1.3,0.5c0,0.9,4.6-0.2,4.6,2.1
		c0,0.9-0.7,1.8-3.1,1.8c-1.8,0-2.7-0.5-2.9-0.5c-0.1,0-0.2,0.1-0.2,0.1l-0.1,0L81.8,40z M76.3,40.1h-0.1c0-0.1-0.1-0.2-0.3-0.2
		h-2.1v0.9h3.5c0.1,0,0.2-0.1,0.2-0.3h0.1v1.7h-0.1c0-0.2-0.1-0.2-0.2-0.2h-5.5v-0.1c0.3,0,0.3-0.1,0.3-0.2v-4.7
		c0-0.1,0-0.2-0.3-0.2v-0.1h5.5c0.1,0,0.2-0.1,0.2-0.3h0.1v1.7h-0.1c0-0.2-0.1-0.3-0.2-0.3h-3.5v0.8h2.1c0.2,0,0.3-0.1,0.3-0.2h0.1
		V40.1z M63.7,41h1.9c0.8,0,1.1-0.2,1.1-0.6c0-0.4-0.3-0.6-1.1-0.6h-1.9V41z M63.7,38.8h1.5c0.9,0,1.2-0.1,1.2-0.5
		c0-0.4-0.2-0.5-1.2-0.5h-1.5V38.8z M62,37.1c0-0.1,0-0.2-0.3-0.2v-0.1h4.2c1.2,0,2.1,0.4,2.1,1.4c0,0.6-0.4,1-1.1,1.1v0
		c0.7,0.2,1.3,0.5,1.3,1.3c0,0.8-0.7,1.5-2.2,1.5h-4.2v-0.1c0.3,0,0.3-0.1,0.3-0.2L62,37.1L62,37.1z"/>
	<polygon class="st0" points="82.7,8.1 79.1,7.4 75.5,8.1 79.1,8.8 	"/>
	<path class="st0" d="M60.8,11.5h-5.9v14c0,3.8,0.7,5.4,2.3,6.3c1.5,0.9,3.2,0.9,5,0.8c1.8-0.1,3.5-0.4,4.9-1.5
		c1.4-1.1,2.1-2.6,2-6.2V11.5h-5.9v15.8c0,0.7-0.5,1.2-1.2,1.2c-0.7,0-1.2-0.6-1.2-1.2V11.5z M118.7,18c0-3.6-1.3-6.9-7.2-6.9
		c-4.6,0-7.3,2.2-7.3,7.1c0,7.4,8.6,6.5,8.6,11.4c0,1.2,0,2.7-1.4,2.6c-1.3-0.1-1.4-1.1-1.4-2.7v-1.2l-5.9-0.9V28
		c0,3.8,0.6,7.4,7.3,8c3.7,0.4,7.3-1.3,7.3-7.7c0-7.5-8.7-6.9-8.7-11.2c0-1.4,0.3-2.1,1.4-2.1c1.1,0,1.3,0.9,1.3,2.1l0,0.9L118.7,18
		z M101,20.2l1.8,0l1.1-8.8H101L101,20.2z M85.6,31.4c1.9,0.1,3.9,0.4,5.9,0.5v-8.4c0.8,0,1.6,0.1,2.3,0.1v8.6
		c1.9,0.3,3.7,0.6,5.9,1.1V11.5h-5.9v7.4l-2.3,0l0-7.4h-5.9L85.6,31.4L85.6,31.4z M84.3,17.1c0-0.1,0-0.5,0-0.6
		c-0.1-3-1.6-5.4-6.9-5.4c-4.5,0-7,2.3-7,6.4c0,6.4,8.4,4.8,8.4,9c0,1.1-0.5,1.6-1.3,1.6c-1.1,0-1.2-1-1.2-2.7c0,0,0-0.1,0-0.2h-5.8
		v0.3c0.1,5.4,3.3,6.1,7,6.1c3.7,0,7.2-1.3,7.2-6.5c0-6.7-8.3-5.2-8.3-9c0-0.9,0.4-1.5,1.2-1.5c1.2,0,1.4,0.9,1.4,1.9
		c0,0.1,0,0.4,0,0.5L84.3,17.1z M45.3,20.4h1.2c0.9,0,1.4-1,1.4-2.5c0-1.3-0.5-2.3-1.4-2.3c-0.4,0-1.1,0-1.1,0V20.4z M45.3,30.8
		l1.2-0.1c1.2-0.2,1.5-1.3,1.5-2.8c0-1.5-0.6-2.3-1.5-2.3l-1.2,0V30.8z M39.4,36.7c0-0.7,0-24.6,0-24.6c0-0.2,0-0.6,0.5-0.6h7.8
		c4.3,0,6,2,6,5.7c0,3.9-1.7,5.1-3.8,5.6v0.1c2.5,0.4,4.3,2.6,4.3,5.9c0,2.8-0.8,5-4.9,6.1c-3.1,1-5.9,1.6-9.2,2.4
		C39.8,37.2,39.4,37.4,39.4,36.7"/>
	<path class="st0" d="M79.1,39.5c-0.6,0-1-0.5-1-1s0.5-1,1-1c0.6,0,1,0.5,1,1C80.1,39,79.7,39.5,79.1,39.5 M79.1,37.1
		c-0.7,0-1.3,0.6-1.3,1.3s0.6,1.4,1.3,1.4s1.4-0.6,1.4-1.4C80.5,37.7,79.8,37.1,79.1,37.1 M79.2,38.3c0.1,0,0.1,0,0.2,0
		c0,0,0.1-0.1,0.1-0.1c0,0,0-0.1,0-0.1c0,0,0,0-0.1-0.1c0,0-0.1,0-0.1,0s-0.1,0-0.1,0h-0.2v0.3L79.2,38.3L79.2,38.3z M79.2,37.7
		c0.2,0,0.3,0,0.4,0.1s0.1,0.2,0.1,0.3c0,0.1,0,0.2-0.1,0.3c-0.1,0.1-0.1,0.1-0.2,0.1l0.3,0.6h-0.3l-0.3-0.5h-0.1v0.5h-0.3v-1.4
		H79.2z"/>
</g>
</svg>
