<?xml version="1.0" encoding="utf-8"?>
<!-- Generator: Adobe Illustrator 28.0.0, SVG Export Plug-In . SVG Version: 6.00 Build 0)  -->
<svg version="1.1" id="Layer_1" xmlns="http://www.w3.org/2000/svg" xmlns:xlink="http://www.w3.org/1999/xlink" x="0px" y="0px"
	 viewBox="0 0 158 48" style="enable-background:new 0 0 158 48;" xml:space="preserve">
<style type="text/css">
	.st0{clip-path:url(#SVGID_00000145763138103079034110000006198120614650747311_);}
	.st1{fill:#FFFFFF;}
	.st2{fill:#1A225B;}
	.st3{opacity:0.5;fill:#FFFFFF;fill-opacity:0.5;enable-background:new    ;}
</style>
<g>
	<g>
		<g>
			<defs>
				<rect id="SVGID_1_" x="38.1" width="82.3" height="48"/>
			</defs>
			<clipPath id="SVGID_00000016073857492121645810000018022123352462580393_">
				<use xlink:href="#SVGID_1_"  style="overflow:visible;"/>
			</clipPath>
			<g style="clip-path:url(#SVGID_00000016073857492121645810000018022123352462580393_);">
				<g>
					<path class="st1" d="M118.7,18.5C108.1,11.1,92.2,3.4,80.3,0.2c-0.8-0.2-1.7-0.2-2.5,0C65.9,3.4,50.1,11.1,39.5,18.5
						c-0.9,0.6-1.4,1.6-1.4,2.5v5.9c0,1,0.5,1.9,1.4,2.5c10.6,7.4,26.4,15.1,38.4,18.3c0.8,0.2,1.7,0.2,2.5,0
						c11.9-3.2,27.8-10.9,38.4-18.3c0.9-0.6,1.4-1.6,1.4-2.5V21C120.1,20.1,119.6,19.1,118.7,18.5z"/>
					<path class="st2" d="M79.1,42.4c6.8-1.6,15.3-5,23.3-8.6c5.9-3.1,11.5-6.6,15.7-9.8c-4.2-3.2-9.7-6.7-15.7-9.8
						c-8-3.6-16.5-7-23.3-8.6c-6.8,1.6-15.3,5-23.3,8.6c-5.9,3.1-11.5,6.6-15.7,9.8c4.2,3.2,9.7,6.7,15.7,9.8
						C63.8,37.4,72.3,40.8,79.1,42.4z"/>
					<path class="st3" d="M55.8,14.2c8-3.6,16.5-7,23.3-8.6c6.8,1.6,15.3,5,23.3,8.6c-8-4.2-16.6-7.9-23.3-9.7
						C72.3,6.3,63.7,10,55.8,14.2z M55.8,33.8c8,3.6,16.5,7,23.3,8.6c6.8-1.6,15.3-5,23.3-8.6c-7.9,4.2-16.5,7.8-23.3,9.7
						C72.3,41.6,63.7,38,55.8,33.8z"/>
					<path class="st1" d="M84.7,21.9c0,0.8-0.4,1.2-1.3,1.2H82v-5.2h1.5c0.8,0,1.2,0.4,1.2,1.2V21.9z M87.8,29.3v-2.6
						c0-1.3-1.1-2.4-2.4-2.4c1.3,0,2.4-1.1,2.4-2.4V19c0-2.5-1.2-3.8-3.8-3.8h-5.1v17.6H82v-7h1.4c0.9,0,1.3,0.4,1.3,1.3v2.8
						c0,1.5,0.4,2.4,1.1,2.9h2.9C88.1,31.9,87.8,30.7,87.8,29.3z M95.8,29c0,0.8-0.4,1.2-1.2,1.2H94c-0.8,0-1.2-0.4-1.2-1.2V18.9
						c0-0.8,0.4-1.2,1.2-1.2h0.6c0.8,0,1.2,0.4,1.2,1.2C95.8,18.9,95.8,29,95.8,29z M95.2,15h-1.7c-2.5,0-3.8,1.2-3.8,3.8v10.4
						c0,2.5,1.2,3.8,3.8,3.8h1.7c2.5,0,3.8-1.2,3.8-3.8V18.8C98.9,16.3,97.7,15,95.2,15z M106.7,23.7l2.8,9.1h-3.2l-1.7-6.6
						l-1.8,6.6h-3l2.8-8.8l-2.8-8.8h3.2l1.7,6.1l1.7-6.1h3L106.7,23.7z M72.7,17.7H72c-0.8,0-1.2,0.4-1.2,1.2V29
						c0,0.8,0.4,1.2,1.2,1.2h0.6c0.8,0,1.2-0.4,1.2-1.2V18.9C73.8,18.1,73.4,17.7,72.7,17.7z M73.2,33h-1.7c-2.5,0-3.8-1.2-3.8-3.8
						V18.8c0-2.5,1.2-3.8,3.8-3.8h1.7c2.5,0,3.8,1.2,3.8,3.8v10.4C76.9,31.7,75.7,33,73.2,33z M63.4,15.2V30h3.4v2.8h-6.5V15.2H63.4
						z M58.6,26v3.2c0,2.5-1.2,3.8-3.8,3.8h-1.5c-2.5,0-3.8-1.2-3.8-3.8V18.8c0-2.5,1.2-3.8,3.8-3.8h1.5c2.5,0,3.7,1.2,3.7,3.7v3
						h-3.1v-2.8c0-0.8-0.4-1.2-1.2-1.2h-0.5c-0.8,0-1.2,0.4-1.2,1.2V29c0,0.8,0.4,1.2,1.2,1.2h0.6c0.8,0,1.2-0.4,1.2-1.2v-3H58.6z"
						/>
					<path class="st1" d="M117,34.3c0-0.1-0.1-0.2-0.3-0.2h-0.2v0.4h0.2C116.9,34.5,117,34.4,117,34.3z M117,35.2c0-0.1,0-0.1,0-0.2
						c0-0.1,0-0.1,0-0.2c0-0.1-0.1-0.1-0.3-0.1h-0.1v0.5h-0.3v-1.3h0.5c0.4,0,0.6,0.1,0.6,0.4c0,0.1-0.1,0.2-0.2,0.3
						c0.1,0.1,0.2,0.1,0.2,0.3s0,0.3,0.1,0.3H117z M117.7,34.5c0-0.3-0.1-0.5-0.3-0.7c-0.2-0.2-0.4-0.3-0.7-0.3s-0.5,0.1-0.7,0.3
						s-0.3,0.4-0.3,0.7s0.1,0.5,0.3,0.7c0.2,0.2,0.4,0.3,0.7,0.3c0.3,0,0.5-0.1,0.7-0.3C117.6,35,117.7,34.8,117.7,34.5z
						 M117.9,34.5c0,0.3-0.1,0.6-0.4,0.9c-0.2,0.2-0.5,0.3-0.8,0.3s-0.6-0.1-0.9-0.4c-0.2-0.2-0.3-0.5-0.3-0.8s0.1-0.6,0.4-0.8
						c0.2-0.2,0.5-0.4,0.8-0.4s0.6,0.1,0.8,0.4C117.8,33.9,117.9,34.2,117.9,34.5z"/>
				</g>
			</g>
		</g>
	</g>
</g>
</svg>
