<?xml version="1.0" encoding="utf-8"?>
<!-- Generator: Adobe Illustrator 27.1.1, SVG Export Plug-In . SVG Version: 6.00 Build 0)  -->
<svg version="1.1"
	 id="Layer_1" xmlns:dc="http://purl.org/dc/elements/1.1/" xmlns:cc="http://creativecommons.org/ns#" xmlns:rdf="http://www.w3.org/1999/02/22-rdf-syntax-ns#"
	 xmlns="http://www.w3.org/2000/svg" xmlns:xlink="http://www.w3.org/1999/xlink" x="0px" y="0px" viewBox="0 0 158 48"
	 style="enable-background:new 0 0 158 48;" xml:space="preserve">
<style type="text/css">
	.st0{fill:#FFFFFF;}
</style>
<g>
	<path class="st0" d="M53.9,33l-1.5,0.9c-0.5-0.8-1.3-1.2-2.3-1.2c-1.6,0-2.8,1.2-2.8,2.9c0,1.8,1.2,2.9,2.8,2.9
		c1,0,1.8-0.4,2.3-1.2l1.4,1c-0.8,1.2-2.1,1.9-3.8,1.9c-2.7,0-4.7-1.9-4.7-4.6c0-2.7,1.9-4.6,4.7-4.6C51.7,31,53.2,31.7,53.9,33"/>
	<path class="st0" d="M56.6,35.6c0,1.7,1.2,2.9,2.8,2.9c1.6,0,2.8-1.2,2.8-2.9c0-1.7-1.2-2.9-2.8-2.9C57.8,32.7,56.6,33.9,56.6,35.6
		 M64.1,35.6c0,2.7-1.9,4.6-4.7,4.6c-2.7,0-4.7-2-4.7-4.6c0-2.7,1.9-4.6,4.7-4.6C62.1,31,64.1,32.9,64.1,35.6"/>
	<path class="st0" d="M73.6,40h-1.7l-4.5-5.9l0,5.9h-1.8v-8.9h1.7l4.5,5.9v-5.9h1.8L73.6,40z"/>
	<path class="st0" d="M78.1,36.3h2.6l-1.3-3.4L78.1,36.3z M84,40h-1.9L81.3,38h-3.8L76.7,40h-1.8l3.5-8.9h2.2L84,40z"/>
	<path class="st0" d="M106.2,36.3h2.6l-1.3-3.4L106.2,36.3z M112,40h-1.9l-0.8-2.1h-3.8l-0.8,2.1h-1.8l3.5-8.9h2.2L112,40z"/>
	<path class="st0" d="M111,32v-0.7h-0.3v-0.2h0.7v0.2h-0.3V32H111z"/>
	<path class="st0" d="M112.4,32v-0.6l-0.2,0.5H112l-0.2-0.5V32h-0.2v-0.8h0.3l0.2,0.5l0.2-0.5h0.3V32H112.4z"/>
	<path class="st0" d="M89.2,35.4v1.5h2.2c-0.3,1.1-1.1,1.7-2.5,1.7c-1.5,0-2.8-1.1-2.8-3c0-1.7,1.2-2.9,2.8-2.9
		c0.9,0,1.6,0.4,2.1,0.9l1.3-1.3c-0.8-0.9-2-1.4-3.4-1.4c-2.7,0-4.7,1.9-4.7,4.6c0,2.9,2.2,4.6,4.6,4.6c2.5,0,4.3-1.9,4.3-4.6v-0.2
		L89.2,35.4z"/>
	<path class="st0" d="M100.4,34c0,0.7-0.6,1.3-1.3,1.3h-2.4v-2.6h2.4C99.8,32.8,100.4,33.3,100.4,34 M102,34c0-1.6-1.3-2.9-2.9-2.9
		l-4.2,0V40h1.8v-3.1h1.6l1.6,3.1h2l-1.8-3.3C101.2,36.3,102,35.3,102,34"/>
</g>
<g>
	<path class="st0" d="M64.3,47.4c0.4,0,0.6-0.2,0.6-0.5v0c0-0.3-0.2-0.4-0.7-0.4h-0.9v0.9L64.3,47.4z M64.1,46
		c0.4,0,0.6-0.1,0.6-0.5v0c0-0.3-0.2-0.4-0.6-0.4h-0.8V46L64.1,46z M62.8,44.9c0-0.2,0.1-0.3,0.3-0.3h1.2c0.4,0,0.7,0.1,0.9,0.3
		c0.1,0.1,0.2,0.3,0.2,0.5v0c0,0.4-0.2,0.6-0.5,0.7c0.4,0.1,0.7,0.4,0.7,0.8v0c0,0.6-0.5,0.9-1.2,0.9h-1.2c-0.2,0-0.3-0.1-0.3-0.3
		L62.8,44.9z"/>
	<path class="st0" d="M70,46.3c0.4,0,0.7-0.2,0.7-0.6v0c0-0.4-0.3-0.5-0.7-0.5h-0.8v1.1L70,46.3z M68.6,44.9c0-0.2,0.1-0.3,0.3-0.3
		H70c0.4,0,0.7,0.1,1,0.3c0.2,0.2,0.3,0.4,0.3,0.7v0c0,0.5-0.3,0.9-0.8,1l0.6,0.8c0.1,0.1,0.1,0.1,0.1,0.2c0,0.2-0.1,0.3-0.3,0.3
		c-0.1,0-0.2-0.1-0.3-0.2l-0.8-1h-0.7v0.9c0,0.2-0.1,0.3-0.3,0.3c-0.2,0-0.3-0.1-0.3-0.3L68.6,44.9z"/>
	<path class="st0" d="M76.2,46.6l-0.6-1.3l-0.6,1.3L76.2,46.6z M74.1,47.6l1.2-2.7c0.1-0.1,0.2-0.2,0.4-0.2h0c0.2,0,0.3,0.1,0.3,0.2
		l1.2,2.7c0,0,0,0.1,0,0.1c0,0.2-0.1,0.3-0.3,0.3c-0.1,0-0.2-0.1-0.3-0.2l-0.3-0.6h-1.6l-0.3,0.6c0,0.1-0.1,0.2-0.3,0.2
		c-0.2,0-0.3-0.1-0.3-0.3C74,47.7,74,47.6,74.1,47.6"/>
	<path class="st0" d="M80.2,44.9c0-0.2,0.1-0.3,0.3-0.3h0.1c0.1,0,0.2,0.1,0.3,0.2l1.7,2.1v-2c0-0.2,0.1-0.3,0.3-0.3
		c0.2,0,0.3,0.1,0.3,0.3v2.8c0,0.2-0.1,0.3-0.3,0.3h0c-0.1,0-0.2-0.1-0.3-0.2l-1.7-2.2v2.1c0,0.2-0.1,0.3-0.3,0.3
		c-0.2,0-0.3-0.1-0.3-0.3L80.2,44.9z"/>
	<path class="st0" d="M87.5,47.4c0.7,0,1.2-0.5,1.2-1.1v0c0-0.6-0.5-1.1-1.2-1.1h-0.7v2.3H87.5z M86.3,44.9c0-0.2,0.1-0.3,0.3-0.3
		h0.9c1,0,1.8,0.7,1.8,1.6v0c0,0.9-0.7,1.7-1.8,1.7h-0.9c-0.2,0-0.3-0.1-0.3-0.3V44.9z"/>
	<path class="st0" d="M92.2,47.6c-0.1,0-0.1-0.1-0.1-0.2c0-0.2,0.1-0.3,0.3-0.3c0.1,0,0.1,0,0.2,0.1c0.3,0.2,0.6,0.3,0.9,0.3
		s0.6-0.2,0.6-0.4v0c0-0.2-0.1-0.4-0.7-0.5c-0.7-0.2-1.1-0.4-1.1-1v0c0-0.6,0.5-1,1.1-1c0.4,0,0.8,0.1,1.1,0.3
		c0.1,0,0.1,0.1,0.1,0.2c0,0.2-0.1,0.3-0.3,0.3c-0.1,0-0.1,0-0.2,0c-0.3-0.2-0.5-0.3-0.8-0.3c-0.3,0-0.5,0.2-0.5,0.4v0
		c0,0.3,0.2,0.4,0.8,0.5c0.7,0.2,1.1,0.4,1.1,1v0c0,0.6-0.5,1-1.2,1C93,48,92.6,47.9,92.2,47.6"/>
</g>
<g>
	<path class="st0" d="M58.3,46.9c-0.3,0-0.6-0.3-0.6-0.6c0-0.3,0.3-0.6,0.6-0.6c0.2,0,0.5,0.2,0.7,0.4c0.1,0.1,0.1,0.3,0,0.3
		C58.8,46.6,58.5,46.9,58.3,46.9"/>
	<path class="st0" d="M99.1,45.7c0.3,0,0.6,0.3,0.6,0.6c0,0.3-0.3,0.6-0.6,0.6c-0.2,0-0.5-0.2-0.7-0.4c-0.1-0.1-0.1-0.3,0-0.3
		C98.6,45.9,98.9,45.7,99.1,45.7"/>
	<path class="st0" d="M90.7,19.8l0.1,0l0.1,0l0.1,0l0.1,0l0.1,0l0.1,0l0.1-0.1l0.1,0l0.1,0l0.1-0.1l0.1,0l0.1,0l0.1,0l0.1,0l0.1,0
		l0.1,0l0.1,0l0.1,0l0.1,0l0.1,0l0.1,0l0.1,0l0.1,0l0.1,0l0.1,0h0.1l0.1,0l0.1,0l0.1,0l0.1,0l0.1,0l0.1,0l0.1,0l0.1,0.1l0.1,0
		l0.1,0.1l0.1,0l0.1,0l0.1,0l0.1,0l0.1,0h0l0.2,0l0.1,0l0.2,0l0.2,0l0.1,0l0.2,0l0.1,0l0.1,0l0.1,0l0.2,0l0.1-0.1l0.1,0l0.1,0l0.1,0
		l0.1,0l0.1-0.1l0.1-0.1l0.1,0l0.1,0v0l-0.1-0.1l-0.1-0.1l-0.1,0L98.3,19L98.2,19l-0.1-0.1l-0.1,0l-0.1-0.1l-0.1,0l-0.1-0.1
		l-0.1-0.1l-0.1,0l-0.1,0l-0.1,0l-0.1,0l-0.1,0l-0.1,0l-0.1,0l-0.1,0l-0.1,0l-0.1,0l-0.1,0l-0.1,0l-0.1,0l-0.1,0l-0.1,0l-0.1,0
		l-0.1,0l-0.1,0l-0.1,0l-0.1,0l-0.1,0l-0.1,0l-0.1,0l-0.1,0l-0.1,0l-0.1,0l-0.1,0l-0.1,0l-0.1,0l-0.1,0l-0.1,0l-0.1,0.1l-0.1,0
		l-0.1,0l-0.1,0.1l-0.1,0l-0.1,0L92,19l-0.1,0.1l-0.1,0.1l-0.1,0.1l-0.1,0.1l-0.1,0l-0.1,0.1l-0.1,0.1L91,19.5l-0.1,0.1l-0.1,0.1
		l-0.1,0.1l0,0L90.7,19.8z"/>
	<path class="st0" d="M86.8,22.4l0.1,0l0.1,0l0.1,0l0.1,0l0.1,0l0.1,0l0.1,0l0.1,0l0.1,0l0.1,0l0.1,0.1l0.1,0l0.1,0.1l0.1,0l0.1,0.1
		l0.1,0.1l0.1,0l0.1,0l0.1,0l0.1,0l0.2,0l0.2,0l0.1,0l0.2,0l0.2,0l0.1,0l0.2,0l0.1,0l0.1,0l0.1,0l0.1,0l0.2,0l0.1-0.1l0.1-0.1
		l0.1-0.1l0.1,0l0.1,0l0.1,0l0.1,0l0.1-0.1l0.1,0l0.1,0l0.1,0l0.1,0l0.1,0l0.1,0l0.1,0l0.1,0l0.1,0l0.1,0l0.1,0l0.1,0l0.1,0l0.1,0
		l0.1,0l0.1,0l0.1,0l0.1,0l0.1,0l0.1,0.1l0.1,0l0.1,0l0.1,0l0.1,0.1l0.1,0l0.1,0l0.1,0l0.1,0l0.2,0l0.2,0l0.1,0l0.1,0l0.2,0l0.2,0
		l0.2,0l0.1,0l0.1,0l0.1-0.1l0.1,0l0.1-0.1l0.2,0l0.1-0.1l0.1,0l0.1,0l0.1,0l0.1,0l0.1,0l0.1,0l0.1,0l0.1,0l0.1,0l0.1,0l0.1,0l0.1,0
		l0.1,0l0.1,0l0.1,0l0.1,0l0.1,0l0.1,0l0.1,0l0.1,0l0.1,0l0.1,0.1l0.1,0l0.1,0l0,0l0.1,0l0.1,0.1l0.1,0l0.1,0l0.1,0.1l0.1,0l0.1,0
		l0,0l-0.1-0.1l-0.1-0.1l-0.1-0.1l-0.1-0.1l-0.1-0.1l-0.1-0.1l-0.1-0.1l-0.1-0.1l-0.1-0.1l-0.1-0.1l-0.1-0.1l-0.1-0.1l-0.1-0.1
		l-0.1-0.1l-0.1-0.1L101,21l-0.1-0.1l-0.1-0.1l-0.1-0.1l-0.1-0.1l-0.1-0.1l-0.1-0.1l-0.1-0.1l-0.1-0.1l-0.1,0l-0.1,0l-0.1,0l-0.2,0
		l-0.1,0l-0.1,0l-0.1,0l-0.2,0l-0.1,0l-0.1,0.1l-0.1,0l-0.1,0l-0.1,0l-0.1,0l-0.1,0l-0.1,0l-0.1,0l-0.1,0l-0.1,0l-0.1,0l-0.1,0
		l-0.1,0l-0.1,0l-0.1,0l-0.1,0l-0.1,0l-0.1,0l-0.1,0l-0.1,0l-0.1,0l-0.1,0l-0.1,0l-0.1,0l-0.1,0l-0.1,0l-0.1-0.1l-0.1,0L95,20.4
		l-0.1-0.1l-0.1,0l-0.1,0l-0.1,0l-0.1-0.1l-0.2,0l-0.1,0l-0.2,0l-0.2,0l-0.2,0l-0.1,0l-0.2,0l-0.2,0l-0.1,0l-0.1,0l-0.1,0l-0.1,0
		l-0.1,0.1l-0.1,0l-0.1,0l-0.1,0l-0.1,0.1l-0.1,0.1l-0.1,0l-0.1,0l-0.1,0l-0.1,0l-0.1,0l-0.1,0l-0.1,0l-0.1,0l-0.1,0l-0.1,0l-0.1,0
		l-0.1,0l-0.1,0l-0.1,0l-0.1,0l-0.1,0l-0.1,0l-0.1,0l-0.1,0l0,0L89,20.7l-0.1,0.1l-0.1,0.1L88.6,21L88.5,21l-0.1,0.1l-0.1,0.1
		l-0.1,0.1L88,21.4l-0.1,0.1l-0.1,0.1l-0.1,0.1l-0.1,0.1l-0.1,0.1l-0.1,0.1L87.2,22l-0.1,0.1L87,22.1l-0.1,0.1l-0.1,0.1l-0.1,0.1
		l0,0.1L86.8,22.4z"/>
	<path class="st0" d="M103.3,26.3l0-0.1l0-0.1l0,0l0-0.1l0-0.1l0-0.1l0-0.1l0-0.1l-0.1-0.1l0-0.1l-0.1-0.1l0-0.1l0-0.1l0-0.2
		l-0.1-0.1l0-0.1l-0.1-0.1l0,0l-0.1,0l-0.1,0l-0.1,0l-0.1,0l-0.1,0l-0.1,0l-0.1,0l-0.1-0.1l-0.1,0l-0.1,0l-0.1,0l-0.1-0.1l-0.2,0
		l-0.1-0.1l-0.2,0l-0.1,0l-0.1,0l-0.1,0l-0.2,0l-0.1,0l-0.2,0l-0.2,0l-0.1,0l-0.1,0l-0.1,0l-0.1,0l-0.1,0l-0.1,0l-0.1,0l-0.1,0
		l-0.1,0.1l-0.1,0l-0.1,0.1l-0.1,0l-0.1,0.1l-0.1,0l-0.1,0l-0.1,0l-0.1,0l-0.1,0l-0.1,0l-0.1,0L97,24l-0.1,0l-0.1,0l-0.1,0l-0.1,0
		l-0.1,0L96.3,24l-0.1,0L96,24l-0.1,0l-0.1-0.1l-0.1,0l-0.1,0l-0.1-0.1l-0.1,0L95,23.7l-0.1-0.1l-0.1,0l-0.1,0l-0.1,0l-0.1-0.1
		l-0.1,0l-0.1,0l-0.1,0l-0.2,0l-0.1,0l-0.2,0l-0.1,0l-0.1,0l-0.2,0l-0.1,0l-0.2,0l-0.1,0l-0.1,0l-0.1,0.1l-0.1,0.1l-0.2,0l-0.1,0.1
		l-0.1,0l-0.1,0l0,0l-0.1,0l-0.1,0l-0.1,0.1l-0.1,0l-0.1,0l-0.1,0l-0.1,0l-0.1,0l-0.1,0l-0.1,0L90,24l-0.1,0l-0.1,0l-0.1,0l-0.1,0
		l-0.1,0l-0.1,0l-0.1,0l-0.1,0l-0.1-0.1l-0.1-0.1l-0.1,0l-0.1-0.1l-0.2,0l-0.1,0L88,23.5l-0.1,0l-0.2,0l-0.1,0l-0.1,0l-0.2,0h0
		l-0.1,0l-0.2,0l-0.2,0l-0.1,0l-0.1,0l-0.1,0l-0.2,0l-0.2,0l-0.1,0.1l-0.2,0l-0.1,0l-0.1,0.1l-0.1,0l-0.1,0l-0.1,0l0,0l0,0l-0.1,0
		l-0.1,0.1l-0.1,0.1l-0.1,0.1L84.8,24L84.7,24l-0.1,0.1l-0.1,0.1l-0.1,0.1l-0.1,0.1l-0.1,0.1L84,24.6l-0.1,0.1l-0.1,0.1l-0.1,0.1
		L83.5,25l-0.1,0.1l-0.1,0.1l-0.1,0.1l-0.1,0.1L83,25.5l-0.1,0.1l-0.1,0.1l-0.1,0.1l-0.1,0.1L82.5,26l-0.1,0.1l-0.1,0.1l-0.1,0.1
		l0,0l0.1,0l0.1,0.1l0.1,0l0.1,0.1l0.1,0.1l0.2,0h0.2l0.1,0l0.1,0l0.2,0l0.2,0l0.1,0l0.2,0l0.2,0l0.1,0l0.1,0l0.2,0l0.1-0.1l0.1-0.1
		l0.2,0l0.1,0l0.1-0.1l0.1,0l0.1,0l0.1,0l0.1-0.1l0.1,0l0.1,0l0.1,0l0.1,0l0.1,0l0.1,0l0.1,0l0.1,0l0.1,0l0.1,0l0.1,0l0.1,0l0.1,0.1
		l0.1,0l0.1,0l0.1,0l0.1,0l0.1,0.1l0.1,0.1l0.1,0l0.1,0.1l0.1,0l0.1,0l0.1,0.1l0.2,0l0.1,0l0.1,0l0.2,0l0.2,0l0.1,0l0.2,0l0.1,0
		l0.1,0l0.2,0l0.1,0l0.1,0l0.1,0l0.2,0l0.1-0.1l0.1-0.1l0.1,0l0.1,0l0.1,0l0.1,0l0.1,0l0.1,0l0.1,0l0.1,0l0.1,0l0.1,0l0.1,0l0.1,0
		l0.1,0l0.1,0l0.1,0l0.1,0l0.1,0l0.1,0l0.1,0l0.1,0l0.1,0l0.1,0l0.1,0.1l0.1,0l0.1,0.1l0.1,0l0.1,0l0.1,0.1l0.1,0l0.2,0l0.1,0l0.1,0
		l0.2,0l0.1,0l0.1,0l0.2,0l0.2,0l0.1,0l0.1,0l0.2,0l0.2,0l0.2,0l0.1-0.1l0.1,0l0.1,0l0,0l0.1,0l0.1-0.1l0.1-0.1l0.1-0.1l0.1,0l0.1,0
		L99,26l0.1,0l0.1,0l0.1,0l0.1,0l0.1,0l0.1,0l0.1,0l0.1,0l0.1,0l0.1,0l0.1,0l0.1,0l0.1,0l0.1,0l0.1,0l0.1,0l0.1,0l0.1,0l0.1,0
		l0.1,0.1l0.1,0.1l0.2,0l0.1,0.1l0.1,0.1l0.1,0l0.2,0l0.2,0l0.1,0.1l0.2,0l0.2,0l0,0h0l0-0.1L103.3,26.3z"/>
	<path class="st0" d="M72.8,6.6L72.8,6.6L73,6.8l0.1,0.1l0.1,0l0,0l0.1,0.1l0.1,0.1l0.1,0.1l0.1,0.1l0.1,0.1l0.2,0.2L74,7.8L74.2,8
		l0.1,0.2l0.2,0.1l0.2,0.2l0,0l0,0l0.1,0.1L75,8.8l0,0l0,0L75.1,9l0.1,0.1l0.1,0.1l0.2,0.2l0.1,0.2l0.1,0.1l0,0l0,0l0.1,0.1l0.1,0.1
		L76,9.8l0.1,0.1l0,0l0,0l0.2,0.2l0,0l0,0l0.1,0.1l0.2,0.2l0.2,0.2l0.1,0.1l0.1,0.1l0.1,0.1l0,0l0,0l0.1,0.1l0.1,0.1l0.1,0.1l0,0.1
		l0.2,0.1l0.1,0.1l0.1,0.1l0.1,0.1l0,0l0.1,0l0.1-0.1l0-0.2l0-0.1l0-0.2l0-0.2l0-0.1l0-0.2l0-0.1l0,0l0-0.1l0-0.1l0-0.1l0-0.1l0-0.2
		l0-0.1l0-0.1l0,0l0-0.2l0-0.2l0-0.2v0l0-0.1l0-0.2v0l0-0.2l0-0.2l0-0.1l0-0.1l0-0.1l0-0.1l0-0.1l0-0.1l0-0.2l0-0.1l0-0.1l0-0.1
		L78,7.5l-0.1-0.1l-0.1-0.1l-0.1-0.1l-0.1-0.1l0,0L77.5,7l-0.2-0.1l-0.1-0.1l-0.1-0.1L77,6.4l0,0l-0.1-0.1l-0.2-0.1l-0.1-0.1L76.5,6
		l-0.1-0.1l-0.1-0.1l0,0l-0.1-0.1L76,5.5l-0.1-0.1l-0.2-0.2l0,0l-0.1-0.1L75.5,5l-0.1-0.1l-0.1-0.1l-0.1-0.1L75,4.5l-0.1-0.1
		l-0.1-0.1l-0.1-0.1l-0.2,0l-0.1,0.1l-0.1,0.1l-0.1,0.1l-0.1,0.1L74,4.8L74,4.8l0,0.1l0,0l0,0l0,0l0,0.1l-0.1,0.1l-0.1,0.1l0,0
		l-0.1,0.1l-0.1,0.2l-0.1,0.2l-0.1,0.2l0,0.1l0,0L73,6.3l-0.1,0.2l0,0.1L72.8,6.6L72.8,6.6z"/>
	<path class="st0" d="M75.4,3.3L75.4,3.3L75.4,3.3l0.1,0.1l0.1,0.1l0.2,0.2l0,0l0.1,0l0.1,0.1L76,3.9l0,0l0.1,0.1l0.1,0.1l0.1,0.1
		l0.1,0.1l0.1,0.1l0.1,0.1l0.1,0.1l0.1,0.1l0,0l0,0L77,5l0.1,0.1l0.1,0.1l0,0l0,0l0,0l0.1,0.1l0.1,0.1l0.1,0.1l0.1,0.1l0.1,0.1
		l0.1,0.1l0,0l0,0l0.1,0l0.1-0.1l0-0.1l0-0.1l0-0.1l0,0l0,0l0-0.1l0-0.2l0-0.1l0-0.1l0-0.2v0l0-0.2l0-0.1l0-0.1V4l0-0.2l0-0.2l0,0
		l0-0.1l0-0.2l0-0.1l0-0.2l0-0.2l0-0.1l0-0.2l0-0.1l0-0.2l0-0.2l0-0.1l0-0.2l0-0.2V1.4l0,0l0-0.2l0,0l0-0.1l0-0.1l0-0.1l0-0.2l0-0.2
		l0-0.2v0L78.1,0L78,0l0,0l-0.1,0.1l0,0l0,0l0,0l-0.1,0.1l-0.1,0.1l-0.1,0.1l-0.1,0.1l0,0l-0.1,0.1L77.1,1L77.1,1L77,1.1l-0.1,0.2
		l-0.2,0.2l-0.1,0.1l0,0l-0.1,0.1l0,0.1l0,0l-0.2,0.2L76,2.3l-0.2,0.2l-0.1,0.2l0,0l-0.1,0.1l-0.1,0.1l0,0l-0.2,0.2l0,0l-0.1,0.1
		L75.4,3.3z"/>
	<path class="st0" d="M79.3,4.9L79.3,4.9l0,0.3l0,0l0,0.1l0,0.2l0,0.2l0.1,0.1l0.1,0l0.1-0.1l0.1-0.1l0,0l0,0l0.1-0.1L80,5.3l0,0
		l0.2-0.1l0.2-0.2l0.1-0.1l0.1-0.1l0.2-0.1l0.2-0.2l0.1-0.1l0,0l0.1-0.1l0.1-0.1l0,0l0.1-0.2l0,0l0.2-0.2l0.2-0.2l0.1-0.1l0,0
		l0.1-0.1L82,3.3l0.1-0.1L82,3l-0.1-0.2l-0.1-0.1l-0.1-0.1l-0.1-0.2l-0.1-0.1l0,0l0,0l0,0l-0.1-0.1L81.2,2l-0.1-0.1l0-0.1l-0.2-0.2
		l-0.1-0.1l0,0l0,0l0-0.1l-0.2-0.2l-0.2-0.2L80.3,1l-0.2-0.2L80,0.6l0,0l0,0l0,0l-0.2-0.1l-0.1-0.1l-0.1-0.1l0,0l0,0l0,0L79.5,0
		l-0.1,0l-0.1,0.1l0,0.2l0,0.1l0,0.1v0l0,0.2l0,0.1l0,0.1V1l0,0.1l0,0.2l0,0l0,0.1l0,0.2v0l0,0l0,0l0,0.2l0,0.2v0l0,0.2v0l0,0.1
		l0,0.2l0,0.2l0,0.2l0,0.1l0,0.2l0,0.1l0,0.1l0,0.2l0,0.2l0,0.1l0,0.2l0,0.2v0l0,0.1l0,0.1l0,0.2L79.3,4.9z"/>
	<path class="st0" d="M78.2,20.5l0-0.1l0-0.1l0-0.1l0-0.1l0-0.1l-0.1-0.1l0,0l0-0.1l-0.2-0.1l-0.1-0.1l0,0l-0.1-0.1l-0.1-0.1l0,0
		l-0.1-0.2l0,0l0,0l0,0l0,0l-0.1-0.1L77,18.8l-0.1-0.1l-0.1-0.1l-0.2-0.1l0,0l-0.1-0.2l-0.1-0.1l-0.1-0.1l-0.1-0.1l-0.1-0.1
		l-0.1-0.2L76,17.8l0-0.1l-0.1-0.1l-0.1-0.1l-0.1-0.2l-0.2-0.1l0,0l-0.1-0.1l-0.1-0.1l-0.1-0.2l0,0l0,0L75,16.8l-0.1-0.2l-0.1,0l0,0
		l-0.1-0.1l-0.1-0.1l-0.1-0.1l-0.1-0.1l-0.1-0.1L74.2,16l0,0l-0.1-0.2l-0.1-0.1l-0.1-0.1l-0.1-0.1l-0.1-0.1l-0.1-0.1l-0.1-0.1l0,0
		l0-0.1L73.1,15l0,0L73,14.8l0,0l0,0l-0.1-0.1l-0.1-0.1l-0.1-0.1l-0.1-0.1l0-0.1l-0.2-0.2L72.2,14l0,0l-0.1-0.1l-0.1-0.1l-0.1-0.1
		l0,0l-0.1-0.1l-0.1-0.1l0,0l-0.1-0.1l-0.1-0.1l0,0l-0.1,0L71.3,13l-0.1-0.1L71,12.8l-0.1-0.1l-0.1-0.1l-0.1-0.1l-0.1-0.1l0,0
		l-0.1-0.1l0,0l0,0l-0.1-0.1l-0.1,0l-0.1,0L70,12.2l0,0.2l0,0.1l0,0l0,0.2l0,0.2l0,0l0,0.1l0,0.2l0,0.2l0.1,0.2l0,0.1l0,0.2l0,0.1
		l0,0.1l0,0.1l0,0.2l0,0.1l0,0.1l0,0.1v0l0,0l0,0.1l0,0l0,0.1l0.1,0.2l0,0l0,0.2l0,0.2l0,0l0,0.1l0.1,0.2l0.1,0.1l0,0l0,0.2l0,0.1
		l0,0.1l0.1,0.1l0.1,0.2l0,0l0,0l0.1,0.2l0.1,0.2l0.1,0.2l0,0.1l0.1,0.1l0,0.1l0.1,0.2l0.1,0.2l0.1,0.2l0.1,0.2l0,0l0,0l0.1,0.1
		l0.1,0.2l0.1,0.1l0,0l0,0l0.2,0.1l0.1,0.2l0.1,0.2l0.1,0.1l0,0l0,0l0,0l0.1,0.1l0.1,0.1l0.1,0.1l0.1,0.1l0.1,0.1l0.1,0.1l0.1,0.2
		l0.1,0l0,0l0.1,0.1l0,0l0,0l0,0l0,0l0.1,0.1l0.1,0.1l0.1,0.1l0.1,0.1l0.2,0.1l0.1,0l0.1,0.1l0.1,0l0.1,0.1l0.1,0l0.1,0.1l0.1,0
		l0.1,0l0.2,0.1l0.2,0.1l0.1,0l0.1,0l0.1,0l0.1,0l0.2,0.1l0.1,0l0,0l0.2,0.1l0.1,0l0.1,0l0.2,0.1l0.1,0l0.1,0l0.1,0l0.1,0l0.1,0
		l0.1,0l0.1,0l0.1,0l0.2,0l0.1,0l0.2,0l0,0l0,0l0.1-0.2l0,0l0-0.1l0-0.2l0,0l0-0.1l0-0.2L78.2,20.5z"/>
	<path class="st0" d="M79.3,10.9L79.3,10.9l0,0.1l0,0.2l0,0l0,0.1l0,0.2l0,0.2l0,0l0.1,0.1l0.1,0l0,0l0.1-0.1l0,0l0.1-0.1l0.1-0.1
		l0.2-0.1l0.2-0.2l0.2-0.2l0.1-0.2l0.2-0.2l0.1-0.1l0,0l0.1-0.1l0.1-0.1l0.1-0.1l0.1-0.1l0.1-0.1l0.1-0.1l0.2-0.2l0.1-0.1l0.1-0.1
		l0.1-0.1l0.1-0.1l0.1-0.1L82,9.3l0,0l0,0l0.1-0.1l0.1-0.1l0.1-0.1l0.1-0.1l0,0l0.2-0.2l0,0l0.1-0.1l0.1-0.1L83,8.3l0.1-0.1l0.1,0
		l0.1-0.1L83.3,8l0.1-0.1l0,0l0.1-0.1l0,0l0.1-0.1l0.1-0.1l0.1-0.1l0.2-0.2l0,0l0,0l0,0l0.1-0.1L84.3,7l0-0.1l0,0l0.1-0.1l0.1-0.1
		l0-0.1l0-0.1l-0.1-0.2l0,0l0,0l-0.1-0.2l-0.1-0.2l-0.1-0.1l0,0L84,5.6l-0.1-0.1l-0.1-0.1l-0.1-0.1l0-0.1l-0.1-0.2l0,0l0,0l-0.1-0.1
		l-0.1-0.2l0,0l0,0l-0.1-0.1l-0.1-0.1L83,4.2l-0.1-0.1l-0.1,0.1l0,0l-0.2,0.2l-0.2,0.2l0,0l-0.1,0l0,0l-0.1,0.1L82,4.8l-0.1,0.1l0,0
		L81.8,5l-0.1,0.1l-0.1,0.1l0,0l0,0l0,0l-0.1,0.1l-0.1,0.1l-0.1,0.1l-0.1,0.1l0,0l-0.1,0.1L81,5.9l0,0L80.9,6l-0.1,0.1l-0.2,0.2l0,0
		l0,0l0,0l-0.1,0.1l0,0l-0.1,0.1l-0.1,0.1l0,0l-0.1,0.1l0,0.1l-0.1,0.1L79.9,7L79.8,7l-0.1,0.1l0,0l0,0l-0.1,0.1l-0.1,0.1l-0.1,0.1
		l0,0.1l-0.1,0.1l0,0.1l0,0l0,0.1l0,0l0,0.2l0,0.2l0,0.2l0,0.1l0,0.1l0,0.1l0,0.2l0,0.1l0,0.2l0,0.2l0,0.2l0,0l0,0l0,0.2l0,0.2
		l0,0.2l0,0l0,0l0,0l0,0l0,0.1l0,0.1l0,0.2L79.3,10.9z"/>
	<path class="st0" d="M87.5,13.4l0-0.2l0-0.1l0,0l0-0.1l0-0.2l0-0.2l0,0l0,0l0-0.2l0-0.2l0,0L87.3,12l-0.1,0l0,0L87,12.2l-0.2,0.2
		l-0.1,0.1l-0.1,0.1l-0.1,0.1l0,0.1l-0.2,0.1L86.2,13l-0.1,0.1l0,0l-0.1,0.1l0,0l-0.1,0.1l-0.1,0.1l-0.1,0.1l-0.1,0.1l-0.1,0.1
		l-0.1,0.1L85.3,14l-0.1,0.1l0,0l-0.2,0.1l-0.1,0.1l-0.1,0.1l-0.1,0.1l-0.1,0.1l0,0l-0.1,0.1l-0.2,0.2L84.2,15l0,0l-0.1,0.1l0,0l0,0
		l-0.2,0.2l-0.1,0.1l0,0l-0.1,0.1l-0.1,0.1l0,0l-0.1,0.1L83.2,16l-0.1,0.1l0,0L83,16.2l-0.1,0.1l-0.1,0.1l0,0l-0.1,0.1l-0.1,0.1
		l-0.1,0.1l-0.2,0.1L82.2,17l0,0l-0.1,0.1l-0.1,0.1l-0.1,0.1l0,0.1l-0.2,0.1l-0.1,0.1l0,0l-0.1,0.1l0,0l-0.1,0.1l0,0L81.2,18
		l-0.1,0.1L81,18.2l-0.1,0.1l-0.1,0.1l0,0l0,0l-0.1,0.1l-0.1,0l-0.1,0.1l0,0l-0.1,0.1l0,0l0,0l0,0l-0.2,0.2l-0.1,0.2l-0.1,0.1
		l-0.1,0l-0.1,0.1l-0.1,0.1l-0.2,0.1l0,0.1l-0.1,0l0,0.1l0,0.1l0,0.1l0,0.2l0,0l0,0.2l0,0.2l0,0.2l0,0l0,0l0,0.2l0,0.2l0,0.1l0,0.1
		l0.1,0.1l0.2,0l0.1,0h0.1l0.2-0.1l0.1,0l0.2,0l0.1,0l0.1,0l0.1,0l0.1,0l0.1,0l0,0l0.2-0.1l0.1,0l0.1,0l0.1-0.1l0.1,0l0,0l0,0
		l0.1-0.1l0.1,0l0.1,0l0,0l0.2-0.1l0.2-0.1l0.2-0.1l0,0l0.1-0.1l0.2-0.1l0.2-0.1l0.1-0.1l0,0l0.2-0.1l0.1-0.1l0.2-0.1l0.1,0l0.1,0
		l0.1,0l0.1,0l0.1-0.1l0.1-0.1l0.1-0.1l0.1-0.1l0.1-0.1l0.1-0.1l0.1-0.1l0,0l0.1-0.1l0.2-0.1l0.1-0.1l0,0l0.1-0.1l0.1-0.1l0.1-0.1
		l0.1-0.1l0,0l0,0l0.1-0.1l0.1-0.1l0.1-0.1l0.1-0.1l0.1-0.1l0.1-0.1l0.1-0.1l0.1-0.1l0-0.1l0-0.1l0.1-0.1l0.1-0.2l0,0l0.1-0.1
		l0.1-0.2l0-0.2l0.1-0.1l0.1-0.2l0-0.1l0-0.1l0.1-0.2l0.1-0.1l0-0.2l0-0.1l0-0.1l0-0.1l0-0.1l0-0.1l0.1-0.2l0.1-0.2l0,0l0-0.2l0-0.2
		l0-0.1l0-0.1l0-0.1l0-0.1l0-0.2l0.1-0.2l0-0.1l0-0.2v0l0,0l0,0l0-0.1L87.5,13.4z"/>
	<path class="st0" d="M79.3,18.1l0.1,0.1l0.1,0l0,0l0.1-0.1l0,0l0,0l0,0l0.1-0.1l0.1-0.1l0.1-0.1l0.1-0.1l0.1-0.1l0.1-0.1l0.2-0.1
		l0,0l0,0l0-0.1l0-0.1l0,0l0.1-0.1l0.1-0.1l0.1-0.1l0.1-0.1l0.1-0.1l0.1-0.1l0.1-0.1l0.1-0.1l0,0l0.1,0l0.1-0.2l0.2-0.1l0.1-0.1
		l0.1-0.1l0.1-0.1l0.1-0.1l0.1-0.1l0.1-0.1l0-0.1l0,0l0.2-0.1l0.1-0.1l0,0l0-0.1l0.2-0.1l0.2-0.1l0.1-0.2l0,0l0.1-0.1l0.1-0.1
		l0.1-0.1l0,0l0.1-0.1l0.1-0.1l0.1-0.1l0.1-0.1l0,0l0.1,0l0,0l0.1-0.1l0.1-0.1l0.1,0l0.1-0.1l0.1-0.1l0,0l0.1,0l0.1-0.2l0.1-0.2l0,0
		l0.1,0l0,0l0.1,0l0.1-0.2l0,0l0.1-0.1l0.1-0.1l0.1-0.1l0.1-0.1l0.1-0.1l0,0l0.1-0.1l0.1-0.2l0,0l0.1-0.1l0.1-0.1l0.1-0.1l0.1-0.1
		l0.1-0.1l0.1,0l0.1-0.1l0.1-0.1l0.1-0.1l0-0.1l0-0.1l-0.1-0.2l-0.1-0.2l0,0l0,0L86.7,10l-0.1-0.2l-0.1-0.1l0-0.1l-0.1-0.1l-0.1-0.1
		l0-0.2L86.2,9l-0.1-0.1L86,8.7L86,8.6l-0.1-0.2l-0.1-0.1l0,0l0,0l-0.1-0.1l0,0L85.6,8l-0.1-0.1l-0.1-0.1l0-0.1l-0.1-0.1l-0.2,0.1
		L85,7.7l0,0l0,0l0,0l-0.1,0.1L84.8,8l-0.1,0.1l-0.1,0l-0.1,0.2l-0.1,0.2l0,0l0,0l-0.1,0.1l-0.1,0.1l0,0l-0.2,0.1l-0.1,0.2l-0.1,0
		l-0.1,0.1l0,0l0,0l-0.1,0.1l-0.1,0.1l-0.1,0.1l-0.1,0.2l0,0.1L83,9.8l-0.1,0.1l0,0L82.8,10l-0.1,0.1l-0.1,0.1l0,0l0,0l-0.1,0.1
		l-0.1,0.1l0,0.1l0,0l-0.1,0.1L82,10.8l-0.1,0.1l0,0.1L81.7,11l0,0.1l-0.1,0.1l-0.1,0.1l0,0l0,0l-0.1,0.2l0,0l0,0l0,0l-0.1,0.1
		L81,11.8L80.8,12l-0.1,0.1l0,0l0,0.1l0,0l-0.1,0.1l-0.1,0.1l-0.1,0.1l-0.1,0.1l0,0l0,0l-0.2,0.1l-0.1,0.2l0,0L79.8,13l-0.1,0.1l0,0
		l-0.1,0.1l-0.1,0.2l0,0l-0.1,0.1l0,0.1l0,0l0,0.1l0,0l-0.1,0.2l0,0.1l0,0.1l0,0.2l0,0.2l0,0.1l0,0.1l0,0.1l0,0.1l0,0.1l0,0.2l0,0.1
		l0,0.1l0,0.1v0.1l0,0.1l0,0.2l0,0.2v0l0,0l0,0l0,0.2v0l0,0.1l0,0.2l0,0.1l0,0.1l0,0.1l0,0.1l0,0.2l0,0.2l0,0l0,0.1l0,0.2l0,0.2
		l0,0.2l0,0.1L79.3,18.1z"/>
	<path class="st0" d="M78.2,17.5l0-0.1l0-0.1l0-0.1l0-0.1l0-0.1l0-0.1l0-0.2l0-0.2l0-0.2l0-0.1l0-0.2l0-0.1l0-0.1l0-0.1l0-0.2l0-0.1
		l0,0l0-0.2l0-0.2l0-0.2l0-0.1v-0.1l0-0.2l0-0.2l0-0.1l0-0.2l0,0l0-0.2l-0.1-0.1L78,13.4l-0.1-0.1l-0.1-0.1l-0.1-0.1l0,0L77.6,13
		l-0.1-0.1l-0.1-0.1l-0.1-0.1l-0.1-0.1l-0.1-0.1l-0.1-0.1l-0.1,0l-0.1-0.1l-0.1-0.1l0,0L76.7,12l-0.1-0.1l-0.1-0.1l-0.1-0.1
		l-0.1-0.1l-0.1-0.1l-0.1-0.1L76,11.3l-0.1-0.1l-0.1-0.1L75.6,11l-0.1-0.1l0,0l-0.1-0.2l-0.1-0.1l0,0l-0.1-0.1l0,0l-0.1-0.1
		l-0.2-0.2l-0.1-0.1l0,0l0,0l0,0L74.6,10l0,0l0,0l-0.1-0.1l-0.1-0.1l-0.1,0l-0.1-0.1L74,9.4l0-0.1l0,0l-0.1-0.1L73.7,9l-0.2-0.1l0,0
		l0-0.1l-0.1-0.1l-0.1-0.1l-0.1-0.1l-0.1-0.1l-0.1-0.1l0,0l-0.1-0.1L72.7,8l-0.1-0.1l-0.1-0.1l0,0l-0.1-0.1l-0.1,0l-0.1,0l-0.1,0.1
		l-0.1,0l-0.1,0.2l-0.1,0.2l0,0.1l-0.1,0.1l-0.1,0.2l-0.1,0.2l0,0l-0.1,0.1l-0.1,0.2l0,0.1l0,0.1l-0.1,0.2l0,0l-0.1,0.1L71,9.5
		l0,0.1l0,0l0,0.1l-0.1,0.1l0,0.1l0,0l-0.1,0.2l-0.1,0.1l-0.1,0.2l-0.1,0.2l0.1,0.2l0.1,0.1l0.1,0l0.1,0.1l0.1,0.1l0,0.1l0.1,0.1
		l0.1,0.1l0,0l0,0.1l0.1,0.2l0.1,0.2l0.2,0.1l0.1,0.2l0.2,0.1l0.1,0.1l0.1,0.1l0.1,0.1l0.1,0.1l0.1,0l0,0l0.2,0.1l0.1,0.1l0.1,0
		l0.1,0.1l0,0.1l0.1,0.1l0,0l0,0l0.1,0.1l0.1,0.1l0.1,0.1l0.1,0.1l0.1,0.1l0.1,0.1l0.1,0.1l0.2,0.1l0.1,0.1l0.1,0.1l0.1,0.1l0.1,0.1
		l0,0l0.1,0.1l0.1,0.1l0.1,0.1l0.1,0.1l0,0l0,0l0.1,0.1l0.1,0l0,0l0.1,0.1l0.1,0.1l0.1,0l0,0.1l0.1,0.2l0,0l0.1,0.1l0.1,0.1l0,0
		l0.1,0.1l0.1,0.1l0,0.1l0.1,0.1l0.1,0.1l0.1,0.2l0.2,0.1l0.1,0.1l0,0.1l0.1,0.1l0.1,0.1l0.1,0.1l0,0l0.1,0.1l0,0l0,0.1l0.1,0.1l0,0
		l0.1,0.1l0,0l0.1,0.1l0.1,0.1l0.1,0l0.1,0.1l0,0l0.1,0.1l0.1,0.1l0,0l0.2,0l0.1-0.2l0,0l0-0.2l0-0.1l0,0v0l0-0.1L78.2,17.5z"/>
	<path class="st0" d="M64.2,24.7L64.2,24.7L64.2,24.7l0.1-0.1l0,0l0.1-0.2l0.1-0.1l0.1-0.1l0-0.1l0.1-0.1l0.1-0.1l0.1-0.1l0,0
		l0.2-0.1l0.1-0.1l0.1-0.1l0-0.1l0.2-0.1l0.2-0.2l0.1-0.2l0.1-0.1l0,0l0,0l0.1-0.1l0.1-0.1l0.1-0.1l0,0l0,0l0.1-0.1l0,0l0,0l0.1-0.2
		l0.2-0.1l0.2-0.1l0.1-0.1l0.1-0.1l0.1-0.1l0.1-0.1l0.1-0.1l0.1-0.1l0.2-0.1l0,0l0.1-0.1l0.1-0.1l0.1-0.1l0.1-0.1l0.1-0.1l0.1,0
		l0-0.2l-0.1-0.2L68,20.2l-0.2-0.1l-0.1-0.1l0,0L67.6,20l-0.2-0.1l0,0l0,0l-0.2-0.1l-0.1,0l0,0L67,19.7l-0.1-0.1l-0.1,0l-0.1,0
		l-0.2-0.1l0,0l0,0l-0.2-0.1l-0.1,0l-0.2-0.1l-0.1,0l-0.1-0.1l-0.2-0.1l-0.1,0l0,0l-0.1-0.1l-0.2-0.1l-0.2,0l0,0.1l-0.1,0.1
		l-0.2,0.1l-0.1,0.1l-0.1,0.1l-0.1,0.1l-0.1,0.1l-0.1,0.1l0,0.1l0,0L63.9,20l-0.1,0.2l-0.2,0.1l0,0l0,0l0,0l-0.1,0.1l-0.1,0.2
		l-0.1,0.1l0,0l0,0L63,20.9l-0.1,0.2l-0.1,0.1l-0.1,0.1l-0.1,0.1l0,0l-0.1,0.2l-0.2,0.1l-0.2,0.1L62,22l0,0l-0.1,0.1l-0.1,0.1l0,0
		l-0.1,0l-0.1,0.2l0,0l0,0l-0.1,0.1l-0.1,0.1l-0.1,0.1L61,22.9l-0.1,0.1l-0.1,0l-0.1,0.1l0,0l0,0l-0.2,0.1l-0.1,0.1l-0.1,0.1
		l-0.1,0.1l0,0l-0.2,0.2L60,24L59.9,24l0,0.1l-0.1,0l-0.1,0.1l0,0l-0.1,0.1l-0.1,0.1l-0.1,0l0,0l0,0l-0.1,0.1l-0.1,0.2l-0.1,0.1l0,0
		L59,25l-0.1,0.1l-0.2,0.1l-0.1,0.1l0,0l0,0l-0.1,0.1l0,0l-0.1,0l-0.1,0.1l-0.1,0.1l-0.1,0L58,26l-0.1,0.1l-0.1,0.1l0,0l0,0l0,0
		l-0.1,0.1l0,0.1l0.1,0.1l0,0l0,0l0.1,0l0.1,0l0.2,0l0.2,0l0.1,0l0.2,0l0.2,0l0.2,0l0.2,0l0.1,0l0,0l0.2,0l0.2,0l0.1,0l0.2,0l0,0
		l0.2,0l0.1,0h0l0.2,0l0.1,0l0.1,0l0.1,0l0,0l0.1,0l0.2,0l0.1,0l0.1,0l0.2,0l0.2,0l0,0l0.1,0l0.2,0l0.2,0l0.2-0.1l0,0l0.1,0l0,0
		l0.1,0l0.1-0.1l0-0.1l0.1-0.1l0,0l0.1,0l0.1-0.1l0-0.1l0.1-0.1l0.1-0.1l0.1-0.1l0.1-0.1l0.1-0.1l0.1-0.2l0.1-0.1l0.1,0l0.1-0.1
		l0.1-0.1l0.1-0.1l0.2-0.2L64.2,24.7z"/>
	<path class="st0" d="M70.2,24.6l0.1-0.1l0.1-0.1l0.1-0.1l0,0l0.1-0.1l0,0l0,0l0.2-0.2l0.2-0.2l0.2-0.2l0.2-0.2l0.1-0.1l0.1-0.1
		l0.1-0.1l0.1-0.2l-0.1-0.1l0,0l-0.2-0.1l-0.1-0.1l-0.1-0.1l0,0l-0.2-0.1l-0.2-0.1l-0.1,0l0,0l-0.1-0.1L70.5,22l0,0l-0.1-0.1
		l-0.1-0.1l0,0l0,0l-0.1-0.1L70,21.6l-0.2-0.1l0,0l-0.1-0.1l-0.1-0.1l-0.2-0.1l0,0l-0.1,0l-0.1,0l0,0l-0.1,0.1L69,21.3L69,21.4
		l-0.1,0.1l-0.1,0.1l-0.1,0.1l-0.1,0.1l-0.1,0.1L68.3,22l-0.2,0.2l-0.1,0.1l0,0l-0.1,0.1l-0.1,0.1l-0.1,0.1l0,0l0,0l-0.1,0.1
		L67.4,23l-0.1,0.1l-0.1,0.1L67,23.4l-0.1,0.1h0l-0.1,0.1l-0.1,0.1l-0.1,0.1l0,0.1L66.4,24l-0.1,0.2l0,0.1l-0.1,0.1L66,24.4
		l-0.1,0.1l-0.2,0.2l0,0l0,0l-0.1,0.1L65.4,25l-0.2,0.2l-0.1,0.1l0,0L65,25.4l-0.1,0.1l-0.1,0.1l-0.1,0.1l-0.1,0.1l0,0l-0.1,0.1l0,0
		L64.4,26l-0.1,0.1l-0.1,0.1l-0.1,0.1l0,0.2l0.1,0.1l0.1,0l0.2,0l0.1,0l0,0l0.2,0l0.2,0l0.1,0l0.2,0l0.2,0l0,0h0.2l0.2,0l0,0l0.1,0
		l0.2,0l0,0l0.1,0l0.2,0l0.2,0l0.2,0l0.2,0l0.2,0l0,0l0.1,0l0,0l0.1,0l0.2,0l0,0l0.1,0l0,0l0,0l0.2,0l0.1,0l0.2,0l0.1-0.1l0.1,0
		l0.1-0.1l0,0l0,0l0.1-0.1l0.1-0.1l0,0l0.1-0.1l0.1-0.1l0,0l0.1-0.1l0.1-0.1l0.1-0.1l0,0l0.2-0.2l0.1-0.2l0.1-0.1l0.1-0.1l0,0
		l0.1-0.1L70.2,24.6z"/>
	<path class="st0" d="M75.8,26.3L75.8,26.3l-0.2-0.2L75.5,26L75.4,26l-0.1-0.1l-0.1-0.1L75,25.6l-0.1-0.1l-0.2-0.2l-0.2-0.1L74.3,25
		l-0.1,0l-0.1-0.1l-0.1-0.1L74,24.7l-0.2-0.2l-0.1-0.1l0,0l-0.1,0l0,0l-0.2-0.1l0,0l0,0l-0.2-0.1L73,23.9l-0.1-0.1l-0.1-0.1
		l-0.1-0.1l-0.1,0.1l-0.1,0.1L72.3,24l0,0l0,0l-0.1,0.1L72,24.3L72,24.4l0,0l-0.1,0.1l-0.1,0.1l-0.1,0.1l-0.1,0.1L71.4,25l0,0
		L71.3,25l-0.1,0.1l-0.1,0.1L71,25.3l0,0l-0.1,0.1l-0.1,0.1l-0.1,0.1l0,0l-0.2,0.2l-0.1,0.1l-0.1,0L70.2,26l-0.1,0.1L70,26.3l0,0
		l0,0l0,0.1l0.1,0.1l0,0l0.2,0l0.2,0l0.2,0l0.1,0l0.1,0l0.2,0l0.1,0h0l0.1,0l0.1,0l0.2,0l0.2,0l0,0l0.1,0l0.2,0l0.2,0l0.1,0l0.1,0
		l0.1,0l0.1,0l0.1,0l0,0l0.1,0l0.2,0l0.2,0l0.1,0l0.1,0l0.2,0l0.1,0l0.2,0l0.2,0l0,0l0,0l0.2,0l0.2,0l0.1,0l0.1,0l0.2,0l0,0l0.1,0
		l0.2,0l0.1,0l0.1-0.1L75.8,26.3z"/>
	<path class="st0" d="M57.7,24.7l0.1-0.1l0.1-0.1l0.1,0l0.1-0.1l0,0l0-0.1l0.1-0.1l0.1-0.1l0,0l0.1-0.1l0.1-0.1l0.1-0.1l0-0.1l0,0
		l0.2-0.1l0.1-0.1l0,0l0-0.1l0.2-0.1l0.1-0.1l0.1-0.1l0.1-0.1l0.1-0.1l0.1-0.1l0,0l0,0l0,0l0.1-0.1l0.1-0.1l0.1-0.1l0.1-0.1l0.1-0.1
		l0.1-0.1l0.1-0.1l0.1-0.1l0.1-0.1l0.1-0.1l0,0l0.1-0.1l0.1-0.1l0-0.1l0.1-0.1l0.1-0.1l0.1-0.1l0.1-0.1l0.1-0.1l0.1-0.1l0.1-0.1
		l0.1-0.1l0,0l0,0l0.1-0.1l0.1-0.2l0.2-0.2l0,0l0.1-0.1l0.1-0.1l0.2-0.1l0.1-0.2l0.1-0.2l0.1,0l0.1-0.1l0.1-0.1l0.1-0.1l0.1-0.1
		l0.1,0l0.1-0.1l0.1-0.1l0.1-0.1l0,0l0.1,0l0.1-0.1l0.1-0.1l0.1-0.1l0,0l0,0l-0.1-0.1l-0.2,0l-0.1,0l-0.1,0l-0.1,0l-0.2,0l-0.1,0
		l-0.1,0l-0.2,0l-0.2,0l0,0l0,0l-0.2,0l-0.2,0l-0.1,0l-0.2,0l0,0h0l-0.1,0l-0.1,0l-0.2,0l-0.2,0l0,0l-0.1,0l-0.1,0.1l-0.2,0l-0.2,0
		l-0.1,0.1l-0.1,0l-0.1,0.1l0,0l-0.1,0l0,0l0,0l0,0l-0.2,0.1l-0.1,0l0,0l-0.1,0l-0.2,0.1l-0.1,0l-0.1,0l0,0l0,0l-0.2,0.1l0,0
		l-0.2,0.1l-0.1,0.1l-0.1,0.1l0,0l-0.1,0l-0.2,0.1l-0.2,0.1l0,0l0,0L57.7,20l-0.1,0.1l0,0l-0.1,0.1l-0.1,0.1l-0.1,0.1l0,0l-0.1,0
		l-0.2,0.1l-0.1,0.2L56.6,21l-0.1,0.1l-0.1,0.1l-0.1,0.1l-0.1,0.1l0,0.1l0,0L56,21.6L56,21.7l0,0l-0.1,0.1L55.8,22l-0.1,0.1
		l-0.1,0.1l-0.1,0.1l-0.1,0.1l-0.1,0.1l-0.1,0.2l0,0l-0.1,0.1l-0.1,0.2L55,23.2L55,23.3l-0.1,0.2l0,0l-0.1,0.2l0,0.1l0,0l0,0.1l0,0
		l-0.1,0.2l0,0l0,0l-0.1,0.2l-0.1,0.2l0,0.2l-0.1,0.2l-0.1,0.2v0l0,0.1l0,0.2l0,0.1l0,0.1l0,0.2l0,0.2V26l0,0.1l0,0.2l0,0l0,0.1l0,0
		l0,0.1l0,0l0,0l0.1,0l0,0l0.2,0l0,0l0.2,0l0.2,0l0.1,0l0.1,0l0.2,0l0.1,0l0.1,0l0.1,0l0,0l0.2-0.1l0.2-0.1l0-0.1l0.1-0.1l0,0
		l0.1-0.1l0.1-0.1l0.1-0.1l0.1-0.1l0,0l0.1-0.1l0-0.1l0,0l0.1-0.2l0.2-0.1l0.1-0.1l0.1-0.1l0,0l0.1-0.1l0.1-0.1l0.1-0.1L57.7,24.7
		L57.7,24.7z"/>
</g>
</svg>
