<?xml version="1.0" encoding="utf-8"?>
<!-- Generator: Adobe Illustrator 27.1.1, SVG Export Plug-In . SVG Version: 6.00 Build 0)  -->
<svg version="1.1" id="Layer_1" xmlns="http://www.w3.org/2000/svg" xmlns:xlink="http://www.w3.org/1999/xlink" x="0px" y="0px"
	 viewBox="0 0 158 48" style="enable-background:new 0 0 158 48;" xml:space="preserve">
<style type="text/css">
	.st0{fill-rule:evenodd;clip-rule:evenodd;fill:#FFFFFF;}
</style>
<path class="st0" d="M38.5,27.6c0-1.1,0.1-2.2,0.3-3.2c0.1-0.4,0.3-0.8,0.6-1.1c0.6-0.6,1.4-0.6,2.1-0.1c0.1,0.1,0.2,0.2,0.2,0.2
	c0.3,0.5,0.6,1,0.6,1.7c0.3,2,0.3,4,0,5.9c-0.1,0.6-0.3,1-0.6,1.4c-0.5,0.6-1.4,0.8-2,0.3c-0.1-0.1-0.2-0.2-0.3-0.3
	c-0.3-0.5-0.6-1-0.6-1.6C38.5,29.7,38.5,28.7,38.5,27.6 M34.4,34.5c-0.3,0.6-0.8,1.2-1.3,1.7c-1.2,1.3-2.7,2-4.4,2.2
	c-2.9,0.4-5.9-0.5-8-2.5c-1.5-1.4-2.7-3.1-3.3-5.1c-0.9-2.4-1.2-4.8-0.9-7.3c0.2-2.3,0.7-4.6,1.7-6.6c0.9-2.2,2.5-4,4.7-5.3
	c1.8-1.1,4-1.6,6-1.4c1.7,0.1,3.3,0.7,4.7,1.7c1.3,0.9,2.1,2.5,2.1,4.2c0,1.9-1.4,3.4-3.3,3.4c-0.2,0-0.2,0-0.3,0s-0.2,0-0.3-0.1
	c-0.5-0.1-0.6-0.3-0.6-0.7c0.1-0.9-0.2-2-0.8-2.8c-1-1.4-3-1.6-4.3-0.6c-0.1,0.1-0.2,0.2-0.3,0.2c-0.9,0.9-1.4,1.9-1.9,3
	c-0.6,1.5-0.9,3.2-0.9,4.7c-0.2,1.7,0.1,3.6,0.5,5.3c0.3,1.2,0.9,2.2,1.6,3.2c1.4,1.7,4,2,5.8,0.6c0.9-0.7,1.5-1.6,1.9-2.6
	c0-0.1,0-0.2,0-0.3c-0.2-1.8,0-3.6,0.6-5.4c0.7-2.5,2.7-4.3,5.1-4.8c4-1.1,8.1,1.1,9.3,5.1c0,0.2,0.1,0.2,0.1,0.3
	c0.6,2.5,0.6,5.1-0.2,7.6c-0.3,1.1-0.9,2.1-1.7,3.1c-0.9,1.1-2.3,1.8-3.7,2.1c-1.9,0.4-3.9,0.2-5.5-0.8C35.7,36.1,35,35.4,34.4,34.5
	C34.4,34.6,34.4,34.5,34.4,34.5L34.4,34.5z"/>
<path class="st0" d="M55.7,27.1c0,1.7-0.1,3,0.1,4.2c0.1,1.4,0.5,2.8,1.2,4.1c0.2,0.3,0.3,0.6,0.6,0.8l0.2,0.2
	c0.4,0.5,0.3,0.8-0.3,0.9c-1.1,0.3-2.3,0.4-3.5,0.2c-1.5-0.3-2.8-1.4-3.3-2.9c-0.5-1.2-0.7-2.5-0.7-3.6c0-2.1,0.2-4.2,0.3-6.3
	c0.1-0.6,0.1-1.3,0.2-1.9c0-0.2,0-0.2-0.2-0.2c-0.7,0-1.4,0.1-2,0.2c-0.2,0.1-0.3,0-0.4-0.2c-0.3-0.3-0.3-0.6-0.3-0.9
	c0-1.3,0.9-2.3,2.1-2.5c0.2,0,0.4,0,0.6,0c0.2,0,0.2,0,0.2-0.2c-0.1-0.5-0.2-0.9-0.3-1.4c-0.2-0.6-0.1-1.1,0.3-1.5
	c0.9-0.9,2-1.7,3.1-2.2c0.3-0.2,0.7-0.2,1-0.2c0.9-0.2,1.6,0.5,1.7,1.3c0,0.1,0,0.2,0,0.2c0.1,0.9,0.1,2,0.1,3c0,0.3,0,0.6,0,0.9
	c0,0.2,0,0.2,0.2,0.2c0.5,0,0.9,0,1.4,0c0.2,0,0.2,0,0.2-0.2c-0.1-0.6-0.2-1.1-0.3-1.7c-0.1-0.3-0.1-0.6,0.2-0.9
	c0.9-1.3,2.1-2.2,3.6-2.8c0.3-0.2,0.7-0.2,1.1-0.1c0.8,0.1,1.3,0.6,1.4,1.4c0.1,0.8,0.2,1.5,0.2,2.3c0,0.6,0,1.1-0.1,1.6
	c0,0.2,0,0.2,0.2,0.2c0.6,0,1.2-0.1,1.8-0.2c0.2-0.1,0.3,0,0.5,0.2c0.3,0.3,0.3,0.8,0.3,1.3c-0.2,1.3-1.3,2.3-2.5,2.2H64
	c-0.2,0-0.2,0.1-0.2,0.2c-0.1,0.9-0.1,1.8-0.2,2.8c-0.1,1.6-0.1,3.2,0,4.7c0,2,0.7,4,2,5.6c0.2,0.2,0.2,0.3,0.3,0.4
	c0.2,0.3,0.2,0.6-0.3,0.7c-0.7,0.2-1.4,0.3-2.1,0.3c-1,0.1-2-0.2-2.9-0.6c-1.2-0.7-2-1.9-2.4-3.2c-0.3-1.2-0.5-2.4-0.4-3.6
	c0-2.4,0.2-4.7,0.3-7.1c0-0.2-0.1-0.2-0.2-0.2c-0.6,0-1.2,0-1.7,0c-0.2,0-0.2,0.1-0.2,0.2c-0.1,0.5-0.1,1-0.2,1.5
	C55.8,25.4,55.7,26.5,55.7,27.1"/>
<path class="st0" d="M87.3,21.7c0.3-0.4,0.6-0.9,0.9-1.2c0.9-0.9,1.9-1.4,3.1-1.5c1.5-0.2,3.1,0.5,3.8,1.8c0.6,0.9,0.9,2,0.9,3.1
	c0.2,1.3,0.2,2.6,0,4c-0.2,1.8-0.1,3.6,0.2,5.3c0.2,1.2,0.7,2.2,1.4,3.2c0,0.1,0.1,0.1,0.1,0.2c0.2,0.3,0.2,0.6-0.2,0.7
	c-0.6,0.2-1.2,0.3-1.8,0.3c-1.4,0.2-2.9-0.4-4-1.4c-0.7-0.8-1.2-1.7-1.4-2.8c-0.3-1.3-0.3-2.7-0.3-4c0.1-1.5,0.2-3.1,0.1-4.7
	c0-0.3-0.1-0.6-0.2-0.9c-0.1-0.3-0.4-0.6-0.9-0.6c-0.2,0-0.2,0.1-0.3,0.2c-0.3,0.2-0.6,0.6-0.8,0.9c-0.4,0.9-0.6,2-0.8,2.9
	C87,29.1,87,31,87.3,32.9c0.2,1.3,0.6,2.5,1.3,3.6c0.1,0.1,0.1,0.2,0.1,0.2c0.2,0.3,0.1,0.4-0.2,0.6c-0.4,0.2-0.9,0.3-1.3,0.3
	c-0.9,0.2-2,0.1-2.9-0.2c-1.3-0.5-2.3-1.6-2.6-3c-0.3-1-0.4-2.1-0.3-3.2c0.1-1.7,0.2-3.3,0.2-4.9c0.1-1.1-0.2-2.2-0.4-3.2
	c-0.2-0.4-0.1-0.9,0.3-1.3c0.7-0.9,1.5-1.6,2.5-2.1c0.3-0.2,0.7-0.3,1.1-0.3c0.9-0.2,1.8,0.4,2,1.4c0,0.1,0,0.2,0,0.2
	C87.2,20.9,87.3,21.4,87.3,21.7"/>
<path class="st0" d="M74.7,27.8c0.1,1.3-0.1,2.5-0.4,3.6c-0.1,0.3-0.2,0.5-0.3,0.7c-0.4,0.7-1.3,0.9-2,0.4c-0.2-0.2-0.3-0.3-0.4-0.5
	c-0.3-0.6-0.5-1.1-0.6-1.8c-0.2-1.9-0.2-3.7,0.1-5.5c0.1-0.5,0.3-1,0.6-1.4c0.3-0.7,1.3-0.9,1.9-0.6c0.2,0.2,0.4,0.3,0.6,0.6
	c0.3,0.6,0.5,1.1,0.6,1.7C74.6,25.9,74.7,26.9,74.7,27.8 M65.1,28.4c-0.1-1.8,0.3-3.6,1-5.3c0.9-2.2,3-3.8,5.4-4.2
	c2.3-0.4,4.7,0.2,6.3,1.8c0.9,0.9,1.7,2.1,2.1,3.4c0.9,2.6,0.9,5.5-0.1,8.2c-0.9,2.8-3.2,4.7-6.2,5c-1.9,0.3-3.8-0.2-5.3-1.3
	c-1.3-1-2.3-2.5-2.7-4C65.3,30.9,65.1,29.6,65.1,28.4L65.1,28.4z"/>
<path class="st0" d="M103.1,27.8c0-1.4,0.3-2.8,0.9-4c0.2-0.3,0.4-0.6,0.7-0.9c0.2-0.2,0.3-0.3,0.6-0.3c0.4-0.2,0.9,0.1,1,0.4
	c0,0.1,0,0.1,0.1,0.2c0.4,1.3-0.1,2.8-1.2,3.6C104.7,27.3,103.9,27.6,103.1,27.8 M103.5,30.9c0.2,0.7,0.5,1.4,0.9,1.9
	c0.4,0.3,0.9,0.6,1.4,0.6c1.5,0.2,3-0.6,4-1.7c0.2-0.2,0.3-0.4,0.6-0.6c0.3-0.3,0.6-0.3,0.9,0c0.1,0.1,0.1,0.2,0.2,0.2
	c0.3,0.6,0.4,1.3,0.2,2c-0.3,1.4-1.3,2.5-2.5,3.2c-3.6,2.2-8.2,1.1-10.4-2.5c-0.5-0.9-0.9-1.7-1-2.6c-0.7-3-0.2-6.1,1.7-8.6
	c1.3-1.9,3.2-3.2,5.5-3.6c1.7-0.4,3.6,0,5.1,0.9c1.2,0.9,1.9,2.1,2,3.6c0.2,1.6-0.3,3.2-1.5,4.4c-0.8,0.8-1.7,1.4-2.6,1.8
	c-1.3,0.6-2.5,0.9-3.8,1.1L103.5,30.9z"/>
<path class="st0" d="M132.8,27.8c0-0.7,0.1-1.4,0.3-2c0.2-0.9,0.5-1.7,1-2.5c0.2-0.3,0.6-0.6,0.9-0.6c0.4-0.2,0.9,0,1.1,0.4
	c0.1,0.1,0.1,0.2,0.1,0.3c0.4,1.6-0.4,3.3-2,4C133.8,27.5,133.4,27.6,132.8,27.8 M135.3,37.4c-3.6,0-6.3-1.8-7.5-4.8
	c-0.4-1.1-0.7-2.2-0.7-3.4c-0.1-2.1,0.5-4.1,1.5-5.9c1.2-2.1,3.2-3.6,5.5-4.2c1.3-0.3,2.8-0.3,4.1,0.3c1.9,0.7,3.2,2.5,3.2,4.5
	c0.2,2-0.9,3.8-2.5,4.9c-1.4,0.9-3,1.7-4.7,2c-0.3,0.1-0.7,0.2-1,0.2c-0.1,0-0.2,0-0.2,0.2c0.3,1.1,0.9,2.2,2.2,2.4
	c1,0.2,2.1-0.2,3.1-0.7c0.5-0.3,0.9-0.7,1.3-1.1c0.2-0.2,0.3-0.4,0.6-0.6c0.3-0.2,0.6-0.1,0.8,0.2c0.3,0.4,0.5,1,0.4,1.6
	c-0.2,1.4-0.9,2.5-2.1,3.3C138.1,37,136.8,37.4,135.3,37.4z"/>
<path class="st0" d="M119.4,13.5c-0.1,2.5-0.3,4.7-0.5,7c-0.2,2.6-0.5,5.3-0.6,8c-0.1,1.7,0.1,3.4,0.5,5c0.3,1,0.8,2,1.4,2.8
	c0.1,0.1,0.1,0.2,0.2,0.2c0.2,0.3,0.1,0.5-0.2,0.6c-0.3,0.2-0.8,0.2-1.2,0.3c-1,0.2-2.1,0.1-3.1-0.2c-1.4-0.5-2.5-1.6-2.9-3
	c-0.4-1.2-0.6-2.4-0.6-3.6c0-2.1,0.2-4.2,0.4-6.3c0.3-2.5,0.5-5,0.6-7.5c0-1.2-0.2-2.3-0.5-3.4c-0.2-0.5-0.1-1,0.3-1.4
	c0.9-0.9,2-1.7,3.1-2.3c0.4-0.2,0.9-0.3,1.3-0.2c0.8,0,1.4,0.6,1.6,1.3c0.2,0.4,0.2,0.9,0.2,1.3L119.4,13.5"/>
<path class="st0" d="M127,13.5c-0.1,1.8-0.2,3.6-0.3,5.4c-0.2,2.2-0.4,4.4-0.5,6.5c-0.2,1.6-0.2,3.2-0.2,4.8c0,1.7,0.4,3.4,1.3,4.9
	c0.2,0.3,0.4,0.6,0.6,0.9c0.1,0.1,0.1,0.1,0.2,0.2c0.3,0.4,0.3,0.7-0.3,0.9c-1.2,0.3-2.5,0.4-3.7,0.1c-1.6-0.5-2.8-1.8-3.3-3.4
	c-0.4-1.4-0.6-2.8-0.6-4.2c0-1.3,0.2-2.5,0.2-3.7c0.2-1.4,0.3-2.8,0.4-4.2c0.2-1.4,0.2-2.6,0.3-4c0.1-1,0-2.1-0.2-3.2
	c-0.1-0.4-0.2-0.9-0.3-1.3c-0.2-0.5-0.1-0.9,0.3-1.3c0.9-1.1,2.1-2,3.5-2.5c0.3-0.2,0.8-0.2,1.2-0.2c0.8,0.1,1.3,0.6,1.4,1.4
	c0.2,0.9,0.2,1.7,0.2,2.5C127,13.4,127,13.5,127,13.5"/>
</svg>
