<?xml version="1.0" encoding="utf-8"?>
<!-- Generator: Adobe Illustrator 27.1.1, SVG Export Plug-In . SVG Version: 6.00 Build 0)  -->
<svg version="1.1" id="Layer_1" xmlns="http://www.w3.org/2000/svg" xmlns:xlink="http://www.w3.org/1999/xlink" x="0px" y="0px"
	 viewBox="0 0 158 48" style="enable-background:new 0 0 158 48;" xml:space="preserve">
<style type="text/css">
	.st0{fill:#FFFFFF;}
</style>
<path class="st0" d="M76.6,41c0-0.1,0-0.1-0.1-0.2l-0.3-0.2c0,0,0,0,0,0c0,0,0,0,0-0.1c0,0,0,0,0.1,0h1.3c0,0,0,0,0,0c0,0,0,0,0,0
	c0,0,0,0,0,0l-0.2,0.2c0,0-0.1,0.1-0.1,0.1c0,0,0,0.1,0,0.1l0.4,2.7l0.4-2.7c0,0,0-0.1,0-0.1c0,0,0-0.1-0.1-0.1l-0.2-0.2
	c0,0,0-0.1,0-0.1c0,0,0,0,0.1,0h1.1c0,0,0.1,0,0.1,0c0,0,0,0,0,0.1c0,0,0,0,0,0l-0.3,0.2c-0.1,0.1-0.1,0.1-0.1,0.2l-0.6,5.1
	c0,0.1,0,0.1-0.1,0.1h-0.3c0,0,0,0,0,0c0,0,0,0,0,0c0,0,0,0,0,0c0,0,0,0,0,0L76.6,41z"/>
<path class="st0" d="M82,41c0,0,0-0.1,0-0.1c0,0,0-0.1-0.1-0.1l-0.3-0.2c0,0-0.1,0-0.1-0.1c0,0,0,0,0,0c0,0,0,0,0,0H83c0,0,0,0,0,0
	c0,0,0,0,0,0c0,0,0,0,0,0c0,0,0,0,0,0c0,0,0,0-0.1,0.1l-0.3,0.2c0,0,0,0.1-0.1,0.1c0,0,0,0.1,0,0.1v4.6c0,0,0,0.1,0,0.1
	c0,0,0,0.1,0.1,0.1l0.3,0.2c0,0,0.1,0,0.1,0.1c0,0,0,0,0,0c0,0,0,0,0,0c0,0,0,0,0,0c0,0,0,0,0,0h-1.3c0,0,0,0,0,0c0,0,0,0,0,0
	c0,0,0,0,0,0c0,0,0,0,0,0c0,0,0,0,0.1-0.1l0.3-0.2c0,0,0-0.1,0.1-0.1c0,0,0-0.1,0-0.1V41z"/>
<path class="st0" d="M86.1,41c0-0.1,0-0.2-0.1-0.2l-0.2-0.2c0,0-0.1,0-0.1-0.1c0,0,0,0,0,0c0,0,0,0,0,0h1c0.1,0,0.1,0.1,0.1,0.1
	l0.8,3.3V41c0,0,0-0.1,0-0.1c0,0,0-0.1-0.1-0.1l-0.2-0.2c0,0-0.1,0-0.1-0.1c0,0,0,0,0,0c0,0,0,0,0,0h1.1c0,0,0,0,0,0c0,0,0,0,0,0
	c0,0,0,0,0,0c0,0,0,0,0,0c0,0,0,0.1-0.1,0.1l-0.2,0.2c0,0,0,0.1-0.1,0.1c0,0,0,0.1,0,0.1v5.1c0,0,0,0,0,0c0,0,0,0,0,0c0,0,0,0,0,0
	c0,0,0,0,0,0h-0.4c-0.1,0-0.1-0.1-0.2-0.2l-1-4.2v3.8c0,0,0,0.1,0,0.1c0,0,0,0.1,0.1,0.1l0.2,0.2c0,0,0.1,0,0.1,0.1c0,0,0,0,0,0
	c0,0,0,0,0,0c0,0,0,0,0,0c0,0,0,0,0,0h-1.1c0,0,0,0,0,0c0,0,0,0,0,0c0,0,0-0.1,0.1-0.1l0.2-0.2c0.1-0.1,0.1-0.1,0.1-0.2V41z"/>
<path class="st0" d="M92.4,43.1h0.2c0,0,0,0,0.1,0c0,0,0,0,0,0l0.3-0.5c0,0,0,0,0,0c0,0,0,0,0,0v1.6c0,0,0,0,0,0c0,0,0,0-0.1-0.1
	l-0.3-0.6c0,0,0,0,0,0c0,0,0,0-0.1,0h-0.2v2.3h0.5c0,0,0.1,0,0.1,0c0,0,0.1-0.1,0.1-0.1l0.5-1.5c0,0,0,0,0,0c0,0,0,0,0,0
	c0,0,0,0,0,0c0,0,0,0,0,0v1.9c0,0,0,0,0,0c0,0,0,0,0,0c0,0,0,0,0,0c0,0,0,0,0,0h-2.2c0,0,0,0,0,0c0,0,0,0,0,0c0,0,0,0,0,0
	c0,0,0,0,0,0c0,0,0,0,0.1-0.1l0.3-0.2c0,0,0-0.1,0.1-0.1c0,0,0-0.1,0-0.1V41c0,0,0-0.1,0-0.1c0,0,0-0.1-0.1-0.1l-0.3-0.2
	c0,0-0.1,0-0.1-0.1c0,0,0,0,0,0c0,0,0,0,0,0c0,0,0,0,0,0c0,0,0,0,0,0h2.2c0,0,0,0,0,0c0,0,0,0,0,0v1.9c0,0,0,0,0,0c0,0,0,0,0,0
	c0,0,0,0,0,0c0,0,0,0,0,0c0,0,0,0,0,0c0,0,0,0,0,0L93,41c0,0,0-0.1-0.1-0.1c0,0-0.1,0-0.1,0h-0.5L92.4,43.1z"/>
<path class="st0" d="M97.4,43.8L96.8,41c0-0.1,0-0.1-0.1-0.2l-0.2-0.3c0,0-0.1-0.1-0.1-0.1c0,0,0,0,0.1,0h1.2c0,0,0.1,0,0.1,0
	c0,0,0,0.1-0.1,0.1l-0.3,0.2c0,0,0,0,0,0.1c0,0,0,0.1,0,0.1l0.4,1.7l0.4-1.7c0,0,0-0.1,0-0.1c0,0,0-0.1,0-0.1l-0.3-0.2
	c0,0-0.1-0.1-0.1-0.1s0,0,0.1,0H99c0,0,0.1,0,0.1,0c0,0,0,0.1-0.1,0.1l-0.3,0.3c0,0.1-0.1,0.1-0.1,0.2L98,43.6v2.1c0,0,0,0.1,0,0.1
	c0,0,0,0.1,0.1,0.1l0.3,0.2c0,0,0.1,0,0.1,0.1c0,0,0,0,0,0c0,0,0,0,0,0c0,0,0,0,0,0c0,0,0,0,0,0h-1.3c0,0,0,0,0,0c0,0,0,0,0,0
	c0,0,0,0,0,0c0,0,0,0,0,0c0,0,0,0,0.1-0.1l0.3-0.2c0,0,0-0.1,0.1-0.1c0,0,0-0.1,0-0.1L97.4,43.8z"/>
<path class="st0" d="M102.9,44.9C102.9,44.9,102.9,44.9,102.9,44.9C102.9,44.9,102.8,44.9,102.9,44.9l-0.7-0.1c0,0,0,0,0,0.1
	l-0.1,0.8c0,0,0,0.1,0,0.1c0,0,0,0,0,0.1l0.2,0.2c0,0,0.1,0.1,0.1,0.1s0,0-0.1,0h-1c0,0,0,0,0,0s0,0,0,0c0,0,0,0,0,0c0,0,0,0,0,0
	c0,0,0-0.1,0.1-0.1l0.2-0.2c0-0.1,0.1-0.1,0.1-0.2l0.8-5.1c0,0,0-0.1,0.1-0.1h0.3c0,0,0.1,0,0.1,0.1l0.8,5.1c0,0.1,0,0.2,0.1,0.2
	l0.2,0.2c0,0,0,0,0,0.1s0,0-0.1,0h-1.2c0,0-0.1,0-0.1,0c0,0,0,0,0.1-0.1l0.2-0.2c0,0,0,0,0-0.1c0,0,0,0,0-0.1L102.9,44.9z
	 M102.8,44.4C102.8,44.4,102.8,44.4,102.8,44.4l-0.3-1.9l-0.3,1.9c0,0,0,0,0,0L102.8,44.4z"/>
<path class="st0" d="M107.7,45.7c0,0,0,0.1,0,0.1c0,0,0,0.1,0.1,0.1l0.3,0.2c0,0,0.1,0,0.1,0.1c0,0,0,0,0,0c0,0,0,0,0,0c0,0,0,0,0,0
	c0,0,0,0,0,0h-1.3c0,0,0,0,0,0c0,0,0,0,0,0c0,0,0,0,0.1-0.1l0.3-0.2c0,0,0-0.1,0.1-0.1c0,0,0-0.1,0-0.1V41c0,0,0-0.1,0-0.1
	c0,0,0-0.1-0.1-0.1l-0.3-0.2c0,0-0.1,0-0.1-0.1c0,0,0,0,0,0c0,0,0,0,0,0h1.1c0.9,0,1.3,0.4,1.3,1.4c0,0.8-0.3,1.2-0.6,1.4
	c0.2,0.1,0.3,0.2,0.4,0.3c0.1,0.2,0.1,0.3,0.1,0.5v1.6c0,0,0,0.1,0,0.1c0,0,0,0,0.1,0.1l0.3,0.3c0,0,0.1,0.1,0.1,0.1c0,0,0,0-0.1,0
	h-0.4c-0.1,0-0.1,0-0.2,0c-0.1,0-0.1-0.1-0.2-0.1c-0.1,0-0.1-0.1-0.1-0.2c0-0.1,0-0.1,0-0.2v-1.6c0-0.1,0-0.1,0-0.2
	c0-0.1-0.1-0.1-0.1-0.2c0-0.1-0.1-0.1-0.2-0.1c-0.1,0-0.1,0-0.2-0.1h-0.1L107.7,45.7z M107.7,43.1h0.1c0.4,0,0.6-0.3,0.6-1.2
	c0-0.8-0.2-1-0.6-1h-0.1V43.1z"/>
<path class="st0" d="M112.4,41c0,0,0-0.1,0-0.1c0,0,0-0.1-0.1-0.1l-0.2-0.2c0,0-0.1,0-0.1-0.1c0,0,0,0,0,0c0,0,0,0,0,0c0,0,0,0,0,0
	c0,0,0,0,0,0h1.1c0.8,0,1.4,0.7,1.4,2.7c0,2.5-0.5,3-1.4,3h-1.1c0,0,0,0,0,0c0,0,0,0,0,0c0,0,0,0,0,0c0,0,0,0,0,0c0,0,0,0,0.1-0.1
	l0.2-0.2c0,0,0-0.1,0.1-0.1c0,0,0-0.1,0-0.1L112.4,41z M113.1,45.8h0.1c0.3,0,0.6-0.3,0.6-2.6c0-2-0.3-2.3-0.6-2.3h-0.2L113.1,45.8z
	"/>
<path class="st0" d="M119.3,42.5C119.3,42.5,119.3,42.5,119.3,42.5C119.2,42.5,119.2,42.5,119.3,42.5c-0.2-0.6-0.6-1.6-1-1.6
	c-0.2,0-0.2,0.2-0.2,0.4c0,0.4,0.1,0.8,0.7,1.9c0.6,1.2,0.7,1.4,0.7,2c0,0.8-0.5,1.1-0.8,1.1c-0.2,0-0.3,0-0.5-0.1
	c0,0-0.1-0.1-0.2-0.1c0,0-0.1,0.1-0.3,0.2c0,0-0.1,0-0.1,0.1c0,0,0,0,0,0v-1.9c0,0,0-0.1,0-0.1c0,0,0,0,0.1,0.1
	c0.2,0.6,0.4,1.6,0.9,1.6c0.2,0,0.2-0.2,0.2-0.4c0-0.5-0.3-1.1-0.7-2c-0.4-0.6-0.6-1.3-0.6-2c0-0.7,0.3-1,0.8-1
	c0.2,0,0.3,0.1,0.5,0.2c0,0,0.1,0,0.1,0c0.1,0,0.1-0.1,0.2-0.1c0.1-0.1,0.1-0.1,0.2-0.1c0.1,0,0.1,0,0.1,0.1L119.3,42.5z"/>
<path class="st0" d="M50.2,40.3c-0.2,0.3-0.4,0.6-0.6,0.8c-1.2,1.4-2.6,2.7-4.1,3.8c-0.3,0.2-0.6,0.6-0.9,0.8
	c-1,0.6-2.6,1.7-3.6,1.9c-0.3,0.1-0.7,0.3-1,0.5c-0.3,0.1-0.6,0.1-0.9,0.1c-0.7,0-1.3-0.1-1.9-0.3c-0.5-0.2-1.1-0.6-1.5-0.9
	c-0.1-0.1-0.2-0.4-0.3-0.7c-0.1-0.3-0.3-0.6-0.4-0.9c-0.5-1.2-0.8-2.5-0.7-3.8c0-1.9,0.2-3.9,0.5-5.8l0.5-2.9c0-0.2,0.3-0.9,0.4-1.2
	c0.2-2,1.2-4.5,1.6-5.8c0.1-0.3,0.2-0.6,0.2-1c0.1-0.2,0.3-0.5,0.4-0.8c0.1-0.4,0.2-0.8,0.3-1.1c0.3-0.5,0.6-1,0.7-1.4
	c0.1-0.2,0.2-0.7,0.3-1c0.6-0.8,0.8-2.1,1.5-2.9c0-0.2,0-0.4,0.1-0.5c0.7-1.2,0.9-2.4,1.5-3.5c0.1-0.2,0.1-0.6,0.2-0.9
	c1-2.1,1.5-3.6,2.3-4.9c0.2-0.4,0.4-1.1,0.6-1.6c0.2-0.3,0.5-0.8,0.7-1.2C46.8,3.5,47.8,2,49.4,1c0.2-0.1,0.4-0.4,0.7-0.5
	c0.3-0.1,0.5-0.2,0.8-0.3c0.6,0,1.2,0.2,1.7,0.5c0.2,0.2,0.6,0.3,0.9,0.5c0.1,0.1,0.1,0.3,0.3,0.4c0.6,0.3,1.1,0.8,1.4,1.4
	c0,0.1,0.3,0.3,0.4,0.3c0.2,0,0.2-0.1,0.4-0.1c0.4,0,0.8,0.4,0.8,1c0,0.4-0.3,1-0.3,1.5c0,0.2,0.2,0.3,0.2,0.4
	c0,0.6-0.1,1.2-0.2,1.9c-0.1,0.3-0.2,0.7-0.3,1c0,0.1,0.1,0.4,0,0.5c-0.2,0.3-0.4,0.6-0.6,0.9c-0.2,0.6-0.3,1.2-0.4,1.8
	c0,0.4,0,0.7,0,1.1c-0.1,0.2-0.1,0.4-0.2,0.7c-0.3,0.9-0.1,1.9-0.9,3.1c-0.2,0.2-0.4,0.3-0.6,0.4c-0.6,0.4-0.8,0.7-1.6,0.8
	c-0.2,0-1.2-0.5-1.2-0.9l0.9-5c0-0.2,0.1-0.2,0.2-0.3c0.2-1,0.9-3.6,0.9-3.8c0.1-0.4,0.1-0.9,0-1.3c-0.1-0.2-0.2-0.3-0.4-0.5
	c-0.1-0.2-0.1-0.5-0.2-0.7c0-0.1,0-0.2,0.1-0.3c-0.8-0.4-1.4-1.4-2.1-1.3c-1,0.1-1.6,1.8-1.8,2.1c-0.1,0.1-0.4,0.4-0.5,0.6
	c-0.7,1.3-1.4,3.1-2.2,4.6c-0.1,0.2-0.4,0.3-0.5,0.6c-0.1,0.2-0.1,0.6-0.3,0.9c-1.1,2-2.7,5-3.8,6.9c0,0.1-0.3,0.3-0.4,0.4
	c-0.3,0.5-0.3,0.9-0.5,1.4c-0.1,0.1-0.3,0.2-0.4,0.4c-0.1,0.2,0,0.6-0.1,0.8c-0.2,0.3-0.5,0.6-0.7,0.8c-0.3,0.7-0.4,1.5-0.6,1.9
	c-0.1,0.2-0.1,0.8-0.3,1.1c-0.2,0.4-0.4,0.7-0.6,1c0,0,0.1,0.2,0.1,0.4c0,0.5-0.2,0.9-0.4,1.4c-0.1,0.2-0.1,0.4-0.1,0.7
	c-0.1,0.2-0.2,0.5-0.4,0.7c0,0.2,0,0.5,0,0.7c-0.1,0.2-0.2,0.4-0.3,0.6c0,0.3,0.1,0.6,0.1,1c-0.2,1.2-0.8,3.2-0.8,3.4
	c0,0.2,0,0.4,0,0.6c-0.1,0.6-0.2,1.3-0.3,1.9c0,0.2,0.1,0.5,0.1,0.8c0,0.3-0.1,0.5,0,0.8c0.2,1.8,0.3,3.6,1.2,5
	c0,0.1,0.1,0.2,0.1,0.4c0.5,0.6,1.2,1.1,1.9,1.2c0.3,0.1,0.7,0.1,1,0.1l0.7,0c1-0.2,1.9-0.6,2.8-1.1c1.2-0.8,2.4-1.7,3.4-2.7
	c0.8-0.7,1.6-1.5,2.3-2.3c0.4-0.4,0.8-0.9,1.1-1.4c0.2-0.3,0.4-0.5,0.5-0.8c0.1-0.2,0.1-0.4,0.2-0.6c0-0.1,0.2-0.3,0.3-0.3
	c0,0,0.2-0.5,0.4-0.5c0.3,0,0.4,0.3,0.4,0.5C51.6,38.7,50.3,40,50.2,40.3z M52.1,37.3c-0.1,0-0.2-0.1-0.3-0.1c0-0.1,0-0.3,0-0.4
	c0.1,0.1,0.3,0.1,0.4,0.3C52.2,37.1,52.1,37.2,52.1,37.3L52.1,37.3z M53.4,33.7c0,0.1-0.2,0.1-0.4,0.2c0,0.1,0.1,0.2,0,0.4
	c0,0.2-0.1,0.5-0.2,0.8c0,0.1,0.2,0.1,0.1,0.3c0,0.2-0.2,0.3-0.3,0.4c-0.1-0.3-0.2-0.7-0.2-1.1c0-0.1-0.2-0.3-0.2-0.4
	c0.2-1-0.1-0.7,0-1l0.2-0.9c0.1,0,0.2,0.1,0.3,0.1c0.2,0,0.2-0.1,0.4-0.3c0.2,0.7,0.2,0.6,0.2,1.1C53.4,33.4,53.4,33.5,53.4,33.7
	L53.4,33.7z"/>
<path class="st0" d="M57,28.8c0.3-0.6,0.5-1.1,0.7-1.7c0.1-0.4-0.1-0.9,0.2-1.2c0.5-0.4,0.9-0.9,1.3-1.3c0.3-0.4,0.6-0.6,0.9-0.5
	l0.2,1.2c-0.1,1-0.4,1.8-0.4,2.9c0,0.3,0.1,0.5,0.1,0.8c0,0.3,0,0.6,0,0.9c0,0.6,0.1,1.7,1.1,1.7c0.6,0,0.8-0.6,0.9-1
	c0.1-0.3,0.2-0.6,0.4-0.9c0.6-0.8,0.8-1.8,1.1-2.8c0.2-0.8,0.8-1.5,1.5-2c0.5-0.4,0.7-0.9,1.1-0.9c0,0,0,0,0,0.1c0,0.1,0,0.2,0,0.2
	c0,0.1,0,0.1,0,0.2c-0.3,1.7-0.6,3.9-0.4,5.7c0.1,0.9,0,1.7,0.7,2c0.6,0.3,1.1-0.4,1.5-1c0.1-0.1,0.2-0.3,0.2-0.5
	c0.2-0.3,0.3-0.9,0.6-1.2c0.3,0,0.3,0.1,0.1,0.5c-0.5,1-1.1,1.9-1.7,2.8c-0.7,0.9-1.3,1.2-2.1,1.3c-0.2,0-0.2,0.2-0.3,0.1
	c-0.2,0-0.4-0.1-0.5-0.2c-0.4-0.2-0.5-0.8-0.6-1.1c-0.2-0.5-0.4-1.4-1.1-1.2c-0.8,0.2-1.2,1.1-1.7,1.6c-0.2,0.2-0.5,0.4-0.8,0.5
	c-0.3,0.1-0.6,0.2-0.9,0.2c-0.8,0-1.1-0.9-1.4-1.9c-0.1-0.3-0.1-0.6-0.1-0.9c0-0.4,0-1.2-0.7-1.1c-1,0.2-1.3,1.2-2,2.1
	c-0.2,0.2-0.5,0.7-0.5,0.5C54.8,31.2,56.6,29.5,57,28.8z"/>
<path class="st0" d="M81.7,32.4c-3.2,0.4-3.1,1.3-6.2,2c-0.9,0.7-2.1,0.4-2.8,1.6c-1.2,2.8-1.4,6-2.6,8.7c-0.2,1-0.2,1.9-1.3,2.2
	c-0.2-0.1-0.5,0.4-0.6,0.1c0.2-2,0.8-4.1,0.9-6.2c0.4-0.9,0.6-1.9,1-2.8c0.5-1.8,1.2-3.7,1.7-5.5c0.3-1.3-1-0.4-1.1-0.2
	c-0.7,0.3-2.2,1.4-2.2,0.7c1.6-0.8,2.8-2.1,4.1-3.4c0.2-0.7,0.7-1.2,1-1.8c0.3-0.6,0.9-0.4,1.2-0.7c1.2-0.4,1.5-1.5,2.6-2
	c0.9-0.6,1.9-1,2.9-1.2c0.4-0.1,0.8,0,1.1,0.1c0.4,0.1,0.7,0.3,1,0.6c0,0.6,0.2,1.1-0.1,1.7c0,0.4,0,0.7-0.2,1.1
	c-0.5,1.4-1.2,2.7-2.2,3.8c0,0.1,0,0.1,0,0.2c0,0.1,0,0.1,0.1,0.2c0,0.1,0.1,0.1,0.1,0.1c0.1,0,0.1,0.1,0.2,0.1
	c0.2,0,0.5,0.1,0.6-0.1l0.1,0.1c1.9-0.4,0.4,0,2.4-0.2c0.1,0.1,0,0.4,0,0.6C82.5,32.2,82.5,31.9,81.7,32.4z M79,25.2
	c-1.2,0.4-1.6,1-2.4,2.2c-1,1.9-2.3,3.6-2.7,5.8l0.2,0.2c1.9,0.2,2.9-0.7,4.1-2.4c1.1-1.5,1.7-3.2,1.9-5c-0.1-0.2-0.2-0.4-0.4-0.6
	C79.4,25.3,79.2,25.2,79,25.2z"/>
<path class="st0" d="M89.2,33.5c-0.7,0.5-1.5,1.2-2.2,1.4c-0.8,0.2-1.7,0.5-2.3-0.2c-0.4-0.5-0.6-1.2-0.6-1.9
	c-0.1-2.3,0-1.8,0.4-4.1c0.1-0.8,0.5-1.6,0.6-2.4c0.2-1.5,1.1-2.2,1.6-3.5c0.2-0.7,1.1-1.5,1.9-1.1l0.7,0.8c0.2,0.7,0.3,1.4,0.3,2.1
	c0,1.3-0.4,2.5-0.9,3.6c-0.3,0.6-0.7,1.3-1.3,1.5c-0.5,0.1,0.2-0.7,0.2-1.1c0-0.6,0.5-1.2,0.1-1.6c-0.3-0.4-1,0-1.2,0.4
	c-0.8,2.2-0.9,2-0.9,4.4c0,0.8,0.4,1.8,1.1,2c1.2,0.3,2.2-0.6,3.3-1.3C90.5,32,89.6,33.2,89.2,33.5z"/>
<path class="st0" d="M96.6,33.6c-0.6-0.2-0.9-1.2-1.1-2c0-0.2-0.3,0-0.5,0.1c-1.1,1.1-1.9,2.5-3.3,3c-0.5,0.2-1.1,0.1-1.2-0.4
	c0-0.7,0.1-1.4,0.4-2.1c0.3-0.7,0.5-1.3,0.8-2c0.3-1.1,0.8-2.1,1.3-3c0.7-1.2,1.7-2.2,2.9-2.9c0.5-0.2,0.6,0.5,0.5,0.9
	c-0.2,1.1-0.7,2.6-1.7,2.9c-0.6,0.1-1.1,0.2-1.3,0.7c-0.3,0.7-0.6,1.5-0.7,2.3c-0.1,0.6-0.5,1.7,0,1.7c1.3,0.2,1.8-1.9,2.5-2.9
	c0.5-0.8,0.8-1.6,1.2-2.4v-0.3c0.7-0.6,1.1-1.7,2-1.6c0.5,0.1-0.2,0.9-0.2,1.4c0,1.5-0.8,2.8-0.3,4.2c0.2,0.6,1,0.5,1.5,0.4
	c0.3-0.2,0.6-0.3,0.9-0.4c0.3,0,0.2,0.7,0,0.9C99.2,33,97.9,34.2,96.6,33.6z"/>
<path class="st0" d="M112.7,21.7c-1.9,1.5-4.2,2.6-5.6,4.1c-1.2,1.2-0.1,3.4,0.6,4.7c1,1.7,2.9,2.2,4.8,1.8c0.1,0,0.2-0.1,0.3-0.1
	c0.1,0,0,0.6-0.2,0.7c-1.1,0.6-2.3,1-3.6,1.1c-2,0.2-3-1.7-4.3-2.8c-0.4-0.4-0.3,0.5-0.4,1c-0.1,1.2-0.5,1.9-0.8,3.3
	c-0.2,1-2.1,2.1-2.3,1.1c-0.5-1.7,1.2-3.3,0.7-4.9c-0.2-0.7-1.1,1.8-1.5,1.1c-0.9-1.2,1.3-2,1.9-3.2c1-1.9,1.6-3.8,2.4-5.7
	c0.4-0.8,0.8-1.6,1-2.5c0.5-2.1,1.2-4.1,2.1-6.1c0.2-0.4,0.6-0.7,1-0.9c0.4-0.2,0.9-0.2,1.3-0.2l0.1,0.1c-1,2.6-1.9,5.3-2.9,7.9
	c-0.3,0.8-1.4,2.5-0.6,2.6c1.1,0.2,2.9-1.5,4.1-2.5c0.8-0.6,1.4-1.1,2.2-1.7c0.5-0.4,2-1.4,2-0.7C114.9,21,113.4,21.2,112.7,21.7z"
	/>
<path class="st0" d="M117.9,32.7c-0.4,0.5-1,0.9-1.5,1.2c-0.7,0.3-1.8,0.8-2.2,0.1c-0.7-1.1-1-2.4-0.9-3.7c0-0.4-0.1-0.8,0-1.2
	c0.4-1.3,0.7-1.7,1.6-2.9c0.9-1.3,2.1-2.4,3.3-3.4c0.1-0.1,0.3-0.2,0.5-0.2c0.2,0,0.3,0,0.5,0.1c0.2,0.1,0.3,0.2,0.4,0.3
	c0.1,0.1,0.1,0.3,0.2,0.5c0.1,2.8-2.2,4.8-4,6.4c-0.5,0.4-0.2,1.2-0.1,1.7c0.2,0.6,0.7,0.7,1.3,0.7c1.5,0,1.7-3.4,2.9-3
	C121,29.7,118.7,31.9,117.9,32.7z M117.4,25.2c-0.8-0.2-0.9,0.7-1.1,1.3c-0.2,0.5-0.9,2-0.2,2c1.1,0,1.2-1.6,1.5-2.6L117.4,25.2z"/>
<path class="st0" d="M123.1,20.9c0.4,0,0.8,0.2,1,0.4c0.3,0.3,0.4,0.6,0.4,1c0,0.3-0.1,0.6-0.2,0.8c-0.2,0.2-0.4,0.4-0.7,0.5
	c-0.3,0.1-0.6,0.1-0.8,0.1c-0.3-0.1-0.5-0.2-0.7-0.4c-0.2-0.2-0.3-0.5-0.4-0.7c-0.1-0.3,0-0.6,0.1-0.8c0.1-0.3,0.3-0.5,0.5-0.7
	C122.5,21,122.8,20.9,123.1,20.9z M123.1,21.2c-0.2,0-0.5,0.1-0.7,0.2c-0.2,0.1-0.4,0.3-0.5,0.5c-0.1,0.2-0.1,0.5-0.1,0.7
	c0,0.2,0.2,0.5,0.3,0.6c0.2,0.2,0.4,0.3,0.6,0.3s0.5,0,0.7-0.1c0.2-0.1,0.4-0.3,0.5-0.5c0.1-0.2,0.2-0.4,0.2-0.7
	c0-0.2,0-0.3-0.1-0.5c-0.1-0.2-0.1-0.3-0.3-0.4c-0.1-0.1-0.3-0.2-0.4-0.3C123.4,21.2,123.2,21.1,123.1,21.2L123.1,21.2z M122.4,23
	C122.4,22.9,122.4,22.9,122.4,23c0.1-0.1,0.1-0.1,0.2-0.2c0-0.2,0-0.6,0-0.8c0-0.1,0-0.1-0.1-0.1c0,0,0,0,0,0c0,0,0,0,0,0
	c0,0,0,0,0,0c0,0,0,0,0,0v-0.1v0c0.1,0,0.3,0,0.4,0c0.1,0,0.1,0,0.2,0c0.3,0,0.6,0.1,0.6,0.4c0,0.1,0,0.1-0.1,0.2
	c0,0.1-0.1,0.1-0.2,0.1c0.1,0.2,0.3,0.6,0.5,0.6v0.1c-0.1,0-0.2,0-0.3,0c-0.2-0.1-0.4-0.3-0.4-0.5c0-0.1-0.1-0.1-0.2-0.1v0.3
	c0,0.1,0,0.1,0.2,0.1c0,0,0,0,0,0.1v0.1h-0.6L122.4,23z M123.3,22c0,0,0-0.1,0-0.1c0,0,0-0.1-0.1-0.1c0,0-0.1,0-0.1-0.1
	c0,0-0.1,0-0.1,0c0,0-0.1,0-0.1,0c0,0,0,0,0,0c0,0,0,0.2,0,0.3v0.2c0.1,0,0.2,0,0.4-0.1c0,0,0-0.1,0.1-0.1
	C123.3,22.1,123.3,22.1,123.3,22L123.3,22z"/>
</svg>
