<?xml version="1.0" encoding="utf-8"?>
<!-- Generator: Adobe Illustrator 27.1.1, SVG Export Plug-In . SVG Version: 6.00 Build 0)  -->
<svg version="1.1" id="Layer_1" xmlns="http://www.w3.org/2000/svg" xmlns:xlink="http://www.w3.org/1999/xlink" x="0px" y="0px"
	 viewBox="0 0 158 48" style="enable-background:new 0 0 158 48;" xml:space="preserve">
<style type="text/css">
	.st0{fill:#FFFFFF;}
</style>
<path class="st0" d="M76.7,40.2c0-0.1,0-0.1-0.1-0.2l-0.3-0.2l0,0c0,0,0,0,0-0.1c0,0,0,0,0.1,0h1.2l0,0l0,0l0,0l-0.2,0.2L77.4,40
	v0.1l0.4,2.6l0.4-2.6V40c0,0,0-0.1-0.1-0.1l-0.2-0.2v-0.1c0,0,0,0,0.1,0h1h0.1c0,0,0,0,0,0.1l0,0l-0.3,0.2c-0.1,0.1-0.1,0.1-0.1,0.2
	L78.2,45c0,0.1,0,0.1-0.1,0.1h-0.3l0,0l0,0l0,0l0,0L76.7,40.2z"/>
<path class="st0" d="M81.9,40.2L81.9,40.2c0-0.1,0-0.2-0.1-0.2l-0.3-0.2c0,0-0.1,0-0.1-0.1l0,0l0,0h1.4l0,0l0,0l0,0l0,0
	c0,0,0,0-0.1,0.1L82.4,40c0,0,0,0.1-0.1,0.1v0.1v4.4v0.1c0,0,0,0.1,0.1,0.1l0.3,0.2c0,0,0.1,0,0.1,0.1l0,0l0,0l0,0l0,0h-1.2l0,0l0,0
	l0,0l0,0c0,0,0,0,0.1-0.1l0.3-0.2c0,0,0-0.1,0.1-0.1v-0.1v-4.4H81.9z"/>
<path class="st0" d="M85.8,40.2c0-0.1,0-0.2-0.1-0.2l-0.2-0.2c0,0-0.1,0-0.1-0.1l0,0l0,0h1c0.1,0,0.1,0.1,0.1,0.1l0.8,3.1v-2.8v-0.1
	c0,0,0-0.1-0.1-0.1l-0.2-0.2c0,0-0.1,0-0.1-0.1l0,0l0,0h1l0,0l0,0l0,0l0,0c0,0,0,0.1-0.1,0.1L87.6,40c0,0,0,0.1-0.1,0.1v0.1v4.9l0,0
	l0,0l0,0l0,0h-0.4c-0.1,0-0.1-0.1-0.2-0.2l-1-4v3.6v0.1c0,0,0,0.1,0.1,0.1l0.2,0.2c0,0,0.1,0,0.1,0.1l0,0l0,0l0,0l0,0h-1l0,0l0,0
	c0,0,0-0.1,0.1-0.1l0.2-0.2c0.1-0.1,0.1-0.1,0.1-0.2L85.8,40.2L85.8,40.2z"/>
<path class="st0" d="M91.8,42.2H92c0,0,0,0,0.1,0l0,0l0.3-0.5l0,0l0,0v1.5l0,0c0,0,0,0-0.1-0.1L92,42.6l0,0c0,0,0,0-0.1,0h-0.2v2.2
	h0.5h0.1l0.1-0.1l0.5-1.4l0,0l0,0l0,0l0,0v1.8l0,0l0,0l0,0l0,0h-2.1l0,0l0,0l0,0l0,0c0,0,0,0,0.1-0.1l0.3-0.2c0,0,0-0.1,0.1-0.1
	v-0.1v-4.4v-0.1c0,0,0-0.1-0.1-0.1l-0.3-0.2c0,0-0.1,0-0.1-0.1l0,0l0,0l0,0l0,0h2.1l0,0l0,0v1.8l0,0l0,0l0,0l0,0l0,0l0,0l-0.5-1.3
	c0,0,0-0.1-0.1-0.1h-0.1h-0.5L91.8,42.2z"/>
<path class="st0" d="M96.6,42.9L96,40.2c0-0.1,0-0.1-0.1-0.2l-0.2-0.3l-0.1-0.1c0,0,0,0,0.1,0h1.1h0.1c0,0,0,0.1-0.1,0.1l-0.3,0.2
	c0,0,0,0,0,0.1v0.1l0.4,1.6l0.4-1.6V40v-0.1L97,39.7l-0.1-0.1c0,0,0,0,0.1,0h1h0.1c0,0,0,0.1-0.1,0.1L97.8,40c0,0.1-0.1,0.1-0.1,0.2
	l-0.6,2.5v2v0.1c0,0,0,0.1,0.1,0.1l0.3,0.2c0,0,0.1,0,0.1,0.1l0,0l0,0l0,0l0,0h-1.2l0,0l0,0l0,0l0,0c0,0,0,0,0.1-0.1l0.3-0.2
	c0,0,0-0.1,0.1-0.1v-0.1L96.6,42.9z"/>
<path class="st0" d="M101.8,43.9L101.8,43.9C101.8,43.9,101.7,43.9,101.8,43.9l-0.7-0.1c0,0,0,0,0,0.1l-0.1,0.8v0.1c0,0,0,0,0,0.1
	l0.2,0.2l0.1,0.1c0,0,0,0-0.1,0h-1l0,0l0,0l0,0l0,0c0,0,0-0.1,0.1-0.1l0.2-0.2c0-0.1,0.1-0.1,0.1-0.2l0.8-4.9c0,0,0-0.1,0.1-0.1h0.3
	c0,0,0.1,0,0.1,0.1l0.8,4.9c0,0.1,0,0.2,0.1,0.2l0.2,0.2c0,0,0,0,0,0.1c0,0.1,0,0-0.1,0h-1.1h-0.1c0,0,0,0,0.1-0.1l0.2-0.2
	c0,0,0,0,0-0.1c0,0,0,0,0-0.1L101.8,43.9z M101.7,43.5L101.7,43.5l-0.3-1.8l-0.3,1.8l0,0H101.7z"/>
<path class="st0" d="M106.4,44.7L106.4,44.7c0,0.1,0,0.2,0.1,0.2l0.3,0.2c0,0,0.1,0,0.1,0.1l0,0l0,0l0,0l0,0h-1.2l0,0l0,0
	c0,0,0,0,0.1-0.1l0.3-0.2c0,0,0-0.1,0.1-0.1v-0.1v-4.5v-0.1c0,0,0-0.1-0.1-0.1l-0.3-0.2c0,0-0.1,0-0.1-0.1l0,0l0,0h1
	c0.9,0,1.2,0.4,1.2,1.3c0,0.8-0.3,1.1-0.6,1.3c0.2,0.1,0.3,0.2,0.4,0.3c0.1,0.2,0.1,0.3,0.1,0.5v1.5v0.1c0,0,0,0,0.1,0.1l0.3,0.3
	l0.1,0.1c0,0,0,0-0.1,0h-0.4c-0.1,0-0.1,0-0.2,0s-0.1-0.1-0.2-0.1s-0.1-0.1-0.1-0.2c0-0.1,0-0.1,0-0.2v-1.5c0-0.1,0-0.1,0-0.2
	c0-0.1-0.1-0.1-0.1-0.2c0-0.1-0.1-0.1-0.2-0.1s-0.1,0-0.2-0.1h-0.1L106.4,44.7z M106.4,42.2L106.4,42.2c0.5,0,0.7-0.3,0.7-1.1
	c0-0.8-0.2-1-0.6-1h-0.1V42.2z"/>
<path class="st0" d="M110.9,40.2L110.9,40.2c0-0.1,0-0.2-0.1-0.2l-0.2-0.2c0,0-0.1,0-0.1-0.1l0,0l0,0l0,0l0,0h1
	c0.8,0,1.3,0.7,1.3,2.6c0,2.4-0.5,2.9-1.3,2.9h-1l0,0l0,0l0,0l0,0c0,0,0,0,0.1-0.1l0.2-0.2c0,0,0-0.1,0.1-0.1v-0.1V40.2z
	 M111.5,44.8L111.5,44.8c0.4,0,0.7-0.3,0.7-2.5c0-1.9-0.3-2.2-0.6-2.2h-0.2L111.5,44.8z"/>
<path class="st0" d="M117.4,41.6L117.4,41.6C117.3,41.6,117.3,41.6,117.4,41.6c-0.2-0.6-0.6-1.5-1-1.5c-0.2,0-0.2,0.2-0.2,0.4
	c0,0.4,0.1,0.8,0.7,1.8c0.6,1.1,0.7,1.3,0.7,1.9c0,0.8-0.5,1-0.8,1c-0.2,0-0.3,0-0.5-0.1c0,0-0.1-0.1-0.2-0.1c0,0-0.1,0.1-0.3,0.2
	c0,0-0.1,0-0.1,0.1l0,0v-1.8v-0.1c0,0,0,0,0.1,0.1c0.2,0.6,0.4,1.5,0.9,1.5c0.2,0,0.2-0.2,0.2-0.4c0-0.5-0.3-1-0.7-1.9
	c-0.4-0.6-0.6-1.2-0.6-1.9c0-0.7,0.3-1,0.8-1c0.2,0,0.3,0.1,0.5,0.2h0.1c0.1,0,0.1-0.1,0.2-0.1c0.1-0.1,0.1-0.1,0.2-0.1
	s0.1,0,0.1,0.1L117.4,41.6z"/>
<path class="st0" d="M51.6,39.5c-0.2,0.3-0.4,0.6-0.6,0.8c-1.1,1.3-2.5,2.6-3.9,3.6c-0.3,0.2-0.6,0.6-0.9,0.8
	c-1,0.6-2.5,1.6-3.4,1.8c-0.3,0.1-0.7,0.3-1,0.5c-0.3,0.1-0.6,0.1-0.9,0.1c-0.7,0-1.2-0.1-1.8-0.3c-0.5-0.2-1-0.6-1.4-0.9
	c-0.1-0.1-0.2-0.4-0.3-0.7c-0.1-0.3-0.3-0.6-0.4-0.9c-0.5-1.1-0.8-2.4-0.7-3.6c0-1.8,0.2-3.7,0.5-5.5l0.5-2.8c0-0.2,0.3-0.9,0.4-1.1
	c0.2-1.9,1.1-4.3,1.5-5.5c0.1-0.3,0.2-0.6,0.2-1c0.1-0.2,0.3-0.5,0.4-0.8c0.1-0.4,0.2-0.8,0.3-1c0.3-0.5,0.6-1,0.7-1.3
	c0.1-0.2,0.2-0.7,0.3-1c0.6-0.8,0.8-2,1.4-2.8c0-0.2,0-0.4,0.1-0.5c0.7-1.1,0.9-2.3,1.4-3.3c0.1-0.2,0.1-0.6,0.2-0.9
	c1-2,1.4-3.4,2.2-4.7c0.2-0.4,0.4-1,0.6-1.5c0.2-0.3,0.5-0.8,0.7-1.1c0.7-1.5,1.6-3,3.1-3.9C51,2,51.2,1.7,51.5,1.6s0.5-0.2,0.8-0.3
	c0.6,0,1.1,0.2,1.6,0.5C54,2,54.4,2.1,54.7,2.3c0.1,0.1,0.1,0.3,0.3,0.4c0.6,0.3,1,0.8,1.3,1.3c0,0.1,0.3,0.3,0.4,0.3
	c0.2,0,0.2-0.1,0.4-0.1c0.4,0,0.8,0.4,0.8,1c0,0.4-0.3,1-0.3,1.4c0,0.2,0.2,0.3,0.2,0.4c0,0.6-0.1,1.1-0.2,1.8
	c-0.1,0.3-0.2,0.7-0.3,1c0,0.1,0.1,0.4,0,0.5c-0.2,0.3-0.4,0.6-0.6,0.9c-0.2,0.6-0.3,1.1-0.4,1.7c0,0.4,0,0.7,0,1
	c-0.1,0.2-0.1,0.4-0.2,0.7c-0.3,0.9-0.1,1.8-0.9,3c-0.2,0.2-0.4,0.3-0.6,0.4c-0.6,0.4-0.8,0.7-1.5,0.8c-0.2,0-1.1-0.5-1.1-0.9
	l0.9-4.8c0-0.2,0.1-0.2,0.2-0.3c0.2-1,0.9-3.4,0.9-3.6c0.1-0.4,0.1-0.9,0-1.2c-0.1-0.2-0.2-0.3-0.4-0.5c-0.1-0.2-0.1-0.5-0.2-0.7
	c0-0.1,0-0.2,0.1-0.3c-0.8-0.4-1.3-1.3-2-1.2c-1,0.1-1.5,1.7-1.7,2c-0.1,0.1-0.4,0.4-0.5,0.6c-0.7,1.2-1.3,3-2.1,4.4
	c-0.1,0.2-0.4,0.3-0.5,0.6c-0.1,0.2-0.1,0.6-0.3,0.9c-1,1.9-2.6,4.8-3.6,6.6c0,0.1-0.3,0.3-0.4,0.4c-0.3,0.5-0.3,0.9-0.5,1.3
	c-0.1,0.1-0.3,0.2-0.4,0.4c-0.1,0.2,0,0.6-0.1,0.8c-0.2,0.3-0.5,0.6-0.7,0.8c-0.3,0.7-0.4,1.4-0.6,1.8c-0.1,0.2-0.1,0.8-0.3,1
	c-0.2,0.4-0.4,0.7-0.6,1c0,0,0.1,0.2,0.1,0.4c0,0.5-0.2,0.9-0.4,1.3C39,29.4,39,29.6,39,29.9c-0.1,0.2-0.2,0.5-0.4,0.7
	c0,0.2,0,0.5,0,0.7c-0.1,0.2-0.2,0.4-0.3,0.6c0,0.3,0.1,0.6,0.1,1c-0.2,1.1-0.8,3.1-0.8,3.2s0,0.4,0,0.6c-0.1,0.6-0.2,1.2-0.3,1.8
	c0,0.2,0.1,0.5,0.1,0.8c0,0.3-0.1,0.5,0,0.8c0.2,1.7,0.3,3.4,1.1,4.8c0,0.1,0.1,0.2,0.1,0.4c0.5,0.6,1.1,1,1.8,1.1
	c0.3,0.1,0.7,0.1,1,0.1h0.7c1-0.2,1.8-0.6,2.7-1c1.1-0.8,2.3-1.6,3.2-2.6c0.8-0.7,1.5-1.4,2.2-2.2c0.4-0.4,0.8-0.9,1-1.3
	c0.2-0.3,0.4-0.5,0.5-0.8c0.1-0.2,0.1-0.4,0.2-0.6c0-0.1,0.2-0.3,0.3-0.3c0,0,0.2-0.5,0.4-0.5c0.3,0,0.4,0.3,0.4,0.5
	C52.9,38,51.7,39.3,51.6,39.5z M53.4,36.7c-0.1,0-0.2-0.1-0.3-0.1c0-0.1,0-0.3,0-0.4c0.1,0.1,0.3,0.1,0.4,0.3
	C53.5,36.5,53.4,36.6,53.4,36.7L53.4,36.7z M54.6,33.3c0,0.1-0.2,0.1-0.4,0.2c0,0.1,0.1,0.2,0,0.4c0,0.2-0.1,0.5-0.2,0.8
	c0,0.1,0.2,0.1,0.1,0.3c0,0.2-0.2,0.3-0.3,0.4c-0.1-0.3-0.2-0.7-0.2-1c0-0.1-0.2-0.3-0.2-0.4c0.2-1-0.1-0.7,0-1l0.2-0.9
	c0.1,0,0.2,0.1,0.3,0.1c0.2,0,0.2-0.1,0.4-0.3c0.2,0.7,0.2,0.6,0.2,1C54.6,33,54.6,33.1,54.6,33.3L54.6,33.3z"/>
<path class="st0" d="M58,28.6c0.3-0.6,0.5-1,0.7-1.6c0.1-0.4-0.1-0.9,0.2-1.1c0.5-0.4,0.9-0.9,1.2-1.2c0.3-0.4,0.6-0.6,0.9-0.5
	l0.2,1.1c-0.1,1-0.4,1.7-0.4,2.8c0,0.3,0.1,0.5,0.1,0.8c0,0.3,0,0.6,0,0.9c0,0.6,0.1,1.6,1,1.6c0.6,0,0.8-0.6,0.9-1
	c0.1-0.3,0.2-0.6,0.4-0.9c0.6-0.8,0.8-1.7,1-2.7c0.2-0.8,0.8-1.4,1.4-1.9c0.5-0.4,0.7-0.9,1-0.9c0,0,0,0,0,0.1s0,0.2,0,0.2
	c0,0.1,0,0.1,0,0.2c-0.3,1.6-0.6,3.7-0.4,5.4c0.1,0.9,0,1.6,0.7,1.9c0.6,0.3,1-0.4,1.4-1c0.1-0.1,0.2-0.3,0.2-0.5
	c0.2-0.3,0.3-0.9,0.6-1.1c0.3,0,0.3,0.1,0.1,0.5c-0.5,1-1,1.8-1.6,2.7c-0.7,0.9-1.2,1.1-2,1.2c-0.2,0-0.2,0.2-0.3,0.1
	c-0.2,0-0.4-0.1-0.5-0.2c-0.4-0.2-0.5-0.8-0.6-1c-0.2-0.5-0.4-1.3-1-1.1c-0.8,0.2-1.1,1-1.6,1.5c-0.2,0.2-0.5,0.4-0.8,0.5
	s-0.6,0.2-0.9,0.2c-0.8,0-1-0.9-1.3-1.8c-0.1-0.3-0.1-0.6-0.1-0.9c0-0.4,0-1.1-0.7-1c-1,0.2-1.2,1.1-1.9,2c-0.2,0.2-0.5,0.7-0.5,0.5
	C55.9,30.9,57.7,29.3,58,28.6z"/>
<path class="st0" d="M81.6,32c-3.1,0.4-3,1.2-5.9,1.9c-0.9,0.7-2,0.4-2.7,1.5c-1.1,2.7-1.3,5.7-2.5,8.3c-0.2,1-0.2,1.8-1.2,2.1
	c-0.2-0.1-0.5,0.4-0.6,0.1c0.2-1.9,0.8-3.9,0.9-5.9c0.4-0.9,0.6-1.8,1-2.7c0.5-1.7,1.1-3.5,1.6-5.2c0.3-1.2-1-0.4-1-0.2
	c-0.7,0.3-2.1,1.3-2.1,0.7c1.5-0.8,2.7-2,3.9-3.2c0.2-0.7,0.7-1.1,1-1.7c0.3-0.6,0.9-0.4,1.1-0.7c1.1-0.4,1.4-1.4,2.5-1.9
	c0.9-0.6,1.8-1,2.8-1.1c0.4-0.1,0.8,0,1,0.1c0.4,0.1,0.7,0.3,1,0.6c0,0.6,0.2,1-0.1,1.6c0,0.4,0,0.7-0.2,1c-0.5,1.3-1.1,2.6-2.1,3.6
	c0,0.1,0,0.1,0,0.2c0,0.1,0,0.1,0.1,0.2c0,0.1,0.1,0.1,0.1,0.1c0.1,0,0.1,0.1,0.2,0.1c0.2,0,0.5,0.1,0.6-0.1l0.1,0.1
	c1.8-0.4,0.4,0,2.3-0.2c0.1,0.1,0,0.4,0,0.6C82.4,31.8,82.4,31.5,81.6,32z M79,25.2c-1.1,0.4-1.5,1-2.3,2.1c-1,1.8-2.2,3.4-2.6,5.5
	l0.2,0.2c1.8,0.2,2.8-0.7,3.9-2.3c1-1.4,1.6-3.1,1.8-4.8c-0.1-0.2-0.2-0.4-0.4-0.6C79.4,25.2,79.2,25.2,79,25.2z"/>
<path class="st0" d="M88.7,33.1c-0.7,0.5-1.4,1.1-2.1,1.3c-0.8,0.2-1.6,0.5-2.2-0.2c-0.4-0.5-0.6-1.1-0.6-1.8
	c-0.1-2.2,0-1.7,0.4-3.9c0.1-0.8,0.5-1.5,0.6-2.3c0.2-1.4,1-2.1,1.5-3.3c0.2-0.7,1-1.4,1.8-1l0.7,0.8c0.2,0.7,0.3,1.3,0.3,2
	c0,1.2-0.4,2.4-0.9,3.4c-0.3,0.6-0.7,1.2-1.2,1.4c-0.5,0.1,0.2-0.7,0.2-1c0-0.6,0.5-1.1,0.1-1.5c-0.3-0.4-1,0-1.1,0.4
	c-0.8,2.1-0.9,1.9-0.9,4.2c0,0.8,0.4,1.7,1,1.9c1.1,0.3,2.1-0.6,3.1-1.2C90,31.6,89.1,32.8,88.7,33.1z"/>
<path class="st0" d="M95.8,33.2c-0.6-0.2-0.9-1.1-1-1.9c0-0.2-0.3,0-0.5,0.1c-1,1-1.8,2.4-3.1,2.9c-0.5,0.2-1,0.1-1.1-0.4
	c0-0.7,0.1-1.3,0.4-2c0.3-0.7,0.5-1.2,0.8-1.9c0.3-1,0.8-2,1.2-2.9c0.7-1.1,1.6-2.1,2.8-2.8c0.5-0.2,0.6,0.5,0.5,0.9
	c-0.2,1-0.7,2.5-1.6,2.8c-0.6,0.1-1,0.2-1.2,0.7c-0.3,0.7-0.6,1.4-0.7,2.2c-0.1,0.6-0.5,1.6,0,1.6c1.2,0.2,1.7-1.8,2.4-2.8
	c0.5-0.8,0.8-1.5,1.1-2.3v-0.3c0.7-0.6,1-1.6,1.9-1.5c0.5,0.1-0.2,0.9-0.2,1.3c0,1.4-0.8,2.7-0.3,4c0.2,0.6,1,0.5,1.4,0.4
	c0.3-0.2,0.6-0.3,0.9-0.4c0.3,0,0.2,0.7,0,0.9C98.3,32.6,97,33.7,95.8,33.2z"/>
<path class="st0" d="M111.1,21.8c-1.8,1.4-4,2.5-5.3,3.9c-1.1,1.1-0.1,3.2,0.6,4.5c1,1.6,2.8,2.1,4.6,1.7c0.1,0,0.2-0.1,0.3-0.1
	c0.1,0,0,0.6-0.2,0.7c-1,0.6-2.2,1-3.4,1c-1.9,0.2-2.9-1.6-4.1-2.7c-0.4-0.4-0.3,0.5-0.4,1c-0.1,1.1-0.5,1.8-0.8,3.1
	c-0.2,1-2,2-2.2,1c-0.5-1.6,1.1-3.1,0.7-4.7c-0.2-0.7-1,1.7-1.4,1c-0.9-1.1,1.2-1.9,1.8-3.1c1-1.8,1.5-3.6,2.3-5.4
	c0.4-0.8,0.8-1.5,1-2.4c0.5-2,1.1-3.9,2-5.8c0.2-0.4,0.6-0.7,1-0.9c0.4-0.2,0.9-0.2,1.2-0.2l0.1,0.1c-1,2.5-1.8,5.1-2.8,7.5
	c-0.3,0.8-1.3,2.4-0.6,2.5c1,0.2,2.8-1.4,3.9-2.4c0.8-0.6,1.3-1,2.1-1.6c0.5-0.4,1.9-1.3,1.9-0.7C113.2,21.1,111.8,21.3,111.1,21.8z
	"/>
<path class="st0" d="M116.1,32.3c-0.4,0.5-1,0.9-1.4,1.1c-0.7,0.3-1.7,0.8-2.1,0.1c-0.7-1-1-2.3-0.9-3.5c0-0.4-0.1-0.8,0-1.1
	c0.4-1.2,0.7-1.6,1.5-2.8c0.9-1.2,2-2.3,3.1-3.2c0.1-0.1,0.3-0.2,0.5-0.2s0.3,0,0.5,0.1s0.3,0.2,0.4,0.3c0.1,0.1,0.1,0.3,0.2,0.5
	c0.1,2.7-2.1,4.6-3.8,6.1c-0.5,0.4-0.2,1.1-0.1,1.6c0.2,0.6,0.7,0.7,1.2,0.7c1.4,0,1.6-3.2,2.8-2.9
	C119.1,29.4,116.9,31.5,116.1,32.3z M115.6,25.2c-0.8-0.2-0.9,0.7-1,1.2c-0.2,0.5-0.9,1.9-0.2,1.9c1,0,1.1-1.5,1.4-2.5L115.6,25.2z"
	/>
<path class="st0" d="M121.1,21.1c0.4,0,0.8,0.2,1,0.4c0.3,0.3,0.4,0.6,0.4,1c0,0.3-0.1,0.6-0.2,0.8c-0.2,0.2-0.4,0.4-0.7,0.5
	c-0.3,0.1-0.6,0.1-0.8,0.1c-0.3-0.1-0.5-0.2-0.7-0.4c-0.2-0.2-0.3-0.5-0.4-0.7c-0.1-0.3,0-0.6,0.1-0.8c0.1-0.3,0.3-0.5,0.5-0.7
	C120.5,21.1,120.8,21.1,121.1,21.1z M121.1,21.3c-0.2,0-0.5,0.1-0.7,0.2s-0.4,0.3-0.5,0.5s-0.1,0.5-0.1,0.7s0.2,0.5,0.3,0.6
	c0.2,0.2,0.4,0.3,0.6,0.3c0.2,0,0.5,0,0.7-0.1s0.4-0.3,0.5-0.5s0.2-0.4,0.2-0.7c0-0.2,0-0.3-0.1-0.5c-0.1-0.2-0.1-0.3-0.3-0.4
	c-0.1-0.1-0.3-0.2-0.4-0.3C121.3,21.3,121.2,21.2,121.1,21.3L121.1,21.3z M120.4,23.1C120.4,23,120.4,23,120.4,23.1
	c0.1-0.1,0.1-0.1,0.2-0.2c0-0.2,0-0.6,0-0.8c0-0.1,0-0.1-0.1-0.1l0,0l0,0l0,0l0,0v-0.1l0,0c0.1,0,0.3,0,0.4,0s0.1,0,0.2,0
	c0.3,0,0.6,0.1,0.6,0.4c0,0.1,0,0.1-0.1,0.2c0,0.1-0.1,0.1-0.2,0.1c0.1,0.2,0.3,0.6,0.5,0.6v0.1c-0.1,0-0.2,0-0.3,0
	c-0.2-0.1-0.4-0.3-0.4-0.5c0-0.1-0.1-0.1-0.2-0.1V23c0,0.1,0,0.1,0.2,0.1c0,0,0,0,0,0.1v0.1h-0.6L120.4,23.1z M121.2,22.1
	L121.2,22.1c0-0.1,0-0.2-0.1-0.2c0,0-0.1,0-0.1-0.1H121h-0.1l0,0c0,0,0,0.2,0,0.3v0.2C121,22.3,121.1,22.3,121.2,22.1
	C121.2,22.2,121.2,22.1,121.2,22.1C121.2,22.2,121.2,22.2,121.2,22.1L121.2,22.1z"/>
</svg>
