<?xml version="1.0" encoding="utf-8"?>
<!-- Generator: Adobe Illustrator 27.1.1, SVG Export Plug-In . SVG Version: 6.00 Build 0)  -->
<svg version="1.1" id="Layer_1" xmlns="http://www.w3.org/2000/svg" xmlns:xlink="http://www.w3.org/1999/xlink" x="0px" y="0px"
	 viewBox="0 0 158 48" style="enable-background:new 0 0 158 48;" xml:space="preserve">
<style type="text/css">
	.st0{fill-rule:evenodd;clip-rule:evenodd;fill:#FFFFFF;}
</style>
<g>
	<path class="st0" d="M25,11c0.2,0.1,0.3,0.2,0.5,0.3l0.1,0.4V20l0.1,0.1h5.4l0.1-0.1v-8.4c0.1-0.2,0.2-0.5,0.5-0.6h8.1
		c0.2,0.1,0.4,0.2,0.5,0.5l0.1,23.2c-0.1,0.5,0.1,1.1-0.5,1.3l-0.7,0.1h-7.4c-0.2-0.1-0.5-0.2-0.6-0.5l-0.1-0.9v-7.6L31,27h-5.4
		l-0.1,0.1v8.5c0,0.2-0.2,0.3-0.4,0.4h-8.2c-0.2-0.1-0.4-0.3-0.6-0.5V11.3c0.2-0.2,0.4-0.4,0.6-0.4H25L25,11z M48.4,15.7
		c0.4,0.2,0.8,0.4,0.9,0.9l0.1,0.7v12c0.2,0.5,0.6,0.8,1,0.9c0.5,0,1,0.1,1.3-0.2c0.3-0.2,0.3-0.6,0.3-0.9v-2.9v-9.5
		c0.1-0.2,0.2-0.6,0.5-0.7l0.3-0.1c1.9-0.1,3.8,0,5.6,0c1.7,0.7,0.6,3.2,0.9,4.6l0.1,0.1c2.8-3.1,6.2-4.5,10.4-4.6
		c2.9-0.1,5.7,0.6,8.1,1.8c0.2,0.2,0.6,0.4,0.6,0.8c-0.1,0.5-0.3,0.8-0.6,1.2l-2.7,3.4c-0.3,0.3-0.9,0.4-1.3,0.2
		c-1.9-1.3-4.8-1.4-7-0.4c-1.2,0.7-2.1,2.1-1.7,3.6c0.3,1.5,1.9,2.8,3.4,3.2c0.4,0.1,0.9,0.2,1.3,0.2v-4c0-0.2,0.2-0.6,0.4-0.6
		c1.8,0,3.8-0.1,5.7-0.1c0.2-0.4,0.2-0.9,0.3-1.3c1.2-4.6,5.9-7.4,10.4-7.9c3.6-0.5,7,0.3,9.9,1.8c0.4,0.2,0.4,0.6,0.3,0.9
		c-0.8,1.5-1.9,2.6-2.9,4c-0.3,0.3-0.6,0.7-1.1,0.6c-0.7-0.2-1.3-0.7-2.1-0.9c-2.3-0.5-5.1-0.5-6.6,1.6c-0.5,0.8-0.8,2-0.3,2.9
		c0.7,1.8,2.5,2.9,4.5,2.8l0.1-0.1l0.1-4.1c0.1-0.2,0.2-0.4,0.5-0.4l0.6-0.1h5.8c0.4,0.1,0.9,0.2,1.1,0.7v5.8c0,0.9,0.2,1.9-0.2,2.7
		c-2.1,1.5-4.9,1.7-7.5,1.9c-2.7-0.2-5.2-0.7-7.4-2.1c-1.3-0.7-2.5-1.7-3.7-2.8l-0.1,0.1v2.5c-1,1.2-2.6,1.5-4.1,1.9
		c-2.5,0.5-5.5,0.5-7.8-0.3c-2.5-0.7-4.8-2.2-6.7-4.4c-0.3,0.5-0.6,1.1-0.9,1.6c-1,1.4-2.5,2.2-4,2.8c-3.6,1.3-7.7,0.6-10.5-1.8
		c-1.7-1.3-2.1-3.2-2.1-5.2v-11c0-0.6,0-1.3,0.6-1.6C44.2,15.6,46.3,15.7,48.4,15.7L48.4,15.7z M105.2,15.9c0.3,0.2,0.5,0.6,0.5,1.1
		v16.1c-0.1,1,0.5,2.6-0.7,3.1c-2.1,0.1-4.2,0-6.2,0c-0.4,0-0.7-0.3-0.8-0.6l-0.1-0.9v-18c0-0.4,0.3-0.7,0.7-0.8
		c2.2,0,4.3-0.1,6.4,0L105.2,15.9z M132.7,16.2c0.2,0,0.2,0.2,0.3,0.3c0,1.5-0.1,3-0.1,4.5c-0.1,0.2-0.2,0.5-0.5,0.5
		c-0.9,0.3-1.3-0.5-2.2-0.6c-0.8-0.2-2.1-0.3-2.7,0.2c-0.2,0.2-0.3,0.6-0.2,0.9c0.1,0.2,0.3,0.6,0.6,0.6c2.9,1.5,7.3,2.8,7.7,6.6
		c0.4,2.5-0.7,4.8-2.8,6c-2.8,1.4-7,1.2-9.9,0.2c-0.7-0.3-1.3-0.7-2.1-0.9c-0.6,0.5-1,1.1-1.5,1.6h-10.9c-0.6,0-1.3,0-1.6-0.6
		l-0.1-0.2l-0.1-6.5v-8.2v-4.4c0-0.2,0.2-0.2,0.3-0.3h13l0.3,0.1l1.8,1.6c1-0.8,2.2-1.5,3.6-1.7C128.1,15.5,130.8,15.4,132.7,16.2
		L132.7,16.2z M115.3,20.8c-0.2,0.1-0.5-0.1-0.6,0.1c0,0.7-0.1,1.5,0.1,2.2c1.3,0,2.7-0.1,4,0c0.5,0,0.9,0.2,1.1,0.7
		c0.1,1.3,0.1,2.6,0,4c-0.1,0.3-0.4,0.4-0.7,0.6h-4.3l-0.1,0.1v2.1c1.7,0,3.5,0.1,5.2,0c0.8-0.2,1.1-0.8,1.7-1.3
		c0.5-0.5,1.3-0.2,1.8,0.1c1.4,0.9,2.8,2,4.7,1.6c0.3-0.2,0.5-0.5,0.6-0.8c0.1-0.5-0.2-0.9-0.6-1.1c-1-0.5-2.2-0.7-3.2-1.3
		c-2.6-1.2-4.9-3.7-4.8-6.7l-0.1-0.1C118.5,21,116.9,20.7,115.3,20.8L115.3,20.8z M137.9,19.9c0,0.2,0,0.2,0.2,0.2h-0.8
		c0.1-0.1,0.2-0.1,0.2-0.2v-2.6c0-0.2,0-0.2-0.2-0.2h1.2c0.5,0,0.7,0,0.9,0.2c0.2,0.2,0.4,0.4,0.4,0.7c0,0.5-0.3,0.7-0.8,0.9
		l0.8,1.1c0.2,0.2,0.2,0.2,0.3,0.3h-0.7l-0.9-1.3h-0.6V19.9L137.9,19.9z M138.3,18.5c0.6,0,0.8-0.2,0.8-0.6s-0.3-0.6-0.8-0.6h-0.5
		v1.1H138.3L138.3,18.5z M141.3,18.6c0,1.6-1.3,2.8-2.8,2.8s-2.8-1.3-2.8-2.8s1.3-2.8,2.8-2.8C140.1,15.8,141.3,17,141.3,18.6
		L141.3,18.6z M136.1,18.6c0,1.4,1.1,2.5,2.5,2.5c1.3,0,2.5-1.1,2.5-2.5c0-1.3-1.1-2.5-2.5-2.5C137.1,16.1,136.1,17.3,136.1,18.6z"
		/>
</g>
</svg>
