<?xml version="1.0" encoding="utf-8"?>
<!-- Generator: Adobe Illustrator 27.1.1, SVG Export Plug-In . SVG Version: 6.00 Build 0)  -->
<svg version="1.1" id="Layer_1" xmlns="http://www.w3.org/2000/svg" xmlns:xlink="http://www.w3.org/1999/xlink" x="0px" y="0px"
	 viewBox="0 0 158 48" style="enable-background:new 0 0 158 48;" xml:space="preserve">
<style type="text/css">
	.st0{fill:#FFFFFF;}
</style>
<g>
	<path class="st0" d="M141.5,22.7v-2.2h-2.8v-3.4h-0.1l-2.5,0.8H136v2.6h-4v-1.4c0-0.6,0.2-1.2,0.5-1.5c0.3-0.3,0.7-0.5,1.3-0.5
		c0.4,0,0.8,0.1,1.2,0.2l0.1,0.1v-2.3h-0.1c-0.4-0.2-0.9-0.2-1.5-0.2c-0.8,0-1.5,0.2-2.1,0.6c-0.6,0.3-1.1,0.9-1.5,1.4
		c-0.3,0.6-0.6,1.3-0.6,2.1v1.6h-1.9v2.2h1.9v9.3h2.7v-9.3h4v5.9c0,2.5,1.1,3.6,3.4,3.6c0.4,0,0.8-0.1,1.2-0.2s0.7-0.2,0.9-0.2l0,0
		v-2.2l-0.1,0.1c-0.2,0.1-0.3,0.2-0.6,0.2c-0.2,0.1-0.4,0.1-0.6,0.1c-0.6,0-0.9-0.2-1.2-0.4c-0.2-0.3-0.4-0.8-0.4-1.5v-5.4H141.5
		L141.5,22.7z M121.3,30c-1,0-1.7-0.3-2.3-0.9c-0.6-0.6-0.9-1.6-0.9-2.8s0.3-2.1,0.9-2.8c0.6-0.6,1.3-1,2.3-1s1.7,0.3,2.2,0.9
		c0.6,0.6,0.8,1.6,0.8,2.8c0,1.3-0.2,2.2-0.8,2.8C123.1,29.7,122.3,30,121.3,30 M121.4,20.3c-1.9,0-3.4,0.6-4.4,1.7
		c-1.1,1.1-1.6,2.6-1.6,4.5c0,1.8,0.6,3.2,1.6,4.3c1,1,2.5,1.6,4.2,1.6c1.8,0,3.3-0.6,4.4-1.7c1.1-1.1,1.6-2.6,1.6-4.4
		c0-1.8-0.5-3.2-1.5-4.4C124.6,20.8,123.2,20.3,121.4,20.3 M111,20.3c-1.3,0-2.4,0.3-3.2,0.9s-1.3,1.5-1.3,2.5c0,0.6,0.1,1,0.2,1.4
		c0.2,0.4,0.5,0.8,0.8,1c0.4,0.3,0.9,0.6,1.7,0.9c0.6,0.2,1.1,0.5,1.3,0.6c0.3,0.2,0.5,0.3,0.6,0.5c0.1,0.2,0.2,0.4,0.2,0.6
		c0,0.8-0.6,1.1-1.7,1.1c-0.5,0-0.9-0.1-1.5-0.2s-1-0.5-1.5-0.8l-0.1-0.1v2.6h0.1c0.4,0.2,0.9,0.3,1.4,0.5c0.6,0.1,1.1,0.2,1.6,0.2
		c1.4,0,2.5-0.3,3.3-0.9c0.8-0.6,1.3-1.5,1.3-2.6c0-0.8-0.2-1.4-0.6-2c-0.5-0.6-1.2-1-2.3-1.4c-0.9-0.3-1.4-0.6-1.6-0.9
		c-0.2-0.2-0.3-0.5-0.3-0.9c0-0.3,0.2-0.6,0.4-0.8c0.3-0.2,0.6-0.3,1.2-0.3c0.5,0,0.9,0.1,1.3,0.2c0.5,0.2,0.9,0.3,1.2,0.6l0.1,0.1
		v-2.5h-0.1c-0.3-0.2-0.7-0.2-1.2-0.3C111.8,20.3,111.4,20.3,111,20.3 M99.4,30c-1,0-1.7-0.3-2.3-0.9c-0.6-0.6-0.9-1.6-0.9-2.8
		s0.3-2.1,0.9-2.8c0.6-0.6,1.3-1,2.3-1c0.9,0,1.7,0.3,2.2,0.9c0.6,0.6,0.8,1.6,0.8,2.8c0,1.3-0.2,2.2-0.8,2.8
		C101.2,29.7,100.4,30,99.4,30 M99.6,20.3c-1.9,0-3.4,0.6-4.4,1.7c-1.1,1.1-1.6,2.6-1.6,4.5c0,1.8,0.6,3.2,1.6,4.3
		c1,1,2.5,1.6,4.2,1.6c1.8,0,3.3-0.6,4.4-1.7c1.1-1.1,1.6-2.6,1.6-4.4c0-1.8-0.5-3.2-1.5-4.4C102.7,20.8,101.3,20.3,99.6,20.3
		 M89.4,22.5v-2h-2.7V32h2.7v-5.9c0-1,0.2-1.8,0.6-2.5c0.5-0.6,1-0.9,1.7-0.9c0.2,0,0.6,0.1,0.8,0.2c0.3,0.1,0.5,0.2,0.6,0.2
		l0.1,0.1v-2.7h-0.1c-0.2-0.1-0.6-0.2-1-0.2c-0.7,0-1.3,0.2-1.8,0.6C89.9,21.4,89.6,21.9,89.4,22.5L89.4,22.5z M81.8,20.3
		c-1.3,0-2.4,0.2-3.2,0.8c-0.9,0.6-1.7,1.3-2.1,2.2c-0.5,0.9-0.7,2.1-0.7,3.3c0,1.1,0.2,2.1,0.7,2.9c0.5,0.9,1.2,1.6,2,2.1
		c0.9,0.5,1.8,0.7,2.9,0.7c1.3,0,2.4-0.2,3.2-0.8l0,0v-2.5l-0.1,0.1c-0.4,0.3-0.9,0.6-1.3,0.7c-0.5,0.2-0.9,0.2-1.3,0.2
		c-1,0-1.9-0.3-2.5-0.9c-0.6-0.6-0.9-1.6-0.9-2.7c0-1.2,0.3-2.1,0.9-2.8c0.6-0.7,1.5-1,2.5-1c0.9,0,1.7,0.3,2.5,0.9l0.1,0.1v-2.8
		l0,0c-0.3-0.2-0.7-0.3-1.3-0.4C82.8,20.3,82.3,20.3,81.8,20.3 M73.8,20.5h-2.7V32h2.7V20.5L73.8,20.5z M72.4,15.6
		c-0.5,0-0.8,0.2-1.2,0.5c-0.3,0.3-0.5,0.7-0.5,1.1c0,0.5,0.2,0.8,0.5,1.1c0.3,0.3,0.7,0.5,1.2,0.5c0.5,0,0.9-0.2,1.2-0.5
		c0.3-0.3,0.5-0.6,0.5-1.1c0-0.4-0.2-0.8-0.5-1.1C73.3,15.8,72.9,15.6,72.4,15.6 M65.7,19.7V32h2.8V16h-3.8l-4.8,11.9L55.2,16h-4v16
		h2.6V19.7h0.1l5,12.3h1.9L65.7,19.7L65.7,19.7L65.7,19.7z"/>
	<path class="st0" d="M29.2,23.4H16.5V10.7h12.7V23.4z"/>
	<path class="st0" d="M43.2,23.4H30.5V10.7h12.7V23.4L43.2,23.4z"/>
	<path class="st0" d="M29.2,37.4H16.5V24.7h12.7V37.4z"/>
	<path class="st0" d="M43.2,37.4H30.5V24.7h12.7V37.4L43.2,37.4z"/>
</g>
</svg>
