<?xml version="1.0" encoding="utf-8"?>
<!-- Generator: Adobe Illustrator 27.1.1, SVG Export Plug-In . SVG Version: 6.00 Build 0)  -->
<svg version="1.1" id="Layer_1" xmlns="http://www.w3.org/2000/svg" xmlns:xlink="http://www.w3.org/1999/xlink" x="0px" y="0px"
	 viewBox="0 0 158 48" style="enable-background:new 0 0 158 48;" xml:space="preserve">
<style type="text/css">
	.st0{fill:#FFFFFF;}
</style>
<g>
	<polygon class="st0" points="115.6,26.9 115.6,25.4 114.9,25.4 114.9,25.2 116.6,25.2 116.6,25.4 115.9,25.4 115.9,26.9 	"/>
	<polygon class="st0" points="116.8,26.9 116.8,25.2 117.1,25.2 117.5,26.2 117.5,26.2 117.9,25.2 118.3,25.2 118.3,26.9 
		118.1,26.9 118.1,25.4 118.1,25.4 117.6,26.5 117.4,26.5 117,25.5 117,25.5 117,26.9 	"/>
	<g>
		<path class="st0" d="M79.2,9.5c0-0.4,0.4-0.6,0.7-0.5c1.4,0.2,2.9,0.4,4.4,0.6c1.4,0.2,2.7,1.2,3.3,2.5c0.6,1.2,0.6,2.6,0.1,3.8
			c-0.7,1.6-2.2,2.6-3.9,2.7c-0.8,0.1-1.6-0.2-2.3-0.2c-0.3,1.7-0.5,3.5-0.8,5.2c-0.1,0.3-0.3,0.5-0.6,0.4c-0.7-0.1-1.4-0.2-2.1-0.3
			c-0.2-0.1-0.4-0.1-0.6-0.2c-0.2-0.2-0.1-0.4-0.1-0.6C77.9,18.5,78.5,14,79.2,9.5 M82.4,12.8c-0.2,0.1-0.2,0.4-0.2,0.6
			c-0.1,0.4-0.1,0.9-0.2,1.4c-0.1,0.2,0.2,0.5,0.4,0.5c0.4,0.1,0.8,0.1,1.2,0.1c0.5,0,0.9-0.5,1-0.9c0.2-0.6-0.1-1.4-0.8-1.6
			C83.3,12.9,82.8,12.7,82.4,12.8"/>
		<path class="st0" d="M70.6,9.6c0.4-0.1,0.9,0,0.9,0.4c0.7,4.5,1.6,9.1,2.3,13.5c0.1,0.3-0.2,0.7-0.5,0.7c-0.7,0.1-1.6,0.3-2.3,0.4
			c-0.3,0.1-0.5-0.2-0.6-0.5c-0.8-4.6-1.6-9.1-2.3-13.5c-0.1-0.2,0.1-0.6,0.4-0.6C69.1,9.8,69.8,9.8,70.6,9.6"/>
		<path class="st0" d="M95.7,14.4c1.4-0.2,2.9,0,4.2,0.6c1.7,0.7,3.1,2,3.9,3.7c0.9,1.7,1.1,3.9,0.5,5.7c-0.7,2.5-2.8,4.6-5.3,5.3
			c-1.6,0.4-3.4,0.4-4.9-0.2c-1.5-0.6-2.8-1.6-3.7-2.9C89.2,25,88.8,23,89,21.1c0.2-1.7,1.1-3.3,2.3-4.5
			C92.5,15.3,94,14.6,95.7,14.4 M96.2,17.7c-1.9,0.3-3.5,2-3.7,3.9c-0.2,1.3,0.2,2.7,1.2,3.6c0.8,0.8,1.9,1.3,3.1,1.3
			c1.3,0,2.6-0.7,3.4-1.7c0.8-1,1.2-2.4,0.9-3.7c-0.2-1.2-1-2.4-2.1-3C98.2,17.7,97.1,17.5,96.2,17.7"/>
		<path class="st0" d="M55.1,14.9c0.2-0.1,0.6,0.1,0.7,0.3c1.6,3.1,3.2,6.1,4.7,9.2c0.1,0.2,0.2,0.6,0.6,0.4
			c1.4-0.7,2.9-1.5,4.4-2.2c0.3-0.2,0.6,0.1,0.7,0.3c0.3,0.6,0.6,1.2,0.9,1.9c0.1,0.2,0,0.6-0.3,0.7c-2.4,1.2-4.7,2.4-7.1,3.7
			c-0.2,0.2-0.7,0.1-0.8-0.2c-2.1-4.1-4.2-8.2-6.4-12.2c-0.1-0.2-0.1-0.6,0.2-0.7C53.7,15.6,54.4,15.2,55.1,14.9"/>
		<path class="st0" d="M46.3,23.5c1.3-0.2,2.7-0.1,4,0.4c1.7,0.6,3.1,1.9,4,3.4c0.9,1.5,1.2,3.3,0.9,5.1c-0.3,2-1.4,3.9-3.1,5.1
			c-2.3,1.7-5.6,2-8.1,0.7c-1.5-0.7-2.8-2.1-3.5-3.6c-0.7-1.6-1-3.4-0.6-5.1c0.4-1.9,1.6-3.7,3.2-4.8C44,24.1,45.1,23.7,46.3,23.5
			 M46.3,26.9c-0.7,0.2-1.5,0.6-2.1,1.2c-0.9,0.9-1.4,2.3-1.1,3.6c0.1,1,0.6,1.9,1.4,2.6c1.1,1,2.6,1.5,4,1.2
			c0.9-0.2,1.9-0.7,2.5-1.4c0.8-0.9,1.2-2.2,0.9-3.4c-0.2-1.2-0.9-2.2-1.8-2.9C49,26.9,47.6,26.5,46.3,26.9"/>
		<path class="st0" d="M111.8,25.6c0.2-0.2,0.6-0.2,0.8,0.1c0.6,0.9,1.2,1.7,1.8,2.7c0.4,0.7,1,1.3,1.2,2.1c0.4,1.2,0.2,2.6-0.4,3.7
			c-0.7,1.2-2.1,2.1-3.5,2.2c-1.6,0.1-3.3-0.7-4.2-2.1c-0.3-0.4-0.5-0.8-0.8-1.1c-1.4,0.9-2.9,1.9-4.3,2.9c-0.2,0.2-0.6,0.1-0.7-0.1
			c-0.4-0.6-0.7-1.1-1.1-1.6c-0.1-0.2-0.4-0.5-0.3-0.8c0.1-0.2,0.3-0.4,0.5-0.5C104.3,30.6,108.1,28.1,111.8,25.6 M111.1,30.2
			c-0.5,0.3-1,0.6-1.4,1c-0.2,0.2-0.1,0.5,0.1,0.7c0.3,0.4,0.5,1,1.1,1.1c0.7,0.2,1.6-0.5,1.7-1.2c0-0.6-0.4-0.9-0.7-1.4
			C111.7,30.2,111.3,30,111.1,30.2"/>
	</g>
</g>
</svg>
