<?xml version="1.0" encoding="utf-8"?>
<!-- Generator: Adobe Illustrator 27.1.1, SVG Export Plug-In . SVG Version: 6.00 Build 0)  -->
<svg version="1.1" id="Layer_1" xmlns="http://www.w3.org/2000/svg" xmlns:xlink="http://www.w3.org/1999/xlink" x="0px" y="0px"
	 viewBox="0 0 158 48" style="enable-background:new 0 0 158 48;" xml:space="preserve">
<style type="text/css">
	.st0{fill-rule:evenodd;clip-rule:evenodd;fill:#FFFFFF;}
</style>
<g>
	<g>
		<path class="st0" d="M24.4,24.8h-2.9V14.1h3c3,0,4.4,2.5,4.4,5.4C28.9,22.9,27.3,24.8,24.4,24.8z M25.4,12.4h-8.7v0.2
			c0.2,0.2,0.6,0.6,0.6,2.3v17.6c0,1.6-0.4,2-0.6,2.3v0.2H22v-0.2c-0.2-0.2-0.6-0.6-0.6-2.3v-5.7h3.7c5.5,0.1,8.2-3.9,8.2-7
			c0-4.6-3.9-7.3-8.1-7.2"/>
		<path class="st0" d="M68.1,12.4v16.2L57.6,12.4h-4.8v0.2c0.7,0.4,1.1,1.4,1.1,2.9v16.9c0,1.6-0.4,2-0.6,2.3v0.2h2.8V17.4L67,34.7
			h3.4v-20c0-1.6,0.4-2,0.6-2.3v-0.2L68.1,12.4L68.1,12.4z"/>
		<path class="st0" d="M122.5,12.4v16.2L112,12.4h-4.8v0.2c0.7,0.4,1.1,1.4,1.1,2.9v16.9c0,1.6-0.4,2-0.6,2.3v0.2h2.8V17.4
			l10.9,17.3h3.4v-20c0-1.6,0.4-2,0.6-2.3v-0.2L122.5,12.4L122.5,12.4z"/>
		<path class="st0" d="M105.2,31.9c-2.4,1.4-8.6,0.8-8.6,0.8v-8.5h3.3c1.4,0,2.5,0.1,2.9,0.4h0.2V22h-0.2c-0.4,0.3-1.5,0.4-2.9,0.4
			h-3.3v-8.2c0,0,5.7-0.5,8.6,0.8l0.1-0.1c-0.1-0.6-0.3-2.7-0.3-2.7H91.8v0.2c0.2,0.2,0.6,0.6,0.6,2.3v17.6c0,1.6-0.4,2-0.6,2.3v0.2
			h13.3l0.3-2.8L105.2,31.9z"/>
		<path class="st0" d="M141.5,31.9c-2.5,1.4-8.6,0.8-8.6,0.8v-8.5h3.3c1.4,0,2.5,0.1,2.9,0.4h0.2V22h-0.2c-0.4,0.3-1.5,0.4-2.9,0.4
			h-3.3v-8.2c0,0,5.7-0.5,8.6,0.8l0.1-0.1c-0.1-0.6-0.3-2.7-0.3-2.7h-13.2v0.2c0.2,0.2,0.6,0.6,0.6,2.3v17.6c0,1.6-0.4,2-0.6,2.3
			v0.2h13.3l0.3-2.8L141.5,31.9z"/>
		<path class="st0" d="M88.8,15.4L88.8,15.4l-0.2-3H73.2L73,15.3l0.1,0.1c2.3-1.2,5.8-1.2,5.8-1.2v18.1c0,1.6-0.4,2-0.6,2.3v0.2h5.4
			v-0.2C83.5,34.4,83,34,83,32.3V14.2C83,14.2,86.6,14.2,88.8,15.4z"/>
		<path class="st0" d="M37.9,24.8l2.9-8.8l3,8.8H37.9z M52,34.6c-0.5-0.3-1.1-1-1.6-2.6l-6.6-19.6h-5v0.2c0.3,0.3,0.7,0.8,0.4,1.7
			C39,15,33.2,32,33.2,32c-0.5,1.6-1.1,2.3-1.6,2.6v0.2h2.9l2.7-8h7.1l2.7,8H52C52,34.7,52,34.6,52,34.6z"/>
	</g>
</g>
</svg>
