<?xml version="1.0" encoding="utf-8"?>
<!-- Generator: Adobe Illustrator 27.1.1, SVG Export Plug-In . SVG Version: 6.00 Build 0)  -->
<svg version="1.1" id="Layer_1" xmlns="http://www.w3.org/2000/svg" xmlns:xlink="http://www.w3.org/1999/xlink" x="0px" y="0px"
	 viewBox="0 0 158 48" style="enable-background:new 0 0 158 48;" xml:space="preserve">
<style type="text/css">
	.st0{fill-rule:evenodd;clip-rule:evenodd;fill:#FFFFFF;}
</style>
<g>
	<g>
		<path class="st0" d="M13.8,25.1h-3.5V12.3h3.6c3.6,0,5.3,3,5.3,6.5C19.2,22.8,17.3,25.1,13.8,25.1z M15,10.2H4.6v0.2
			c0.2,0.2,0.7,0.7,0.7,2.7v21c0,1.9-0.5,2.4-0.7,2.7v0.2h6.4v-0.2c-0.2-0.2-0.7-0.7-0.7-2.7v-6.8h4.4c6.6,0.1,9.8-4.7,9.8-8.4
			c0-5.5-4.6-8.7-9.7-8.6"/>
		<path class="st0" d="M66,10.2v19.3L53.5,10.2h-5.7v0.2c0.8,0.5,1.3,1.7,1.3,3.4V34c0,1.9-0.5,2.4-0.7,2.7v0.2h3.3V16.2l13,20.6h4
			V13c0-1.9,0.5-2.4,0.7-2.7v-0.2H66z"/>
		<path class="st0" d="M130.8,10.2v19.3l-12.5-19.3h-5.7v0.2c0.8,0.5,1.3,1.7,1.3,3.4V34c0,1.9-0.5,2.4-0.7,2.7v0.2h3.3V16.2
			l13,20.6h4V13c0-1.9,0.5-2.4,0.7-2.7v-0.2H130.8z"/>
		<path class="st0" d="M110.2,33.5c-2.9,1.7-10.3,0.9-10.3,0.9V24.3h3.9c1.7,0,3,0.1,3.5,0.5h0.2v-3.1h-0.2
			c-0.5,0.4-1.8,0.5-3.5,0.5h-3.9v-9.8c0,0,6.8-0.6,10.2,1l0.1-0.1c-0.1-0.7-0.3-3.2-0.3-3.2H94.2v0.2c0.2,0.2,0.7,0.7,0.7,2.7v21
			c0,1.9-0.5,2.4-0.7,2.7v0.2h15.9l0.3-3.3L110.2,33.5z"/>
		<path class="st0" d="M153.5,33.5c-3,1.7-10.3,0.9-10.3,0.9V24.3h3.9c1.7,0,3,0.1,3.5,0.5h0.2v-3.1h-0.2c-0.5,0.4-1.8,0.5-3.5,0.5
			h-3.9v-9.8c0,0,6.8-0.6,10.2,1l0.1-0.1c-0.1-0.7-0.3-3.2-0.3-3.2h-15.7v0.2c0.2,0.2,0.7,0.7,0.7,2.7v21c0,1.9-0.5,2.4-0.7,2.7v0.2
			h15.9l0.3-3.3L153.5,33.5z"/>
		<path class="st0" d="M90.7,13.8l0.1-0.1l-0.3-3.5H72.1l-0.3,3.5l0.1,0.1c2.7-1.4,6.9-1.4,6.9-1.4V34c0,1.9-0.5,2.4-0.7,2.7v0.2
			h6.4v-0.2c-0.2-0.2-0.7-0.7-0.7-2.7V12.4C83.8,12.4,88,12.4,90.7,13.8z"/>
		<path class="st0" d="M29.9,25.1l3.5-10.5L37,25.1H29.9z M46.8,36.7c-0.6-0.4-1.3-1.2-1.9-3.1l-7.9-23.4h-6v0.2
			c0.4,0.3,0.8,1,0.5,2c-0.3,0.9-7.1,21.2-7.1,21.2c-0.6,1.9-1.3,2.7-1.9,3.1v0.2H26l3.2-9.6h8.5l3.2,9.6h5.9V36.7z"/>
	</g>
</g>
</svg>
