<?xml version="1.0" encoding="utf-8"?>
<!-- Generator: Adobe Illustrator 27.1.1, SVG Export Plug-In . SVG Version: 6.00 Build 0)  -->
<svg version="1.1" id="Layer_1" xmlns="http://www.w3.org/2000/svg" xmlns:xlink="http://www.w3.org/1999/xlink" x="0px" y="0px"
	 viewBox="0 0 158 48" style="enable-background:new 0 0 158 48;" xml:space="preserve">
<style type="text/css">
	.st0{fill:#FFFFFF;}
</style>
<g>
	<g>
		<g>
			<path class="st0" d="M104.4,25.1c0.1,0,0.2,0,0.3,0c0.8-0.3,1.6-0.6,2.3-0.8c2.2-0.8,4.2-2,6-3.6c0.5-0.5,1-0.9,1.4-1.5
				c0.2-0.4,0.4-0.6,0.5-1.1c0.1-0.6-0.1-1.2-0.6-1.5c-0.4-0.2-0.8-0.3-1.3-0.1c-0.8,0.3-1.6,0.6-2.3,1.1c-1.8,1.2-3.4,2.8-4.7,4.5
				c-0.6,0.8-1.1,1.7-1.4,2.8C104.4,24.9,104.4,25,104.4,25.1z M71,16.9c-0.2,0-0.3,0.1-0.4,0.1c-1.8,0.5-3.6,1.3-5.1,2.4
				c-1.5,1-2.8,2.2-4,3.7c-0.5,0.6-0.8,1.2-1.2,1.8c-0.4,0.7-0.6,1.6-0.6,2.5c0,0.6,0.2,1.1,0.5,1.6c0.5,0.7,1.5,1.1,2.3,0.8
				c0.5-0.2,0.9-0.4,1.2-0.7c0.3-0.3,0.6-0.6,0.8-1c0.6-0.7,1-1.5,1.5-2.3c1.7-2.8,3.3-5.6,4.9-8.4C70.9,17,71,17,71,16.9z
				 M77.9,45.5c-0.2,0-0.3-0.1-0.5-0.1c-0.1,0-0.3-0.1-0.4-0.1c-0.6-0.2-1-0.6-1-1.4c0-0.4,0.1-0.8,0.2-1.2c0.3-0.6,0.6-1.4,0.7-2
				c0.8-2.3,1.8-4.6,2.8-6.9c0.4-0.8,0.7-1.7,1.1-2.6c0-0.1,0.1-0.2,0.1-0.3c-0.1,0.1-0.2,0.1-0.2,0.2c-0.7,0.5-1.4,0.9-2.2,1.3
				c-0.6,0.3-1.3,0.5-1.9,0.5c-1.1,0-2.1-0.5-2.8-1.4c-0.3-0.4-0.5-0.7-0.6-1.1c-0.1,0.1-0.1,0.1-0.2,0.2c-1.2,1.1-2.5,1.8-4,2.1
				c-0.6,0.1-1,0.2-1.6,0.1c-0.8-0.1-1.6-0.4-2.1-1c-0.2-0.3-0.4-0.6-0.6-0.8c-0.1,0-0.2,0.1-0.2,0.1c-0.6,0.5-1.4,0.8-2.1,1.2
				c-0.8,0.4-1.7,0.6-2.7,0.6c-0.7,0-1.5-0.3-2-0.6c-0.8-0.6-1.5-1.4-1.8-2.3c0-0.1-0.1-0.2-0.1-0.3c-0.1,0.1-0.2,0.1-0.2,0.2
				c-0.8,0.8-1.7,1.7-2.7,2.2s-2.1,0.9-3.4,0.8c-0.8-0.1-1.6-0.4-2.2-1c-0.6-0.6-0.9-1.5-0.8-2.4c0.2-1.1,0.5-2.1,0.9-3.1
				c0.7-1.7,1.7-3.5,2.6-5.1c2.6-4.4,5.4-8.6,8.4-12.8c0.7-1,1.5-2.1,2.2-3.1C61,5,61.2,4.8,61.4,4.6c0.2-0.2,0.6-0.3,1.1-0.3
				s0.9,0,1.5,0c0.4,0,0.6,0.1,1,0.2c0.3,0.1,0.4,0.3,0.3,0.6c0,0.1-0.1,0.2-0.2,0.3c-1.6,2.2-3.1,4.4-4.7,6.7
				c-2.6,3.8-5,7.5-7.2,11.5c-0.6,1.1-1.3,2.2-1.7,3.4c-0.4,0.8-0.6,1.7-0.6,2.5c0,0.3,0,0.6,0.2,0.8c0.2,0.4,0.6,0.6,1.2,0.5
				c0.8-0.2,1.5-0.6,2.1-1.2c0.6-0.6,1.1-1.2,1.5-1.9c0-0.1,0.1-0.2,0.1-0.2c0.1-1.2,0.6-2.2,1.1-3.3c2.8-5.3,7.2-8.6,12.9-10
				c1-0.3,2-0.4,3.1-0.5c0.4,0,0.6,0.1,0.9,0.4c0.2,0.2,0.4,0.5,0.5,0.7c0.1,0.2,0.2,0.5,0.2,0.7c0.1,0.3,0,0.6-0.3,0.6
				c-0.2,0.1-0.4,0.1-0.6,0.2c-0.5,0.1-0.9,0.1-1.3,0.2c-0.3,0-0.5,0.1-0.6,0.3c0.1,0,0.1,0,0.2,0c0.6-0.1,1.4,0.1,2,0.2
				c0.5,0.1,0.6,0.5,0.4,0.8c-1,2-2.1,4.1-3.1,6.2c-0.7,1.6-1.6,3-2.3,4.6c-0.2,0.4-0.2,0.7,0,1.2c0.3,0.5,0.6,0.7,1.2,0.8
				c1.3,0.2,2.5-0.6,3-1.4c0-0.1,0.1-0.1,0.1-0.2c0.1-1,0.5-2,0.8-3c0.9-2.2,2-4.4,3.2-6.5c0.9-1.7,1.9-3.2,3-4.8
				c0.6-0.8,1.3-1.1,2.2-0.9c0.5,0.1,0.8,0.3,1.2,0.5c0.5,0.3,0.6,0.9,0.3,1.4c-2.1,2.9-3.9,6.1-5.6,9.3c-0.6,1.1-1.1,2.3-1.4,3.5
				c-0.2,0.7,0.2,1.3,0.9,1.5c0.6,0.1,1,0,1.5-0.2c0.6-0.3,1.3-0.6,1.8-1.1c0.7-0.6,1.3-1.4,1.8-2.2c1-1.5,1.9-3,2.8-4.6
				c1.7-2.8,3.2-5.6,4.8-8.4c0.4-0.6,0.8-0.8,1.5-0.8c0.4,0,0.7,0,1.1,0.1c0,0,0-0.1,0.1-0.2c0.3-0.7,0.7-1.2,1.5-1.4
				c2.2-0.6,4.5-1,6.7-1.4c0.2,0,0.4-0.1,0.5-0.3c0.4-0.5,0.7-0.9,1.1-1.4c0.4-0.5,0.7-0.9,1.1-1.4c0.4-0.4,0.8-0.6,1.3-0.6
				c0.7-0.1,1.6,0,2.3,0.2c0.1,0,0.1,0,0.2,0c0.3,0.1,0.5,0.4,0.3,0.6c-0.1,0.3-0.3,0.5-0.5,0.6c-0.3,0.4-0.5,0.6-0.7,1
				c-0.1,0.1-0.1,0.2-0.2,0.3c0.1,0,0.2,0,0.2,0c0.9-0.1,1.8-0.2,2.7-0.3c1.6-0.2,3.1-0.5,4.7-0.6c0.9-0.1,1.8-0.2,2.8-0.2h0.1
				c0.2,0,0.3,0.1,0.4,0.2c0.1,0.2,0,0.3-0.1,0.5c-0.2,0.2-0.4,0.4-0.6,0.5c-0.4,0.1-0.7,0.3-1.1,0.4c-1.1,0.2-2.2,0.4-3.2,0.6
				c-2,0.5-4.1,0.9-6.1,1.4c-0.5,0.1-0.9,0.2-1.3,0.3c-0.2,0-0.3,0.1-0.3,0.2c-1.5,2-2.8,4-4.2,6.1c-1.7,2.5-3.1,5-4.5,7.5
				c-0.5,0.8-0.8,1.7-1.1,2.6c-0.2,0.5-0.3,1-0.3,1.6c0,0.3,0,0.6,0.2,0.8c0.2,0.4,0.5,0.6,0.9,0.6c0.5,0,0.8-0.1,1.2-0.4
				c1-0.6,1.8-1.4,2.5-2.4c0.3-0.4,0.6-0.8,0.7-1.2c0.2-0.3,0.3-0.6,0.3-0.9c0.1-0.9,0.5-1.7,0.8-2.7c0.8-1.7,2-3.3,3.4-4.7
				c1.7-1.7,3.6-3,5.7-3.9c1.1-0.6,2.3-0.9,3.5-1c0.6-0.1,1.2-0.1,1.8,0c1,0.2,1.7,0.7,2.2,1.6c0.5,0.6,0.6,1.4,0.6,2.2
				c0,0.6-0.2,1.2-0.4,1.7c-0.3,0.6-0.6,1.2-1.1,1.7c-1,1.3-2.2,2.3-3.6,3.1c-1.5,0.9-3.1,1.7-4.7,2.3c-1.2,0.5-2.5,0.8-3.8,1.3
				c-0.1,0-0.1,0-0.2,0.1c0,0.1,0.1,0.2,0.1,0.3c0.5,0.8,1.1,1.5,2,1.8s1.8,0.5,2.8,0.2c1.5-0.4,2.9-1,4.3-1.7
				c1.7-0.8,3.2-1.8,4.7-2.8c1.6-1.1,3.1-2.1,4.7-3.2c0.1,0,0.1-0.1,0.2-0.2c0-0.1-0.1-0.2-0.1-0.3c-1.1-1.9-2.2-3.8-3.3-5.7
				c-0.1-0.1-0.2-0.3-0.2-0.4c-0.1-0.2-0.2-0.5-0.3-0.7c-0.1-0.4,0-0.6,0.3-0.9c0.5-0.5,1-0.7,1.7-0.8c0.1,0,0.3,0,0.4,0
				c0.3,0,0.5,0.1,0.6,0.3s0.3,0.4,0.5,0.6c0.1,0.2,0.2,0.4,0.3,0.6c0.6,1.7,1.5,3.5,2.4,5.1c0.1,0.1,0.1,0.3,0.2,0.4
				c0.1,0.1,0.1,0.1,0.2,0.1c0,0,0.1,0,0.1-0.1c2.6-1.9,5.1-3.9,7.6-6.1c0.2-0.2,0.4-0.4,0.6-0.5c0.7-0.6,1.6-0.9,2.5-0.8
				c0.3,0,0.6,0,0.8,0c0.6,0,1.2,0.1,1.7,0.5v0.4c-0.1,0.5-0.5,0.7-0.7,1c-0.1,0.1-0.1,0.1-0.2,0.2c-3.4,2.8-7,5.6-10.5,8.1
				c-0.1,0.1-0.2,0.1-0.3,0.2c0.1,0.1,0.1,0.2,0.1,0.3c1.7,3.2,3.7,6.3,5.7,9.4c0.7,1.1,1.6,2.2,2.4,3.2c0.3,0.3,0.6,0.6,0.9,0.7
				c0.3,0.1,0.5,0.3,0.6,0.6c0.2,0.5,0.2,0.8-0.1,1.3c-0.2,0.4-0.5,0.6-0.8,0.7c-0.4,0.2-0.8,0.3-1.3,0.4c-0.3,0-0.6,0-0.8,0
				c-0.7,0-1.3-0.5-1.7-0.9c-0.4-0.4-0.6-0.8-0.8-1.3c-0.2-0.5-0.4-0.9-0.6-1.3c-1.7-3.8-3.7-7.4-5.8-11c-0.1-0.1-0.1-0.2-0.2-0.3
				c-0.1,0.1-0.2,0.1-0.3,0.2c-1.1,0.6-2.1,1.4-3.2,2c-2.3,1.5-4.6,2.8-7,4c-2.1,1.1-4.3,1.8-6.7,2c-1.5,0.1-2.8-0.1-4.1-0.7
				c-1.5-0.7-2.7-1.7-3.2-3.3c0,0,0-0.1-0.1-0.1c-0.1,0.1-0.2,0.2-0.2,0.2c-0.3,0.4-0.6,0.7-0.9,1.1c-0.7,0.8-1.6,1.7-2.6,2.1
				c-1,0.5-2.1,0.7-3.2,0.7c-0.8-0.1-1.6-0.4-2.2-0.9c-0.6-0.6-0.9-1.2-0.9-2c0-0.6,0.1-1.1,0.2-1.7c0.4-1.2,0.8-2.4,1.3-3.5
				c0.6-1.3,1.3-2.6,2-3.8c1.2-2,2.5-3.9,3.7-6c0.5-0.7,1-1.5,1.6-2.3c0-0.1,0.1-0.2,0.2-0.3c-0.1,0-0.1,0-0.2,0c-1,0.3-2,0.5-3,0.7
				c-0.7,0.2-1.4,0.5-2.1,0.6c-0.1,0-0.2,0.1-0.3,0.3c-0.2,0.4-0.4,0.7-0.6,1.1c-0.2,0.4-0.5,0.6-0.6,1C91,19,89.5,21.4,88,24
				c-1.9,3.5-3.6,7-5,10.7c-0.9,2.7-1.7,5.3-2.2,8.1c-0.1,0.3-0.1,0.6,0.1,0.8c0,0.1,0,0.2,0.1,0.2c0.1,0.5,0,0.8-0.4,1.1
				s-0.8,0.5-1.3,0.6c-0.3,0-0.5,0.1-0.7,0.1L77.9,45.5L77.9,45.5z"/>
		</g>
		<g>
			<path class="st0" d="M43.3,2.5c0.1,0,0.3,0,0.4,0.1c1.6,0.1,3.1,0.3,4.6,0.8c1.2,0.4,2.2,0.9,3.2,1.7c1.2,0.8,1.8,2,2.1,3.4
				c0.4,1.7,0.2,3.2-0.5,4.8c-1.4,3.3-3.5,6-6.5,7.9c-2.3,1.6-4.9,2.7-7.5,3.4c-1.9,0.6-3.9,0.9-5.9,1c-0.6,0-1.3,0-2,0
				c-0.2,0-0.4,0-0.5-0.1c-0.6-0.1-1.1-0.5-1.5-1.1c-0.4-0.7-0.5-1.6-0.3-2.4c0-0.1,0.1-0.2,0.2-0.3c0.2-0.3,0.5-0.4,0.7-0.3
				c1.1,0.3,2.1,0.4,3.2,0.4c1.7,0,3.3-0.3,5-0.7c2.1-0.6,4.1-1.5,6-2.8c1.9-1.4,3.6-3,4.8-5c0.6-1,0.8-2.1,0.7-3.3S48.9,7.6,48,6.7
				s-2-1.6-3.2-1.8c-1.5-0.4-3-0.6-4.6-0.5c-1.6,0.1-3.1,0.5-4.7,0.9c-0.1,0-0.1,0-0.2,0.1c0.1,0,0.1,0,0.2,0c0.5,0,0.9,0,1.4,0.1
				c0.1,0,0.3,0.1,0.4,0.1c0.4,0.4,0.5,0.7,0.4,1c0,0,0,0.1-0.1,0.1c-3.9,5.4-7.2,11.2-10.1,17.1c-1.9,4.1-3.8,8.3-5.1,12.6
				c-0.3,0.7-0.5,1.4-0.6,2.1c-0.1,0.2-0.1,0.4-0.1,0.5c0,0.2,0,0.4,0.1,0.6c0.1,0.2,0.1,0.4,0.2,0.6c0.1,0.4,0,0.6-0.4,0.9
				c-0.6,0.4-1.1,0.6-1.7,0.7c-0.6,0.1-1.4,0.1-2-0.1c-0.6-0.1-1-0.6-1.1-1.1c-0.1-0.3,0-0.6,0.1-0.9c0.7-2.2,1.6-4.5,2.4-6.7
				c2-5.1,4.3-10.1,7-14.9c1.8-3.3,3.9-6.6,6.1-9.6c0.6-0.6,1.1-1.4,1.7-2c0,0,0.1-0.1,0.1-0.2C33.9,6,33.8,6,33.7,6.1
				c-0.4,0.1-0.7,0.3-1,0.4c-2.6,1-5,2.3-7.2,3.9c-0.3,0.2-0.5,0.4-0.6,0.6c-0.2,0.3-0.3,0.5-0.5,0.7c-0.3,0.5-0.6,0.8-1,1.1
				c-1.2,0.7-2.3,1.1-3.5,1.1c-0.6,0-1-0.2-1.5-0.6c-0.4-0.4-0.5-0.7-0.2-1.2c0.2-0.4,0.5-0.7,0.7-1.1c0.7-0.6,1.4-1.2,2-1.7
				c1.8-1.3,3.8-2.4,5.9-3.2c2.9-1.3,6.1-2.3,9.3-2.9c1.6-0.3,3.1-0.6,4.7-0.6c0.2,0,0.5,0,0.6-0.1H43.3L43.3,2.5z"/>
		</g>
		<g>
			<path class="st0" d="M138.2,22.3h0.9c0.3,0,0.4,0.1,0.6,0.2c0.1,0.1,0.2,0.3,0.2,0.5c0,0.2-0.1,0.4-0.2,0.5
				c-0.1,0.1-0.3,0.2-0.6,0.2h-0.9V22.3z M138.2,25.1v-1.2h0.9c0.4,0,0.6-0.1,0.7-0.3c0.2-0.2,0.3-0.4,0.3-0.6c0-0.2,0-0.4-0.1-0.5
				c-0.1-0.1-0.2-0.2-0.4-0.3c-0.2-0.1-0.4-0.1-0.6-0.1H138v2.9L138.2,25.1L138.2,25.1z M137.7,25.7c-0.4-0.2-0.6-0.5-0.8-0.8
				c-0.2-0.4-0.3-0.7-0.3-1.2s0.1-0.8,0.3-1.2c0.2-0.4,0.5-0.6,0.8-0.8c0.4-0.2,0.7-0.3,1.2-0.3c0.5,0,0.9,0.1,1.2,0.3
				c0.3,0.2,0.6,0.5,0.8,0.8s0.3,0.7,0.3,1.2s-0.1,0.8-0.3,1.2s-0.5,0.6-0.8,0.8c-0.4,0.2-0.7,0.3-1.2,0.3
				C138.5,26,138.1,25.9,137.7,25.7z M140.3,25.1l-0.9-1.4l-0.3,0.1l0.8,1.3H140.3z M140.3,25.9c0.4-0.3,0.7-0.6,0.9-1
				c0.2-0.5,0.4-0.9,0.4-1.4c0-0.6-0.1-1-0.4-1.4c-0.2-0.4-0.6-0.7-0.9-1c-0.4-0.3-0.9-0.4-1.4-0.4s-1,0.1-1.5,0.4
				c-0.4,0.3-0.7,0.6-0.9,1c-0.2,0.4-0.4,0.9-0.4,1.4c0,0.6,0.1,1,0.4,1.4c0.2,0.4,0.6,0.7,0.9,1c0.4,0.3,0.9,0.4,1.5,0.4
				S140,26.2,140.3,25.9z"/>
		</g>
	</g>
</g>
</svg>
