<?xml version="1.0" encoding="utf-8"?>
<!-- Generator: Adobe Illustrator 27.1.1, SVG Export Plug-In . SVG Version: 6.00 Build 0)  -->
<svg version="1.1" id="Layer_1" xmlns="http://www.w3.org/2000/svg" xmlns:xlink="http://www.w3.org/1999/xlink" x="0px" y="0px"
	 viewBox="0 0 158 48" style="enable-background:new 0 0 158 48;" xml:space="preserve">
<style type="text/css">
	.st0{fill:#FFFFFF;}
</style>
<g>
	<g>
		<g>
			<path class="st0" d="M102.6,25c0.1,0,0.2,0,0.3,0c0.7-0.3,1.5-0.6,2.1-0.7c2-0.7,3.9-1.9,5.6-3.3c0.5-0.5,0.9-0.8,1.3-1.4
				c0.2-0.4,0.4-0.6,0.5-1c0.1-0.6-0.1-1.1-0.6-1.4c-0.4-0.2-0.7-0.3-1.2-0.1c-0.7,0.3-1.5,0.6-2.1,1c-1.7,1.1-3.2,2.6-4.4,4.2
				c-0.6,0.7-1,1.6-1.3,2.6C102.6,24.8,102.6,24.9,102.6,25z M71.6,17.4c-0.2,0-0.3,0.1-0.4,0.1c-1.7,0.5-3.3,1.2-4.7,2.2
				c-1.4,0.9-2.6,2-3.7,3.4c-0.5,0.6-0.7,1.1-1.1,1.7c-0.4,0.6-0.6,1.5-0.6,2.3c0,0.6,0.2,1,0.5,1.5c0.5,0.6,1.4,1,2.1,0.7
				c0.5-0.2,0.8-0.4,1.1-0.6c0.3-0.3,0.6-0.6,0.7-0.9c0.6-0.6,0.9-1.4,1.4-2.1c1.6-2.6,3.1-5.2,4.5-7.8
				C71.5,17.5,71.6,17.5,71.6,17.4z M78,44c-0.2,0-0.3-0.1-0.5-0.1c-0.1,0-0.3-0.1-0.4-0.1c-0.6-0.2-0.9-0.6-0.9-1.3
				c0-0.4,0.1-0.7,0.2-1.1c0.3-0.6,0.6-1.3,0.6-1.9c0.7-2.1,1.7-4.3,2.6-6.4c0.4-0.7,0.6-1.6,1-2.4c0-0.1,0.1-0.2,0.1-0.3
				c-0.1,0.1-0.2,0.1-0.2,0.2c-0.6,0.5-1.3,0.8-2,1.2c-0.6,0.3-1.2,0.5-1.8,0.5c-1,0-1.9-0.5-2.6-1.3c-0.3-0.4-0.5-0.6-0.6-1
				c-0.1,0.1-0.1,0.1-0.2,0.2c-1.1,1-2.3,1.7-3.7,1.9c-0.6,0.1-0.9,0.2-1.5,0.1c-0.7-0.1-1.5-0.4-1.9-0.9c-0.2-0.3-0.4-0.6-0.6-0.7
				c-0.1,0-0.2,0.1-0.2,0.1c-0.6,0.5-1.3,0.7-1.9,1.1c-0.7,0.4-1.6,0.6-2.5,0.6c-0.6,0-1.4-0.3-1.9-0.6c-0.7-0.6-1.4-1.3-1.7-2.1
				c0-0.1-0.1-0.2-0.1-0.3c-0.1,0.1-0.2,0.1-0.2,0.2c-0.7,0.7-1.6,1.6-2.5,2s-1.9,0.8-3.2,0.7c-0.7-0.1-1.5-0.4-2-0.9
				c-0.6-0.6-0.8-1.4-0.7-2.2c0.2-1,0.5-1.9,0.8-2.9c0.6-1.6,1.6-3.2,2.4-4.7c2.4-4.1,5-8,7.8-11.9c0.6-0.9,1.4-1.9,2-2.9
				c0.4-0.4,0.6-0.6,0.7-0.7c0.2-0.2,0.6-0.3,1-0.3s0.8,0,1.4,0c0.4,0,0.6,0.1,0.9,0.2c0.3,0.1,0.4,0.3,0.3,0.6
				c0,0.1-0.1,0.2-0.2,0.3c-1.5,2-2.9,4.1-4.4,6.2c-2.4,3.5-4.6,7-6.7,10.7c-0.6,1-1.2,2-1.6,3.2c-0.4,0.7-0.6,1.6-0.6,2.3
				c0,0.3,0,0.6,0.2,0.7c0.2,0.4,0.6,0.6,1.1,0.5c0.7-0.2,1.4-0.6,1.9-1.1s1-1.1,1.4-1.8c0-0.1,0.1-0.2,0.1-0.2c0.1-1.1,0.6-2,1-3.1
				c2.6-4.9,6.7-8,12-9.3c0.9-0.3,1.9-0.4,2.9-0.5c0.4,0,0.6,0.1,0.8,0.4c0.2,0.2,0.4,0.5,0.5,0.6c0.1,0.2,0.2,0.5,0.2,0.6
				c0.1,0.3,0,0.6-0.3,0.6c-0.2,0.1-0.4,0.1-0.6,0.2C73.7,17,73.4,17,73,17c-0.3,0-0.5,0.1-0.6,0.3c0.1,0,0.1,0,0.2,0
				c0.6-0.1,1.3,0.1,1.9,0.2c0.5,0.1,0.6,0.5,0.4,0.7c-0.9,1.9-1.9,3.8-2.9,5.8c-0.6,1.5-1.5,2.8-2.1,4.3c-0.2,0.4-0.2,0.6,0,1.1
				c0.3,0.5,0.6,0.6,1.1,0.7c1.2,0.2,2.3-0.6,2.8-1.3c0-0.1,0.1-0.1,0.1-0.2c0.1-0.9,0.5-1.9,0.7-2.8c0.8-2,1.9-4.1,3-6
				c0.8-1.6,1.8-3,2.8-4.5c0.6-0.7,1.2-1,2-0.8c0.5,0.1,0.7,0.3,1.1,0.5c0.5,0.3,0.6,0.8,0.3,1.3c-1.9,2.7-3.6,5.7-5.2,8.6
				c-0.6,1-1,2.1-1.3,3.2c-0.2,0.6,0.2,1.2,0.8,1.4c0.6,0.1,0.9,0,1.4-0.2c0.6-0.3,1.2-0.6,1.7-1c0.6-0.6,1.2-1.3,1.7-2
				c0.9-1.4,1.8-2.8,2.6-4.3c1.6-2.6,3-5.2,4.5-7.8c0.4-0.6,0.7-0.7,1.4-0.7c0.4,0,0.6,0,1,0.1c0,0,0-0.1,0.1-0.2
				c0.3-0.6,0.6-1.1,1.4-1.3c2-0.6,4.2-0.9,6.2-1.3c0.2,0,0.4-0.1,0.5-0.3c0.4-0.5,0.6-0.8,1-1.3c0.4-0.5,0.6-0.8,1-1.3
				c0.4-0.4,0.7-0.6,1.2-0.6c0.6-0.1,1.5,0,2.1,0.2c0.1,0,0.1,0,0.2,0c0.3,0.1,0.5,0.4,0.3,0.6c-0.1,0.3-0.3,0.5-0.5,0.6
				c-0.3,0.4-0.5,0.6-0.6,0.9c-0.1,0.1-0.1,0.2-0.2,0.3c0.1,0,0.2,0,0.2,0c0.8-0.1,1.7-0.2,2.5-0.3c1.5-0.2,2.9-0.5,4.4-0.6
				c0.8-0.1,1.7-0.2,2.6-0.2h0.1c0.2,0,0.3,0.1,0.4,0.2c0.1,0.2,0,0.3-0.1,0.5c-0.2,0.2-0.4,0.4-0.6,0.5c-0.4,0.1-0.6,0.3-1,0.4
				c-1,0.2-2,0.4-3,0.6c-1.9,0.5-3.8,0.8-5.7,1.3c-0.5,0.1-0.8,0.2-1.2,0.3c-0.2,0-0.3,0.1-0.3,0.2c-1.4,1.9-2.6,3.7-3.9,5.7
				c-1.6,2.3-2.9,4.6-4.2,7c-0.5,0.7-0.7,1.6-1,2.4C94,28.2,94,28.6,94,29.2c0,0.3,0,0.6,0.2,0.7c0.2,0.4,0.5,0.6,0.8,0.6
				c0.5,0,0.7-0.1,1.1-0.4c0.9-0.6,1.7-1.3,2.3-2.2c0.3-0.4,0.6-0.7,0.6-1.1c0.2-0.3,0.3-0.6,0.3-0.8c0.1-0.8,0.5-1.6,0.7-2.5
				c0.7-1.6,1.9-3.1,3.2-4.4c1.6-1.6,3.3-2.8,5.3-3.6c1-0.6,2.1-0.8,3.2-0.9c0.6-0.1,1.1-0.1,1.7,0c0.9,0.2,1.6,0.6,2,1.5
				c0.5,0.6,0.6,1.3,0.6,2c0,0.6-0.2,1.1-0.4,1.6c-0.3,0.6-0.6,1.1-1,1.6c-0.9,1.2-2,2.1-3.3,2.9c-1.4,0.8-2.9,1.6-4.4,2.1
				c-1.1,0.5-2.3,0.7-3.5,1.2c-0.1,0-0.1,0-0.2,0.1c0,0.1,0.1,0.2,0.1,0.3c0.5,0.7,1,1.4,1.9,1.7s1.7,0.5,2.6,0.2
				c1.4-0.4,2.7-0.9,4-1.6c1.6-0.7,3-1.7,4.4-2.6c1.5-1,2.9-1.9,4.4-3c0.1,0,0.1-0.1,0.2-0.2c0-0.1-0.1-0.2-0.1-0.3
				c-1-1.8-2-3.5-3.1-5.3c-0.1-0.1-0.2-0.3-0.2-0.4c-0.1-0.2-0.2-0.5-0.3-0.6c-0.1-0.4,0-0.6,0.3-0.8c0.5-0.5,0.9-0.6,1.6-0.7
				c0.1,0,0.3,0,0.4,0c0.3,0,0.5,0.1,0.6,0.3c0.1,0.2,0.3,0.4,0.5,0.6c0.1,0.2,0.2,0.4,0.3,0.6c0.6,1.6,1.4,3.2,2.2,4.7
				c0.1,0.1,0.1,0.3,0.2,0.4c0.1,0.1,0.1,0.1,0.2,0.1c0,0,0.1,0,0.1-0.1c2.4-1.8,4.7-3.6,7.1-5.7c0.2-0.2,0.4-0.4,0.6-0.5
				c0.6-0.6,1.5-0.8,2.3-0.7c0.3,0,0.6,0,0.7,0c0.6,0,1.1,0.1,1.6,0.5v0.4c-0.1,0.5-0.5,0.6-0.6,0.9c-0.1,0.1-0.1,0.1-0.2,0.2
				c-3.2,2.6-6.5,5.2-9.7,7.5c-0.1,0.1-0.2,0.1-0.3,0.2c0.1,0.1,0.1,0.2,0.1,0.3c1.6,3,3.4,5.8,5.3,8.7c0.6,1,1.5,2,2.2,3
				c0.3,0.3,0.6,0.6,0.8,0.6c0.3,0.1,0.5,0.3,0.6,0.6c0.2,0.5,0.2,0.7-0.1,1.2c-0.2,0.4-0.5,0.6-0.7,0.6c-0.4,0.2-0.7,0.3-1.2,0.4
				c-0.3,0-0.6,0-0.7,0c-0.6,0-1.2-0.5-1.6-0.8c-0.4-0.4-0.6-0.7-0.7-1.2c-0.2-0.5-0.4-0.8-0.6-1.2c-1.6-3.5-3.4-6.9-5.4-10.2
				c-0.1-0.1-0.1-0.2-0.2-0.3c-0.1,0.1-0.2,0.1-0.3,0.2c-1,0.6-1.9,1.3-3,1.9c-2.1,1.4-4.3,2.6-6.5,3.7c-1.9,1-4,1.7-6.2,1.9
				c-1.4,0.1-2.6-0.1-3.8-0.6c-1.4-0.6-2.5-1.6-3-3.1c0,0,0-0.1-0.1-0.1c-0.1,0.1-0.2,0.2-0.2,0.2c-0.3,0.4-0.6,0.6-0.8,1
				c-0.6,0.7-1.5,1.6-2.4,1.9c-0.9,0.5-1.9,0.6-3,0.6c-0.7-0.1-1.5-0.4-2-0.8c-0.6-0.6-0.8-1.1-0.8-1.9c0-0.6,0.1-1,0.2-1.6
				c0.4-1.1,0.7-2.2,1.2-3.2c0.6-1.2,1.2-2.4,1.9-3.5c1.1-1.9,2.3-3.6,3.4-5.6c0.5-0.6,0.9-1.4,1.5-2.1c0-0.1,0.1-0.2,0.2-0.3
				c-0.1,0-0.1,0-0.2,0c-0.9,0.3-1.9,0.5-2.8,0.6c-0.6,0.2-1.3,0.5-1.9,0.6c-0.1,0-0.2,0.1-0.3,0.3c-0.2,0.4-0.4,0.6-0.6,1
				c-0.2,0.4-0.5,0.6-0.6,0.9c-2.2,2.2-3.6,4.5-5,6.9c-1.8,3.2-3.3,6.5-4.6,9.9c-0.8,2.5-1.6,4.9-2,7.5c-0.1,0.3-0.1,0.6,0.1,0.7
				c0,0.1,0,0.2,0.1,0.2c0.1,0.5,0,0.7-0.4,1c-0.4,0.3-0.7,0.5-1.2,0.6C79,44,78.8,44,78.6,44L78,44L78,44z"/>
		</g>
		<g>
			<path class="st0" d="M45.9,4c0.1,0,0.3,0,0.4,0.1c1.5,0.1,2.9,0.3,4.3,0.7c1.1,0.4,2,0.8,3,1.6c1.1,0.7,1.7,1.9,1.9,3.2
				c0.4,1.6,0.2,3-0.5,4.5c-1.3,3.1-3.2,5.6-6,7.3c-2.1,1.5-4.5,2.5-7,3.2c-1.8,0.6-3.6,0.8-5.5,0.9c-0.6,0-1.2,0-1.9,0
				c-0.2,0-0.4,0-0.5-0.1c-0.6-0.1-1-0.5-1.4-1c-0.4-0.6-0.5-1.5-0.3-2.2c0-0.1,0.1-0.2,0.2-0.3c0.2-0.3,0.5-0.4,0.6-0.3
				c1,0.3,1.9,0.4,3,0.4c1.6,0,3.1-0.3,4.6-0.6c1.9-0.6,3.8-1.4,5.6-2.6c1.8-1.3,3.3-2.8,4.5-4.6c0.6-0.9,0.7-1.9,0.6-3.1
				c-0.1-1.1-0.6-2.2-1.4-3.1c-0.8-0.8-1.9-1.5-3-1.7c-1.4-0.4-2.8-0.6-4.3-0.5c-1.5,0.1-2.9,0.5-4.4,0.8c-0.1,0-0.1,0-0.2,0.1
				c0.1,0,0.1,0,0.2,0c0.5,0,0.8,0,1.3,0.1c0.1,0,0.3,0.1,0.4,0.1c0.4,0.4,0.5,0.6,0.4,0.9c0,0,0,0.1-0.1,0.1
				c-3.6,5-6.7,10.4-9.4,15.9c-1.8,3.8-3.5,7.7-4.7,11.7c-0.3,0.6-0.5,1.3-0.6,1.9c-0.1,0.2-0.1,0.4-0.1,0.5c0,0.2,0,0.4,0.1,0.6
				c0.1,0.2,0.1,0.4,0.2,0.6c0.1,0.4,0,0.6-0.4,0.8c-0.6,0.4-1,0.6-1.6,0.6c-0.6,0.1-1.3,0.1-1.9-0.1c-0.6-0.1-0.9-0.6-1-1
				c-0.1-0.3,0-0.6,0.1-0.8c0.6-2,1.5-4.2,2.2-6.2c1.9-4.7,4-9.4,6.5-13.8c1.7-3.1,3.6-6.1,5.7-8.9c0.6-0.6,1-1.3,1.6-1.9
				c0,0,0.1-0.1,0.1-0.2c-0.3-0.3-0.4-0.3-0.5-0.2c-0.4,0.1-0.6,0.3-0.9,0.4c-2.4,0.9-4.6,2.1-6.7,3.6c-0.3,0.2-0.5,0.4-0.6,0.6
				c-0.2,0.3-0.3,0.5-0.5,0.6c-0.3,0.5-0.6,0.7-0.9,1c-1.1,0.6-2.1,1-3.2,1c-0.6,0-0.9-0.2-1.4-0.6c-0.4-0.4-0.5-0.6-0.2-1.1
				c0.2-0.4,0.5-0.6,0.6-1c0.6-0.6,1.3-1.1,1.9-1.6c1.7-1.2,3.5-2.2,5.5-3c2.7-1.2,5.7-2.1,8.6-2.7c1.5-0.3,2.9-0.6,4.4-0.6
				c0.2,0,0.5,0,0.6-0.1L45.9,4L45.9,4z"/>
		</g>
		<g>
			<path class="st0" d="M134,22.4h0.8c0.3,0,0.4,0.1,0.6,0.2c0.1,0.1,0.2,0.3,0.2,0.5s-0.1,0.4-0.2,0.5c-0.1,0.1-0.3,0.2-0.6,0.2
				H134V22.4z M134,25v-1.1h0.8c0.4,0,0.6-0.1,0.6-0.3c0.2-0.2,0.3-0.4,0.3-0.6s0-0.4-0.1-0.5s-0.2-0.2-0.4-0.3
				c-0.2-0.1-0.4-0.1-0.6-0.1h-0.9v2.7L134,25L134,25z M133.5,25.6c-0.4-0.2-0.6-0.5-0.7-0.7c-0.2-0.4-0.3-0.6-0.3-1.1
				s0.1-0.7,0.3-1.1c0.2-0.4,0.5-0.6,0.7-0.7c0.4-0.2,0.6-0.3,1.1-0.3s0.8,0.1,1.1,0.3c0.3,0.2,0.6,0.5,0.7,0.7
				c0.2,0.3,0.3,0.6,0.3,1.1s-0.1,0.7-0.3,1.1c-0.2,0.4-0.5,0.6-0.7,0.7c-0.4,0.2-0.6,0.3-1.1,0.3C134.2,25.9,133.9,25.8,133.5,25.6
				z M135.9,25l-0.8-1.3l-0.3,0.1l0.7,1.2H135.9z M135.9,25.8c0.4-0.3,0.6-0.6,0.8-0.9c0.2-0.5,0.4-0.8,0.4-1.3
				c0-0.6-0.1-0.9-0.4-1.3c-0.2-0.4-0.6-0.6-0.8-0.9c-0.4-0.3-0.8-0.4-1.3-0.4s-0.9,0.1-1.4,0.4c-0.4,0.3-0.6,0.6-0.8,0.9
				s-0.4,0.8-0.4,1.3c0,0.6,0.1,0.9,0.4,1.3c0.2,0.4,0.6,0.6,0.8,0.9c0.4,0.3,0.8,0.4,1.4,0.4S135.6,26,135.9,25.8z"/>
		</g>
	</g>
</g>
</svg>
