<?xml version="1.0" encoding="utf-8"?>
<!-- Generator: Adobe Illustrator 27.1.1, SVG Export Plug-In . SVG Version: 6.00 Build 0)  -->
<svg version="1.1" id="Layer_1" xmlns="http://www.w3.org/2000/svg" xmlns:xlink="http://www.w3.org/1999/xlink" x="0px" y="0px"
	 viewBox="0 0 158 48" style="enable-background:new 0 0 158 48;" xml:space="preserve">
<style type="text/css">
	.st0{fill-rule:evenodd;clip-rule:evenodd;fill:#FFFFFF;}
</style>
<g>
	<path class="st0" d="M62.4,20.7H62l-1.3-0.2h-3.6c-0.3,0.2-0.5,0.2-0.5,0.2c-0.5,0-0.5-0.2-0.5-0.5c0-0.2,0-0.3,0.3-0.5
		c0.2,0,0.2,0,0.5-0.2c0.5,0,0.7-0.2,0.7-0.5c0-0.2,0-0.3-0.2-0.5L57,17.4l-0.5-1.3c-0.2-0.3-0.2-0.5-0.2-0.5
		c-0.2,0-0.2-0.2-0.3-0.2h-3.4c-0.5,0-0.5,0.2-0.7,0.5l-0.2,0.7c-0.2,0.7-0.3,1.3-0.3,1.6c0,0.7,0.3,1,1.3,1.1
		c0.5,0.2,0.7,0.2,0.7,0.5c0,0.3-0.2,0.5-0.5,0.5h-0.5c-0.8-0.2-1-0.2-1.5-0.2c-0.5,0-0.7,0-1.6,0.2h-0.5c-0.3,0-0.5-0.3-0.5-0.5
		c0-0.3,0.2-0.5,0.5-0.5c0.5,0,0.7-0.2,0.8-0.3c0.3-0.3,0.5-0.5,1-2.1l1-2.7l1.5-4.3l0.3-0.5C53.9,8.2,53,8.4,53,8
		c0.2-0.3,0.5-0.2,1.7-1.3C55.5,6,56,5.2,56.2,5.2c0.5,0,0.2,0.7,0.5,1.3c0.4,0.9,0.7,1.8,1,2.7l1.5,3.8l1.3,3.1l0.7,1.8
		c0.5,1.3,0.7,1.5,1.3,1.5s0.7,0.2,0.7,0.5S62.9,20.7,62.4,20.7L62.4,20.7z M55.9,14.1c-0.2-0.2-0.2-0.3-0.2-0.3l-1.3-3.4
		c-0.2-0.2-0.2-0.4-0.3-0.4l-0.3,0.5c0,0.3-0.2,0.5-0.5,1.1c-0.2,0.5-0.3,1.1-0.5,1.5c-0.2,0.3-0.2,0.5-0.3,0.5V14
		c0,0.3,0.2,0.3,0.5,0.3h2.3C55.7,14.3,55.9,14.3,55.9,14.1L55.9,14.1L55.9,14.1L55.9,14.1z M56.5,38.2l-2.2,0.9
		c-0.7,0.3-0.8,0.5-1.6,0.7s-1,0.5-2.1,0.8l-0.5,0.3c-0.5,0.2-0.8,0.2-0.8-0.3c0-0.3-0.2-0.3,0-0.5c0.2-0.2,0.3-0.5,0.7-0.5
		c0.5-0.3,0.8-0.5,0.8-1c0-0.2,0-0.3-0.2-0.5l-0.2-1l-0.5-1.5c-0.2-0.3-0.2-0.5-0.2-0.5c-0.2-0.2-0.2-0.2-0.3-0.2l-0.3,0.2l-3.7,0.8
		c-0.5,0.2-0.5,0.3-0.7,1L44.5,38c-0.3,0.8-0.5,1.7-0.5,2.1c-0.2,1,0.3,1.3,1.3,1.1c0.8-0.3,1-0.2,1,0.5c0,0.5-0.2,0.5-0.7,0.5
		c-0.2,0.2-0.8,0.5-1.8,1.3c-0.5,0.3-1.3,0.8-2.3,1.6c-0.3,0.3-0.7,0.5-0.8,0.7c-0.5,0.2-0.5-0.2-0.5-0.5c0-0.5,0.2-1,0.7-1.5
		c0.5-0.2,0.7-0.5,0.8-0.7c0.5-0.5,0.5-2,1.5-4.4l1.3-4.1l2.1-6.3c1-2.3-0.3-2-0.2-2.4c0.2-0.5,0.7-0.5,1.7-1.3
		c1-0.5,1.7-2.1,2.1-2.1s0,0.5,0.2,1.5c0.3,0.8,0.5,1.3,1,2.8l1.6,4.4l1.1,3.4l0.5,1.5c0.7,1.3,0.8,1.5,1.6,1.1
		c0.5-0.2,0.8,0,0.8,0.5C57,38.1,57,38.1,56.5,38.2L56.5,38.2z M49.2,33.2C49,33,49,33,49,33l-1.3-4.1c-0.2-0.3-0.2-0.5-0.2-0.5
		c-0.2,0-0.3,0.3-0.5,0.7c-0.2,0.3-0.3,0.8-0.5,1.6c-0.3,0.8-0.5,1.6-0.5,2c-0.2,0.5-0.3,0.8-0.5,0.8V34c0,0.3,0,0.3,0.5,0.3
		l2.7-0.5C49,33.6,49.2,33.6,49.2,33.2L49.2,33.2L49.2,33.2z M81.6,35.5c0,0-1-0.2-2.7-0.2h-3c-0.5,0-0.5-0.2-0.5-0.5
		c0-0.3,0.2-0.5,0.3-0.5c0.2-0.2,0.2-0.2,0.5-0.2c0.5-0.2,0.7-0.3,0.7-0.5c0,0-0.2-0.2-0.2-0.5l-0.2-0.5l-0.5-1.1
		c0-0.3,0-0.3-0.2-0.5c0,0,0-0.2-0.2-0.2h-3c-0.5,0-0.5,0.2-0.5,0.5l-0.4,0.8c-0.2,0.5-0.2,1.1-0.2,1.5c0,0.5,0.3,0.5,1.1,0.7
		c0.5,0.2,0.7,0.2,0.7,0.5c0,0.3-0.2,0.5-0.5,0.5h-0.5c-0.7,0-0.8,0.2-1.5,0.2c-0.5,0-0.5,0.2-1.5,0.2h-0.5c-0.5,0-0.5-0.2-0.5-0.5
		s0.2-0.5,0.5-0.5c0.5-0.2,0.5-0.2,0.7-0.5c0.3-0.2,0.5-0.5,0.8-1.8l1-2.6l1.5-4l0.5-0.7c0.5-1-0.5-0.8-0.3-1.1
		c0-0.5,0.7-0.5,1.3-1.1c0.7-0.5,1.3-1.5,1.6-1.5c0.5,0-0.2,0.5,0.5,1.7c0.3,0.7,0.3,0.7,0.7,1.8l1.5,3.7l1.1,2.8l0.7,1.3
		c0.5,1.3,0.5,1.5,1.3,1.5c0.5,0,0.5,0.2,0.5,0.5C82.3,35.3,82.1,35.5,81.6,35.5L81.6,35.5z M75.5,29.8c0-0.2-0.2-0.2-0.2-0.3
		L74,26.4c0-0.2-0.2-0.3-0.2-0.3l-0.3,0.5c0,0.2-0.2,0.5-0.5,1c-0.2,0.5-0.3,1-0.5,1.3c0,0.3,0,0.5-0.1,0.5v0.3
		c0,0.3,0.2,0.3,0.5,0.3h2.1C75.6,30,75.6,30,75.5,29.8L75.5,29.8L75.5,29.8z"/>
	<path class="st0" d="M79.1,20.7h-0.8c-0.5-0.2-1.6-0.2-2.3-0.2s-1.1,0-2.3,0.2h-0.5c-0.5,0-0.7-0.2-0.7-0.5s0.3-0.5,0.5-0.5
		l0.7-0.2c0.2,0,0.5,0,0.5-0.2c0.2-0.3,0.3-0.5,0.3-1.7v-2.4L74.2,13v-2.5V9.7c0-0.2,0-0.3-0.2-0.3c0,0-0.2,0.2-0.2,0.5
		c-0.2,0.3-0.5,1-0.7,1.8c-1,2.4-2.3,5.9-2.8,7.7c0,0.3-0.2,0.5-0.2,0.5c-0.2,0.5-0.3,0.5-0.5,0.5c-0.5,0-0.5-0.2-0.8-1L68.3,18
		l-0.7-1.7l-2.3-6.1C65.1,9.6,65,9.6,65,9.6c-0.2,0-0.2,0-0.2,0.2v0.8l-0.2,3.1v5.1c0.2,0.3,0.3,0.5,0.5,0.5
		c0.2,0.2,0.3,0.2,1.1,0.3c0.5,0,0.5,0.2,0.5,0.5c0,0.5-0.2,0.5-0.5,0.5h-0.5l-0.7-0.2h-0.5c-0.5,0-1.3,0-1.7,0.2h-0.5
		c-0.3,0-0.5-0.2-0.5-0.5c0-0.2,0-0.3,0.2-0.3c0-0.2,0.2-0.2,0.3-0.3h0.5c0.7-0.3,1-0.7,1-2.3v-1.1l0.3-7.7L64,7.8
		c0-0.3-0.2-0.5-0.2-0.5c-0.2-0.3-0.5-0.5-1-0.5c-0.5-0.2-0.7-0.3-0.7-0.5c0-0.3,0.4-0.5,0.8-0.5c0.2,0,0.3,0,0.5,0.2h3.8
		c0.3,0,0.5,0,0.5,0.5l2.8,7.7l0.2,0.5c0.2,0.3,0.2,0.3,0.3,0.3l0.2-0.2c0-0.3,0.2-0.5,0.3-0.8c0.2-0.3,0.3-0.8,0.7-1.7
		c0.5-1.5,0.8-2.6,1.1-3.1l0.5-1.8l0.5-0.8c0.1-0.5,0.1-0.5,0.5-0.5H78c0.5-0.2,0.6-0.2,0.7-0.2c0.3,0,0.5,0.3,0.5,0.5
		c0,0.5-0.3,0.5-0.8,0.5C78,7,77.8,7,77.8,7.1c-0.1,0.4-0.3,0.5-0.3,1.4v0.2l0.2,1.8v3.3c0.2,3.1,0.2,3.7,0.2,4.6
		c0.2,1,0.5,1.5,1.1,1.5c0.5,0,0.7,0.2,0.7,0.5C79.7,20.5,79.5,20.7,79.1,20.7z M94.6,6.5c-0.1,0.2-0.1,0.2-0.8,0.4
		s-0.8,0.5-0.8,2.4v6.6c0,2.1-0.5,3.4-1.7,4.3c-1,0.7-2.1,1-3.7,1c-4,0-5.9-1.6-5.9-4.8v-8c-0.2-1-0.3-1.3-0.8-1.5
		c-0.2,0-0.3-0.2-0.3-0.2c-0.3,0-0.5-0.2-0.5-0.5c0-0.5,0.2-0.5,0.5-0.5c0,0,0.2,0,0.5,0.2h4.7c0.2-0.1,0.4-0.1,0.4-0.1
		c0.5,0,0.7,0.2,0.7,0.5c0,0.3-0.2,0.5-0.8,0.5c-0.8,0.2-1,0.5-1,2.3v4.6c0,3.1,0.2,4,0.5,4.8C86,19.3,87,20,88.3,20
		c1,0,1.8-0.3,2.6-0.8c0.8-0.5,1.1-1.5,1.1-3.6v-5.3l-0.2-2c0-1.1-0.3-1.5-1.3-1.5c-0.5-0.2-0.8-0.3-0.8-0.5c0-0.4,0.3-0.5,0.6-0.5
		h0.5c0.7,0.2,1.5,0.2,1.8,0.2h1c0.5-0.2,0.5-0.2,0.7-0.2c0.3,0,0.5,0.2,0.5,0.5C94.8,6.4,94.8,6.5,94.6,6.5L94.6,6.5z M106.8,17.7
		c0,0.2-0.2,0.5-0.2,0.7c-0.2,0.7-0.2,1.1-0.2,1.3c0,0.7-0.2,1-0.5,1h-0.7c-0.3,0-0.8,0-1.8-0.2h-5.7c-0.5,0-0.7,0.2-1.5,0.2h-0.5
		c-0.5,0-0.5-0.2-0.5-0.5c0-0.5,0.2-0.5,0.8-0.7c0.7-0.2,0.8-0.5,0.8-2.1V9.2c0-1.8-0.2-2.1-0.8-2.3c-0.7-0.2-0.8-0.3-0.8-0.5
		c0.1-0.5,0.2-0.6,0.6-0.6c0.2,0,0.3,0,0.5,0.2h3c2,0,4.7-0.2,5.9-0.2c0.2,0,0.5-0.2,0.5-0.2c0.3,0,0.5,0.2,0.5,0.5v2.6
		c0,0.3-0.2,0.5-0.5,0.5s-0.5-0.2-0.5-0.5c-0.5-0.7-0.8-1.3-1.1-1.6c-0.3-0.2-0.8-0.3-1.3-0.3c-0.7,0-1.6,0-1.8,0.2
		c-0.3,0-0.3,0.2-0.3,0.7V12c0.2,0.2,0.2,0.2,0.8,0.2c0.5,0,0.8,0,1.1-0.2c0.3,0,0.5,0,0.5-0.2c0.3-0.2,0.5-0.3,0.8-1.5
		c0.2-0.3,0.3-0.5,0.5-0.5c0.3,0,0.5,0.3,0.5,0.5v4.4c0,0.5-0.2,0.5-0.5,0.5s-0.5-0.2-0.7-0.8c-0.3-1-0.8-1.5-1.8-1.5
		c-1.3,0-1.3,0.2-1.3,1v2.4c0,1.6,0,2.1,0.5,2.6c0.3,0.5,0.8,0.5,1.6,0.5c1.3,0,2.3-0.5,3-1.8l0.3-0.7c0.2-0.5,0.5-0.5,0.5-0.5
		c0.3,0,0.5,0.2,0.5,0.5L106.8,17.7L106.8,17.7z M121.1,22.1c-0.5,0.5-0.5,0.5-1.6,0.5l-1.5-0.3l-2.3-0.5c0,0-0.2-0.3-2.7-0.8
		c-0.8-0.2-1.8-0.2-1.8-0.2h-2c-0.3,0.2-0.5,0.2-0.7,0.2h-0.7c-0.5,0-0.8-0.3-0.8-0.5c0-0.5,0.3-0.7,1.3-0.8c0.7-0.2,1-0.5,1-1.7
		V7.2c0-2.3-0.2-2.6-1-2.8c-1-0.2-1.3-0.3-1.3-0.7s0.3-0.5,0.8-0.5h2.6l1.3,0.2l0.5-0.2h2.4c0.5,0,1,0.2,1,0.5s-0.3,0.5-1.5,0.7
		c-1.1,0.3-1.3,0.5-1.3,2.8v8.4c0,1.7,0.2,2.7,0.3,3.3c0.3,0.5,2.1,0.5,3,0.7c1.5,0.5,2.3,0.3,2.8,0.2c0.5-0.3,0.5-0.8,1-1.6
		l0.5-1.1c0.2-0.3,0.5-0.5,0.7-0.5C121.9,16.5,121.5,21.7,121.1,22.1L121.1,22.1z M62.3,36.9l-4.2,0.8c-0.5,0.2-1.1,0.3-1.5,0.5
		c-0.3,0-0.5,0.2-0.5,0.2c-0.5,0-0.5-0.2-0.5-0.5c0-0.5,0.2-0.5,0.8-0.8c0.5-0.3,0.7-0.5,0.7-1.7v-9.5c0-1.7-0.2-2.1-0.8-2.1
		c0,0-0.2,0-0.3,0.2h-0.3c-0.3,0-0.5-0.3-0.5-0.5c0-0.5,0.2-0.5,1.3-0.8c1.5-0.3,3.6-0.5,5.1-0.5c4.8,0,8.1,2.7,8.1,6.7
		S66.5,36.1,62.3,36.9L62.3,36.9z M61.9,23c-0.5,0-1.1,0.2-1.3,0.3c-0.2,0.3-0.2,0.8-0.2,2.1v8.1c0,1.7,0,2.1,0.5,2.4
		c0.2,0.3,0.5,0.5,1.1,0.3c2.4-0.5,4.3-3.6,4.3-7.1C66.3,25.4,64.4,23,61.9,23L61.9,23z M97.4,38.2c0,0-1.5-0.5-2.7-0.8
		c-0.5-0.2-2.1-0.5-2.4-0.5c-0.5-0.2-1-0.2-1-0.5c0-0.3,0.3-0.5,0.5-0.5h0.5c0.3,0,0.5,0,0.5-0.2c0.2-0.3,0.3-0.2,0.3-1.5v-1.8
		l-0.2-2.6v-2.6v-0.8c0-0.2,0-0.5-0.2-0.5c0,0,0,0.3-0.2,0.5c-0.2,0.3-0.3,1-0.7,2c-0.7,2.3-2,5.9-2.4,7.6c-0.2,0.3-0.2,0.5-0.3,0.7
		c-0.1,0.3-0.2,0.3-0.5,0.3c-0.5-0.2-0.5-0.5-0.8-1.3l-1-3.3l-2.1-6.3c-0.2-0.3-0.3-0.5-0.3-0.5c-0.2,0-0.2,0-0.2,0.2v0.7l-0.2,3
		v2.1c0,1,0,1.6,0.2,2c0,0.3,0.2,0.5,0.3,0.5c0.2,0.2,0.3,0.2,1,0.5c0.5,0,0.5,0.3,0.5,0.5s-0.2,0.5-0.5,0.5s-0.5-0.2-0.5-0.2
		c0,0-1-0.2-1.5-0.2c-0.5,0-1-0.2-1.5-0.2c-0.2,0-0.3,0-0.5-0.2c-0.3,0-0.5-0.2-0.5-0.5v-0.3c0.2,0,0.2-0.2,0.3-0.2h0.5
		c0.5,0,0.8-0.5,0.8-2v-0.9l0.3-6.6V24v-0.5c-0.2-0.2-0.5-0.3-0.8-0.3c-0.5-0.2-0.8-0.3-0.8-0.5c0-0.3,0.3-0.5,0.5-0.5h4
		c0.3,0,0.3,0,0.5,0.5l2.7,8l0.2,0.5c0.2,0.3,0.2,0.5,0.3,0.5c0,0,0-0.2,0.2-0.2c0-0.3,0.2-0.5,0.3-0.8c0.1-0.3,0.3-0.8,0.5-1.7
		c0.5-1.6,0.8-2.6,1.1-3.3l0.5-1.8c0.2-0.3,0.3-0.7,0.5-1c0.2-0.5,0.2-0.5,0.5-0.5H97c0.5,0,0.5,0.2,0.5,0.5c0,0.5-0.2,0.5-0.7,0.7
		c-0.5,0-0.5,0-0.7,0.3c-0.2,0.3-0.2,0.5-0.2,1.5v5.9c0.2,3.6,0.2,3.3,0.2,4.4c0.2,1.1,0.5,1.1,1,1.3c0.5,0.2,0.7,0.3,0.7,0.7
		C98,38.1,97.9,38.2,97.4,38.2L97.4,38.2z M104.6,41.6c-2.1-0.8-4.4-2.1-5.4-3.1c-0.5-0.5-0.5-0.7-0.5-1.6v-0.3
		c0.2-0.7,0.2-1.1,0.2-1.6V35c0-1,0.2-1.3,0.5-1.1c0.4,0.2,0.7,0.5,0.8,0.8l0.5,1.5c0.5,1.8,2,3.4,3.8,4.1c2.1,0.7,3.7,0,3.7-1.7
		c0.2-1.6-0.8-2.8-4-4.9c-1.1-0.8-2.1-1.6-3-2.3C99.8,30,99,28.6,99,27c0-3.1,3.4-5.1,7.6-4.6c1,0.2,2.1,0.5,3,0.7
		c1.1,0.5,1.5,1,1.5,1.7v3.3c-0.2,0.5-0.3,0.7-0.7,0.5c-0.2,0-0.3,0-0.5-0.2c-0.2-0.3-0.3-0.5-0.5-1.6c-0.5-1.8-1.6-2.8-3.1-3.1
		c-1.8-0.3-3.1,0.5-3.3,1.8c0,0.5,0.2,0.8,0.3,1.1c0.5,0.8,1,1.3,4.4,3.1c3.1,2,4.4,4.3,4.3,7.2C111.9,41.6,108.9,43.3,104.6,41.6z
		 M44.7,10.1c-3.5-1.4-4-1.6-4.5-2.6c-0.2-0.3-0.3-0.7-0.3-1.1c0-1.6,1.3-2.7,3-2.7V3.6h0.2c2,0,3.4,1.1,4,3.3l0.5,1.5
		c0.2,0.5,0.5,0.5,0.8,0.5s0.7-0.3,0.7-1.5V7.2V4.9c0-1-0.2-1.3-0.5-1.6c-1.1-0.7-3.4-1.3-5.7-1.3c-0.2,0-0.5,0.1-0.5,0.1
		c-3.6,0.5-6.3,3.1-6.3,6.6c0,1.8,0.8,3.4,2.1,4.4c0.8,0.5,1.8,1.1,3.1,1.7c3.1,1.5,4.1,2.4,4.1,4.1c0,1.8-1.6,3.1-3.8,3.1
		c-2,0-3.4-1.1-4-3.1l-0.5-1.5c-0.2-0.5-0.5-0.7-0.8-0.7c-0.5,0-0.5,0.5-0.5,1.6v0.3c0,0.5,0,1-0.2,1.8v0.3c0,1.1,0.2,1.5,0.5,1.7
		c1,0.7,3.3,1.3,5.6,1.3c4.6,0,7.6-3,7.6-7.4C49.3,13.3,47.9,11.4,44.7,10.1L44.7,10.1z"/>
	<path class="st0" d="M62.4,20.7H62l-1.3-0.2h-3.6c-0.3,0.2-0.5,0.2-0.5,0.2c-0.5,0-0.5-0.2-0.5-0.5c0-0.2,0-0.3,0.3-0.5
		c0.2,0,0.2,0,0.5-0.2c0.5,0,0.7-0.2,0.7-0.5c0-0.2,0-0.3-0.2-0.5L57,17.4l-0.5-1.3c-0.2-0.3-0.2-0.5-0.2-0.5
		c-0.2,0-0.2-0.2-0.3-0.2h-3.4c-0.5,0-0.5,0.2-0.7,0.5l-0.2,0.7c-0.2,0.7-0.3,1.3-0.3,1.6c0,0.7,0.3,1,1.3,1.1
		c0.5,0.2,0.7,0.2,0.7,0.5c0,0.3-0.2,0.5-0.5,0.5h-0.5c-0.8-0.2-1-0.2-1.5-0.2c-0.5,0-0.7,0-1.6,0.2h-0.5c-0.3,0-0.5-0.3-0.5-0.5
		c0-0.3,0.2-0.5,0.5-0.5c0.5,0,0.7-0.2,0.8-0.3c0.3-0.3,0.5-0.5,1-2.1l1-2.7l1.5-4.3l0.3-0.5C53.9,8.2,53,8.4,53,8
		c0.2-0.3,0.5-0.2,1.7-1.3C55.5,6,56,5.2,56.2,5.2c0.5,0,0.2,0.7,0.5,1.3c0.4,0.9,0.7,1.8,1,2.7l1.5,3.8l1.3,3.1l0.7,1.8
		c0.5,1.3,0.7,1.5,1.3,1.5s0.7,0.2,0.7,0.5S62.9,20.7,62.4,20.7L62.4,20.7z M58.1,17.4l-3.2-9l-0.5,0.8l3.1,8.5
		c0.3,0.7,0.5,1,0.5,1.3s-0.2,0.5-0.5,0.7c0.7-0.2,1-0.5,1-1C58.6,18.5,58.5,18.1,58.1,17.4z M55.9,14.1c-0.2-0.2-0.2-0.3-0.2-0.3
		l-1.3-3.4c-0.2-0.2-0.2-0.4-0.3-0.4l-0.3,0.5c0,0.3-0.2,0.5-0.5,1.1c-0.2,0.5-0.3,1.1-0.5,1.5c-0.2,0.3-0.2,0.5-0.3,0.5V14
		c0,0.3,0.2,0.3,0.5,0.3h2.3C55.7,14.3,55.9,14.3,55.9,14.1L55.9,14.1L55.9,14.1L55.9,14.1z M56.5,38.2l-2.2,0.9
		c-0.7,0.3-0.8,0.5-1.6,0.7s-1,0.5-2.1,0.8l-0.5,0.3c-0.5,0.2-0.8,0.2-0.8-0.3c0-0.3-0.2-0.3,0-0.5c0.2-0.2,0.3-0.5,0.7-0.5
		c0.5-0.3,0.8-0.5,0.8-1c0-0.2,0-0.3-0.2-0.5l-0.2-1l-0.5-1.5c-0.2-0.3-0.2-0.5-0.2-0.5c-0.2-0.2-0.2-0.2-0.3-0.2l-0.3,0.2l-3.7,0.8
		c-0.5,0.2-0.5,0.3-0.7,1L44.5,38c-0.3,0.8-0.5,1.7-0.5,2.1c-0.2,1,0.3,1.3,1.3,1.1c0.8-0.3,1-0.2,1,0.5c0,0.5-0.2,0.5-0.7,0.5
		c-0.2,0.2-0.8,0.5-1.8,1.3c-0.5,0.3-1.3,0.8-2.3,1.6c-0.3,0.3-0.7,0.5-0.8,0.7c-0.5,0.2-0.5-0.2-0.5-0.5c0-0.5,0.2-1,0.7-1.5
		c0.5-0.2,0.7-0.5,0.8-0.7c0.5-0.5,0.5-2,1.5-4.4l1.3-4.1l2.1-6.3c1-2.3-0.3-2-0.2-2.4c0.2-0.5,0.7-0.5,1.7-1.3
		c1-0.5,1.7-2.1,2.1-2.1s0,0.5,0.2,1.5c0.3,0.8,0.5,1.3,1,2.8l1.6,4.4l1.1,3.4l0.5,1.5c0.7,1.3,0.8,1.5,1.6,1.1
		c0.5-0.2,0.8,0,0.8,0.5C57,38.1,57,38.1,56.5,38.2L56.5,38.2z M51.7,36.6l-3.4-10.7l-0.5,1.3L51,37.3c0.3,0.8,0.5,1.1,0.5,1.5
		s-0.2,0.5-0.5,0.8c0.7-0.3,1-0.8,1-1.5C52.1,37.7,52.1,37.3,51.7,36.6z M49.2,33.2C49,33,49,33,49,33l-1.3-4.1
		c-0.2-0.3-0.2-0.5-0.2-0.5c-0.2,0-0.3,0.3-0.5,0.7c-0.2,0.3-0.3,0.8-0.5,1.6c-0.3,0.8-0.5,1.6-0.5,2c-0.2,0.5-0.3,0.8-0.5,0.8V34
		c0,0.3,0,0.3,0.5,0.3l2.7-0.5C49,33.6,49.2,33.6,49.2,33.2L49.2,33.2L49.2,33.2L49.2,33.2z M81.6,35.5c0,0-1-0.2-2.7-0.2h-3
		c-0.5,0-0.5-0.2-0.5-0.5c0-0.3,0.2-0.5,0.3-0.5c0.2-0.2,0.2-0.2,0.5-0.2c0.5-0.2,0.7-0.3,0.7-0.5c0,0-0.2-0.2-0.2-0.5l-0.2-0.5
		l-0.5-1.1c0-0.3,0-0.3-0.2-0.5c0,0,0-0.2-0.2-0.2h-3c-0.5,0-0.5,0.2-0.5,0.5l-0.4,0.8c-0.2,0.5-0.2,1.1-0.2,1.5
		c0,0.5,0.3,0.5,1.1,0.7c0.5,0.2,0.7,0.2,0.7,0.5c0,0.3-0.2,0.5-0.5,0.5h-0.5c-0.7,0-0.8,0.2-1.5,0.2c-0.5,0-0.5,0.2-1.5,0.2h-0.5
		c-0.5,0-0.5-0.2-0.5-0.5s0.2-0.5,0.5-0.5c0.5-0.2,0.5-0.2,0.7-0.5c0.3-0.2,0.5-0.5,0.8-1.8l1-2.6l1.5-4l0.5-0.7
		c0.5-1-0.5-0.8-0.3-1.1c0-0.5,0.7-0.5,1.3-1.1c0.7-0.5,1.3-1.5,1.6-1.5c0.5,0-0.2,0.5,0.5,1.7c0.3,0.7,0.3,0.7,0.7,1.8l1.5,3.7
		l1.1,2.8l0.7,1.3c0.5,1.3,0.5,1.5,1.3,1.5c0.5,0,0.5,0.2,0.5,0.5C82.3,35.3,82.1,35.5,81.6,35.5L81.6,35.5z M77.5,32.3l-3-7.9
		l-0.3,0.8l2.7,7.2c0.3,0.7,0.3,1,0.3,1.3s0,0.5-0.3,0.5c0.5-0.2,0.8-0.5,0.8-0.8C77.8,33.3,77.7,33,77.5,32.3z M75.5,29.8
		c0-0.2-0.2-0.2-0.2-0.3L74,26.4c0-0.2-0.2-0.3-0.2-0.3l-0.3,0.5c0,0.2-0.2,0.5-0.5,1c-0.2,0.5-0.3,1-0.5,1.3c0,0.3,0,0.5-0.1,0.5
		v0.3c0,0.3,0.2,0.3,0.5,0.3h2.1C75.6,30,75.6,30,75.5,29.8L75.5,29.8L75.5,29.8z"/>
	<path class="st0" d="M79.1,20.7h-0.8c-0.5-0.2-1.6-0.2-2.3-0.2s-1.1,0-2.3,0.2h-0.5c-0.5,0-0.7-0.2-0.7-0.5s0.3-0.5,0.5-0.5
		l0.7-0.2c0.2,0,0.5,0,0.5-0.2c0.2-0.3,0.3-0.5,0.3-1.7v-2.4L74.2,13v-2.5V9.7c0-0.2,0-0.3-0.2-0.3c0,0-0.2,0.2-0.2,0.5
		c-0.2,0.3-0.5,1-0.7,1.8c-1,2.4-2.3,5.9-2.8,7.7c0,0.3-0.2,0.5-0.2,0.5c-0.2,0.5-0.3,0.5-0.5,0.5c-0.5,0-0.5-0.2-0.8-1L68.3,18
		l-0.7-1.7l-2.3-6.1C65.1,9.6,65,9.6,65,9.6c-0.2,0-0.2,0-0.2,0.2v0.8l-0.2,3.1v5.1c0.2,0.3,0.3,0.5,0.5,0.5
		c0.2,0.2,0.3,0.2,1.1,0.3c0.5,0,0.5,0.2,0.5,0.5c0,0.5-0.2,0.5-0.5,0.5h-0.5l-0.7-0.2h-0.5c-0.5,0-1.3,0-1.7,0.2h-0.5
		c-0.3,0-0.5-0.2-0.5-0.5c0-0.2,0-0.3,0.2-0.3c0-0.2,0.2-0.2,0.3-0.3h0.5c0.7-0.3,1-0.7,1-2.3v-1.1l0.3-7.7L64,7.8
		c0-0.3-0.2-0.5-0.2-0.5c-0.2-0.3-0.5-0.5-1-0.5c-0.5-0.2-0.7-0.3-0.7-0.5c0-0.3,0.4-0.5,0.8-0.5c0.2,0,0.3,0,0.5,0.2h3.8
		c0.3,0,0.5,0,0.5,0.5l2.8,7.7l0.2,0.5c0.2,0.3,0.2,0.3,0.3,0.3l0.2-0.2c0-0.3,0.2-0.5,0.3-0.8c0.2-0.3,0.3-0.8,0.7-1.7
		c0.5-1.5,0.8-2.6,1.1-3.1l0.5-1.8l0.5-0.8c0.1-0.5,0.1-0.5,0.5-0.5H78c0.5-0.2,0.6-0.2,0.7-0.2c0.3,0,0.5,0.3,0.5,0.5
		c0,0.5-0.3,0.5-0.8,0.5C78,7,77.8,7,77.8,7.1c-0.1,0.4-0.3,0.5-0.3,1.4v0.2l0.2,1.8v3.3c0.2,3.1,0.2,3.7,0.2,4.6
		c0.2,1,0.5,1.5,1.1,1.5c0.5,0,0.7,0.2,0.7,0.5C79.7,20.5,79.5,20.7,79.1,20.7z M75.4,17.1L75.2,6.5h-0.3l-0.3,1l0.2,10.1V18
		c0,1.3-0.2,1.6-0.7,1.8c0.5,0,0.7-0.2,0.8-0.3c0.5-0.3,0.5-0.7,0.5-2V17.1L75.4,17.1z M66,8.8c-0.3-1-0.5-1.5-0.8-1.7
		c-0.3-0.5-0.7-0.5-1.5-0.5h-0.2c0.5,0,0.5,0.2,0.7,0.3c0.3,0.2,0.5,0.5,0.8,1.3l4.3,11.3c0.2,0.3,0.2,0.5,0.3,0.5l0.2-0.3v-0.3
		L66,8.8L66,8.8z M94.6,6.5c-0.1,0.2-0.1,0.2-0.8,0.4s-0.8,0.5-0.8,2.4v6.6c0,2.1-0.5,3.4-1.7,4.3c-1,0.7-2.1,1-3.7,1
		c-4,0-5.9-1.6-5.9-4.8v-8c-0.2-1-0.3-1.3-0.8-1.5c-0.2,0-0.3-0.2-0.3-0.2c-0.3,0-0.5-0.2-0.5-0.5c0-0.5,0.2-0.5,0.5-0.5
		c0,0,0.2,0,0.5,0.2h4.7c0.2-0.1,0.4-0.1,0.4-0.1c0.5,0,0.7,0.2,0.7,0.5c0,0.3-0.2,0.5-0.8,0.5c-0.8,0.2-1,0.5-1,2.3v4.6
		c0,3.1,0.2,4,0.5,4.8C86,19.3,87,20,88.3,20c1,0,1.8-0.3,2.6-0.8c0.8-0.5,1.1-1.5,1.1-3.6v-5.3l-0.2-2c0-1.1-0.3-1.5-1.3-1.5
		c-0.5-0.2-0.8-0.3-0.8-0.5c0-0.4,0.3-0.5,0.6-0.5h0.5c0.7,0.2,1.5,0.2,1.8,0.2h1c0.5-0.2,0.5-0.2,0.7-0.2c0.3,0,0.5,0.2,0.5,0.5
		C94.8,6.4,94.8,6.5,94.6,6.5L94.6,6.5z M83.9,19.7c-0.5-0.5-0.7-0.8-1-1.5c-0.2-0.5-0.3-1-0.5-1.6V8.8c0-0.7,0-1-0.2-1.5
		c-0.2-0.5-0.5-0.7-1.1-0.7c0.5,0.3,0.7,0.5,0.7,2.3v6.3c0,1.7,0.2,2.6,0.5,3.4c0.4,0.5,0.7,0.9,1.3,1.1c0.5,0.5,1,0.5,2,0.8
		C84.8,20.2,84.5,20.1,83.9,19.7L83.9,19.7z M106.8,17.7c0,0.2-0.2,0.5-0.2,0.7c-0.2,0.7-0.2,1.1-0.2,1.3c0,0.7-0.2,1-0.5,1h-0.7
		c-0.3,0-0.8,0-1.8-0.2h-5.7c-0.5,0-0.7,0.2-1.5,0.2h-0.5c-0.5,0-0.5-0.2-0.5-0.5c0-0.5,0.2-0.5,0.8-0.7c0.7-0.2,0.8-0.5,0.8-2.1
		V9.2c0-1.8-0.2-2.1-0.8-2.3c-0.7-0.2-0.8-0.3-0.8-0.5c0.1-0.5,0.2-0.6,0.6-0.6c0.2,0,0.3,0,0.5,0.2h3c2,0,4.7-0.2,5.9-0.2
		c0.2,0,0.5-0.2,0.5-0.2c0.3,0,0.5,0.2,0.5,0.5v2.6c0,0.3-0.2,0.5-0.5,0.5s-0.5-0.2-0.5-0.5c-0.5-0.7-0.8-1.3-1.1-1.6
		c-0.3-0.2-0.8-0.3-1.3-0.3c-0.7,0-1.6,0-1.8,0.2c-0.3,0-0.3,0.2-0.3,0.7V12c0.2,0.2,0.2,0.2,0.8,0.2c0.5,0,0.8,0,1.1-0.2
		c0.3,0,0.5,0,0.5-0.2c0.3-0.2,0.5-0.3,0.8-1.5c0.2-0.3,0.3-0.5,0.5-0.5c0.3,0,0.5,0.3,0.5,0.5v4.4c0,0.5-0.2,0.5-0.5,0.5
		s-0.5-0.2-0.7-0.8c-0.3-1-0.8-1.5-1.8-1.5c-1.3,0-1.3,0.2-1.3,1v2.4c0,1.6,0,2.1,0.5,2.6c0.3,0.5,0.8,0.5,1.6,0.5
		c1.3,0,2.3-0.5,3-1.8l0.3-0.7c0.2-0.5,0.5-0.5,0.5-0.5c0.3,0,0.5,0.2,0.5,0.5L106.8,17.7L106.8,17.7z M98.2,8.8c0-0.7,0-1-0.2-1.5
		s-0.5-0.7-1.3-0.7c0.7,0.3,0.7,0.5,0.7,2.3v8.4c0,1.8,0,2.1-0.7,2.4c0.5,0,0.5,0,0.8-0.3c0.5-0.3,0.5-0.7,0.5-2L98.2,8.8L98.2,8.8z
		 M121.1,22.1c-0.5,0.5-0.5,0.5-1.6,0.5l-1.5-0.3l-2.3-0.5c0,0-0.2-0.3-2.7-0.8c-0.8-0.2-1.8-0.2-1.8-0.2h-2
		c-0.3,0.2-0.5,0.2-0.7,0.2h-0.7c-0.5,0-0.8-0.3-0.8-0.5c0-0.5,0.3-0.7,1.3-0.8c0.7-0.2,1-0.5,1-1.7V7.2c0-2.3-0.2-2.6-1-2.8
		c-1-0.2-1.3-0.3-1.3-0.7s0.3-0.5,0.8-0.5h2.6l1.3,0.2l0.5-0.2h2.4c0.5,0,1,0.2,1,0.5s-0.3,0.5-1.5,0.7c-1.1,0.3-1.3,0.5-1.3,2.8
		v8.4c0,1.7,0.2,2.7,0.3,3.3c0.3,0.5,2.1,0.5,3,0.7c1.5,0.5,2.3,0.3,2.8,0.2c0.5-0.3,0.5-0.8,1-1.6l0.5-1.1c0.2-0.3,0.5-0.5,0.7-0.5
		C121.9,16.5,121.5,21.7,121.1,22.1L121.1,22.1z M110.7,7c0-1,0-1.5-0.2-1.8c-0.3-0.7-0.8-1-1.6-1c0.7,0.3,0.8,1.5,0.8,3.6v9.1
		c0,2.3-0.2,2.7-0.8,3c0.5,0,0.7,0,1-0.3c0.5-0.5,0.7-1,0.7-2.6C110.7,17,110.7,7,110.7,7z M62.3,36.9l-4.2,0.8
		c-0.5,0.2-1.1,0.3-1.5,0.5c-0.3,0-0.5,0.2-0.5,0.2c-0.5,0-0.5-0.2-0.5-0.5c0-0.5,0.2-0.5,0.8-0.8c0.5-0.3,0.7-0.5,0.7-1.7v-9.5
		c0-1.7-0.2-2.1-0.8-2.1c0,0-0.2,0-0.3,0.2h-0.3c-0.3,0-0.5-0.3-0.5-0.5c0-0.5,0.2-0.5,1.3-0.8c1.5-0.3,3.6-0.5,5.1-0.5
		c4.8,0,8.1,2.7,8.1,6.7S66.5,36.1,62.3,36.9L62.3,36.9z M62.9,22.6c1.3,0.5,1.7,0.7,2.4,1.6c0.8,1.1,1.5,2.8,1.5,4.8
		c0,3.4-1.5,5.9-4,7.2c2.8-1,4.7-4,4.7-7.6C67.4,25.5,65.5,23.1,62.9,22.6L62.9,22.6z M61.9,23c-0.5,0-1.1,0.2-1.3,0.3
		c-0.2,0.3-0.2,0.8-0.2,2.1v8.1c0,1.7,0,2.1,0.5,2.4c0.2,0.3,0.5,0.5,1.1,0.3c2.4-0.5,4.3-3.6,4.3-7.1C66.3,25.4,64.4,23,61.9,23
		L61.9,23z M58.3,25.4c0-1.5-0.5-2-1.5-2c0.5,0.2,0.7,0.5,0.7,2.1v9c0,2,0,2.3-0.5,2.7c0.3,0,0.5-0.2,0.7-0.5
		c0.5-0.5,0.5-0.8,0.5-2.3V25.4L58.3,25.4z M97.4,38.2c0,0-1.5-0.5-2.7-0.8c-0.5-0.2-2.1-0.5-2.4-0.5c-0.5-0.2-1-0.2-1-0.5
		c0-0.3,0.3-0.5,0.5-0.5h0.5c0.3,0,0.5,0,0.5-0.2c0.2-0.3,0.3-0.2,0.3-1.5v-1.8l-0.2-2.6v-2.6v-0.8c0-0.2,0-0.5-0.2-0.5
		c0,0,0,0.3-0.2,0.5c-0.2,0.3-0.3,1-0.7,2c-0.7,2.3-2,5.9-2.4,7.6c-0.2,0.3-0.2,0.5-0.3,0.7c-0.1,0.3-0.2,0.3-0.5,0.3
		c-0.5-0.2-0.5-0.5-0.8-1.3l-1-3.3l-2.1-6.3c-0.2-0.3-0.3-0.5-0.3-0.5c-0.2,0-0.2,0-0.2,0.2v0.7l-0.2,3v2.1c0,1,0,1.6,0.2,2
		c0,0.3,0.2,0.5,0.3,0.5c0.2,0.2,0.3,0.2,1,0.5c0.5,0,0.5,0.3,0.5,0.5s-0.2,0.5-0.5,0.5s-0.5-0.2-0.5-0.2c0,0-1-0.2-1.5-0.2
		c-0.5,0-1-0.2-1.5-0.2c-0.2,0-0.3,0-0.5-0.2c-0.3,0-0.5-0.2-0.5-0.5v-0.3c0.2,0,0.2-0.2,0.3-0.2h0.5c0.5,0,0.8-0.5,0.8-2v-0.9
		l0.3-6.6V24v-0.5c-0.2-0.2-0.5-0.3-0.8-0.3c-0.5-0.2-0.8-0.3-0.8-0.5c0-0.3,0.3-0.5,0.5-0.5h4c0.3,0,0.3,0,0.5,0.5l2.7,8l0.2,0.5
		c0.2,0.3,0.2,0.5,0.3,0.5c0,0,0-0.2,0.2-0.2c0-0.3,0.2-0.5,0.3-0.8c0.1-0.3,0.3-0.8,0.5-1.7c0.5-1.6,0.8-2.6,1.1-3.3l0.5-1.8
		c0.2-0.3,0.3-0.7,0.5-1c0.2-0.5,0.2-0.5,0.5-0.5H97c0.5,0,0.5,0.2,0.5,0.5c0,0.5-0.2,0.5-0.7,0.7c-0.5,0-0.5,0-0.7,0.3
		c-0.2,0.3-0.2,0.5-0.2,1.5v5.9c0.2,3.6,0.2,3.3,0.2,4.4c0.2,1.1,0.5,1.1,1,1.3c0.5,0.2,0.7,0.3,0.7,0.7
		C98,38.1,97.9,38.2,97.4,38.2L97.4,38.2z M94.1,33.9l-0.3-10.8h-0.2l-0.3,1.1l0.2,10.3v0.2c0,1.6-0.2,1.8-0.7,2
		c0.5,0,0.5,0,0.8-0.2c0.3-0.3,0.5-0.7,0.5-2.1V33.9L94.1,33.9z M85.5,25.2c-0.3-1-0.5-1.5-0.8-1.7c-0.3-0.5-0.7-0.5-1.3-0.5h-0.2
		c0.3,0,0.5,0.2,0.5,0.3c0.5,0.2,0.5,0.5,0.8,1.3l4,11.5c0,0.5,0.2,0.5,0.2,0.5c0.2,0,0.2-0.2,0.2-0.3l0.1-0.4L85.5,25.2z
		 M104.6,41.6c-2.1-0.8-4.4-2.1-5.4-3.1c-0.5-0.5-0.5-0.7-0.5-1.6v-0.3c0.2-0.7,0.2-1.1,0.2-1.6V35c0-1,0.2-1.3,0.5-1.1
		c0.4,0.2,0.7,0.5,0.8,0.8l0.5,1.5c0.5,1.8,2,3.4,3.8,4.1c2.1,0.7,3.7,0,3.7-1.7c0.2-1.6-0.8-2.8-4-4.9c-1.1-0.8-2.1-1.6-3-2.3
		C99.8,30,99,28.6,99,27c0-3.1,3.4-5.1,7.6-4.6c1,0.2,2.1,0.5,3,0.7c1.1,0.5,1.5,1,1.5,1.7v3.3c-0.2,0.5-0.3,0.7-0.7,0.5
		c-0.2,0-0.3,0-0.5-0.2c-0.2-0.3-0.3-0.5-0.5-1.6c-0.5-1.8-1.6-2.8-3.1-3.1c-1.8-0.3-3.1,0.5-3.3,1.8c0,0.5,0.2,0.8,0.3,1.1
		c0.5,0.8,1,1.3,4.4,3.1c3.1,2,4.4,4.3,4.3,7.2C111.9,41.6,108.9,43.3,104.6,41.6z M105.4,32.8c-1.3-0.8-2.3-1.6-3.1-2.3
		c-1.1-1-1.8-2.1-1.8-3.4c0.2-2.1,1.6-3.6,4.4-4.3c-3.1,0.2-5.1,1.8-5.1,4.3c0,0.5,0.2,1.3,0.5,2c0.7,1.3,1.7,2.3,4.1,3.8
		c3.6,2.4,4.6,3.7,4.4,5.7c0,1.3-0.5,2.1-1.5,2.4c-0.5,0.2-1,0.2-2-0.2c1.1,0.5,1.6,0.5,2.1,0.5c1.5-0.2,2.3-1.1,2.3-2.7
		C109.7,36.6,108.6,34.9,105.4,32.8L105.4,32.8z M44.7,10.1c-3.5-1.4-4-1.6-4.5-2.6c-0.2-0.3-0.3-0.7-0.3-1.1c0-1.6,1.3-2.7,3-2.7
		V3.6h0.2c2,0,3.4,1.1,4,3.3l0.5,1.5c0.2,0.5,0.5,0.5,0.8,0.5s0.7-0.3,0.7-1.5V7.2V4.9c0-1-0.2-1.3-0.5-1.6
		c-1.1-0.7-3.4-1.3-5.7-1.3c-0.2,0-0.5,0.1-0.5,0.1c-3.6,0.5-6.3,3.1-6.3,6.6c0,1.8,0.8,3.4,2.1,4.4c0.8,0.5,1.8,1.1,3.1,1.7
		c3.1,1.5,4.1,2.4,4.1,4.1c0,1.8-1.6,3.1-3.8,3.1c-2,0-3.4-1.1-4-3.1l-0.5-1.5c-0.2-0.5-0.5-0.7-0.8-0.7c-0.5,0-0.5,0.5-0.5,1.6v0.3
		c0,0.5,0,1-0.2,1.8v0.3c0,1.1,0.2,1.5,0.5,1.7c1,0.7,3.3,1.3,5.6,1.3c4.6,0,7.6-3,7.6-7.4C49.3,13.3,47.9,11.4,44.7,10.1L44.7,10.1
		z M45,22.3c-0.7,0.3-1.1,0.5-2.4,0.5c1.1-0.3,1.6-0.5,2.1-0.7c1-0.5,1.6-1.7,1.6-3.1c0-2-1.1-3.1-4.7-4.7c-2.6-1-3.6-1.8-4.3-3.1
		c-0.4-0.8-0.6-1.6-0.6-2.4c0-2.8,2.1-5.1,5.3-5.9c-2.8,1.3-4.4,3.1-4.4,5.7c0,1.6,0.7,2.7,2,3.6c0.7,0.5,1.8,1,3,1.6
		c3.3,1.5,4.6,2.8,4.6,4.8C47.1,20.1,46.2,21.5,45,22.3L45,22.3z M112,25.1c0-0.5,0.3-0.8,0.7-0.8s0.8,0.5,0.8,0.8
		c0,0.5-0.5,0.8-0.8,0.8C112.2,25.9,112,25.6,112,25.1z M112.7,26.1c0.5,0,1-0.5,1-1c0-0.5-0.5-1-1-1c-0.5,0-1,0.5-1,1
		C111.7,25.6,112.2,26.1,112.7,26.1z M112.5,25.2h0.2l0.3,0.5h0.3l-0.5-0.5c0.3,0,0.5-0.2,0.5-0.3c0-0.3-0.2-0.5-0.5-0.5h-0.5v1.1
		h0.2V25.2z M112.5,25.1v-0.5h0.3c0,0,0.2,0,0.2,0.2c0,0.3-0.2,0.3-0.3,0.3H112.5z"/>
</g>
</svg>
