<?xml version="1.0" encoding="utf-8"?>
<!-- Generator: Adobe Illustrator 27.1.1, SVG Export Plug-In . SVG Version: 6.00 Build 0)  -->
<svg version="1.1" id="Layer_1" xmlns="http://www.w3.org/2000/svg" xmlns:xlink="http://www.w3.org/1999/xlink" x="0px" y="0px"
	 viewBox="0 0 158 48" style="enable-background:new 0 0 158 48;" xml:space="preserve">
<style type="text/css">
	.st0{fill:#FFFFFF;}
</style>
<g>
	<g>
		<path class="st0" d="M27.4,17.8l0.3,3.4l-0.5,0.1c-0.1-0.2-0.2-0.3-0.3-0.6c-0.7-0.8-1.1-1.5-1.7-1.8c-1.2-0.9-2.3-1.1-2.9-0.7
			c-0.6,0.2-0.7,1-0.2,1.5c0.2,0.2,0.2,0.2,0.6,0.4l3.1,1.6c2.3,1.1,3.1,2.9,2.9,4.9c-0.4,2.8-2.7,4.3-7.8,3.8
			c-0.7-0.1-1.2-0.2-1.7-0.2c-1.1-0.3-1.7-0.6-2.3-1v-3.8h0.5l0.5,0.8c0.7,1.3,1.6,2.1,2.4,2.6c1.6,0.9,2.5,0.4,2.7-0.3
			c0.2-0.6-0.1-1.1-0.9-1.6c-0.2-0.1-0.2-0.2-0.3-0.2l-2.5-1.3c-0.2-0.2-0.6-0.3-0.7-0.6c-1.3-1.1-1.8-2.3-1.8-3.8
			c0.2-2.9,2.5-4.9,7.8-4.2C25.5,17.1,26.4,17.4,27.4,17.8z M29.1,41.3v-0.7l0.8-0.2c0.1,0,0.2-0.1,0.3-0.2c0.3-0.2,0.6-0.6,0.6-1.4
			V20.2l-1.6-0.7V19c2-0.2,3.9-0.7,5.8-1.3c0.6-0.2,1.1-0.3,1.6-0.6h0.5v1.6c0.7-0.6,1.2-1.1,2.1-1.4c0.3-0.2,0.7-0.2,1.1-0.3
			c3.8-0.9,7.2,2.3,6.7,6.4c-0.1,0.8-0.3,1.7-0.7,2.6c-1.3,2.8-3.7,4.4-6.9,4.5h-0.9l-1.3-0.2v8.5c0,0.7,0.4,1.3,0.8,1.4l1.1,0.2
			v0.7C39.1,41.2,29.1,41.3,29.1,41.3z M37.4,28.5c0.4,0.9,1.5,1.1,2.1,0.4c0.7-0.7,1-1.7,1-4.2c0-0.6,0-1.1-0.2-1.6
			c-0.4-3.1-1.6-4.2-2.4-4c-0.7,0.2-0.8,0.4-0.8,1.6v5.8C37.1,27.6,37.2,28.1,37.4,28.5z"/>
		<path class="st0" d="M47.2,19.6v-0.5c0.7-0.2,1.4-0.2,2.1-0.4c1.8-0.3,3.5-1.5,5.3-1.5H55v10.9c0.1,0.7,0.3,1,0.7,1.1
			c0.1,0,0.2,0.1,0.2,0.1l0.6,0.2v0.7h-9.2v-0.7l0.7-0.2c0.1,0,0.1-0.1,0.2-0.1c0.7-0.2,0.9-0.7,0.9-1.6v-7.6L47.2,19.6z M58.1,19.6
			v-0.5c2-0.2,3.9-0.7,5.8-1.3c0.6-0.2,1.1-0.3,1.6-0.6H66v1.6l2-0.9c0.7-0.3,1.4-0.5,2-0.7c2.5-0.4,4.3,0.4,5,2
			c0.2,0.5,0.2,1,0.2,1.5v7.7c0,0.7,0.6,1.1,1.1,1.1h0.3v0.7h-8.8v-0.7l0.5-0.2c0.6-0.2,0.7-0.6,0.7-1.6V21c0-0.9-0.4-1.4-1.1-1.6
			c-0.2,0-0.8,0.1-1.1,0.2c-0.6,0.3-0.7,0.7-0.7,1.6v6.7c0,0.4,0.1,0.7,0.2,0.9c0.1,0.2,0.2,0.4,0.4,0.6l0.5,0.2v0.7h-9.1v-0.7h0.3
			c0.2,0,0.2-0.1,0.4-0.2l0.2-0.1c0.4-0.2,0.7-0.5,0.7-1.1v-7.8L58.1,19.6z M86.1,17.4v-5.6l-1.7-0.7l0.1-0.5
			c1.4-0.2,2.9-0.5,4.2-0.8c1.1-0.2,2.1-1.1,3.2-1.1h0.5V28l1.7,0.7v0.4l-7.5,1.1l-0.4-0.1v-1.6c0,0-1.1,0.7-1.5,0.9
			c-4.2,2.1-7.8-0.1-8.2-4.4c-0.1-0.4-0.1-0.8-0.1-1.2c0.2-4.2,3-6.9,6.9-7.1c0.6,0,1.1,0,1.8,0.2C85.2,17.2,86.1,17.4,86.1,17.4z
			 M86.1,21c0-1.3-0.2-1.9-0.4-2.2c-0.5-0.7-1.5-0.9-2-0.2c-0.6,0.7-0.8,1.6-1,3.8c0,0.7-0.2,3,0.7,4.2c0.7,1.2,1.9,1.6,2.6,0.8
			c0.1-0.1,0.1-0.2,0.2-0.2V21z M94.3,19.6v-0.5c2.5-0.4,5.1-1.1,7.5-1.9h0.4v2.4l1.3-1.4c0.7-0.7,1.1-0.8,1.6-1
			c1.5-0.2,2.5,0.4,2.9,1.6c0.2,0.6,0.1,1.1-0.2,1.6c-0.4,0.8-1.1,1.3-2.1,1.2c-1.3,0-2.2-1.3-2.2-1.3c-0.2-0.2-0.4-0.2-0.6-0.2
			c-0.1,0.1-0.2,0.2-0.2,0.3l-0.2,0.5c-0.1,0.2-0.2,0.5-0.2,0.8v5.8c0,1,0.3,1.4,1.1,1.6l0.7,0.2v0.7h-9.6v-0.7c0,0,0.8-0.2,0.9-0.2
			c0.6-0.2,0.8-0.7,0.8-1.5v-7.5L94.3,19.6z M108.4,19.6v-0.5c0.7-0.2,1.4-0.2,2.1-0.4c1.8-0.3,3.5-1.5,5.3-1.5h0.4v10.9
			c0.1,0.7,0.3,1,0.7,1.1c0.1,0,0.2,0.1,0.2,0.1l0.6,0.2v0.7h-9.5v-0.7l0.7-0.2c0.1,0,0.2-0.1,0.2-0.1c0.7-0.2,0.9-0.7,0.9-1.6v-7.6
			L108.4,19.6z M118.8,30.2v-0.7l0.7-0.2c0.1,0,0.2-0.1,0.2-0.1c0.6-0.2,0.7-0.6,0.9-1.1c0-0.2,0.1-0.2,0.1-0.3v-8.9H119l0.3-1.6
			h1.2l0.1-0.7c0.2-0.8,0.5-2,1.1-3.3c1.6-2.5,3.5-3.9,5.8-4.2c2.8-0.4,4.5,0.3,5.1,1.3c0.6,0.8,0.2,2-0.7,2.5
			c-0.2,0.1-0.3,0.2-0.6,0.2c-2,0.6-3.2-0.5-3.3-2v-0.3c0-0.3-0.2-0.5-0.3-0.5s-0.3,0.2-0.5,0.4c-0.2,0.2-0.2,0.5-0.2,1.1v5.6h2.8
			l-0.4,1.6H127v8.9c0,1,0.2,1.4,1,1.6l0.6,0.2v0.7L118.8,30.2z"/>
		<path class="st0" d="M130.4,18.1c2.5-1.4,5-3,7.3-4.8l0.2,0.2v3.8h3.5l-0.4,1.4h-3.1v8.7c0,1.1,0.7,1.7,1.9,1.1l0.8-0.4v0.7
			c-0.7,0.6-1.4,0.9-2.4,1.2c-0.4,0.2-0.8,0.2-1.4,0.2c-4,0.2-5.1-0.7-5.1-3.8v-7.9h-1.1L130.4,18.1z"/>
		<path class="st0" d="M110.9,10.6h0.3v0.1h0.2v0.1l0.2-0.1C111.3,10.7,111.2,10.3,110.9,10.6z M110.6,10.3v0.2l0.2,0.1L110.6,10.3z
			 M110.5,11.2l-0.1-0.3l-0.2-0.1c0.1,0.3,0.2,0.7,0.4,0.8L110.5,11.2z M114.1,11.7c0.1-0.2,0.1-0.2,0-0.4l-0.2,0.7
			C114,12,114,11.8,114.1,11.7z M113.7,10.7c-0.1,0.2-0.1,0.2,0.1,0.3L113.7,10.7z M113.9,10.8c-0.1,0.2,0.1,0.2,0.2,0.4L113.9,10.8
			z M110.5,14.5c-0.2-0.1-0.5-0.2-0.6-0.2h-0.2L110.5,14.5c0.2,0.1,0.3,0.2,0.4,0.1C111,14.7,110.8,14.6,110.5,14.5z"/>
		<path class="st0" d="M110.1,14.3C109.7,14.2,110.5,14.3,110.1,14.3L110.1,14.3z M114.5,13.4l-0.4,0.3c0.3-0.2,0.7-0.5,0.8-0.7
			l-0.2,0.1C114.7,13.2,114.7,13.4,114.5,13.4z"/>
		<path class="st0" d="M111,12.9c0.4,0.2,0.7,0.2,1.1,0.2c0.7,0.2,1.5-0.2,1.7-0.7c0.2-0.4,0.6-1.1,0.1-1.6l-0.1,0.1l-0.1-0.2
			c-0.2-0.4-0.4-0.7-0.7-0.9c0-0.1-0.2,0.1-0.2,0.1h-0.2c-0.2,0.1-0.4,0.1-0.4,0.3c-0.1,0.1-0.2,0.1-0.2,0.2l-0.2-0.1
			c-0.2,0-0.3,0-0.4,0.2h-0.1v0.1c-0.3-0.2-0.4-0.5-0.7-0.2v-0.1c-0.1-0.1-0.1-0.2-0.2-0.2v0.2h-0.2V10l-0.1-0.1
			c-0.2-0.2-0.1-0.5-0.2-0.5c-0.1,0-0.2,0.2-0.1,0.3h-0.1c0-0.2-0.2-0.1-0.2-0.2c0-0.2,0.2-0.3,0.2-0.5c0.3-0.7,0.9-1.1,1.5-1.5h0.1
			c0.3-0.2,0.7-0.2,1.1-0.2l-0.1,0.1c0.2,0,0.6,0.1,0.8,0.1c0.7-0.1,1.5,0.3,2,0.9c0.7,0.7,0.9,1.5,1.1,2.4
			c-0.1-0.3-0.2-0.7-0.3-1.1c0.2,0.7,0.2,1.2,0.2,1.8l-0.1,0.1c-0.1,0.4-0.2,0.7-0.3,1.1c0,0-0.1,0.2,0,0.2
			c-0.2,0.2-0.3,0.7-0.7,0.9l-0.2,0.4c-1,1-2.4,1.3-4,1.1c-0.4-0.1-0.7-0.3-1.1-0.6c0.6,0.2,1.1,0.4,1.7,0.4
			c0.6,0.2,1.1,0.2,1.6-0.1l0.2-0.2c-0.6,0.2-1.1,0.2-1.8,0.2c-0.3-0.2-0.7-0.2-1-0.3c0.2,0.2,0.5,0.1,0.7,0.2
			c0.5,0.2,1,0.2,1.3,0.1l0.2-0.1l0.2-0.2c-0.3,0.2-0.7,0.2-1.1,0.2l-0.7-0.1l-0.4-0.2h0.1c0.2,0,0.6-0.2,0.4-0.4
			c-0.8-0.2-1.9-0.9-1.8-1c0-0.1,1.3,0.7,1.2,0.5l-0.2-0.2l0.2,0.1c0.2,0.1,0.2,0.2,0.4,0.2c0.4-0.2,0.7,0,1.1-0.1
			c0.2-0.2,0.5-0.2,0.7-0.5c0-0.1,0.2-0.1,0.1-0.2c0.2,0,0.5-0.1,0.4-0.3v0c0.2-0.2,0.4-0.4,0.5-0.7l0.2-0.2c0,0.1-0.2,0.2-0.2,0.2
			V12c-0.1,0.2-0.2,0.3-0.4,0.7v0.2h-0.1v0.1c-0.2,0.2-0.5,0.2-0.7,0.4c-0.4,0.2-0.9,0.1-1.3-0.1l0.7-0.1h-0.9L111,12.9l0.1,0.2
			l-0.2,0.1c-0.8-0.2-1.5-1.1-1.6-2.1l0.2,0.1c0.1,0.4,0.2,0.8,0.6,1c-0.2-0.2-0.2-0.2-0.3-0.5h0.1l-0.2-0.5l0.2,0.2
			c0.1,0.1,0.1,0.2,0.2,0.2c0.2,0.4,0.5,0.8,0.8,1.1c0.3,0.2,0.7,0.5,1.1,0.5C111.8,13.1,111.4,13,111,12.9z M111.4,9.4
			c-0.2,0-0.2,0.3-0.3,0.6C111.3,9.8,111.3,9.4,111.4,9.4z M114.8,10.4c-0.2-0.2-0.2-0.6-0.5-0.7c-0.1-0.1-0.2-0.1-0.2-0.2
			c-0.1-0.1-0.2-0.2-0.2-0.2v0.1c-0.2-0.2-0.3,0-0.4-0.2l-0.1,0.2c-0.1-0.1-0.2-0.1-0.3-0.1l-0.2,0.1l-0.1,0.1l-0.2,0.1l0.1-0.1
			l0.3-0.1c0.2-0.1,0.7,0.1,0.9,0.2l0.2,0.2c0.2,0.1,0.2,0.4,0.6,0.6C114.7,10.3,114.7,10.4,114.8,10.4z M116.3,10.7
			c-0.2-0.6-0.3-1.1-0.5-1.6c-0.2-0.3-1.1-1.1-1.1-0.7C115.6,8.4,115.8,11.2,116.3,10.7z M114.1,14.7c0.2-0.1,0.4-0.2,0.7-0.4
			C114.5,14.4,114.3,14.6,114.1,14.7z M115,12.4c-0.1,0.7-0.7,1-1.1,1.4c-0.4,0.2-1,0.2-1.4,0.3v0.1h0.1c0.2,0.1,0.3,0.1,0.5,0.1
			h0.1l0.3-0.1l0.2-0.1c0.7-0.1,1.1-0.7,1.5-1.1c0.2-0.2,0.2-0.7,0.2-1C115.1,12.1,115,12.3,115,12.4z"/>
		<path class="st0" d="M111.6,13.4c-0.2,0-0.3-0.2-0.5-0.2l-0.4-0.2c-0.7-0.3-1.1-1.1-1.1-2h-0.3c0,1,0.7,1.8,1.4,2.4
			c0.4,0.1,1,0.5,1.5,0.3c0.5-0.1,0.9-0.2,1.2-0.4C112.7,13.6,112.2,13.5,111.6,13.4z M113.8,11.1c0,0.1,0.1,0.2,0,0.2
			c-0.2,0.2,0,0.5-0.2,0.7c0.2-0.1,0.2-0.2,0.2-0.4C114.1,11.4,114,11.2,113.8,11.1z"/>
		<path class="st0" d="M113.6,12.1l0.2-0.2c-0.2,0.2-0.3,0.3-0.7,0.4c-0.3,0.2-1,0.2-1.5,0.2l-0.2-0.1c0.7,0.7,2.2,0.7,2.5-0.3V12
			c-0.2,0.2-0.6,0.5-0.9,0.6C113.2,12.5,113.4,12.4,113.6,12.1z M111.8,13.4L111.8,13.4l-0.2-0.1l0.1,0.1H111.8z M112.9,14.3
			l0.5-0.2c0.2-0.2,0.4-0.2,0.7-0.3C113.7,14,113.3,14.1,112.9,14.3z M114.7,14.6l0.2-0.2l0.1-0.2l-0.2,0.2L114.7,14.6z M116.4,11.6
			c-0.1,1-0.6,2-1.3,2.6l-0.1,0.2c0.7-0.3,1.1-0.9,1.1-1.6c0.1-0.2,0.1-0.3,0.1-0.4c0.2-0.5,0.2-1.1,0.2-1.6V11.6z"/>
		<path class="st0" d="M49.4,10.5L49.4,10.5L49.4,10.5L49.4,10.5z"/>
		<path class="st0" d="M49.4,10.6h0.3v0.1H50v0.1l0.2-0.1C49.8,10.7,49.7,10.3,49.4,10.6z M49.1,10.3v0.2l0.2,0.1
			C49.4,10.4,49.3,10.3,49.1,10.3z M49,11.2l-0.1-0.3l-0.1-0.1c0.2,0.3,0.2,0.7,0.4,0.8L49,11.2z M52.7,11.7c0.1-0.2,0.1-0.2,0-0.4
			l-0.2,0.7C52.6,12,52.6,11.8,52.7,11.7z M52.2,10.7c-0.1,0.2-0.1,0.2,0.1,0.3L52.2,10.7z M52.5,10.8c-0.1,0.2,0.1,0.2,0.2,0.4
			L52.5,10.8z M49.1,14.5c-0.2-0.1-0.5-0.2-0.6-0.2h-0.2L49.1,14.5c0.2,0.1,0.3,0.2,0.4,0.1C49.4,14.7,49.3,14.6,49.1,14.5z"/>
		<path class="st0" d="M48.6,14.3C48.2,14.2,49.1,14.3,48.6,14.3L48.6,14.3z M53.1,13.4l-0.4,0.3c0.3-0.2,0.7-0.5,0.8-0.7l-0.2,0.1
			C53.2,13.2,53.1,13.4,53.1,13.4z"/>
		<path class="st0" d="M49.6,12.9c0.4,0.2,0.7,0.2,1.1,0.2c0.7,0.2,1.5-0.2,1.7-0.7c0.2-0.4,0.6-1.1,0.1-1.6l-0.1,0.1l-0.2-0.2
			c-0.2-0.4-0.4-0.7-0.7-0.9c0-0.1-0.2,0.1-0.2,0.1l0,0C51,10,50.9,10,50.9,10.3c0,0-0.2,0.1-0.2,0.2l-0.2-0.1c-0.2,0-0.3,0-0.4,0.2
			H50v0.1c-0.3-0.2-0.4-0.5-0.7-0.2v-0.1c-0.1-0.1-0.1-0.2-0.2-0.2v0.2l-0.2-0.1V9.9l-0.1-0.1c-0.2-0.2-0.2-0.4-0.3-0.4
			s-0.2,0.2-0.1,0.3h-0.1c0-0.2-0.2-0.1-0.2-0.2c0-0.2,0.2-0.3,0.2-0.5c0.3-0.7,0.9-1.1,1.5-1.5h0.1c0.3-0.2,0.7-0.2,1.1-0.2
			l-0.1,0.1c0.2,0,0.6,0.1,0.8,0.1c0.7-0.1,1.5,0.3,2,0.9c0.7,0.7,0.9,1.5,1.1,2.4c0-0.2-0.2-0.6-0.2-1l-0.2-0.5l0.2,0.5
			c0.2,0.7,0.2,1.2,0.2,1.9l-0.1,0.1c0,0.4-0.2,0.7-0.2,1c0,0-0.1,0.2,0,0.2c-0.2,0.2-0.3,0.7-0.7,0.9l-0.2,0.4c-1,1-2.4,1.3-4,1.1
			c-0.4-0.1-0.7-0.3-1.1-0.6c0.6,0.2,1.1,0.4,1.7,0.4c0.6,0.2,1.1,0.2,1.6-0.1l0.2-0.2c-0.6,0.2-1.1,0.2-1.8,0.2
			c-0.3-0.2-0.7-0.2-1-0.3c0.2,0.2,0.6,0.1,0.7,0.2c0.5,0.2,1,0.2,1.3,0.1l0.2-0.1l0.2-0.2c-0.3,0.2-0.7,0.2-1.1,0.2l-0.7-0.1
			l-0.4-0.2h0.2c0.2,0,0.6-0.2,0.4-0.4c-0.8-0.2-1.9-0.9-1.8-1c0-0.1,1.3,0.7,1.2,0.5l-0.2-0.2l0.2,0.1c0.2,0.1,0.2,0.2,0.4,0.2
			c0.4-0.2,0.7,0,1.1-0.1c0.2-0.2,0.5-0.2,0.7-0.5c0-0.1,0.2-0.1,0.1-0.2c0.2,0,0.5-0.1,0.4-0.3v-0.1c0.2-0.2,0.4-0.4,0.5-0.7
			l0.2-0.2c-0.1,0.1-0.2,0.2-0.2,0.2v0.1c0.1,0.3-0.2,0.5-0.2,0.7V13h-0.1V13c-0.2,0.2-0.5,0.2-0.7,0.4c-0.4,0.2-0.9,0.1-1.3-0.1
			l0.7-0.1h-0.9L50,13.1l0.2,0.2L49.6,13c-0.8-0.2-1.5-1.1-1.6-2.1l0.2,0.2c0.1,0.4,0.2,0.8,0.6,1c-0.2-0.2-0.2-0.2-0.3-0.5h0.1
			l-0.2-0.5l0.2,0.2c0.1,0.1,0.1,0.2,0.2,0.2c0.2,0.4,0.4,0.8,0.8,1.1c0.3,0.2,0.7,0.4,1.1,0.5C50.3,13.1,49.9,13,49.6,12.9z
			 M50,9.4c-0.2,0-0.2,0.3-0.3,0.6C49.9,9.8,49.8,9.4,50,9.4z M53.3,10.4c-0.2-0.2-0.2-0.6-0.5-0.7c-0.1-0.1-0.2-0.1-0.2-0.2
			c-0.1-0.1-0.2-0.2-0.2-0.2v0.1c-0.2-0.2-0.3,0-0.4-0.2l-0.1,0.1c-0.1,0-0.2,0-0.3,0l-0.2,0.1l-0.1,0.1L51,9.6l0.1-0.1l0.3-0.1
			c0.3-0.1,0.7,0.1,0.9,0.2l0.2,0.2c0.2,0.1,0.2,0.4,0.6,0.6C53.2,10.3,53.2,10.4,53.3,10.4z M54.9,10.7c-0.2-0.6-0.3-1.1-0.5-1.6
			c-0.2-0.3-1.1-1.1-1.1-0.7C54.2,8.4,54.4,11.2,54.9,10.7z M52.6,14.7c0.2-0.1,0.4-0.2,0.7-0.4C53.1,14.4,52.8,14.6,52.6,14.7z
			 M53.6,12.4c-0.1,0.7-0.7,1-1.1,1.4C52,14,51.4,14,51,14.1v0.1h0.1c0.2,0.1,0.3,0.1,0.5,0.1h0.1l0.3-0.1l0.2-0.1
			c0.7-0.1,1.1-0.7,1.5-1.1c0.2-0.2,0.2-0.7,0.2-1C53.6,12.1,53.6,12.3,53.6,12.4z"/>
		<path class="st0" d="M50.1,13.4c-0.2,0-0.3-0.2-0.5-0.2L49.2,13c-0.7-0.3-1.1-1.1-1.2-1.9h-0.2c0,1,0.7,1.8,1.4,2.4
			c0.4,0.1,1,0.5,1.5,0.3c0.5-0.1,0.9-0.2,1.2-0.4C51.3,13.6,50.7,13.5,50.1,13.4z M52.3,11.1c0,0.1,0.1,0.2,0,0.2
			c-0.2,0.2,0,0.5-0.2,0.7c0.2-0.1,0.2-0.2,0.2-0.4C52.6,11.4,52.5,11.2,52.3,11.1z"/>
		<path class="st0" d="M52.1,12.1l0.1-0.2c-0.2,0.2-0.3,0.3-0.7,0.4c-0.3,0.2-1,0.2-1.5,0.2l-0.2-0.1c0.7,0.7,2.2,0.7,2.5-0.3V12
			c-0.2,0.2-0.6,0.5-0.9,0.6C51.8,12.5,51.9,12.4,52.1,12.1z M50.4,13.4l-0.2-0.1H50l0.1,0.1H50.4z M51.5,14.3l0.5-0.2
			c0.2-0.2,0.4-0.2,0.7-0.3C52.2,14,51.8,14.1,51.5,14.3z M53.2,14.6l0.2-0.2l0.1-0.2l-0.2,0.2L53.2,14.6z M54.9,11.6
			c-0.1,1-0.6,2-1.3,2.6l-0.1,0.2c0.7-0.3,1.1-0.9,1.1-1.6c0.1-0.2,0.1-0.3,0.2-0.5c0.2-0.5,0.2-1.1,0.2-1.6L54.9,11.6z"/>
		<path class="st0" d="M141.6,14.4c0,0.7-0.6,1.2-1.2,1.2c-0.7,0-1.2-0.6-1.2-1.2c0-0.7,0.6-1.2,1.2-1.2S141.6,13.7,141.6,14.4z
			 M139.5,14.4c0,0.6,0.4,1,1,1c0.5,0,1-0.4,1-1s-0.4-1-1-1S139.5,13.8,139.5,14.4z M140.5,13.7c0.2,0,0.5,0.1,0.5,0.3
			c0,0.2-0.2,0.2-0.2,0.3L141,15h-0.2l-0.2-0.6h-0.2V15H140v-1.3C140,13.7,140.5,13.7,140.5,13.7z M140.3,13.9v0.4h0.2
			c0.2,0,0.2-0.1,0.2-0.2s-0.1-0.2-0.2-0.2L140.3,13.9L140.3,13.9z"/>
	</g>
</g>
</svg>
