<?xml version="1.0" encoding="utf-8"?>
<!-- Generator: Adobe Illustrator 27.1.1, SVG Export Plug-In . SVG Version: 6.00 Build 0)  -->
<svg version="1.1" id="Layer_1" xmlns="http://www.w3.org/2000/svg" xmlns:xlink="http://www.w3.org/1999/xlink" x="0px" y="0px"
	 viewBox="0 0 158 48" style="enable-background:new 0 0 158 48;" xml:space="preserve">
<style type="text/css">
	.st0{fill:#FFFFFF;}
</style>
<g>
	<g>
		<path class="st0" d="M15.8,16.3l0.4,4.2l-0.6,0.1c-0.1-0.2-0.3-0.4-0.4-0.7c-0.8-1-1.4-1.8-2.1-2.2c-1.5-1.1-2.8-1.3-3.6-0.9
			c-0.7,0.3-0.8,1.2-0.2,1.8c0.2,0.2,0.3,0.3,0.7,0.5l3.8,2c2.8,1.4,3.8,3.6,3.5,6c-0.5,3.4-3.3,5.3-9.5,4.7
			c-0.8-0.1-1.5-0.2-2.1-0.3c-1.4-0.4-2.1-0.7-2.8-1.2v-4.6h0.6l0.6,1C5,28.3,6,29.3,7,29.9c1.9,1.1,3.1,0.5,3.3-0.4
			c0.2-0.7-0.1-1.3-1.1-2c-0.2-0.1-0.3-0.2-0.4-0.3l-3.1-1.6c-0.3-0.2-0.7-0.4-0.9-0.7c-1.6-1.4-2.2-2.8-2.2-4.6
			c0.2-3.6,3.1-6,9.5-5.1C13.4,15.5,14.6,15.8,15.8,16.3z M17.9,45.1v-0.9l1-0.3c0.1,0,0.3-0.1,0.4-0.2c0.4-0.3,0.7-0.7,0.7-1.7
			V19.3l-2-0.9v-0.6c2.5-0.3,4.8-0.9,7.1-1.6c0.7-0.2,1.3-0.4,2-0.7h0.6v2c0.8-0.7,1.5-1.3,2.6-1.7c0.4-0.2,0.9-0.3,1.3-0.4
			c4.7-1.1,8.8,2.8,8.2,7.8c-0.1,1-0.4,2.1-0.9,3.2c-1.6,3.4-4.5,5.4-8.5,5.5h-1.1l-1.6-0.2v10.4c0,0.9,0.5,1.6,1,1.7l1.4,0.3v0.9
			C30.1,45,17.9,45.1,17.9,45.1z M28,29.5c0.5,1.1,1.8,1.4,2.6,0.5c0.8-0.9,1.2-2.1,1.2-5.1c0-0.7,0-1.4-0.2-2
			c-0.5-3.8-1.9-5.1-3-4.9c-0.8,0.2-1,0.5-1,1.9V27C27.7,28.4,27.8,29,28,29.5z"/>
		<path class="st0" d="M40,18.5v-0.6c0.9-0.2,1.7-0.3,2.6-0.5c2.2-0.4,4.3-1.8,6.5-1.8h0.5v13.3c0.1,0.9,0.4,1.2,0.9,1.4
			c0.1,0,0.2,0.1,0.2,0.1l0.7,0.2v0.9H40.1v-0.9l0.8-0.2c0.1,0,0.1-0.1,0.3-0.1c0.8-0.3,1.1-0.9,1.1-1.9v-9.3L40,18.5z M53.4,18.5
			v-0.6c2.5-0.3,4.8-0.9,7.1-1.6c0.7-0.2,1.3-0.4,2-0.7h0.6v1.9l2.4-1.1c0.9-0.4,1.7-0.6,2.5-0.8c3.1-0.5,5.3,0.5,6.1,2.5
			c0.3,0.6,0.3,1.2,0.3,1.8v9.4c0,0.8,0.7,1.3,1.4,1.4h0.4v0.9H65.4v-0.9l0.6-0.2c0.7-0.2,0.9-0.7,0.9-2v-8.3c0-1.1-0.5-1.7-1.4-1.9
			c-0.2,0-1,0.1-1.3,0.2c-0.7,0.4-0.9,0.9-0.9,1.9v8.2c0,0.5,0.1,0.9,0.2,1.1c0.1,0.3,0.3,0.5,0.5,0.7l0.6,0.3v0.9H53.5v-0.9h0.4
			c0.2,0,0.3-0.1,0.5-0.2l0.3-0.1c0.5-0.3,0.8-0.6,0.9-1.4v-9.6L53.4,18.5z M87.7,15.9V9.1l-2.1-0.9l0.1-0.6c1.7-0.3,3.5-0.6,5.1-1
			c1.4-0.3,2.6-1.3,3.9-1.3h0.6v23.5l2.1,0.9v0.5l-9.2,1.4l-0.5-0.1v-2c0,0-1.4,0.9-1.8,1.1c-5.1,2.6-9.5-0.1-10-5.4
			c-0.1-0.5-0.1-1-0.1-1.5c0.2-5.1,3.7-8.5,8.5-8.7c0.7,0,1.3,0,2.2,0.3C86.5,15.6,87.7,15.9,87.7,15.9z M87.7,20.2
			c0-1.6-0.3-2.3-0.5-2.7c-0.6-0.9-1.8-1.1-2.5-0.2c-0.7,0.8-1,2-1.2,4.7c0,0.8-0.2,3.7,0.8,5.2c0.9,1.5,2.3,2,3.2,1
			c0.1-0.1,0.1-0.2,0.2-0.2V20.2z M97.7,18.5v-0.6c3.1-0.5,6.2-1.3,9.2-2.3h0.5v2.9l1.6-1.7c0.8-0.8,1.4-1,2-1.2
			c1.8-0.3,3.1,0.5,3.5,2c0.2,0.7,0.1,1.4-0.3,2c-0.5,1-1.4,1.6-2.6,1.5c-1.6,0-2.7-1.6-2.7-1.6c-0.3-0.2-0.5-0.3-0.7-0.2
			c-0.1,0.1-0.3,0.3-0.3,0.4l-0.3,0.6c-0.1,0.3-0.2,0.6-0.2,1v7.1c0,1.2,0.4,1.7,1.3,2l0.8,0.2v0.9H97.7v-0.9c0,0,1-0.3,1.1-0.3
			c0.7-0.3,1-0.8,1-1.8v-9.2L97.7,18.5z M115,18.5v-0.6c0.9-0.2,1.7-0.3,2.6-0.5c2.2-0.4,4.3-1.8,6.5-1.8h0.5v13.3
			c0.1,0.9,0.4,1.2,0.9,1.4c0.1,0,0.2,0.1,0.2,0.1l0.7,0.2v0.9h-11.6v-0.9l0.8-0.2c0.1,0,0.2-0.1,0.3-0.1c0.8-0.3,1.1-0.9,1.1-1.9
			v-9.3L115,18.5z M127.7,31.5v-0.9l0.8-0.2c0.1,0,0.2-0.1,0.3-0.1c0.7-0.3,0.9-0.7,1.1-1.4c0-0.2,0.1-0.3,0.1-0.4V17.6h-2l0.4-2
			h1.5l0.1-0.9c0.2-1,0.6-2.5,1.4-4c1.9-3.1,4.3-4.8,7.1-5.2c3.4-0.5,5.5,0.4,6.3,1.6c0.7,1,0.3,2.5-0.9,3.1
			c-0.3,0.1-0.4,0.2-0.7,0.3c-2.5,0.7-3.9-0.6-4-2.5V7.6c0-0.4-0.2-0.6-0.4-0.6c-0.2,0-0.4,0.2-0.6,0.5c-0.2,0.3-0.3,0.6-0.3,1.4
			v6.8h3.4l-0.5,2h-3.1v10.9c0,1.2,0.3,1.7,1.2,2l0.7,0.2v0.9L127.7,31.5z"/>
		<path class="st0" d="M141.9,16.7c3.1-1.7,6.1-3.7,8.9-5.9L151,11v4.6h4.3l-0.5,1.7H151V28c0,1.3,0.9,2.1,2.3,1.4l1-0.5v0.9
			c-0.8,0.7-1.7,1.1-3,1.5c-0.5,0.2-1,0.3-1.7,0.3c-4.9,0.3-6.2-0.9-6.2-4.6v-9.7H142L141.9,16.7z"/>
		<path class="st0" d="M118,7.5h0.4v0.1h0.3v0.1l0.3-0.1C118.5,7.6,118.4,7.1,118,7.5z M117.7,7.1v0.2l0.3,0.1L117.7,7.1z
			 M117.6,8.2l-0.1-0.4l-0.2-0.1c0.1,0.4,0.2,0.9,0.5,1L117.6,8.2z M121.9,8.9c0.1-0.2,0.1-0.3,0-0.5l-0.3,0.9
			C121.8,9.2,121.8,9,121.9,8.9z M121.5,7.7c-0.1,0.2-0.1,0.3,0.1,0.4L121.5,7.7z M121.7,7.8c-0.1,0.2,0.1,0.3,0.2,0.5L121.7,7.8z
			 M117.6,12.3c-0.3-0.1-0.6-0.2-0.7-0.3h-0.3l1.1,0.4c0.2,0,0.3,0.1,0.4,0C118.1,12.6,117.9,12.4,117.6,12.3z"/>
		<path class="st0" d="M117,12.1C116.6,11.9,117.6,12,117,12.1L117,12.1z M122.5,11l-0.5,0.4c0.4-0.3,0.8-0.6,1-0.9l-0.2,0.1
			C122.7,10.7,122.7,10.9,122.5,11z"/>
		<path class="st0" d="M118.1,10.3c0.5,0.3,0.9,0.3,1.4,0.3c0.9,0.3,1.8-0.3,2.1-0.9c0.3-0.5,0.7-1.4,0.1-1.9l-0.1,0.1l-0.1-0.2
			c-0.3-0.5-0.5-0.9-0.9-1.1c0-0.1-0.2,0.1-0.3,0.1h-0.2c-0.2,0.1-0.5,0.1-0.5,0.4c-0.1,0.1-0.2,0.1-0.2,0.2l-0.2-0.1
			c-0.3,0-0.4,0-0.5,0.2h-0.1v0.1c-0.4-0.2-0.5-0.6-0.9-0.3V7.1c-0.1-0.1-0.1-0.2-0.3-0.3v0.2h-0.3V6.8l-0.1-0.1
			c-0.2-0.3-0.1-0.6-0.3-0.6c-0.1,0-0.2,0.2-0.1,0.4h-0.1c0-0.3-0.3-0.1-0.3-0.3c0-0.3,0.2-0.4,0.3-0.6c0.4-0.9,1.1-1.3,1.8-1.8h0.1
			c0.4-0.2,0.9-0.3,1.3-0.3l-0.1,0.1c0.3,0,0.7,0.1,1,0.1c0.9-0.1,1.8,0.4,2.5,1.1c0.8,0.8,1.1,1.8,1.3,2.9
			c-0.1-0.4-0.3-0.9-0.4-1.4c0.3,0.8,0.2,1.5,0.3,2.2l-0.1,0.1c-0.1,0.5-0.3,0.9-0.4,1.3c0,0-0.1,0.2,0,0.2
			c-0.3,0.3-0.4,0.9-0.8,1.1l-0.3,0.5c-1.2,1.2-3,1.6-4.9,1.3c-0.5-0.1-0.9-0.4-1.4-0.7c0.7,0.3,1.4,0.5,2.1,0.5
			c0.7,0.2,1.4,0.3,1.9-0.1l0.3-0.2c-0.7,0.3-1.4,0.3-2.2,0.3c-0.4-0.2-0.9-0.2-1.2-0.4c0.3,0.2,0.6,0.1,0.9,0.2
			c0.6,0.2,1.2,0.3,1.6,0.1l0.2-0.1l0.3-0.2c-0.4,0.2-0.9,0.3-1.3,0.2l-0.9-0.1l-0.5-0.2h0.1c0.2,0,0.7-0.3,0.5-0.5
			c-1-0.2-2.3-1.1-2.2-1.2c0-0.1,1.6,0.8,1.5,0.6l-0.3-0.2l0.3,0.1c0.2,0.1,0.3,0.3,0.5,0.2c0.5-0.2,0.9,0,1.4-0.1
			c0.3-0.2,0.6-0.3,0.9-0.6c0-0.1,0.2-0.1,0.1-0.2c0.3,0,0.6-0.1,0.5-0.4V10c0.3-0.3,0.5-0.5,0.6-0.9l0.2-0.3c0,0.1-0.2,0.2-0.2,0.3
			v0.1c-0.1,0.3-0.3,0.4-0.5,0.8v0.2h-0.1v0.1c-0.2,0.3-0.6,0.3-0.8,0.5c-0.5,0.3-1.1,0.1-1.6-0.1l0.9-0.1h-1.1l-0.3-0.2l0.2,0.2
			l-0.3,0.1c-1-0.3-1.8-1.4-1.9-2.6l0.2,0.1c0.1,0.5,0.2,1,0.7,1.2c-0.2-0.3-0.3-0.3-0.4-0.6h0.1l-0.2-0.6l0.3,0.2
			c0.1,0.1,0.1,0.2,0.2,0.3c0.3,0.5,0.6,1,1,1.3c0.4,0.3,0.8,0.6,1.3,0.6C119.1,10.6,118.7,10.5,118.1,10.3z M118.7,6
			c-0.3,0-0.3,0.4-0.4,0.7C118.5,6.5,118.5,6.1,118.7,6z M122.8,7.3c-0.3-0.3-0.3-0.7-0.6-0.9c-0.1-0.1-0.3-0.1-0.3-0.2
			c-0.1-0.1-0.2-0.2-0.3-0.2v0.1c-0.2-0.2-0.4,0-0.5-0.2L121,6.1C120.9,6,120.7,6,120.6,6l-0.3,0.1l-0.1,0.1L120,6.3l0.1-0.1
			l0.4-0.1c0.3-0.1,0.8,0.1,1.1,0.3l0.3,0.2c0.3,0.1,0.3,0.5,0.7,0.7C122.7,7.2,122.7,7.3,122.8,7.3z M124.6,7.7
			c-0.2-0.7-0.4-1.4-0.6-1.9c-0.3-0.4-1.3-1.4-1.4-0.8C123.8,4.8,124,8.2,124.6,7.7z M121.9,12.5c0.3-0.1,0.5-0.3,0.8-0.5
			C122.4,12.2,122.2,12.4,121.9,12.5z M123,9.7c-0.1,0.8-0.9,1.2-1.4,1.7c-0.5,0.3-1.2,0.3-1.7,0.4v0.1h0.1c0.3,0.1,0.4,0.1,0.6,0.1
			h0.1l0.4-0.1l0.2-0.1c0.8-0.1,1.4-0.8,1.8-1.4c0.2-0.3,0.2-0.8,0.3-1.2C123.2,9.4,123.1,9.6,123,9.7z"/>
		<path class="st0" d="M118.9,10.9c-0.3,0-0.4-0.2-0.6-0.3l-0.5-0.2c-0.8-0.4-1.4-1.4-1.4-2.4H116c0,1.2,0.8,2.2,1.7,3
			c0.5,0.1,1.2,0.6,1.8,0.4c0.6-0.1,1.1-0.2,1.5-0.5C120.3,11.2,119.6,11.1,118.9,10.9z M121.6,8.1c0,0.1,0.1,0.2,0,0.3
			c-0.2,0.2,0,0.6-0.3,0.9c0.2-0.1,0.3-0.3,0.3-0.5C121.9,8.5,121.8,8.3,121.6,8.1z"/>
		<path class="st0" d="M121.3,9.4l0.2-0.3c-0.3,0.2-0.4,0.4-0.8,0.5c-0.4,0.3-1.2,0.3-1.8,0.2l-0.3-0.1c0.9,0.9,2.7,0.8,3.1-0.4V9.2
			c-0.3,0.3-0.7,0.6-1.1,0.7C120.9,9.8,121.1,9.7,121.3,9.4z M119.1,10.9L119.1,10.9l-0.3-0.1l0.1,0.1H119.1z M120.5,12.1l0.6-0.2
			c0.3-0.2,0.5-0.2,0.8-0.4C121.5,11.7,121,11.8,120.5,12.1z M122.7,12.4l0.3-0.2l0.1-0.2l-0.3,0.2L122.7,12.4z M124.8,8.8
			c-0.1,1.2-0.7,2.5-1.6,3.2l-0.1,0.2c0.8-0.4,1.3-1.1,1.4-1.9c0.1-0.2,0.1-0.4,0.1-0.5c0.3-0.6,0.2-1.3,0.2-1.9V8.8z"/>
		<path class="st0" d="M42.7,7.4L42.7,7.4L42.7,7.4L42.7,7.4z"/>
		<path class="st0" d="M42.7,7.5h0.4v0.1h0.3v0.1l0.3-0.1C43.2,7.6,43.1,7.1,42.7,7.5z M42.4,7.1v0.2l0.3,0.1
			C42.7,7.3,42.6,7.2,42.4,7.1z M42.2,8.2l-0.1-0.4L42,7.7c0.2,0.4,0.2,0.9,0.5,1L42.2,8.2z M46.7,8.9c0.1-0.2,0.1-0.3,0-0.5
			l-0.3,0.9C46.6,9.2,46.6,9,46.7,8.9z M46.2,7.7c-0.1,0.2-0.1,0.3,0.1,0.4L46.2,7.7z M46.5,7.8c-0.1,0.2,0.1,0.3,0.2,0.5L46.5,7.8z
			 M42.4,12.3c-0.3-0.1-0.6-0.2-0.7-0.3h-0.3l1.1,0.4c0.2,0,0.3,0.1,0.4,0C42.7,12.6,42.6,12.4,42.4,12.3z"/>
		<path class="st0" d="M41.7,12.1C41.3,11.9,42.4,12,41.7,12.1L41.7,12.1z M47.2,11l-0.5,0.4c0.4-0.3,0.8-0.6,1-0.9l-0.2,0.1
			C47.4,10.7,47.3,10.9,47.2,11z"/>
		<path class="st0" d="M42.9,10.3c0.5,0.3,0.9,0.3,1.4,0.3c0.9,0.3,1.8-0.3,2.1-0.9c0.3-0.5,0.7-1.4,0.1-1.9l-0.1,0.1l-0.2-0.2
			c-0.3-0.5-0.5-0.9-0.9-1.1c0-0.1-0.2,0.1-0.3,0.1H45c-0.3,0.1-0.5,0.1-0.5,0.4c0,0-0.2,0.1-0.2,0.2l-0.2-0.1c-0.3,0-0.4,0-0.5,0.2
			h-0.1v0.1c-0.4-0.2-0.5-0.6-0.9-0.3V7.1c-0.1-0.1-0.1-0.2-0.3-0.3v0.2l-0.2-0.1V6.7l-0.1-0.1c-0.3-0.2-0.3-0.5-0.4-0.5
			c-0.1,0-0.2,0.2-0.1,0.4h-0.1c0-0.3-0.3-0.1-0.3-0.3c0-0.3,0.2-0.4,0.3-0.6c0.4-0.9,1.1-1.3,1.8-1.8h0.1c0.4-0.2,0.9-0.3,1.3-0.3
			l-0.1,0.1c0.3,0,0.7,0.1,1,0.1c0.9-0.1,1.8,0.4,2.5,1.1c0.8,0.8,1.1,1.8,1.3,2.9C49.3,7.4,49.1,7,49,6.5l-0.2-0.6l0.3,0.6
			c0.3,0.9,0.2,1.5,0.3,2.3l-0.1,0.1C49.3,9.4,49,9.7,49,10.1c0,0-0.1,0.2,0,0.2c-0.3,0.3-0.4,0.9-0.8,1.1l-0.3,0.5
			c-1.2,1.2-3,1.6-4.9,1.3c-0.5-0.1-0.9-0.4-1.4-0.7c0.7,0.3,1.4,0.5,2.1,0.5c0.7,0.2,1.4,0.3,1.9-0.1l0.3-0.2
			c-0.7,0.3-1.4,0.3-2.2,0.3c-0.4-0.2-0.9-0.2-1.2-0.4c0.3,0.2,0.7,0.1,0.9,0.2c0.6,0.2,1.2,0.3,1.6,0.1l0.2-0.1l0.3-0.2
			c-0.4,0.2-0.9,0.3-1.3,0.2l-0.9-0.1l-0.5-0.2H43c0.2,0,0.7-0.3,0.5-0.5c-1-0.2-2.3-1.1-2.2-1.2c0-0.1,1.6,0.8,1.5,0.6l-0.3-0.2
			l0.3,0.1c0.2,0.1,0.3,0.3,0.5,0.2c0.5-0.2,0.9,0,1.4-0.1c0.3-0.2,0.6-0.3,0.9-0.6c0-0.1,0.2-0.1,0.1-0.2c0.3,0,0.6-0.1,0.5-0.4
			v-0.1c0.3-0.3,0.5-0.5,0.6-0.9l0.2-0.3c-0.1,0.1-0.2,0.2-0.2,0.3v0.1c0.1,0.4-0.2,0.6-0.3,0.9v0.2h-0.1v0.1
			c-0.2,0.3-0.6,0.3-0.9,0.5c-0.5,0.3-1.1,0.1-1.6-0.1l0.9-0.1h-1.1l-0.3-0.2l0.2,0.2L43,10.5c-1-0.3-1.8-1.4-1.9-2.6l0.2,0.2
			c0.1,0.5,0.2,1,0.7,1.2c-0.2-0.3-0.3-0.3-0.4-0.6h0.1l-0.2-0.6l0.3,0.2c0.1,0.1,0.1,0.2,0.2,0.3c0.3,0.5,0.5,1,1,1.3
			c0.4,0.3,0.9,0.5,1.3,0.6C43.8,10.6,43.3,10.5,42.9,10.3z M43.4,6c-0.3,0-0.3,0.4-0.4,0.7C43.3,6.5,43.2,6.1,43.4,6z M47.5,7.3
			c-0.3-0.3-0.3-0.7-0.6-0.9c-0.1-0.1-0.3-0.1-0.3-0.2c-0.1-0.1-0.2-0.2-0.3-0.2v0.1c-0.2-0.2-0.4,0-0.5-0.2l-0.1,0.1
			C45.6,6,45.4,6,45.3,6L45,6.1l-0.1,0.1l-0.2,0.1l0.1-0.1l0.4-0.1C45.6,6,46,6.2,46.3,6.4l0.3,0.2c0.3,0.1,0.3,0.5,0.7,0.7
			C47.4,7.2,47.4,7.3,47.5,7.3z M49.4,7.7c-0.2-0.7-0.4-1.4-0.6-1.9c-0.3-0.4-1.3-1.4-1.4-0.8C48.6,4.8,48.8,8.2,49.4,7.7z
			 M46.6,12.5c0.3-0.1,0.5-0.3,0.8-0.5C47.2,12.2,46.9,12.4,46.6,12.5z M47.8,9.7c-0.1,0.8-0.9,1.2-1.4,1.7
			c-0.5,0.3-1.2,0.3-1.7,0.4v0.1h0.1C45,12,45.2,12,45.4,12h0.1l0.4-0.1l0.2-0.1c0.8-0.1,1.4-0.8,1.8-1.4c0.2-0.3,0.2-0.8,0.3-1.2
			C47.8,9.4,47.8,9.6,47.8,9.7z"/>
		<path class="st0" d="M43.6,10.9c-0.3,0-0.4-0.2-0.6-0.3l-0.5-0.2C41.7,10,41.1,9,41,8.1h-0.3c0,1.2,0.8,2.2,1.7,3
			c0.5,0.1,1.2,0.6,1.8,0.4c0.6-0.1,1.1-0.2,1.5-0.5C45,11.2,44.3,11.1,43.6,10.9z M46.3,8.1c0,0.1,0.1,0.2,0,0.3
			c-0.2,0.2,0,0.6-0.3,0.9c0.2-0.1,0.3-0.3,0.3-0.5C46.6,8.5,46.5,8.3,46.3,8.1z"/>
		<path class="st0" d="M46,9.4l0.1-0.3c-0.3,0.2-0.4,0.4-0.8,0.5c-0.4,0.3-1.2,0.3-1.8,0.2l-0.3-0.1c0.9,0.9,2.7,0.8,3.1-0.4V9.2
			c-0.3,0.3-0.7,0.6-1.1,0.7C45.6,9.8,45.8,9.7,46,9.4z M43.9,10.9l-0.2-0.1h-0.2l0.1,0.1H43.9z M45.3,12.1l0.6-0.2
			c0.3-0.2,0.5-0.2,0.8-0.4C46.2,11.7,45.7,11.8,45.3,12.1z M47.4,12.4l0.3-0.2l0.1-0.2l-0.2,0.2L47.4,12.4z M49.5,8.8
			c-0.1,1.2-0.7,2.5-1.6,3.2l-0.1,0.2c0.8-0.4,1.3-1.1,1.4-1.9c0.1-0.3,0.1-0.4,0.2-0.6c0.3-0.6,0.2-1.3,0.2-1.9L49.5,8.8z"/>
		<path class="st0" d="M155.7,12.2c0,0.9-0.7,1.5-1.5,1.5c-0.9,0-1.5-0.7-1.5-1.5c0-0.9,0.7-1.5,1.5-1.5
			C155,10.7,155.7,11.3,155.7,12.2z M153.1,12.2c0,0.7,0.5,1.2,1.2,1.2c0.6,0,1.2-0.5,1.2-1.2c0-0.7-0.5-1.2-1.2-1.2
			S153.1,11.5,153.1,12.2z M154.3,11.3c0.3,0,0.6,0.1,0.6,0.4c0,0.3-0.2,0.3-0.3,0.4l0.3,0.8h-0.3l-0.3-0.7H154v0.7h-0.3v-1.6H154.3
			z M154,11.6v0.5h0.3c0.2,0,0.3-0.1,0.3-0.3c0-0.2-0.1-0.3-0.3-0.3H154z"/>
	</g>
</g>
</svg>
