<?xml version="1.0" encoding="utf-8"?>
<!-- Generator: Adobe Illustrator 27.1.1, SVG Export Plug-In . SVG Version: 6.00 Build 0)  -->
<svg version="1.1" id="Layer_1" xmlns="http://www.w3.org/2000/svg" xmlns:xlink="http://www.w3.org/1999/xlink" x="0px" y="0px"
	 viewBox="0 0 158 48" style="enable-background:new 0 0 158 48;" xml:space="preserve">
<style type="text/css">
	.st0{fill:#FFFFFF;}
</style>
<g>
	<g>
		<path class="st0" d="M121,36.5c0.6,0,1.2,0.6,1.2,1.2c0,0.6-0.6,1.2-1.2,1.2c-0.3,0-0.6-0.2-0.9-0.3c-0.2-0.2-0.3-0.6-0.3-0.9
			C119.8,37.1,120.3,36.5,121,36.5z M121,38.7c0.5,0,0.9-0.4,0.9-0.9s-0.4-0.9-0.9-0.9c-0.5,0-0.9,0.4-0.9,0.9
			C120.1,38.3,120.5,38.7,121,38.7z M120.5,37.1h0.4c0.3,0,0.6,0.1,0.6,0.4c0,0.2-0.2,0.4-0.3,0.4l0.3,0.5h-0.3l-0.3-0.5h0v0.5h-0.3
			V37.1L120.5,37.1z M120.8,37.6h0.2c0.1,0,0.2,0,0.2-0.2s-0.2-0.2-0.2-0.2h-0.2V37.6z M79.3,31.3c-0.3,0-0.6-0.2-0.9-0.6
			c-0.2-0.4-0.2-1-0.2-1.9l0.2-15.1c0-0.2,0.1-0.9-0.6-0.8c-0.6,0.1-4.3,0.9-5,0.9c-0.6,0.1-0.6,0.2-0.5,0.6c0,0.1,0,0.2,0.2,0.3
			c0.2,0.1,0.3,0.2,0.5,0.2c0.6,0.3,0.9,1,1.2,1.7c0.1,0.2,0.1,0.5,0.1,0.7c0,0.3-0.2,10.2-0.2,12.3c-0.1,1.5,0.2,2.5,0.7,3.1
			c0.4,0.4,0.9,0.6,1.8,0.6c0.2,0,0.2,0,0.4,0c1.4-0.1,2.3-0.6,2.8-1.2C80.1,31.7,79.8,31.3,79.3,31.3 M105.1,10c-0.1,0-0.1,0-0.2,0
			c-0.8,0.1-1.3,0.7-1.3,1.5c0,0.6,0.2,1,0.7,1.5c0.4,0.5,0.3,0.9,0.2,1.1c-0.1,0.4-0.2,0.7-0.3,1v0.1c-0.1,0.2-0.1,0.3,0.1,0.4h0.1
			c0.2,0,0.3-0.1,0.5-0.2c0.6-0.5,1.7-2,1.7-3.7C106.6,10.4,105.8,10,105.1,10z M104.1,27.9c-1-0.2-1.2-1.2-1.2-2c0-1,0.2-4,0.2-6.7
			c0.1-1.7-0.2-3-0.9-3.6c-0.6-0.6-1.3-0.8-2.2-0.8l0,0c-1.5,0-2.6,0.9-3.1,1.3l-0.1,0.1c-0.2,0.1-0.2,0.2-0.4,0.2
			c-0.1,0-0.4-0.1-0.4-0.6v-4.7c0-0.6-0.2-0.6-0.7-0.6c-1.6,0.2-3.2,0.3-4.7,0.5c-0.4,0.1-0.4,0.2-0.4,0.6c0,0.2,0,0.4,0.5,0.6
			c0.5,0.2,1.2,0.7,1.2,2.4v15.8c0,0.6,0.6,0.6,0.9,0.6l2.4-0.3c0.6-0.1,0.9,0,0.9-0.8L96,20.6c0-1.7,0.7-3.2,1.8-3.2h0.1
			c1,0.1,1.2,1.6,1.1,2.4c0,1.5-0.2,5.2-0.2,7.2c0.1,1.9,0.8,2.8,2.6,2.8h0.2c1,0,1.9-0.2,2.5-0.7c0.2-0.2,0.4-0.4,0.4-0.6
			C104.6,28.2,104.5,27.9,104.1,27.9 M90,27.4c-0.2,0-0.3,0.1-0.6,0.3c-0.6,0.6-1.3,0.9-2,0.9c-0.1,0-0.2,0-0.3,0
			c-1.8-0.2-2.8-2.2-2.4-5.6c0.2-2.9,1.1-4.8,2.4-5c0.3,0,0.6,0.1,0.9,0.4c0.3,0.4,0.4,1,0.3,1.8c-0.1,0.7,0,0.9,0.2,1
			c0.2,0.1,0.5,0,0.7-0.2c0.8-0.6,1.6-2.6,0.9-3.7c-0.4-0.7-1.2-1.1-2.2-1.2c-0.5-0.1-1,0-1.7,0.1c-2.8,0.6-5.7,3.6-6,8.6
			c-0.2,4,1.4,6.5,4.5,6.9c0.2,0,0.5,0,0.7,0c0.9,0,1.9-0.3,2.8-0.8c0.8-0.6,1.5-1.3,1.9-2.1c0.2-0.6,0.4-1.2,0.2-1.3
			C90.1,27.4,90.1,27.4,90,27.4 M70.4,19.5c-0.3-0.1-0.7-0.1-1,0c-3.5,0.2-6.9,4.3-7.4,9.1c-0.5,3.7,1,6.2,3.8,6.5
			c0.3,0.1,0.7,0.1,1,0.1c2.8-0.1,4.7-2,5.3-3.3c0.4-0.8,0.4-1.3,0.2-1.5c-0.1-0.1-0.1-0.1-0.2-0.1c-0.2,0-0.3,0.1-0.6,0.4l-0.1,0.1
			c-0.3,0.4-1.1,0.9-2.3,1c-0.2,0-0.5,0-0.7,0c-1-0.2-1.8-0.9-2.1-2c-0.1-0.2-0.1-0.2,0-0.4c0-0.1,0.1-0.2,0.3-0.2
			c0.4-0.2,0.9-0.4,1.6-0.7c1.5-0.7,4-2.4,4.7-5.1c0.2-0.9,0.1-2-0.3-2.7C72.1,20,71.4,19.7,70.4,19.5 M69,25.9
			c-0.6,0.7-1.3,1.3-2.2,1.7l0,0c-0.1,0.1-0.2,0.1-0.3,0.1c-0.2,0-0.3-0.2-0.3-0.6c0-0.9,0.3-2.2,0.6-3c0.7-1.8,1.7-2.9,2.7-2.8
			c0.1,0,0.1,0,0.2,0c0.4,0.1,0.7,0.4,0.8,0.9C70.5,23.2,70,24.7,69,25.9 M64.8,16.4c0-0.2,0-0.2,0-0.4c0-0.1-0.1-0.2-0.2-0.3
			c-0.2-0.2-0.6-0.4-1-0.4c-0.2,0-0.5,0.1-0.6,0.1c-1.8,0.6-2.6,3.2-3.3,5.9c-0.5,2-0.9,4.3-1.1,5.2L58.5,27
			c-0.1,0.3-0.2,0.7-0.5,0.7l0,0c-0.3,0-0.4-0.4-0.5-0.6c-0.4-1.6-2.1-9.5-2.2-9.7c-0.2-0.7-0.3-0.7-0.9-0.6l-1.2,0.2
			c-0.6,0.1-0.9,0-0.9,0.6C52.1,18,50,28,50,28c-0.1,0.2-0.2,0.6-0.4,0.6l0,0c-0.3,0-0.4-0.3-0.4-0.5l0,0c0-0.2-2.3-7.5-2.3-7.5
			c-0.2-0.8,0.1-1.7,0.7-2c0.5-0.2,0.5-0.4,0.5-0.8c0-0.5-0.3-0.4-0.6-0.4c-0.1,0-1.8,0-3.6-0.1C42,17.1,40,16.7,40,16.7
			s-0.4-0.2-0.4,0.3c-0.1,0.5-0.1,0.6,0.6,1c0.5,0.2,1.4,0.8,2,2.4c0.3,0.9,4.1,14.3,4.3,14.7c0.2,0.7,0.3,1,0.9,1.1
			c0.5,0.1,1,0.1,1.5,0.1c0.9,0,0.9,0,1.2-0.9l2.1-9.1c0.1-0.2,0.2-0.6,0.4-0.6l0,0l0,0c0.3,0,0.4,0.3,0.4,0.5l0,0
			c0.1,0.2,2,8,2.1,8.7c0.3,1,0.4,1.3,1,1.3l1.4-0.1c0.6-0.1,0.6,0,0.9-1.2c0.2-0.6,0.4-1.5,0.6-2.5l1.1-4.3c1.7-6.8,3-9.4,4.2-10.7
			C64.7,17.1,64.8,16.7,64.8,16.4 M112.6,20.2L112.6,20.2c-1.7-1.3-2.4-2-2.4-3.2c0-0.7,0.6-1.3,1.3-1.3c0.2,0,0.3,0,0.4,0.1
			c0.7,0.2,1.3,0.9,1.8,2c0.5,1.1,0.7,1.3,1,1.2c0.1,0,0.4,0,0.4-0.7c0-0.5,0-0.6-0.1-1v-0.1c-0.1-0.8-0.2-1.3-0.8-1.9
			s-1.7-1.2-2.8-1.3c-0.4-0.1-0.9-0.2-1.3-0.2c-1.2,0-2.2,0.5-2.9,1.3c-0.7,0.8-1,1.8-1,3c0.1,2.3,1.8,3.8,3.2,4.9l0.2,0.1
			c1.8,1.5,2.3,2.3,2.1,3.3c-0.1,0.7-0.7,1.3-1.4,1.3c-0.2,0-0.4,0-0.6-0.1c-1.1-0.3-1.7-1.5-2-2.3l-0.2-0.4
			c-0.2-0.4-0.5-0.6-0.8-0.6c-0.2,0-0.3,0.1-0.5,0.2c-0.2,0.2-0.6,0.8-0.3,1.8c0.6,1.7,2.2,2.8,4.4,3.1c0.3,0.1,0.6,0.1,0.9,0.1
			c2.4,0,4.2-1.6,4.3-3.9C116.2,23,114.3,21.5,112.6,20.2 M119.1,39.2c0-0.5-0.8-1.2-1.8-1.6c-0.7,0.5-8.5,5-35.2,1.3l-2.1,0.4
			C115.2,45.3,119.1,40.1,119.1,39.2L119.1,39.2z M36.1,7.2c0,0.5,0.8,1.2,1.7,1.6c0.7-0.5,8.5-5,35.2-1.3l2.1-0.4
			C40,1.1,36.1,6.4,36.1,7.2z"/>
		<path class="st0" d="M117.3,37.6c1,0.4,1.8,1.1,1.8,1.6V36c0,0,0-0.1,0-0.2c0-0.2-0.2-0.6-0.6-1c-0.8-0.7-2.6-1.3-5.4-1.7
			c-5-0.6-13,0.2-26.8,2.4l-1.5,0.2l-1,0.2l-1,0.2c-9.4,1.7-17.4,3.8-28.1,4.1c-8.9,0.2-13.2-0.6-15.9-1.7c-1.3-0.5-2.2-1.3-2.4-2.4
			v1.3c0,0.1,0,0.1,0,0.2c0.2,0.8,1.4,1.7,2.3,2.1c0,0,5.5,3.1,21.2,2c8.8-0.5,20.1-2.5,20.1-2.5l2.2-0.4c3.5-0.6,10.6-1.7,17.2-2.2
			c13.5-0.9,17.9,0.9,17.9,0.9S117.2,37.6,117.3,37.6 M37.9,8.8c-1-0.4-1.7-1.1-1.7-1.6l0,0v0.2v3c0,0,0,0.1,0,0.2
			c0,0.2,0.2,0.6,0.6,1c0.8,0.7,2.6,1.3,5.4,1.7c5,0.6,13-0.2,26.8-2.4l1.5-0.2l1.1-0.2l1-0.2c9.3-1.7,17.4-3.8,28.1-4.1
			c8.9-0.2,13.2,0.6,15.9,1.7c1.3,0.5,2.2,1.3,2.5,2.4V8.8c0-0.1,0-0.1,0-0.2c-0.2-0.8-1.4-1.7-2.3-2.1c0,0-5.5-3.1-21.2-2
			c-9,0.6-20.3,2.7-20.3,2.7l-2.2,0.4C69.7,8.1,62.5,9.2,56,9.7c-13.5,0.9-17.9-0.8-17.9-0.8S38,8.9,37.9,8.8"/>
	</g>
</g>
</svg>
