<?xml version="1.0" encoding="utf-8"?>
<!-- Generator: Adobe Illustrator 27.1.1, SVG Export Plug-In . SVG Version: 6.00 Build 0)  -->
<svg version="1.1" id="Layer_1" xmlns="http://www.w3.org/2000/svg" xmlns:xlink="http://www.w3.org/1999/xlink" x="0px" y="0px"
	 viewBox="0 0 158 48" style="enable-background:new 0 0 158 48;" xml:space="preserve">
<style type="text/css">
	.st0{fill:#FFFFFF;}
</style>
<g>
	<g>
		<path class="st0" d="M132.2,40.1c0.8,0,1.5,0.7,1.5,1.5s-0.7,1.5-1.5,1.5c-0.4,0-0.8-0.2-1.1-0.4c-0.3-0.3-0.4-0.7-0.4-1.1
			C130.7,40.8,131.4,40.1,132.2,40.1z M132.2,42.8c0.6,0,1.1-0.5,1.1-1.2c0-0.7-0.5-1.2-1.1-1.2c-0.6,0-1.1,0.5-1.1,1.2
			C131.1,42.3,131.6,42.8,132.2,42.8z M131.6,40.8h0.5c0.4,0,0.7,0.1,0.7,0.5c0,0.3-0.2,0.5-0.4,0.5l0.4,0.6h-0.4l-0.4-0.6H132v0.6
			h-0.4L131.6,40.8L131.6,40.8z M132,41.5h0.2c0.1,0,0.3,0,0.3-0.2c0-0.2-0.2-0.2-0.3-0.2H132V41.5z M79.4,33.5
			c-0.4,0-0.8-0.2-1.2-0.7c-0.3-0.5-0.2-1.3-0.2-2.4l0.2-19.1c0-0.3,0.1-1.1-0.7-1c-0.7,0.1-5.5,1.1-6.3,1.2
			c-0.7,0.1-0.7,0.2-0.6,0.7c0,0.1,0,0.3,0.2,0.4c0.2,0.1,0.4,0.2,0.6,0.3c0.8,0.4,1.2,1.3,1.5,2.1c0.1,0.3,0.1,0.6,0.1,0.9
			c0,0.4-0.2,12.9-0.3,15.6c-0.1,1.9,0.2,3.2,0.9,3.9c0.5,0.5,1.2,0.8,2.3,0.8c0.2,0,0.3,0,0.5,0c1.8-0.1,2.9-0.8,3.5-1.5
			C80.4,34,80,33.5,79.4,33.5 M112.1,6.4c-0.1,0-0.1,0-0.2,0c-1,0.1-1.7,0.9-1.7,1.9c0,0.7,0.3,1.3,0.9,1.9c0.5,0.6,0.4,1.2,0.3,1.4
			c-0.1,0.5-0.3,0.9-0.4,1.3l0,0.1c-0.1,0.2-0.1,0.4,0.1,0.5c0,0,0.1,0,0.1,0c0.2,0,0.4-0.1,0.6-0.3c0.7-0.6,2.2-2.5,2.2-4.7
			C114,7,113,6.4,112.1,6.4z M110.8,29.1c-1.3-0.2-1.5-1.5-1.5-2.6c0-1.3,0.2-5.1,0.3-8.5c0.1-2.1-0.3-3.8-1.2-4.6
			c-0.7-0.7-1.6-1-2.8-1h0c-1.9,0-3.3,1.2-3.9,1.7l-0.1,0.1c-0.2,0.1-0.3,0.2-0.5,0.2c-0.1,0-0.5-0.1-0.5-0.7l0-5.9
			c0-0.7-0.2-0.8-0.9-0.7c-2,0.2-4,0.4-6,0.6c-0.5,0.1-0.5,0.3-0.5,0.7c0,0.3,0,0.5,0.6,0.7c0.6,0.2,1.5,0.9,1.5,3l0,20.1
			c0,0.8,0.7,0.7,1.1,0.7l3.1-0.4c0.8-0.1,1.1,0,1.1-1l-0.1-11.6c0-2.2,0.9-4,2.3-4c0,0,0.1,0,0.1,0c1.3,0.1,1.5,2,1.4,3.1
			c0,1.9-0.3,6.6-0.2,9.1c0.1,2.4,1,3.5,3.3,3.6l0.2,0c1.3,0,2.4-0.3,3.2-0.9c0.3-0.3,0.5-0.5,0.5-0.8
			C111.4,29.5,111.3,29.2,110.8,29.1 M92.9,28.5c-0.2,0-0.4,0.1-0.8,0.4c-0.8,0.7-1.6,1.1-2.6,1.1c-0.1,0-0.3,0-0.4,0
			c-2.3-0.2-3.5-2.8-3.1-7.1c0.3-3.7,1.4-6.1,3-6.3c0.4,0,0.8,0.1,1.1,0.5c0.4,0.5,0.5,1.3,0.4,2.3c-0.1,0.9,0,1.2,0.3,1.3
			c0.2,0.1,0.6,0,0.9-0.2c1-0.7,2-3.3,1.2-4.7c-0.5-0.9-1.5-1.4-2.8-1.5c-0.6-0.1-1.3,0-2.1,0.1c-3.6,0.8-7.2,4.6-7.6,10.9
			c-0.3,5.1,1.8,8.3,5.7,8.7c0.3,0,0.6,0,0.9,0c1.2,0,2.4-0.4,3.5-1c1-0.7,1.9-1.6,2.4-2.7c0.3-0.7,0.5-1.5,0.3-1.7
			C93.1,28.5,93,28.5,92.9,28.5 M68.1,18.5c-0.4-0.1-0.9-0.1-1.3,0c-4.5,0.3-8.7,5.4-9.4,11.5c-0.6,4.7,1.3,7.9,4.8,8.3
			c0.4,0.1,0.9,0.1,1.3,0.1c3.5-0.1,5.9-2.6,6.7-4.2c0.5-1,0.5-1.7,0.3-1.9c-0.1-0.1-0.1-0.1-0.2-0.1c-0.2,0-0.4,0.1-0.8,0.5
			l-0.1,0.1c-0.4,0.5-1.4,1.1-2.9,1.3c-0.3,0-0.6,0-0.9,0c-1.3-0.2-2.3-1.1-2.7-2.5c-0.1-0.2-0.1-0.3,0-0.5c0-0.1,0.1-0.3,0.4-0.3
			c0.5-0.2,1.1-0.5,2-0.9c1.9-0.9,5.1-3,5.9-6.5c0.3-1.2,0.1-2.5-0.4-3.4C70.2,19.2,69.3,18.7,68.1,18.5 M66.3,26.6
			c-0.8,0.9-1.7,1.6-2.8,2.2l0,0c-0.1,0.1-0.3,0.1-0.4,0.1c-0.3,0-0.4-0.3-0.4-0.7c0-1.2,0.4-2.8,0.7-3.8c0.9-2.3,2.2-3.7,3.4-3.5
			c0.1,0,0.1,0,0.2,0c0.5,0.1,0.9,0.5,1,1.1C68.2,23.2,67.6,25.1,66.3,26.6 M61,14.6c0-0.2,0-0.3,0-0.5c0-0.1-0.1-0.3-0.2-0.4
			c-0.3-0.3-0.7-0.5-1.3-0.5c-0.3,0-0.6,0.1-0.8,0.1c-2.3,0.8-3.3,4-4.2,7.5c-0.6,2.5-1.2,5.5-1.4,6.6L52.9,28
			c-0.1,0.4-0.2,0.9-0.6,0.9h0c-0.4,0-0.5-0.5-0.6-0.8c-0.5-2-2.7-12-2.8-12.3c-0.2-0.9-0.4-0.9-1.2-0.8l-1.5,0.2
			c-0.8,0.1-1.1,0-1.2,0.7c-0.2,0.7-2.8,13.4-2.8,13.4c-0.1,0.3-0.2,0.7-0.5,0.8h0c-0.4,0-0.5-0.4-0.5-0.6l0,0
			c0-0.2-2.9-9.5-2.9-9.5c-0.3-1,0.1-2.2,0.9-2.6c0.6-0.3,0.6-0.5,0.6-1c0-0.6-0.4-0.5-0.8-0.5c-0.1,0-2.3,0-4.6-0.1
			C32,15.5,29.5,15,29.5,15S29,14.8,29,15.4c-0.1,0.6-0.1,0.8,0.8,1.3c0.6,0.3,1.8,1,2.5,3.1c0.4,1.1,5.2,18.2,5.4,18.7
			c0.3,0.9,0.4,1.3,1.1,1.4c0.6,0.1,1.3,0.1,1.9,0.1c1.1,0,1.2,0,1.5-1.2l2.7-11.5c0.1-0.2,0.2-0.7,0.5-0.7h0h0
			c0.4,0,0.5,0.4,0.5,0.6l0,0c0.1,0.2,2.5,10.2,2.7,11.1c0.4,1.3,0.5,1.7,1.3,1.6l1.8-0.1c0.8-0.1,0.7,0,1.1-1.5
			c0.2-0.7,0.5-1.9,0.8-3.2l1.4-5.5c2.2-8.6,3.8-11.9,5.3-13.6C60.8,15.4,60.9,15,61,14.6 M121.6,19.4L121.6,19.4
			c-2.1-1.6-3.1-2.6-3-4c0-0.9,0.7-1.6,1.6-1.6c0.2,0,0.4,0,0.5,0.1c0.9,0.3,1.6,1.1,2.3,2.6c0.6,1.4,0.9,1.6,1.3,1.5
			c0.1,0,0.5,0,0.5-0.9c0-0.6,0-0.7-0.1-1.3l0-0.1c-0.1-1-0.2-1.6-1-2.4c-0.8-0.8-2.2-1.5-3.5-1.7c-0.5-0.1-1.1-0.2-1.6-0.2
			c-1.5,0-2.8,0.6-3.7,1.6c-0.9,1-1.3,2.3-1.3,3.8c0.1,2.9,2.3,4.8,4.1,6.2l0.2,0.1c2.3,1.9,2.9,2.9,2.7,4.2
			c-0.1,0.9-0.9,1.6-1.8,1.6c-0.2,0-0.5,0-0.7-0.1c-1.4-0.4-2.1-1.9-2.6-2.9l-0.2-0.5c-0.3-0.5-0.6-0.8-1-0.7
			c-0.2,0-0.4,0.1-0.6,0.2c-0.3,0.2-0.8,1-0.4,2.3c0.7,2.1,2.8,3.5,5.6,3.9c0.4,0.1,0.8,0.1,1.2,0.1c3.1,0,5.3-2,5.5-5
			C126.2,22.9,123.7,21,121.6,19.4 M129.8,43.5c0-0.6-1-1.5-2.3-2c-0.9,0.6-10.8,6.4-44.7,1.6l-2.7,0.5
			C124.9,51.2,129.8,44.6,129.8,43.5L129.8,43.5z M24.6,2.9c0,0.6,1,1.5,2.2,2c0.9-0.6,10.8-6.4,44.7-1.6l2.7-0.5
			C29.5-4.8,24.6,1.9,24.6,2.9z"/>
		<path class="st0" d="M127.5,41.5c1.3,0.5,2.3,1.4,2.3,2v-4c0,0,0-0.1,0-0.2c0-0.3-0.2-0.7-0.8-1.3c-1-0.9-3.3-1.7-6.8-2.2
			c-6.3-0.8-16.5,0.2-34,3.1l-1.9,0.3l-1.3,0.2l-1.3,0.2c-11.9,2.2-22.1,4.8-35.7,5.2c-11.3,0.3-16.7-0.7-20.2-2.1
			c-1.6-0.6-2.8-1.6-3.1-3l0,1.7c0,0.1,0,0.1,0,0.2c0.2,1,1.8,2.2,2.9,2.7c0,0,7,3.9,26.9,2.5C65.7,46.2,80,43.6,80,43.6l2.8-0.5
			c4.4-0.7,13.5-2.2,21.8-2.8c17.1-1.2,22.7,1.1,22.7,1.1S127.4,41.5,127.5,41.5 M26.8,4.9c-1.3-0.5-2.2-1.4-2.2-2v0l0,0.2l0,3.8
			c0,0,0,0.1,0,0.2c0,0.3,0.2,0.7,0.8,1.3c1,0.9,3.3,1.7,6.8,2.2c6.3,0.8,16.5-0.2,34-3.1l1.9-0.3L69.5,7l1.3-0.2
			C82.6,4.6,92.9,2,106.4,1.6c11.3-0.3,16.7,0.7,20.2,2.1c1.6,0.6,2.8,1.6,3.2,3V4.9c0-0.1,0-0.1,0-0.2c-0.2-1-1.8-2.2-2.9-2.7
			c0,0-7-3.9-26.9-2.5C88.6,0.3,74.3,2.9,74.3,2.9l-2.8,0.5C67.1,4.1,58,5.5,49.8,6.1C32.7,7.3,27.1,5.1,27.1,5.1S27,5,26.8,4.9"/>
	</g>
</g>
</svg>
